<?xml version="1.0" encoding="utf-8" standalone="no"?>
<!DOCTYPE svg PUBLIC "-//W3C//DTD SVG 1.1//EN"
  "http://www.w3.org/Graphics/SVG/1.1/DTD/svg11.dtd">
<svg xmlns:xlink="http://www.w3.org/1999/xlink" width="460.8pt" height="345.6pt" viewBox="0 0 460.8 345.6" xmlns="http://www.w3.org/2000/svg" version="1.1">
 <metadata>
  <rdf:RDF xmlns:dc="http://purl.org/dc/elements/1.1/" xmlns:cc="http://creativecommons.org/ns#" xmlns:rdf="http://www.w3.org/1999/02/22-rdf-syntax-ns#">
   <cc:Work>
    <dc:type rdf:resource="http://purl.org/dc/dcmitype/StillImage"/>
    <dc:date>2022-12-11T14:35:53.511397</dc:date>
    <dc:format>image/svg+xml</dc:format>
    <dc:creator>
     <cc:Agent>
      <dc:title>Matplotlib v3.5.3, https://matplotlib.org/</dc:title>
     </cc:Agent>
    </dc:creator>
   </cc:Work>
  </rdf:RDF>
 </metadata>
 <defs>
  <style type="text/css">*{stroke-linejoin: round; stroke-linecap: butt}</style>
 </defs>
 <g id="figure_1">
  <g id="patch_1">
   <path d="M 0 345.6 
L 460.8 345.6 
L 460.8 0 
L 0 0 
z
" style="fill: #ffffff"/>
  </g>
  <g id="axes_1">
   <g id="patch_2">
    <path d="M 61.93375 292.38125 
L 445.68 292.38125 
L 445.68 15.12 
L 61.93375 15.12 
z
" style="fill: #ffffff"/>
   </g>
   <g id="matplotlib.axis_1">
    <g id="xtick_1">
     <g id="line2d_1">
      <defs>
       <path id="ma93b4862c8" d="M 0 0 
L 0 3.5 
" style="stroke: #000000; stroke-width: 0.8"/>
      </defs>
      <g>
       <use xlink:href="#ma93b4862c8" x="79.376761" y="292.38125" style="stroke: #000000; stroke-width: 0.8"/>
      </g>
     </g>
     <g id="text_1">
      <!-- 0.0 -->
      <g transform="translate(68.244574 310.019062)scale(0.14 -0.14)">
       <defs>
        <path id="DejaVuSans-30" d="M 2034 4250 
Q 1547 4250 1301 3770 
Q 1056 3291 1056 2328 
Q 1056 1369 1301 889 
Q 1547 409 2034 409 
Q 2525 409 2770 889 
Q 3016 1369 3016 2328 
Q 3016 3291 2770 3770 
Q 2525 4250 2034 4250 
z
M 2034 4750 
Q 2819 4750 3233 4129 
Q 3647 3509 3647 2328 
Q 3647 1150 3233 529 
Q 2819 -91 2034 -91 
Q 1250 -91 836 529 
Q 422 1150 422 2328 
Q 422 3509 836 4129 
Q 1250 4750 2034 4750 
z
" transform="scale(0.015625)"/>
        <path id="DejaVuSans-2e" d="M 684 794 
L 1344 794 
L 1344 0 
L 684 0 
L 684 794 
z
" transform="scale(0.015625)"/>
       </defs>
       <use xlink:href="#DejaVuSans-30"/>
       <use xlink:href="#DejaVuSans-2e" x="63.623047"/>
       <use xlink:href="#DejaVuSans-30" x="95.410156"/>
      </g>
     </g>
    </g>
    <g id="xtick_2">
     <g id="line2d_2">
      <g>
       <use xlink:href="#ma93b4862c8" x="149.148807" y="292.38125" style="stroke: #000000; stroke-width: 0.8"/>
      </g>
     </g>
     <g id="text_2">
      <!-- 0.2 -->
      <g transform="translate(138.016619 310.019062)scale(0.14 -0.14)">
       <defs>
        <path id="DejaVuSans-32" d="M 1228 531 
L 3431 531 
L 3431 0 
L 469 0 
L 469 531 
Q 828 903 1448 1529 
Q 2069 2156 2228 2338 
Q 2531 2678 2651 2914 
Q 2772 3150 2772 3378 
Q 2772 3750 2511 3984 
Q 2250 4219 1831 4219 
Q 1534 4219 1204 4116 
Q 875 4013 500 3803 
L 500 4441 
Q 881 4594 1212 4672 
Q 1544 4750 1819 4750 
Q 2544 4750 2975 4387 
Q 3406 4025 3406 3419 
Q 3406 3131 3298 2873 
Q 3191 2616 2906 2266 
Q 2828 2175 2409 1742 
Q 1991 1309 1228 531 
z
" transform="scale(0.015625)"/>
       </defs>
       <use xlink:href="#DejaVuSans-30"/>
       <use xlink:href="#DejaVuSans-2e" x="63.623047"/>
       <use xlink:href="#DejaVuSans-32" x="95.410156"/>
      </g>
     </g>
    </g>
    <g id="xtick_3">
     <g id="line2d_3">
      <g>
       <use xlink:href="#ma93b4862c8" x="218.920852" y="292.38125" style="stroke: #000000; stroke-width: 0.8"/>
      </g>
     </g>
     <g id="text_3">
      <!-- 0.4 -->
      <g transform="translate(207.788665 310.019062)scale(0.14 -0.14)">
       <defs>
        <path id="DejaVuSans-34" d="M 2419 4116 
L 825 1625 
L 2419 1625 
L 2419 4116 
z
M 2253 4666 
L 3047 4666 
L 3047 1625 
L 3713 1625 
L 3713 1100 
L 3047 1100 
L 3047 0 
L 2419 0 
L 2419 1100 
L 313 1100 
L 313 1709 
L 2253 4666 
z
" transform="scale(0.015625)"/>
       </defs>
       <use xlink:href="#DejaVuSans-30"/>
       <use xlink:href="#DejaVuSans-2e" x="63.623047"/>
       <use xlink:href="#DejaVuSans-34" x="95.410156"/>
      </g>
     </g>
    </g>
    <g id="xtick_4">
     <g id="line2d_4">
      <g>
       <use xlink:href="#ma93b4862c8" x="288.692898" y="292.38125" style="stroke: #000000; stroke-width: 0.8"/>
      </g>
     </g>
     <g id="text_4">
      <!-- 0.6 -->
      <g transform="translate(277.56071 310.019062)scale(0.14 -0.14)">
       <defs>
        <path id="DejaVuSans-36" d="M 2113 2584 
Q 1688 2584 1439 2293 
Q 1191 2003 1191 1497 
Q 1191 994 1439 701 
Q 1688 409 2113 409 
Q 2538 409 2786 701 
Q 3034 994 3034 1497 
Q 3034 2003 2786 2293 
Q 2538 2584 2113 2584 
z
M 3366 4563 
L 3366 3988 
Q 3128 4100 2886 4159 
Q 2644 4219 2406 4219 
Q 1781 4219 1451 3797 
Q 1122 3375 1075 2522 
Q 1259 2794 1537 2939 
Q 1816 3084 2150 3084 
Q 2853 3084 3261 2657 
Q 3669 2231 3669 1497 
Q 3669 778 3244 343 
Q 2819 -91 2113 -91 
Q 1303 -91 875 529 
Q 447 1150 447 2328 
Q 447 3434 972 4092 
Q 1497 4750 2381 4750 
Q 2619 4750 2861 4703 
Q 3103 4656 3366 4563 
z
" transform="scale(0.015625)"/>
       </defs>
       <use xlink:href="#DejaVuSans-30"/>
       <use xlink:href="#DejaVuSans-2e" x="63.623047"/>
       <use xlink:href="#DejaVuSans-36" x="95.410156"/>
      </g>
     </g>
    </g>
    <g id="xtick_5">
     <g id="line2d_5">
      <g>
       <use xlink:href="#ma93b4862c8" x="358.464943" y="292.38125" style="stroke: #000000; stroke-width: 0.8"/>
      </g>
     </g>
     <g id="text_5">
      <!-- 0.8 -->
      <g transform="translate(347.332756 310.019062)scale(0.14 -0.14)">
       <defs>
        <path id="DejaVuSans-38" d="M 2034 2216 
Q 1584 2216 1326 1975 
Q 1069 1734 1069 1313 
Q 1069 891 1326 650 
Q 1584 409 2034 409 
Q 2484 409 2743 651 
Q 3003 894 3003 1313 
Q 3003 1734 2745 1975 
Q 2488 2216 2034 2216 
z
M 1403 2484 
Q 997 2584 770 2862 
Q 544 3141 544 3541 
Q 544 4100 942 4425 
Q 1341 4750 2034 4750 
Q 2731 4750 3128 4425 
Q 3525 4100 3525 3541 
Q 3525 3141 3298 2862 
Q 3072 2584 2669 2484 
Q 3125 2378 3379 2068 
Q 3634 1759 3634 1313 
Q 3634 634 3220 271 
Q 2806 -91 2034 -91 
Q 1263 -91 848 271 
Q 434 634 434 1313 
Q 434 1759 690 2068 
Q 947 2378 1403 2484 
z
M 1172 3481 
Q 1172 3119 1398 2916 
Q 1625 2713 2034 2713 
Q 2441 2713 2670 2916 
Q 2900 3119 2900 3481 
Q 2900 3844 2670 4047 
Q 2441 4250 2034 4250 
Q 1625 4250 1398 4047 
Q 1172 3844 1172 3481 
z
" transform="scale(0.015625)"/>
       </defs>
       <use xlink:href="#DejaVuSans-30"/>
       <use xlink:href="#DejaVuSans-2e" x="63.623047"/>
       <use xlink:href="#DejaVuSans-38" x="95.410156"/>
      </g>
     </g>
    </g>
    <g id="xtick_6">
     <g id="line2d_6">
      <g>
       <use xlink:href="#ma93b4862c8" x="428.236989" y="292.38125" style="stroke: #000000; stroke-width: 0.8"/>
      </g>
     </g>
     <g id="text_6">
      <!-- 1.0 -->
      <g transform="translate(417.104801 310.019062)scale(0.14 -0.14)">
       <defs>
        <path id="DejaVuSans-31" d="M 794 531 
L 1825 531 
L 1825 4091 
L 703 3866 
L 703 4441 
L 1819 4666 
L 2450 4666 
L 2450 531 
L 3481 531 
L 3481 0 
L 794 0 
L 794 531 
z
" transform="scale(0.015625)"/>
       </defs>
       <use xlink:href="#DejaVuSans-31"/>
       <use xlink:href="#DejaVuSans-2e" x="63.623047"/>
       <use xlink:href="#DejaVuSans-30" x="95.410156"/>
      </g>
     </g>
    </g>
    <g id="text_7">
     <!-- x [] -->
     <g transform="translate(241.976875 327.568437)scale(0.14 -0.14)">
      <defs>
       <path id="DejaVuSans-78" d="M 3513 3500 
L 2247 1797 
L 3578 0 
L 2900 0 
L 1881 1375 
L 863 0 
L 184 0 
L 1544 1831 
L 300 3500 
L 978 3500 
L 1906 2253 
L 2834 3500 
L 3513 3500 
z
" transform="scale(0.015625)"/>
       <path id="DejaVuSans-20" transform="scale(0.015625)"/>
       <path id="DejaVuSans-5b" d="M 550 4863 
L 1875 4863 
L 1875 4416 
L 1125 4416 
L 1125 -397 
L 1875 -397 
L 1875 -844 
L 550 -844 
L 550 4863 
z
" transform="scale(0.015625)"/>
       <path id="DejaVuSans-5d" d="M 1947 4863 
L 1947 -844 
L 622 -844 
L 622 -397 
L 1369 -397 
L 1369 4416 
L 622 4416 
L 622 4863 
L 1947 4863 
z
" transform="scale(0.015625)"/>
      </defs>
      <use xlink:href="#DejaVuSans-78"/>
      <use xlink:href="#DejaVuSans-20" x="59.179688"/>
      <use xlink:href="#DejaVuSans-5b" x="90.966797"/>
      <use xlink:href="#DejaVuSans-5d" x="129.980469"/>
     </g>
    </g>
   </g>
   <g id="matplotlib.axis_2">
    <g id="ytick_1">
     <g id="line2d_7">
      <defs>
       <path id="m7a32c6eb54" d="M 0 0 
L -3.5 0 
" style="stroke: #000000; stroke-width: 0.8"/>
      </defs>
      <g>
       <use xlink:href="#m7a32c6eb54" x="61.93375" y="279.778466" style="stroke: #000000; stroke-width: 0.8"/>
      </g>
     </g>
     <g id="text_8">
      <!-- 0.0 -->
      <g transform="translate(32.669375 285.097372)scale(0.14 -0.14)">
       <use xlink:href="#DejaVuSans-30"/>
       <use xlink:href="#DejaVuSans-2e" x="63.623047"/>
       <use xlink:href="#DejaVuSans-30" x="95.410156"/>
      </g>
     </g>
    </g>
    <g id="ytick_2">
     <g id="line2d_8">
      <g>
       <use xlink:href="#m7a32c6eb54" x="61.93375" y="229.19456" style="stroke: #000000; stroke-width: 0.8"/>
      </g>
     </g>
     <g id="text_9">
      <!-- 0.2 -->
      <g transform="translate(32.669375 234.513466)scale(0.14 -0.14)">
       <use xlink:href="#DejaVuSans-30"/>
       <use xlink:href="#DejaVuSans-2e" x="63.623047"/>
       <use xlink:href="#DejaVuSans-32" x="95.410156"/>
      </g>
     </g>
    </g>
    <g id="ytick_3">
     <g id="line2d_9">
      <g>
       <use xlink:href="#m7a32c6eb54" x="61.93375" y="178.610654" style="stroke: #000000; stroke-width: 0.8"/>
      </g>
     </g>
     <g id="text_10">
      <!-- 0.4 -->
      <g transform="translate(32.669375 183.92956)scale(0.14 -0.14)">
       <use xlink:href="#DejaVuSans-30"/>
       <use xlink:href="#DejaVuSans-2e" x="63.623047"/>
       <use xlink:href="#DejaVuSans-34" x="95.410156"/>
      </g>
     </g>
    </g>
    <g id="ytick_4">
     <g id="line2d_10">
      <g>
       <use xlink:href="#m7a32c6eb54" x="61.93375" y="128.026748" style="stroke: #000000; stroke-width: 0.8"/>
      </g>
     </g>
     <g id="text_11">
      <!-- 0.6 -->
      <g transform="translate(32.669375 133.345654)scale(0.14 -0.14)">
       <use xlink:href="#DejaVuSans-30"/>
       <use xlink:href="#DejaVuSans-2e" x="63.623047"/>
       <use xlink:href="#DejaVuSans-36" x="95.410156"/>
      </g>
     </g>
    </g>
    <g id="ytick_5">
     <g id="line2d_11">
      <g>
       <use xlink:href="#m7a32c6eb54" x="61.93375" y="77.442842" style="stroke: #000000; stroke-width: 0.8"/>
      </g>
     </g>
     <g id="text_12">
      <!-- 0.8 -->
      <g transform="translate(32.669375 82.761748)scale(0.14 -0.14)">
       <use xlink:href="#DejaVuSans-30"/>
       <use xlink:href="#DejaVuSans-2e" x="63.623047"/>
       <use xlink:href="#DejaVuSans-38" x="95.410156"/>
      </g>
     </g>
    </g>
    <g id="ytick_6">
     <g id="line2d_12">
      <g>
       <use xlink:href="#m7a32c6eb54" x="61.93375" y="26.858936" style="stroke: #000000; stroke-width: 0.8"/>
      </g>
     </g>
     <g id="text_13">
      <!-- 1.0 -->
      <g transform="translate(32.669375 32.177842)scale(0.14 -0.14)">
       <use xlink:href="#DejaVuSans-31"/>
       <use xlink:href="#DejaVuSans-2e" x="63.623047"/>
       <use xlink:href="#DejaVuSans-30" x="95.410156"/>
      </g>
     </g>
    </g>
    <g id="text_14">
     <!-- u [] -->
     <g transform="translate(25.757812 165.87375)rotate(-90)scale(0.14 -0.14)">
      <defs>
       <path id="DejaVuSans-75" d="M 544 1381 
L 544 3500 
L 1119 3500 
L 1119 1403 
Q 1119 906 1312 657 
Q 1506 409 1894 409 
Q 2359 409 2629 706 
Q 2900 1003 2900 1516 
L 2900 3500 
L 3475 3500 
L 3475 0 
L 2900 0 
L 2900 538 
Q 2691 219 2414 64 
Q 2138 -91 1772 -91 
Q 1169 -91 856 284 
Q 544 659 544 1381 
z
M 1991 3584 
L 1991 3584 
z
" transform="scale(0.015625)"/>
      </defs>
      <use xlink:href="#DejaVuSans-75"/>
      <use xlink:href="#DejaVuSans-20" x="63.378906"/>
      <use xlink:href="#DejaVuSans-5b" x="95.166016"/>
      <use xlink:href="#DejaVuSans-5d" x="134.179688"/>
     </g>
    </g>
   </g>
   <g id="line2d_13">
    <path d="M 79.376761 279.778466 
L 97.737826 238.149279 
L 116.098891 197.655629 
L 134.459955 159.402075 
L 152.82102 124.432075 
L 171.182084 93.69952 
L 189.543149 68.042713 
L 207.904214 48.161506 
L 226.265278 34.598206 
L 244.626343 27.722784 
L 262.987407 27.722784 
L 281.348472 34.598206 
L 299.709536 48.161506 
L 318.070601 68.042713 
L 336.431666 93.69952 
L 354.79273 124.432075 
L 373.153795 159.402075 
L 391.514859 197.655629 
L 409.875924 238.149279 
L 428.236989 279.778466 
" clip-path="url(#p42f442aabd)" style="fill: none; stroke: #1f77b4; stroke-width: 1.5; stroke-linecap: square"/>
    <defs>
     <path id="m9defb22b64" d="M 0 1.5 
C 0.397805 1.5 0.77937 1.341951 1.06066 1.06066 
C 1.341951 0.77937 1.5 0.397805 1.5 0 
C 1.5 -0.397805 1.341951 -0.77937 1.06066 -1.06066 
C 0.77937 -1.341951 0.397805 -1.5 0 -1.5 
C -0.397805 -1.5 -0.77937 -1.341951 -1.06066 -1.06066 
C -1.341951 -0.77937 -1.5 -0.397805 -1.5 0 
C -1.5 0.397805 -1.341951 0.77937 -1.06066 1.06066 
C -0.77937 1.341951 -0.397805 1.5 0 1.5 
z
" style="stroke: #1f77b4"/>
    </defs>
    <g clip-path="url(#p42f442aabd)">
     <use xlink:href="#m9defb22b64" x="79.376761" y="279.778466" style="fill: #1f77b4; stroke: #1f77b4"/>
     <use xlink:href="#m9defb22b64" x="97.737826" y="238.149279" style="fill: #1f77b4; stroke: #1f77b4"/>
     <use xlink:href="#m9defb22b64" x="116.098891" y="197.655629" style="fill: #1f77b4; stroke: #1f77b4"/>
     <use xlink:href="#m9defb22b64" x="134.459955" y="159.402075" style="fill: #1f77b4; stroke: #1f77b4"/>
     <use xlink:href="#m9defb22b64" x="152.82102" y="124.432075" style="fill: #1f77b4; stroke: #1f77b4"/>
     <use xlink:href="#m9defb22b64" x="171.182084" y="93.69952" style="fill: #1f77b4; stroke: #1f77b4"/>
     <use xlink:href="#m9defb22b64" x="189.543149" y="68.042713" style="fill: #1f77b4; stroke: #1f77b4"/>
     <use xlink:href="#m9defb22b64" x="207.904214" y="48.161506" style="fill: #1f77b4; stroke: #1f77b4"/>
     <use xlink:href="#m9defb22b64" x="226.265278" y="34.598206" style="fill: #1f77b4; stroke: #1f77b4"/>
     <use xlink:href="#m9defb22b64" x="244.626343" y="27.722784" style="fill: #1f77b4; stroke: #1f77b4"/>
     <use xlink:href="#m9defb22b64" x="262.987407" y="27.722784" style="fill: #1f77b4; stroke: #1f77b4"/>
     <use xlink:href="#m9defb22b64" x="281.348472" y="34.598206" style="fill: #1f77b4; stroke: #1f77b4"/>
     <use xlink:href="#m9defb22b64" x="299.709536" y="48.161506" style="fill: #1f77b4; stroke: #1f77b4"/>
     <use xlink:href="#m9defb22b64" x="318.070601" y="68.042713" style="fill: #1f77b4; stroke: #1f77b4"/>
     <use xlink:href="#m9defb22b64" x="336.431666" y="93.69952" style="fill: #1f77b4; stroke: #1f77b4"/>
     <use xlink:href="#m9defb22b64" x="354.79273" y="124.432075" style="fill: #1f77b4; stroke: #1f77b4"/>
     <use xlink:href="#m9defb22b64" x="373.153795" y="159.402075" style="fill: #1f77b4; stroke: #1f77b4"/>
     <use xlink:href="#m9defb22b64" x="391.514859" y="197.655629" style="fill: #1f77b4; stroke: #1f77b4"/>
     <use xlink:href="#m9defb22b64" x="409.875924" y="238.149279" style="fill: #1f77b4; stroke: #1f77b4"/>
     <use xlink:href="#m9defb22b64" x="428.236989" y="279.778466" style="fill: #1f77b4; stroke: #1f77b4"/>
    </g>
   </g>
   <g id="line2d_14">
    <path d="M 79.376761 279.778466 
L 97.737826 238.149279 
L 116.098891 197.655629 
L 134.459955 159.402075 
L 152.82102 124.432075 
L 171.182084 93.69952 
L 189.543149 68.042713 
L 207.904214 48.161506 
L 226.265278 34.598206 
L 244.626343 27.722784 
L 262.987407 27.722784 
L 281.348472 34.598206 
L 299.709536 48.161506 
L 318.070601 68.042713 
L 336.431666 93.69952 
L 354.79273 124.432075 
L 373.153795 159.402075 
L 391.514859 197.655629 
L 409.875924 238.149279 
L 428.236989 279.778466 
" clip-path="url(#p42f442aabd)" style="fill: none; stroke: #ff7f0e; stroke-width: 1.5; stroke-linecap: square"/>
    <defs>
     <path id="mfcfbbefc80" d="M 0 1.5 
C 0.397805 1.5 0.77937 1.341951 1.06066 1.06066 
C 1.341951 0.77937 1.5 0.397805 1.5 0 
C 1.5 -0.397805 1.341951 -0.77937 1.06066 -1.06066 
C 0.77937 -1.341951 0.397805 -1.5 0 -1.5 
C -0.397805 -1.5 -0.77937 -1.341951 -1.06066 -1.06066 
C -1.341951 -0.77937 -1.5 -0.397805 -1.5 0 
C -1.5 0.397805 -1.341951 0.77937 -1.06066 1.06066 
C -0.77937 1.341951 -0.397805 1.5 0 1.5 
z
" style="stroke: #ff7f0e"/>
    </defs>
    <g clip-path="url(#p42f442aabd)">
     <use xlink:href="#mfcfbbefc80" x="79.376761" y="279.778466" style="fill: #ff7f0e; stroke: #ff7f0e"/>
     <use xlink:href="#mfcfbbefc80" x="97.737826" y="238.149279" style="fill: #ff7f0e; stroke: #ff7f0e"/>
     <use xlink:href="#mfcfbbefc80" x="116.098891" y="197.655629" style="fill: #ff7f0e; stroke: #ff7f0e"/>
     <use xlink:href="#mfcfbbefc80" x="134.459955" y="159.402075" style="fill: #ff7f0e; stroke: #ff7f0e"/>
     <use xlink:href="#mfcfbbefc80" x="152.82102" y="124.432075" style="fill: #ff7f0e; stroke: #ff7f0e"/>
     <use xlink:href="#mfcfbbefc80" x="171.182084" y="93.69952" style="fill: #ff7f0e; stroke: #ff7f0e"/>
     <use xlink:href="#mfcfbbefc80" x="189.543149" y="68.042713" style="fill: #ff7f0e; stroke: #ff7f0e"/>
     <use xlink:href="#mfcfbbefc80" x="207.904214" y="48.161506" style="fill: #ff7f0e; stroke: #ff7f0e"/>
     <use xlink:href="#mfcfbbefc80" x="226.265278" y="34.598206" style="fill: #ff7f0e; stroke: #ff7f0e"/>
     <use xlink:href="#mfcfbbefc80" x="244.626343" y="27.722784" style="fill: #ff7f0e; stroke: #ff7f0e"/>
     <use xlink:href="#mfcfbbefc80" x="262.987407" y="27.722784" style="fill: #ff7f0e; stroke: #ff7f0e"/>
     <use xlink:href="#mfcfbbefc80" x="281.348472" y="34.598206" style="fill: #ff7f0e; stroke: #ff7f0e"/>
     <use xlink:href="#mfcfbbefc80" x="299.709536" y="48.161506" style="fill: #ff7f0e; stroke: #ff7f0e"/>
     <use xlink:href="#mfcfbbefc80" x="318.070601" y="68.042713" style="fill: #ff7f0e; stroke: #ff7f0e"/>
     <use xlink:href="#mfcfbbefc80" x="336.431666" y="93.69952" style="fill: #ff7f0e; stroke: #ff7f0e"/>
     <use xlink:href="#mfcfbbefc80" x="354.79273" y="124.432075" style="fill: #ff7f0e; stroke: #ff7f0e"/>
     <use xlink:href="#mfcfbbefc80" x="373.153795" y="159.402075" style="fill: #ff7f0e; stroke: #ff7f0e"/>
     <use xlink:href="#mfcfbbefc80" x="391.514859" y="197.655629" style="fill: #ff7f0e; stroke: #ff7f0e"/>
     <use xlink:href="#mfcfbbefc80" x="409.875924" y="238.149279" style="fill: #ff7f0e; stroke: #ff7f0e"/>
     <use xlink:href="#mfcfbbefc80" x="428.236989" y="279.778466" style="fill: #ff7f0e; stroke: #ff7f0e"/>
    </g>
   </g>
   <g id="line2d_15">
    <path d="M 79.376761 279.778466 
L 97.737826 238.149279 
L 116.098891 197.655629 
L 134.459955 159.402075 
L 152.82102 124.432075 
L 171.182084 93.69952 
L 189.543149 68.042713 
L 207.904214 48.161506 
L 226.265278 34.598206 
L 244.626343 27.722784 
L 262.987407 27.722784 
L 281.348472 34.598206 
L 299.709536 48.161506 
L 318.070601 68.042713 
L 336.431666 93.69952 
L 354.79273 124.432075 
L 373.153795 159.402075 
L 391.514859 197.655629 
L 409.875924 238.149279 
L 428.236989 279.778466 
" clip-path="url(#p42f442aabd)" style="fill: none; stroke: #2ca02c; stroke-width: 1.5; stroke-linecap: square"/>
    <defs>
     <path id="m93205f33a3" d="M 0 1.5 
C 0.397805 1.5 0.77937 1.341951 1.06066 1.06066 
C 1.341951 0.77937 1.5 0.397805 1.5 0 
C 1.5 -0.397805 1.341951 -0.77937 1.06066 -1.06066 
C 0.77937 -1.341951 0.397805 -1.5 0 -1.5 
C -0.397805 -1.5 -0.77937 -1.341951 -1.06066 -1.06066 
C -1.341951 -0.77937 -1.5 -0.397805 -1.5 0 
C -1.5 0.397805 -1.341951 0.77937 -1.06066 1.06066 
C -0.77937 1.341951 -0.397805 1.5 0 1.5 
z
" style="stroke: #2ca02c"/>
    </defs>
    <g clip-path="url(#p42f442aabd)">
     <use xlink:href="#m93205f33a3" x="79.376761" y="279.778466" style="fill: #2ca02c; stroke: #2ca02c"/>
     <use xlink:href="#m93205f33a3" x="97.737826" y="238.149279" style="fill: #2ca02c; stroke: #2ca02c"/>
     <use xlink:href="#m93205f33a3" x="116.098891" y="197.655629" style="fill: #2ca02c; stroke: #2ca02c"/>
     <use xlink:href="#m93205f33a3" x="134.459955" y="159.402075" style="fill: #2ca02c; stroke: #2ca02c"/>
     <use xlink:href="#m93205f33a3" x="152.82102" y="124.432075" style="fill: #2ca02c; stroke: #2ca02c"/>
     <use xlink:href="#m93205f33a3" x="171.182084" y="93.69952" style="fill: #2ca02c; stroke: #2ca02c"/>
     <use xlink:href="#m93205f33a3" x="189.543149" y="68.042713" style="fill: #2ca02c; stroke: #2ca02c"/>
     <use xlink:href="#m93205f33a3" x="207.904214" y="48.161506" style="fill: #2ca02c; stroke: #2ca02c"/>
     <use xlink:href="#m93205f33a3" x="226.265278" y="34.598206" style="fill: #2ca02c; stroke: #2ca02c"/>
     <use xlink:href="#m93205f33a3" x="244.626343" y="27.722784" style="fill: #2ca02c; stroke: #2ca02c"/>
     <use xlink:href="#m93205f33a3" x="262.987407" y="27.722784" style="fill: #2ca02c; stroke: #2ca02c"/>
     <use xlink:href="#m93205f33a3" x="281.348472" y="34.598206" style="fill: #2ca02c; stroke: #2ca02c"/>
     <use xlink:href="#m93205f33a3" x="299.709536" y="48.161506" style="fill: #2ca02c; stroke: #2ca02c"/>
     <use xlink:href="#m93205f33a3" x="318.070601" y="68.042713" style="fill: #2ca02c; stroke: #2ca02c"/>
     <use xlink:href="#m93205f33a3" x="336.431666" y="93.69952" style="fill: #2ca02c; stroke: #2ca02c"/>
     <use xlink:href="#m93205f33a3" x="354.79273" y="124.432075" style="fill: #2ca02c; stroke: #2ca02c"/>
     <use xlink:href="#m93205f33a3" x="373.153795" y="159.402075" style="fill: #2ca02c; stroke: #2ca02c"/>
     <use xlink:href="#m93205f33a3" x="391.514859" y="197.655629" style="fill: #2ca02c; stroke: #2ca02c"/>
     <use xlink:href="#m93205f33a3" x="409.875924" y="238.149279" style="fill: #2ca02c; stroke: #2ca02c"/>
     <use xlink:href="#m93205f33a3" x="428.236989" y="279.778466" style="fill: #2ca02c; stroke: #2ca02c"/>
    </g>
   </g>
   <g id="line2d_16">
    <path d="M 79.376761 279.778466 
L 97.737826 238.149279 
L 116.098891 197.655629 
L 134.459955 159.402075 
L 152.82102 124.432075 
L 171.182084 93.69952 
L 189.543149 68.042713 
L 207.904214 48.161506 
L 226.265278 34.598206 
L 244.626343 27.722784 
L 262.987407 27.722784 
L 281.348472 34.598206 
L 299.709536 48.161506 
L 318.070601 68.042713 
L 336.431666 93.69952 
L 354.79273 124.432075 
L 373.153795 159.402075 
L 391.514859 197.655629 
L 409.875924 238.149279 
L 428.236989 279.778466 
" clip-path="url(#p42f442aabd)" style="fill: none; stroke: #d62728; stroke-width: 1.5; stroke-linecap: square"/>
    <defs>
     <path id="m65918b2ed3" d="M 0 1.5 
C 0.397805 1.5 0.77937 1.341951 1.06066 1.06066 
C 1.341951 0.77937 1.5 0.397805 1.5 0 
C 1.5 -0.397805 1.341951 -0.77937 1.06066 -1.06066 
C 0.77937 -1.341951 0.397805 -1.5 0 -1.5 
C -0.397805 -1.5 -0.77937 -1.341951 -1.06066 -1.06066 
C -1.341951 -0.77937 -1.5 -0.397805 -1.5 0 
C -1.5 0.397805 -1.341951 0.77937 -1.06066 1.06066 
C -0.77937 1.341951 -0.397805 1.5 0 1.5 
z
" style="stroke: #d62728"/>
    </defs>
    <g clip-path="url(#p42f442aabd)">
     <use xlink:href="#m65918b2ed3" x="79.376761" y="279.778466" style="fill: #d62728; stroke: #d62728"/>
     <use xlink:href="#m65918b2ed3" x="97.737826" y="238.149279" style="fill: #d62728; stroke: #d62728"/>
     <use xlink:href="#m65918b2ed3" x="116.098891" y="197.655629" style="fill: #d62728; stroke: #d62728"/>
     <use xlink:href="#m65918b2ed3" x="134.459955" y="159.402075" style="fill: #d62728; stroke: #d62728"/>
     <use xlink:href="#m65918b2ed3" x="152.82102" y="124.432075" style="fill: #d62728; stroke: #d62728"/>
     <use xlink:href="#m65918b2ed3" x="171.182084" y="93.69952" style="fill: #d62728; stroke: #d62728"/>
     <use xlink:href="#m65918b2ed3" x="189.543149" y="68.042713" style="fill: #d62728; stroke: #d62728"/>
     <use xlink:href="#m65918b2ed3" x="207.904214" y="48.161506" style="fill: #d62728; stroke: #d62728"/>
     <use xlink:href="#m65918b2ed3" x="226.265278" y="34.598206" style="fill: #d62728; stroke: #d62728"/>
     <use xlink:href="#m65918b2ed3" x="244.626343" y="27.722784" style="fill: #d62728; stroke: #d62728"/>
     <use xlink:href="#m65918b2ed3" x="262.987407" y="27.722784" style="fill: #d62728; stroke: #d62728"/>
     <use xlink:href="#m65918b2ed3" x="281.348472" y="34.598206" style="fill: #d62728; stroke: #d62728"/>
     <use xlink:href="#m65918b2ed3" x="299.709536" y="48.161506" style="fill: #d62728; stroke: #d62728"/>
     <use xlink:href="#m65918b2ed3" x="318.070601" y="68.042713" style="fill: #d62728; stroke: #d62728"/>
     <use xlink:href="#m65918b2ed3" x="336.431666" y="93.69952" style="fill: #d62728; stroke: #d62728"/>
     <use xlink:href="#m65918b2ed3" x="354.79273" y="124.432075" style="fill: #d62728; stroke: #d62728"/>
     <use xlink:href="#m65918b2ed3" x="373.153795" y="159.402075" style="fill: #d62728; stroke: #d62728"/>
     <use xlink:href="#m65918b2ed3" x="391.514859" y="197.655629" style="fill: #d62728; stroke: #d62728"/>
     <use xlink:href="#m65918b2ed3" x="409.875924" y="238.149279" style="fill: #d62728; stroke: #d62728"/>
     <use xlink:href="#m65918b2ed3" x="428.236989" y="279.778466" style="fill: #d62728; stroke: #d62728"/>
    </g>
   </g>
   <g id="line2d_17">
    <path d="M 79.376761 279.778466 
L 97.737826 238.149279 
L 116.098891 197.655629 
L 134.459955 159.402075 
L 152.82102 124.432075 
L 171.182084 93.69952 
L 189.543149 68.042713 
L 207.904214 48.161506 
L 226.265278 34.598206 
L 244.626343 27.722784 
L 262.987407 27.722784 
L 281.348472 34.598206 
L 299.709536 48.161506 
L 318.070601 68.042713 
L 336.431666 93.69952 
L 354.79273 124.432075 
L 373.153795 159.402075 
L 391.514859 197.655629 
L 409.875924 238.149279 
L 428.236989 279.778466 
" clip-path="url(#p42f442aabd)" style="fill: none; stroke-dasharray: 5.55,2.4; stroke-dashoffset: 0; stroke: #000000; stroke-width: 1.5"/>
   </g>
   <g id="patch_3">
    <path d="M 61.93375 292.38125 
L 61.93375 15.12 
" style="fill: none; stroke: #000000; stroke-width: 0.8; stroke-linejoin: miter; stroke-linecap: square"/>
   </g>
   <g id="patch_4">
    <path d="M 445.68 292.38125 
L 445.68 15.12 
" style="fill: none; stroke: #000000; stroke-width: 0.8; stroke-linejoin: miter; stroke-linecap: square"/>
   </g>
   <g id="patch_5">
    <path d="M 61.93375 292.38125 
L 445.68 292.38125 
" style="fill: none; stroke: #000000; stroke-width: 0.8; stroke-linejoin: miter; stroke-linecap: square"/>
   </g>
   <g id="patch_6">
    <path d="M 61.93375 15.12 
L 445.68 15.12 
" style="fill: none; stroke: #000000; stroke-width: 0.8; stroke-linejoin: miter; stroke-linecap: square"/>
   </g>
   <g id="legend_1">
    <g id="patch_7">
     <path d="M 140.996406 285.38125 
L 366.617344 285.38125 
Q 369.417344 285.38125 369.417344 282.58125 
L 369.417344 180.455625 
Q 369.417344 177.655625 366.617344 177.655625 
L 140.996406 177.655625 
Q 138.196406 177.655625 138.196406 180.455625 
L 138.196406 282.58125 
Q 138.196406 285.38125 140.996406 285.38125 
z
" style="fill: #ffffff; opacity: 0.8; stroke: #cccccc; stroke-linejoin: miter"/>
    </g>
    <g id="line2d_18">
     <path d="M 143.796406 188.993437 
L 157.796406 188.993437 
L 171.796406 188.993437 
" style="fill: none; stroke: #1f77b4; stroke-width: 1.5; stroke-linecap: square"/>
     <g>
      <use xlink:href="#m9defb22b64" x="157.796406" y="188.993437" style="fill: #1f77b4; stroke: #1f77b4"/>
     </g>
    </g>
    <g id="text_15">
     <!-- hn=100 tp='LEAKY_RELU' -->
     <g transform="translate(182.996406 193.893437)scale(0.14 -0.14)">
      <defs>
       <path id="DejaVuSans-68" d="M 3513 2113 
L 3513 0 
L 2938 0 
L 2938 2094 
Q 2938 2591 2744 2837 
Q 2550 3084 2163 3084 
Q 1697 3084 1428 2787 
Q 1159 2491 1159 1978 
L 1159 0 
L 581 0 
L 581 4863 
L 1159 4863 
L 1159 2956 
Q 1366 3272 1645 3428 
Q 1925 3584 2291 3584 
Q 2894 3584 3203 3211 
Q 3513 2838 3513 2113 
z
" transform="scale(0.015625)"/>
       <path id="DejaVuSans-6e" d="M 3513 2113 
L 3513 0 
L 2938 0 
L 2938 2094 
Q 2938 2591 2744 2837 
Q 2550 3084 2163 3084 
Q 1697 3084 1428 2787 
Q 1159 2491 1159 1978 
L 1159 0 
L 581 0 
L 581 3500 
L 1159 3500 
L 1159 2956 
Q 1366 3272 1645 3428 
Q 1925 3584 2291 3584 
Q 2894 3584 3203 3211 
Q 3513 2838 3513 2113 
z
" transform="scale(0.015625)"/>
       <path id="DejaVuSans-3d" d="M 678 2906 
L 4684 2906 
L 4684 2381 
L 678 2381 
L 678 2906 
z
M 678 1631 
L 4684 1631 
L 4684 1100 
L 678 1100 
L 678 1631 
z
" transform="scale(0.015625)"/>
       <path id="DejaVuSans-74" d="M 1172 4494 
L 1172 3500 
L 2356 3500 
L 2356 3053 
L 1172 3053 
L 1172 1153 
Q 1172 725 1289 603 
Q 1406 481 1766 481 
L 2356 481 
L 2356 0 
L 1766 0 
Q 1100 0 847 248 
Q 594 497 594 1153 
L 594 3053 
L 172 3053 
L 172 3500 
L 594 3500 
L 594 4494 
L 1172 4494 
z
" transform="scale(0.015625)"/>
       <path id="DejaVuSans-70" d="M 1159 525 
L 1159 -1331 
L 581 -1331 
L 581 3500 
L 1159 3500 
L 1159 2969 
Q 1341 3281 1617 3432 
Q 1894 3584 2278 3584 
Q 2916 3584 3314 3078 
Q 3713 2572 3713 1747 
Q 3713 922 3314 415 
Q 2916 -91 2278 -91 
Q 1894 -91 1617 61 
Q 1341 213 1159 525 
z
M 3116 1747 
Q 3116 2381 2855 2742 
Q 2594 3103 2138 3103 
Q 1681 3103 1420 2742 
Q 1159 2381 1159 1747 
Q 1159 1113 1420 752 
Q 1681 391 2138 391 
Q 2594 391 2855 752 
Q 3116 1113 3116 1747 
z
" transform="scale(0.015625)"/>
       <path id="DejaVuSans-27" d="M 1147 4666 
L 1147 2931 
L 616 2931 
L 616 4666 
L 1147 4666 
z
" transform="scale(0.015625)"/>
       <path id="DejaVuSans-4c" d="M 628 4666 
L 1259 4666 
L 1259 531 
L 3531 531 
L 3531 0 
L 628 0 
L 628 4666 
z
" transform="scale(0.015625)"/>
       <path id="DejaVuSans-45" d="M 628 4666 
L 3578 4666 
L 3578 4134 
L 1259 4134 
L 1259 2753 
L 3481 2753 
L 3481 2222 
L 1259 2222 
L 1259 531 
L 3634 531 
L 3634 0 
L 628 0 
L 628 4666 
z
" transform="scale(0.015625)"/>
       <path id="DejaVuSans-41" d="M 2188 4044 
L 1331 1722 
L 3047 1722 
L 2188 4044 
z
M 1831 4666 
L 2547 4666 
L 4325 0 
L 3669 0 
L 3244 1197 
L 1141 1197 
L 716 0 
L 50 0 
L 1831 4666 
z
" transform="scale(0.015625)"/>
       <path id="DejaVuSans-4b" d="M 628 4666 
L 1259 4666 
L 1259 2694 
L 3353 4666 
L 4166 4666 
L 1850 2491 
L 4331 0 
L 3500 0 
L 1259 2247 
L 1259 0 
L 628 0 
L 628 4666 
z
" transform="scale(0.015625)"/>
       <path id="DejaVuSans-59" d="M -13 4666 
L 666 4666 
L 1959 2747 
L 3244 4666 
L 3922 4666 
L 2272 2222 
L 2272 0 
L 1638 0 
L 1638 2222 
L -13 4666 
z
" transform="scale(0.015625)"/>
       <path id="DejaVuSans-5f" d="M 3263 -1063 
L 3263 -1509 
L -63 -1509 
L -63 -1063 
L 3263 -1063 
z
" transform="scale(0.015625)"/>
       <path id="DejaVuSans-52" d="M 2841 2188 
Q 3044 2119 3236 1894 
Q 3428 1669 3622 1275 
L 4263 0 
L 3584 0 
L 2988 1197 
Q 2756 1666 2539 1819 
Q 2322 1972 1947 1972 
L 1259 1972 
L 1259 0 
L 628 0 
L 628 4666 
L 2053 4666 
Q 2853 4666 3247 4331 
Q 3641 3997 3641 3322 
Q 3641 2881 3436 2590 
Q 3231 2300 2841 2188 
z
M 1259 4147 
L 1259 2491 
L 2053 2491 
Q 2509 2491 2742 2702 
Q 2975 2913 2975 3322 
Q 2975 3731 2742 3939 
Q 2509 4147 2053 4147 
L 1259 4147 
z
" transform="scale(0.015625)"/>
       <path id="DejaVuSans-55" d="M 556 4666 
L 1191 4666 
L 1191 1831 
Q 1191 1081 1462 751 
Q 1734 422 2344 422 
Q 2950 422 3222 751 
Q 3494 1081 3494 1831 
L 3494 4666 
L 4128 4666 
L 4128 1753 
Q 4128 841 3676 375 
Q 3225 -91 2344 -91 
Q 1459 -91 1007 375 
Q 556 841 556 1753 
L 556 4666 
z
" transform="scale(0.015625)"/>
      </defs>
      <use xlink:href="#DejaVuSans-68"/>
      <use xlink:href="#DejaVuSans-6e" x="63.378906"/>
      <use xlink:href="#DejaVuSans-3d" x="126.757812"/>
      <use xlink:href="#DejaVuSans-31" x="210.546875"/>
      <use xlink:href="#DejaVuSans-30" x="274.169922"/>
      <use xlink:href="#DejaVuSans-30" x="337.792969"/>
      <use xlink:href="#DejaVuSans-20" x="401.416016"/>
      <use xlink:href="#DejaVuSans-74" x="433.203125"/>
      <use xlink:href="#DejaVuSans-70" x="472.412109"/>
      <use xlink:href="#DejaVuSans-3d" x="535.888672"/>
      <use xlink:href="#DejaVuSans-27" x="619.677734"/>
      <use xlink:href="#DejaVuSans-4c" x="647.167969"/>
      <use xlink:href="#DejaVuSans-45" x="702.880859"/>
      <use xlink:href="#DejaVuSans-41" x="766.064453"/>
      <use xlink:href="#DejaVuSans-4b" x="834.472656"/>
      <use xlink:href="#DejaVuSans-59" x="896.423828"/>
      <use xlink:href="#DejaVuSans-5f" x="957.507812"/>
      <use xlink:href="#DejaVuSans-52" x="1007.507812"/>
      <use xlink:href="#DejaVuSans-45" x="1076.990234"/>
      <use xlink:href="#DejaVuSans-4c" x="1140.173828"/>
      <use xlink:href="#DejaVuSans-55" x="1190.886719"/>
      <use xlink:href="#DejaVuSans-27" x="1264.080078"/>
     </g>
    </g>
    <g id="line2d_19">
     <path d="M 143.796406 209.932187 
L 157.796406 209.932187 
L 171.796406 209.932187 
" style="fill: none; stroke: #ff7f0e; stroke-width: 1.5; stroke-linecap: square"/>
     <g>
      <use xlink:href="#mfcfbbefc80" x="157.796406" y="209.932187" style="fill: #ff7f0e; stroke: #ff7f0e"/>
     </g>
    </g>
    <g id="text_16">
     <!-- hn=100 tp='SIGMOID' -->
     <g transform="translate(182.996406 214.832187)scale(0.14 -0.14)">
      <defs>
       <path id="DejaVuSans-53" d="M 3425 4513 
L 3425 3897 
Q 3066 4069 2747 4153 
Q 2428 4238 2131 4238 
Q 1616 4238 1336 4038 
Q 1056 3838 1056 3469 
Q 1056 3159 1242 3001 
Q 1428 2844 1947 2747 
L 2328 2669 
Q 3034 2534 3370 2195 
Q 3706 1856 3706 1288 
Q 3706 609 3251 259 
Q 2797 -91 1919 -91 
Q 1588 -91 1214 -16 
Q 841 59 441 206 
L 441 856 
Q 825 641 1194 531 
Q 1563 422 1919 422 
Q 2459 422 2753 634 
Q 3047 847 3047 1241 
Q 3047 1584 2836 1778 
Q 2625 1972 2144 2069 
L 1759 2144 
Q 1053 2284 737 2584 
Q 422 2884 422 3419 
Q 422 4038 858 4394 
Q 1294 4750 2059 4750 
Q 2388 4750 2728 4690 
Q 3069 4631 3425 4513 
z
" transform="scale(0.015625)"/>
       <path id="DejaVuSans-49" d="M 628 4666 
L 1259 4666 
L 1259 0 
L 628 0 
L 628 4666 
z
" transform="scale(0.015625)"/>
       <path id="DejaVuSans-47" d="M 3809 666 
L 3809 1919 
L 2778 1919 
L 2778 2438 
L 4434 2438 
L 4434 434 
Q 4069 175 3628 42 
Q 3188 -91 2688 -91 
Q 1594 -91 976 548 
Q 359 1188 359 2328 
Q 359 3472 976 4111 
Q 1594 4750 2688 4750 
Q 3144 4750 3555 4637 
Q 3966 4525 4313 4306 
L 4313 3634 
Q 3963 3931 3569 4081 
Q 3175 4231 2741 4231 
Q 1884 4231 1454 3753 
Q 1025 3275 1025 2328 
Q 1025 1384 1454 906 
Q 1884 428 2741 428 
Q 3075 428 3337 486 
Q 3600 544 3809 666 
z
" transform="scale(0.015625)"/>
       <path id="DejaVuSans-4d" d="M 628 4666 
L 1569 4666 
L 2759 1491 
L 3956 4666 
L 4897 4666 
L 4897 0 
L 4281 0 
L 4281 4097 
L 3078 897 
L 2444 897 
L 1241 4097 
L 1241 0 
L 628 0 
L 628 4666 
z
" transform="scale(0.015625)"/>
       <path id="DejaVuSans-4f" d="M 2522 4238 
Q 1834 4238 1429 3725 
Q 1025 3213 1025 2328 
Q 1025 1447 1429 934 
Q 1834 422 2522 422 
Q 3209 422 3611 934 
Q 4013 1447 4013 2328 
Q 4013 3213 3611 3725 
Q 3209 4238 2522 4238 
z
M 2522 4750 
Q 3503 4750 4090 4092 
Q 4678 3434 4678 2328 
Q 4678 1225 4090 567 
Q 3503 -91 2522 -91 
Q 1538 -91 948 565 
Q 359 1222 359 2328 
Q 359 3434 948 4092 
Q 1538 4750 2522 4750 
z
" transform="scale(0.015625)"/>
       <path id="DejaVuSans-44" d="M 1259 4147 
L 1259 519 
L 2022 519 
Q 2988 519 3436 956 
Q 3884 1394 3884 2338 
Q 3884 3275 3436 3711 
Q 2988 4147 2022 4147 
L 1259 4147 
z
M 628 4666 
L 1925 4666 
Q 3281 4666 3915 4102 
Q 4550 3538 4550 2338 
Q 4550 1131 3912 565 
Q 3275 0 1925 0 
L 628 0 
L 628 4666 
z
" transform="scale(0.015625)"/>
      </defs>
      <use xlink:href="#DejaVuSans-68"/>
      <use xlink:href="#DejaVuSans-6e" x="63.378906"/>
      <use xlink:href="#DejaVuSans-3d" x="126.757812"/>
      <use xlink:href="#DejaVuSans-31" x="210.546875"/>
      <use xlink:href="#DejaVuSans-30" x="274.169922"/>
      <use xlink:href="#DejaVuSans-30" x="337.792969"/>
      <use xlink:href="#DejaVuSans-20" x="401.416016"/>
      <use xlink:href="#DejaVuSans-74" x="433.203125"/>
      <use xlink:href="#DejaVuSans-70" x="472.412109"/>
      <use xlink:href="#DejaVuSans-3d" x="535.888672"/>
      <use xlink:href="#DejaVuSans-27" x="619.677734"/>
      <use xlink:href="#DejaVuSans-53" x="647.167969"/>
      <use xlink:href="#DejaVuSans-49" x="710.644531"/>
      <use xlink:href="#DejaVuSans-47" x="740.136719"/>
      <use xlink:href="#DejaVuSans-4d" x="817.626953"/>
      <use xlink:href="#DejaVuSans-4f" x="903.90625"/>
      <use xlink:href="#DejaVuSans-49" x="982.617188"/>
      <use xlink:href="#DejaVuSans-44" x="1012.109375"/>
      <use xlink:href="#DejaVuSans-27" x="1089.111328"/>
     </g>
    </g>
    <g id="line2d_20">
     <path d="M 143.796406 230.481562 
L 157.796406 230.481562 
L 171.796406 230.481562 
" style="fill: none; stroke: #2ca02c; stroke-width: 1.5; stroke-linecap: square"/>
     <g>
      <use xlink:href="#m93205f33a3" x="157.796406" y="230.481562" style="fill: #2ca02c; stroke: #2ca02c"/>
     </g>
    </g>
    <g id="text_17">
     <!-- hn=10 tp='LEAKY_RELU' -->
     <g transform="translate(182.996406 235.381562)scale(0.14 -0.14)">
      <use xlink:href="#DejaVuSans-68"/>
      <use xlink:href="#DejaVuSans-6e" x="63.378906"/>
      <use xlink:href="#DejaVuSans-3d" x="126.757812"/>
      <use xlink:href="#DejaVuSans-31" x="210.546875"/>
      <use xlink:href="#DejaVuSans-30" x="274.169922"/>
      <use xlink:href="#DejaVuSans-20" x="337.792969"/>
      <use xlink:href="#DejaVuSans-74" x="369.580078"/>
      <use xlink:href="#DejaVuSans-70" x="408.789062"/>
      <use xlink:href="#DejaVuSans-3d" x="472.265625"/>
      <use xlink:href="#DejaVuSans-27" x="556.054688"/>
      <use xlink:href="#DejaVuSans-4c" x="583.544922"/>
      <use xlink:href="#DejaVuSans-45" x="639.257812"/>
      <use xlink:href="#DejaVuSans-41" x="702.441406"/>
      <use xlink:href="#DejaVuSans-4b" x="770.849609"/>
      <use xlink:href="#DejaVuSans-59" x="832.800781"/>
      <use xlink:href="#DejaVuSans-5f" x="893.884766"/>
      <use xlink:href="#DejaVuSans-52" x="943.884766"/>
      <use xlink:href="#DejaVuSans-45" x="1013.367188"/>
      <use xlink:href="#DejaVuSans-4c" x="1076.550781"/>
      <use xlink:href="#DejaVuSans-55" x="1127.263672"/>
      <use xlink:href="#DejaVuSans-27" x="1200.457031"/>
     </g>
    </g>
    <g id="line2d_21">
     <path d="M 143.796406 251.420312 
L 157.796406 251.420312 
L 171.796406 251.420312 
" style="fill: none; stroke: #d62728; stroke-width: 1.5; stroke-linecap: square"/>
     <g>
      <use xlink:href="#m65918b2ed3" x="157.796406" y="251.420312" style="fill: #d62728; stroke: #d62728"/>
     </g>
    </g>
    <g id="text_18">
     <!-- hn=10 tp='SIGMOID' -->
     <g transform="translate(182.996406 256.320312)scale(0.14 -0.14)">
      <use xlink:href="#DejaVuSans-68"/>
      <use xlink:href="#DejaVuSans-6e" x="63.378906"/>
      <use xlink:href="#DejaVuSans-3d" x="126.757812"/>
      <use xlink:href="#DejaVuSans-31" x="210.546875"/>
      <use xlink:href="#DejaVuSans-30" x="274.169922"/>
      <use xlink:href="#DejaVuSans-20" x="337.792969"/>
      <use xlink:href="#DejaVuSans-74" x="369.580078"/>
      <use xlink:href="#DejaVuSans-70" x="408.789062"/>
      <use xlink:href="#DejaVuSans-3d" x="472.265625"/>
      <use xlink:href="#DejaVuSans-27" x="556.054688"/>
      <use xlink:href="#DejaVuSans-53" x="583.544922"/>
      <use xlink:href="#DejaVuSans-49" x="647.021484"/>
      <use xlink:href="#DejaVuSans-47" x="676.513672"/>
      <use xlink:href="#DejaVuSans-4d" x="754.003906"/>
      <use xlink:href="#DejaVuSans-4f" x="840.283203"/>
      <use xlink:href="#DejaVuSans-49" x="918.994141"/>
      <use xlink:href="#DejaVuSans-44" x="948.486328"/>
      <use xlink:href="#DejaVuSans-27" x="1025.488281"/>
     </g>
    </g>
    <g id="line2d_22">
     <path d="M 143.796406 271.969687 
L 157.796406 271.969687 
L 171.796406 271.969687 
" style="fill: none; stroke-dasharray: 5.55,2.4; stroke-dashoffset: 0; stroke: #000000; stroke-width: 1.5"/>
    </g>
    <g id="text_19">
     <!-- analytic -->
     <g transform="translate(182.996406 276.869687)scale(0.14 -0.14)">
      <defs>
       <path id="DejaVuSans-61" d="M 2194 1759 
Q 1497 1759 1228 1600 
Q 959 1441 959 1056 
Q 959 750 1161 570 
Q 1363 391 1709 391 
Q 2188 391 2477 730 
Q 2766 1069 2766 1631 
L 2766 1759 
L 2194 1759 
z
M 3341 1997 
L 3341 0 
L 2766 0 
L 2766 531 
Q 2569 213 2275 61 
Q 1981 -91 1556 -91 
Q 1019 -91 701 211 
Q 384 513 384 1019 
Q 384 1609 779 1909 
Q 1175 2209 1959 2209 
L 2766 2209 
L 2766 2266 
Q 2766 2663 2505 2880 
Q 2244 3097 1772 3097 
Q 1472 3097 1187 3025 
Q 903 2953 641 2809 
L 641 3341 
Q 956 3463 1253 3523 
Q 1550 3584 1831 3584 
Q 2591 3584 2966 3190 
Q 3341 2797 3341 1997 
z
" transform="scale(0.015625)"/>
       <path id="DejaVuSans-6c" d="M 603 4863 
L 1178 4863 
L 1178 0 
L 603 0 
L 603 4863 
z
" transform="scale(0.015625)"/>
       <path id="DejaVuSans-79" d="M 2059 -325 
Q 1816 -950 1584 -1140 
Q 1353 -1331 966 -1331 
L 506 -1331 
L 506 -850 
L 844 -850 
Q 1081 -850 1212 -737 
Q 1344 -625 1503 -206 
L 1606 56 
L 191 3500 
L 800 3500 
L 1894 763 
L 2988 3500 
L 3597 3500 
L 2059 -325 
z
" transform="scale(0.015625)"/>
       <path id="DejaVuSans-69" d="M 603 3500 
L 1178 3500 
L 1178 0 
L 603 0 
L 603 3500 
z
M 603 4863 
L 1178 4863 
L 1178 4134 
L 603 4134 
L 603 4863 
z
" transform="scale(0.015625)"/>
       <path id="DejaVuSans-63" d="M 3122 3366 
L 3122 2828 
Q 2878 2963 2633 3030 
Q 2388 3097 2138 3097 
Q 1578 3097 1268 2742 
Q 959 2388 959 1747 
Q 959 1106 1268 751 
Q 1578 397 2138 397 
Q 2388 397 2633 464 
Q 2878 531 3122 666 
L 3122 134 
Q 2881 22 2623 -34 
Q 2366 -91 2075 -91 
Q 1284 -91 818 406 
Q 353 903 353 1747 
Q 353 2603 823 3093 
Q 1294 3584 2113 3584 
Q 2378 3584 2631 3529 
Q 2884 3475 3122 3366 
z
" transform="scale(0.015625)"/>
      </defs>
      <use xlink:href="#DejaVuSans-61"/>
      <use xlink:href="#DejaVuSans-6e" x="61.279297"/>
      <use xlink:href="#DejaVuSans-61" x="124.658203"/>
      <use xlink:href="#DejaVuSans-6c" x="185.9375"/>
      <use xlink:href="#DejaVuSans-79" x="213.720703"/>
      <use xlink:href="#DejaVuSans-74" x="272.900391"/>
      <use xlink:href="#DejaVuSans-69" x="312.109375"/>
      <use xlink:href="#DejaVuSans-63" x="339.892578"/>
     </g>
    </g>
   </g>
  </g>
 </g>
 <defs>
  <clipPath id="p42f442aabd">
   <rect x="61.93375" y="15.12" width="383.74625" height="277.26125"/>
  </clipPath>
 </defs>
</svg>
