<?xml version="1.0" encoding="utf-8" standalone="no"?>
<!DOCTYPE svg PUBLIC "-//W3C//DTD SVG 1.1//EN"
  "http://www.w3.org/Graphics/SVG/1.1/DTD/svg11.dtd">
<svg xmlns:xlink="http://www.w3.org/1999/xlink" width="460.8pt" height="345.6pt" viewBox="0 0 460.8 345.6" xmlns="http://www.w3.org/2000/svg" version="1.1">
 <metadata>
  <rdf:RDF xmlns:dc="http://purl.org/dc/elements/1.1/" xmlns:cc="http://creativecommons.org/ns#" xmlns:rdf="http://www.w3.org/1999/02/22-rdf-syntax-ns#">
   <cc:Work>
    <dc:type rdf:resource="http://purl.org/dc/dcmitype/StillImage"/>
    <dc:date>2022-10-27T17:12:21.386199</dc:date>
    <dc:format>image/svg+xml</dc:format>
    <dc:creator>
     <cc:Agent>
      <dc:title>Matplotlib v3.5.3, https://matplotlib.org/</dc:title>
     </cc:Agent>
    </dc:creator>
   </cc:Work>
  </rdf:RDF>
 </metadata>
 <defs>
  <style type="text/css">*{stroke-linejoin: round; stroke-linecap: butt}</style>
 </defs>
 <g id="figure_1">
  <g id="patch_1">
   <path d="M 0 345.6 
L 460.8 345.6 
L 460.8 0 
L 0 0 
z
" style="fill: #ffffff"/>
  </g>
  <g id="axes_1">
   <g id="patch_2">
    <path d="M 55.760938 304.44375 
L 450 304.44375 
L 450 10.8 
L 55.760938 10.8 
z
" style="fill: #ffffff"/>
   </g>
   <g id="matplotlib.axis_1">
    <g id="xtick_1">
     <g id="line2d_1">
      <defs>
       <path id="mf6904ccca5" d="M 0 0 
L 0 3.5 
" style="stroke: #000000; stroke-width: 0.8"/>
      </defs>
      <g>
       <use xlink:href="#mf6904ccca5" x="73.680895" y="304.44375" style="stroke: #000000; stroke-width: 0.8"/>
      </g>
     </g>
     <g id="text_1">
      <!-- 0.0 -->
      <g transform="translate(65.729332 319.042187)scale(0.1 -0.1)">
       <defs>
        <path id="DejaVuSans-30" d="M 2034 4250 
Q 1547 4250 1301 3770 
Q 1056 3291 1056 2328 
Q 1056 1369 1301 889 
Q 1547 409 2034 409 
Q 2525 409 2770 889 
Q 3016 1369 3016 2328 
Q 3016 3291 2770 3770 
Q 2525 4250 2034 4250 
z
M 2034 4750 
Q 2819 4750 3233 4129 
Q 3647 3509 3647 2328 
Q 3647 1150 3233 529 
Q 2819 -91 2034 -91 
Q 1250 -91 836 529 
Q 422 1150 422 2328 
Q 422 3509 836 4129 
Q 1250 4750 2034 4750 
z
" transform="scale(0.015625)"/>
        <path id="DejaVuSans-2e" d="M 684 794 
L 1344 794 
L 1344 0 
L 684 0 
L 684 794 
z
" transform="scale(0.015625)"/>
       </defs>
       <use xlink:href="#DejaVuSans-30"/>
       <use xlink:href="#DejaVuSans-2e" x="63.623047"/>
       <use xlink:href="#DejaVuSans-30" x="95.410156"/>
      </g>
     </g>
    </g>
    <g id="xtick_2">
     <g id="line2d_2">
      <g>
       <use xlink:href="#mf6904ccca5" x="145.360724" y="304.44375" style="stroke: #000000; stroke-width: 0.8"/>
      </g>
     </g>
     <g id="text_2">
      <!-- 0.2 -->
      <g transform="translate(137.409162 319.042187)scale(0.1 -0.1)">
       <defs>
        <path id="DejaVuSans-32" d="M 1228 531 
L 3431 531 
L 3431 0 
L 469 0 
L 469 531 
Q 828 903 1448 1529 
Q 2069 2156 2228 2338 
Q 2531 2678 2651 2914 
Q 2772 3150 2772 3378 
Q 2772 3750 2511 3984 
Q 2250 4219 1831 4219 
Q 1534 4219 1204 4116 
Q 875 4013 500 3803 
L 500 4441 
Q 881 4594 1212 4672 
Q 1544 4750 1819 4750 
Q 2544 4750 2975 4387 
Q 3406 4025 3406 3419 
Q 3406 3131 3298 2873 
Q 3191 2616 2906 2266 
Q 2828 2175 2409 1742 
Q 1991 1309 1228 531 
z
" transform="scale(0.015625)"/>
       </defs>
       <use xlink:href="#DejaVuSans-30"/>
       <use xlink:href="#DejaVuSans-2e" x="63.623047"/>
       <use xlink:href="#DejaVuSans-32" x="95.410156"/>
      </g>
     </g>
    </g>
    <g id="xtick_3">
     <g id="line2d_3">
      <g>
       <use xlink:href="#mf6904ccca5" x="217.040554" y="304.44375" style="stroke: #000000; stroke-width: 0.8"/>
      </g>
     </g>
     <g id="text_3">
      <!-- 0.4 -->
      <g transform="translate(209.088991 319.042187)scale(0.1 -0.1)">
       <defs>
        <path id="DejaVuSans-34" d="M 2419 4116 
L 825 1625 
L 2419 1625 
L 2419 4116 
z
M 2253 4666 
L 3047 4666 
L 3047 1625 
L 3713 1625 
L 3713 1100 
L 3047 1100 
L 3047 0 
L 2419 0 
L 2419 1100 
L 313 1100 
L 313 1709 
L 2253 4666 
z
" transform="scale(0.015625)"/>
       </defs>
       <use xlink:href="#DejaVuSans-30"/>
       <use xlink:href="#DejaVuSans-2e" x="63.623047"/>
       <use xlink:href="#DejaVuSans-34" x="95.410156"/>
      </g>
     </g>
    </g>
    <g id="xtick_4">
     <g id="line2d_4">
      <g>
       <use xlink:href="#mf6904ccca5" x="288.720384" y="304.44375" style="stroke: #000000; stroke-width: 0.8"/>
      </g>
     </g>
     <g id="text_4">
      <!-- 0.6 -->
      <g transform="translate(280.768821 319.042187)scale(0.1 -0.1)">
       <defs>
        <path id="DejaVuSans-36" d="M 2113 2584 
Q 1688 2584 1439 2293 
Q 1191 2003 1191 1497 
Q 1191 994 1439 701 
Q 1688 409 2113 409 
Q 2538 409 2786 701 
Q 3034 994 3034 1497 
Q 3034 2003 2786 2293 
Q 2538 2584 2113 2584 
z
M 3366 4563 
L 3366 3988 
Q 3128 4100 2886 4159 
Q 2644 4219 2406 4219 
Q 1781 4219 1451 3797 
Q 1122 3375 1075 2522 
Q 1259 2794 1537 2939 
Q 1816 3084 2150 3084 
Q 2853 3084 3261 2657 
Q 3669 2231 3669 1497 
Q 3669 778 3244 343 
Q 2819 -91 2113 -91 
Q 1303 -91 875 529 
Q 447 1150 447 2328 
Q 447 3434 972 4092 
Q 1497 4750 2381 4750 
Q 2619 4750 2861 4703 
Q 3103 4656 3366 4563 
z
" transform="scale(0.015625)"/>
       </defs>
       <use xlink:href="#DejaVuSans-30"/>
       <use xlink:href="#DejaVuSans-2e" x="63.623047"/>
       <use xlink:href="#DejaVuSans-36" x="95.410156"/>
      </g>
     </g>
    </g>
    <g id="xtick_5">
     <g id="line2d_5">
      <g>
       <use xlink:href="#mf6904ccca5" x="360.400213" y="304.44375" style="stroke: #000000; stroke-width: 0.8"/>
      </g>
     </g>
     <g id="text_5">
      <!-- 0.8 -->
      <g transform="translate(352.448651 319.042187)scale(0.1 -0.1)">
       <defs>
        <path id="DejaVuSans-38" d="M 2034 2216 
Q 1584 2216 1326 1975 
Q 1069 1734 1069 1313 
Q 1069 891 1326 650 
Q 1584 409 2034 409 
Q 2484 409 2743 651 
Q 3003 894 3003 1313 
Q 3003 1734 2745 1975 
Q 2488 2216 2034 2216 
z
M 1403 2484 
Q 997 2584 770 2862 
Q 544 3141 544 3541 
Q 544 4100 942 4425 
Q 1341 4750 2034 4750 
Q 2731 4750 3128 4425 
Q 3525 4100 3525 3541 
Q 3525 3141 3298 2862 
Q 3072 2584 2669 2484 
Q 3125 2378 3379 2068 
Q 3634 1759 3634 1313 
Q 3634 634 3220 271 
Q 2806 -91 2034 -91 
Q 1263 -91 848 271 
Q 434 634 434 1313 
Q 434 1759 690 2068 
Q 947 2378 1403 2484 
z
M 1172 3481 
Q 1172 3119 1398 2916 
Q 1625 2713 2034 2713 
Q 2441 2713 2670 2916 
Q 2900 3119 2900 3481 
Q 2900 3844 2670 4047 
Q 2441 4250 2034 4250 
Q 1625 4250 1398 4047 
Q 1172 3844 1172 3481 
z
" transform="scale(0.015625)"/>
       </defs>
       <use xlink:href="#DejaVuSans-30"/>
       <use xlink:href="#DejaVuSans-2e" x="63.623047"/>
       <use xlink:href="#DejaVuSans-38" x="95.410156"/>
      </g>
     </g>
    </g>
    <g id="xtick_6">
     <g id="line2d_6">
      <g>
       <use xlink:href="#mf6904ccca5" x="432.080043" y="304.44375" style="stroke: #000000; stroke-width: 0.8"/>
      </g>
     </g>
     <g id="text_6">
      <!-- 1.0 -->
      <g transform="translate(424.12848 319.042187)scale(0.1 -0.1)">
       <defs>
        <path id="DejaVuSans-31" d="M 794 531 
L 1825 531 
L 1825 4091 
L 703 3866 
L 703 4441 
L 1819 4666 
L 2450 4666 
L 2450 531 
L 3481 531 
L 3481 0 
L 794 0 
L 794 531 
z
" transform="scale(0.015625)"/>
       </defs>
       <use xlink:href="#DejaVuSans-31"/>
       <use xlink:href="#DejaVuSans-2e" x="63.623047"/>
       <use xlink:href="#DejaVuSans-30" x="95.410156"/>
      </g>
     </g>
    </g>
    <g id="text_7">
     <!-- input [] -->
     <g transform="translate(234.528906 332.720312)scale(0.1 -0.1)">
      <defs>
       <path id="DejaVuSans-69" d="M 603 3500 
L 1178 3500 
L 1178 0 
L 603 0 
L 603 3500 
z
M 603 4863 
L 1178 4863 
L 1178 4134 
L 603 4134 
L 603 4863 
z
" transform="scale(0.015625)"/>
       <path id="DejaVuSans-6e" d="M 3513 2113 
L 3513 0 
L 2938 0 
L 2938 2094 
Q 2938 2591 2744 2837 
Q 2550 3084 2163 3084 
Q 1697 3084 1428 2787 
Q 1159 2491 1159 1978 
L 1159 0 
L 581 0 
L 581 3500 
L 1159 3500 
L 1159 2956 
Q 1366 3272 1645 3428 
Q 1925 3584 2291 3584 
Q 2894 3584 3203 3211 
Q 3513 2838 3513 2113 
z
" transform="scale(0.015625)"/>
       <path id="DejaVuSans-70" d="M 1159 525 
L 1159 -1331 
L 581 -1331 
L 581 3500 
L 1159 3500 
L 1159 2969 
Q 1341 3281 1617 3432 
Q 1894 3584 2278 3584 
Q 2916 3584 3314 3078 
Q 3713 2572 3713 1747 
Q 3713 922 3314 415 
Q 2916 -91 2278 -91 
Q 1894 -91 1617 61 
Q 1341 213 1159 525 
z
M 3116 1747 
Q 3116 2381 2855 2742 
Q 2594 3103 2138 3103 
Q 1681 3103 1420 2742 
Q 1159 2381 1159 1747 
Q 1159 1113 1420 752 
Q 1681 391 2138 391 
Q 2594 391 2855 752 
Q 3116 1113 3116 1747 
z
" transform="scale(0.015625)"/>
       <path id="DejaVuSans-75" d="M 544 1381 
L 544 3500 
L 1119 3500 
L 1119 1403 
Q 1119 906 1312 657 
Q 1506 409 1894 409 
Q 2359 409 2629 706 
Q 2900 1003 2900 1516 
L 2900 3500 
L 3475 3500 
L 3475 0 
L 2900 0 
L 2900 538 
Q 2691 219 2414 64 
Q 2138 -91 1772 -91 
Q 1169 -91 856 284 
Q 544 659 544 1381 
z
M 1991 3584 
L 1991 3584 
z
" transform="scale(0.015625)"/>
       <path id="DejaVuSans-74" d="M 1172 4494 
L 1172 3500 
L 2356 3500 
L 2356 3053 
L 1172 3053 
L 1172 1153 
Q 1172 725 1289 603 
Q 1406 481 1766 481 
L 2356 481 
L 2356 0 
L 1766 0 
Q 1100 0 847 248 
Q 594 497 594 1153 
L 594 3053 
L 172 3053 
L 172 3500 
L 594 3500 
L 594 4494 
L 1172 4494 
z
" transform="scale(0.015625)"/>
       <path id="DejaVuSans-20" transform="scale(0.015625)"/>
       <path id="DejaVuSans-5b" d="M 550 4863 
L 1875 4863 
L 1875 4416 
L 1125 4416 
L 1125 -397 
L 1875 -397 
L 1875 -844 
L 550 -844 
L 550 4863 
z
" transform="scale(0.015625)"/>
       <path id="DejaVuSans-5d" d="M 1947 4863 
L 1947 -844 
L 622 -844 
L 622 -397 
L 1369 -397 
L 1369 4416 
L 622 4416 
L 622 4863 
L 1947 4863 
z
" transform="scale(0.015625)"/>
      </defs>
      <use xlink:href="#DejaVuSans-69"/>
      <use xlink:href="#DejaVuSans-6e" x="27.783203"/>
      <use xlink:href="#DejaVuSans-70" x="91.162109"/>
      <use xlink:href="#DejaVuSans-75" x="154.638672"/>
      <use xlink:href="#DejaVuSans-74" x="218.017578"/>
      <use xlink:href="#DejaVuSans-20" x="257.226562"/>
      <use xlink:href="#DejaVuSans-5b" x="289.013672"/>
      <use xlink:href="#DejaVuSans-5d" x="328.027344"/>
     </g>
    </g>
   </g>
   <g id="matplotlib.axis_2">
    <g id="ytick_1">
     <g id="line2d_7">
      <defs>
       <path id="me68fdbcac6" d="M 0 0 
L -3.5 0 
" style="stroke: #000000; stroke-width: 0.8"/>
      </defs>
      <g>
       <use xlink:href="#me68fdbcac6" x="55.760938" y="267.381998" style="stroke: #000000; stroke-width: 0.8"/>
      </g>
     </g>
     <g id="text_8">
      <!-- −0.1 -->
      <g transform="translate(24.478125 271.181217)scale(0.1 -0.1)">
       <defs>
        <path id="DejaVuSans-2212" d="M 678 2272 
L 4684 2272 
L 4684 1741 
L 678 1741 
L 678 2272 
z
" transform="scale(0.015625)"/>
       </defs>
       <use xlink:href="#DejaVuSans-2212"/>
       <use xlink:href="#DejaVuSans-30" x="83.789062"/>
       <use xlink:href="#DejaVuSans-2e" x="147.412109"/>
       <use xlink:href="#DejaVuSans-31" x="179.199219"/>
      </g>
     </g>
    </g>
    <g id="ytick_2">
     <g id="line2d_8">
      <g>
       <use xlink:href="#me68fdbcac6" x="55.760938" y="227.511668" style="stroke: #000000; stroke-width: 0.8"/>
      </g>
     </g>
     <g id="text_9">
      <!-- 0.0 -->
      <g transform="translate(32.857813 231.310886)scale(0.1 -0.1)">
       <use xlink:href="#DejaVuSans-30"/>
       <use xlink:href="#DejaVuSans-2e" x="63.623047"/>
       <use xlink:href="#DejaVuSans-30" x="95.410156"/>
      </g>
     </g>
    </g>
    <g id="ytick_3">
     <g id="line2d_9">
      <g>
       <use xlink:href="#me68fdbcac6" x="55.760938" y="187.641337" style="stroke: #000000; stroke-width: 0.8"/>
      </g>
     </g>
     <g id="text_10">
      <!-- 0.1 -->
      <g transform="translate(32.857813 191.440556)scale(0.1 -0.1)">
       <use xlink:href="#DejaVuSans-30"/>
       <use xlink:href="#DejaVuSans-2e" x="63.623047"/>
       <use xlink:href="#DejaVuSans-31" x="95.410156"/>
      </g>
     </g>
    </g>
    <g id="ytick_4">
     <g id="line2d_10">
      <g>
       <use xlink:href="#me68fdbcac6" x="55.760938" y="147.771006" style="stroke: #000000; stroke-width: 0.8"/>
      </g>
     </g>
     <g id="text_11">
      <!-- 0.2 -->
      <g transform="translate(32.857813 151.570225)scale(0.1 -0.1)">
       <use xlink:href="#DejaVuSans-30"/>
       <use xlink:href="#DejaVuSans-2e" x="63.623047"/>
       <use xlink:href="#DejaVuSans-32" x="95.410156"/>
      </g>
     </g>
    </g>
    <g id="ytick_5">
     <g id="line2d_11">
      <g>
       <use xlink:href="#me68fdbcac6" x="55.760938" y="107.900676" style="stroke: #000000; stroke-width: 0.8"/>
      </g>
     </g>
     <g id="text_12">
      <!-- 0.3 -->
      <g transform="translate(32.857813 111.699895)scale(0.1 -0.1)">
       <defs>
        <path id="DejaVuSans-33" d="M 2597 2516 
Q 3050 2419 3304 2112 
Q 3559 1806 3559 1356 
Q 3559 666 3084 287 
Q 2609 -91 1734 -91 
Q 1441 -91 1130 -33 
Q 819 25 488 141 
L 488 750 
Q 750 597 1062 519 
Q 1375 441 1716 441 
Q 2309 441 2620 675 
Q 2931 909 2931 1356 
Q 2931 1769 2642 2001 
Q 2353 2234 1838 2234 
L 1294 2234 
L 1294 2753 
L 1863 2753 
Q 2328 2753 2575 2939 
Q 2822 3125 2822 3475 
Q 2822 3834 2567 4026 
Q 2313 4219 1838 4219 
Q 1578 4219 1281 4162 
Q 984 4106 628 3988 
L 628 4550 
Q 988 4650 1302 4700 
Q 1616 4750 1894 4750 
Q 2613 4750 3031 4423 
Q 3450 4097 3450 3541 
Q 3450 3153 3228 2886 
Q 3006 2619 2597 2516 
z
" transform="scale(0.015625)"/>
       </defs>
       <use xlink:href="#DejaVuSans-30"/>
       <use xlink:href="#DejaVuSans-2e" x="63.623047"/>
       <use xlink:href="#DejaVuSans-33" x="95.410156"/>
      </g>
     </g>
    </g>
    <g id="ytick_6">
     <g id="line2d_12">
      <g>
       <use xlink:href="#me68fdbcac6" x="55.760938" y="68.030345" style="stroke: #000000; stroke-width: 0.8"/>
      </g>
     </g>
     <g id="text_13">
      <!-- 0.4 -->
      <g transform="translate(32.857813 71.829564)scale(0.1 -0.1)">
       <use xlink:href="#DejaVuSans-30"/>
       <use xlink:href="#DejaVuSans-2e" x="63.623047"/>
       <use xlink:href="#DejaVuSans-34" x="95.410156"/>
      </g>
     </g>
    </g>
    <g id="ytick_7">
     <g id="line2d_13">
      <g>
       <use xlink:href="#me68fdbcac6" x="55.760938" y="28.160015" style="stroke: #000000; stroke-width: 0.8"/>
      </g>
     </g>
     <g id="text_14">
      <!-- 0.5 -->
      <g transform="translate(32.857813 31.959233)scale(0.1 -0.1)">
       <defs>
        <path id="DejaVuSans-35" d="M 691 4666 
L 3169 4666 
L 3169 4134 
L 1269 4134 
L 1269 2991 
Q 1406 3038 1543 3061 
Q 1681 3084 1819 3084 
Q 2600 3084 3056 2656 
Q 3513 2228 3513 1497 
Q 3513 744 3044 326 
Q 2575 -91 1722 -91 
Q 1428 -91 1123 -41 
Q 819 9 494 109 
L 494 744 
Q 775 591 1075 516 
Q 1375 441 1709 441 
Q 2250 441 2565 725 
Q 2881 1009 2881 1497 
Q 2881 1984 2565 2268 
Q 2250 2553 1709 2553 
Q 1456 2553 1204 2497 
Q 953 2441 691 2322 
L 691 4666 
z
" transform="scale(0.015625)"/>
       </defs>
       <use xlink:href="#DejaVuSans-30"/>
       <use xlink:href="#DejaVuSans-2e" x="63.623047"/>
       <use xlink:href="#DejaVuSans-35" x="95.410156"/>
      </g>
     </g>
    </g>
    <g id="text_15">
     <!-- output [] -->
     <g transform="translate(18.398438 179.603906)rotate(-90)scale(0.1 -0.1)">
      <defs>
       <path id="DejaVuSans-6f" d="M 1959 3097 
Q 1497 3097 1228 2736 
Q 959 2375 959 1747 
Q 959 1119 1226 758 
Q 1494 397 1959 397 
Q 2419 397 2687 759 
Q 2956 1122 2956 1747 
Q 2956 2369 2687 2733 
Q 2419 3097 1959 3097 
z
M 1959 3584 
Q 2709 3584 3137 3096 
Q 3566 2609 3566 1747 
Q 3566 888 3137 398 
Q 2709 -91 1959 -91 
Q 1206 -91 779 398 
Q 353 888 353 1747 
Q 353 2609 779 3096 
Q 1206 3584 1959 3584 
z
" transform="scale(0.015625)"/>
      </defs>
      <use xlink:href="#DejaVuSans-6f"/>
      <use xlink:href="#DejaVuSans-75" x="61.181641"/>
      <use xlink:href="#DejaVuSans-74" x="124.560547"/>
      <use xlink:href="#DejaVuSans-70" x="163.769531"/>
      <use xlink:href="#DejaVuSans-75" x="227.246094"/>
      <use xlink:href="#DejaVuSans-74" x="290.625"/>
      <use xlink:href="#DejaVuSans-20" x="329.833984"/>
      <use xlink:href="#DejaVuSans-5b" x="361.621094"/>
      <use xlink:href="#DejaVuSans-5d" x="400.634766"/>
     </g>
    </g>
   </g>
   <g id="line2d_14">
    <path d="M 73.680895 228.787315 
L 109.592633 228.959105 
L 126.830267 229.223394 
L 139.758493 229.643105 
L 148.37731 230.135922 
L 154.841423 230.698938 
L 160.587301 231.415704 
L 164.89671 232.146555 
L 168.487884 232.929454 
L 172.079058 233.921094 
L 175.670232 235.185424 
L 178.543171 236.44907 
L 181.41611 237.995096 
L 183.570814 239.378853 
L 185.007283 240.425348 
L 187.880223 242.861082 
L 190.034927 245.02849 
L 192.907866 248.434447 
L 195.06257 251.407359 
L 197.217274 254.748069 
L 199.371979 258.439127 
L 202.244918 263.813149 
L 210.1455 279.088242 
L 212.300205 282.63665 
L 214.454909 285.63898 
L 215.891378 287.291372 
L 217.327848 288.646565 
L 218.046083 289.21081 
L 220.200787 290.452632 
L 220.919022 290.719191 
L 223.073726 291.096307 
L 225.22843 290.87614 
L 225.946665 290.678452 
L 228.101369 289.736312 
L 229.537839 288.832261 
L 230.974308 287.719277 
L 232.410778 286.405451 
L 235.283717 283.199684 
L 238.156656 279.252307 
L 241.029595 274.590342 
L 243.184299 270.641114 
L 246.057238 264.799128 
L 248.930178 258.339921 
L 251.803117 251.320604 
L 254.676056 243.808774 
L 258.985464 231.779186 
L 263.294873 219.054473 
L 269.040751 201.37461 
L 278.377803 171.731857 
L 294.897203 119.059093 
L 299.924846 103.803463 
L 304.234254 91.446154 
L 307.825428 81.844684 
L 311.416602 73.022035 
L 314.289541 66.601854 
L 317.16248 60.795048 
L 319.317185 56.857589 
L 321.471889 53.282052 
L 323.626593 50.065485 
L 325.781297 47.199377 
L 327.936002 44.670378 
L 330.090706 42.461245 
L 332.24541 40.55194 
L 334.400115 38.920786 
L 336.554819 37.545616 
L 339.427758 36.073135 
L 340.145993 35.764534 
L 343.737167 34.546151 
L 345.891871 34.055709 
L 348.76481 33.660409 
L 350.919514 33.549987 
L 353.792453 33.647317 
L 356.665392 34.029489 
L 358.101862 34.331683 
L 360.974801 35.171266 
L 363.84774 36.345939 
L 366.002444 37.463944 
L 368.157149 38.798673 
L 370.311853 40.36159 
L 372.466557 42.162629 
L 376.057731 45.71314 
L 378.212435 48.178815 
L 381.085374 51.856394 
L 383.958313 55.967555 
L 386.831252 60.488036 
L 389.704191 65.382775 
L 393.295365 71.959568 
L 397.604774 80.389644 
L 403.350652 92.230245 
L 417.715347 122.22917 
L 423.461225 133.537058 
L 427.770634 141.566819 
L 432.080043 149.161404 
L 432.080043 149.161404 
" clip-path="url(#p62d0b94f6e)" style="fill: none; stroke: #1f77b4; stroke-width: 1.5; stroke-linecap: square"/>
   </g>
   <g id="line2d_15">
    <path d="M 73.680895 230.228676 
L 178.543171 230.228676 
L 179.261405 230.926018 
L 217.327848 287.14224 
L 218.046083 287.960527 
L 236.720187 287.960527 
L 239.593126 279.90533 
L 326.499532 33.537424 
L 327.217767 32.075014 
L 366.720679 32.075014 
L 367.438914 32.953579 
L 432.080043 147.067208 
L 432.080043 147.067208 
" clip-path="url(#p62d0b94f6e)" style="fill: none; stroke: #ff7f0e; stroke-width: 1.5; stroke-linecap: square"/>
   </g>
   <g id="line2d_16">
    <path d="M 73.680895 227.515895 
L 103.846755 227.397738 
L 115.338511 227.272775 
L 136.885554 228.668088 
L 180.697875 235.25784 
L 185.007283 241.247401 
L 200.090214 262.220484 
L 219.482552 284.953528 
L 222.355491 284.059448 
L 239.593126 278.491056 
L 241.74783 276.68966 
L 246.057238 272.979968 
L 246.775473 271.248702 
L 289.151324 132.139185 
L 312.134837 74.592193 
L 314.289541 70.92963 
L 340.145993 32.078543 
L 370.311853 34.241815 
L 372.466557 35.711779 
L 430.643573 144.811926 
L 432.080043 147.070038 
L 432.080043 147.070038 
" clip-path="url(#p62d0b94f6e)" style="fill: none; stroke: #2ca02c; stroke-width: 1.5; stroke-linecap: square"/>
   </g>
   <g id="line2d_17">
    <path d="M 73.680895 251.55546 
L 75.117364 245.395834 
L 76.553834 240.254195 
L 77.990303 236.018456 
L 79.426773 232.584744 
L 80.863243 229.857019 
L 83.017947 226.897317 
L 84.454416 225.562392 
L 85.890886 224.653629 
L 86.609121 224.338413 
L 88.763825 223.85921 
L 90.200294 223.860257 
L 91.636764 224.060242 
L 93.791468 224.638995 
L 97.382642 226.044501 
L 103.846755 228.762282 
L 106.719694 229.695646 
L 108.874398 230.21023 
L 111.029103 230.546517 
L 113.183807 230.697456 
L 115.338511 230.664145 
L 118.21145 230.347825 
L 121.084389 229.753322 
L 123.957328 228.928954 
L 126.830267 227.932942 
L 139.758493 223.10583 
L 142.631432 222.349978 
L 145.504371 221.837485 
L 146.940841 221.687595 
L 149.81378 221.626357 
L 151.25025 221.723738 
L 153.404954 222.039922 
L 156.277893 222.792998 
L 158.432597 223.614218 
L 160.587301 224.658314 
L 162.742006 225.924879 
L 164.89671 227.410614 
L 167.051414 229.109413 
L 169.924353 231.690319 
L 172.079058 233.847602 
L 175.670232 237.821489 
L 179.261405 242.197096 
L 184.289049 248.814348 
L 198.653744 268.244765 
L 202.244918 272.564976 
L 205.117857 275.693759 
L 207.272561 277.809834 
L 210.1455 280.278085 
L 212.300205 281.834952 
L 215.173144 283.478271 
L 217.327848 284.361414 
L 219.482552 284.925773 
L 220.919022 285.117212 
L 223.073726 285.116933 
L 225.22843 284.761079 
L 225.946665 284.561642 
L 228.101369 283.716382 
L 229.537839 282.944475 
L 231.692543 281.470016 
L 232.410778 280.893549 
L 235.283717 278.160911 
L 237.438421 275.66348 
L 239.593126 272.784516 
L 241.74783 269.528578 
L 244.620769 264.612829 
L 247.493708 259.060774 
L 250.366647 252.900456 
L 253.957821 244.39709 
L 256.112525 238.89678 
L 259.703699 229.127134 
L 263.294873 218.689569 
L 266.886047 207.69062 
L 271.91369 191.566971 
L 279.814272 165.254171 
L 289.151324 134.201413 
L 294.178968 118.181615 
L 298.488376 105.128814 
L 302.07955 94.852088 
L 305.670724 85.206623 
L 309.261898 76.25953 
L 312.134837 69.641507 
L 315.726011 62.078887 
L 318.59895 56.615392 
L 321.471889 51.683629 
L 324.344828 47.287486 
L 326.499532 44.341375 
L 328.654236 41.693782 
L 331.527176 38.621613 
L 333.68188 36.654399 
L 335.836584 34.969025 
L 337.991288 33.558225 
L 340.145993 32.41396 
L 343.737167 31.0755 
L 345.891871 30.598724 
L 348.76481 30.324396 
L 350.919514 30.377763 
L 353.792453 30.777682 
L 355.228923 31.113073 
L 358.101862 32.043786 
L 360.974801 33.308701 
L 363.84774 34.896138 
L 366.720679 36.798545 
L 369.593618 39.012927 
L 372.466557 41.541106 
L 376.775966 45.937616 
L 379.648905 49.289455 
L 381.803609 52.035978 
L 385.394783 57.081106 
L 387.549487 60.402951 
L 391.140661 66.457495 
L 394.0136 71.785615 
L 397.604774 79.065462 
L 400.477713 85.379898 
L 404.068887 93.847394 
L 408.378295 104.710787 
L 419.151817 132.523234 
L 421.306521 137.435044 
L 423.461225 141.784143 
L 424.897695 144.26926 
L 426.334164 146.341213 
L 427.770634 147.920996 
L 429.207104 148.920953 
L 429.925338 149.173577 
L 430.643573 149.244117 
L 432.080043 148.783507 
L 432.080043 148.783507 
" clip-path="url(#p62d0b94f6e)" style="fill: none; stroke: #d62728; stroke-width: 1.5; stroke-linecap: square"/>
   </g>
   <g id="line2d_18">
    <path d="M 73.680895 212.006617 
L 75.835599 216.765976 
L 77.990303 220.774179 
L 79.426773 223.060412 
L 80.863243 225.059218 
L 83.736182 228.264964 
L 85.172651 229.505931 
L 86.609121 230.527523 
L 88.763825 231.683088 
L 90.200294 232.224481 
L 91.636764 232.599853 
L 93.791468 232.88253 
L 95.946173 232.869387 
L 98.100877 232.603984 
L 100.255581 232.127542 
L 103.12852 231.230907 
L 106.719694 229.8095 
L 111.747337 227.526 
L 118.21145 224.603044 
L 121.802624 223.194188 
L 125.393798 222.047461 
L 126.830267 221.677739 
L 130.421441 221.007743 
L 133.29438 220.757348 
L 136.167319 220.780337 
L 139.040258 221.088965 
L 141.913198 221.690311 
L 144.786137 222.586529 
L 146.940841 223.450857 
L 149.81378 224.854388 
L 152.686719 226.535439 
L 155.559658 228.480049 
L 158.432597 230.670622 
L 162.023771 233.722541 
L 165.614945 237.078368 
L 169.924353 241.430126 
L 175.670232 247.611399 
L 189.316692 262.498271 
L 193.626101 266.786287 
L 197.217274 270.048721 
L 200.090214 272.404379 
L 202.963153 274.496188 
L 205.836092 276.29065 
L 207.272561 277.06634 
L 210.1455 278.355548 
L 212.300205 279.078828 
L 215.173144 279.696616 
L 217.327848 279.886327 
L 219.482552 279.830735 
L 220.919022 279.653032 
L 223.073726 279.169583 
L 225.22843 278.419501 
L 227.383135 277.396523 
L 229.537839 276.095383 
L 231.692543 274.511852 
L 232.410778 273.920675 
L 235.283717 271.236967 
L 238.156656 268.040614 
L 241.029595 264.331487 
L 243.184299 261.215074 
L 246.057238 256.619057 
L 248.930178 251.52843 
L 251.803117 245.956564 
L 254.676056 239.920404 
L 257.548995 233.440414 
L 261.140169 224.75302 
L 265.449577 213.538902 
L 269.040751 203.609347 
L 274.068394 188.957689 
L 281.250742 166.904259 
L 302.07955 101.775568 
L 306.388959 89.299542 
L 310.698367 77.543075 
L 314.289541 68.406585 
L 317.880715 59.959029 
L 320.035419 55.252998 
L 323.626593 48.061862 
L 326.499532 42.931534 
L 328.654236 39.465218 
L 331.527176 35.370854 
L 333.68188 32.706216 
L 335.836584 30.396902 
L 337.991288 28.44764 
L 340.145993 26.861473 
L 343.737167 25.027519 
L 345.173636 24.576542 
L 345.891871 24.411234 
L 348.046575 24.154165 
L 349.483045 24.179824 
L 350.919514 24.36082 
L 353.074218 24.918303 
L 355.228923 25.810418 
L 356.665392 26.585595 
L 358.101862 27.500793 
L 360.974801 29.73463 
L 363.84774 32.475569 
L 366.002444 34.839545 
L 368.875383 38.366692 
L 370.311853 40.277647 
L 372.466557 43.310727 
L 377.4942 51.051251 
L 381.803609 58.251046 
L 387.549487 68.338248 
L 403.350652 96.37267 
L 414.124173 115.201835 
L 417.715347 121.969813 
L 420.588286 127.855546 
L 422.024756 131.022166 
L 424.897695 137.951372 
L 427.052399 143.807377 
L 429.207104 150.379353 
L 430.643573 155.235135 
L 432.080043 160.53021 
L 432.080043 160.53021 
" clip-path="url(#p62d0b94f6e)" style="fill: none; stroke: #9467bd; stroke-width: 1.5; stroke-linecap: square"/>
   </g>
   <g id="line2d_19">
    <path d="M 73.680895 227.510723 
L 136.167319 227.603018 
L 144.067902 227.845344 
L 149.81378 228.22203 
L 154.841423 228.78686 
L 159.150832 229.52637 
L 162.742006 230.382661 
L 165.614945 231.261917 
L 168.487884 232.344313 
L 172.079058 234.026402 
L 174.951997 235.668588 
L 177.106701 237.089251 
L 179.261405 238.681372 
L 182.134344 241.081378 
L 185.007283 243.804415 
L 188.598457 247.656592 
L 191.471396 251.075854 
L 195.06257 255.716369 
L 199.371979 261.683969 
L 209.427265 275.800118 
L 212.300205 279.403092 
L 215.173144 282.591823 
L 217.327848 284.636151 
L 219.482552 286.325956 
L 220.919022 287.231582 
L 223.073726 288.225376 
L 225.22843 288.745701 
L 225.946665 288.807699 
L 228.101369 288.643491 
L 229.537839 288.232842 
L 230.974308 287.574293 
L 232.410778 286.663648 
L 235.283717 284.077426 
L 237.438421 281.468855 
L 239.593126 278.296488 
L 241.74783 274.577508 
L 244.620769 268.811962 
L 247.493708 262.1951 
L 250.366647 254.819949 
L 253.957821 244.696189 
L 257.548995 233.77455 
L 261.140169 222.280693 
L 269.040751 196.017303 
L 276.941333 169.899083 
L 282.687211 151.703869 
L 287.714855 136.5609 
L 292.024263 124.217257 
L 296.333672 112.477688 
L 301.361315 99.551628 
L 305.670724 89.140426 
L 309.980133 79.364789 
L 313.571306 71.726886 
L 317.16248 64.57924 
L 320.035419 59.236049 
L 323.626593 53.057119 
L 326.499532 48.539209 
L 328.654236 45.412828 
L 331.527176 41.610821 
L 334.400115 38.246624 
L 336.554819 36.022569 
L 339.427758 33.470324 
L 340.145993 32.907736 
L 343.737167 30.558681 
L 345.891871 29.526975 
L 348.046575 28.783389 
L 350.201279 28.330608 
L 352.355984 28.170174 
L 354.510688 28.30245 
L 356.665392 28.726593 
L 358.101862 29.170536 
L 360.974801 30.441024 
L 363.84774 32.212806 
L 366.002444 33.862413 
L 368.157149 35.779095 
L 370.311853 37.954589 
L 372.466557 40.379601 
L 376.775966 45.936231 
L 379.648905 50.126711 
L 381.803609 53.503429 
L 385.394783 59.536387 
L 388.985957 66.018202 
L 393.295365 74.2917 
L 398.323009 84.472446 
L 404.787122 98.098797 
L 420.588286 131.657464 
L 426.334164 143.230862 
L 430.643573 151.505293 
L 432.080043 154.174293 
L 432.080043 154.174293 
" clip-path="url(#p62d0b94f6e)" style="fill: none; stroke-dasharray: 5.55,2.4; stroke-dashoffset: 0; stroke: #000000; stroke-width: 1.5"/>
   </g>
   <g id="patch_3">
    <path d="M 55.760938 304.44375 
L 55.760938 10.8 
" style="fill: none; stroke: #000000; stroke-width: 0.8; stroke-linejoin: miter; stroke-linecap: square"/>
   </g>
   <g id="patch_4">
    <path d="M 450 304.44375 
L 450 10.8 
" style="fill: none; stroke: #000000; stroke-width: 0.8; stroke-linejoin: miter; stroke-linecap: square"/>
   </g>
   <g id="patch_5">
    <path d="M 55.760937 304.44375 
L 450 304.44375 
" style="fill: none; stroke: #000000; stroke-width: 0.8; stroke-linejoin: miter; stroke-linecap: square"/>
   </g>
   <g id="patch_6">
    <path d="M 55.760937 10.8 
L 450 10.8 
" style="fill: none; stroke: #000000; stroke-width: 0.8; stroke-linejoin: miter; stroke-linecap: square"/>
   </g>
   <g id="legend_1">
    <g id="patch_7">
     <path d="M 62.760938 113.278125 
L 264.060938 113.278125 
Q 266.060938 113.278125 266.060938 111.278125 
L 266.060938 17.8 
Q 266.060938 15.8 264.060938 15.8 
L 62.760938 15.8 
Q 60.760938 15.8 60.760938 17.8 
L 60.760938 111.278125 
Q 60.760938 113.278125 62.760938 113.278125 
z
" style="fill: #ffffff; opacity: 0.8; stroke: #cccccc; stroke-linejoin: miter"/>
    </g>
    <g id="line2d_20">
     <path d="M 64.760938 25.3 
L 74.760938 25.3 
L 84.760938 25.3 
" style="fill: none; stroke: #1f77b4; stroke-width: 1.5; stroke-linecap: square"/>
    </g>
    <g id="text_16">
     <!-- FFNN sigmoid [MSE=0.5$\cdot 10^{-4}$] -->
     <g transform="translate(92.760938 28.8)scale(0.1 -0.1)">
      <defs>
       <path id="DejaVuSans-46" d="M 628 4666 
L 3309 4666 
L 3309 4134 
L 1259 4134 
L 1259 2759 
L 3109 2759 
L 3109 2228 
L 1259 2228 
L 1259 0 
L 628 0 
L 628 4666 
z
" transform="scale(0.015625)"/>
       <path id="DejaVuSans-4e" d="M 628 4666 
L 1478 4666 
L 3547 763 
L 3547 4666 
L 4159 4666 
L 4159 0 
L 3309 0 
L 1241 3903 
L 1241 0 
L 628 0 
L 628 4666 
z
" transform="scale(0.015625)"/>
       <path id="DejaVuSans-73" d="M 2834 3397 
L 2834 2853 
Q 2591 2978 2328 3040 
Q 2066 3103 1784 3103 
Q 1356 3103 1142 2972 
Q 928 2841 928 2578 
Q 928 2378 1081 2264 
Q 1234 2150 1697 2047 
L 1894 2003 
Q 2506 1872 2764 1633 
Q 3022 1394 3022 966 
Q 3022 478 2636 193 
Q 2250 -91 1575 -91 
Q 1294 -91 989 -36 
Q 684 19 347 128 
L 347 722 
Q 666 556 975 473 
Q 1284 391 1588 391 
Q 1994 391 2212 530 
Q 2431 669 2431 922 
Q 2431 1156 2273 1281 
Q 2116 1406 1581 1522 
L 1381 1569 
Q 847 1681 609 1914 
Q 372 2147 372 2553 
Q 372 3047 722 3315 
Q 1072 3584 1716 3584 
Q 2034 3584 2315 3537 
Q 2597 3491 2834 3397 
z
" transform="scale(0.015625)"/>
       <path id="DejaVuSans-67" d="M 2906 1791 
Q 2906 2416 2648 2759 
Q 2391 3103 1925 3103 
Q 1463 3103 1205 2759 
Q 947 2416 947 1791 
Q 947 1169 1205 825 
Q 1463 481 1925 481 
Q 2391 481 2648 825 
Q 2906 1169 2906 1791 
z
M 3481 434 
Q 3481 -459 3084 -895 
Q 2688 -1331 1869 -1331 
Q 1566 -1331 1297 -1286 
Q 1028 -1241 775 -1147 
L 775 -588 
Q 1028 -725 1275 -790 
Q 1522 -856 1778 -856 
Q 2344 -856 2625 -561 
Q 2906 -266 2906 331 
L 2906 616 
Q 2728 306 2450 153 
Q 2172 0 1784 0 
Q 1141 0 747 490 
Q 353 981 353 1791 
Q 353 2603 747 3093 
Q 1141 3584 1784 3584 
Q 2172 3584 2450 3431 
Q 2728 3278 2906 2969 
L 2906 3500 
L 3481 3500 
L 3481 434 
z
" transform="scale(0.015625)"/>
       <path id="DejaVuSans-6d" d="M 3328 2828 
Q 3544 3216 3844 3400 
Q 4144 3584 4550 3584 
Q 5097 3584 5394 3201 
Q 5691 2819 5691 2113 
L 5691 0 
L 5113 0 
L 5113 2094 
Q 5113 2597 4934 2840 
Q 4756 3084 4391 3084 
Q 3944 3084 3684 2787 
Q 3425 2491 3425 1978 
L 3425 0 
L 2847 0 
L 2847 2094 
Q 2847 2600 2669 2842 
Q 2491 3084 2119 3084 
Q 1678 3084 1418 2786 
Q 1159 2488 1159 1978 
L 1159 0 
L 581 0 
L 581 3500 
L 1159 3500 
L 1159 2956 
Q 1356 3278 1631 3431 
Q 1906 3584 2284 3584 
Q 2666 3584 2933 3390 
Q 3200 3197 3328 2828 
z
" transform="scale(0.015625)"/>
       <path id="DejaVuSans-64" d="M 2906 2969 
L 2906 4863 
L 3481 4863 
L 3481 0 
L 2906 0 
L 2906 525 
Q 2725 213 2448 61 
Q 2172 -91 1784 -91 
Q 1150 -91 751 415 
Q 353 922 353 1747 
Q 353 2572 751 3078 
Q 1150 3584 1784 3584 
Q 2172 3584 2448 3432 
Q 2725 3281 2906 2969 
z
M 947 1747 
Q 947 1113 1208 752 
Q 1469 391 1925 391 
Q 2381 391 2643 752 
Q 2906 1113 2906 1747 
Q 2906 2381 2643 2742 
Q 2381 3103 1925 3103 
Q 1469 3103 1208 2742 
Q 947 2381 947 1747 
z
" transform="scale(0.015625)"/>
       <path id="DejaVuSans-4d" d="M 628 4666 
L 1569 4666 
L 2759 1491 
L 3956 4666 
L 4897 4666 
L 4897 0 
L 4281 0 
L 4281 4097 
L 3078 897 
L 2444 897 
L 1241 4097 
L 1241 0 
L 628 0 
L 628 4666 
z
" transform="scale(0.015625)"/>
       <path id="DejaVuSans-53" d="M 3425 4513 
L 3425 3897 
Q 3066 4069 2747 4153 
Q 2428 4238 2131 4238 
Q 1616 4238 1336 4038 
Q 1056 3838 1056 3469 
Q 1056 3159 1242 3001 
Q 1428 2844 1947 2747 
L 2328 2669 
Q 3034 2534 3370 2195 
Q 3706 1856 3706 1288 
Q 3706 609 3251 259 
Q 2797 -91 1919 -91 
Q 1588 -91 1214 -16 
Q 841 59 441 206 
L 441 856 
Q 825 641 1194 531 
Q 1563 422 1919 422 
Q 2459 422 2753 634 
Q 3047 847 3047 1241 
Q 3047 1584 2836 1778 
Q 2625 1972 2144 2069 
L 1759 2144 
Q 1053 2284 737 2584 
Q 422 2884 422 3419 
Q 422 4038 858 4394 
Q 1294 4750 2059 4750 
Q 2388 4750 2728 4690 
Q 3069 4631 3425 4513 
z
" transform="scale(0.015625)"/>
       <path id="DejaVuSans-45" d="M 628 4666 
L 3578 4666 
L 3578 4134 
L 1259 4134 
L 1259 2753 
L 3481 2753 
L 3481 2222 
L 1259 2222 
L 1259 531 
L 3634 531 
L 3634 0 
L 628 0 
L 628 4666 
z
" transform="scale(0.015625)"/>
       <path id="DejaVuSans-3d" d="M 678 2906 
L 4684 2906 
L 4684 2381 
L 678 2381 
L 678 2906 
z
M 678 1631 
L 4684 1631 
L 4684 1100 
L 678 1100 
L 678 1631 
z
" transform="scale(0.015625)"/>
       <path id="DejaVuSans-22c5" d="M 684 2619 
L 1344 2619 
L 1344 1825 
L 684 1825 
L 684 2619 
z
" transform="scale(0.015625)"/>
      </defs>
      <use xlink:href="#DejaVuSans-46" transform="translate(0 0.684375)"/>
      <use xlink:href="#DejaVuSans-46" transform="translate(57.519531 0.684375)"/>
      <use xlink:href="#DejaVuSans-4e" transform="translate(115.039062 0.684375)"/>
      <use xlink:href="#DejaVuSans-4e" transform="translate(189.84375 0.684375)"/>
      <use xlink:href="#DejaVuSans-20" transform="translate(264.648438 0.684375)"/>
      <use xlink:href="#DejaVuSans-73" transform="translate(296.435547 0.684375)"/>
      <use xlink:href="#DejaVuSans-69" transform="translate(348.535156 0.684375)"/>
      <use xlink:href="#DejaVuSans-67" transform="translate(376.318359 0.684375)"/>
      <use xlink:href="#DejaVuSans-6d" transform="translate(439.794922 0.684375)"/>
      <use xlink:href="#DejaVuSans-6f" transform="translate(537.207031 0.684375)"/>
      <use xlink:href="#DejaVuSans-69" transform="translate(598.388672 0.684375)"/>
      <use xlink:href="#DejaVuSans-64" transform="translate(626.171875 0.684375)"/>
      <use xlink:href="#DejaVuSans-20" transform="translate(689.648438 0.684375)"/>
      <use xlink:href="#DejaVuSans-5b" transform="translate(721.435547 0.684375)"/>
      <use xlink:href="#DejaVuSans-4d" transform="translate(760.449219 0.684375)"/>
      <use xlink:href="#DejaVuSans-53" transform="translate(846.728516 0.684375)"/>
      <use xlink:href="#DejaVuSans-45" transform="translate(910.205078 0.684375)"/>
      <use xlink:href="#DejaVuSans-3d" transform="translate(973.388672 0.684375)"/>
      <use xlink:href="#DejaVuSans-30" transform="translate(1057.177734 0.684375)"/>
      <use xlink:href="#DejaVuSans-2e" transform="translate(1120.800781 0.684375)"/>
      <use xlink:href="#DejaVuSans-35" transform="translate(1152.587891 0.684375)"/>
      <use xlink:href="#DejaVuSans-22c5" transform="translate(1216.210938 0.684375)"/>
      <use xlink:href="#DejaVuSans-31" transform="translate(1247.998047 0.684375)"/>
      <use xlink:href="#DejaVuSans-30" transform="translate(1311.621094 0.684375)"/>
      <use xlink:href="#DejaVuSans-2212" transform="translate(1376.201172 38.965625)scale(0.7)"/>
      <use xlink:href="#DejaVuSans-34" transform="translate(1434.853516 38.965625)scale(0.7)"/>
      <use xlink:href="#DejaVuSans-5d" transform="translate(1482.124023 0.684375)"/>
     </g>
    </g>
    <g id="line2d_21">
     <path d="M 64.760938 40.720313 
L 74.760938 40.720313 
L 84.760938 40.720313 
" style="fill: none; stroke: #ff7f0e; stroke-width: 1.5; stroke-linecap: square"/>
    </g>
    <g id="text_17">
     <!-- FFNN RELU [MSE=1.1$\cdot 10^{-4}$] -->
     <g transform="translate(92.760938 44.220313)scale(0.1 -0.1)">
      <defs>
       <path id="DejaVuSans-52" d="M 2841 2188 
Q 3044 2119 3236 1894 
Q 3428 1669 3622 1275 
L 4263 0 
L 3584 0 
L 2988 1197 
Q 2756 1666 2539 1819 
Q 2322 1972 1947 1972 
L 1259 1972 
L 1259 0 
L 628 0 
L 628 4666 
L 2053 4666 
Q 2853 4666 3247 4331 
Q 3641 3997 3641 3322 
Q 3641 2881 3436 2590 
Q 3231 2300 2841 2188 
z
M 1259 4147 
L 1259 2491 
L 2053 2491 
Q 2509 2491 2742 2702 
Q 2975 2913 2975 3322 
Q 2975 3731 2742 3939 
Q 2509 4147 2053 4147 
L 1259 4147 
z
" transform="scale(0.015625)"/>
       <path id="DejaVuSans-4c" d="M 628 4666 
L 1259 4666 
L 1259 531 
L 3531 531 
L 3531 0 
L 628 0 
L 628 4666 
z
" transform="scale(0.015625)"/>
       <path id="DejaVuSans-55" d="M 556 4666 
L 1191 4666 
L 1191 1831 
Q 1191 1081 1462 751 
Q 1734 422 2344 422 
Q 2950 422 3222 751 
Q 3494 1081 3494 1831 
L 3494 4666 
L 4128 4666 
L 4128 1753 
Q 4128 841 3676 375 
Q 3225 -91 2344 -91 
Q 1459 -91 1007 375 
Q 556 841 556 1753 
L 556 4666 
z
" transform="scale(0.015625)"/>
      </defs>
      <use xlink:href="#DejaVuSans-46" transform="translate(0 0.684375)"/>
      <use xlink:href="#DejaVuSans-46" transform="translate(57.519531 0.684375)"/>
      <use xlink:href="#DejaVuSans-4e" transform="translate(115.039062 0.684375)"/>
      <use xlink:href="#DejaVuSans-4e" transform="translate(189.84375 0.684375)"/>
      <use xlink:href="#DejaVuSans-20" transform="translate(264.648438 0.684375)"/>
      <use xlink:href="#DejaVuSans-52" transform="translate(296.435547 0.684375)"/>
      <use xlink:href="#DejaVuSans-45" transform="translate(365.917969 0.684375)"/>
      <use xlink:href="#DejaVuSans-4c" transform="translate(429.101562 0.684375)"/>
      <use xlink:href="#DejaVuSans-55" transform="translate(484.814453 0.684375)"/>
      <use xlink:href="#DejaVuSans-20" transform="translate(558.007812 0.684375)"/>
      <use xlink:href="#DejaVuSans-5b" transform="translate(589.794922 0.684375)"/>
      <use xlink:href="#DejaVuSans-4d" transform="translate(628.808594 0.684375)"/>
      <use xlink:href="#DejaVuSans-53" transform="translate(715.087891 0.684375)"/>
      <use xlink:href="#DejaVuSans-45" transform="translate(778.564453 0.684375)"/>
      <use xlink:href="#DejaVuSans-3d" transform="translate(841.748047 0.684375)"/>
      <use xlink:href="#DejaVuSans-31" transform="translate(925.537109 0.684375)"/>
      <use xlink:href="#DejaVuSans-2e" transform="translate(989.160156 0.684375)"/>
      <use xlink:href="#DejaVuSans-31" transform="translate(1020.947266 0.684375)"/>
      <use xlink:href="#DejaVuSans-22c5" transform="translate(1084.570312 0.684375)"/>
      <use xlink:href="#DejaVuSans-31" transform="translate(1116.357422 0.684375)"/>
      <use xlink:href="#DejaVuSans-30" transform="translate(1179.980469 0.684375)"/>
      <use xlink:href="#DejaVuSans-2212" transform="translate(1244.560547 38.965625)scale(0.7)"/>
      <use xlink:href="#DejaVuSans-34" transform="translate(1303.212891 38.965625)scale(0.7)"/>
      <use xlink:href="#DejaVuSans-5d" transform="translate(1350.483398 0.684375)"/>
     </g>
    </g>
    <g id="line2d_22">
     <path d="M 64.760938 56.8 
L 74.760938 56.8 
L 84.760938 56.8 
" style="fill: none; stroke: #2ca02c; stroke-width: 1.5; stroke-linecap: square"/>
    </g>
    <g id="text_18">
     <!-- FFNN leaky RELU [MSE=0.5$\cdot 10^{-4}$] -->
     <g transform="translate(92.760938 60.3)scale(0.1 -0.1)">
      <defs>
       <path id="DejaVuSans-6c" d="M 603 4863 
L 1178 4863 
L 1178 0 
L 603 0 
L 603 4863 
z
" transform="scale(0.015625)"/>
       <path id="DejaVuSans-65" d="M 3597 1894 
L 3597 1613 
L 953 1613 
Q 991 1019 1311 708 
Q 1631 397 2203 397 
Q 2534 397 2845 478 
Q 3156 559 3463 722 
L 3463 178 
Q 3153 47 2828 -22 
Q 2503 -91 2169 -91 
Q 1331 -91 842 396 
Q 353 884 353 1716 
Q 353 2575 817 3079 
Q 1281 3584 2069 3584 
Q 2775 3584 3186 3129 
Q 3597 2675 3597 1894 
z
M 3022 2063 
Q 3016 2534 2758 2815 
Q 2500 3097 2075 3097 
Q 1594 3097 1305 2825 
Q 1016 2553 972 2059 
L 3022 2063 
z
" transform="scale(0.015625)"/>
       <path id="DejaVuSans-61" d="M 2194 1759 
Q 1497 1759 1228 1600 
Q 959 1441 959 1056 
Q 959 750 1161 570 
Q 1363 391 1709 391 
Q 2188 391 2477 730 
Q 2766 1069 2766 1631 
L 2766 1759 
L 2194 1759 
z
M 3341 1997 
L 3341 0 
L 2766 0 
L 2766 531 
Q 2569 213 2275 61 
Q 1981 -91 1556 -91 
Q 1019 -91 701 211 
Q 384 513 384 1019 
Q 384 1609 779 1909 
Q 1175 2209 1959 2209 
L 2766 2209 
L 2766 2266 
Q 2766 2663 2505 2880 
Q 2244 3097 1772 3097 
Q 1472 3097 1187 3025 
Q 903 2953 641 2809 
L 641 3341 
Q 956 3463 1253 3523 
Q 1550 3584 1831 3584 
Q 2591 3584 2966 3190 
Q 3341 2797 3341 1997 
z
" transform="scale(0.015625)"/>
       <path id="DejaVuSans-6b" d="M 581 4863 
L 1159 4863 
L 1159 1991 
L 2875 3500 
L 3609 3500 
L 1753 1863 
L 3688 0 
L 2938 0 
L 1159 1709 
L 1159 0 
L 581 0 
L 581 4863 
z
" transform="scale(0.015625)"/>
       <path id="DejaVuSans-79" d="M 2059 -325 
Q 1816 -950 1584 -1140 
Q 1353 -1331 966 -1331 
L 506 -1331 
L 506 -850 
L 844 -850 
Q 1081 -850 1212 -737 
Q 1344 -625 1503 -206 
L 1606 56 
L 191 3500 
L 800 3500 
L 1894 763 
L 2988 3500 
L 3597 3500 
L 2059 -325 
z
" transform="scale(0.015625)"/>
      </defs>
      <use xlink:href="#DejaVuSans-46" transform="translate(0 0.684375)"/>
      <use xlink:href="#DejaVuSans-46" transform="translate(57.519531 0.684375)"/>
      <use xlink:href="#DejaVuSans-4e" transform="translate(115.039062 0.684375)"/>
      <use xlink:href="#DejaVuSans-4e" transform="translate(189.84375 0.684375)"/>
      <use xlink:href="#DejaVuSans-20" transform="translate(264.648438 0.684375)"/>
      <use xlink:href="#DejaVuSans-6c" transform="translate(296.435547 0.684375)"/>
      <use xlink:href="#DejaVuSans-65" transform="translate(324.21875 0.684375)"/>
      <use xlink:href="#DejaVuSans-61" transform="translate(385.742188 0.684375)"/>
      <use xlink:href="#DejaVuSans-6b" transform="translate(447.021484 0.684375)"/>
      <use xlink:href="#DejaVuSans-79" transform="translate(504.931641 0.684375)"/>
      <use xlink:href="#DejaVuSans-20" transform="translate(564.111328 0.684375)"/>
      <use xlink:href="#DejaVuSans-52" transform="translate(595.898438 0.684375)"/>
      <use xlink:href="#DejaVuSans-45" transform="translate(665.380859 0.684375)"/>
      <use xlink:href="#DejaVuSans-4c" transform="translate(728.564453 0.684375)"/>
      <use xlink:href="#DejaVuSans-55" transform="translate(784.277344 0.684375)"/>
      <use xlink:href="#DejaVuSans-20" transform="translate(857.470703 0.684375)"/>
      <use xlink:href="#DejaVuSans-5b" transform="translate(889.257812 0.684375)"/>
      <use xlink:href="#DejaVuSans-4d" transform="translate(928.271484 0.684375)"/>
      <use xlink:href="#DejaVuSans-53" transform="translate(1014.550781 0.684375)"/>
      <use xlink:href="#DejaVuSans-45" transform="translate(1078.027344 0.684375)"/>
      <use xlink:href="#DejaVuSans-3d" transform="translate(1141.210938 0.684375)"/>
      <use xlink:href="#DejaVuSans-30" transform="translate(1225 0.684375)"/>
      <use xlink:href="#DejaVuSans-2e" transform="translate(1288.623047 0.684375)"/>
      <use xlink:href="#DejaVuSans-35" transform="translate(1320.410156 0.684375)"/>
      <use xlink:href="#DejaVuSans-22c5" transform="translate(1384.033203 0.684375)"/>
      <use xlink:href="#DejaVuSans-31" transform="translate(1415.820312 0.684375)"/>
      <use xlink:href="#DejaVuSans-30" transform="translate(1479.443359 0.684375)"/>
      <use xlink:href="#DejaVuSans-2212" transform="translate(1544.023438 38.965625)scale(0.7)"/>
      <use xlink:href="#DejaVuSans-34" transform="translate(1602.675781 38.965625)scale(0.7)"/>
      <use xlink:href="#DejaVuSans-5d" transform="translate(1649.946289 0.684375)"/>
     </g>
    </g>
    <g id="line2d_23">
     <path d="M 64.760938 72.9 
L 74.760938 72.9 
L 84.760938 72.9 
" style="fill: none; stroke: #d62728; stroke-width: 1.5; stroke-linecap: square"/>
    </g>
    <g id="text_19">
     <!-- OLS, degree 10 [MSE=1.2$\cdot 10^{-4}$] -->
     <g transform="translate(92.760938 76.4)scale(0.1 -0.1)">
      <defs>
       <path id="DejaVuSans-4f" d="M 2522 4238 
Q 1834 4238 1429 3725 
Q 1025 3213 1025 2328 
Q 1025 1447 1429 934 
Q 1834 422 2522 422 
Q 3209 422 3611 934 
Q 4013 1447 4013 2328 
Q 4013 3213 3611 3725 
Q 3209 4238 2522 4238 
z
M 2522 4750 
Q 3503 4750 4090 4092 
Q 4678 3434 4678 2328 
Q 4678 1225 4090 567 
Q 3503 -91 2522 -91 
Q 1538 -91 948 565 
Q 359 1222 359 2328 
Q 359 3434 948 4092 
Q 1538 4750 2522 4750 
z
" transform="scale(0.015625)"/>
       <path id="DejaVuSans-2c" d="M 750 794 
L 1409 794 
L 1409 256 
L 897 -744 
L 494 -744 
L 750 256 
L 750 794 
z
" transform="scale(0.015625)"/>
       <path id="DejaVuSans-72" d="M 2631 2963 
Q 2534 3019 2420 3045 
Q 2306 3072 2169 3072 
Q 1681 3072 1420 2755 
Q 1159 2438 1159 1844 
L 1159 0 
L 581 0 
L 581 3500 
L 1159 3500 
L 1159 2956 
Q 1341 3275 1631 3429 
Q 1922 3584 2338 3584 
Q 2397 3584 2469 3576 
Q 2541 3569 2628 3553 
L 2631 2963 
z
" transform="scale(0.015625)"/>
      </defs>
      <use xlink:href="#DejaVuSans-4f" transform="translate(0 0.684375)"/>
      <use xlink:href="#DejaVuSans-4c" transform="translate(78.710938 0.684375)"/>
      <use xlink:href="#DejaVuSans-53" transform="translate(134.423828 0.684375)"/>
      <use xlink:href="#DejaVuSans-2c" transform="translate(197.900391 0.684375)"/>
      <use xlink:href="#DejaVuSans-20" transform="translate(229.6875 0.684375)"/>
      <use xlink:href="#DejaVuSans-64" transform="translate(261.474609 0.684375)"/>
      <use xlink:href="#DejaVuSans-65" transform="translate(324.951172 0.684375)"/>
      <use xlink:href="#DejaVuSans-67" transform="translate(386.474609 0.684375)"/>
      <use xlink:href="#DejaVuSans-72" transform="translate(449.951172 0.684375)"/>
      <use xlink:href="#DejaVuSans-65" transform="translate(491.064453 0.684375)"/>
      <use xlink:href="#DejaVuSans-65" transform="translate(552.587891 0.684375)"/>
      <use xlink:href="#DejaVuSans-20" transform="translate(614.111328 0.684375)"/>
      <use xlink:href="#DejaVuSans-31" transform="translate(645.898438 0.684375)"/>
      <use xlink:href="#DejaVuSans-30" transform="translate(709.521484 0.684375)"/>
      <use xlink:href="#DejaVuSans-20" transform="translate(773.144531 0.684375)"/>
      <use xlink:href="#DejaVuSans-5b" transform="translate(804.931641 0.684375)"/>
      <use xlink:href="#DejaVuSans-4d" transform="translate(843.945312 0.684375)"/>
      <use xlink:href="#DejaVuSans-53" transform="translate(930.224609 0.684375)"/>
      <use xlink:href="#DejaVuSans-45" transform="translate(993.701172 0.684375)"/>
      <use xlink:href="#DejaVuSans-3d" transform="translate(1056.884766 0.684375)"/>
      <use xlink:href="#DejaVuSans-31" transform="translate(1140.673828 0.684375)"/>
      <use xlink:href="#DejaVuSans-2e" transform="translate(1204.296875 0.684375)"/>
      <use xlink:href="#DejaVuSans-32" transform="translate(1230.583984 0.684375)"/>
      <use xlink:href="#DejaVuSans-22c5" transform="translate(1294.207031 0.684375)"/>
      <use xlink:href="#DejaVuSans-31" transform="translate(1325.994141 0.684375)"/>
      <use xlink:href="#DejaVuSans-30" transform="translate(1389.617188 0.684375)"/>
      <use xlink:href="#DejaVuSans-2212" transform="translate(1454.197266 38.965625)scale(0.7)"/>
      <use xlink:href="#DejaVuSans-34" transform="translate(1512.849609 38.965625)scale(0.7)"/>
      <use xlink:href="#DejaVuSans-5d" transform="translate(1560.120117 0.684375)"/>
     </g>
    </g>
    <g id="line2d_24">
     <path d="M 64.760938 89 
L 74.760938 89 
L 84.760938 89 
" style="fill: none; stroke: #9467bd; stroke-width: 1.5; stroke-linecap: square"/>
    </g>
    <g id="text_20">
     <!-- Ridge, degree 10 [MSE=2.9$\cdot 10^{-4}$] -->
     <g transform="translate(92.760938 92.5)scale(0.1 -0.1)">
      <defs>
       <path id="DejaVuSans-39" d="M 703 97 
L 703 672 
Q 941 559 1184 500 
Q 1428 441 1663 441 
Q 2288 441 2617 861 
Q 2947 1281 2994 2138 
Q 2813 1869 2534 1725 
Q 2256 1581 1919 1581 
Q 1219 1581 811 2004 
Q 403 2428 403 3163 
Q 403 3881 828 4315 
Q 1253 4750 1959 4750 
Q 2769 4750 3195 4129 
Q 3622 3509 3622 2328 
Q 3622 1225 3098 567 
Q 2575 -91 1691 -91 
Q 1453 -91 1209 -44 
Q 966 3 703 97 
z
M 1959 2075 
Q 2384 2075 2632 2365 
Q 2881 2656 2881 3163 
Q 2881 3666 2632 3958 
Q 2384 4250 1959 4250 
Q 1534 4250 1286 3958 
Q 1038 3666 1038 3163 
Q 1038 2656 1286 2365 
Q 1534 2075 1959 2075 
z
" transform="scale(0.015625)"/>
      </defs>
      <use xlink:href="#DejaVuSans-52" transform="translate(0 0.684375)"/>
      <use xlink:href="#DejaVuSans-69" transform="translate(69.482422 0.684375)"/>
      <use xlink:href="#DejaVuSans-64" transform="translate(97.265625 0.684375)"/>
      <use xlink:href="#DejaVuSans-67" transform="translate(160.742188 0.684375)"/>
      <use xlink:href="#DejaVuSans-65" transform="translate(224.21875 0.684375)"/>
      <use xlink:href="#DejaVuSans-2c" transform="translate(285.742188 0.684375)"/>
      <use xlink:href="#DejaVuSans-20" transform="translate(317.529297 0.684375)"/>
      <use xlink:href="#DejaVuSans-64" transform="translate(349.316406 0.684375)"/>
      <use xlink:href="#DejaVuSans-65" transform="translate(412.792969 0.684375)"/>
      <use xlink:href="#DejaVuSans-67" transform="translate(474.316406 0.684375)"/>
      <use xlink:href="#DejaVuSans-72" transform="translate(537.792969 0.684375)"/>
      <use xlink:href="#DejaVuSans-65" transform="translate(578.90625 0.684375)"/>
      <use xlink:href="#DejaVuSans-65" transform="translate(640.429688 0.684375)"/>
      <use xlink:href="#DejaVuSans-20" transform="translate(701.953125 0.684375)"/>
      <use xlink:href="#DejaVuSans-31" transform="translate(733.740234 0.684375)"/>
      <use xlink:href="#DejaVuSans-30" transform="translate(797.363281 0.684375)"/>
      <use xlink:href="#DejaVuSans-20" transform="translate(860.986328 0.684375)"/>
      <use xlink:href="#DejaVuSans-5b" transform="translate(892.773438 0.684375)"/>
      <use xlink:href="#DejaVuSans-4d" transform="translate(931.787109 0.684375)"/>
      <use xlink:href="#DejaVuSans-53" transform="translate(1018.066406 0.684375)"/>
      <use xlink:href="#DejaVuSans-45" transform="translate(1081.542969 0.684375)"/>
      <use xlink:href="#DejaVuSans-3d" transform="translate(1144.726562 0.684375)"/>
      <use xlink:href="#DejaVuSans-32" transform="translate(1228.515625 0.684375)"/>
      <use xlink:href="#DejaVuSans-2e" transform="translate(1292.138672 0.684375)"/>
      <use xlink:href="#DejaVuSans-39" transform="translate(1323.925781 0.684375)"/>
      <use xlink:href="#DejaVuSans-22c5" transform="translate(1387.548828 0.684375)"/>
      <use xlink:href="#DejaVuSans-31" transform="translate(1419.335938 0.684375)"/>
      <use xlink:href="#DejaVuSans-30" transform="translate(1482.958984 0.684375)"/>
      <use xlink:href="#DejaVuSans-2212" transform="translate(1547.539062 38.965625)scale(0.7)"/>
      <use xlink:href="#DejaVuSans-34" transform="translate(1606.191406 38.965625)scale(0.7)"/>
      <use xlink:href="#DejaVuSans-5d" transform="translate(1653.461914 0.684375)"/>
     </g>
    </g>
    <g id="line2d_25">
     <path d="M 64.760938 103.698438 
L 74.760938 103.698438 
L 84.760938 103.698438 
" style="fill: none; stroke-dasharray: 5.55,2.4; stroke-dashoffset: 0; stroke: #000000; stroke-width: 1.5"/>
    </g>
    <g id="text_21">
     <!-- funciton -->
     <g transform="translate(92.760938 107.198438)scale(0.1 -0.1)">
      <defs>
       <path id="DejaVuSans-66" d="M 2375 4863 
L 2375 4384 
L 1825 4384 
Q 1516 4384 1395 4259 
Q 1275 4134 1275 3809 
L 1275 3500 
L 2222 3500 
L 2222 3053 
L 1275 3053 
L 1275 0 
L 697 0 
L 697 3053 
L 147 3053 
L 147 3500 
L 697 3500 
L 697 3744 
Q 697 4328 969 4595 
Q 1241 4863 1831 4863 
L 2375 4863 
z
" transform="scale(0.015625)"/>
       <path id="DejaVuSans-63" d="M 3122 3366 
L 3122 2828 
Q 2878 2963 2633 3030 
Q 2388 3097 2138 3097 
Q 1578 3097 1268 2742 
Q 959 2388 959 1747 
Q 959 1106 1268 751 
Q 1578 397 2138 397 
Q 2388 397 2633 464 
Q 2878 531 3122 666 
L 3122 134 
Q 2881 22 2623 -34 
Q 2366 -91 2075 -91 
Q 1284 -91 818 406 
Q 353 903 353 1747 
Q 353 2603 823 3093 
Q 1294 3584 2113 3584 
Q 2378 3584 2631 3529 
Q 2884 3475 3122 3366 
z
" transform="scale(0.015625)"/>
      </defs>
      <use xlink:href="#DejaVuSans-66"/>
      <use xlink:href="#DejaVuSans-75" x="35.205078"/>
      <use xlink:href="#DejaVuSans-6e" x="98.583984"/>
      <use xlink:href="#DejaVuSans-63" x="161.962891"/>
      <use xlink:href="#DejaVuSans-69" x="216.943359"/>
      <use xlink:href="#DejaVuSans-74" x="244.726562"/>
      <use xlink:href="#DejaVuSans-6f" x="283.935547"/>
      <use xlink:href="#DejaVuSans-6e" x="345.117188"/>
     </g>
    </g>
   </g>
  </g>
 </g>
 <defs>
  <clipPath id="p62d0b94f6e">
   <rect x="55.760938" y="10.8" width="394.239062" height="293.64375"/>
  </clipPath>
 </defs>
</svg>
