<?xml version="1.0" encoding="utf-8" standalone="no"?>
<!DOCTYPE svg PUBLIC "-//W3C//DTD SVG 1.1//EN"
  "http://www.w3.org/Graphics/SVG/1.1/DTD/svg11.dtd">
<svg xmlns:xlink="http://www.w3.org/1999/xlink" width="460.8pt" height="345.6pt" viewBox="0 0 460.8 345.6" xmlns="http://www.w3.org/2000/svg" version="1.1">
 <metadata>
  <rdf:RDF xmlns:dc="http://purl.org/dc/elements/1.1/" xmlns:cc="http://creativecommons.org/ns#" xmlns:rdf="http://www.w3.org/1999/02/22-rdf-syntax-ns#">
   <cc:Work>
    <dc:type rdf:resource="http://purl.org/dc/dcmitype/StillImage"/>
    <dc:date>2022-11-10T16:06:13.670285</dc:date>
    <dc:format>image/svg+xml</dc:format>
    <dc:creator>
     <cc:Agent>
      <dc:title>Matplotlib v3.5.3, https://matplotlib.org/</dc:title>
     </cc:Agent>
    </dc:creator>
   </cc:Work>
  </rdf:RDF>
 </metadata>
 <defs>
  <style type="text/css">*{stroke-linejoin: round; stroke-linecap: butt}</style>
 </defs>
 <g id="figure_1">
  <g id="patch_1">
   <path d="M 0 345.6 
L 460.8 345.6 
L 460.8 0 
L 0 0 
z
" style="fill: #ffffff"/>
  </g>
  <g id="axes_1">
   <g id="patch_2">
    <path d="M 55.760938 304.44375 
L 450 304.44375 
L 450 10.8 
L 55.760938 10.8 
z
" style="fill: #ffffff"/>
   </g>
   <g id="matplotlib.axis_1">
    <g id="xtick_1">
     <g id="line2d_1">
      <defs>
       <path id="me579e742f8" d="M 0 0 
L 0 3.5 
" style="stroke: #000000; stroke-width: 0.8"/>
      </defs>
      <g>
       <use xlink:href="#me579e742f8" x="71.513158" y="304.44375" style="stroke: #000000; stroke-width: 0.8"/>
      </g>
     </g>
     <g id="text_1">
      <!-- 0.0 -->
      <g transform="translate(63.561596 319.042187)scale(0.1 -0.1)">
       <defs>
        <path id="DejaVuSans-30" d="M 2034 4250 
Q 1547 4250 1301 3770 
Q 1056 3291 1056 2328 
Q 1056 1369 1301 889 
Q 1547 409 2034 409 
Q 2525 409 2770 889 
Q 3016 1369 3016 2328 
Q 3016 3291 2770 3770 
Q 2525 4250 2034 4250 
z
M 2034 4750 
Q 2819 4750 3233 4129 
Q 3647 3509 3647 2328 
Q 3647 1150 3233 529 
Q 2819 -91 2034 -91 
Q 1250 -91 836 529 
Q 422 1150 422 2328 
Q 422 3509 836 4129 
Q 1250 4750 2034 4750 
z
" transform="scale(0.015625)"/>
        <path id="DejaVuSans-2e" d="M 684 794 
L 1344 794 
L 1344 0 
L 684 0 
L 684 794 
z
" transform="scale(0.015625)"/>
       </defs>
       <use xlink:href="#DejaVuSans-30"/>
       <use xlink:href="#DejaVuSans-2e" x="63.623047"/>
       <use xlink:href="#DejaVuSans-30" x="95.410156"/>
      </g>
     </g>
    </g>
    <g id="xtick_2">
     <g id="line2d_2">
      <g>
       <use xlink:href="#me579e742f8" x="143.626535" y="304.44375" style="stroke: #000000; stroke-width: 0.8"/>
      </g>
     </g>
     <g id="text_2">
      <!-- 0.2 -->
      <g transform="translate(135.674973 319.042187)scale(0.1 -0.1)">
       <defs>
        <path id="DejaVuSans-32" d="M 1228 531 
L 3431 531 
L 3431 0 
L 469 0 
L 469 531 
Q 828 903 1448 1529 
Q 2069 2156 2228 2338 
Q 2531 2678 2651 2914 
Q 2772 3150 2772 3378 
Q 2772 3750 2511 3984 
Q 2250 4219 1831 4219 
Q 1534 4219 1204 4116 
Q 875 4013 500 3803 
L 500 4441 
Q 881 4594 1212 4672 
Q 1544 4750 1819 4750 
Q 2544 4750 2975 4387 
Q 3406 4025 3406 3419 
Q 3406 3131 3298 2873 
Q 3191 2616 2906 2266 
Q 2828 2175 2409 1742 
Q 1991 1309 1228 531 
z
" transform="scale(0.015625)"/>
       </defs>
       <use xlink:href="#DejaVuSans-30"/>
       <use xlink:href="#DejaVuSans-2e" x="63.623047"/>
       <use xlink:href="#DejaVuSans-32" x="95.410156"/>
      </g>
     </g>
    </g>
    <g id="xtick_3">
     <g id="line2d_3">
      <g>
       <use xlink:href="#me579e742f8" x="215.739912" y="304.44375" style="stroke: #000000; stroke-width: 0.8"/>
      </g>
     </g>
     <g id="text_3">
      <!-- 0.4 -->
      <g transform="translate(207.788349 319.042187)scale(0.1 -0.1)">
       <defs>
        <path id="DejaVuSans-34" d="M 2419 4116 
L 825 1625 
L 2419 1625 
L 2419 4116 
z
M 2253 4666 
L 3047 4666 
L 3047 1625 
L 3713 1625 
L 3713 1100 
L 3047 1100 
L 3047 0 
L 2419 0 
L 2419 1100 
L 313 1100 
L 313 1709 
L 2253 4666 
z
" transform="scale(0.015625)"/>
       </defs>
       <use xlink:href="#DejaVuSans-30"/>
       <use xlink:href="#DejaVuSans-2e" x="63.623047"/>
       <use xlink:href="#DejaVuSans-34" x="95.410156"/>
      </g>
     </g>
    </g>
    <g id="xtick_4">
     <g id="line2d_4">
      <g>
       <use xlink:href="#me579e742f8" x="287.853289" y="304.44375" style="stroke: #000000; stroke-width: 0.8"/>
      </g>
     </g>
     <g id="text_4">
      <!-- 0.6 -->
      <g transform="translate(279.901726 319.042187)scale(0.1 -0.1)">
       <defs>
        <path id="DejaVuSans-36" d="M 2113 2584 
Q 1688 2584 1439 2293 
Q 1191 2003 1191 1497 
Q 1191 994 1439 701 
Q 1688 409 2113 409 
Q 2538 409 2786 701 
Q 3034 994 3034 1497 
Q 3034 2003 2786 2293 
Q 2538 2584 2113 2584 
z
M 3366 4563 
L 3366 3988 
Q 3128 4100 2886 4159 
Q 2644 4219 2406 4219 
Q 1781 4219 1451 3797 
Q 1122 3375 1075 2522 
Q 1259 2794 1537 2939 
Q 1816 3084 2150 3084 
Q 2853 3084 3261 2657 
Q 3669 2231 3669 1497 
Q 3669 778 3244 343 
Q 2819 -91 2113 -91 
Q 1303 -91 875 529 
Q 447 1150 447 2328 
Q 447 3434 972 4092 
Q 1497 4750 2381 4750 
Q 2619 4750 2861 4703 
Q 3103 4656 3366 4563 
z
" transform="scale(0.015625)"/>
       </defs>
       <use xlink:href="#DejaVuSans-30"/>
       <use xlink:href="#DejaVuSans-2e" x="63.623047"/>
       <use xlink:href="#DejaVuSans-36" x="95.410156"/>
      </g>
     </g>
    </g>
    <g id="xtick_5">
     <g id="line2d_5">
      <g>
       <use xlink:href="#me579e742f8" x="359.966666" y="304.44375" style="stroke: #000000; stroke-width: 0.8"/>
      </g>
     </g>
     <g id="text_5">
      <!-- 0.8 -->
      <g transform="translate(352.015103 319.042187)scale(0.1 -0.1)">
       <defs>
        <path id="DejaVuSans-38" d="M 2034 2216 
Q 1584 2216 1326 1975 
Q 1069 1734 1069 1313 
Q 1069 891 1326 650 
Q 1584 409 2034 409 
Q 2484 409 2743 651 
Q 3003 894 3003 1313 
Q 3003 1734 2745 1975 
Q 2488 2216 2034 2216 
z
M 1403 2484 
Q 997 2584 770 2862 
Q 544 3141 544 3541 
Q 544 4100 942 4425 
Q 1341 4750 2034 4750 
Q 2731 4750 3128 4425 
Q 3525 4100 3525 3541 
Q 3525 3141 3298 2862 
Q 3072 2584 2669 2484 
Q 3125 2378 3379 2068 
Q 3634 1759 3634 1313 
Q 3634 634 3220 271 
Q 2806 -91 2034 -91 
Q 1263 -91 848 271 
Q 434 634 434 1313 
Q 434 1759 690 2068 
Q 947 2378 1403 2484 
z
M 1172 3481 
Q 1172 3119 1398 2916 
Q 1625 2713 2034 2713 
Q 2441 2713 2670 2916 
Q 2900 3119 2900 3481 
Q 2900 3844 2670 4047 
Q 2441 4250 2034 4250 
Q 1625 4250 1398 4047 
Q 1172 3844 1172 3481 
z
" transform="scale(0.015625)"/>
       </defs>
       <use xlink:href="#DejaVuSans-30"/>
       <use xlink:href="#DejaVuSans-2e" x="63.623047"/>
       <use xlink:href="#DejaVuSans-38" x="95.410156"/>
      </g>
     </g>
    </g>
    <g id="xtick_6">
     <g id="line2d_6">
      <g>
       <use xlink:href="#me579e742f8" x="432.080043" y="304.44375" style="stroke: #000000; stroke-width: 0.8"/>
      </g>
     </g>
     <g id="text_6">
      <!-- 1.0 -->
      <g transform="translate(424.12848 319.042187)scale(0.1 -0.1)">
       <defs>
        <path id="DejaVuSans-31" d="M 794 531 
L 1825 531 
L 1825 4091 
L 703 3866 
L 703 4441 
L 1819 4666 
L 2450 4666 
L 2450 531 
L 3481 531 
L 3481 0 
L 794 0 
L 794 531 
z
" transform="scale(0.015625)"/>
       </defs>
       <use xlink:href="#DejaVuSans-31"/>
       <use xlink:href="#DejaVuSans-2e" x="63.623047"/>
       <use xlink:href="#DejaVuSans-30" x="95.410156"/>
      </g>
     </g>
    </g>
    <g id="text_7">
     <!-- input [] -->
     <g transform="translate(234.528906 332.720312)scale(0.1 -0.1)">
      <defs>
       <path id="DejaVuSans-69" d="M 603 3500 
L 1178 3500 
L 1178 0 
L 603 0 
L 603 3500 
z
M 603 4863 
L 1178 4863 
L 1178 4134 
L 603 4134 
L 603 4863 
z
" transform="scale(0.015625)"/>
       <path id="DejaVuSans-6e" d="M 3513 2113 
L 3513 0 
L 2938 0 
L 2938 2094 
Q 2938 2591 2744 2837 
Q 2550 3084 2163 3084 
Q 1697 3084 1428 2787 
Q 1159 2491 1159 1978 
L 1159 0 
L 581 0 
L 581 3500 
L 1159 3500 
L 1159 2956 
Q 1366 3272 1645 3428 
Q 1925 3584 2291 3584 
Q 2894 3584 3203 3211 
Q 3513 2838 3513 2113 
z
" transform="scale(0.015625)"/>
       <path id="DejaVuSans-70" d="M 1159 525 
L 1159 -1331 
L 581 -1331 
L 581 3500 
L 1159 3500 
L 1159 2969 
Q 1341 3281 1617 3432 
Q 1894 3584 2278 3584 
Q 2916 3584 3314 3078 
Q 3713 2572 3713 1747 
Q 3713 922 3314 415 
Q 2916 -91 2278 -91 
Q 1894 -91 1617 61 
Q 1341 213 1159 525 
z
M 3116 1747 
Q 3116 2381 2855 2742 
Q 2594 3103 2138 3103 
Q 1681 3103 1420 2742 
Q 1159 2381 1159 1747 
Q 1159 1113 1420 752 
Q 1681 391 2138 391 
Q 2594 391 2855 752 
Q 3116 1113 3116 1747 
z
" transform="scale(0.015625)"/>
       <path id="DejaVuSans-75" d="M 544 1381 
L 544 3500 
L 1119 3500 
L 1119 1403 
Q 1119 906 1312 657 
Q 1506 409 1894 409 
Q 2359 409 2629 706 
Q 2900 1003 2900 1516 
L 2900 3500 
L 3475 3500 
L 3475 0 
L 2900 0 
L 2900 538 
Q 2691 219 2414 64 
Q 2138 -91 1772 -91 
Q 1169 -91 856 284 
Q 544 659 544 1381 
z
M 1991 3584 
L 1991 3584 
z
" transform="scale(0.015625)"/>
       <path id="DejaVuSans-74" d="M 1172 4494 
L 1172 3500 
L 2356 3500 
L 2356 3053 
L 1172 3053 
L 1172 1153 
Q 1172 725 1289 603 
Q 1406 481 1766 481 
L 2356 481 
L 2356 0 
L 1766 0 
Q 1100 0 847 248 
Q 594 497 594 1153 
L 594 3053 
L 172 3053 
L 172 3500 
L 594 3500 
L 594 4494 
L 1172 4494 
z
" transform="scale(0.015625)"/>
       <path id="DejaVuSans-20" transform="scale(0.015625)"/>
       <path id="DejaVuSans-5b" d="M 550 4863 
L 1875 4863 
L 1875 4416 
L 1125 4416 
L 1125 -397 
L 1875 -397 
L 1875 -844 
L 550 -844 
L 550 4863 
z
" transform="scale(0.015625)"/>
       <path id="DejaVuSans-5d" d="M 1947 4863 
L 1947 -844 
L 622 -844 
L 622 -397 
L 1369 -397 
L 1369 4416 
L 622 4416 
L 622 4863 
L 1947 4863 
z
" transform="scale(0.015625)"/>
      </defs>
      <use xlink:href="#DejaVuSans-69"/>
      <use xlink:href="#DejaVuSans-6e" x="27.783203"/>
      <use xlink:href="#DejaVuSans-70" x="91.162109"/>
      <use xlink:href="#DejaVuSans-75" x="154.638672"/>
      <use xlink:href="#DejaVuSans-74" x="218.017578"/>
      <use xlink:href="#DejaVuSans-20" x="257.226562"/>
      <use xlink:href="#DejaVuSans-5b" x="289.013672"/>
      <use xlink:href="#DejaVuSans-5d" x="328.027344"/>
     </g>
    </g>
   </g>
   <g id="matplotlib.axis_2">
    <g id="ytick_1">
     <g id="line2d_7">
      <defs>
       <path id="m54570bb04a" d="M 0 0 
L -3.5 0 
" style="stroke: #000000; stroke-width: 0.8"/>
      </defs>
      <g>
       <use xlink:href="#m54570bb04a" x="55.760938" y="269.147727" style="stroke: #000000; stroke-width: 0.8"/>
      </g>
     </g>
     <g id="text_8">
      <!-- −0.1 -->
      <g transform="translate(24.478125 272.946946)scale(0.1 -0.1)">
       <defs>
        <path id="DejaVuSans-2212" d="M 678 2272 
L 4684 2272 
L 4684 1741 
L 678 1741 
L 678 2272 
z
" transform="scale(0.015625)"/>
       </defs>
       <use xlink:href="#DejaVuSans-2212"/>
       <use xlink:href="#DejaVuSans-30" x="83.789062"/>
       <use xlink:href="#DejaVuSans-2e" x="147.412109"/>
       <use xlink:href="#DejaVuSans-31" x="179.199219"/>
      </g>
     </g>
    </g>
    <g id="ytick_2">
     <g id="line2d_8">
      <g>
       <use xlink:href="#m54570bb04a" x="55.760938" y="228.312612" style="stroke: #000000; stroke-width: 0.8"/>
      </g>
     </g>
     <g id="text_9">
      <!-- 0.0 -->
      <g transform="translate(32.857813 232.111831)scale(0.1 -0.1)">
       <use xlink:href="#DejaVuSans-30"/>
       <use xlink:href="#DejaVuSans-2e" x="63.623047"/>
       <use xlink:href="#DejaVuSans-30" x="95.410156"/>
      </g>
     </g>
    </g>
    <g id="ytick_3">
     <g id="line2d_9">
      <g>
       <use xlink:href="#m54570bb04a" x="55.760938" y="187.477497" style="stroke: #000000; stroke-width: 0.8"/>
      </g>
     </g>
     <g id="text_10">
      <!-- 0.1 -->
      <g transform="translate(32.857813 191.276716)scale(0.1 -0.1)">
       <use xlink:href="#DejaVuSans-30"/>
       <use xlink:href="#DejaVuSans-2e" x="63.623047"/>
       <use xlink:href="#DejaVuSans-31" x="95.410156"/>
      </g>
     </g>
    </g>
    <g id="ytick_4">
     <g id="line2d_10">
      <g>
       <use xlink:href="#m54570bb04a" x="55.760938" y="146.642382" style="stroke: #000000; stroke-width: 0.8"/>
      </g>
     </g>
     <g id="text_11">
      <!-- 0.2 -->
      <g transform="translate(32.857813 150.441601)scale(0.1 -0.1)">
       <use xlink:href="#DejaVuSans-30"/>
       <use xlink:href="#DejaVuSans-2e" x="63.623047"/>
       <use xlink:href="#DejaVuSans-32" x="95.410156"/>
      </g>
     </g>
    </g>
    <g id="ytick_5">
     <g id="line2d_11">
      <g>
       <use xlink:href="#m54570bb04a" x="55.760938" y="105.807267" style="stroke: #000000; stroke-width: 0.8"/>
      </g>
     </g>
     <g id="text_12">
      <!-- 0.3 -->
      <g transform="translate(32.857813 109.606486)scale(0.1 -0.1)">
       <defs>
        <path id="DejaVuSans-33" d="M 2597 2516 
Q 3050 2419 3304 2112 
Q 3559 1806 3559 1356 
Q 3559 666 3084 287 
Q 2609 -91 1734 -91 
Q 1441 -91 1130 -33 
Q 819 25 488 141 
L 488 750 
Q 750 597 1062 519 
Q 1375 441 1716 441 
Q 2309 441 2620 675 
Q 2931 909 2931 1356 
Q 2931 1769 2642 2001 
Q 2353 2234 1838 2234 
L 1294 2234 
L 1294 2753 
L 1863 2753 
Q 2328 2753 2575 2939 
Q 2822 3125 2822 3475 
Q 2822 3834 2567 4026 
Q 2313 4219 1838 4219 
Q 1578 4219 1281 4162 
Q 984 4106 628 3988 
L 628 4550 
Q 988 4650 1302 4700 
Q 1616 4750 1894 4750 
Q 2613 4750 3031 4423 
Q 3450 4097 3450 3541 
Q 3450 3153 3228 2886 
Q 3006 2619 2597 2516 
z
" transform="scale(0.015625)"/>
       </defs>
       <use xlink:href="#DejaVuSans-30"/>
       <use xlink:href="#DejaVuSans-2e" x="63.623047"/>
       <use xlink:href="#DejaVuSans-33" x="95.410156"/>
      </g>
     </g>
    </g>
    <g id="ytick_6">
     <g id="line2d_12">
      <g>
       <use xlink:href="#m54570bb04a" x="55.760938" y="64.972152" style="stroke: #000000; stroke-width: 0.8"/>
      </g>
     </g>
     <g id="text_13">
      <!-- 0.4 -->
      <g transform="translate(32.857813 68.771371)scale(0.1 -0.1)">
       <use xlink:href="#DejaVuSans-30"/>
       <use xlink:href="#DejaVuSans-2e" x="63.623047"/>
       <use xlink:href="#DejaVuSans-34" x="95.410156"/>
      </g>
     </g>
    </g>
    <g id="ytick_7">
     <g id="line2d_13">
      <g>
       <use xlink:href="#m54570bb04a" x="55.760938" y="24.137037" style="stroke: #000000; stroke-width: 0.8"/>
      </g>
     </g>
     <g id="text_14">
      <!-- 0.5 -->
      <g transform="translate(32.857813 27.936256)scale(0.1 -0.1)">
       <defs>
        <path id="DejaVuSans-35" d="M 691 4666 
L 3169 4666 
L 3169 4134 
L 1269 4134 
L 1269 2991 
Q 1406 3038 1543 3061 
Q 1681 3084 1819 3084 
Q 2600 3084 3056 2656 
Q 3513 2228 3513 1497 
Q 3513 744 3044 326 
Q 2575 -91 1722 -91 
Q 1428 -91 1123 -41 
Q 819 9 494 109 
L 494 744 
Q 775 591 1075 516 
Q 1375 441 1709 441 
Q 2250 441 2565 725 
Q 2881 1009 2881 1497 
Q 2881 1984 2565 2268 
Q 2250 2553 1709 2553 
Q 1456 2553 1204 2497 
Q 953 2441 691 2322 
L 691 4666 
z
" transform="scale(0.015625)"/>
       </defs>
       <use xlink:href="#DejaVuSans-30"/>
       <use xlink:href="#DejaVuSans-2e" x="63.623047"/>
       <use xlink:href="#DejaVuSans-35" x="95.410156"/>
      </g>
     </g>
    </g>
    <g id="text_15">
     <!-- output [] -->
     <g transform="translate(18.398438 179.603906)rotate(-90)scale(0.1 -0.1)">
      <defs>
       <path id="DejaVuSans-6f" d="M 1959 3097 
Q 1497 3097 1228 2736 
Q 959 2375 959 1747 
Q 959 1119 1226 758 
Q 1494 397 1959 397 
Q 2419 397 2687 759 
Q 2956 1122 2956 1747 
Q 2956 2369 2687 2733 
Q 2419 3097 1959 3097 
z
M 1959 3584 
Q 2709 3584 3137 3096 
Q 3566 2609 3566 1747 
Q 3566 888 3137 398 
Q 2709 -91 1959 -91 
Q 1206 -91 779 398 
Q 353 888 353 1747 
Q 353 2609 779 3096 
Q 1206 3584 1959 3584 
z
" transform="scale(0.015625)"/>
      </defs>
      <use xlink:href="#DejaVuSans-6f"/>
      <use xlink:href="#DejaVuSans-75" x="61.181641"/>
      <use xlink:href="#DejaVuSans-74" x="124.560547"/>
      <use xlink:href="#DejaVuSans-70" x="163.769531"/>
      <use xlink:href="#DejaVuSans-75" x="227.246094"/>
      <use xlink:href="#DejaVuSans-74" x="290.625"/>
      <use xlink:href="#DejaVuSans-20" x="329.833984"/>
      <use xlink:href="#DejaVuSans-5b" x="361.621094"/>
      <use xlink:href="#DejaVuSans-5d" x="400.634766"/>
     </g>
    </g>
   </g>
   <g id="line2d_14">
    <path d="M 73.680895 228.311447 
L 134.377525 228.406173 
L 142.325893 228.654363 
L 148.106524 229.040164 
L 152.441998 229.518288 
L 156.777471 230.229494 
L 160.390366 231.057043 
L 163.280682 231.910116 
L 166.170998 232.963941 
L 167.616155 233.575292 
L 171.22905 235.378923 
L 174.119366 237.132906 
L 177.009681 239.189095 
L 179.899997 241.565275 
L 182.790313 244.271333 
L 184.95805 246.517633 
L 188.570944 250.659618 
L 192.183839 255.253751 
L 195.796734 260.212762 
L 202.299944 269.624867 
L 207.357996 276.795816 
L 210.248312 280.571898 
L 213.138628 283.955957 
L 215.306365 286.159275 
L 216.751522 287.43915 
L 218.919259 289.037661 
L 219.641838 289.477632 
L 222.532154 290.728895 
L 224.699891 291.091888 
L 226.145048 291.040573 
L 228.312785 290.503121 
L 229.757943 289.828637 
L 230.480522 289.394775 
L 233.370838 287.007513 
L 234.815996 285.421505 
L 236.261153 283.575459 
L 238.42889 280.326327 
L 240.596627 276.517354 
L 241.319206 275.127428 
L 243.486943 270.612293 
L 244.932101 267.327195 
L 248.544995 258.237178 
L 251.435311 250.17148 
L 255.048206 239.284611 
L 259.383679 225.345462 
L 265.886889 203.447101 
L 276.002994 169.305915 
L 282.506205 148.406527 
L 287.564257 133.011423 
L 291.177152 122.518679 
L 296.235204 108.551633 
L 300.570678 97.256189 
L 304.906151 86.593057 
L 308.519046 78.203142 
L 312.131941 70.283491 
L 316.467414 61.437537 
L 320.080309 54.652762 
L 322.970625 49.636604 
L 325.86094 45.009369 
L 328.028677 41.807336 
L 330.918993 37.913327 
L 333.809309 34.467723 
L 335.977045 32.189851 
L 338.144782 30.183214 
L 341.035098 27.941643 
L 343.202835 26.593747 
L 345.370571 25.537076 
L 347.538308 24.775496 
L 349.706045 24.311759 
L 351.873782 24.147443 
L 354.041519 24.28292 
L 356.209255 24.717326 
L 357.654413 25.172011 
L 359.099571 25.757709 
L 360.544729 26.473243 
L 363.435045 28.287899 
L 365.602781 29.977422 
L 367.770518 31.940484 
L 368.493097 32.654193 
L 372.105992 36.652314 
L 374.996307 40.343135 
L 377.886623 44.442063 
L 380.776939 48.919104 
L 384.389833 54.997877 
L 388.002728 61.550164 
L 391.615623 68.505883 
L 397.396254 80.293858 
L 403.899464 94.198395 
L 421.241359 131.650333 
L 427.02199 143.431817 
L 432.080043 153.200616 
L 432.080043 153.200616 
" clip-path="url(#pe74bfe69a8)" style="fill: none; stroke: #1f77b4; stroke-width: 1.5; stroke-linecap: square"/>
   </g>
   <g id="line2d_15">
    <path d="M 73.680895 227.226067 
L 75.126053 225.34674 
L 76.571211 223.929386 
L 78.016368 222.918247 
L 80.184105 222.050274 
L 81.629263 221.834697 
L 83.074421 221.858589 
L 84.519579 222.082011 
L 86.687316 222.711815 
L 88.855052 223.597828 
L 92.467947 225.389613 
L 98.248578 228.333294 
L 101.861473 229.850981 
L 104.751789 230.765855 
L 106.919526 231.251014 
L 108.364683 231.474311 
L 111.254999 231.679626 
L 112.700157 231.66443 
L 115.590473 231.41286 
L 119.203367 230.729912 
L 122.816262 229.721983 
L 127.151735 228.236386 
L 135.822683 225.159803 
L 137.990419 224.521224 
L 141.603314 223.693293 
L 144.49363 223.300548 
L 146.661367 223.192517 
L 148.829103 223.262123 
L 150.99684 223.522672 
L 153.164577 223.984869 
L 155.332314 224.656725 
L 157.50005 225.5435 
L 160.390366 227.064069 
L 162.558103 228.457162 
L 164.72584 230.062685 
L 167.616155 232.522 
L 171.22905 236.074744 
L 174.841945 240.101195 
L 178.454839 244.523087 
L 182.790313 250.219342 
L 190.738681 261.167377 
L 196.519312 268.926349 
L 200.132207 273.424837 
L 202.299944 275.929333 
L 205.19026 278.986218 
L 208.080575 281.664477 
L 210.248312 283.389741 
L 212.416049 284.846408 
L 213.861207 285.657589 
L 216.028943 286.619467 
L 218.19668 287.258856 
L 219.641838 287.497475 
L 222.532154 287.504059 
L 224.699891 287.081782 
L 226.145048 286.590584 
L 229.035364 285.09316 
L 230.480522 284.082928 
L 234.093417 280.784495 
L 236.261153 278.273255 
L 238.42889 275.364177 
L 240.596627 272.061075 
L 241.319206 270.873475 
L 244.932101 264.299647 
L 248.544995 256.702274 
L 251.435311 249.928878 
L 254.325627 242.579269 
L 257.215942 234.698468 
L 260.828837 224.177624 
L 265.164311 210.714749 
L 268.777205 198.936788 
L 276.002994 174.390912 
L 288.286836 132.215424 
L 293.344889 115.660769 
L 297.680362 102.209626 
L 301.293257 91.651465 
L 304.906151 81.775158 
L 308.519046 72.650321 
L 312.131941 64.33165 
L 315.744835 56.858426 
L 318.635151 51.505069 
L 320.802888 47.858657 
L 323.693204 43.488184 
L 325.86094 40.576117 
L 328.028677 37.973184 
L 330.918993 34.973542 
L 333.809309 32.49618 
L 335.977045 30.968524 
L 338.144782 29.713167 
L 341.035098 28.444631 
L 343.202835 27.782844 
L 345.370571 27.356781 
L 348.260887 27.136094 
L 350.428624 27.217189 
L 353.31894 27.635138 
L 355.486676 28.169437 
L 357.654413 28.884584 
L 360.544729 30.109236 
L 363.435045 31.635195 
L 366.32536 33.458715 
L 368.493097 35.022997 
L 372.105992 38.015903 
L 374.996307 40.775044 
L 377.886623 43.882277 
L 380.776939 47.365441 
L 382.944676 50.243651 
L 385.834991 54.463075 
L 388.002728 57.932769 
L 390.893044 62.991558 
L 393.783359 68.568754 
L 396.673675 74.680598 
L 399.563991 81.327111 
L 402.454307 88.485172 
L 406.78978 100.051308 
L 412.570412 116.379246 
L 416.905885 128.357691 
L 419.796201 135.57412 
L 421.241359 138.773209 
L 423.409095 142.850337 
L 424.854253 144.959723 
L 426.299411 146.466373 
L 427.02199 146.959155 
L 427.744569 147.258329 
L 431.357464 145.263202 
L 432.080043 144.036309 
L 432.080043 144.036309 
" clip-path="url(#pe74bfe69a8)" style="fill: none; stroke: #ff7f0e; stroke-width: 1.5; stroke-linecap: square"/>
   </g>
   <g id="line2d_16">
    <path d="M 73.680895 228.189552 
L 108.364683 228.299048 
L 122.816262 228.556567 
L 132.209788 228.930373 
L 137.990419 229.308369 
L 144.49363 229.944397 
L 149.551682 230.658884 
L 153.887156 231.480811 
L 157.50005 232.355341 
L 161.112945 233.443367 
L 164.72584 234.790001 
L 167.616155 236.087562 
L 171.22905 238.031011 
L 174.119366 239.878348 
L 177.009681 242.0161 
L 179.899997 244.468601 
L 182.790313 247.253235 
L 184.95805 249.563936 
L 188.570944 253.827206 
L 192.183839 258.551451 
L 196.519312 264.65288 
L 203.745102 274.902852 
L 206.635417 278.613185 
L 208.803154 281.111491 
L 211.69347 283.963669 
L 213.861207 285.693166 
L 216.028943 287.044373 
L 216.751522 287.40855 
L 218.919259 288.240663 
L 219.641838 288.431499 
L 222.532154 288.767805 
L 224.699891 288.578396 
L 226.145048 288.244024 
L 229.035364 287.071925 
L 230.480522 286.227772 
L 234.093417 283.315737 
L 236.261153 280.97567 
L 238.42889 278.150369 
L 240.596627 274.807698 
L 241.319206 273.573808 
L 243.486943 269.50353 
L 244.932101 266.479874 
L 247.822416 259.696473 
L 249.990153 253.993796 
L 252.880469 245.655339 
L 255.770784 236.617191 
L 259.383679 224.616096 
L 275.280415 170.596017 
L 278.89331 159.162641 
L 284.673942 141.713617 
L 291.177152 123.095566 
L 297.680362 105.272919 
L 303.460994 90.045271 
L 308.519046 77.343278 
L 313.577099 65.48828 
L 317.189993 57.71653 
L 320.080309 52.005924 
L 322.970625 46.800126 
L 325.86094 42.135897 
L 328.028677 39.006718 
L 330.918993 35.332868 
L 333.809309 32.223688 
L 335.977045 30.253062 
L 338.144782 28.581483 
L 341.035098 26.798727 
L 343.202835 25.781591 
L 345.370571 25.027195 
L 348.260887 24.415574 
L 350.428624 24.244882 
L 353.31894 24.395783 
L 355.486676 24.792948 
L 357.654413 25.436427 
L 360.544729 26.685722 
L 363.435045 28.395241 
L 365.602781 29.988327 
L 367.770518 31.854028 
L 368.493097 32.537223 
L 372.105992 36.416026 
L 374.996307 40.071572 
L 377.886623 44.204599 
L 380.776939 48.790046 
L 382.944676 52.504327 
L 386.55757 59.160574 
L 390.170465 66.304598 
L 395.228517 76.8933 
L 414.738148 118.515215 
L 419.073622 126.981549 
L 423.409095 134.966582 
L 427.744569 142.437108 
L 432.080043 149.381917 
L 432.080043 149.381917 
" clip-path="url(#pe74bfe69a8)" style="fill: none; stroke: #2ca02c; stroke-width: 1.5; stroke-linecap: square"/>
   </g>
   <g id="patch_3">
    <path d="M 55.760938 304.44375 
L 55.760938 10.8 
" style="fill: none; stroke: #000000; stroke-width: 0.8; stroke-linejoin: miter; stroke-linecap: square"/>
   </g>
   <g id="patch_4">
    <path d="M 450 304.44375 
L 450 10.8 
" style="fill: none; stroke: #000000; stroke-width: 0.8; stroke-linejoin: miter; stroke-linecap: square"/>
   </g>
   <g id="patch_5">
    <path d="M 55.760938 304.44375 
L 450 304.44375 
" style="fill: none; stroke: #000000; stroke-width: 0.8; stroke-linejoin: miter; stroke-linecap: square"/>
   </g>
   <g id="patch_6">
    <path d="M 55.760938 10.8 
L 450 10.8 
" style="fill: none; stroke: #000000; stroke-width: 0.8; stroke-linejoin: miter; stroke-linecap: square"/>
   </g>
   <g id="legend_1">
    <g id="patch_7">
     <path d="M 62.760938 65.678125 
L 255.260938 65.678125 
Q 257.260938 65.678125 257.260938 63.678125 
L 257.260938 17.8 
Q 257.260938 15.8 255.260938 15.8 
L 62.760938 15.8 
Q 60.760938 15.8 60.760938 17.8 
L 60.760938 63.678125 
Q 60.760938 65.678125 62.760938 65.678125 
z
" style="fill: #ffffff; opacity: 0.8; stroke: #cccccc; stroke-linejoin: miter"/>
    </g>
    <g id="line2d_17">
     <path d="M 64.760938 23.898438 
L 74.760938 23.898438 
L 84.760938 23.898438 
" style="fill: none; stroke: #1f77b4; stroke-width: 1.5; stroke-linecap: square"/>
    </g>
    <g id="text_16">
     <!-- f(x) -->
     <g transform="translate(92.760938 27.398438)scale(0.1 -0.1)">
      <defs>
       <path id="DejaVuSans-66" d="M 2375 4863 
L 2375 4384 
L 1825 4384 
Q 1516 4384 1395 4259 
Q 1275 4134 1275 3809 
L 1275 3500 
L 2222 3500 
L 2222 3053 
L 1275 3053 
L 1275 0 
L 697 0 
L 697 3053 
L 147 3053 
L 147 3500 
L 697 3500 
L 697 3744 
Q 697 4328 969 4595 
Q 1241 4863 1831 4863 
L 2375 4863 
z
" transform="scale(0.015625)"/>
       <path id="DejaVuSans-28" d="M 1984 4856 
Q 1566 4138 1362 3434 
Q 1159 2731 1159 2009 
Q 1159 1288 1364 580 
Q 1569 -128 1984 -844 
L 1484 -844 
Q 1016 -109 783 600 
Q 550 1309 550 2009 
Q 550 2706 781 3412 
Q 1013 4119 1484 4856 
L 1984 4856 
z
" transform="scale(0.015625)"/>
       <path id="DejaVuSans-78" d="M 3513 3500 
L 2247 1797 
L 3578 0 
L 2900 0 
L 1881 1375 
L 863 0 
L 184 0 
L 1544 1831 
L 300 3500 
L 978 3500 
L 1906 2253 
L 2834 3500 
L 3513 3500 
z
" transform="scale(0.015625)"/>
       <path id="DejaVuSans-29" d="M 513 4856 
L 1013 4856 
Q 1481 4119 1714 3412 
Q 1947 2706 1947 2009 
Q 1947 1309 1714 600 
Q 1481 -109 1013 -844 
L 513 -844 
Q 928 -128 1133 580 
Q 1338 1288 1338 2009 
Q 1338 2731 1133 3434 
Q 928 4138 513 4856 
z
" transform="scale(0.015625)"/>
      </defs>
      <use xlink:href="#DejaVuSans-66"/>
      <use xlink:href="#DejaVuSans-28" x="35.205078"/>
      <use xlink:href="#DejaVuSans-78" x="74.21875"/>
      <use xlink:href="#DejaVuSans-29" x="133.398438"/>
     </g>
    </g>
    <g id="line2d_18">
     <path d="M 64.760938 39.978125 
L 74.760938 39.978125 
L 84.760938 39.978125 
" style="fill: none; stroke: #ff7f0e; stroke-width: 1.5; stroke-linecap: square"/>
    </g>
    <g id="text_17">
     <!-- OLS, degree 10 [MSE=1.0$\cdot 10^{-4}$] -->
     <g transform="translate(92.760938 43.478125)scale(0.1 -0.1)">
      <defs>
       <path id="DejaVuSans-4f" d="M 2522 4238 
Q 1834 4238 1429 3725 
Q 1025 3213 1025 2328 
Q 1025 1447 1429 934 
Q 1834 422 2522 422 
Q 3209 422 3611 934 
Q 4013 1447 4013 2328 
Q 4013 3213 3611 3725 
Q 3209 4238 2522 4238 
z
M 2522 4750 
Q 3503 4750 4090 4092 
Q 4678 3434 4678 2328 
Q 4678 1225 4090 567 
Q 3503 -91 2522 -91 
Q 1538 -91 948 565 
Q 359 1222 359 2328 
Q 359 3434 948 4092 
Q 1538 4750 2522 4750 
z
" transform="scale(0.015625)"/>
       <path id="DejaVuSans-4c" d="M 628 4666 
L 1259 4666 
L 1259 531 
L 3531 531 
L 3531 0 
L 628 0 
L 628 4666 
z
" transform="scale(0.015625)"/>
       <path id="DejaVuSans-53" d="M 3425 4513 
L 3425 3897 
Q 3066 4069 2747 4153 
Q 2428 4238 2131 4238 
Q 1616 4238 1336 4038 
Q 1056 3838 1056 3469 
Q 1056 3159 1242 3001 
Q 1428 2844 1947 2747 
L 2328 2669 
Q 3034 2534 3370 2195 
Q 3706 1856 3706 1288 
Q 3706 609 3251 259 
Q 2797 -91 1919 -91 
Q 1588 -91 1214 -16 
Q 841 59 441 206 
L 441 856 
Q 825 641 1194 531 
Q 1563 422 1919 422 
Q 2459 422 2753 634 
Q 3047 847 3047 1241 
Q 3047 1584 2836 1778 
Q 2625 1972 2144 2069 
L 1759 2144 
Q 1053 2284 737 2584 
Q 422 2884 422 3419 
Q 422 4038 858 4394 
Q 1294 4750 2059 4750 
Q 2388 4750 2728 4690 
Q 3069 4631 3425 4513 
z
" transform="scale(0.015625)"/>
       <path id="DejaVuSans-2c" d="M 750 794 
L 1409 794 
L 1409 256 
L 897 -744 
L 494 -744 
L 750 256 
L 750 794 
z
" transform="scale(0.015625)"/>
       <path id="DejaVuSans-64" d="M 2906 2969 
L 2906 4863 
L 3481 4863 
L 3481 0 
L 2906 0 
L 2906 525 
Q 2725 213 2448 61 
Q 2172 -91 1784 -91 
Q 1150 -91 751 415 
Q 353 922 353 1747 
Q 353 2572 751 3078 
Q 1150 3584 1784 3584 
Q 2172 3584 2448 3432 
Q 2725 3281 2906 2969 
z
M 947 1747 
Q 947 1113 1208 752 
Q 1469 391 1925 391 
Q 2381 391 2643 752 
Q 2906 1113 2906 1747 
Q 2906 2381 2643 2742 
Q 2381 3103 1925 3103 
Q 1469 3103 1208 2742 
Q 947 2381 947 1747 
z
" transform="scale(0.015625)"/>
       <path id="DejaVuSans-65" d="M 3597 1894 
L 3597 1613 
L 953 1613 
Q 991 1019 1311 708 
Q 1631 397 2203 397 
Q 2534 397 2845 478 
Q 3156 559 3463 722 
L 3463 178 
Q 3153 47 2828 -22 
Q 2503 -91 2169 -91 
Q 1331 -91 842 396 
Q 353 884 353 1716 
Q 353 2575 817 3079 
Q 1281 3584 2069 3584 
Q 2775 3584 3186 3129 
Q 3597 2675 3597 1894 
z
M 3022 2063 
Q 3016 2534 2758 2815 
Q 2500 3097 2075 3097 
Q 1594 3097 1305 2825 
Q 1016 2553 972 2059 
L 3022 2063 
z
" transform="scale(0.015625)"/>
       <path id="DejaVuSans-67" d="M 2906 1791 
Q 2906 2416 2648 2759 
Q 2391 3103 1925 3103 
Q 1463 3103 1205 2759 
Q 947 2416 947 1791 
Q 947 1169 1205 825 
Q 1463 481 1925 481 
Q 2391 481 2648 825 
Q 2906 1169 2906 1791 
z
M 3481 434 
Q 3481 -459 3084 -895 
Q 2688 -1331 1869 -1331 
Q 1566 -1331 1297 -1286 
Q 1028 -1241 775 -1147 
L 775 -588 
Q 1028 -725 1275 -790 
Q 1522 -856 1778 -856 
Q 2344 -856 2625 -561 
Q 2906 -266 2906 331 
L 2906 616 
Q 2728 306 2450 153 
Q 2172 0 1784 0 
Q 1141 0 747 490 
Q 353 981 353 1791 
Q 353 2603 747 3093 
Q 1141 3584 1784 3584 
Q 2172 3584 2450 3431 
Q 2728 3278 2906 2969 
L 2906 3500 
L 3481 3500 
L 3481 434 
z
" transform="scale(0.015625)"/>
       <path id="DejaVuSans-72" d="M 2631 2963 
Q 2534 3019 2420 3045 
Q 2306 3072 2169 3072 
Q 1681 3072 1420 2755 
Q 1159 2438 1159 1844 
L 1159 0 
L 581 0 
L 581 3500 
L 1159 3500 
L 1159 2956 
Q 1341 3275 1631 3429 
Q 1922 3584 2338 3584 
Q 2397 3584 2469 3576 
Q 2541 3569 2628 3553 
L 2631 2963 
z
" transform="scale(0.015625)"/>
       <path id="DejaVuSans-4d" d="M 628 4666 
L 1569 4666 
L 2759 1491 
L 3956 4666 
L 4897 4666 
L 4897 0 
L 4281 0 
L 4281 4097 
L 3078 897 
L 2444 897 
L 1241 4097 
L 1241 0 
L 628 0 
L 628 4666 
z
" transform="scale(0.015625)"/>
       <path id="DejaVuSans-45" d="M 628 4666 
L 3578 4666 
L 3578 4134 
L 1259 4134 
L 1259 2753 
L 3481 2753 
L 3481 2222 
L 1259 2222 
L 1259 531 
L 3634 531 
L 3634 0 
L 628 0 
L 628 4666 
z
" transform="scale(0.015625)"/>
       <path id="DejaVuSans-3d" d="M 678 2906 
L 4684 2906 
L 4684 2381 
L 678 2381 
L 678 2906 
z
M 678 1631 
L 4684 1631 
L 4684 1100 
L 678 1100 
L 678 1631 
z
" transform="scale(0.015625)"/>
       <path id="DejaVuSans-22c5" d="M 684 2619 
L 1344 2619 
L 1344 1825 
L 684 1825 
L 684 2619 
z
" transform="scale(0.015625)"/>
      </defs>
      <use xlink:href="#DejaVuSans-4f" transform="translate(0 0.684375)"/>
      <use xlink:href="#DejaVuSans-4c" transform="translate(78.710938 0.684375)"/>
      <use xlink:href="#DejaVuSans-53" transform="translate(134.423828 0.684375)"/>
      <use xlink:href="#DejaVuSans-2c" transform="translate(197.900391 0.684375)"/>
      <use xlink:href="#DejaVuSans-20" transform="translate(229.6875 0.684375)"/>
      <use xlink:href="#DejaVuSans-64" transform="translate(261.474609 0.684375)"/>
      <use xlink:href="#DejaVuSans-65" transform="translate(324.951172 0.684375)"/>
      <use xlink:href="#DejaVuSans-67" transform="translate(386.474609 0.684375)"/>
      <use xlink:href="#DejaVuSans-72" transform="translate(449.951172 0.684375)"/>
      <use xlink:href="#DejaVuSans-65" transform="translate(491.064453 0.684375)"/>
      <use xlink:href="#DejaVuSans-65" transform="translate(552.587891 0.684375)"/>
      <use xlink:href="#DejaVuSans-20" transform="translate(614.111328 0.684375)"/>
      <use xlink:href="#DejaVuSans-31" transform="translate(645.898438 0.684375)"/>
      <use xlink:href="#DejaVuSans-30" transform="translate(709.521484 0.684375)"/>
      <use xlink:href="#DejaVuSans-20" transform="translate(773.144531 0.684375)"/>
      <use xlink:href="#DejaVuSans-5b" transform="translate(804.931641 0.684375)"/>
      <use xlink:href="#DejaVuSans-4d" transform="translate(843.945312 0.684375)"/>
      <use xlink:href="#DejaVuSans-53" transform="translate(930.224609 0.684375)"/>
      <use xlink:href="#DejaVuSans-45" transform="translate(993.701172 0.684375)"/>
      <use xlink:href="#DejaVuSans-3d" transform="translate(1056.884766 0.684375)"/>
      <use xlink:href="#DejaVuSans-31" transform="translate(1140.673828 0.684375)"/>
      <use xlink:href="#DejaVuSans-2e" transform="translate(1204.296875 0.684375)"/>
      <use xlink:href="#DejaVuSans-30" transform="translate(1236.083984 0.684375)"/>
      <use xlink:href="#DejaVuSans-22c5" transform="translate(1299.707031 0.684375)"/>
      <use xlink:href="#DejaVuSans-31" transform="translate(1331.494141 0.684375)"/>
      <use xlink:href="#DejaVuSans-30" transform="translate(1395.117188 0.684375)"/>
      <use xlink:href="#DejaVuSans-2212" transform="translate(1459.697266 38.965625)scale(0.7)"/>
      <use xlink:href="#DejaVuSans-34" transform="translate(1518.349609 38.965625)scale(0.7)"/>
      <use xlink:href="#DejaVuSans-5d" transform="translate(1565.620117 0.684375)"/>
     </g>
    </g>
    <g id="line2d_19">
     <path d="M 64.760938 56.078125 
L 74.760938 56.078125 
L 84.760938 56.078125 
" style="fill: none; stroke: #2ca02c; stroke-width: 1.5; stroke-linecap: square"/>
    </g>
    <g id="text_18">
     <!-- FFNN sigmoid [MSE=0.2$\cdot 10^{-4}$] -->
     <g transform="translate(92.760938 59.578125)scale(0.1 -0.1)">
      <defs>
       <path id="DejaVuSans-46" d="M 628 4666 
L 3309 4666 
L 3309 4134 
L 1259 4134 
L 1259 2759 
L 3109 2759 
L 3109 2228 
L 1259 2228 
L 1259 0 
L 628 0 
L 628 4666 
z
" transform="scale(0.015625)"/>
       <path id="DejaVuSans-4e" d="M 628 4666 
L 1478 4666 
L 3547 763 
L 3547 4666 
L 4159 4666 
L 4159 0 
L 3309 0 
L 1241 3903 
L 1241 0 
L 628 0 
L 628 4666 
z
" transform="scale(0.015625)"/>
       <path id="DejaVuSans-73" d="M 2834 3397 
L 2834 2853 
Q 2591 2978 2328 3040 
Q 2066 3103 1784 3103 
Q 1356 3103 1142 2972 
Q 928 2841 928 2578 
Q 928 2378 1081 2264 
Q 1234 2150 1697 2047 
L 1894 2003 
Q 2506 1872 2764 1633 
Q 3022 1394 3022 966 
Q 3022 478 2636 193 
Q 2250 -91 1575 -91 
Q 1294 -91 989 -36 
Q 684 19 347 128 
L 347 722 
Q 666 556 975 473 
Q 1284 391 1588 391 
Q 1994 391 2212 530 
Q 2431 669 2431 922 
Q 2431 1156 2273 1281 
Q 2116 1406 1581 1522 
L 1381 1569 
Q 847 1681 609 1914 
Q 372 2147 372 2553 
Q 372 3047 722 3315 
Q 1072 3584 1716 3584 
Q 2034 3584 2315 3537 
Q 2597 3491 2834 3397 
z
" transform="scale(0.015625)"/>
       <path id="DejaVuSans-6d" d="M 3328 2828 
Q 3544 3216 3844 3400 
Q 4144 3584 4550 3584 
Q 5097 3584 5394 3201 
Q 5691 2819 5691 2113 
L 5691 0 
L 5113 0 
L 5113 2094 
Q 5113 2597 4934 2840 
Q 4756 3084 4391 3084 
Q 3944 3084 3684 2787 
Q 3425 2491 3425 1978 
L 3425 0 
L 2847 0 
L 2847 2094 
Q 2847 2600 2669 2842 
Q 2491 3084 2119 3084 
Q 1678 3084 1418 2786 
Q 1159 2488 1159 1978 
L 1159 0 
L 581 0 
L 581 3500 
L 1159 3500 
L 1159 2956 
Q 1356 3278 1631 3431 
Q 1906 3584 2284 3584 
Q 2666 3584 2933 3390 
Q 3200 3197 3328 2828 
z
" transform="scale(0.015625)"/>
      </defs>
      <use xlink:href="#DejaVuSans-46" transform="translate(0 0.684375)"/>
      <use xlink:href="#DejaVuSans-46" transform="translate(57.519531 0.684375)"/>
      <use xlink:href="#DejaVuSans-4e" transform="translate(115.039062 0.684375)"/>
      <use xlink:href="#DejaVuSans-4e" transform="translate(189.84375 0.684375)"/>
      <use xlink:href="#DejaVuSans-20" transform="translate(264.648438 0.684375)"/>
      <use xlink:href="#DejaVuSans-73" transform="translate(296.435547 0.684375)"/>
      <use xlink:href="#DejaVuSans-69" transform="translate(348.535156 0.684375)"/>
      <use xlink:href="#DejaVuSans-67" transform="translate(376.318359 0.684375)"/>
      <use xlink:href="#DejaVuSans-6d" transform="translate(439.794922 0.684375)"/>
      <use xlink:href="#DejaVuSans-6f" transform="translate(537.207031 0.684375)"/>
      <use xlink:href="#DejaVuSans-69" transform="translate(598.388672 0.684375)"/>
      <use xlink:href="#DejaVuSans-64" transform="translate(626.171875 0.684375)"/>
      <use xlink:href="#DejaVuSans-20" transform="translate(689.648438 0.684375)"/>
      <use xlink:href="#DejaVuSans-5b" transform="translate(721.435547 0.684375)"/>
      <use xlink:href="#DejaVuSans-4d" transform="translate(760.449219 0.684375)"/>
      <use xlink:href="#DejaVuSans-53" transform="translate(846.728516 0.684375)"/>
      <use xlink:href="#DejaVuSans-45" transform="translate(910.205078 0.684375)"/>
      <use xlink:href="#DejaVuSans-3d" transform="translate(973.388672 0.684375)"/>
      <use xlink:href="#DejaVuSans-30" transform="translate(1057.177734 0.684375)"/>
      <use xlink:href="#DejaVuSans-2e" transform="translate(1120.800781 0.684375)"/>
      <use xlink:href="#DejaVuSans-32" transform="translate(1147.087891 0.684375)"/>
      <use xlink:href="#DejaVuSans-22c5" transform="translate(1210.710938 0.684375)"/>
      <use xlink:href="#DejaVuSans-31" transform="translate(1242.498047 0.684375)"/>
      <use xlink:href="#DejaVuSans-30" transform="translate(1306.121094 0.684375)"/>
      <use xlink:href="#DejaVuSans-2212" transform="translate(1370.701172 38.965625)scale(0.7)"/>
      <use xlink:href="#DejaVuSans-34" transform="translate(1429.353516 38.965625)scale(0.7)"/>
      <use xlink:href="#DejaVuSans-5d" transform="translate(1476.624023 0.684375)"/>
     </g>
    </g>
   </g>
  </g>
 </g>
 <defs>
  <clipPath id="pe74bfe69a8">
   <rect x="55.760938" y="10.8" width="394.239062" height="293.64375"/>
  </clipPath>
 </defs>
</svg>
