<?xml version="1.0" encoding="utf-8" standalone="no"?>
<!DOCTYPE svg PUBLIC "-//W3C//DTD SVG 1.1//EN"
  "http://www.w3.org/Graphics/SVG/1.1/DTD/svg11.dtd">
<svg xmlns:xlink="http://www.w3.org/1999/xlink" width="460.8pt" height="345.6pt" viewBox="0 0 460.8 345.6" xmlns="http://www.w3.org/2000/svg" version="1.1">
 <metadata>
  <rdf:RDF xmlns:dc="http://purl.org/dc/elements/1.1/" xmlns:cc="http://creativecommons.org/ns#" xmlns:rdf="http://www.w3.org/1999/02/22-rdf-syntax-ns#">
   <cc:Work>
    <dc:type rdf:resource="http://purl.org/dc/dcmitype/StillImage"/>
    <dc:date>2022-12-11T14:33:53.376008</dc:date>
    <dc:format>image/svg+xml</dc:format>
    <dc:creator>
     <cc:Agent>
      <dc:title>Matplotlib v3.5.3, https://matplotlib.org/</dc:title>
     </cc:Agent>
    </dc:creator>
   </cc:Work>
  </rdf:RDF>
 </metadata>
 <defs>
  <style type="text/css">*{stroke-linejoin: round; stroke-linecap: butt}</style>
 </defs>
 <g id="figure_1">
  <g id="patch_1">
   <path d="M 0 345.6 
L 460.8 345.6 
L 460.8 0 
L 0 0 
z
" style="fill: #ffffff"/>
  </g>
  <g id="axes_1">
   <g id="patch_2">
    <path d="M 73.665312 292.38125 
L 445.68 292.38125 
L 445.68 15.12 
L 73.665312 15.12 
z
" style="fill: #ffffff"/>
   </g>
   <g id="matplotlib.axis_1">
    <g id="xtick_1">
     <g id="line2d_1">
      <defs>
       <path id="m97fbef310a" d="M 0 0 
L 0 3.5 
" style="stroke: #000000; stroke-width: 0.8"/>
      </defs>
      <g>
       <use xlink:href="#m97fbef310a" x="90.575071" y="292.38125" style="stroke: #000000; stroke-width: 0.8"/>
      </g>
     </g>
     <g id="text_1">
      <!-- 0.0 -->
      <g transform="translate(79.442884 310.019062)scale(0.14 -0.14)">
       <defs>
        <path id="DejaVuSans-30" d="M 2034 4250 
Q 1547 4250 1301 3770 
Q 1056 3291 1056 2328 
Q 1056 1369 1301 889 
Q 1547 409 2034 409 
Q 2525 409 2770 889 
Q 3016 1369 3016 2328 
Q 3016 3291 2770 3770 
Q 2525 4250 2034 4250 
z
M 2034 4750 
Q 2819 4750 3233 4129 
Q 3647 3509 3647 2328 
Q 3647 1150 3233 529 
Q 2819 -91 2034 -91 
Q 1250 -91 836 529 
Q 422 1150 422 2328 
Q 422 3509 836 4129 
Q 1250 4750 2034 4750 
z
" transform="scale(0.015625)"/>
        <path id="DejaVuSans-2e" d="M 684 794 
L 1344 794 
L 1344 0 
L 684 0 
L 684 794 
z
" transform="scale(0.015625)"/>
       </defs>
       <use xlink:href="#DejaVuSans-30"/>
       <use xlink:href="#DejaVuSans-2e" x="63.623047"/>
       <use xlink:href="#DejaVuSans-30" x="95.410156"/>
      </g>
     </g>
    </g>
    <g id="xtick_2">
     <g id="line2d_2">
      <g>
       <use xlink:href="#m97fbef310a" x="158.214105" y="292.38125" style="stroke: #000000; stroke-width: 0.8"/>
      </g>
     </g>
     <g id="text_2">
      <!-- 0.2 -->
      <g transform="translate(147.081918 310.019062)scale(0.14 -0.14)">
       <defs>
        <path id="DejaVuSans-32" d="M 1228 531 
L 3431 531 
L 3431 0 
L 469 0 
L 469 531 
Q 828 903 1448 1529 
Q 2069 2156 2228 2338 
Q 2531 2678 2651 2914 
Q 2772 3150 2772 3378 
Q 2772 3750 2511 3984 
Q 2250 4219 1831 4219 
Q 1534 4219 1204 4116 
Q 875 4013 500 3803 
L 500 4441 
Q 881 4594 1212 4672 
Q 1544 4750 1819 4750 
Q 2544 4750 2975 4387 
Q 3406 4025 3406 3419 
Q 3406 3131 3298 2873 
Q 3191 2616 2906 2266 
Q 2828 2175 2409 1742 
Q 1991 1309 1228 531 
z
" transform="scale(0.015625)"/>
       </defs>
       <use xlink:href="#DejaVuSans-30"/>
       <use xlink:href="#DejaVuSans-2e" x="63.623047"/>
       <use xlink:href="#DejaVuSans-32" x="95.410156"/>
      </g>
     </g>
    </g>
    <g id="xtick_3">
     <g id="line2d_3">
      <g>
       <use xlink:href="#m97fbef310a" x="225.853139" y="292.38125" style="stroke: #000000; stroke-width: 0.8"/>
      </g>
     </g>
     <g id="text_3">
      <!-- 0.4 -->
      <g transform="translate(214.720952 310.019062)scale(0.14 -0.14)">
       <defs>
        <path id="DejaVuSans-34" d="M 2419 4116 
L 825 1625 
L 2419 1625 
L 2419 4116 
z
M 2253 4666 
L 3047 4666 
L 3047 1625 
L 3713 1625 
L 3713 1100 
L 3047 1100 
L 3047 0 
L 2419 0 
L 2419 1100 
L 313 1100 
L 313 1709 
L 2253 4666 
z
" transform="scale(0.015625)"/>
       </defs>
       <use xlink:href="#DejaVuSans-30"/>
       <use xlink:href="#DejaVuSans-2e" x="63.623047"/>
       <use xlink:href="#DejaVuSans-34" x="95.410156"/>
      </g>
     </g>
    </g>
    <g id="xtick_4">
     <g id="line2d_4">
      <g>
       <use xlink:href="#m97fbef310a" x="293.492173" y="292.38125" style="stroke: #000000; stroke-width: 0.8"/>
      </g>
     </g>
     <g id="text_4">
      <!-- 0.6 -->
      <g transform="translate(282.359986 310.019062)scale(0.14 -0.14)">
       <defs>
        <path id="DejaVuSans-36" d="M 2113 2584 
Q 1688 2584 1439 2293 
Q 1191 2003 1191 1497 
Q 1191 994 1439 701 
Q 1688 409 2113 409 
Q 2538 409 2786 701 
Q 3034 994 3034 1497 
Q 3034 2003 2786 2293 
Q 2538 2584 2113 2584 
z
M 3366 4563 
L 3366 3988 
Q 3128 4100 2886 4159 
Q 2644 4219 2406 4219 
Q 1781 4219 1451 3797 
Q 1122 3375 1075 2522 
Q 1259 2794 1537 2939 
Q 1816 3084 2150 3084 
Q 2853 3084 3261 2657 
Q 3669 2231 3669 1497 
Q 3669 778 3244 343 
Q 2819 -91 2113 -91 
Q 1303 -91 875 529 
Q 447 1150 447 2328 
Q 447 3434 972 4092 
Q 1497 4750 2381 4750 
Q 2619 4750 2861 4703 
Q 3103 4656 3366 4563 
z
" transform="scale(0.015625)"/>
       </defs>
       <use xlink:href="#DejaVuSans-30"/>
       <use xlink:href="#DejaVuSans-2e" x="63.623047"/>
       <use xlink:href="#DejaVuSans-36" x="95.410156"/>
      </g>
     </g>
    </g>
    <g id="xtick_5">
     <g id="line2d_5">
      <g>
       <use xlink:href="#m97fbef310a" x="361.131207" y="292.38125" style="stroke: #000000; stroke-width: 0.8"/>
      </g>
     </g>
     <g id="text_5">
      <!-- 0.8 -->
      <g transform="translate(349.99902 310.019062)scale(0.14 -0.14)">
       <defs>
        <path id="DejaVuSans-38" d="M 2034 2216 
Q 1584 2216 1326 1975 
Q 1069 1734 1069 1313 
Q 1069 891 1326 650 
Q 1584 409 2034 409 
Q 2484 409 2743 651 
Q 3003 894 3003 1313 
Q 3003 1734 2745 1975 
Q 2488 2216 2034 2216 
z
M 1403 2484 
Q 997 2584 770 2862 
Q 544 3141 544 3541 
Q 544 4100 942 4425 
Q 1341 4750 2034 4750 
Q 2731 4750 3128 4425 
Q 3525 4100 3525 3541 
Q 3525 3141 3298 2862 
Q 3072 2584 2669 2484 
Q 3125 2378 3379 2068 
Q 3634 1759 3634 1313 
Q 3634 634 3220 271 
Q 2806 -91 2034 -91 
Q 1263 -91 848 271 
Q 434 634 434 1313 
Q 434 1759 690 2068 
Q 947 2378 1403 2484 
z
M 1172 3481 
Q 1172 3119 1398 2916 
Q 1625 2713 2034 2713 
Q 2441 2713 2670 2916 
Q 2900 3119 2900 3481 
Q 2900 3844 2670 4047 
Q 2441 4250 2034 4250 
Q 1625 4250 1398 4047 
Q 1172 3844 1172 3481 
z
" transform="scale(0.015625)"/>
       </defs>
       <use xlink:href="#DejaVuSans-30"/>
       <use xlink:href="#DejaVuSans-2e" x="63.623047"/>
       <use xlink:href="#DejaVuSans-38" x="95.410156"/>
      </g>
     </g>
    </g>
    <g id="xtick_6">
     <g id="line2d_6">
      <g>
       <use xlink:href="#m97fbef310a" x="428.770241" y="292.38125" style="stroke: #000000; stroke-width: 0.8"/>
      </g>
     </g>
     <g id="text_6">
      <!-- 1.0 -->
      <g transform="translate(417.638054 310.019062)scale(0.14 -0.14)">
       <defs>
        <path id="DejaVuSans-31" d="M 794 531 
L 1825 531 
L 1825 4091 
L 703 3866 
L 703 4441 
L 1819 4666 
L 2450 4666 
L 2450 531 
L 3481 531 
L 3481 0 
L 794 0 
L 794 531 
z
" transform="scale(0.015625)"/>
       </defs>
       <use xlink:href="#DejaVuSans-31"/>
       <use xlink:href="#DejaVuSans-2e" x="63.623047"/>
       <use xlink:href="#DejaVuSans-30" x="95.410156"/>
      </g>
     </g>
    </g>
    <g id="text_7">
     <!-- x [] -->
     <g transform="translate(247.842656 327.568437)scale(0.14 -0.14)">
      <defs>
       <path id="DejaVuSans-78" d="M 3513 3500 
L 2247 1797 
L 3578 0 
L 2900 0 
L 1881 1375 
L 863 0 
L 184 0 
L 1544 1831 
L 300 3500 
L 978 3500 
L 1906 2253 
L 2834 3500 
L 3513 3500 
z
" transform="scale(0.015625)"/>
       <path id="DejaVuSans-20" transform="scale(0.015625)"/>
       <path id="DejaVuSans-5b" d="M 550 4863 
L 1875 4863 
L 1875 4416 
L 1125 4416 
L 1125 -397 
L 1875 -397 
L 1875 -844 
L 550 -844 
L 550 4863 
z
" transform="scale(0.015625)"/>
       <path id="DejaVuSans-5d" d="M 1947 4863 
L 1947 -844 
L 622 -844 
L 622 -397 
L 1369 -397 
L 1369 4416 
L 622 4416 
L 622 4863 
L 1947 4863 
z
" transform="scale(0.015625)"/>
      </defs>
      <use xlink:href="#DejaVuSans-78"/>
      <use xlink:href="#DejaVuSans-20" x="59.179688"/>
      <use xlink:href="#DejaVuSans-5b" x="90.966797"/>
      <use xlink:href="#DejaVuSans-5d" x="129.980469"/>
     </g>
    </g>
   </g>
   <g id="matplotlib.axis_2">
    <g id="ytick_1">
     <g id="line2d_7">
      <defs>
       <path id="m215d3dcf37" d="M 0 0 
L -3.5 0 
" style="stroke: #000000; stroke-width: 0.8"/>
      </defs>
      <g>
       <use xlink:href="#m215d3dcf37" x="73.665312" y="280.058218" style="stroke: #000000; stroke-width: 0.8"/>
      </g>
     </g>
     <g id="text_8">
      <!-- −1.0 -->
      <g transform="translate(32.669375 285.377124)scale(0.14 -0.14)">
       <defs>
        <path id="DejaVuSans-2212" d="M 678 2272 
L 4684 2272 
L 4684 1741 
L 678 1741 
L 678 2272 
z
" transform="scale(0.015625)"/>
       </defs>
       <use xlink:href="#DejaVuSans-2212"/>
       <use xlink:href="#DejaVuSans-31" x="83.789062"/>
       <use xlink:href="#DejaVuSans-2e" x="147.412109"/>
       <use xlink:href="#DejaVuSans-30" x="179.199219"/>
      </g>
     </g>
    </g>
    <g id="ytick_2">
     <g id="line2d_8">
      <g>
       <use xlink:href="#m215d3dcf37" x="73.665312" y="244.38842" style="stroke: #000000; stroke-width: 0.8"/>
      </g>
     </g>
     <g id="text_9">
      <!-- −0.5 -->
      <g transform="translate(32.669375 249.707327)scale(0.14 -0.14)">
       <defs>
        <path id="DejaVuSans-35" d="M 691 4666 
L 3169 4666 
L 3169 4134 
L 1269 4134 
L 1269 2991 
Q 1406 3038 1543 3061 
Q 1681 3084 1819 3084 
Q 2600 3084 3056 2656 
Q 3513 2228 3513 1497 
Q 3513 744 3044 326 
Q 2575 -91 1722 -91 
Q 1428 -91 1123 -41 
Q 819 9 494 109 
L 494 744 
Q 775 591 1075 516 
Q 1375 441 1709 441 
Q 2250 441 2565 725 
Q 2881 1009 2881 1497 
Q 2881 1984 2565 2268 
Q 2250 2553 1709 2553 
Q 1456 2553 1204 2497 
Q 953 2441 691 2322 
L 691 4666 
z
" transform="scale(0.015625)"/>
       </defs>
       <use xlink:href="#DejaVuSans-2212"/>
       <use xlink:href="#DejaVuSans-30" x="83.789062"/>
       <use xlink:href="#DejaVuSans-2e" x="147.412109"/>
       <use xlink:href="#DejaVuSans-35" x="179.199219"/>
      </g>
     </g>
    </g>
    <g id="ytick_3">
     <g id="line2d_9">
      <g>
       <use xlink:href="#m215d3dcf37" x="73.665312" y="208.718623" style="stroke: #000000; stroke-width: 0.8"/>
      </g>
     </g>
     <g id="text_10">
      <!-- 0.0 -->
      <g transform="translate(44.400937 214.037529)scale(0.14 -0.14)">
       <use xlink:href="#DejaVuSans-30"/>
       <use xlink:href="#DejaVuSans-2e" x="63.623047"/>
       <use xlink:href="#DejaVuSans-30" x="95.410156"/>
      </g>
     </g>
    </g>
    <g id="ytick_4">
     <g id="line2d_10">
      <g>
       <use xlink:href="#m215d3dcf37" x="73.665312" y="173.048825" style="stroke: #000000; stroke-width: 0.8"/>
      </g>
     </g>
     <g id="text_11">
      <!-- 0.5 -->
      <g transform="translate(44.400937 178.367732)scale(0.14 -0.14)">
       <use xlink:href="#DejaVuSans-30"/>
       <use xlink:href="#DejaVuSans-2e" x="63.623047"/>
       <use xlink:href="#DejaVuSans-35" x="95.410156"/>
      </g>
     </g>
    </g>
    <g id="ytick_5">
     <g id="line2d_11">
      <g>
       <use xlink:href="#m215d3dcf37" x="73.665312" y="137.379028" style="stroke: #000000; stroke-width: 0.8"/>
      </g>
     </g>
     <g id="text_12">
      <!-- 1.0 -->
      <g transform="translate(44.400937 142.697934)scale(0.14 -0.14)">
       <use xlink:href="#DejaVuSans-31"/>
       <use xlink:href="#DejaVuSans-2e" x="63.623047"/>
       <use xlink:href="#DejaVuSans-30" x="95.410156"/>
      </g>
     </g>
    </g>
    <g id="ytick_6">
     <g id="line2d_12">
      <g>
       <use xlink:href="#m215d3dcf37" x="73.665312" y="101.709231" style="stroke: #000000; stroke-width: 0.8"/>
      </g>
     </g>
     <g id="text_13">
      <!-- 1.5 -->
      <g transform="translate(44.400937 107.028137)scale(0.14 -0.14)">
       <use xlink:href="#DejaVuSans-31"/>
       <use xlink:href="#DejaVuSans-2e" x="63.623047"/>
       <use xlink:href="#DejaVuSans-35" x="95.410156"/>
      </g>
     </g>
    </g>
    <g id="ytick_7">
     <g id="line2d_13">
      <g>
       <use xlink:href="#m215d3dcf37" x="73.665312" y="66.039433" style="stroke: #000000; stroke-width: 0.8"/>
      </g>
     </g>
     <g id="text_14">
      <!-- 2.0 -->
      <g transform="translate(44.400937 71.358339)scale(0.14 -0.14)">
       <use xlink:href="#DejaVuSans-32"/>
       <use xlink:href="#DejaVuSans-2e" x="63.623047"/>
       <use xlink:href="#DejaVuSans-30" x="95.410156"/>
      </g>
     </g>
    </g>
    <g id="ytick_8">
     <g id="line2d_14">
      <g>
       <use xlink:href="#m215d3dcf37" x="73.665312" y="30.369636" style="stroke: #000000; stroke-width: 0.8"/>
      </g>
     </g>
     <g id="text_15">
      <!-- 2.5 -->
      <g transform="translate(44.400937 35.688542)scale(0.14 -0.14)">
       <use xlink:href="#DejaVuSans-32"/>
       <use xlink:href="#DejaVuSans-2e" x="63.623047"/>
       <use xlink:href="#DejaVuSans-35" x="95.410156"/>
      </g>
     </g>
    </g>
    <g id="text_16">
     <!-- u [] -->
     <g transform="translate(25.757812 165.87375)rotate(-90)scale(0.14 -0.14)">
      <defs>
       <path id="DejaVuSans-75" d="M 544 1381 
L 544 3500 
L 1119 3500 
L 1119 1403 
Q 1119 906 1312 657 
Q 1506 409 1894 409 
Q 2359 409 2629 706 
Q 2900 1003 2900 1516 
L 2900 3500 
L 3475 3500 
L 3475 0 
L 2900 0 
L 2900 538 
Q 2691 219 2414 64 
Q 2138 -91 1772 -91 
Q 1169 -91 856 284 
Q 544 659 544 1381 
z
M 1991 3584 
L 1991 3584 
z
" transform="scale(0.015625)"/>
      </defs>
      <use xlink:href="#DejaVuSans-75"/>
      <use xlink:href="#DejaVuSans-20" x="63.378906"/>
      <use xlink:href="#DejaVuSans-5b" x="95.166016"/>
      <use xlink:href="#DejaVuSans-5d" x="134.179688"/>
     </g>
    </g>
   </g>
   <g id="line2d_15">
    <path d="M 90.575071 208.718623 
L 108.374817 174.996531 
L 126.174563 144.036953 
L 143.974308 116.151446 
L 161.774054 91.634334 
L 179.5738 70.754673 
L 197.373546 53.748921 
L 215.173292 40.81448 
L 232.973038 32.104316 
L 250.772783 27.722784 
L 268.572529 27.722784 
L 286.372275 32.104316 
L 304.172021 40.81448 
L 321.971767 53.748921 
L 339.771512 70.754673 
L 357.571258 91.634334 
L 375.371004 116.151446 
L 393.17075 144.036953 
L 410.970496 174.996531 
L 428.770241 208.718623 
" clip-path="url(#pfd391369cb)" style="fill: none; stroke: #1f77b4; stroke-width: 1.5; stroke-linecap: square"/>
    <defs>
     <path id="m307fc42ee2" d="M 0 1.5 
C 0.397805 1.5 0.77937 1.341951 1.06066 1.06066 
C 1.341951 0.77937 1.5 0.397805 1.5 0 
C 1.5 -0.397805 1.341951 -0.77937 1.06066 -1.06066 
C 0.77937 -1.341951 0.397805 -1.5 0 -1.5 
C -0.397805 -1.5 -0.77937 -1.341951 -1.06066 -1.06066 
C -1.341951 -0.77937 -1.5 -0.397805 -1.5 0 
C -1.5 0.397805 -1.341951 0.77937 -1.06066 1.06066 
C -0.77937 1.341951 -0.397805 1.5 0 1.5 
z
" style="stroke: #1f77b4"/>
    </defs>
    <g clip-path="url(#pfd391369cb)">
     <use xlink:href="#m307fc42ee2" x="90.575071" y="208.718623" style="fill: #1f77b4; stroke: #1f77b4"/>
     <use xlink:href="#m307fc42ee2" x="108.374817" y="174.996531" style="fill: #1f77b4; stroke: #1f77b4"/>
     <use xlink:href="#m307fc42ee2" x="126.174563" y="144.036953" style="fill: #1f77b4; stroke: #1f77b4"/>
     <use xlink:href="#m307fc42ee2" x="143.974308" y="116.151446" style="fill: #1f77b4; stroke: #1f77b4"/>
     <use xlink:href="#m307fc42ee2" x="161.774054" y="91.634334" style="fill: #1f77b4; stroke: #1f77b4"/>
     <use xlink:href="#m307fc42ee2" x="179.5738" y="70.754673" style="fill: #1f77b4; stroke: #1f77b4"/>
     <use xlink:href="#m307fc42ee2" x="197.373546" y="53.748921" style="fill: #1f77b4; stroke: #1f77b4"/>
     <use xlink:href="#m307fc42ee2" x="215.173292" y="40.81448" style="fill: #1f77b4; stroke: #1f77b4"/>
     <use xlink:href="#m307fc42ee2" x="232.973038" y="32.104316" style="fill: #1f77b4; stroke: #1f77b4"/>
     <use xlink:href="#m307fc42ee2" x="250.772783" y="27.722784" style="fill: #1f77b4; stroke: #1f77b4"/>
     <use xlink:href="#m307fc42ee2" x="268.572529" y="27.722784" style="fill: #1f77b4; stroke: #1f77b4"/>
     <use xlink:href="#m307fc42ee2" x="286.372275" y="32.104316" style="fill: #1f77b4; stroke: #1f77b4"/>
     <use xlink:href="#m307fc42ee2" x="304.172021" y="40.81448" style="fill: #1f77b4; stroke: #1f77b4"/>
     <use xlink:href="#m307fc42ee2" x="321.971767" y="53.748921" style="fill: #1f77b4; stroke: #1f77b4"/>
     <use xlink:href="#m307fc42ee2" x="339.771512" y="70.754673" style="fill: #1f77b4; stroke: #1f77b4"/>
     <use xlink:href="#m307fc42ee2" x="357.571258" y="91.634334" style="fill: #1f77b4; stroke: #1f77b4"/>
     <use xlink:href="#m307fc42ee2" x="375.371004" y="116.151446" style="fill: #1f77b4; stroke: #1f77b4"/>
     <use xlink:href="#m307fc42ee2" x="393.17075" y="144.036953" style="fill: #1f77b4; stroke: #1f77b4"/>
     <use xlink:href="#m307fc42ee2" x="410.970496" y="174.996531" style="fill: #1f77b4; stroke: #1f77b4"/>
     <use xlink:href="#m307fc42ee2" x="428.770241" y="208.718623" style="fill: #1f77b4; stroke: #1f77b4"/>
    </g>
   </g>
   <g id="line2d_16">
    <path d="M 90.575071 208.718623 
L 108.374817 205.289301 
L 126.174563 201.25663 
L 143.974308 196.932167 
L 161.774054 192.610235 
L 179.5738 188.559891 
L 197.373546 185.017593 
L 215.173292 182.180742 
L 232.973038 180.202304 
L 250.772783 179.186636 
L 268.572529 179.186636 
L 286.372275 180.202304 
L 304.172021 182.180742 
L 321.971767 185.017593 
L 339.771512 188.559891 
L 357.571258 192.610235 
L 375.371004 196.932167 
L 393.17075 201.25663 
L 410.970496 205.289301 
L 428.770241 208.718623 
" clip-path="url(#pfd391369cb)" style="fill: none; stroke: #ff7f0e; stroke-width: 1.5; stroke-linecap: square"/>
    <defs>
     <path id="ma69c85a1b2" d="M 0 1.5 
C 0.397805 1.5 0.77937 1.341951 1.06066 1.06066 
C 1.341951 0.77937 1.5 0.397805 1.5 0 
C 1.5 -0.397805 1.341951 -0.77937 1.06066 -1.06066 
C 0.77937 -1.341951 0.397805 -1.5 0 -1.5 
C -0.397805 -1.5 -0.77937 -1.341951 -1.06066 -1.06066 
C -1.341951 -0.77937 -1.5 -0.397805 -1.5 0 
C -1.5 0.397805 -1.341951 0.77937 -1.06066 1.06066 
C -0.77937 1.341951 -0.397805 1.5 0 1.5 
z
" style="stroke: #ff7f0e"/>
    </defs>
    <g clip-path="url(#pfd391369cb)">
     <use xlink:href="#ma69c85a1b2" x="90.575071" y="208.718623" style="fill: #ff7f0e; stroke: #ff7f0e"/>
     <use xlink:href="#ma69c85a1b2" x="108.374817" y="205.289301" style="fill: #ff7f0e; stroke: #ff7f0e"/>
     <use xlink:href="#ma69c85a1b2" x="126.174563" y="201.25663" style="fill: #ff7f0e; stroke: #ff7f0e"/>
     <use xlink:href="#ma69c85a1b2" x="143.974308" y="196.932167" style="fill: #ff7f0e; stroke: #ff7f0e"/>
     <use xlink:href="#ma69c85a1b2" x="161.774054" y="192.610235" style="fill: #ff7f0e; stroke: #ff7f0e"/>
     <use xlink:href="#ma69c85a1b2" x="179.5738" y="188.559891" style="fill: #ff7f0e; stroke: #ff7f0e"/>
     <use xlink:href="#ma69c85a1b2" x="197.373546" y="185.017593" style="fill: #ff7f0e; stroke: #ff7f0e"/>
     <use xlink:href="#ma69c85a1b2" x="215.173292" y="182.180742" style="fill: #ff7f0e; stroke: #ff7f0e"/>
     <use xlink:href="#ma69c85a1b2" x="232.973038" y="180.202304" style="fill: #ff7f0e; stroke: #ff7f0e"/>
     <use xlink:href="#ma69c85a1b2" x="250.772783" y="179.186636" style="fill: #ff7f0e; stroke: #ff7f0e"/>
     <use xlink:href="#ma69c85a1b2" x="268.572529" y="179.186636" style="fill: #ff7f0e; stroke: #ff7f0e"/>
     <use xlink:href="#ma69c85a1b2" x="286.372275" y="180.202304" style="fill: #ff7f0e; stroke: #ff7f0e"/>
     <use xlink:href="#ma69c85a1b2" x="304.172021" y="182.180742" style="fill: #ff7f0e; stroke: #ff7f0e"/>
     <use xlink:href="#ma69c85a1b2" x="321.971767" y="185.017593" style="fill: #ff7f0e; stroke: #ff7f0e"/>
     <use xlink:href="#ma69c85a1b2" x="339.771512" y="188.559891" style="fill: #ff7f0e; stroke: #ff7f0e"/>
     <use xlink:href="#ma69c85a1b2" x="357.571258" y="192.610235" style="fill: #ff7f0e; stroke: #ff7f0e"/>
     <use xlink:href="#ma69c85a1b2" x="375.371004" y="196.932167" style="fill: #ff7f0e; stroke: #ff7f0e"/>
     <use xlink:href="#ma69c85a1b2" x="393.17075" y="201.25663" style="fill: #ff7f0e; stroke: #ff7f0e"/>
     <use xlink:href="#ma69c85a1b2" x="410.970496" y="205.289301" style="fill: #ff7f0e; stroke: #ff7f0e"/>
     <use xlink:href="#ma69c85a1b2" x="428.770241" y="208.718623" style="fill: #ff7f0e; stroke: #ff7f0e"/>
    </g>
   </g>
   <g id="line2d_17">
    <path d="M 90.575071 208.718623 
L 108.374817 225.407667 
L 126.174563 239.257988 
L 143.974308 250.581143 
L 161.774054 259.671455 
L 179.5738 266.797982 
L 197.373546 272.197179 
L 215.173292 276.06645 
L 232.973038 278.55876 
L 250.772783 279.778466 
L 268.572529 279.778466 
L 286.372275 278.55876 
L 304.172021 276.06645 
L 321.971767 272.197179 
L 339.771512 266.797982 
L 357.571258 259.671455 
L 375.371004 250.581143 
L 393.17075 239.257988 
L 410.970496 225.407667 
L 428.770241 208.718623 
" clip-path="url(#pfd391369cb)" style="fill: none; stroke: #2ca02c; stroke-width: 1.5; stroke-linecap: square"/>
    <defs>
     <path id="mcb666d3a07" d="M 0 1.5 
C 0.397805 1.5 0.77937 1.341951 1.06066 1.06066 
C 1.341951 0.77937 1.5 0.397805 1.5 0 
C 1.5 -0.397805 1.341951 -0.77937 1.06066 -1.06066 
C 0.77937 -1.341951 0.397805 -1.5 0 -1.5 
C -0.397805 -1.5 -0.77937 -1.341951 -1.06066 -1.06066 
C -1.341951 -0.77937 -1.5 -0.397805 -1.5 0 
C -1.5 0.397805 -1.341951 0.77937 -1.06066 1.06066 
C -0.77937 1.341951 -0.397805 1.5 0 1.5 
z
" style="stroke: #2ca02c"/>
    </defs>
    <g clip-path="url(#pfd391369cb)">
     <use xlink:href="#mcb666d3a07" x="90.575071" y="208.718623" style="fill: #2ca02c; stroke: #2ca02c"/>
     <use xlink:href="#mcb666d3a07" x="108.374817" y="225.407667" style="fill: #2ca02c; stroke: #2ca02c"/>
     <use xlink:href="#mcb666d3a07" x="126.174563" y="239.257988" style="fill: #2ca02c; stroke: #2ca02c"/>
     <use xlink:href="#mcb666d3a07" x="143.974308" y="250.581143" style="fill: #2ca02c; stroke: #2ca02c"/>
     <use xlink:href="#mcb666d3a07" x="161.774054" y="259.671455" style="fill: #2ca02c; stroke: #2ca02c"/>
     <use xlink:href="#mcb666d3a07" x="179.5738" y="266.797982" style="fill: #2ca02c; stroke: #2ca02c"/>
     <use xlink:href="#mcb666d3a07" x="197.373546" y="272.197179" style="fill: #2ca02c; stroke: #2ca02c"/>
     <use xlink:href="#mcb666d3a07" x="215.173292" y="276.06645" style="fill: #2ca02c; stroke: #2ca02c"/>
     <use xlink:href="#mcb666d3a07" x="232.973038" y="278.55876" style="fill: #2ca02c; stroke: #2ca02c"/>
     <use xlink:href="#mcb666d3a07" x="250.772783" y="279.778466" style="fill: #2ca02c; stroke: #2ca02c"/>
     <use xlink:href="#mcb666d3a07" x="268.572529" y="279.778466" style="fill: #2ca02c; stroke: #2ca02c"/>
     <use xlink:href="#mcb666d3a07" x="286.372275" y="278.55876" style="fill: #2ca02c; stroke: #2ca02c"/>
     <use xlink:href="#mcb666d3a07" x="304.172021" y="276.06645" style="fill: #2ca02c; stroke: #2ca02c"/>
     <use xlink:href="#mcb666d3a07" x="321.971767" y="272.197179" style="fill: #2ca02c; stroke: #2ca02c"/>
     <use xlink:href="#mcb666d3a07" x="339.771512" y="266.797982" style="fill: #2ca02c; stroke: #2ca02c"/>
     <use xlink:href="#mcb666d3a07" x="357.571258" y="259.671455" style="fill: #2ca02c; stroke: #2ca02c"/>
     <use xlink:href="#mcb666d3a07" x="375.371004" y="250.581143" style="fill: #2ca02c; stroke: #2ca02c"/>
     <use xlink:href="#mcb666d3a07" x="393.17075" y="239.257988" style="fill: #2ca02c; stroke: #2ca02c"/>
     <use xlink:href="#mcb666d3a07" x="410.970496" y="225.407667" style="fill: #2ca02c; stroke: #2ca02c"/>
     <use xlink:href="#mcb666d3a07" x="428.770241" y="208.718623" style="fill: #2ca02c; stroke: #2ca02c"/>
    </g>
   </g>
   <g id="line2d_18">
    <path d="M 90.575071 208.718623 
L 108.374817 224.98833 
L 126.174563 238.465906 
L 143.974308 249.46291 
L 161.774054 258.273664 
L 179.5738 265.167225 
L 197.373546 270.380051 
L 215.173292 274.109543 
L 232.973038 276.508667 
L 250.772783 277.681779 
L 268.572529 277.681779 
L 286.372275 276.508667 
L 304.172021 274.109543 
L 321.971767 270.380051 
L 339.771512 265.167225 
L 357.571258 258.273664 
L 375.371004 249.46291 
L 393.17075 238.465906 
L 410.970496 224.98833 
L 428.770241 208.718623 
" clip-path="url(#pfd391369cb)" style="fill: none; stroke: #d62728; stroke-width: 1.5; stroke-linecap: square"/>
    <defs>
     <path id="m04617366d1" d="M 0 1.5 
C 0.397805 1.5 0.77937 1.341951 1.06066 1.06066 
C 1.341951 0.77937 1.5 0.397805 1.5 0 
C 1.5 -0.397805 1.341951 -0.77937 1.06066 -1.06066 
C 0.77937 -1.341951 0.397805 -1.5 0 -1.5 
C -0.397805 -1.5 -0.77937 -1.341951 -1.06066 -1.06066 
C -1.341951 -0.77937 -1.5 -0.397805 -1.5 0 
C -1.5 0.397805 -1.341951 0.77937 -1.06066 1.06066 
C -0.77937 1.341951 -0.397805 1.5 0 1.5 
z
" style="stroke: #d62728"/>
    </defs>
    <g clip-path="url(#pfd391369cb)">
     <use xlink:href="#m04617366d1" x="90.575071" y="208.718623" style="fill: #d62728; stroke: #d62728"/>
     <use xlink:href="#m04617366d1" x="108.374817" y="224.98833" style="fill: #d62728; stroke: #d62728"/>
     <use xlink:href="#m04617366d1" x="126.174563" y="238.465906" style="fill: #d62728; stroke: #d62728"/>
     <use xlink:href="#m04617366d1" x="143.974308" y="249.46291" style="fill: #d62728; stroke: #d62728"/>
     <use xlink:href="#m04617366d1" x="161.774054" y="258.273664" style="fill: #d62728; stroke: #d62728"/>
     <use xlink:href="#m04617366d1" x="179.5738" y="265.167225" style="fill: #d62728; stroke: #d62728"/>
     <use xlink:href="#m04617366d1" x="197.373546" y="270.380051" style="fill: #d62728; stroke: #d62728"/>
     <use xlink:href="#m04617366d1" x="215.173292" y="274.109543" style="fill: #d62728; stroke: #d62728"/>
     <use xlink:href="#m04617366d1" x="232.973038" y="276.508667" style="fill: #d62728; stroke: #d62728"/>
     <use xlink:href="#m04617366d1" x="250.772783" y="277.681779" style="fill: #d62728; stroke: #d62728"/>
     <use xlink:href="#m04617366d1" x="268.572529" y="277.681779" style="fill: #d62728; stroke: #d62728"/>
     <use xlink:href="#m04617366d1" x="286.372275" y="276.508667" style="fill: #d62728; stroke: #d62728"/>
     <use xlink:href="#m04617366d1" x="304.172021" y="274.109543" style="fill: #d62728; stroke: #d62728"/>
     <use xlink:href="#m04617366d1" x="321.971767" y="270.380051" style="fill: #d62728; stroke: #d62728"/>
     <use xlink:href="#m04617366d1" x="339.771512" y="265.167225" style="fill: #d62728; stroke: #d62728"/>
     <use xlink:href="#m04617366d1" x="357.571258" y="258.273664" style="fill: #d62728; stroke: #d62728"/>
     <use xlink:href="#m04617366d1" x="375.371004" y="249.46291" style="fill: #d62728; stroke: #d62728"/>
     <use xlink:href="#m04617366d1" x="393.17075" y="238.465906" style="fill: #d62728; stroke: #d62728"/>
     <use xlink:href="#m04617366d1" x="410.970496" y="224.98833" style="fill: #d62728; stroke: #d62728"/>
     <use xlink:href="#m04617366d1" x="428.770241" y="208.718623" style="fill: #d62728; stroke: #d62728"/>
    </g>
   </g>
   <g id="line2d_19">
    <path d="M 90.575071 208.718623 
L 108.374817 202.384817 
L 126.174563 195.770383 
L 143.974308 189.186877 
L 161.774054 182.928622 
L 179.5738 177.264676 
L 197.373546 172.431496 
L 215.173292 168.626484 
L 232.973038 166.002605 
L 250.772783 164.664216 
L 268.572529 164.664216 
L 286.372275 166.002605 
L 304.172021 168.626484 
L 321.971767 172.431496 
L 339.771512 177.264676 
L 357.571258 182.928622 
L 375.371004 189.186877 
L 393.17075 195.770383 
L 410.970496 202.384817 
L 428.770241 208.718623 
" clip-path="url(#pfd391369cb)" style="fill: none; stroke: #9467bd; stroke-width: 1.5; stroke-linecap: square"/>
    <defs>
     <path id="m1600e3e4bb" d="M 0 1.5 
C 0.397805 1.5 0.77937 1.341951 1.06066 1.06066 
C 1.341951 0.77937 1.5 0.397805 1.5 0 
C 1.5 -0.397805 1.341951 -0.77937 1.06066 -1.06066 
C 0.77937 -1.341951 0.397805 -1.5 0 -1.5 
C -0.397805 -1.5 -0.77937 -1.341951 -1.06066 -1.06066 
C -1.341951 -0.77937 -1.5 -0.397805 -1.5 0 
C -1.5 0.397805 -1.341951 0.77937 -1.06066 1.06066 
C -0.77937 1.341951 -0.397805 1.5 0 1.5 
z
" style="stroke: #9467bd"/>
    </defs>
    <g clip-path="url(#pfd391369cb)">
     <use xlink:href="#m1600e3e4bb" x="90.575071" y="208.718623" style="fill: #9467bd; stroke: #9467bd"/>
     <use xlink:href="#m1600e3e4bb" x="108.374817" y="202.384817" style="fill: #9467bd; stroke: #9467bd"/>
     <use xlink:href="#m1600e3e4bb" x="126.174563" y="195.770383" style="fill: #9467bd; stroke: #9467bd"/>
     <use xlink:href="#m1600e3e4bb" x="143.974308" y="189.186877" style="fill: #9467bd; stroke: #9467bd"/>
     <use xlink:href="#m1600e3e4bb" x="161.774054" y="182.928622" style="fill: #9467bd; stroke: #9467bd"/>
     <use xlink:href="#m1600e3e4bb" x="179.5738" y="177.264676" style="fill: #9467bd; stroke: #9467bd"/>
     <use xlink:href="#m1600e3e4bb" x="197.373546" y="172.431496" style="fill: #9467bd; stroke: #9467bd"/>
     <use xlink:href="#m1600e3e4bb" x="215.173292" y="168.626484" style="fill: #9467bd; stroke: #9467bd"/>
     <use xlink:href="#m1600e3e4bb" x="232.973038" y="166.002605" style="fill: #9467bd; stroke: #9467bd"/>
     <use xlink:href="#m1600e3e4bb" x="250.772783" y="164.664216" style="fill: #9467bd; stroke: #9467bd"/>
     <use xlink:href="#m1600e3e4bb" x="268.572529" y="164.664216" style="fill: #9467bd; stroke: #9467bd"/>
     <use xlink:href="#m1600e3e4bb" x="286.372275" y="166.002605" style="fill: #9467bd; stroke: #9467bd"/>
     <use xlink:href="#m1600e3e4bb" x="304.172021" y="168.626484" style="fill: #9467bd; stroke: #9467bd"/>
     <use xlink:href="#m1600e3e4bb" x="321.971767" y="172.431496" style="fill: #9467bd; stroke: #9467bd"/>
     <use xlink:href="#m1600e3e4bb" x="339.771512" y="177.264676" style="fill: #9467bd; stroke: #9467bd"/>
     <use xlink:href="#m1600e3e4bb" x="357.571258" y="182.928622" style="fill: #9467bd; stroke: #9467bd"/>
     <use xlink:href="#m1600e3e4bb" x="375.371004" y="189.186877" style="fill: #9467bd; stroke: #9467bd"/>
     <use xlink:href="#m1600e3e4bb" x="393.17075" y="195.770383" style="fill: #9467bd; stroke: #9467bd"/>
     <use xlink:href="#m1600e3e4bb" x="410.970496" y="202.384817" style="fill: #9467bd; stroke: #9467bd"/>
     <use xlink:href="#m1600e3e4bb" x="428.770241" y="208.718623" style="fill: #9467bd; stroke: #9467bd"/>
    </g>
   </g>
   <g id="line2d_20">
    <path d="M 90.575071 208.718623 
L 108.374817 213.150829 
L 126.174563 216.106182 
L 143.974308 217.896241 
L 161.774054 218.815328 
L 179.5738 219.1325 
L 197.373546 219.084213 
L 215.173292 218.867872 
L 232.973038 218.63644 
L 250.772783 218.494275 
L 268.572529 218.494275 
L 286.372275 218.63644 
L 304.172021 218.867872 
L 321.971767 219.084213 
L 339.771512 219.1325 
L 357.571258 218.815328 
L 375.371004 217.896241 
L 393.17075 216.106182 
L 410.970496 213.150829 
L 428.770241 208.718623 
" clip-path="url(#pfd391369cb)" style="fill: none; stroke: #8c564b; stroke-width: 1.5; stroke-linecap: square"/>
    <defs>
     <path id="md71c200743" d="M 0 1.5 
C 0.397805 1.5 0.77937 1.341951 1.06066 1.06066 
C 1.341951 0.77937 1.5 0.397805 1.5 0 
C 1.5 -0.397805 1.341951 -0.77937 1.06066 -1.06066 
C 0.77937 -1.341951 0.397805 -1.5 0 -1.5 
C -0.397805 -1.5 -0.77937 -1.341951 -1.06066 -1.06066 
C -1.341951 -0.77937 -1.5 -0.397805 -1.5 0 
C -1.5 0.397805 -1.341951 0.77937 -1.06066 1.06066 
C -0.77937 1.341951 -0.397805 1.5 0 1.5 
z
" style="stroke: #8c564b"/>
    </defs>
    <g clip-path="url(#pfd391369cb)">
     <use xlink:href="#md71c200743" x="90.575071" y="208.718623" style="fill: #8c564b; stroke: #8c564b"/>
     <use xlink:href="#md71c200743" x="108.374817" y="213.150829" style="fill: #8c564b; stroke: #8c564b"/>
     <use xlink:href="#md71c200743" x="126.174563" y="216.106182" style="fill: #8c564b; stroke: #8c564b"/>
     <use xlink:href="#md71c200743" x="143.974308" y="217.896241" style="fill: #8c564b; stroke: #8c564b"/>
     <use xlink:href="#md71c200743" x="161.774054" y="218.815328" style="fill: #8c564b; stroke: #8c564b"/>
     <use xlink:href="#md71c200743" x="179.5738" y="219.1325" style="fill: #8c564b; stroke: #8c564b"/>
     <use xlink:href="#md71c200743" x="197.373546" y="219.084213" style="fill: #8c564b; stroke: #8c564b"/>
     <use xlink:href="#md71c200743" x="215.173292" y="218.867872" style="fill: #8c564b; stroke: #8c564b"/>
     <use xlink:href="#md71c200743" x="232.973038" y="218.63644" style="fill: #8c564b; stroke: #8c564b"/>
     <use xlink:href="#md71c200743" x="250.772783" y="218.494275" style="fill: #8c564b; stroke: #8c564b"/>
     <use xlink:href="#md71c200743" x="268.572529" y="218.494275" style="fill: #8c564b; stroke: #8c564b"/>
     <use xlink:href="#md71c200743" x="286.372275" y="218.63644" style="fill: #8c564b; stroke: #8c564b"/>
     <use xlink:href="#md71c200743" x="304.172021" y="218.867872" style="fill: #8c564b; stroke: #8c564b"/>
     <use xlink:href="#md71c200743" x="321.971767" y="219.084213" style="fill: #8c564b; stroke: #8c564b"/>
     <use xlink:href="#md71c200743" x="339.771512" y="219.1325" style="fill: #8c564b; stroke: #8c564b"/>
     <use xlink:href="#md71c200743" x="357.571258" y="218.815328" style="fill: #8c564b; stroke: #8c564b"/>
     <use xlink:href="#md71c200743" x="375.371004" y="217.896241" style="fill: #8c564b; stroke: #8c564b"/>
     <use xlink:href="#md71c200743" x="393.17075" y="216.106182" style="fill: #8c564b; stroke: #8c564b"/>
     <use xlink:href="#md71c200743" x="410.970496" y="213.150829" style="fill: #8c564b; stroke: #8c564b"/>
     <use xlink:href="#md71c200743" x="428.770241" y="208.718623" style="fill: #8c564b; stroke: #8c564b"/>
    </g>
   </g>
   <g id="line2d_21">
    <path d="M 90.575071 208.718623 
L 108.374817 208.601202 
L 126.174563 208.486984 
L 143.974308 208.379084 
L 161.774054 208.280446 
L 179.5738 208.193761 
L 197.373546 208.121392 
L 215.173292 208.065314 
L 232.973038 208.027057 
L 250.772783 208.007664 
L 268.572529 208.007664 
L 286.372275 208.027057 
L 304.172021 208.065314 
L 321.971767 208.121392 
L 339.771512 208.193761 
L 357.571258 208.280446 
L 375.371004 208.379084 
L 393.17075 208.486984 
L 410.970496 208.601202 
L 428.770241 208.718623 
" clip-path="url(#pfd391369cb)" style="fill: none; stroke-dasharray: 5.55,2.4; stroke-dashoffset: 0; stroke: #000000; stroke-width: 1.5"/>
   </g>
   <g id="patch_3">
    <path d="M 73.665312 292.38125 
L 73.665312 15.12 
" style="fill: none; stroke: #000000; stroke-width: 0.8; stroke-linejoin: miter; stroke-linecap: square"/>
   </g>
   <g id="patch_4">
    <path d="M 445.68 292.38125 
L 445.68 15.12 
" style="fill: none; stroke: #000000; stroke-width: 0.8; stroke-linejoin: miter; stroke-linecap: square"/>
   </g>
   <g id="patch_5">
    <path d="M 73.665312 292.38125 
L 445.68 292.38125 
" style="fill: none; stroke: #000000; stroke-width: 0.8; stroke-linejoin: miter; stroke-linecap: square"/>
   </g>
   <g id="patch_6">
    <path d="M 73.665312 15.12 
L 445.68 15.12 
" style="fill: none; stroke: #000000; stroke-width: 0.8; stroke-linejoin: miter; stroke-linecap: square"/>
   </g>
   <g id="legend_1">
    <g id="patch_7">
     <path d="M 308.025 170.165625 
L 435.88 170.165625 
Q 438.68 170.165625 438.68 167.365625 
L 438.68 24.92 
Q 438.68 22.12 435.88 22.12 
L 308.025 22.12 
Q 305.225 22.12 305.225 24.92 
L 305.225 167.365625 
Q 305.225 170.165625 308.025 170.165625 
z
" style="fill: #ffffff; opacity: 0.8; stroke: #cccccc; stroke-linejoin: miter"/>
    </g>
    <g id="line2d_22">
     <path d="M 310.825 33.457812 
L 324.825 33.457812 
L 338.825 33.457812 
" style="fill: none; stroke: #1f77b4; stroke-width: 1.5; stroke-linecap: square"/>
     <g>
      <use xlink:href="#m307fc42ee2" x="324.825" y="33.457812" style="fill: #1f77b4; stroke: #1f77b4"/>
     </g>
    </g>
    <g id="text_17">
     <!-- degree=5.0 -->
     <g transform="translate(350.025 38.357812)scale(0.14 -0.14)">
      <defs>
       <path id="DejaVuSans-64" d="M 2906 2969 
L 2906 4863 
L 3481 4863 
L 3481 0 
L 2906 0 
L 2906 525 
Q 2725 213 2448 61 
Q 2172 -91 1784 -91 
Q 1150 -91 751 415 
Q 353 922 353 1747 
Q 353 2572 751 3078 
Q 1150 3584 1784 3584 
Q 2172 3584 2448 3432 
Q 2725 3281 2906 2969 
z
M 947 1747 
Q 947 1113 1208 752 
Q 1469 391 1925 391 
Q 2381 391 2643 752 
Q 2906 1113 2906 1747 
Q 2906 2381 2643 2742 
Q 2381 3103 1925 3103 
Q 1469 3103 1208 2742 
Q 947 2381 947 1747 
z
" transform="scale(0.015625)"/>
       <path id="DejaVuSans-65" d="M 3597 1894 
L 3597 1613 
L 953 1613 
Q 991 1019 1311 708 
Q 1631 397 2203 397 
Q 2534 397 2845 478 
Q 3156 559 3463 722 
L 3463 178 
Q 3153 47 2828 -22 
Q 2503 -91 2169 -91 
Q 1331 -91 842 396 
Q 353 884 353 1716 
Q 353 2575 817 3079 
Q 1281 3584 2069 3584 
Q 2775 3584 3186 3129 
Q 3597 2675 3597 1894 
z
M 3022 2063 
Q 3016 2534 2758 2815 
Q 2500 3097 2075 3097 
Q 1594 3097 1305 2825 
Q 1016 2553 972 2059 
L 3022 2063 
z
" transform="scale(0.015625)"/>
       <path id="DejaVuSans-67" d="M 2906 1791 
Q 2906 2416 2648 2759 
Q 2391 3103 1925 3103 
Q 1463 3103 1205 2759 
Q 947 2416 947 1791 
Q 947 1169 1205 825 
Q 1463 481 1925 481 
Q 2391 481 2648 825 
Q 2906 1169 2906 1791 
z
M 3481 434 
Q 3481 -459 3084 -895 
Q 2688 -1331 1869 -1331 
Q 1566 -1331 1297 -1286 
Q 1028 -1241 775 -1147 
L 775 -588 
Q 1028 -725 1275 -790 
Q 1522 -856 1778 -856 
Q 2344 -856 2625 -561 
Q 2906 -266 2906 331 
L 2906 616 
Q 2728 306 2450 153 
Q 2172 0 1784 0 
Q 1141 0 747 490 
Q 353 981 353 1791 
Q 353 2603 747 3093 
Q 1141 3584 1784 3584 
Q 2172 3584 2450 3431 
Q 2728 3278 2906 2969 
L 2906 3500 
L 3481 3500 
L 3481 434 
z
" transform="scale(0.015625)"/>
       <path id="DejaVuSans-72" d="M 2631 2963 
Q 2534 3019 2420 3045 
Q 2306 3072 2169 3072 
Q 1681 3072 1420 2755 
Q 1159 2438 1159 1844 
L 1159 0 
L 581 0 
L 581 3500 
L 1159 3500 
L 1159 2956 
Q 1341 3275 1631 3429 
Q 1922 3584 2338 3584 
Q 2397 3584 2469 3576 
Q 2541 3569 2628 3553 
L 2631 2963 
z
" transform="scale(0.015625)"/>
       <path id="DejaVuSans-3d" d="M 678 2906 
L 4684 2906 
L 4684 2381 
L 678 2381 
L 678 2906 
z
M 678 1631 
L 4684 1631 
L 4684 1100 
L 678 1100 
L 678 1631 
z
" transform="scale(0.015625)"/>
      </defs>
      <use xlink:href="#DejaVuSans-64"/>
      <use xlink:href="#DejaVuSans-65" x="63.476562"/>
      <use xlink:href="#DejaVuSans-67" x="125"/>
      <use xlink:href="#DejaVuSans-72" x="188.476562"/>
      <use xlink:href="#DejaVuSans-65" x="227.339844"/>
      <use xlink:href="#DejaVuSans-65" x="288.863281"/>
      <use xlink:href="#DejaVuSans-3d" x="350.386719"/>
      <use xlink:href="#DejaVuSans-35" x="434.175781"/>
      <use xlink:href="#DejaVuSans-2e" x="497.798828"/>
      <use xlink:href="#DejaVuSans-30" x="529.585938"/>
     </g>
    </g>
    <g id="line2d_23">
     <path d="M 310.825 54.007187 
L 324.825 54.007187 
L 338.825 54.007187 
" style="fill: none; stroke: #ff7f0e; stroke-width: 1.5; stroke-linecap: square"/>
     <g>
      <use xlink:href="#ma69c85a1b2" x="324.825" y="54.007187" style="fill: #ff7f0e; stroke: #ff7f0e"/>
     </g>
    </g>
    <g id="text_18">
     <!-- degree=4.0 -->
     <g transform="translate(350.025 58.907187)scale(0.14 -0.14)">
      <use xlink:href="#DejaVuSans-64"/>
      <use xlink:href="#DejaVuSans-65" x="63.476562"/>
      <use xlink:href="#DejaVuSans-67" x="125"/>
      <use xlink:href="#DejaVuSans-72" x="188.476562"/>
      <use xlink:href="#DejaVuSans-65" x="227.339844"/>
      <use xlink:href="#DejaVuSans-65" x="288.863281"/>
      <use xlink:href="#DejaVuSans-3d" x="350.386719"/>
      <use xlink:href="#DejaVuSans-34" x="434.175781"/>
      <use xlink:href="#DejaVuSans-2e" x="497.798828"/>
      <use xlink:href="#DejaVuSans-30" x="529.585938"/>
     </g>
    </g>
    <g id="line2d_24">
     <path d="M 310.825 74.556562 
L 324.825 74.556562 
L 338.825 74.556562 
" style="fill: none; stroke: #2ca02c; stroke-width: 1.5; stroke-linecap: square"/>
     <g>
      <use xlink:href="#mcb666d3a07" x="324.825" y="74.556562" style="fill: #2ca02c; stroke: #2ca02c"/>
     </g>
    </g>
    <g id="text_19">
     <!-- degree=3.0 -->
     <g transform="translate(350.025 79.456562)scale(0.14 -0.14)">
      <defs>
       <path id="DejaVuSans-33" d="M 2597 2516 
Q 3050 2419 3304 2112 
Q 3559 1806 3559 1356 
Q 3559 666 3084 287 
Q 2609 -91 1734 -91 
Q 1441 -91 1130 -33 
Q 819 25 488 141 
L 488 750 
Q 750 597 1062 519 
Q 1375 441 1716 441 
Q 2309 441 2620 675 
Q 2931 909 2931 1356 
Q 2931 1769 2642 2001 
Q 2353 2234 1838 2234 
L 1294 2234 
L 1294 2753 
L 1863 2753 
Q 2328 2753 2575 2939 
Q 2822 3125 2822 3475 
Q 2822 3834 2567 4026 
Q 2313 4219 1838 4219 
Q 1578 4219 1281 4162 
Q 984 4106 628 3988 
L 628 4550 
Q 988 4650 1302 4700 
Q 1616 4750 1894 4750 
Q 2613 4750 3031 4423 
Q 3450 4097 3450 3541 
Q 3450 3153 3228 2886 
Q 3006 2619 2597 2516 
z
" transform="scale(0.015625)"/>
      </defs>
      <use xlink:href="#DejaVuSans-64"/>
      <use xlink:href="#DejaVuSans-65" x="63.476562"/>
      <use xlink:href="#DejaVuSans-67" x="125"/>
      <use xlink:href="#DejaVuSans-72" x="188.476562"/>
      <use xlink:href="#DejaVuSans-65" x="227.339844"/>
      <use xlink:href="#DejaVuSans-65" x="288.863281"/>
      <use xlink:href="#DejaVuSans-3d" x="350.386719"/>
      <use xlink:href="#DejaVuSans-33" x="434.175781"/>
      <use xlink:href="#DejaVuSans-2e" x="497.798828"/>
      <use xlink:href="#DejaVuSans-30" x="529.585938"/>
     </g>
    </g>
    <g id="line2d_25">
     <path d="M 310.825 95.105937 
L 324.825 95.105937 
L 338.825 95.105937 
" style="fill: none; stroke: #d62728; stroke-width: 1.5; stroke-linecap: square"/>
     <g>
      <use xlink:href="#m04617366d1" x="324.825" y="95.105937" style="fill: #d62728; stroke: #d62728"/>
     </g>
    </g>
    <g id="text_20">
     <!-- degree=2.0 -->
     <g transform="translate(350.025 100.005937)scale(0.14 -0.14)">
      <use xlink:href="#DejaVuSans-64"/>
      <use xlink:href="#DejaVuSans-65" x="63.476562"/>
      <use xlink:href="#DejaVuSans-67" x="125"/>
      <use xlink:href="#DejaVuSans-72" x="188.476562"/>
      <use xlink:href="#DejaVuSans-65" x="227.339844"/>
      <use xlink:href="#DejaVuSans-65" x="288.863281"/>
      <use xlink:href="#DejaVuSans-3d" x="350.386719"/>
      <use xlink:href="#DejaVuSans-32" x="434.175781"/>
      <use xlink:href="#DejaVuSans-2e" x="497.798828"/>
      <use xlink:href="#DejaVuSans-30" x="529.585938"/>
     </g>
    </g>
    <g id="line2d_26">
     <path d="M 310.825 115.655312 
L 324.825 115.655312 
L 338.825 115.655312 
" style="fill: none; stroke: #9467bd; stroke-width: 1.5; stroke-linecap: square"/>
     <g>
      <use xlink:href="#m1600e3e4bb" x="324.825" y="115.655312" style="fill: #9467bd; stroke: #9467bd"/>
     </g>
    </g>
    <g id="text_21">
     <!-- degree=1.0 -->
     <g transform="translate(350.025 120.555312)scale(0.14 -0.14)">
      <use xlink:href="#DejaVuSans-64"/>
      <use xlink:href="#DejaVuSans-65" x="63.476562"/>
      <use xlink:href="#DejaVuSans-67" x="125"/>
      <use xlink:href="#DejaVuSans-72" x="188.476562"/>
      <use xlink:href="#DejaVuSans-65" x="227.339844"/>
      <use xlink:href="#DejaVuSans-65" x="288.863281"/>
      <use xlink:href="#DejaVuSans-3d" x="350.386719"/>
      <use xlink:href="#DejaVuSans-31" x="434.175781"/>
      <use xlink:href="#DejaVuSans-2e" x="497.798828"/>
      <use xlink:href="#DejaVuSans-30" x="529.585938"/>
     </g>
    </g>
    <g id="line2d_27">
     <path d="M 310.825 136.204687 
L 324.825 136.204687 
L 338.825 136.204687 
" style="fill: none; stroke: #8c564b; stroke-width: 1.5; stroke-linecap: square"/>
     <g>
      <use xlink:href="#md71c200743" x="324.825" y="136.204687" style="fill: #8c564b; stroke: #8c564b"/>
     </g>
    </g>
    <g id="text_22">
     <!-- degree=0.0 -->
     <g transform="translate(350.025 141.104687)scale(0.14 -0.14)">
      <use xlink:href="#DejaVuSans-64"/>
      <use xlink:href="#DejaVuSans-65" x="63.476562"/>
      <use xlink:href="#DejaVuSans-67" x="125"/>
      <use xlink:href="#DejaVuSans-72" x="188.476562"/>
      <use xlink:href="#DejaVuSans-65" x="227.339844"/>
      <use xlink:href="#DejaVuSans-65" x="288.863281"/>
      <use xlink:href="#DejaVuSans-3d" x="350.386719"/>
      <use xlink:href="#DejaVuSans-30" x="434.175781"/>
      <use xlink:href="#DejaVuSans-2e" x="497.798828"/>
      <use xlink:href="#DejaVuSans-30" x="529.585938"/>
     </g>
    </g>
    <g id="line2d_28">
     <path d="M 310.825 156.754062 
L 324.825 156.754062 
L 338.825 156.754062 
" style="fill: none; stroke-dasharray: 5.55,2.4; stroke-dashoffset: 0; stroke: #000000; stroke-width: 1.5"/>
    </g>
    <g id="text_23">
     <!-- analytic -->
     <g transform="translate(350.025 161.654062)scale(0.14 -0.14)">
      <defs>
       <path id="DejaVuSans-61" d="M 2194 1759 
Q 1497 1759 1228 1600 
Q 959 1441 959 1056 
Q 959 750 1161 570 
Q 1363 391 1709 391 
Q 2188 391 2477 730 
Q 2766 1069 2766 1631 
L 2766 1759 
L 2194 1759 
z
M 3341 1997 
L 3341 0 
L 2766 0 
L 2766 531 
Q 2569 213 2275 61 
Q 1981 -91 1556 -91 
Q 1019 -91 701 211 
Q 384 513 384 1019 
Q 384 1609 779 1909 
Q 1175 2209 1959 2209 
L 2766 2209 
L 2766 2266 
Q 2766 2663 2505 2880 
Q 2244 3097 1772 3097 
Q 1472 3097 1187 3025 
Q 903 2953 641 2809 
L 641 3341 
Q 956 3463 1253 3523 
Q 1550 3584 1831 3584 
Q 2591 3584 2966 3190 
Q 3341 2797 3341 1997 
z
" transform="scale(0.015625)"/>
       <path id="DejaVuSans-6e" d="M 3513 2113 
L 3513 0 
L 2938 0 
L 2938 2094 
Q 2938 2591 2744 2837 
Q 2550 3084 2163 3084 
Q 1697 3084 1428 2787 
Q 1159 2491 1159 1978 
L 1159 0 
L 581 0 
L 581 3500 
L 1159 3500 
L 1159 2956 
Q 1366 3272 1645 3428 
Q 1925 3584 2291 3584 
Q 2894 3584 3203 3211 
Q 3513 2838 3513 2113 
z
" transform="scale(0.015625)"/>
       <path id="DejaVuSans-6c" d="M 603 4863 
L 1178 4863 
L 1178 0 
L 603 0 
L 603 4863 
z
" transform="scale(0.015625)"/>
       <path id="DejaVuSans-79" d="M 2059 -325 
Q 1816 -950 1584 -1140 
Q 1353 -1331 966 -1331 
L 506 -1331 
L 506 -850 
L 844 -850 
Q 1081 -850 1212 -737 
Q 1344 -625 1503 -206 
L 1606 56 
L 191 3500 
L 800 3500 
L 1894 763 
L 2988 3500 
L 3597 3500 
L 2059 -325 
z
" transform="scale(0.015625)"/>
       <path id="DejaVuSans-74" d="M 1172 4494 
L 1172 3500 
L 2356 3500 
L 2356 3053 
L 1172 3053 
L 1172 1153 
Q 1172 725 1289 603 
Q 1406 481 1766 481 
L 2356 481 
L 2356 0 
L 1766 0 
Q 1100 0 847 248 
Q 594 497 594 1153 
L 594 3053 
L 172 3053 
L 172 3500 
L 594 3500 
L 594 4494 
L 1172 4494 
z
" transform="scale(0.015625)"/>
       <path id="DejaVuSans-69" d="M 603 3500 
L 1178 3500 
L 1178 0 
L 603 0 
L 603 3500 
z
M 603 4863 
L 1178 4863 
L 1178 4134 
L 603 4134 
L 603 4863 
z
" transform="scale(0.015625)"/>
       <path id="DejaVuSans-63" d="M 3122 3366 
L 3122 2828 
Q 2878 2963 2633 3030 
Q 2388 3097 2138 3097 
Q 1578 3097 1268 2742 
Q 959 2388 959 1747 
Q 959 1106 1268 751 
Q 1578 397 2138 397 
Q 2388 397 2633 464 
Q 2878 531 3122 666 
L 3122 134 
Q 2881 22 2623 -34 
Q 2366 -91 2075 -91 
Q 1284 -91 818 406 
Q 353 903 353 1747 
Q 353 2603 823 3093 
Q 1294 3584 2113 3584 
Q 2378 3584 2631 3529 
Q 2884 3475 3122 3366 
z
" transform="scale(0.015625)"/>
      </defs>
      <use xlink:href="#DejaVuSans-61"/>
      <use xlink:href="#DejaVuSans-6e" x="61.279297"/>
      <use xlink:href="#DejaVuSans-61" x="124.658203"/>
      <use xlink:href="#DejaVuSans-6c" x="185.9375"/>
      <use xlink:href="#DejaVuSans-79" x="213.720703"/>
      <use xlink:href="#DejaVuSans-74" x="272.900391"/>
      <use xlink:href="#DejaVuSans-69" x="312.109375"/>
      <use xlink:href="#DejaVuSans-63" x="339.892578"/>
     </g>
    </g>
   </g>
  </g>
 </g>
 <defs>
  <clipPath id="pfd391369cb">
   <rect x="73.665312" y="15.12" width="372.014687" height="277.26125"/>
  </clipPath>
 </defs>
</svg>
