<?xml version="1.0" encoding="utf-8" standalone="no"?>
<!DOCTYPE svg PUBLIC "-//W3C//DTD SVG 1.1//EN"
  "http://www.w3.org/Graphics/SVG/1.1/DTD/svg11.dtd">
<svg xmlns:xlink="http://www.w3.org/1999/xlink" width="460.8pt" height="345.6pt" viewBox="0 0 460.8 345.6" xmlns="http://www.w3.org/2000/svg" version="1.1">
 <metadata>
  <rdf:RDF xmlns:dc="http://purl.org/dc/elements/1.1/" xmlns:cc="http://creativecommons.org/ns#" xmlns:rdf="http://www.w3.org/1999/02/22-rdf-syntax-ns#">
   <cc:Work>
    <dc:type rdf:resource="http://purl.org/dc/dcmitype/StillImage"/>
    <dc:date>2022-11-11T17:04:11.053920</dc:date>
    <dc:format>image/svg+xml</dc:format>
    <dc:creator>
     <cc:Agent>
      <dc:title>Matplotlib v3.5.3, https://matplotlib.org/</dc:title>
     </cc:Agent>
    </dc:creator>
   </cc:Work>
  </rdf:RDF>
 </metadata>
 <defs>
  <style type="text/css">*{stroke-linejoin: round; stroke-linecap: butt}</style>
 </defs>
 <g id="figure_1">
  <g id="patch_1">
   <path d="M 0 345.6 
L 460.8 345.6 
L 460.8 0 
L 0 0 
z
" style="fill: #ffffff"/>
  </g>
  <g id="axes_1">
   <g id="patch_2">
    <path d="M 42.082813 318.121875 
L 450 318.121875 
L 450 10.8 
L 42.082813 10.8 
z
" style="fill: #ffffff"/>
   </g>
   <g id="matplotlib.axis_1">
    <g id="xtick_1">
     <g id="line2d_1">
      <defs>
       <path id="mdfef34d6d8" d="M 0 0 
L 0 3.5 
" style="stroke: #000000; stroke-width: 0.8"/>
      </defs>
      <g>
       <use xlink:href="#mdfef34d6d8" x="60.624503" y="318.121875" style="stroke: #000000; stroke-width: 0.8"/>
      </g>
     </g>
     <g id="text_1">
      <!-- 0.0 -->
      <g transform="translate(52.67294 332.720312)scale(0.1 -0.1)">
       <defs>
        <path id="DejaVuSans-30" d="M 2034 4250 
Q 1547 4250 1301 3770 
Q 1056 3291 1056 2328 
Q 1056 1369 1301 889 
Q 1547 409 2034 409 
Q 2525 409 2770 889 
Q 3016 1369 3016 2328 
Q 3016 3291 2770 3770 
Q 2525 4250 2034 4250 
z
M 2034 4750 
Q 2819 4750 3233 4129 
Q 3647 3509 3647 2328 
Q 3647 1150 3233 529 
Q 2819 -91 2034 -91 
Q 1250 -91 836 529 
Q 422 1150 422 2328 
Q 422 3509 836 4129 
Q 1250 4750 2034 4750 
z
" transform="scale(0.015625)"/>
        <path id="DejaVuSans-2e" d="M 684 794 
L 1344 794 
L 1344 0 
L 684 0 
L 684 794 
z
" transform="scale(0.015625)"/>
       </defs>
       <use xlink:href="#DejaVuSans-30"/>
       <use xlink:href="#DejaVuSans-2e" x="63.623047"/>
       <use xlink:href="#DejaVuSans-30" x="95.410156"/>
      </g>
     </g>
    </g>
    <g id="xtick_2">
     <g id="line2d_2">
      <g>
       <use xlink:href="#mdfef34d6d8" x="134.791264" y="318.121875" style="stroke: #000000; stroke-width: 0.8"/>
      </g>
     </g>
     <g id="text_2">
      <!-- 0.2 -->
      <g transform="translate(126.839702 332.720312)scale(0.1 -0.1)">
       <defs>
        <path id="DejaVuSans-32" d="M 1228 531 
L 3431 531 
L 3431 0 
L 469 0 
L 469 531 
Q 828 903 1448 1529 
Q 2069 2156 2228 2338 
Q 2531 2678 2651 2914 
Q 2772 3150 2772 3378 
Q 2772 3750 2511 3984 
Q 2250 4219 1831 4219 
Q 1534 4219 1204 4116 
Q 875 4013 500 3803 
L 500 4441 
Q 881 4594 1212 4672 
Q 1544 4750 1819 4750 
Q 2544 4750 2975 4387 
Q 3406 4025 3406 3419 
Q 3406 3131 3298 2873 
Q 3191 2616 2906 2266 
Q 2828 2175 2409 1742 
Q 1991 1309 1228 531 
z
" transform="scale(0.015625)"/>
       </defs>
       <use xlink:href="#DejaVuSans-30"/>
       <use xlink:href="#DejaVuSans-2e" x="63.623047"/>
       <use xlink:href="#DejaVuSans-32" x="95.410156"/>
      </g>
     </g>
    </g>
    <g id="xtick_3">
     <g id="line2d_3">
      <g>
       <use xlink:href="#mdfef34d6d8" x="208.958026" y="318.121875" style="stroke: #000000; stroke-width: 0.8"/>
      </g>
     </g>
     <g id="text_3">
      <!-- 0.4 -->
      <g transform="translate(201.006463 332.720312)scale(0.1 -0.1)">
       <defs>
        <path id="DejaVuSans-34" d="M 2419 4116 
L 825 1625 
L 2419 1625 
L 2419 4116 
z
M 2253 4666 
L 3047 4666 
L 3047 1625 
L 3713 1625 
L 3713 1100 
L 3047 1100 
L 3047 0 
L 2419 0 
L 2419 1100 
L 313 1100 
L 313 1709 
L 2253 4666 
z
" transform="scale(0.015625)"/>
       </defs>
       <use xlink:href="#DejaVuSans-30"/>
       <use xlink:href="#DejaVuSans-2e" x="63.623047"/>
       <use xlink:href="#DejaVuSans-34" x="95.410156"/>
      </g>
     </g>
    </g>
    <g id="xtick_4">
     <g id="line2d_4">
      <g>
       <use xlink:href="#mdfef34d6d8" x="283.124787" y="318.121875" style="stroke: #000000; stroke-width: 0.8"/>
      </g>
     </g>
     <g id="text_4">
      <!-- 0.6 -->
      <g transform="translate(275.173224 332.720312)scale(0.1 -0.1)">
       <defs>
        <path id="DejaVuSans-36" d="M 2113 2584 
Q 1688 2584 1439 2293 
Q 1191 2003 1191 1497 
Q 1191 994 1439 701 
Q 1688 409 2113 409 
Q 2538 409 2786 701 
Q 3034 994 3034 1497 
Q 3034 2003 2786 2293 
Q 2538 2584 2113 2584 
z
M 3366 4563 
L 3366 3988 
Q 3128 4100 2886 4159 
Q 2644 4219 2406 4219 
Q 1781 4219 1451 3797 
Q 1122 3375 1075 2522 
Q 1259 2794 1537 2939 
Q 1816 3084 2150 3084 
Q 2853 3084 3261 2657 
Q 3669 2231 3669 1497 
Q 3669 778 3244 343 
Q 2819 -91 2113 -91 
Q 1303 -91 875 529 
Q 447 1150 447 2328 
Q 447 3434 972 4092 
Q 1497 4750 2381 4750 
Q 2619 4750 2861 4703 
Q 3103 4656 3366 4563 
z
" transform="scale(0.015625)"/>
       </defs>
       <use xlink:href="#DejaVuSans-30"/>
       <use xlink:href="#DejaVuSans-2e" x="63.623047"/>
       <use xlink:href="#DejaVuSans-36" x="95.410156"/>
      </g>
     </g>
    </g>
    <g id="xtick_5">
     <g id="line2d_5">
      <g>
       <use xlink:href="#mdfef34d6d8" x="357.291548" y="318.121875" style="stroke: #000000; stroke-width: 0.8"/>
      </g>
     </g>
     <g id="text_5">
      <!-- 0.8 -->
      <g transform="translate(349.339986 332.720312)scale(0.1 -0.1)">
       <defs>
        <path id="DejaVuSans-38" d="M 2034 2216 
Q 1584 2216 1326 1975 
Q 1069 1734 1069 1313 
Q 1069 891 1326 650 
Q 1584 409 2034 409 
Q 2484 409 2743 651 
Q 3003 894 3003 1313 
Q 3003 1734 2745 1975 
Q 2488 2216 2034 2216 
z
M 1403 2484 
Q 997 2584 770 2862 
Q 544 3141 544 3541 
Q 544 4100 942 4425 
Q 1341 4750 2034 4750 
Q 2731 4750 3128 4425 
Q 3525 4100 3525 3541 
Q 3525 3141 3298 2862 
Q 3072 2584 2669 2484 
Q 3125 2378 3379 2068 
Q 3634 1759 3634 1313 
Q 3634 634 3220 271 
Q 2806 -91 2034 -91 
Q 1263 -91 848 271 
Q 434 634 434 1313 
Q 434 1759 690 2068 
Q 947 2378 1403 2484 
z
M 1172 3481 
Q 1172 3119 1398 2916 
Q 1625 2713 2034 2713 
Q 2441 2713 2670 2916 
Q 2900 3119 2900 3481 
Q 2900 3844 2670 4047 
Q 2441 4250 2034 4250 
Q 1625 4250 1398 4047 
Q 1172 3844 1172 3481 
z
" transform="scale(0.015625)"/>
       </defs>
       <use xlink:href="#DejaVuSans-30"/>
       <use xlink:href="#DejaVuSans-2e" x="63.623047"/>
       <use xlink:href="#DejaVuSans-38" x="95.410156"/>
      </g>
     </g>
    </g>
    <g id="xtick_6">
     <g id="line2d_6">
      <g>
       <use xlink:href="#mdfef34d6d8" x="431.45831" y="318.121875" style="stroke: #000000; stroke-width: 0.8"/>
      </g>
     </g>
     <g id="text_6">
      <!-- 1.0 -->
      <g transform="translate(423.506747 332.720312)scale(0.1 -0.1)">
       <defs>
        <path id="DejaVuSans-31" d="M 794 531 
L 1825 531 
L 1825 4091 
L 703 3866 
L 703 4441 
L 1819 4666 
L 2450 4666 
L 2450 531 
L 3481 531 
L 3481 0 
L 794 0 
L 794 531 
z
" transform="scale(0.015625)"/>
       </defs>
       <use xlink:href="#DejaVuSans-31"/>
       <use xlink:href="#DejaVuSans-2e" x="63.623047"/>
       <use xlink:href="#DejaVuSans-30" x="95.410156"/>
      </g>
     </g>
    </g>
   </g>
   <g id="matplotlib.axis_2">
    <g id="ytick_1">
     <g id="line2d_7">
      <defs>
       <path id="me7085800f5" d="M 0 0 
L -3.5 0 
" style="stroke: #000000; stroke-width: 0.8"/>
      </defs>
      <g>
       <use xlink:href="#me7085800f5" x="42.082813" y="302.755781" style="stroke: #000000; stroke-width: 0.8"/>
      </g>
     </g>
     <g id="text_7">
      <!-- −0.2 -->
      <g transform="translate(10.8 306.555)scale(0.1 -0.1)">
       <defs>
        <path id="DejaVuSans-2212" d="M 678 2272 
L 4684 2272 
L 4684 1741 
L 678 1741 
L 678 2272 
z
" transform="scale(0.015625)"/>
       </defs>
       <use xlink:href="#DejaVuSans-2212"/>
       <use xlink:href="#DejaVuSans-30" x="83.789062"/>
       <use xlink:href="#DejaVuSans-2e" x="147.412109"/>
       <use xlink:href="#DejaVuSans-32" x="179.199219"/>
      </g>
     </g>
    </g>
    <g id="ytick_2">
     <g id="line2d_8">
      <g>
       <use xlink:href="#me7085800f5" x="42.082813" y="241.291406" style="stroke: #000000; stroke-width: 0.8"/>
      </g>
     </g>
     <g id="text_8">
      <!-- 0.0 -->
      <g transform="translate(19.179688 245.090625)scale(0.1 -0.1)">
       <use xlink:href="#DejaVuSans-30"/>
       <use xlink:href="#DejaVuSans-2e" x="63.623047"/>
       <use xlink:href="#DejaVuSans-30" x="95.410156"/>
      </g>
     </g>
    </g>
    <g id="ytick_3">
     <g id="line2d_9">
      <g>
       <use xlink:href="#me7085800f5" x="42.082813" y="179.827031" style="stroke: #000000; stroke-width: 0.8"/>
      </g>
     </g>
     <g id="text_9">
      <!-- 0.2 -->
      <g transform="translate(19.179688 183.62625)scale(0.1 -0.1)">
       <use xlink:href="#DejaVuSans-30"/>
       <use xlink:href="#DejaVuSans-2e" x="63.623047"/>
       <use xlink:href="#DejaVuSans-32" x="95.410156"/>
      </g>
     </g>
    </g>
    <g id="ytick_4">
     <g id="line2d_10">
      <g>
       <use xlink:href="#me7085800f5" x="42.082813" y="118.362656" style="stroke: #000000; stroke-width: 0.8"/>
      </g>
     </g>
     <g id="text_10">
      <!-- 0.4 -->
      <g transform="translate(19.179688 122.161875)scale(0.1 -0.1)">
       <use xlink:href="#DejaVuSans-30"/>
       <use xlink:href="#DejaVuSans-2e" x="63.623047"/>
       <use xlink:href="#DejaVuSans-34" x="95.410156"/>
      </g>
     </g>
    </g>
    <g id="ytick_5">
     <g id="line2d_11">
      <g>
       <use xlink:href="#me7085800f5" x="42.082813" y="56.898281" style="stroke: #000000; stroke-width: 0.8"/>
      </g>
     </g>
     <g id="text_11">
      <!-- 0.6 -->
      <g transform="translate(19.179688 60.6975)scale(0.1 -0.1)">
       <use xlink:href="#DejaVuSans-30"/>
       <use xlink:href="#DejaVuSans-2e" x="63.623047"/>
       <use xlink:href="#DejaVuSans-36" x="95.410156"/>
      </g>
     </g>
    </g>
   </g>
   <g id="line2d_12">
    <path d="M 60.624503 241.290678 
L 127.441405 241.395031 
L 135.97912 241.650725 
L 142.289605 242.054998 
L 147.115271 242.569349 
L 151.569731 243.269092 
L 155.281781 244.065976 
L 158.622626 244.986134 
L 161.963471 246.130939 
L 165.304316 247.530422 
L 168.273956 249.009828 
L 171.243596 250.726283 
L 174.213236 252.68908 
L 177.182877 254.900376 
L 180.523722 257.676463 
L 184.235772 261.088488 
L 188.319027 265.167092 
L 194.629512 271.843543 
L 200.197587 277.640143 
L 203.538432 280.828698 
L 206.508072 283.346491 
L 208.735303 284.978648 
L 210.962533 286.347083 
L 212.818558 287.258757 
L 214.674583 287.940827 
L 216.530608 288.374769 
L 218.386633 288.544141 
L 219.871453 288.479607 
L 221.356273 288.230689 
L 222.841093 287.792525 
L 224.325913 287.16145 
L 226.181938 286.097745 
L 228.037963 284.726943 
L 229.893988 283.050158 
L 231.750013 281.071551 
L 233.606038 278.798224 
L 235.833268 275.695306 
L 238.060498 272.204291 
L 240.658934 267.676662 
L 243.257369 262.70609 
L 246.227009 256.553017 
L 249.567854 249.132417 
L 253.651109 239.52461 
L 259.590389 224.926611 
L 271.840155 194.711277 
L 277.40823 181.651501 
L 282.6051 170.051342 
L 287.430765 159.833412 
L 292.25643 150.161999 
L 296.71089 141.723485 
L 301.165351 133.760992 
L 305.248606 126.892939 
L 309.331861 120.457293 
L 313.043911 115.005177 
L 316.755961 109.959162 
L 320.096806 105.789214 
L 323.437651 101.994937 
L 326.407291 98.956541 
L 329.376931 96.249606 
L 331.975366 94.165032 
L 334.573802 92.355508 
L 337.172237 90.829588 
L 339.399467 89.753033 
L 341.626697 88.894214 
L 343.853927 88.256269 
L 346.081157 87.841511 
L 348.308387 87.651388 
L 350.535617 87.686449 
L 352.762847 87.946322 
L 354.990077 88.429702 
L 357.217307 89.134351 
L 359.444537 90.057103 
L 361.671767 91.19388 
L 364.270203 92.783948 
L 366.868638 94.649176 
L 369.467073 96.778702 
L 372.436713 99.520283 
L 375.406353 102.570649 
L 378.747198 106.343552 
L 382.088043 110.444669 
L 385.800093 115.341966 
L 390.254553 121.620155 
L 395.451424 129.3799 
L 402.133114 139.814953 
L 421.435774 170.254475 
L 427.00385 178.492683 
L 431.45831 184.762706 
L 431.45831 184.762706 
" clip-path="url(#p521505e418)" style="fill: none; stroke: #1f77b4; stroke-width: 1.5; stroke-linecap: square"/>
   </g>
   <g id="line2d_13">
    <path d="M 60.624503 245.307376 
L 62.109323 243.663109 
L 63.594143 242.31797 
L 65.078963 241.242816 
L 66.563783 240.409759 
L 68.048603 239.792209 
L 69.904628 239.284969 
L 71.760653 239.028725 
L 73.616678 238.980466 
L 75.843908 239.141515 
L 78.442343 239.553525 
L 82.154394 240.39924 
L 92.176929 242.837216 
L 95.888979 243.441085 
L 99.229824 243.760026 
L 102.570669 243.852448 
L 105.911514 243.724017 
L 109.623564 243.34829 
L 113.70682 242.706296 
L 119.6461 241.510829 
L 128.183815 239.791993 
L 132.26707 239.201824 
L 135.607915 238.919692 
L 138.94876 238.864703 
L 141.9184 239.035954 
L 144.888041 239.435731 
L 147.857681 240.079141 
L 150.827321 240.975766 
L 153.796961 242.129495 
L 156.766601 243.538458 
L 159.736241 245.195071 
L 163.077086 247.338186 
L 166.417931 249.751132 
L 170.129981 252.706093 
L 174.584441 256.552228 
L 180.894927 262.336953 
L 189.432642 270.147188 
L 193.515897 273.59884 
L 196.856742 276.171373 
L 199.826382 278.212497 
L 202.796022 279.977553 
L 205.394457 281.263241 
L 207.992893 282.280363 
L 210.220123 282.920211 
L 212.447353 283.331229 
L 214.674583 283.500766 
L 216.901813 283.417488 
L 219.129043 283.071473 
L 220.985068 282.576289 
L 223.212298 281.727778 
L 225.439528 280.596669 
L 227.666758 279.179031 
L 229.893988 277.472605 
L 232.121218 275.476817 
L 234.348448 273.192795 
L 236.575678 270.623357 
L 239.174114 267.271044 
L 241.772549 263.546431 
L 244.370984 259.462488 
L 247.340624 254.375575 
L 250.310264 248.868115 
L 253.651109 242.209965 
L 257.363159 234.299379 
L 261.446414 225.066624 
L 266.272079 213.592032 
L 272.95377 197.062718 
L 285.945945 164.777119 
L 291.142815 152.535637 
L 295.597275 142.622124 
L 299.309325 134.866201 
L 303.021376 127.636682 
L 306.362221 121.623378 
L 309.331861 116.69627 
L 312.301501 112.179739 
L 315.271141 108.085331 
L 317.869576 104.854486 
L 320.468011 101.953821 
L 323.066446 99.382427 
L 325.664881 97.136938 
L 328.263316 95.211707 
L 330.861751 93.599019 
L 333.088982 92.458291 
L 335.316212 91.533293 
L 337.543442 90.816427 
L 340.141877 90.232268 
L 342.740312 89.9068 
L 345.338747 89.826202 
L 347.937182 89.976734 
L 350.535617 90.345133 
L 353.134052 90.919006 
L 356.103692 91.81225 
L 359.073332 92.945394 
L 362.042972 94.307874 
L 365.012613 95.893109 
L 368.353458 97.94024 
L 371.694303 100.270676 
L 375.035148 102.895956 
L 378.375993 105.834706 
L 381.345633 108.729877 
L 384.315273 111.912215 
L 387.284913 115.402884 
L 390.254553 119.222079 
L 393.224193 123.386397 
L 396.193834 127.905538 
L 399.534679 133.411557 
L 402.875524 139.338316 
L 406.958779 147.058683 
L 418.094929 168.533861 
L 420.322159 172.232192 
L 422.178184 174.929864 
L 423.663004 176.758677 
L 425.147824 178.226001 
L 426.261439 179.046576 
L 427.375055 179.590643 
L 428.48867 179.822323 
L 429.23108 179.7842 
L 429.97349 179.577823 
L 430.7159 179.190322 
L 431.45831 178.608171 
L 431.45831 178.608171 
" clip-path="url(#p521505e418)" style="fill: none; stroke: #ff7f0e; stroke-width: 1.5; stroke-linecap: square"/>
   </g>
   <g id="line2d_14">
    <path d="M 60.624503 271.753698 
L 72.874268 270.299549 
L 84.381624 268.713506 
L 95.517774 266.954421 
L 105.911514 265.094055 
L 115.93405 263.081655 
L 125.58538 260.923224 
L 134.865505 258.626654 
L 143.774425 256.201789 
L 152.683346 253.544901 
L 161.221061 250.765275 
L 169.387571 247.878105 
L 177.554082 244.753267 
L 185.349387 241.535473 
L 193.144692 238.07524 
L 200.568792 234.542806 
L 207.992893 230.76832 
L 215.416993 226.741591 
L 222.841093 222.453218 
L 229.893988 218.129385 
L 236.946883 213.556215 
L 243.999779 208.729686 
L 251.423879 203.373464 
L 258.847979 197.735795 
L 266.272079 191.822269 
L 274.067385 185.328271 
L 282.233895 178.234435 
L 291.142815 170.198038 
L 301.907761 160.167045 
L 331.604161 132.281998 
L 338.285852 126.439712 
L 343.853927 121.861116 
L 348.679592 118.173499 
L 353.134052 115.055633 
L 357.217307 112.485456 
L 360.929357 110.427005 
L 364.270203 108.832478 
L 367.239843 107.644882 
L 370.209483 106.696472 
L 372.807918 106.081287 
L 375.406353 105.683966 
L 378.004788 105.522199 
L 380.232018 105.585159 
L 382.459248 105.847262 
L 384.686478 106.321463 
L 386.913708 107.021325 
L 389.140938 107.961036 
L 391.368168 109.155438 
L 393.595398 110.620049 
L 395.822629 112.37109 
L 398.049859 114.425509 
L 400.277089 116.80101 
L 402.504319 119.51608 
L 404.731549 122.590017 
L 406.958779 126.042959 
L 409.186009 129.895916 
L 411.413239 134.1708 
L 413.640469 138.890457 
L 415.867699 144.078699 
L 418.466134 150.757052 
L 421.064569 158.148214 
L 423.663004 166.295374 
L 426.261439 175.243803 
L 428.859875 185.04093 
L 431.45831 195.736435 
L 431.45831 195.736435 
" clip-path="url(#p521505e418)" style="fill: none; stroke: #2ca02c; stroke-width: 1.5; stroke-linecap: square"/>
   </g>
   <g id="line2d_15">
    <path d="M 60.624503 260.196383 
L 72.131858 260.878178 
L 82.896804 261.293215 
L 92.919339 261.461974 
L 102.570669 261.403396 
L 111.850794 261.120688 
L 120.38851 260.645149 
L 128.926225 259.943891 
L 137.092735 259.043433 
L 144.888041 257.956981 
L 152.312141 256.700213 
L 159.365036 255.291157 
L 166.417931 253.65825 
L 173.099621 251.891627 
L 179.781312 249.898306 
L 186.463002 247.665236 
L 192.773487 245.32414 
L 199.083972 242.746128 
L 205.394457 239.920004 
L 211.333738 237.023614 
L 217.273018 233.888802 
L 223.212298 230.507116 
L 229.151578 226.87072 
L 235.090858 222.972604 
L 241.030139 218.806836 
L 246.969419 214.368847 
L 252.908699 209.65576 
L 258.847979 204.666778 
L 265.158464 199.065654 
L 271.46895 193.160847 
L 278.15064 186.589359 
L 284.83233 179.708261 
L 292.25643 171.733062 
L 300.42294 162.620474 
L 310.816681 150.656271 
L 331.232956 127.054635 
L 337.914647 119.731062 
L 343.111517 114.340691 
L 347.565977 110.008623 
L 351.649232 106.329644 
L 355.361282 103.275591 
L 358.702127 100.802492 
L 361.671767 98.853665 
L 364.641408 97.168135 
L 367.239843 95.932283 
L 369.838278 94.941339 
L 372.065508 94.303638 
L 374.292738 93.87682 
L 376.519968 93.676314 
L 378.747198 93.718306 
L 380.974428 94.019772 
L 382.830453 94.482011 
L 384.686478 95.147525 
L 386.542503 96.02748 
L 388.398528 97.133482 
L 390.254553 98.477582 
L 392.110578 100.072301 
L 393.966603 101.930634 
L 395.822629 104.066072 
L 397.678654 106.492614 
L 399.905884 109.809211 
L 402.133114 113.592069 
L 404.360344 117.868481 
L 406.587574 122.666941 
L 408.814804 128.017195 
L 411.042034 133.950281 
L 413.269264 140.498575 
L 415.496494 147.695844 
L 417.723724 155.577288 
L 419.950954 164.179596 
L 422.549389 175.177802 
L 425.147824 187.272731 
L 427.74626 200.530903 
L 430.344695 215.02203 
L 431.45831 221.627925 
L 431.45831 221.627925 
" clip-path="url(#p521505e418)" style="fill: none; stroke: #d62728; stroke-width: 1.5; stroke-linecap: square"/>
   </g>
   <g id="line2d_16">
    <path d="M 60.624503 237.732632 
L 70.647038 240.590408 
L 80.298368 243.114196 
L 89.578494 245.311865 
L 98.487414 247.192872 
L 107.025129 248.768338 
L 115.19164 250.051098 
L 122.986945 251.055732 
L 130.411045 251.798564 
L 137.835145 252.318063 
L 144.888041 252.590719 
L 151.940936 252.633857 
L 158.622626 252.449464 
L 164.933111 252.061747 
L 171.243596 251.454449 
L 177.554082 250.61516 
L 183.493362 249.601771 
L 189.432642 248.36036 
L 195.000717 246.97933 
L 200.568792 245.378354 
L 206.136867 243.547806 
L 211.704943 241.478063 
L 217.273018 239.159603 
L 222.469888 236.763109 
L 227.666758 234.134598 
L 232.863628 231.267219 
L 238.060498 228.154677 
L 243.257369 224.791397 
L 248.454239 221.172716 
L 253.651109 217.295096 
L 259.219184 212.850736 
L 264.787259 208.10613 
L 270.355335 203.063369 
L 275.92341 197.727679 
L 281.86269 191.723554 
L 288.173175 185.008579 
L 294.854865 177.552396 
L 301.907761 169.345286 
L 310.445476 159.050312 
L 337.543442 126.037968 
L 343.111517 119.79861 
L 347.565977 115.125825 
L 351.649232 111.162902 
L 355.361282 107.884038 
L 358.702127 105.243846 
L 361.671767 103.180939 
L 364.270203 101.622304 
L 366.868638 100.318553 
L 369.095868 99.423056 
L 371.323098 98.750226 
L 373.550328 98.317778 
L 375.777558 98.144339 
L 377.633583 98.21175 
L 379.489608 98.48445 
L 381.345633 98.974778 
L 383.201658 99.695578 
L 385.057683 100.660221 
L 386.913708 101.882618 
L 388.769733 103.377236 
L 390.625758 105.159123 
L 392.481783 107.243918 
L 394.337808 109.647878 
L 396.193834 112.387889 
L 398.049859 115.481495 
L 399.905884 118.946911 
L 402.133114 123.622878 
L 404.360344 128.895567 
L 406.587574 134.800564 
L 408.814804 141.375054 
L 411.042034 148.657879 
L 413.269264 156.689598 
L 415.496494 165.512546 
L 417.723724 175.170905 
L 419.950954 185.710764 
L 422.549389 199.185622 
L 425.147824 214.005663 
L 427.74626 230.254689 
L 430.344695 248.020611 
L 431.45831 256.121622 
L 431.45831 256.121622 
" clip-path="url(#p521505e418)" style="fill: none; stroke: #9467bd; stroke-width: 1.5; stroke-linecap: square"/>
   </g>
   <g id="line2d_17">
    <path d="M 60.624503 209.626659 
L 68.048603 216.152768 
L 75.101498 222.055737 
L 81.783189 227.36638 
L 88.464879 232.3886 
L 94.775364 236.853893 
L 100.714644 240.798476 
L 106.653924 244.481993 
L 112.593204 247.893665 
L 118.16128 250.835528 
L 123.729355 253.51984 
L 128.926225 255.784816 
L 134.123095 257.810136 
L 139.319965 259.588433 
L 144.145631 261.012126 
L 148.971296 262.210719 
L 153.796961 263.178494 
L 158.622626 263.90984 
L 163.077086 264.370338 
L 167.531546 264.620519 
L 171.986006 264.656329 
L 176.440467 264.47387 
L 180.894927 264.069427 
L 185.349387 263.439492 
L 189.803847 262.580793 
L 194.258307 261.490323 
L 198.712767 260.16537 
L 203.167227 258.603558 
L 207.621688 256.802878 
L 212.076148 254.761734 
L 216.530608 252.478985 
L 220.985068 249.953993 
L 225.439528 247.186674 
L 230.265193 243.915914 
L 235.090858 240.362953 
L 239.916524 236.530379 
L 244.742189 232.42191 
L 249.939059 227.694586 
L 255.135929 222.661062 
L 260.704004 216.939665 
L 266.272079 210.893571 
L 272.21136 204.107518 
L 278.521845 196.546292 
L 285.203535 188.189133 
L 292.627635 178.547303 
L 301.907761 166.107414 
L 327.520906 131.523072 
L 333.831392 123.521781 
L 339.028262 117.283854 
L 343.482722 112.264776 
L 347.565977 107.987649 
L 351.278027 104.414792 
L 354.618872 101.493423 
L 357.588512 99.159249 
L 360.558152 97.098752 
L 363.156587 95.541495 
L 365.755023 94.233454 
L 368.353458 93.194621 
L 370.580688 92.53433 
L 372.807918 92.101022 
L 375.035148 91.909075 
L 377.262378 91.97346 
L 379.118403 92.23415 
L 380.974428 92.693016 
L 382.830453 93.359729 
L 384.686478 94.244284 
L 386.542503 95.357011 
L 388.398528 96.708581 
L 390.254553 98.31002 
L 392.110578 100.172717 
L 393.966603 102.308435 
L 396.193834 105.248812 
L 398.421064 108.621592 
L 400.648294 112.449362 
L 402.875524 116.755587 
L 405.102754 121.564634 
L 407.329984 126.901805 
L 409.557214 132.793368 
L 411.784444 139.266589 
L 414.011674 146.349763 
L 416.610109 155.423608 
L 419.208544 165.41619 
L 421.806979 176.37814 
L 424.405414 188.36228 
L 427.00385 201.423708 
L 429.602285 215.619882 
L 431.45831 226.487834 
L 431.45831 226.487834 
" clip-path="url(#p521505e418)" style="fill: none; stroke: #8c564b; stroke-width: 1.5; stroke-linecap: square"/>
   </g>
   <g id="patch_3">
    <path d="M 42.082813 318.121875 
L 42.082813 10.8 
" style="fill: none; stroke: #000000; stroke-width: 0.8; stroke-linejoin: miter; stroke-linecap: square"/>
   </g>
   <g id="patch_4">
    <path d="M 450 318.121875 
L 450 10.8 
" style="fill: none; stroke: #000000; stroke-width: 0.8; stroke-linejoin: miter; stroke-linecap: square"/>
   </g>
   <g id="patch_5">
    <path d="M 42.082813 318.121875 
L 450 318.121875 
" style="fill: none; stroke: #000000; stroke-width: 0.8; stroke-linejoin: miter; stroke-linecap: square"/>
   </g>
   <g id="patch_6">
    <path d="M 42.082813 10.8 
L 450 10.8 
" style="fill: none; stroke: #000000; stroke-width: 0.8; stroke-linejoin: miter; stroke-linecap: square"/>
   </g>
   <g id="legend_1">
    <g id="patch_7">
     <path d="M 49.082813 106.95625 
L 240.582812 106.95625 
Q 242.582812 106.95625 242.582812 104.95625 
L 242.582812 17.8 
Q 242.582812 15.8 240.582812 15.8 
L 49.082813 15.8 
Q 47.082813 15.8 47.082813 17.8 
L 47.082813 104.95625 
Q 47.082813 106.95625 49.082813 106.95625 
z
" style="fill: #ffffff; opacity: 0.8; stroke: #cccccc; stroke-linejoin: miter"/>
    </g>
    <g id="line2d_18">
     <path d="M 51.082813 23.898438 
L 61.082813 23.898438 
L 71.082813 23.898438 
" style="fill: none; stroke: #1f77b4; stroke-width: 1.5; stroke-linecap: square"/>
    </g>
    <g id="text_12">
     <!-- f(x) -->
     <g transform="translate(79.082813 27.398438)scale(0.1 -0.1)">
      <defs>
       <path id="DejaVuSans-66" d="M 2375 4863 
L 2375 4384 
L 1825 4384 
Q 1516 4384 1395 4259 
Q 1275 4134 1275 3809 
L 1275 3500 
L 2222 3500 
L 2222 3053 
L 1275 3053 
L 1275 0 
L 697 0 
L 697 3053 
L 147 3053 
L 147 3500 
L 697 3500 
L 697 3744 
Q 697 4328 969 4595 
Q 1241 4863 1831 4863 
L 2375 4863 
z
" transform="scale(0.015625)"/>
       <path id="DejaVuSans-28" d="M 1984 4856 
Q 1566 4138 1362 3434 
Q 1159 2731 1159 2009 
Q 1159 1288 1364 580 
Q 1569 -128 1984 -844 
L 1484 -844 
Q 1016 -109 783 600 
Q 550 1309 550 2009 
Q 550 2706 781 3412 
Q 1013 4119 1484 4856 
L 1984 4856 
z
" transform="scale(0.015625)"/>
       <path id="DejaVuSans-78" d="M 3513 3500 
L 2247 1797 
L 3578 0 
L 2900 0 
L 1881 1375 
L 863 0 
L 184 0 
L 1544 1831 
L 300 3500 
L 978 3500 
L 1906 2253 
L 2834 3500 
L 3513 3500 
z
" transform="scale(0.015625)"/>
       <path id="DejaVuSans-29" d="M 513 4856 
L 1013 4856 
Q 1481 4119 1714 3412 
Q 1947 2706 1947 2009 
Q 1947 1309 1714 600 
Q 1481 -109 1013 -844 
L 513 -844 
Q 928 -128 1133 580 
Q 1338 1288 1338 2009 
Q 1338 2731 1133 3434 
Q 928 4138 513 4856 
z
" transform="scale(0.015625)"/>
      </defs>
      <use xlink:href="#DejaVuSans-66"/>
      <use xlink:href="#DejaVuSans-28" x="35.205078"/>
      <use xlink:href="#DejaVuSans-78" x="74.21875"/>
      <use xlink:href="#DejaVuSans-29" x="133.398438"/>
     </g>
    </g>
    <g id="line2d_19">
     <path d="M 51.082813 38.576563 
L 61.082813 38.576563 
L 71.082813 38.576563 
" style="fill: none; stroke: #ff7f0e; stroke-width: 1.5; stroke-linecap: square"/>
    </g>
    <g id="text_13">
     <!-- A [MSE=8.59e-05] -->
     <g transform="translate(79.082813 42.076563)scale(0.1 -0.1)">
      <defs>
       <path id="DejaVuSans-41" d="M 2188 4044 
L 1331 1722 
L 3047 1722 
L 2188 4044 
z
M 1831 4666 
L 2547 4666 
L 4325 0 
L 3669 0 
L 3244 1197 
L 1141 1197 
L 716 0 
L 50 0 
L 1831 4666 
z
" transform="scale(0.015625)"/>
       <path id="DejaVuSans-20" transform="scale(0.015625)"/>
       <path id="DejaVuSans-5b" d="M 550 4863 
L 1875 4863 
L 1875 4416 
L 1125 4416 
L 1125 -397 
L 1875 -397 
L 1875 -844 
L 550 -844 
L 550 4863 
z
" transform="scale(0.015625)"/>
       <path id="DejaVuSans-4d" d="M 628 4666 
L 1569 4666 
L 2759 1491 
L 3956 4666 
L 4897 4666 
L 4897 0 
L 4281 0 
L 4281 4097 
L 3078 897 
L 2444 897 
L 1241 4097 
L 1241 0 
L 628 0 
L 628 4666 
z
" transform="scale(0.015625)"/>
       <path id="DejaVuSans-53" d="M 3425 4513 
L 3425 3897 
Q 3066 4069 2747 4153 
Q 2428 4238 2131 4238 
Q 1616 4238 1336 4038 
Q 1056 3838 1056 3469 
Q 1056 3159 1242 3001 
Q 1428 2844 1947 2747 
L 2328 2669 
Q 3034 2534 3370 2195 
Q 3706 1856 3706 1288 
Q 3706 609 3251 259 
Q 2797 -91 1919 -91 
Q 1588 -91 1214 -16 
Q 841 59 441 206 
L 441 856 
Q 825 641 1194 531 
Q 1563 422 1919 422 
Q 2459 422 2753 634 
Q 3047 847 3047 1241 
Q 3047 1584 2836 1778 
Q 2625 1972 2144 2069 
L 1759 2144 
Q 1053 2284 737 2584 
Q 422 2884 422 3419 
Q 422 4038 858 4394 
Q 1294 4750 2059 4750 
Q 2388 4750 2728 4690 
Q 3069 4631 3425 4513 
z
" transform="scale(0.015625)"/>
       <path id="DejaVuSans-45" d="M 628 4666 
L 3578 4666 
L 3578 4134 
L 1259 4134 
L 1259 2753 
L 3481 2753 
L 3481 2222 
L 1259 2222 
L 1259 531 
L 3634 531 
L 3634 0 
L 628 0 
L 628 4666 
z
" transform="scale(0.015625)"/>
       <path id="DejaVuSans-3d" d="M 678 2906 
L 4684 2906 
L 4684 2381 
L 678 2381 
L 678 2906 
z
M 678 1631 
L 4684 1631 
L 4684 1100 
L 678 1100 
L 678 1631 
z
" transform="scale(0.015625)"/>
       <path id="DejaVuSans-35" d="M 691 4666 
L 3169 4666 
L 3169 4134 
L 1269 4134 
L 1269 2991 
Q 1406 3038 1543 3061 
Q 1681 3084 1819 3084 
Q 2600 3084 3056 2656 
Q 3513 2228 3513 1497 
Q 3513 744 3044 326 
Q 2575 -91 1722 -91 
Q 1428 -91 1123 -41 
Q 819 9 494 109 
L 494 744 
Q 775 591 1075 516 
Q 1375 441 1709 441 
Q 2250 441 2565 725 
Q 2881 1009 2881 1497 
Q 2881 1984 2565 2268 
Q 2250 2553 1709 2553 
Q 1456 2553 1204 2497 
Q 953 2441 691 2322 
L 691 4666 
z
" transform="scale(0.015625)"/>
       <path id="DejaVuSans-39" d="M 703 97 
L 703 672 
Q 941 559 1184 500 
Q 1428 441 1663 441 
Q 2288 441 2617 861 
Q 2947 1281 2994 2138 
Q 2813 1869 2534 1725 
Q 2256 1581 1919 1581 
Q 1219 1581 811 2004 
Q 403 2428 403 3163 
Q 403 3881 828 4315 
Q 1253 4750 1959 4750 
Q 2769 4750 3195 4129 
Q 3622 3509 3622 2328 
Q 3622 1225 3098 567 
Q 2575 -91 1691 -91 
Q 1453 -91 1209 -44 
Q 966 3 703 97 
z
M 1959 2075 
Q 2384 2075 2632 2365 
Q 2881 2656 2881 3163 
Q 2881 3666 2632 3958 
Q 2384 4250 1959 4250 
Q 1534 4250 1286 3958 
Q 1038 3666 1038 3163 
Q 1038 2656 1286 2365 
Q 1534 2075 1959 2075 
z
" transform="scale(0.015625)"/>
       <path id="DejaVuSans-65" d="M 3597 1894 
L 3597 1613 
L 953 1613 
Q 991 1019 1311 708 
Q 1631 397 2203 397 
Q 2534 397 2845 478 
Q 3156 559 3463 722 
L 3463 178 
Q 3153 47 2828 -22 
Q 2503 -91 2169 -91 
Q 1331 -91 842 396 
Q 353 884 353 1716 
Q 353 2575 817 3079 
Q 1281 3584 2069 3584 
Q 2775 3584 3186 3129 
Q 3597 2675 3597 1894 
z
M 3022 2063 
Q 3016 2534 2758 2815 
Q 2500 3097 2075 3097 
Q 1594 3097 1305 2825 
Q 1016 2553 972 2059 
L 3022 2063 
z
" transform="scale(0.015625)"/>
       <path id="DejaVuSans-2d" d="M 313 2009 
L 1997 2009 
L 1997 1497 
L 313 1497 
L 313 2009 
z
" transform="scale(0.015625)"/>
       <path id="DejaVuSans-5d" d="M 1947 4863 
L 1947 -844 
L 622 -844 
L 622 -397 
L 1369 -397 
L 1369 4416 
L 622 4416 
L 622 4863 
L 1947 4863 
z
" transform="scale(0.015625)"/>
      </defs>
      <use xlink:href="#DejaVuSans-41"/>
      <use xlink:href="#DejaVuSans-20" x="68.408203"/>
      <use xlink:href="#DejaVuSans-5b" x="100.195312"/>
      <use xlink:href="#DejaVuSans-4d" x="139.208984"/>
      <use xlink:href="#DejaVuSans-53" x="225.488281"/>
      <use xlink:href="#DejaVuSans-45" x="288.964844"/>
      <use xlink:href="#DejaVuSans-3d" x="352.148438"/>
      <use xlink:href="#DejaVuSans-38" x="435.9375"/>
      <use xlink:href="#DejaVuSans-2e" x="499.560547"/>
      <use xlink:href="#DejaVuSans-35" x="531.347656"/>
      <use xlink:href="#DejaVuSans-39" x="594.970703"/>
      <use xlink:href="#DejaVuSans-65" x="658.59375"/>
      <use xlink:href="#DejaVuSans-2d" x="720.117188"/>
      <use xlink:href="#DejaVuSans-30" x="756.201172"/>
      <use xlink:href="#DejaVuSans-35" x="819.824219"/>
      <use xlink:href="#DejaVuSans-5d" x="883.447266"/>
     </g>
    </g>
    <g id="line2d_20">
     <path d="M 51.082813 53.25625 
L 61.082813 53.25625 
L 71.082813 53.25625 
" style="fill: none; stroke: #2ca02c; stroke-width: 1.5; stroke-linecap: square"/>
    </g>
    <g id="text_14">
     <!-- P [MSE=0.00973] [$\eta$=0.933] -->
     <g transform="translate(79.082813 56.75625)scale(0.1 -0.1)">
      <defs>
       <path id="DejaVuSans-50" d="M 1259 4147 
L 1259 2394 
L 2053 2394 
Q 2494 2394 2734 2622 
Q 2975 2850 2975 3272 
Q 2975 3691 2734 3919 
Q 2494 4147 2053 4147 
L 1259 4147 
z
M 628 4666 
L 2053 4666 
Q 2838 4666 3239 4311 
Q 3641 3956 3641 3272 
Q 3641 2581 3239 2228 
Q 2838 1875 2053 1875 
L 1259 1875 
L 1259 0 
L 628 0 
L 628 4666 
z
" transform="scale(0.015625)"/>
       <path id="DejaVuSans-37" d="M 525 4666 
L 3525 4666 
L 3525 4397 
L 1831 0 
L 1172 0 
L 2766 4134 
L 525 4134 
L 525 4666 
z
" transform="scale(0.015625)"/>
       <path id="DejaVuSans-33" d="M 2597 2516 
Q 3050 2419 3304 2112 
Q 3559 1806 3559 1356 
Q 3559 666 3084 287 
Q 2609 -91 1734 -91 
Q 1441 -91 1130 -33 
Q 819 25 488 141 
L 488 750 
Q 750 597 1062 519 
Q 1375 441 1716 441 
Q 2309 441 2620 675 
Q 2931 909 2931 1356 
Q 2931 1769 2642 2001 
Q 2353 2234 1838 2234 
L 1294 2234 
L 1294 2753 
L 1863 2753 
Q 2328 2753 2575 2939 
Q 2822 3125 2822 3475 
Q 2822 3834 2567 4026 
Q 2313 4219 1838 4219 
Q 1578 4219 1281 4162 
Q 984 4106 628 3988 
L 628 4550 
Q 988 4650 1302 4700 
Q 1616 4750 1894 4750 
Q 2613 4750 3031 4423 
Q 3450 4097 3450 3541 
Q 3450 3153 3228 2886 
Q 3006 2619 2597 2516 
z
" transform="scale(0.015625)"/>
       <path id="DejaVuSans-Oblique-3b7" d="M 3703 2113 
L 3034 -1331 
L 2459 -1331 
L 3125 2094 
Q 3222 2591 3075 2838 
Q 2931 3084 2544 3084 
Q 2078 3084 1750 2788 
Q 1425 2491 1325 1978 
L 941 0 
L 363 0 
L 1044 3500 
L 1622 3500 
L 1516 2956 
Q 1781 3272 2094 3428 
Q 2403 3584 2769 3584 
Q 3372 3584 3609 3213 
Q 3844 2838 3703 2113 
z
" transform="scale(0.015625)"/>
      </defs>
      <use xlink:href="#DejaVuSans-50" transform="translate(0 0.015625)"/>
      <use xlink:href="#DejaVuSans-20" transform="translate(60.302734 0.015625)"/>
      <use xlink:href="#DejaVuSans-5b" transform="translate(92.089844 0.015625)"/>
      <use xlink:href="#DejaVuSans-4d" transform="translate(131.103516 0.015625)"/>
      <use xlink:href="#DejaVuSans-53" transform="translate(217.382812 0.015625)"/>
      <use xlink:href="#DejaVuSans-45" transform="translate(280.859375 0.015625)"/>
      <use xlink:href="#DejaVuSans-3d" transform="translate(344.042969 0.015625)"/>
      <use xlink:href="#DejaVuSans-30" transform="translate(427.832031 0.015625)"/>
      <use xlink:href="#DejaVuSans-2e" transform="translate(491.455078 0.015625)"/>
      <use xlink:href="#DejaVuSans-30" transform="translate(523.242188 0.015625)"/>
      <use xlink:href="#DejaVuSans-30" transform="translate(586.865234 0.015625)"/>
      <use xlink:href="#DejaVuSans-39" transform="translate(650.488281 0.015625)"/>
      <use xlink:href="#DejaVuSans-37" transform="translate(714.111328 0.015625)"/>
      <use xlink:href="#DejaVuSans-33" transform="translate(777.734375 0.015625)"/>
      <use xlink:href="#DejaVuSans-5d" transform="translate(841.357422 0.015625)"/>
      <use xlink:href="#DejaVuSans-20" transform="translate(880.371094 0.015625)"/>
      <use xlink:href="#DejaVuSans-5b" transform="translate(912.158203 0.015625)"/>
      <use xlink:href="#DejaVuSans-Oblique-3b7" transform="translate(951.171875 0.015625)"/>
      <use xlink:href="#DejaVuSans-3d" transform="translate(1014.550781 0.015625)"/>
      <use xlink:href="#DejaVuSans-30" transform="translate(1098.339844 0.015625)"/>
      <use xlink:href="#DejaVuSans-2e" transform="translate(1161.962891 0.015625)"/>
      <use xlink:href="#DejaVuSans-39" transform="translate(1193.75 0.015625)"/>
      <use xlink:href="#DejaVuSans-33" transform="translate(1257.373047 0.015625)"/>
      <use xlink:href="#DejaVuSans-33" transform="translate(1320.996094 0.015625)"/>
      <use xlink:href="#DejaVuSans-5d" transform="translate(1384.619141 0.015625)"/>
     </g>
    </g>
    <g id="line2d_21">
     <path d="M 51.082813 67.95625 
L 61.082813 67.95625 
L 71.082813 67.95625 
" style="fill: none; stroke: #d62728; stroke-width: 1.5; stroke-linecap: square"/>
    </g>
    <g id="text_15">
     <!-- M [MSE=0.00744] [$\eta$=0.933] -->
     <g transform="translate(79.082813 71.45625)scale(0.1 -0.1)">
      <use xlink:href="#DejaVuSans-4d" transform="translate(0 0.015625)"/>
      <use xlink:href="#DejaVuSans-20" transform="translate(86.279297 0.015625)"/>
      <use xlink:href="#DejaVuSans-5b" transform="translate(118.066406 0.015625)"/>
      <use xlink:href="#DejaVuSans-4d" transform="translate(157.080078 0.015625)"/>
      <use xlink:href="#DejaVuSans-53" transform="translate(243.359375 0.015625)"/>
      <use xlink:href="#DejaVuSans-45" transform="translate(306.835938 0.015625)"/>
      <use xlink:href="#DejaVuSans-3d" transform="translate(370.019531 0.015625)"/>
      <use xlink:href="#DejaVuSans-30" transform="translate(453.808594 0.015625)"/>
      <use xlink:href="#DejaVuSans-2e" transform="translate(517.431641 0.015625)"/>
      <use xlink:href="#DejaVuSans-30" transform="translate(549.21875 0.015625)"/>
      <use xlink:href="#DejaVuSans-30" transform="translate(612.841797 0.015625)"/>
      <use xlink:href="#DejaVuSans-37" transform="translate(676.464844 0.015625)"/>
      <use xlink:href="#DejaVuSans-34" transform="translate(740.087891 0.015625)"/>
      <use xlink:href="#DejaVuSans-34" transform="translate(803.710938 0.015625)"/>
      <use xlink:href="#DejaVuSans-5d" transform="translate(867.333984 0.015625)"/>
      <use xlink:href="#DejaVuSans-20" transform="translate(906.347656 0.015625)"/>
      <use xlink:href="#DejaVuSans-5b" transform="translate(938.134766 0.015625)"/>
      <use xlink:href="#DejaVuSans-Oblique-3b7" transform="translate(977.148438 0.015625)"/>
      <use xlink:href="#DejaVuSans-3d" transform="translate(1040.527344 0.015625)"/>
      <use xlink:href="#DejaVuSans-30" transform="translate(1124.316406 0.015625)"/>
      <use xlink:href="#DejaVuSans-2e" transform="translate(1187.939453 0.015625)"/>
      <use xlink:href="#DejaVuSans-39" transform="translate(1219.726562 0.015625)"/>
      <use xlink:href="#DejaVuSans-33" transform="translate(1283.349609 0.015625)"/>
      <use xlink:href="#DejaVuSans-33" transform="translate(1346.972656 0.015625)"/>
      <use xlink:href="#DejaVuSans-5d" transform="translate(1410.595703 0.015625)"/>
     </g>
    </g>
    <g id="line2d_22">
     <path d="M 51.082813 82.65625 
L 61.082813 82.65625 
L 71.082813 82.65625 
" style="fill: none; stroke: #9467bd; stroke-width: 1.5; stroke-linecap: square"/>
    </g>
    <g id="text_16">
     <!-- S [MSE=0.00687] [$\eta$=0.187] -->
     <g transform="translate(79.082813 86.15625)scale(0.1 -0.1)">
      <use xlink:href="#DejaVuSans-53" transform="translate(0 0.015625)"/>
      <use xlink:href="#DejaVuSans-20" transform="translate(63.476562 0.015625)"/>
      <use xlink:href="#DejaVuSans-5b" transform="translate(95.263672 0.015625)"/>
      <use xlink:href="#DejaVuSans-4d" transform="translate(134.277344 0.015625)"/>
      <use xlink:href="#DejaVuSans-53" transform="translate(220.556641 0.015625)"/>
      <use xlink:href="#DejaVuSans-45" transform="translate(284.033203 0.015625)"/>
      <use xlink:href="#DejaVuSans-3d" transform="translate(347.216797 0.015625)"/>
      <use xlink:href="#DejaVuSans-30" transform="translate(431.005859 0.015625)"/>
      <use xlink:href="#DejaVuSans-2e" transform="translate(494.628906 0.015625)"/>
      <use xlink:href="#DejaVuSans-30" transform="translate(526.416016 0.015625)"/>
      <use xlink:href="#DejaVuSans-30" transform="translate(590.039062 0.015625)"/>
      <use xlink:href="#DejaVuSans-36" transform="translate(653.662109 0.015625)"/>
      <use xlink:href="#DejaVuSans-38" transform="translate(717.285156 0.015625)"/>
      <use xlink:href="#DejaVuSans-37" transform="translate(780.908203 0.015625)"/>
      <use xlink:href="#DejaVuSans-5d" transform="translate(844.53125 0.015625)"/>
      <use xlink:href="#DejaVuSans-20" transform="translate(883.544922 0.015625)"/>
      <use xlink:href="#DejaVuSans-5b" transform="translate(915.332031 0.015625)"/>
      <use xlink:href="#DejaVuSans-Oblique-3b7" transform="translate(954.345703 0.015625)"/>
      <use xlink:href="#DejaVuSans-3d" transform="translate(1017.724609 0.015625)"/>
      <use xlink:href="#DejaVuSans-30" transform="translate(1101.513672 0.015625)"/>
      <use xlink:href="#DejaVuSans-2e" transform="translate(1165.136719 0.015625)"/>
      <use xlink:href="#DejaVuSans-31" transform="translate(1196.923828 0.015625)"/>
      <use xlink:href="#DejaVuSans-38" transform="translate(1260.546875 0.015625)"/>
      <use xlink:href="#DejaVuSans-37" transform="translate(1324.169922 0.015625)"/>
      <use xlink:href="#DejaVuSans-5d" transform="translate(1387.792969 0.015625)"/>
     </g>
    </g>
    <g id="line2d_23">
     <path d="M 51.082813 97.35625 
L 61.082813 97.35625 
L 71.082813 97.35625 
" style="fill: none; stroke: #8c564b; stroke-width: 1.5; stroke-linecap: square"/>
    </g>
    <g id="text_17">
     <!-- M + S [MSE=0.00512] [$\eta$=0.87] -->
     <g transform="translate(79.082813 100.85625)scale(0.1 -0.1)">
      <defs>
       <path id="DejaVuSans-2b" d="M 2944 4013 
L 2944 2272 
L 4684 2272 
L 4684 1741 
L 2944 1741 
L 2944 0 
L 2419 0 
L 2419 1741 
L 678 1741 
L 678 2272 
L 2419 2272 
L 2419 4013 
L 2944 4013 
z
" transform="scale(0.015625)"/>
      </defs>
      <use xlink:href="#DejaVuSans-4d" transform="translate(0 0.015625)"/>
      <use xlink:href="#DejaVuSans-20" transform="translate(86.279297 0.015625)"/>
      <use xlink:href="#DejaVuSans-2b" transform="translate(118.066406 0.015625)"/>
      <use xlink:href="#DejaVuSans-20" transform="translate(201.855469 0.015625)"/>
      <use xlink:href="#DejaVuSans-53" transform="translate(233.642578 0.015625)"/>
      <use xlink:href="#DejaVuSans-20" transform="translate(297.119141 0.015625)"/>
      <use xlink:href="#DejaVuSans-5b" transform="translate(328.90625 0.015625)"/>
      <use xlink:href="#DejaVuSans-4d" transform="translate(367.919922 0.015625)"/>
      <use xlink:href="#DejaVuSans-53" transform="translate(454.199219 0.015625)"/>
      <use xlink:href="#DejaVuSans-45" transform="translate(517.675781 0.015625)"/>
      <use xlink:href="#DejaVuSans-3d" transform="translate(580.859375 0.015625)"/>
      <use xlink:href="#DejaVuSans-30" transform="translate(664.648438 0.015625)"/>
      <use xlink:href="#DejaVuSans-2e" transform="translate(728.271484 0.015625)"/>
      <use xlink:href="#DejaVuSans-30" transform="translate(760.058594 0.015625)"/>
      <use xlink:href="#DejaVuSans-30" transform="translate(823.681641 0.015625)"/>
      <use xlink:href="#DejaVuSans-35" transform="translate(887.304688 0.015625)"/>
      <use xlink:href="#DejaVuSans-31" transform="translate(950.927734 0.015625)"/>
      <use xlink:href="#DejaVuSans-32" transform="translate(1014.550781 0.015625)"/>
      <use xlink:href="#DejaVuSans-5d" transform="translate(1078.173828 0.015625)"/>
      <use xlink:href="#DejaVuSans-20" transform="translate(1117.1875 0.015625)"/>
      <use xlink:href="#DejaVuSans-5b" transform="translate(1148.974609 0.015625)"/>
      <use xlink:href="#DejaVuSans-Oblique-3b7" transform="translate(1187.988281 0.015625)"/>
      <use xlink:href="#DejaVuSans-3d" transform="translate(1251.367188 0.015625)"/>
      <use xlink:href="#DejaVuSans-30" transform="translate(1335.15625 0.015625)"/>
      <use xlink:href="#DejaVuSans-2e" transform="translate(1398.779297 0.015625)"/>
      <use xlink:href="#DejaVuSans-38" transform="translate(1427.941406 0.015625)"/>
      <use xlink:href="#DejaVuSans-37" transform="translate(1491.564453 0.015625)"/>
      <use xlink:href="#DejaVuSans-5d" transform="translate(1555.1875 0.015625)"/>
     </g>
    </g>
   </g>
  </g>
 </g>
 <defs>
  <clipPath id="p521505e418">
   <rect x="42.082813" y="10.8" width="407.917187" height="307.321875"/>
  </clipPath>
 </defs>
</svg>
