<?xml version="1.0" encoding="utf-8" standalone="no"?>
<!DOCTYPE svg PUBLIC "-//W3C//DTD SVG 1.1//EN"
  "http://www.w3.org/Graphics/SVG/1.1/DTD/svg11.dtd">
<svg xmlns:xlink="http://www.w3.org/1999/xlink" width="460.8pt" height="345.6pt" viewBox="0 0 460.8 345.6" xmlns="http://www.w3.org/2000/svg" version="1.1">
 <metadata>
  <rdf:RDF xmlns:dc="http://purl.org/dc/elements/1.1/" xmlns:cc="http://creativecommons.org/ns#" xmlns:rdf="http://www.w3.org/1999/02/22-rdf-syntax-ns#">
   <cc:Work>
    <dc:type rdf:resource="http://purl.org/dc/dcmitype/StillImage"/>
    <dc:date>2022-10-26T15:14:50.116402</dc:date>
    <dc:format>image/svg+xml</dc:format>
    <dc:creator>
     <cc:Agent>
      <dc:title>Matplotlib v3.5.3, https://matplotlib.org/</dc:title>
     </cc:Agent>
    </dc:creator>
   </cc:Work>
  </rdf:RDF>
 </metadata>
 <defs>
  <style type="text/css">*{stroke-linejoin: round; stroke-linecap: butt}</style>
 </defs>
 <g id="figure_1">
  <g id="patch_1">
   <path d="M 0 345.6 
L 460.8 345.6 
L 460.8 0 
L 0 0 
z
" style="fill: #ffffff"/>
  </g>
  <g id="axes_1">
   <g id="patch_2">
    <path d="M 42.082813 318.121875 
L 450 318.121875 
L 450 10.8 
L 42.082813 10.8 
z
" style="fill: #ffffff"/>
   </g>
   <g id="matplotlib.axis_1">
    <g id="xtick_1">
     <g id="line2d_1">
      <defs>
       <path id="mdbe132ac4a" d="M 0 0 
L 0 3.5 
" style="stroke: #000000; stroke-width: 0.8"/>
      </defs>
      <g>
       <use xlink:href="#mdbe132ac4a" x="60.624503" y="318.121875" style="stroke: #000000; stroke-width: 0.8"/>
      </g>
     </g>
     <g id="text_1">
      <!-- 0.0 -->
      <g transform="translate(52.67294 332.720312)scale(0.1 -0.1)">
       <defs>
        <path id="DejaVuSans-30" d="M 2034 4250 
Q 1547 4250 1301 3770 
Q 1056 3291 1056 2328 
Q 1056 1369 1301 889 
Q 1547 409 2034 409 
Q 2525 409 2770 889 
Q 3016 1369 3016 2328 
Q 3016 3291 2770 3770 
Q 2525 4250 2034 4250 
z
M 2034 4750 
Q 2819 4750 3233 4129 
Q 3647 3509 3647 2328 
Q 3647 1150 3233 529 
Q 2819 -91 2034 -91 
Q 1250 -91 836 529 
Q 422 1150 422 2328 
Q 422 3509 836 4129 
Q 1250 4750 2034 4750 
z
" transform="scale(0.015625)"/>
        <path id="DejaVuSans-2e" d="M 684 794 
L 1344 794 
L 1344 0 
L 684 0 
L 684 794 
z
" transform="scale(0.015625)"/>
       </defs>
       <use xlink:href="#DejaVuSans-30"/>
       <use xlink:href="#DejaVuSans-2e" x="63.623047"/>
       <use xlink:href="#DejaVuSans-30" x="95.410156"/>
      </g>
     </g>
    </g>
    <g id="xtick_2">
     <g id="line2d_2">
      <g>
       <use xlink:href="#mdbe132ac4a" x="134.791264" y="318.121875" style="stroke: #000000; stroke-width: 0.8"/>
      </g>
     </g>
     <g id="text_2">
      <!-- 0.2 -->
      <g transform="translate(126.839702 332.720312)scale(0.1 -0.1)">
       <defs>
        <path id="DejaVuSans-32" d="M 1228 531 
L 3431 531 
L 3431 0 
L 469 0 
L 469 531 
Q 828 903 1448 1529 
Q 2069 2156 2228 2338 
Q 2531 2678 2651 2914 
Q 2772 3150 2772 3378 
Q 2772 3750 2511 3984 
Q 2250 4219 1831 4219 
Q 1534 4219 1204 4116 
Q 875 4013 500 3803 
L 500 4441 
Q 881 4594 1212 4672 
Q 1544 4750 1819 4750 
Q 2544 4750 2975 4387 
Q 3406 4025 3406 3419 
Q 3406 3131 3298 2873 
Q 3191 2616 2906 2266 
Q 2828 2175 2409 1742 
Q 1991 1309 1228 531 
z
" transform="scale(0.015625)"/>
       </defs>
       <use xlink:href="#DejaVuSans-30"/>
       <use xlink:href="#DejaVuSans-2e" x="63.623047"/>
       <use xlink:href="#DejaVuSans-32" x="95.410156"/>
      </g>
     </g>
    </g>
    <g id="xtick_3">
     <g id="line2d_3">
      <g>
       <use xlink:href="#mdbe132ac4a" x="208.958026" y="318.121875" style="stroke: #000000; stroke-width: 0.8"/>
      </g>
     </g>
     <g id="text_3">
      <!-- 0.4 -->
      <g transform="translate(201.006463 332.720312)scale(0.1 -0.1)">
       <defs>
        <path id="DejaVuSans-34" d="M 2419 4116 
L 825 1625 
L 2419 1625 
L 2419 4116 
z
M 2253 4666 
L 3047 4666 
L 3047 1625 
L 3713 1625 
L 3713 1100 
L 3047 1100 
L 3047 0 
L 2419 0 
L 2419 1100 
L 313 1100 
L 313 1709 
L 2253 4666 
z
" transform="scale(0.015625)"/>
       </defs>
       <use xlink:href="#DejaVuSans-30"/>
       <use xlink:href="#DejaVuSans-2e" x="63.623047"/>
       <use xlink:href="#DejaVuSans-34" x="95.410156"/>
      </g>
     </g>
    </g>
    <g id="xtick_4">
     <g id="line2d_4">
      <g>
       <use xlink:href="#mdbe132ac4a" x="283.124787" y="318.121875" style="stroke: #000000; stroke-width: 0.8"/>
      </g>
     </g>
     <g id="text_4">
      <!-- 0.6 -->
      <g transform="translate(275.173224 332.720312)scale(0.1 -0.1)">
       <defs>
        <path id="DejaVuSans-36" d="M 2113 2584 
Q 1688 2584 1439 2293 
Q 1191 2003 1191 1497 
Q 1191 994 1439 701 
Q 1688 409 2113 409 
Q 2538 409 2786 701 
Q 3034 994 3034 1497 
Q 3034 2003 2786 2293 
Q 2538 2584 2113 2584 
z
M 3366 4563 
L 3366 3988 
Q 3128 4100 2886 4159 
Q 2644 4219 2406 4219 
Q 1781 4219 1451 3797 
Q 1122 3375 1075 2522 
Q 1259 2794 1537 2939 
Q 1816 3084 2150 3084 
Q 2853 3084 3261 2657 
Q 3669 2231 3669 1497 
Q 3669 778 3244 343 
Q 2819 -91 2113 -91 
Q 1303 -91 875 529 
Q 447 1150 447 2328 
Q 447 3434 972 4092 
Q 1497 4750 2381 4750 
Q 2619 4750 2861 4703 
Q 3103 4656 3366 4563 
z
" transform="scale(0.015625)"/>
       </defs>
       <use xlink:href="#DejaVuSans-30"/>
       <use xlink:href="#DejaVuSans-2e" x="63.623047"/>
       <use xlink:href="#DejaVuSans-36" x="95.410156"/>
      </g>
     </g>
    </g>
    <g id="xtick_5">
     <g id="line2d_5">
      <g>
       <use xlink:href="#mdbe132ac4a" x="357.291548" y="318.121875" style="stroke: #000000; stroke-width: 0.8"/>
      </g>
     </g>
     <g id="text_5">
      <!-- 0.8 -->
      <g transform="translate(349.339986 332.720312)scale(0.1 -0.1)">
       <defs>
        <path id="DejaVuSans-38" d="M 2034 2216 
Q 1584 2216 1326 1975 
Q 1069 1734 1069 1313 
Q 1069 891 1326 650 
Q 1584 409 2034 409 
Q 2484 409 2743 651 
Q 3003 894 3003 1313 
Q 3003 1734 2745 1975 
Q 2488 2216 2034 2216 
z
M 1403 2484 
Q 997 2584 770 2862 
Q 544 3141 544 3541 
Q 544 4100 942 4425 
Q 1341 4750 2034 4750 
Q 2731 4750 3128 4425 
Q 3525 4100 3525 3541 
Q 3525 3141 3298 2862 
Q 3072 2584 2669 2484 
Q 3125 2378 3379 2068 
Q 3634 1759 3634 1313 
Q 3634 634 3220 271 
Q 2806 -91 2034 -91 
Q 1263 -91 848 271 
Q 434 634 434 1313 
Q 434 1759 690 2068 
Q 947 2378 1403 2484 
z
M 1172 3481 
Q 1172 3119 1398 2916 
Q 1625 2713 2034 2713 
Q 2441 2713 2670 2916 
Q 2900 3119 2900 3481 
Q 2900 3844 2670 4047 
Q 2441 4250 2034 4250 
Q 1625 4250 1398 4047 
Q 1172 3844 1172 3481 
z
" transform="scale(0.015625)"/>
       </defs>
       <use xlink:href="#DejaVuSans-30"/>
       <use xlink:href="#DejaVuSans-2e" x="63.623047"/>
       <use xlink:href="#DejaVuSans-38" x="95.410156"/>
      </g>
     </g>
    </g>
    <g id="xtick_6">
     <g id="line2d_6">
      <g>
       <use xlink:href="#mdbe132ac4a" x="431.45831" y="318.121875" style="stroke: #000000; stroke-width: 0.8"/>
      </g>
     </g>
     <g id="text_6">
      <!-- 1.0 -->
      <g transform="translate(423.506747 332.720312)scale(0.1 -0.1)">
       <defs>
        <path id="DejaVuSans-31" d="M 794 531 
L 1825 531 
L 1825 4091 
L 703 3866 
L 703 4441 
L 1819 4666 
L 2450 4666 
L 2450 531 
L 3481 531 
L 3481 0 
L 794 0 
L 794 531 
z
" transform="scale(0.015625)"/>
       </defs>
       <use xlink:href="#DejaVuSans-31"/>
       <use xlink:href="#DejaVuSans-2e" x="63.623047"/>
       <use xlink:href="#DejaVuSans-30" x="95.410156"/>
      </g>
     </g>
    </g>
   </g>
   <g id="matplotlib.axis_2">
    <g id="ytick_1">
     <g id="line2d_7">
      <defs>
       <path id="m7a72ef1c51" d="M 0 0 
L -3.5 0 
" style="stroke: #000000; stroke-width: 0.8"/>
      </defs>
      <g>
       <use xlink:href="#m7a72ef1c51" x="42.082813" y="302.755781" style="stroke: #000000; stroke-width: 0.8"/>
      </g>
     </g>
     <g id="text_7">
      <!-- −0.2 -->
      <g transform="translate(10.8 306.555)scale(0.1 -0.1)">
       <defs>
        <path id="DejaVuSans-2212" d="M 678 2272 
L 4684 2272 
L 4684 1741 
L 678 1741 
L 678 2272 
z
" transform="scale(0.015625)"/>
       </defs>
       <use xlink:href="#DejaVuSans-2212"/>
       <use xlink:href="#DejaVuSans-30" x="83.789062"/>
       <use xlink:href="#DejaVuSans-2e" x="147.412109"/>
       <use xlink:href="#DejaVuSans-32" x="179.199219"/>
      </g>
     </g>
    </g>
    <g id="ytick_2">
     <g id="line2d_8">
      <g>
       <use xlink:href="#m7a72ef1c51" x="42.082813" y="241.291406" style="stroke: #000000; stroke-width: 0.8"/>
      </g>
     </g>
     <g id="text_8">
      <!-- 0.0 -->
      <g transform="translate(19.179688 245.090625)scale(0.1 -0.1)">
       <use xlink:href="#DejaVuSans-30"/>
       <use xlink:href="#DejaVuSans-2e" x="63.623047"/>
       <use xlink:href="#DejaVuSans-30" x="95.410156"/>
      </g>
     </g>
    </g>
    <g id="ytick_3">
     <g id="line2d_9">
      <g>
       <use xlink:href="#m7a72ef1c51" x="42.082813" y="179.827031" style="stroke: #000000; stroke-width: 0.8"/>
      </g>
     </g>
     <g id="text_9">
      <!-- 0.2 -->
      <g transform="translate(19.179688 183.62625)scale(0.1 -0.1)">
       <use xlink:href="#DejaVuSans-30"/>
       <use xlink:href="#DejaVuSans-2e" x="63.623047"/>
       <use xlink:href="#DejaVuSans-32" x="95.410156"/>
      </g>
     </g>
    </g>
    <g id="ytick_4">
     <g id="line2d_10">
      <g>
       <use xlink:href="#m7a72ef1c51" x="42.082813" y="118.362656" style="stroke: #000000; stroke-width: 0.8"/>
      </g>
     </g>
     <g id="text_10">
      <!-- 0.4 -->
      <g transform="translate(19.179688 122.161875)scale(0.1 -0.1)">
       <use xlink:href="#DejaVuSans-30"/>
       <use xlink:href="#DejaVuSans-2e" x="63.623047"/>
       <use xlink:href="#DejaVuSans-34" x="95.410156"/>
      </g>
     </g>
    </g>
    <g id="ytick_5">
     <g id="line2d_11">
      <g>
       <use xlink:href="#m7a72ef1c51" x="42.082813" y="56.898281" style="stroke: #000000; stroke-width: 0.8"/>
      </g>
     </g>
     <g id="text_11">
      <!-- 0.6 -->
      <g transform="translate(19.179688 60.6975)scale(0.1 -0.1)">
       <use xlink:href="#DejaVuSans-30"/>
       <use xlink:href="#DejaVuSans-2e" x="63.623047"/>
       <use xlink:href="#DejaVuSans-36" x="95.410156"/>
      </g>
     </g>
    </g>
   </g>
   <g id="line2d_12">
    <path d="M 60.624503 241.290678 
L 127.441405 241.395031 
L 135.97912 241.650725 
L 142.289605 242.054998 
L 147.115271 242.569349 
L 151.569731 243.269092 
L 155.281781 244.065976 
L 158.622626 244.986134 
L 161.963471 246.130939 
L 165.304316 247.530422 
L 168.273956 249.009828 
L 171.243596 250.726283 
L 174.213236 252.68908 
L 177.182877 254.900376 
L 180.523722 257.676463 
L 184.235772 261.088488 
L 188.319027 265.167092 
L 194.629512 271.843543 
L 200.197587 277.640143 
L 203.538432 280.828698 
L 206.508072 283.346491 
L 208.735303 284.978648 
L 210.962533 286.347083 
L 212.818558 287.258757 
L 214.674583 287.940827 
L 216.530608 288.374769 
L 218.386633 288.544141 
L 219.871453 288.479607 
L 221.356273 288.230689 
L 222.841093 287.792525 
L 224.325913 287.16145 
L 226.181938 286.097745 
L 228.037963 284.726943 
L 229.893988 283.050158 
L 231.750013 281.071551 
L 233.606038 278.798224 
L 235.833268 275.695306 
L 238.060498 272.204291 
L 240.658934 267.676662 
L 243.257369 262.70609 
L 246.227009 256.553017 
L 249.567854 249.132417 
L 253.651109 239.52461 
L 259.590389 224.926611 
L 271.840155 194.711277 
L 277.40823 181.651501 
L 282.6051 170.051342 
L 287.430765 159.833412 
L 292.25643 150.161999 
L 296.71089 141.723485 
L 301.165351 133.760992 
L 305.248606 126.892939 
L 309.331861 120.457293 
L 313.043911 115.005177 
L 316.755961 109.959162 
L 320.096806 105.789214 
L 323.437651 101.994937 
L 326.407291 98.956541 
L 329.376931 96.249606 
L 331.975366 94.165032 
L 334.573802 92.355508 
L 337.172237 90.829588 
L 339.399467 89.753033 
L 341.626697 88.894214 
L 343.853927 88.256269 
L 346.081157 87.841511 
L 348.308387 87.651388 
L 350.535617 87.686449 
L 352.762847 87.946322 
L 354.990077 88.429702 
L 357.217307 89.134351 
L 359.444537 90.057103 
L 361.671767 91.19388 
L 364.270203 92.783948 
L 366.868638 94.649176 
L 369.467073 96.778702 
L 372.436713 99.520283 
L 375.406353 102.570649 
L 378.747198 106.343552 
L 382.088043 110.444669 
L 385.800093 115.341966 
L 390.254553 121.620155 
L 395.451424 129.3799 
L 402.133114 139.814953 
L 421.435774 170.254475 
L 427.00385 178.492683 
L 431.45831 184.762706 
L 431.45831 184.762706 
" clip-path="url(#p6b5e494bef)" style="fill: none; stroke: #1f77b4; stroke-width: 1.5; stroke-linecap: square"/>
   </g>
   <g id="line2d_13">
    <path d="M 60.624503 247.361854 
L 62.109323 245.330991 
L 63.594143 243.643361 
L 65.078963 242.266348 
L 66.563783 241.168767 
L 68.048603 240.320905 
L 69.533423 239.69455 
L 71.389448 239.182579 
L 73.245473 238.926344 
L 75.101498 238.880821 
L 77.328728 239.046446 
L 79.927163 239.462802 
L 83.639214 240.30829 
L 92.919339 242.546541 
L 96.631389 243.159221 
L 99.972234 243.486684 
L 103.313079 243.586699 
L 106.653924 243.464467 
L 110.365974 243.094315 
L 114.44923 242.458123 
L 120.38851 241.274722 
L 128.55502 239.655816 
L 132.638275 239.075692 
L 135.97912 238.803841 
L 139.319965 238.762159 
L 142.289605 238.948506 
L 145.259246 239.366956 
L 148.228886 240.032937 
L 151.198526 240.956188 
L 154.168166 242.14059 
L 157.137806 243.584102 
L 160.107446 245.27881 
L 163.448291 247.468421 
L 166.789136 249.930866 
L 170.501186 252.94305 
L 174.955646 256.858641 
L 181.266132 262.737249 
L 189.432642 270.320046 
L 193.515897 273.831827 
L 196.856742 276.451911 
L 199.826382 278.532978 
L 202.796022 280.334917 
L 205.394457 281.649756 
L 207.992893 282.692612 
L 210.220123 283.351472 
L 212.447353 283.778439 
L 214.674583 283.960655 
L 216.901813 283.88662 
L 218.757838 283.621876 
L 220.613863 283.167154 
L 222.469888 282.518198 
L 224.697118 281.47823 
L 226.924348 280.14914 
L 229.151578 278.528155 
L 231.378808 276.614228 
L 233.606038 274.408049 
L 235.833268 271.912042 
L 238.431704 268.639354 
L 241.030139 264.987404 
L 243.628574 260.968768 
L 246.598214 255.947101 
L 249.567854 250.494577 
L 252.908699 243.885722 
L 256.620749 236.014393 
L 260.704004 226.806372 
L 265.529669 215.337326 
L 271.840155 199.709818 
L 286.31715 163.642756 
L 291.142815 152.300353 
L 295.22607 143.209367 
L 298.93812 135.43496 
L 302.650171 128.192205 
L 305.991016 122.17136 
L 308.960656 117.240752 
L 311.930296 112.723335 
L 314.899936 108.630131 
L 317.498371 105.401545 
L 320.096806 102.50373 
L 322.695241 99.9352 
L 325.293676 97.691962 
L 327.892111 95.767694 
L 330.490546 94.153976 
L 333.088982 92.840548 
L 335.316212 91.944851 
L 337.914647 91.156872 
L 340.513082 90.632522 
L 343.111517 90.357501 
L 345.709952 90.317374 
L 348.308387 90.497975 
L 350.906822 90.88583 
L 353.876462 91.567058 
L 356.846102 92.486831 
L 359.815742 93.632397 
L 363.156587 95.180254 
L 366.497433 96.997132 
L 369.838278 99.085161 
L 373.179123 101.454621 
L 376.519968 104.123733 
L 379.489608 106.768186 
L 382.459248 109.690907 
L 385.428888 112.915618 
L 388.398528 116.466368 
L 391.368168 120.365124 
L 394.337808 124.62871 
L 397.307449 129.264998 
L 400.648294 134.918496 
L 404.360344 141.697027 
L 408.814804 150.356753 
L 416.610109 165.648199 
L 419.208544 170.232948 
L 421.064569 173.145082 
L 422.920594 175.6364 
L 424.405414 177.244351 
L 425.519029 178.179337 
L 426.632645 178.845366 
L 427.74626 179.206401 
L 428.48867 179.258523 
L 429.23108 179.145509 
L 429.97349 178.8544 
L 430.7159 178.371573 
L 431.45831 177.682711 
L 431.45831 177.682711 
" clip-path="url(#p6b5e494bef)" style="fill: none; stroke: #ff7f0e; stroke-width: 1.5; stroke-linecap: square"/>
   </g>
   <g id="line2d_14">
    <path d="M 60.624503 269.160225 
L 73.616678 267.239044 
L 85.866444 265.202264 
L 97.373799 263.069581 
L 108.509949 260.784103 
L 119.274895 258.348839 
L 129.668635 255.76845 
L 139.69117 253.049369 
L 149.342501 250.199913 
L 158.622626 247.230362 
L 167.531546 244.152996 
L 176.440467 240.839109 
L 184.978182 237.427778 
L 193.515897 233.772747 
L 201.682407 230.036741 
L 209.848918 226.055165 
L 218.015428 221.817897 
L 225.810733 217.526443 
L 233.606038 212.987401 
L 241.401344 208.196229 
L 249.196649 203.150872 
L 257.363159 197.593948 
L 265.529669 191.765558 
L 274.067385 185.395593 
L 282.976305 178.472391 
L 292.99884 170.396806 
L 305.991016 159.614025 
L 327.149701 142.023285 
L 334.945007 135.851684 
L 341.255492 131.123335 
L 346.823567 127.228022 
L 351.649232 124.120091 
L 356.103692 121.520356 
L 360.186947 119.40506 
L 363.898998 117.738555 
L 367.239843 116.47517 
L 370.580688 115.462235 
L 373.550328 114.79424 
L 376.519968 114.366391 
L 379.118403 114.206231 
L 381.716838 114.262279 
L 384.315273 114.550964 
L 386.913708 115.089609 
L 389.140938 115.764065 
L 391.368168 116.647631 
L 393.595398 117.752919 
L 395.822629 119.09311 
L 398.049859 120.681973 
L 400.277089 122.533885 
L 402.504319 124.663856 
L 404.731549 127.087553 
L 406.958779 129.821317 
L 409.186009 132.882196 
L 411.413239 136.287964 
L 413.640469 140.057149 
L 415.867699 144.20906 
L 418.466134 149.563563 
L 421.064569 155.499798 
L 423.663004 162.052764 
L 426.261439 169.259134 
L 428.859875 177.157324 
L 431.45831 185.787563 
L 431.45831 185.787563 
" clip-path="url(#p6b5e494bef)" style="fill: none; stroke: #2ca02c; stroke-width: 1.5; stroke-linecap: square"/>
   </g>
   <g id="line2d_15">
    <path d="M 60.624503 261.031196 
L 72.503063 261.595663 
L 83.639214 261.905707 
L 94.032954 261.9792 
L 104.055489 261.82929 
L 113.335615 261.476138 
L 122.244535 260.923539 
L 130.78225 260.179155 
L 138.94876 259.253017 
L 147.115271 258.099922 
L 154.910576 256.770655 
L 162.334676 255.281487 
L 169.758776 253.559136 
L 176.811672 251.692577 
L 183.864567 249.587464 
L 190.546257 247.360253 
L 197.227947 244.894054 
L 203.538432 242.334481 
L 209.848918 239.54083 
L 216.159403 236.503342 
L 222.469888 233.212755 
L 228.780373 229.660537 
L 235.090858 225.839153 
L 241.401344 221.742386 
L 247.711829 217.365707 
L 254.022314 212.706714 
L 260.332799 207.765637 
L 266.643284 202.545919 
L 273.324975 196.723671 
L 280.006665 190.611732 
L 287.430765 183.507289 
L 295.22607 175.737214 
L 304.506196 166.165188 
L 333.088982 136.417288 
L 339.028262 130.710447 
L 343.853927 126.360622 
L 348.308387 122.641299 
L 352.020437 119.806387 
L 355.732487 117.255664 
L 359.073332 115.240064 
L 362.042972 113.700887 
L 365.012613 112.427248 
L 367.611048 111.553174 
L 370.209483 110.924848 
L 372.436713 110.598286 
L 374.663943 110.482585 
L 376.891173 110.592855 
L 379.118403 110.944943 
L 381.345633 111.555468 
L 383.201658 112.274195 
L 385.057683 113.194989 
L 386.913708 114.328779 
L 388.769733 115.686923 
L 390.625758 117.281216 
L 392.481783 119.123908 
L 394.709013 121.680964 
L 396.936244 124.636949 
L 399.163474 128.015794 
L 401.390704 131.842509 
L 403.617934 136.143218 
L 405.845164 140.945202 
L 408.072394 146.276941 
L 410.299624 152.168155 
L 412.526854 158.649853 
L 414.754084 165.754376 
L 416.981314 173.515443 
L 419.579749 183.446794 
L 422.178184 194.378043 
L 424.776619 206.370406 
L 427.375055 219.488066 
L 429.97349 233.798293 
L 431.45831 242.537989 
L 431.45831 242.537989 
" clip-path="url(#p6b5e494bef)" style="fill: none; stroke: #d62728; stroke-width: 1.5; stroke-linecap: square"/>
   </g>
   <g id="line2d_16">
    <path d="M 60.624503 250.554192 
L 71.018243 251.985257 
L 81.040778 253.138949 
L 90.692109 254.02149 
L 99.972234 254.640656 
L 108.881154 255.005866 
L 117.41887 255.128269 
L 125.58538 255.020803 
L 133.380685 254.698233 
L 140.804785 254.177144 
L 148.228886 253.433171 
L 155.281781 252.506449 
L 162.334676 251.351787 
L 169.016366 250.034926 
L 175.698057 248.488491 
L 182.008542 246.805638 
L 188.319027 244.895557 
L 194.629512 242.74705 
L 200.568792 240.497056 
L 206.508072 238.016593 
L 212.447353 235.296542 
L 218.386633 232.328118 
L 224.325913 229.103044 
L 230.265193 225.613747 
L 236.204473 221.853602 
L 242.143754 217.817199 
L 248.083034 213.500662 
L 254.022314 208.902012 
L 259.961594 204.021578 
L 265.900874 198.862472 
L 272.21136 193.082838 
L 278.521845 187.008505 
L 285.203535 180.276336 
L 292.627635 172.470589 
L 300.794145 163.555332 
L 311.559091 151.450649 
L 328.634521 132.229195 
L 335.316212 125.05446 
L 340.884287 119.394093 
L 345.709952 114.812947 
L 349.793207 111.235198 
L 353.505257 108.269164 
L 356.846102 105.871627 
L 359.815742 103.986724 
L 362.785382 102.361725 
L 365.383818 101.17576 
L 367.982253 100.231534 
L 370.209483 99.631114 
L 372.436713 99.238792 
L 374.663943 99.069757 
L 376.891173 99.139929 
L 379.118403 99.465995 
L 380.974428 99.945774 
L 382.830453 100.625929 
L 384.686478 101.517416 
L 386.542503 102.631616 
L 388.398528 103.980344 
L 390.254553 105.575863 
L 392.110578 107.430898 
L 393.966603 109.55865 
L 396.193834 112.491254 
L 398.421064 115.860937 
L 400.648294 119.693409 
L 402.875524 124.015505 
L 405.102754 128.855224 
L 407.329984 134.241772 
L 409.557214 140.205604 
L 411.784444 146.778468 
L 414.011674 153.99345 
L 416.238904 161.885019 
L 418.837339 171.994957 
L 421.435774 183.134295 
L 424.034209 195.365449 
L 426.632645 208.753799 
L 429.23108 223.367807 
L 431.45831 236.923855 
L 431.45831 236.923855 
" clip-path="url(#p6b5e494bef)" style="fill: none; stroke: #9467bd; stroke-width: 1.5; stroke-linecap: square"/>
   </g>
   <g id="line2d_17">
    <path d="M 60.624503 209.285025 
L 69.533423 216.361834 
L 77.699933 222.574428 
L 85.495239 228.239248 
L 92.919339 233.374186 
L 100.343439 238.235657 
L 107.396334 242.581666 
L 114.078025 246.436277 
L 120.38851 249.825926 
L 126.698995 252.955849 
L 132.638275 255.649466 
L 138.20635 257.939352 
L 143.774425 259.988564 
L 148.971296 261.672438 
L 154.168166 263.12415 
L 158.993831 264.254311 
L 163.819496 265.165048 
L 168.645161 265.846748 
L 173.099621 266.264245 
L 177.554082 266.470406 
L 182.008542 266.457313 
L 186.463002 266.216996 
L 190.917462 265.741459 
L 195.000717 265.092104 
L 199.083972 264.232296 
L 203.167227 263.156011 
L 207.250483 261.857335 
L 211.333738 260.330502 
L 215.416993 258.569942 
L 219.500248 256.570325 
L 223.583503 254.326613 
L 227.666758 251.834121 
L 231.750013 249.088576 
L 235.833268 246.086189 
L 239.916524 242.823729 
L 244.370984 238.965042 
L 248.825444 234.791405 
L 253.279904 230.301631 
L 257.734364 225.495879 
L 262.188824 220.375833 
L 267.014489 214.47844 
L 271.840155 208.223115 
L 277.037025 201.097758 
L 282.233895 193.585608 
L 287.80197 185.132688 
L 293.74125 175.693587 
L 300.051735 165.24462 
L 307.475836 152.50435 
L 317.498371 134.820383 
L 331.604161 109.963495 
L 337.914647 99.317516 
L 342.740312 91.574358 
L 347.194772 84.846554 
L 350.906822 79.625629 
L 354.247667 75.285293 
L 357.217307 71.756511 
L 360.186947 68.579013 
L 362.785382 66.120163 
L 365.383818 63.9929 
L 367.611048 62.457574 
L 369.838278 61.210391 
L 371.694303 60.407112 
L 373.550328 59.832631 
L 375.406353 59.500816 
L 377.262378 59.426068 
L 378.747198 59.561383 
L 380.232018 59.878688 
L 381.716838 60.386134 
L 383.201658 61.092112 
L 384.686478 62.00526 
L 386.171298 63.134474 
L 388.027323 64.863804 
L 389.883348 66.963523 
L 391.739373 69.452766 
L 393.595398 72.351357 
L 395.451424 75.679828 
L 397.307449 79.459439 
L 399.163474 83.712203 
L 401.019499 88.460903 
L 403.246729 94.847233 
L 405.473959 102.024006 
L 407.701189 110.03527 
L 409.928419 118.926886 
L 412.155649 128.746585 
L 414.382879 139.544034 
L 416.610109 151.370897 
L 418.837339 164.280901 
L 421.435774 180.78619 
L 424.034209 198.934384 
L 426.632645 218.822224 
L 429.23108 240.550848 
L 431.45831 260.720491 
L 431.45831 260.720491 
" clip-path="url(#p6b5e494bef)" style="fill: none; stroke: #8c564b; stroke-width: 1.5; stroke-linecap: square"/>
   </g>
   <g id="patch_3">
    <path d="M 42.082813 318.121875 
L 42.082813 10.8 
" style="fill: none; stroke: #000000; stroke-width: 0.8; stroke-linejoin: miter; stroke-linecap: square"/>
   </g>
   <g id="patch_4">
    <path d="M 450 318.121875 
L 450 10.8 
" style="fill: none; stroke: #000000; stroke-width: 0.8; stroke-linejoin: miter; stroke-linecap: square"/>
   </g>
   <g id="patch_5">
    <path d="M 42.082813 318.121875 
L 450 318.121875 
" style="fill: none; stroke: #000000; stroke-width: 0.8; stroke-linejoin: miter; stroke-linecap: square"/>
   </g>
   <g id="patch_6">
    <path d="M 42.082813 10.8 
L 450 10.8 
" style="fill: none; stroke: #000000; stroke-width: 0.8; stroke-linejoin: miter; stroke-linecap: square"/>
   </g>
   <g id="legend_1">
    <g id="patch_7">
     <path d="M 49.082813 106.86875 
L 339.382812 106.86875 
Q 341.382812 106.86875 341.382812 104.86875 
L 341.382812 17.8 
Q 341.382812 15.8 339.382812 15.8 
L 49.082813 15.8 
Q 47.082813 15.8 47.082813 17.8 
L 47.082813 104.86875 
Q 47.082813 106.86875 49.082813 106.86875 
z
" style="fill: #ffffff; opacity: 0.8; stroke: #cccccc; stroke-linejoin: miter"/>
    </g>
    <g id="line2d_18">
     <path d="M 51.082813 23.898438 
L 61.082813 23.898438 
L 71.082813 23.898438 
" style="fill: none; stroke: #1f77b4; stroke-width: 1.5; stroke-linecap: square"/>
    </g>
    <g id="text_12">
     <!-- f(x) -->
     <g transform="translate(79.082813 27.398438)scale(0.1 -0.1)">
      <defs>
       <path id="DejaVuSans-66" d="M 2375 4863 
L 2375 4384 
L 1825 4384 
Q 1516 4384 1395 4259 
Q 1275 4134 1275 3809 
L 1275 3500 
L 2222 3500 
L 2222 3053 
L 1275 3053 
L 1275 0 
L 697 0 
L 697 3053 
L 147 3053 
L 147 3500 
L 697 3500 
L 697 3744 
Q 697 4328 969 4595 
Q 1241 4863 1831 4863 
L 2375 4863 
z
" transform="scale(0.015625)"/>
       <path id="DejaVuSans-28" d="M 1984 4856 
Q 1566 4138 1362 3434 
Q 1159 2731 1159 2009 
Q 1159 1288 1364 580 
Q 1569 -128 1984 -844 
L 1484 -844 
Q 1016 -109 783 600 
Q 550 1309 550 2009 
Q 550 2706 781 3412 
Q 1013 4119 1484 4856 
L 1984 4856 
z
" transform="scale(0.015625)"/>
       <path id="DejaVuSans-78" d="M 3513 3500 
L 2247 1797 
L 3578 0 
L 2900 0 
L 1881 1375 
L 863 0 
L 184 0 
L 1544 1831 
L 300 3500 
L 978 3500 
L 1906 2253 
L 2834 3500 
L 3513 3500 
z
" transform="scale(0.015625)"/>
       <path id="DejaVuSans-29" d="M 513 4856 
L 1013 4856 
Q 1481 4119 1714 3412 
Q 1947 2706 1947 2009 
Q 1947 1309 1714 600 
Q 1481 -109 1013 -844 
L 513 -844 
Q 928 -128 1133 580 
Q 1338 1288 1338 2009 
Q 1338 2731 1133 3434 
Q 928 4138 513 4856 
z
" transform="scale(0.015625)"/>
      </defs>
      <use xlink:href="#DejaVuSans-66"/>
      <use xlink:href="#DejaVuSans-28" x="35.205078"/>
      <use xlink:href="#DejaVuSans-78" x="74.21875"/>
      <use xlink:href="#DejaVuSans-29" x="133.398438"/>
     </g>
    </g>
    <g id="line2d_19">
     <path d="M 51.082813 38.576563 
L 61.082813 38.576563 
L 71.082813 38.576563 
" style="fill: none; stroke: #ff7f0e; stroke-width: 1.5; stroke-linecap: square"/>
    </g>
    <g id="text_13">
     <!-- Analytic [MSE=8.57e-05] -->
     <g transform="translate(79.082813 42.076563)scale(0.1 -0.1)">
      <defs>
       <path id="DejaVuSans-41" d="M 2188 4044 
L 1331 1722 
L 3047 1722 
L 2188 4044 
z
M 1831 4666 
L 2547 4666 
L 4325 0 
L 3669 0 
L 3244 1197 
L 1141 1197 
L 716 0 
L 50 0 
L 1831 4666 
z
" transform="scale(0.015625)"/>
       <path id="DejaVuSans-6e" d="M 3513 2113 
L 3513 0 
L 2938 0 
L 2938 2094 
Q 2938 2591 2744 2837 
Q 2550 3084 2163 3084 
Q 1697 3084 1428 2787 
Q 1159 2491 1159 1978 
L 1159 0 
L 581 0 
L 581 3500 
L 1159 3500 
L 1159 2956 
Q 1366 3272 1645 3428 
Q 1925 3584 2291 3584 
Q 2894 3584 3203 3211 
Q 3513 2838 3513 2113 
z
" transform="scale(0.015625)"/>
       <path id="DejaVuSans-61" d="M 2194 1759 
Q 1497 1759 1228 1600 
Q 959 1441 959 1056 
Q 959 750 1161 570 
Q 1363 391 1709 391 
Q 2188 391 2477 730 
Q 2766 1069 2766 1631 
L 2766 1759 
L 2194 1759 
z
M 3341 1997 
L 3341 0 
L 2766 0 
L 2766 531 
Q 2569 213 2275 61 
Q 1981 -91 1556 -91 
Q 1019 -91 701 211 
Q 384 513 384 1019 
Q 384 1609 779 1909 
Q 1175 2209 1959 2209 
L 2766 2209 
L 2766 2266 
Q 2766 2663 2505 2880 
Q 2244 3097 1772 3097 
Q 1472 3097 1187 3025 
Q 903 2953 641 2809 
L 641 3341 
Q 956 3463 1253 3523 
Q 1550 3584 1831 3584 
Q 2591 3584 2966 3190 
Q 3341 2797 3341 1997 
z
" transform="scale(0.015625)"/>
       <path id="DejaVuSans-6c" d="M 603 4863 
L 1178 4863 
L 1178 0 
L 603 0 
L 603 4863 
z
" transform="scale(0.015625)"/>
       <path id="DejaVuSans-79" d="M 2059 -325 
Q 1816 -950 1584 -1140 
Q 1353 -1331 966 -1331 
L 506 -1331 
L 506 -850 
L 844 -850 
Q 1081 -850 1212 -737 
Q 1344 -625 1503 -206 
L 1606 56 
L 191 3500 
L 800 3500 
L 1894 763 
L 2988 3500 
L 3597 3500 
L 2059 -325 
z
" transform="scale(0.015625)"/>
       <path id="DejaVuSans-74" d="M 1172 4494 
L 1172 3500 
L 2356 3500 
L 2356 3053 
L 1172 3053 
L 1172 1153 
Q 1172 725 1289 603 
Q 1406 481 1766 481 
L 2356 481 
L 2356 0 
L 1766 0 
Q 1100 0 847 248 
Q 594 497 594 1153 
L 594 3053 
L 172 3053 
L 172 3500 
L 594 3500 
L 594 4494 
L 1172 4494 
z
" transform="scale(0.015625)"/>
       <path id="DejaVuSans-69" d="M 603 3500 
L 1178 3500 
L 1178 0 
L 603 0 
L 603 3500 
z
M 603 4863 
L 1178 4863 
L 1178 4134 
L 603 4134 
L 603 4863 
z
" transform="scale(0.015625)"/>
       <path id="DejaVuSans-63" d="M 3122 3366 
L 3122 2828 
Q 2878 2963 2633 3030 
Q 2388 3097 2138 3097 
Q 1578 3097 1268 2742 
Q 959 2388 959 1747 
Q 959 1106 1268 751 
Q 1578 397 2138 397 
Q 2388 397 2633 464 
Q 2878 531 3122 666 
L 3122 134 
Q 2881 22 2623 -34 
Q 2366 -91 2075 -91 
Q 1284 -91 818 406 
Q 353 903 353 1747 
Q 353 2603 823 3093 
Q 1294 3584 2113 3584 
Q 2378 3584 2631 3529 
Q 2884 3475 3122 3366 
z
" transform="scale(0.015625)"/>
       <path id="DejaVuSans-20" transform="scale(0.015625)"/>
       <path id="DejaVuSans-5b" d="M 550 4863 
L 1875 4863 
L 1875 4416 
L 1125 4416 
L 1125 -397 
L 1875 -397 
L 1875 -844 
L 550 -844 
L 550 4863 
z
" transform="scale(0.015625)"/>
       <path id="DejaVuSans-4d" d="M 628 4666 
L 1569 4666 
L 2759 1491 
L 3956 4666 
L 4897 4666 
L 4897 0 
L 4281 0 
L 4281 4097 
L 3078 897 
L 2444 897 
L 1241 4097 
L 1241 0 
L 628 0 
L 628 4666 
z
" transform="scale(0.015625)"/>
       <path id="DejaVuSans-53" d="M 3425 4513 
L 3425 3897 
Q 3066 4069 2747 4153 
Q 2428 4238 2131 4238 
Q 1616 4238 1336 4038 
Q 1056 3838 1056 3469 
Q 1056 3159 1242 3001 
Q 1428 2844 1947 2747 
L 2328 2669 
Q 3034 2534 3370 2195 
Q 3706 1856 3706 1288 
Q 3706 609 3251 259 
Q 2797 -91 1919 -91 
Q 1588 -91 1214 -16 
Q 841 59 441 206 
L 441 856 
Q 825 641 1194 531 
Q 1563 422 1919 422 
Q 2459 422 2753 634 
Q 3047 847 3047 1241 
Q 3047 1584 2836 1778 
Q 2625 1972 2144 2069 
L 1759 2144 
Q 1053 2284 737 2584 
Q 422 2884 422 3419 
Q 422 4038 858 4394 
Q 1294 4750 2059 4750 
Q 2388 4750 2728 4690 
Q 3069 4631 3425 4513 
z
" transform="scale(0.015625)"/>
       <path id="DejaVuSans-45" d="M 628 4666 
L 3578 4666 
L 3578 4134 
L 1259 4134 
L 1259 2753 
L 3481 2753 
L 3481 2222 
L 1259 2222 
L 1259 531 
L 3634 531 
L 3634 0 
L 628 0 
L 628 4666 
z
" transform="scale(0.015625)"/>
       <path id="DejaVuSans-3d" d="M 678 2906 
L 4684 2906 
L 4684 2381 
L 678 2381 
L 678 2906 
z
M 678 1631 
L 4684 1631 
L 4684 1100 
L 678 1100 
L 678 1631 
z
" transform="scale(0.015625)"/>
       <path id="DejaVuSans-35" d="M 691 4666 
L 3169 4666 
L 3169 4134 
L 1269 4134 
L 1269 2991 
Q 1406 3038 1543 3061 
Q 1681 3084 1819 3084 
Q 2600 3084 3056 2656 
Q 3513 2228 3513 1497 
Q 3513 744 3044 326 
Q 2575 -91 1722 -91 
Q 1428 -91 1123 -41 
Q 819 9 494 109 
L 494 744 
Q 775 591 1075 516 
Q 1375 441 1709 441 
Q 2250 441 2565 725 
Q 2881 1009 2881 1497 
Q 2881 1984 2565 2268 
Q 2250 2553 1709 2553 
Q 1456 2553 1204 2497 
Q 953 2441 691 2322 
L 691 4666 
z
" transform="scale(0.015625)"/>
       <path id="DejaVuSans-37" d="M 525 4666 
L 3525 4666 
L 3525 4397 
L 1831 0 
L 1172 0 
L 2766 4134 
L 525 4134 
L 525 4666 
z
" transform="scale(0.015625)"/>
       <path id="DejaVuSans-65" d="M 3597 1894 
L 3597 1613 
L 953 1613 
Q 991 1019 1311 708 
Q 1631 397 2203 397 
Q 2534 397 2845 478 
Q 3156 559 3463 722 
L 3463 178 
Q 3153 47 2828 -22 
Q 2503 -91 2169 -91 
Q 1331 -91 842 396 
Q 353 884 353 1716 
Q 353 2575 817 3079 
Q 1281 3584 2069 3584 
Q 2775 3584 3186 3129 
Q 3597 2675 3597 1894 
z
M 3022 2063 
Q 3016 2534 2758 2815 
Q 2500 3097 2075 3097 
Q 1594 3097 1305 2825 
Q 1016 2553 972 2059 
L 3022 2063 
z
" transform="scale(0.015625)"/>
       <path id="DejaVuSans-2d" d="M 313 2009 
L 1997 2009 
L 1997 1497 
L 313 1497 
L 313 2009 
z
" transform="scale(0.015625)"/>
       <path id="DejaVuSans-5d" d="M 1947 4863 
L 1947 -844 
L 622 -844 
L 622 -397 
L 1369 -397 
L 1369 4416 
L 622 4416 
L 622 4863 
L 1947 4863 
z
" transform="scale(0.015625)"/>
      </defs>
      <use xlink:href="#DejaVuSans-41"/>
      <use xlink:href="#DejaVuSans-6e" x="68.408203"/>
      <use xlink:href="#DejaVuSans-61" x="131.787109"/>
      <use xlink:href="#DejaVuSans-6c" x="193.066406"/>
      <use xlink:href="#DejaVuSans-79" x="220.849609"/>
      <use xlink:href="#DejaVuSans-74" x="280.029297"/>
      <use xlink:href="#DejaVuSans-69" x="319.238281"/>
      <use xlink:href="#DejaVuSans-63" x="347.021484"/>
      <use xlink:href="#DejaVuSans-20" x="402.001953"/>
      <use xlink:href="#DejaVuSans-5b" x="433.789062"/>
      <use xlink:href="#DejaVuSans-4d" x="472.802734"/>
      <use xlink:href="#DejaVuSans-53" x="559.082031"/>
      <use xlink:href="#DejaVuSans-45" x="622.558594"/>
      <use xlink:href="#DejaVuSans-3d" x="685.742188"/>
      <use xlink:href="#DejaVuSans-38" x="769.53125"/>
      <use xlink:href="#DejaVuSans-2e" x="833.154297"/>
      <use xlink:href="#DejaVuSans-35" x="864.941406"/>
      <use xlink:href="#DejaVuSans-37" x="928.564453"/>
      <use xlink:href="#DejaVuSans-65" x="992.1875"/>
      <use xlink:href="#DejaVuSans-2d" x="1053.710938"/>
      <use xlink:href="#DejaVuSans-30" x="1089.794922"/>
      <use xlink:href="#DejaVuSans-35" x="1153.417969"/>
      <use xlink:href="#DejaVuSans-5d" x="1217.041016"/>
     </g>
    </g>
    <g id="line2d_20">
     <path d="M 51.082813 53.254688 
L 61.082813 53.254688 
L 71.082813 53.254688 
" style="fill: none; stroke: #2ca02c; stroke-width: 1.5; stroke-linecap: square"/>
    </g>
    <g id="text_14">
     <!-- Plain [MSE=0.0108] [$\nu$=0.756] -->
     <g transform="translate(79.082813 56.754688)scale(0.1 -0.1)">
      <defs>
       <path id="DejaVuSans-50" d="M 1259 4147 
L 1259 2394 
L 2053 2394 
Q 2494 2394 2734 2622 
Q 2975 2850 2975 3272 
Q 2975 3691 2734 3919 
Q 2494 4147 2053 4147 
L 1259 4147 
z
M 628 4666 
L 2053 4666 
Q 2838 4666 3239 4311 
Q 3641 3956 3641 3272 
Q 3641 2581 3239 2228 
Q 2838 1875 2053 1875 
L 1259 1875 
L 1259 0 
L 628 0 
L 628 4666 
z
" transform="scale(0.015625)"/>
       <path id="DejaVuSans-Oblique-3bd" d="M 959 0 
L 572 3500 
L 1191 3500 
L 1522 563 
Q 1972 950 2391 1488 
Q 2706 1891 2788 2241 
Q 2825 2406 2809 2719 
Q 2794 3091 2544 3500 
L 3125 3500 
L 3125 3500 
Q 3288 3222 3353 2834 
Q 3416 2478 3369 2234 
Q 3250 1622 2719 1075 
Q 2025 363 1572 0 
L 959 0 
z
" transform="scale(0.015625)"/>
      </defs>
      <use xlink:href="#DejaVuSans-50" transform="translate(0 0.015625)"/>
      <use xlink:href="#DejaVuSans-6c" transform="translate(60.302734 0.015625)"/>
      <use xlink:href="#DejaVuSans-61" transform="translate(88.085938 0.015625)"/>
      <use xlink:href="#DejaVuSans-69" transform="translate(149.365234 0.015625)"/>
      <use xlink:href="#DejaVuSans-6e" transform="translate(177.148438 0.015625)"/>
      <use xlink:href="#DejaVuSans-20" transform="translate(240.527344 0.015625)"/>
      <use xlink:href="#DejaVuSans-5b" transform="translate(272.314453 0.015625)"/>
      <use xlink:href="#DejaVuSans-4d" transform="translate(311.328125 0.015625)"/>
      <use xlink:href="#DejaVuSans-53" transform="translate(397.607422 0.015625)"/>
      <use xlink:href="#DejaVuSans-45" transform="translate(461.083984 0.015625)"/>
      <use xlink:href="#DejaVuSans-3d" transform="translate(524.267578 0.015625)"/>
      <use xlink:href="#DejaVuSans-30" transform="translate(608.056641 0.015625)"/>
      <use xlink:href="#DejaVuSans-2e" transform="translate(671.679688 0.015625)"/>
      <use xlink:href="#DejaVuSans-30" transform="translate(703.466797 0.015625)"/>
      <use xlink:href="#DejaVuSans-31" transform="translate(767.089844 0.015625)"/>
      <use xlink:href="#DejaVuSans-30" transform="translate(830.712891 0.015625)"/>
      <use xlink:href="#DejaVuSans-38" transform="translate(894.335938 0.015625)"/>
      <use xlink:href="#DejaVuSans-5d" transform="translate(957.958984 0.015625)"/>
      <use xlink:href="#DejaVuSans-20" transform="translate(996.972656 0.015625)"/>
      <use xlink:href="#DejaVuSans-5b" transform="translate(1028.759766 0.015625)"/>
      <use xlink:href="#DejaVuSans-Oblique-3bd" transform="translate(1067.773438 0.015625)"/>
      <use xlink:href="#DejaVuSans-3d" transform="translate(1123.632812 0.015625)"/>
      <use xlink:href="#DejaVuSans-30" transform="translate(1207.421875 0.015625)"/>
      <use xlink:href="#DejaVuSans-2e" transform="translate(1271.044922 0.015625)"/>
      <use xlink:href="#DejaVuSans-37" transform="translate(1295.082031 0.015625)"/>
      <use xlink:href="#DejaVuSans-35" transform="translate(1358.705078 0.015625)"/>
      <use xlink:href="#DejaVuSans-36" transform="translate(1422.328125 0.015625)"/>
      <use xlink:href="#DejaVuSans-5d" transform="translate(1485.951172 0.015625)"/>
     </g>
    </g>
    <g id="line2d_21">
     <path d="M 51.082813 67.932813 
L 61.082813 67.932813 
L 71.082813 67.932813 
" style="fill: none; stroke: #d62728; stroke-width: 1.5; stroke-linecap: square"/>
    </g>
    <g id="text_15">
     <!-- Momentum [MSE=0.00845] [$\nu$=0.756] -->
     <g transform="translate(79.082813 71.432813)scale(0.1 -0.1)">
      <defs>
       <path id="DejaVuSans-6f" d="M 1959 3097 
Q 1497 3097 1228 2736 
Q 959 2375 959 1747 
Q 959 1119 1226 758 
Q 1494 397 1959 397 
Q 2419 397 2687 759 
Q 2956 1122 2956 1747 
Q 2956 2369 2687 2733 
Q 2419 3097 1959 3097 
z
M 1959 3584 
Q 2709 3584 3137 3096 
Q 3566 2609 3566 1747 
Q 3566 888 3137 398 
Q 2709 -91 1959 -91 
Q 1206 -91 779 398 
Q 353 888 353 1747 
Q 353 2609 779 3096 
Q 1206 3584 1959 3584 
z
" transform="scale(0.015625)"/>
       <path id="DejaVuSans-6d" d="M 3328 2828 
Q 3544 3216 3844 3400 
Q 4144 3584 4550 3584 
Q 5097 3584 5394 3201 
Q 5691 2819 5691 2113 
L 5691 0 
L 5113 0 
L 5113 2094 
Q 5113 2597 4934 2840 
Q 4756 3084 4391 3084 
Q 3944 3084 3684 2787 
Q 3425 2491 3425 1978 
L 3425 0 
L 2847 0 
L 2847 2094 
Q 2847 2600 2669 2842 
Q 2491 3084 2119 3084 
Q 1678 3084 1418 2786 
Q 1159 2488 1159 1978 
L 1159 0 
L 581 0 
L 581 3500 
L 1159 3500 
L 1159 2956 
Q 1356 3278 1631 3431 
Q 1906 3584 2284 3584 
Q 2666 3584 2933 3390 
Q 3200 3197 3328 2828 
z
" transform="scale(0.015625)"/>
       <path id="DejaVuSans-75" d="M 544 1381 
L 544 3500 
L 1119 3500 
L 1119 1403 
Q 1119 906 1312 657 
Q 1506 409 1894 409 
Q 2359 409 2629 706 
Q 2900 1003 2900 1516 
L 2900 3500 
L 3475 3500 
L 3475 0 
L 2900 0 
L 2900 538 
Q 2691 219 2414 64 
Q 2138 -91 1772 -91 
Q 1169 -91 856 284 
Q 544 659 544 1381 
z
M 1991 3584 
L 1991 3584 
z
" transform="scale(0.015625)"/>
      </defs>
      <use xlink:href="#DejaVuSans-4d" transform="translate(0 0.015625)"/>
      <use xlink:href="#DejaVuSans-6f" transform="translate(86.279297 0.015625)"/>
      <use xlink:href="#DejaVuSans-6d" transform="translate(147.460938 0.015625)"/>
      <use xlink:href="#DejaVuSans-65" transform="translate(244.873047 0.015625)"/>
      <use xlink:href="#DejaVuSans-6e" transform="translate(306.396484 0.015625)"/>
      <use xlink:href="#DejaVuSans-74" transform="translate(369.775391 0.015625)"/>
      <use xlink:href="#DejaVuSans-75" transform="translate(408.984375 0.015625)"/>
      <use xlink:href="#DejaVuSans-6d" transform="translate(472.363281 0.015625)"/>
      <use xlink:href="#DejaVuSans-20" transform="translate(569.775391 0.015625)"/>
      <use xlink:href="#DejaVuSans-5b" transform="translate(601.5625 0.015625)"/>
      <use xlink:href="#DejaVuSans-4d" transform="translate(640.576172 0.015625)"/>
      <use xlink:href="#DejaVuSans-53" transform="translate(726.855469 0.015625)"/>
      <use xlink:href="#DejaVuSans-45" transform="translate(790.332031 0.015625)"/>
      <use xlink:href="#DejaVuSans-3d" transform="translate(853.515625 0.015625)"/>
      <use xlink:href="#DejaVuSans-30" transform="translate(937.304688 0.015625)"/>
      <use xlink:href="#DejaVuSans-2e" transform="translate(1000.927734 0.015625)"/>
      <use xlink:href="#DejaVuSans-30" transform="translate(1032.714844 0.015625)"/>
      <use xlink:href="#DejaVuSans-30" transform="translate(1096.337891 0.015625)"/>
      <use xlink:href="#DejaVuSans-38" transform="translate(1159.960938 0.015625)"/>
      <use xlink:href="#DejaVuSans-34" transform="translate(1223.583984 0.015625)"/>
      <use xlink:href="#DejaVuSans-35" transform="translate(1287.207031 0.015625)"/>
      <use xlink:href="#DejaVuSans-5d" transform="translate(1350.830078 0.015625)"/>
      <use xlink:href="#DejaVuSans-20" transform="translate(1389.84375 0.015625)"/>
      <use xlink:href="#DejaVuSans-5b" transform="translate(1421.630859 0.015625)"/>
      <use xlink:href="#DejaVuSans-Oblique-3bd" transform="translate(1460.644531 0.015625)"/>
      <use xlink:href="#DejaVuSans-3d" transform="translate(1516.503906 0.015625)"/>
      <use xlink:href="#DejaVuSans-30" transform="translate(1600.292969 0.015625)"/>
      <use xlink:href="#DejaVuSans-2e" transform="translate(1663.916016 0.015625)"/>
      <use xlink:href="#DejaVuSans-37" transform="translate(1687.953125 0.015625)"/>
      <use xlink:href="#DejaVuSans-35" transform="translate(1751.576172 0.015625)"/>
      <use xlink:href="#DejaVuSans-36" transform="translate(1815.199219 0.015625)"/>
      <use xlink:href="#DejaVuSans-5d" transform="translate(1878.822266 0.015625)"/>
     </g>
    </g>
    <g id="line2d_22">
     <path d="M 51.082813 82.610938 
L 61.082813 82.610938 
L 71.082813 82.610938 
" style="fill: none; stroke: #9467bd; stroke-width: 1.5; stroke-linecap: square"/>
    </g>
    <g id="text_16">
     <!-- Stochastic [MSE=0.00718] [$\nu$=0.248] -->
     <g transform="translate(79.082813 86.110938)scale(0.1 -0.1)">
      <defs>
       <path id="DejaVuSans-68" d="M 3513 2113 
L 3513 0 
L 2938 0 
L 2938 2094 
Q 2938 2591 2744 2837 
Q 2550 3084 2163 3084 
Q 1697 3084 1428 2787 
Q 1159 2491 1159 1978 
L 1159 0 
L 581 0 
L 581 4863 
L 1159 4863 
L 1159 2956 
Q 1366 3272 1645 3428 
Q 1925 3584 2291 3584 
Q 2894 3584 3203 3211 
Q 3513 2838 3513 2113 
z
" transform="scale(0.015625)"/>
       <path id="DejaVuSans-73" d="M 2834 3397 
L 2834 2853 
Q 2591 2978 2328 3040 
Q 2066 3103 1784 3103 
Q 1356 3103 1142 2972 
Q 928 2841 928 2578 
Q 928 2378 1081 2264 
Q 1234 2150 1697 2047 
L 1894 2003 
Q 2506 1872 2764 1633 
Q 3022 1394 3022 966 
Q 3022 478 2636 193 
Q 2250 -91 1575 -91 
Q 1294 -91 989 -36 
Q 684 19 347 128 
L 347 722 
Q 666 556 975 473 
Q 1284 391 1588 391 
Q 1994 391 2212 530 
Q 2431 669 2431 922 
Q 2431 1156 2273 1281 
Q 2116 1406 1581 1522 
L 1381 1569 
Q 847 1681 609 1914 
Q 372 2147 372 2553 
Q 372 3047 722 3315 
Q 1072 3584 1716 3584 
Q 2034 3584 2315 3537 
Q 2597 3491 2834 3397 
z
" transform="scale(0.015625)"/>
      </defs>
      <use xlink:href="#DejaVuSans-53" transform="translate(0 0.015625)"/>
      <use xlink:href="#DejaVuSans-74" transform="translate(63.476562 0.015625)"/>
      <use xlink:href="#DejaVuSans-6f" transform="translate(102.685547 0.015625)"/>
      <use xlink:href="#DejaVuSans-63" transform="translate(163.867188 0.015625)"/>
      <use xlink:href="#DejaVuSans-68" transform="translate(218.847656 0.015625)"/>
      <use xlink:href="#DejaVuSans-61" transform="translate(282.226562 0.015625)"/>
      <use xlink:href="#DejaVuSans-73" transform="translate(343.505859 0.015625)"/>
      <use xlink:href="#DejaVuSans-74" transform="translate(395.605469 0.015625)"/>
      <use xlink:href="#DejaVuSans-69" transform="translate(434.814453 0.015625)"/>
      <use xlink:href="#DejaVuSans-63" transform="translate(462.597656 0.015625)"/>
      <use xlink:href="#DejaVuSans-20" transform="translate(517.578125 0.015625)"/>
      <use xlink:href="#DejaVuSans-5b" transform="translate(549.365234 0.015625)"/>
      <use xlink:href="#DejaVuSans-4d" transform="translate(588.378906 0.015625)"/>
      <use xlink:href="#DejaVuSans-53" transform="translate(674.658203 0.015625)"/>
      <use xlink:href="#DejaVuSans-45" transform="translate(738.134766 0.015625)"/>
      <use xlink:href="#DejaVuSans-3d" transform="translate(801.318359 0.015625)"/>
      <use xlink:href="#DejaVuSans-30" transform="translate(885.107422 0.015625)"/>
      <use xlink:href="#DejaVuSans-2e" transform="translate(948.730469 0.015625)"/>
      <use xlink:href="#DejaVuSans-30" transform="translate(980.517578 0.015625)"/>
      <use xlink:href="#DejaVuSans-30" transform="translate(1044.140625 0.015625)"/>
      <use xlink:href="#DejaVuSans-37" transform="translate(1107.763672 0.015625)"/>
      <use xlink:href="#DejaVuSans-31" transform="translate(1171.386719 0.015625)"/>
      <use xlink:href="#DejaVuSans-38" transform="translate(1235.009766 0.015625)"/>
      <use xlink:href="#DejaVuSans-5d" transform="translate(1298.632812 0.015625)"/>
      <use xlink:href="#DejaVuSans-20" transform="translate(1337.646484 0.015625)"/>
      <use xlink:href="#DejaVuSans-5b" transform="translate(1369.433594 0.015625)"/>
      <use xlink:href="#DejaVuSans-Oblique-3bd" transform="translate(1408.447266 0.015625)"/>
      <use xlink:href="#DejaVuSans-3d" transform="translate(1464.306641 0.015625)"/>
      <use xlink:href="#DejaVuSans-30" transform="translate(1548.095703 0.015625)"/>
      <use xlink:href="#DejaVuSans-2e" transform="translate(1611.71875 0.015625)"/>
      <use xlink:href="#DejaVuSans-32" transform="translate(1638.005859 0.015625)"/>
      <use xlink:href="#DejaVuSans-34" transform="translate(1701.628906 0.015625)"/>
      <use xlink:href="#DejaVuSans-38" transform="translate(1765.251953 0.015625)"/>
      <use xlink:href="#DejaVuSans-5d" transform="translate(1828.875 0.015625)"/>
     </g>
    </g>
    <g id="line2d_23">
     <path d="M 51.082813 97.289063 
L 61.082813 97.289063 
L 71.082813 97.289063 
" style="fill: none; stroke: #8c564b; stroke-width: 1.5; stroke-linecap: square"/>
    </g>
    <g id="text_17">
     <!-- Momentum + Stochastic [MSE=0.00674] [$\nu$=0.756] -->
     <g transform="translate(79.082813 100.789063)scale(0.1 -0.1)">
      <defs>
       <path id="DejaVuSans-2b" d="M 2944 4013 
L 2944 2272 
L 4684 2272 
L 4684 1741 
L 2944 1741 
L 2944 0 
L 2419 0 
L 2419 1741 
L 678 1741 
L 678 2272 
L 2419 2272 
L 2419 4013 
L 2944 4013 
z
" transform="scale(0.015625)"/>
      </defs>
      <use xlink:href="#DejaVuSans-4d" transform="translate(0 0.015625)"/>
      <use xlink:href="#DejaVuSans-6f" transform="translate(86.279297 0.015625)"/>
      <use xlink:href="#DejaVuSans-6d" transform="translate(147.460938 0.015625)"/>
      <use xlink:href="#DejaVuSans-65" transform="translate(244.873047 0.015625)"/>
      <use xlink:href="#DejaVuSans-6e" transform="translate(306.396484 0.015625)"/>
      <use xlink:href="#DejaVuSans-74" transform="translate(369.775391 0.015625)"/>
      <use xlink:href="#DejaVuSans-75" transform="translate(408.984375 0.015625)"/>
      <use xlink:href="#DejaVuSans-6d" transform="translate(472.363281 0.015625)"/>
      <use xlink:href="#DejaVuSans-20" transform="translate(569.775391 0.015625)"/>
      <use xlink:href="#DejaVuSans-2b" transform="translate(601.5625 0.015625)"/>
      <use xlink:href="#DejaVuSans-20" transform="translate(685.351562 0.015625)"/>
      <use xlink:href="#DejaVuSans-53" transform="translate(717.138672 0.015625)"/>
      <use xlink:href="#DejaVuSans-74" transform="translate(780.615234 0.015625)"/>
      <use xlink:href="#DejaVuSans-6f" transform="translate(819.824219 0.015625)"/>
      <use xlink:href="#DejaVuSans-63" transform="translate(881.005859 0.015625)"/>
      <use xlink:href="#DejaVuSans-68" transform="translate(935.986328 0.015625)"/>
      <use xlink:href="#DejaVuSans-61" transform="translate(999.365234 0.015625)"/>
      <use xlink:href="#DejaVuSans-73" transform="translate(1060.644531 0.015625)"/>
      <use xlink:href="#DejaVuSans-74" transform="translate(1112.744141 0.015625)"/>
      <use xlink:href="#DejaVuSans-69" transform="translate(1151.953125 0.015625)"/>
      <use xlink:href="#DejaVuSans-63" transform="translate(1179.736328 0.015625)"/>
      <use xlink:href="#DejaVuSans-20" transform="translate(1234.716797 0.015625)"/>
      <use xlink:href="#DejaVuSans-5b" transform="translate(1266.503906 0.015625)"/>
      <use xlink:href="#DejaVuSans-4d" transform="translate(1305.517578 0.015625)"/>
      <use xlink:href="#DejaVuSans-53" transform="translate(1391.796875 0.015625)"/>
      <use xlink:href="#DejaVuSans-45" transform="translate(1455.273438 0.015625)"/>
      <use xlink:href="#DejaVuSans-3d" transform="translate(1518.457031 0.015625)"/>
      <use xlink:href="#DejaVuSans-30" transform="translate(1602.246094 0.015625)"/>
      <use xlink:href="#DejaVuSans-2e" transform="translate(1665.869141 0.015625)"/>
      <use xlink:href="#DejaVuSans-30" transform="translate(1697.65625 0.015625)"/>
      <use xlink:href="#DejaVuSans-30" transform="translate(1761.279297 0.015625)"/>
      <use xlink:href="#DejaVuSans-36" transform="translate(1824.902344 0.015625)"/>
      <use xlink:href="#DejaVuSans-37" transform="translate(1888.525391 0.015625)"/>
      <use xlink:href="#DejaVuSans-34" transform="translate(1952.148438 0.015625)"/>
      <use xlink:href="#DejaVuSans-5d" transform="translate(2015.771484 0.015625)"/>
      <use xlink:href="#DejaVuSans-20" transform="translate(2054.785156 0.015625)"/>
      <use xlink:href="#DejaVuSans-5b" transform="translate(2086.572266 0.015625)"/>
      <use xlink:href="#DejaVuSans-Oblique-3bd" transform="translate(2125.585938 0.015625)"/>
      <use xlink:href="#DejaVuSans-3d" transform="translate(2181.445312 0.015625)"/>
      <use xlink:href="#DejaVuSans-30" transform="translate(2265.234375 0.015625)"/>
      <use xlink:href="#DejaVuSans-2e" transform="translate(2328.857422 0.015625)"/>
      <use xlink:href="#DejaVuSans-37" transform="translate(2352.894531 0.015625)"/>
      <use xlink:href="#DejaVuSans-35" transform="translate(2416.517578 0.015625)"/>
      <use xlink:href="#DejaVuSans-36" transform="translate(2480.140625 0.015625)"/>
      <use xlink:href="#DejaVuSans-5d" transform="translate(2543.763672 0.015625)"/>
     </g>
    </g>
   </g>
  </g>
 </g>
 <defs>
  <clipPath id="p6b5e494bef">
   <rect x="42.082813" y="10.8" width="407.917187" height="307.321875"/>
  </clipPath>
 </defs>
</svg>
