<?xml version="1.0" encoding="utf-8" standalone="no"?>
<!DOCTYPE svg PUBLIC "-//W3C//DTD SVG 1.1//EN"
  "http://www.w3.org/Graphics/SVG/1.1/DTD/svg11.dtd">
<svg xmlns:xlink="http://www.w3.org/1999/xlink" width="460.8pt" height="345.6pt" viewBox="0 0 460.8 345.6" xmlns="http://www.w3.org/2000/svg" version="1.1">
 <metadata>
  <rdf:RDF xmlns:dc="http://purl.org/dc/elements/1.1/" xmlns:cc="http://creativecommons.org/ns#" xmlns:rdf="http://www.w3.org/1999/02/22-rdf-syntax-ns#">
   <cc:Work>
    <dc:type rdf:resource="http://purl.org/dc/dcmitype/StillImage"/>
    <dc:date>2022-11-11T17:04:12.649614</dc:date>
    <dc:format>image/svg+xml</dc:format>
    <dc:creator>
     <cc:Agent>
      <dc:title>Matplotlib v3.5.3, https://matplotlib.org/</dc:title>
     </cc:Agent>
    </dc:creator>
   </cc:Work>
  </rdf:RDF>
 </metadata>
 <defs>
  <style type="text/css">*{stroke-linejoin: round; stroke-linecap: butt}</style>
 </defs>
 <g id="figure_1">
  <g id="patch_1">
   <path d="M 0 345.6 
L 460.8 345.6 
L 460.8 0 
L 0 0 
z
" style="fill: #ffffff"/>
  </g>
  <g id="axes_1">
   <g id="patch_2">
    <path d="M 42.082813 318.121875 
L 450 318.121875 
L 450 10.8 
L 42.082813 10.8 
z
" style="fill: #ffffff"/>
   </g>
   <g id="matplotlib.axis_1">
    <g id="xtick_1">
     <g id="line2d_1">
      <defs>
       <path id="m21191b8947" d="M 0 0 
L 0 3.5 
" style="stroke: #000000; stroke-width: 0.8"/>
      </defs>
      <g>
       <use xlink:href="#m21191b8947" x="60.624503" y="318.121875" style="stroke: #000000; stroke-width: 0.8"/>
      </g>
     </g>
     <g id="text_1">
      <!-- 0.0 -->
      <g transform="translate(52.67294 332.720312)scale(0.1 -0.1)">
       <defs>
        <path id="DejaVuSans-30" d="M 2034 4250 
Q 1547 4250 1301 3770 
Q 1056 3291 1056 2328 
Q 1056 1369 1301 889 
Q 1547 409 2034 409 
Q 2525 409 2770 889 
Q 3016 1369 3016 2328 
Q 3016 3291 2770 3770 
Q 2525 4250 2034 4250 
z
M 2034 4750 
Q 2819 4750 3233 4129 
Q 3647 3509 3647 2328 
Q 3647 1150 3233 529 
Q 2819 -91 2034 -91 
Q 1250 -91 836 529 
Q 422 1150 422 2328 
Q 422 3509 836 4129 
Q 1250 4750 2034 4750 
z
" transform="scale(0.015625)"/>
        <path id="DejaVuSans-2e" d="M 684 794 
L 1344 794 
L 1344 0 
L 684 0 
L 684 794 
z
" transform="scale(0.015625)"/>
       </defs>
       <use xlink:href="#DejaVuSans-30"/>
       <use xlink:href="#DejaVuSans-2e" x="63.623047"/>
       <use xlink:href="#DejaVuSans-30" x="95.410156"/>
      </g>
     </g>
    </g>
    <g id="xtick_2">
     <g id="line2d_2">
      <g>
       <use xlink:href="#m21191b8947" x="134.791264" y="318.121875" style="stroke: #000000; stroke-width: 0.8"/>
      </g>
     </g>
     <g id="text_2">
      <!-- 0.2 -->
      <g transform="translate(126.839702 332.720312)scale(0.1 -0.1)">
       <defs>
        <path id="DejaVuSans-32" d="M 1228 531 
L 3431 531 
L 3431 0 
L 469 0 
L 469 531 
Q 828 903 1448 1529 
Q 2069 2156 2228 2338 
Q 2531 2678 2651 2914 
Q 2772 3150 2772 3378 
Q 2772 3750 2511 3984 
Q 2250 4219 1831 4219 
Q 1534 4219 1204 4116 
Q 875 4013 500 3803 
L 500 4441 
Q 881 4594 1212 4672 
Q 1544 4750 1819 4750 
Q 2544 4750 2975 4387 
Q 3406 4025 3406 3419 
Q 3406 3131 3298 2873 
Q 3191 2616 2906 2266 
Q 2828 2175 2409 1742 
Q 1991 1309 1228 531 
z
" transform="scale(0.015625)"/>
       </defs>
       <use xlink:href="#DejaVuSans-30"/>
       <use xlink:href="#DejaVuSans-2e" x="63.623047"/>
       <use xlink:href="#DejaVuSans-32" x="95.410156"/>
      </g>
     </g>
    </g>
    <g id="xtick_3">
     <g id="line2d_3">
      <g>
       <use xlink:href="#m21191b8947" x="208.958026" y="318.121875" style="stroke: #000000; stroke-width: 0.8"/>
      </g>
     </g>
     <g id="text_3">
      <!-- 0.4 -->
      <g transform="translate(201.006463 332.720312)scale(0.1 -0.1)">
       <defs>
        <path id="DejaVuSans-34" d="M 2419 4116 
L 825 1625 
L 2419 1625 
L 2419 4116 
z
M 2253 4666 
L 3047 4666 
L 3047 1625 
L 3713 1625 
L 3713 1100 
L 3047 1100 
L 3047 0 
L 2419 0 
L 2419 1100 
L 313 1100 
L 313 1709 
L 2253 4666 
z
" transform="scale(0.015625)"/>
       </defs>
       <use xlink:href="#DejaVuSans-30"/>
       <use xlink:href="#DejaVuSans-2e" x="63.623047"/>
       <use xlink:href="#DejaVuSans-34" x="95.410156"/>
      </g>
     </g>
    </g>
    <g id="xtick_4">
     <g id="line2d_4">
      <g>
       <use xlink:href="#m21191b8947" x="283.124787" y="318.121875" style="stroke: #000000; stroke-width: 0.8"/>
      </g>
     </g>
     <g id="text_4">
      <!-- 0.6 -->
      <g transform="translate(275.173224 332.720312)scale(0.1 -0.1)">
       <defs>
        <path id="DejaVuSans-36" d="M 2113 2584 
Q 1688 2584 1439 2293 
Q 1191 2003 1191 1497 
Q 1191 994 1439 701 
Q 1688 409 2113 409 
Q 2538 409 2786 701 
Q 3034 994 3034 1497 
Q 3034 2003 2786 2293 
Q 2538 2584 2113 2584 
z
M 3366 4563 
L 3366 3988 
Q 3128 4100 2886 4159 
Q 2644 4219 2406 4219 
Q 1781 4219 1451 3797 
Q 1122 3375 1075 2522 
Q 1259 2794 1537 2939 
Q 1816 3084 2150 3084 
Q 2853 3084 3261 2657 
Q 3669 2231 3669 1497 
Q 3669 778 3244 343 
Q 2819 -91 2113 -91 
Q 1303 -91 875 529 
Q 447 1150 447 2328 
Q 447 3434 972 4092 
Q 1497 4750 2381 4750 
Q 2619 4750 2861 4703 
Q 3103 4656 3366 4563 
z
" transform="scale(0.015625)"/>
       </defs>
       <use xlink:href="#DejaVuSans-30"/>
       <use xlink:href="#DejaVuSans-2e" x="63.623047"/>
       <use xlink:href="#DejaVuSans-36" x="95.410156"/>
      </g>
     </g>
    </g>
    <g id="xtick_5">
     <g id="line2d_5">
      <g>
       <use xlink:href="#m21191b8947" x="357.291548" y="318.121875" style="stroke: #000000; stroke-width: 0.8"/>
      </g>
     </g>
     <g id="text_5">
      <!-- 0.8 -->
      <g transform="translate(349.339986 332.720312)scale(0.1 -0.1)">
       <defs>
        <path id="DejaVuSans-38" d="M 2034 2216 
Q 1584 2216 1326 1975 
Q 1069 1734 1069 1313 
Q 1069 891 1326 650 
Q 1584 409 2034 409 
Q 2484 409 2743 651 
Q 3003 894 3003 1313 
Q 3003 1734 2745 1975 
Q 2488 2216 2034 2216 
z
M 1403 2484 
Q 997 2584 770 2862 
Q 544 3141 544 3541 
Q 544 4100 942 4425 
Q 1341 4750 2034 4750 
Q 2731 4750 3128 4425 
Q 3525 4100 3525 3541 
Q 3525 3141 3298 2862 
Q 3072 2584 2669 2484 
Q 3125 2378 3379 2068 
Q 3634 1759 3634 1313 
Q 3634 634 3220 271 
Q 2806 -91 2034 -91 
Q 1263 -91 848 271 
Q 434 634 434 1313 
Q 434 1759 690 2068 
Q 947 2378 1403 2484 
z
M 1172 3481 
Q 1172 3119 1398 2916 
Q 1625 2713 2034 2713 
Q 2441 2713 2670 2916 
Q 2900 3119 2900 3481 
Q 2900 3844 2670 4047 
Q 2441 4250 2034 4250 
Q 1625 4250 1398 4047 
Q 1172 3844 1172 3481 
z
" transform="scale(0.015625)"/>
       </defs>
       <use xlink:href="#DejaVuSans-30"/>
       <use xlink:href="#DejaVuSans-2e" x="63.623047"/>
       <use xlink:href="#DejaVuSans-38" x="95.410156"/>
      </g>
     </g>
    </g>
    <g id="xtick_6">
     <g id="line2d_6">
      <g>
       <use xlink:href="#m21191b8947" x="431.45831" y="318.121875" style="stroke: #000000; stroke-width: 0.8"/>
      </g>
     </g>
     <g id="text_6">
      <!-- 1.0 -->
      <g transform="translate(423.506747 332.720312)scale(0.1 -0.1)">
       <defs>
        <path id="DejaVuSans-31" d="M 794 531 
L 1825 531 
L 1825 4091 
L 703 3866 
L 703 4441 
L 1819 4666 
L 2450 4666 
L 2450 531 
L 3481 531 
L 3481 0 
L 794 0 
L 794 531 
z
" transform="scale(0.015625)"/>
       </defs>
       <use xlink:href="#DejaVuSans-31"/>
       <use xlink:href="#DejaVuSans-2e" x="63.623047"/>
       <use xlink:href="#DejaVuSans-30" x="95.410156"/>
      </g>
     </g>
    </g>
   </g>
   <g id="matplotlib.axis_2">
    <g id="ytick_1">
     <g id="line2d_7">
      <defs>
       <path id="m8df4463a78" d="M 0 0 
L -3.5 0 
" style="stroke: #000000; stroke-width: 0.8"/>
      </defs>
      <g>
       <use xlink:href="#m8df4463a78" x="42.082813" y="302.755781" style="stroke: #000000; stroke-width: 0.8"/>
      </g>
     </g>
     <g id="text_7">
      <!-- −0.2 -->
      <g transform="translate(10.8 306.555)scale(0.1 -0.1)">
       <defs>
        <path id="DejaVuSans-2212" d="M 678 2272 
L 4684 2272 
L 4684 1741 
L 678 1741 
L 678 2272 
z
" transform="scale(0.015625)"/>
       </defs>
       <use xlink:href="#DejaVuSans-2212"/>
       <use xlink:href="#DejaVuSans-30" x="83.789062"/>
       <use xlink:href="#DejaVuSans-2e" x="147.412109"/>
       <use xlink:href="#DejaVuSans-32" x="179.199219"/>
      </g>
     </g>
    </g>
    <g id="ytick_2">
     <g id="line2d_8">
      <g>
       <use xlink:href="#m8df4463a78" x="42.082813" y="241.291406" style="stroke: #000000; stroke-width: 0.8"/>
      </g>
     </g>
     <g id="text_8">
      <!-- 0.0 -->
      <g transform="translate(19.179688 245.090625)scale(0.1 -0.1)">
       <use xlink:href="#DejaVuSans-30"/>
       <use xlink:href="#DejaVuSans-2e" x="63.623047"/>
       <use xlink:href="#DejaVuSans-30" x="95.410156"/>
      </g>
     </g>
    </g>
    <g id="ytick_3">
     <g id="line2d_9">
      <g>
       <use xlink:href="#m8df4463a78" x="42.082813" y="179.827031" style="stroke: #000000; stroke-width: 0.8"/>
      </g>
     </g>
     <g id="text_9">
      <!-- 0.2 -->
      <g transform="translate(19.179688 183.62625)scale(0.1 -0.1)">
       <use xlink:href="#DejaVuSans-30"/>
       <use xlink:href="#DejaVuSans-2e" x="63.623047"/>
       <use xlink:href="#DejaVuSans-32" x="95.410156"/>
      </g>
     </g>
    </g>
    <g id="ytick_4">
     <g id="line2d_10">
      <g>
       <use xlink:href="#m8df4463a78" x="42.082813" y="118.362656" style="stroke: #000000; stroke-width: 0.8"/>
      </g>
     </g>
     <g id="text_10">
      <!-- 0.4 -->
      <g transform="translate(19.179688 122.161875)scale(0.1 -0.1)">
       <use xlink:href="#DejaVuSans-30"/>
       <use xlink:href="#DejaVuSans-2e" x="63.623047"/>
       <use xlink:href="#DejaVuSans-34" x="95.410156"/>
      </g>
     </g>
    </g>
    <g id="ytick_5">
     <g id="line2d_11">
      <g>
       <use xlink:href="#m8df4463a78" x="42.082813" y="56.898281" style="stroke: #000000; stroke-width: 0.8"/>
      </g>
     </g>
     <g id="text_11">
      <!-- 0.6 -->
      <g transform="translate(19.179688 60.6975)scale(0.1 -0.1)">
       <use xlink:href="#DejaVuSans-30"/>
       <use xlink:href="#DejaVuSans-2e" x="63.623047"/>
       <use xlink:href="#DejaVuSans-36" x="95.410156"/>
      </g>
     </g>
    </g>
   </g>
   <g id="line2d_12">
    <path d="M 60.624503 241.290678 
L 127.441405 241.395031 
L 135.97912 241.650725 
L 142.289605 242.054998 
L 147.115271 242.569349 
L 151.569731 243.269092 
L 155.281781 244.065976 
L 158.622626 244.986134 
L 161.963471 246.130939 
L 165.304316 247.530422 
L 168.273956 249.009828 
L 171.243596 250.726283 
L 174.213236 252.68908 
L 177.182877 254.900376 
L 180.523722 257.676463 
L 184.235772 261.088488 
L 188.319027 265.167092 
L 194.629512 271.843543 
L 200.197587 277.640143 
L 203.538432 280.828698 
L 206.508072 283.346491 
L 208.735303 284.978648 
L 210.962533 286.347083 
L 212.818558 287.258757 
L 214.674583 287.940827 
L 216.530608 288.374769 
L 218.386633 288.544141 
L 219.871453 288.479607 
L 221.356273 288.230689 
L 222.841093 287.792525 
L 224.325913 287.16145 
L 226.181938 286.097745 
L 228.037963 284.726943 
L 229.893988 283.050158 
L 231.750013 281.071551 
L 233.606038 278.798224 
L 235.833268 275.695306 
L 238.060498 272.204291 
L 240.658934 267.676662 
L 243.257369 262.70609 
L 246.227009 256.553017 
L 249.567854 249.132417 
L 253.651109 239.52461 
L 259.590389 224.926611 
L 271.840155 194.711277 
L 277.40823 181.651501 
L 282.6051 170.051342 
L 287.430765 159.833412 
L 292.25643 150.161999 
L 296.71089 141.723485 
L 301.165351 133.760992 
L 305.248606 126.892939 
L 309.331861 120.457293 
L 313.043911 115.005177 
L 316.755961 109.959162 
L 320.096806 105.789214 
L 323.437651 101.994937 
L 326.407291 98.956541 
L 329.376931 96.249606 
L 331.975366 94.165032 
L 334.573802 92.355508 
L 337.172237 90.829588 
L 339.399467 89.753033 
L 341.626697 88.894214 
L 343.853927 88.256269 
L 346.081157 87.841511 
L 348.308387 87.651388 
L 350.535617 87.686449 
L 352.762847 87.946322 
L 354.990077 88.429702 
L 357.217307 89.134351 
L 359.444537 90.057103 
L 361.671767 91.19388 
L 364.270203 92.783948 
L 366.868638 94.649176 
L 369.467073 96.778702 
L 372.436713 99.520283 
L 375.406353 102.570649 
L 378.747198 106.343552 
L 382.088043 110.444669 
L 385.800093 115.341966 
L 390.254553 121.620155 
L 395.451424 129.3799 
L 402.133114 139.814953 
L 421.435774 170.254475 
L 427.00385 178.492683 
L 431.45831 184.762706 
L 431.45831 184.762706 
" clip-path="url(#p1abd7a7974)" style="fill: none; stroke: #1f77b4; stroke-width: 1.5; stroke-linecap: square"/>
   </g>
   <g id="line2d_13">
    <path d="M 60.624503 245.570289 
L 62.109323 243.907693 
L 63.594143 242.544947 
L 65.078963 241.452618 
L 66.563783 240.60258 
L 68.048603 239.968051 
L 69.904628 239.439378 
L 71.760653 239.161283 
L 73.616678 239.090639 
L 75.843908 239.22406 
L 78.442343 239.602824 
L 82.154394 240.399587 
L 92.176929 242.705623 
L 95.888979 243.264921 
L 99.229824 243.547635 
L 102.570669 243.608456 
L 105.911514 243.45381 
L 109.623564 243.055972 
L 114.078025 242.330215 
L 120.759715 240.961711 
L 127.81261 239.570396 
L 131.895865 238.985051 
L 135.23671 238.706219 
L 138.577555 238.653874 
L 141.547195 238.826923 
L 144.516836 239.228022 
L 147.486476 239.872353 
L 150.456116 240.769605 
L 153.425756 241.923801 
L 156.395396 243.333229 
L 159.365036 244.990486 
L 162.705881 247.134779 
L 166.046726 249.54967 
L 169.758776 252.508063 
L 174.213236 256.360662 
L 180.523722 262.160243 
L 189.432642 270.330926 
L 193.515897 273.778982 
L 196.856742 276.343966 
L 199.826382 278.375137 
L 202.796022 280.127433 
L 205.394457 281.399869 
L 207.992893 282.401998 
L 210.220123 283.027772 
L 212.447353 283.423736 
L 214.674583 283.577381 
L 216.901813 283.477525 
L 219.129043 283.114393 
L 220.985068 282.604639 
L 223.212298 281.738408 
L 225.439528 280.589456 
L 227.666758 279.153996 
L 229.893988 277.429902 
L 232.121218 275.416734 
L 234.348448 273.115739 
L 236.946883 270.071475 
L 239.545319 266.647043 
L 242.143754 262.853014 
L 245.113394 258.081881 
L 248.083034 252.870446 
L 251.423879 246.517858 
L 254.764724 239.69312 
L 258.476774 231.622225 
L 262.931234 221.371424 
L 268.128104 208.827062 
L 276.294615 188.444217 
L 285.203535 166.348457 
L 290.400405 154.026714 
L 294.854865 144.020355 
L 298.93812 135.414265 
L 302.650171 128.134501 
L 305.991016 122.071186 
L 308.960656 117.096341 
L 311.930296 112.529486 
L 314.899936 108.382687 
L 317.498371 105.104734 
L 320.096806 102.156169 
L 322.695241 99.536466 
L 325.293676 97.242634 
L 327.892111 95.2694 
L 330.490546 93.609406 
L 332.717777 92.428943 
L 334.945007 91.465173 
L 337.172237 90.710678 
L 339.770672 90.084284 
L 342.369107 89.718584 
L 344.967542 89.599933 
L 347.565977 89.714719 
L 350.164412 90.049748 
L 352.762847 90.592642 
L 355.732487 91.453345 
L 358.702127 92.556836 
L 361.671767 93.892282 
L 364.641408 95.452731 
L 367.982253 97.474094 
L 371.323098 99.780269 
L 374.663943 102.381963 
L 378.004788 105.296954 
L 380.974428 108.170214 
L 383.944068 111.329407 
L 386.913708 114.795392 
L 389.883348 118.588284 
L 392.852988 122.724923 
L 395.822629 127.215676 
L 399.163474 132.69045 
L 402.504319 138.589408 
L 406.587574 146.2867 
L 418.466134 169.16665 
L 420.693364 172.798918 
L 422.549389 175.419952 
L 424.034209 177.171367 
L 425.519029 178.545359 
L 426.632645 179.284514 
L 427.74626 179.736575 
L 428.859875 179.864912 
L 429.602285 179.75121 
L 430.344695 179.463627 
L 431.087105 178.989042 
L 431.45831 178.677344 
L 431.45831 178.677344 
" clip-path="url(#p1abd7a7974)" style="fill: none; stroke: #ff7f0e; stroke-width: 1.5; stroke-linecap: square"/>
   </g>
   <g id="line2d_14">
    <path d="M 60.624503 228.026164 
L 92.919339 226.752179 
L 121.13092 225.422179 
L 146.001656 224.031673 
L 167.902751 222.590066 
L 187.576617 221.074683 
L 205.023252 219.511325 
L 220.613863 217.896886 
L 234.719653 216.218511 
L 247.711829 214.449572 
L 259.590389 212.606181 
L 270.355335 210.71259 
L 280.37787 208.723993 
L 289.657995 206.655372 
L 298.19571 204.52804 
L 306.362221 202.261551 
L 313.786321 199.976595 
L 320.839216 197.581271 
L 327.520906 195.084751 
L 333.831392 192.499661 
L 340.141877 189.668382 
L 346.081157 186.753855 
L 351.649232 183.778145 
L 357.217307 180.543014 
L 362.414177 177.266807 
L 367.611048 173.719255 
L 372.436713 170.160297 
L 377.262378 166.324049 
L 382.088043 162.186933 
L 386.542503 158.078979 
L 390.996963 153.671297 
L 395.451424 148.940626 
L 399.905884 143.861974 
L 403.989139 138.877971 
L 408.072394 133.556932 
L 412.155649 127.875275 
L 416.238904 121.807858 
L 420.322159 115.327893 
L 424.405414 108.406847 
L 428.48867 101.014336 
L 431.45831 95.323454 
L 431.45831 95.323454 
" clip-path="url(#p1abd7a7974)" style="fill: none; stroke: #2ca02c; stroke-width: 1.5; stroke-linecap: square"/>
   </g>
   <g id="line2d_15">
    <path d="M 60.624503 227.684223 
L 92.548134 226.395277 
L 120.38851 225.055072 
L 144.888041 223.660215 
L 166.789136 222.194724 
L 186.091797 220.686397 
L 203.538432 219.103817 
L 219.129043 217.470753 
L 233.234833 215.774257 
L 246.227009 213.987491 
L 258.105569 212.126786 
L 268.870514 210.216618 
L 278.89305 208.21178 
L 288.173175 206.127382 
L 296.71089 203.984858 
L 304.877401 201.703181 
L 312.301501 199.403809 
L 319.354396 196.994198 
L 326.036086 194.483554 
L 332.346572 191.884541 
L 338.657057 189.038704 
L 344.596337 186.109825 
L 350.164412 183.120014 
L 355.732487 179.870079 
L 360.929357 176.579342 
L 366.126228 173.016484 
L 370.951893 169.442536 
L 375.777558 165.590456 
L 380.603223 161.436567 
L 385.057683 157.312196 
L 389.512143 152.887098 
L 393.966603 148.137897 
L 398.421064 143.039478 
L 402.504319 138.036151 
L 406.587574 132.694511 
L 410.670829 126.990848 
L 414.754084 120.899877 
L 418.837339 114.394654 
L 422.920594 107.446471 
L 427.00385 100.02476 
L 431.087105 92.09698 
L 431.45831 91.349999 
L 431.45831 91.349999 
" clip-path="url(#p1abd7a7974)" style="fill: none; stroke: #d62728; stroke-width: 1.5; stroke-linecap: square"/>
   </g>
   <g id="line2d_16">
    <path d="M 60.624503 262.066645 
L 73.987883 259.671937 
L 86.980059 257.11698 
L 99.229824 254.483423 
L 111.108384 251.703117 
L 122.61574 248.779767 
L 133.75189 245.71907 
L 144.516836 242.528654 
L 154.910576 239.218031 
L 164.933111 235.798546 
L 174.955646 232.143607 
L 184.606977 228.390023 
L 194.258307 224.395956 
L 203.538432 220.319166 
L 212.818558 216.00216 
L 222.098683 211.437639 
L 231.378808 206.619868 
L 240.658934 201.545271 
L 249.939059 196.213173 
L 259.219184 190.626712 
L 268.870514 184.555697 
L 278.89305 177.986838 
L 289.657995 170.664442 
L 302.278966 161.799894 
L 340.884287 134.454408 
L 348.679592 129.351593 
L 354.990077 125.473377 
L 360.558152 122.296031 
L 365.755023 119.585186 
L 370.580688 117.330493 
L 374.663943 115.652031 
L 378.747198 114.213362 
L 382.459248 113.139059 
L 385.800093 112.383365 
L 389.140938 111.847645 
L 392.481783 111.552411 
L 395.451424 111.509515 
L 398.421064 111.690187 
L 401.390704 112.111657 
L 403.989139 112.692257 
L 406.587574 113.483976 
L 409.186009 114.50027 
L 411.784444 115.755243 
L 414.382879 117.263674 
L 416.981314 119.041043 
L 419.579749 121.103554 
L 422.178184 123.468172 
L 424.776619 126.152643 
L 427.375055 129.175534 
L 429.97349 132.556255 
L 431.45831 134.656527 
L 431.45831 134.656527 
" clip-path="url(#p1abd7a7974)" style="fill: none; stroke: #9467bd; stroke-width: 1.5; stroke-linecap: square"/>
   </g>
   <g id="line2d_17">
    <path d="M 60.624503 257.884155 
L 79.555958 259.508893 
L 92.919339 260.434468 
L 104.055489 260.983906 
L 113.70682 261.244798 
L 122.61574 261.267873 
L 130.78225 261.072737 
L 138.577555 260.664777 
L 146.001656 260.049152 
L 153.054551 259.235905 
L 159.736241 258.239596 
L 166.046726 257.078857 
L 172.357211 255.687328 
L 178.296492 254.151322 
L 184.235772 252.380889 
L 189.803847 250.495065 
L 195.371922 248.378036 
L 200.939997 246.0177 
L 206.508072 243.402147 
L 211.704943 240.72047 
L 216.901813 237.797309 
L 222.098683 234.624079 
L 227.295553 231.192812 
L 232.492423 227.496314 
L 237.689293 223.528342 
L 242.886164 219.283807 
L 248.083034 214.758999 
L 253.279904 209.951843 
L 258.847979 204.487866 
L 264.416054 198.702284 
L 269.98413 192.601206 
L 275.92341 185.757119 
L 282.233895 178.124976 
L 288.915585 169.672618 
L 295.96848 160.38956 
L 304.506196 148.764243 
L 320.096806 127.040921 
L 329.005726 114.848556 
L 335.316212 106.585043 
L 340.513082 100.155726 
L 344.967542 95.009607 
L 348.679592 91.041196 
L 352.020437 87.764807 
L 355.361282 84.811371 
L 358.330922 82.493648 
L 360.929357 80.730901 
L 363.527792 79.241086 
L 365.755023 78.20075 
L 367.982253 77.396797 
L 370.209483 76.847083 
L 372.065508 76.596676 
L 373.921533 76.547113 
L 375.777558 76.710144 
L 377.633583 77.097977 
L 379.489608 77.723296 
L 381.345633 78.59927 
L 383.201658 79.73957 
L 385.057683 81.158388 
L 386.913708 82.870447 
L 388.769733 84.89102 
L 390.625758 87.235949 
L 392.481783 89.921657 
L 394.337808 92.965167 
L 396.193834 96.384122 
L 398.421064 101.008239 
L 400.648294 106.232189 
L 402.875524 112.090216 
L 405.102754 118.618017 
L 407.329984 125.852796 
L 409.557214 133.833315 
L 411.784444 142.599949 
L 414.011674 152.194735 
L 416.238904 162.661437 
L 418.837339 176.035453 
L 421.435774 190.733801 
L 424.034209 206.835516 
L 426.632645 224.423312 
L 429.23108 243.583723 
L 431.45831 261.327095 
L 431.45831 261.327095 
" clip-path="url(#p1abd7a7974)" style="fill: none; stroke: #8c564b; stroke-width: 1.5; stroke-linecap: square"/>
   </g>
   <g id="patch_3">
    <path d="M 42.082813 318.121875 
L 42.082813 10.8 
" style="fill: none; stroke: #000000; stroke-width: 0.8; stroke-linejoin: miter; stroke-linecap: square"/>
   </g>
   <g id="patch_4">
    <path d="M 450 318.121875 
L 450 10.8 
" style="fill: none; stroke: #000000; stroke-width: 0.8; stroke-linejoin: miter; stroke-linecap: square"/>
   </g>
   <g id="patch_5">
    <path d="M 42.082813 318.121875 
L 450 318.121875 
" style="fill: none; stroke: #000000; stroke-width: 0.8; stroke-linejoin: miter; stroke-linecap: square"/>
   </g>
   <g id="patch_6">
    <path d="M 42.082813 10.8 
L 450 10.8 
" style="fill: none; stroke: #000000; stroke-width: 0.8; stroke-linejoin: miter; stroke-linecap: square"/>
   </g>
   <g id="legend_1">
    <g id="patch_7">
     <path d="M 49.082813 106.95625 
L 247.182813 106.95625 
Q 249.182813 106.95625 249.182813 104.95625 
L 249.182813 17.8 
Q 249.182813 15.8 247.182813 15.8 
L 49.082813 15.8 
Q 47.082813 15.8 47.082813 17.8 
L 47.082813 104.95625 
Q 47.082813 106.95625 49.082813 106.95625 
z
" style="fill: #ffffff; opacity: 0.8; stroke: #cccccc; stroke-linejoin: miter"/>
    </g>
    <g id="line2d_18">
     <path d="M 51.082813 23.898438 
L 61.082813 23.898438 
L 71.082813 23.898438 
" style="fill: none; stroke: #1f77b4; stroke-width: 1.5; stroke-linecap: square"/>
    </g>
    <g id="text_12">
     <!-- f(x) -->
     <g transform="translate(79.082813 27.398438)scale(0.1 -0.1)">
      <defs>
       <path id="DejaVuSans-66" d="M 2375 4863 
L 2375 4384 
L 1825 4384 
Q 1516 4384 1395 4259 
Q 1275 4134 1275 3809 
L 1275 3500 
L 2222 3500 
L 2222 3053 
L 1275 3053 
L 1275 0 
L 697 0 
L 697 3053 
L 147 3053 
L 147 3500 
L 697 3500 
L 697 3744 
Q 697 4328 969 4595 
Q 1241 4863 1831 4863 
L 2375 4863 
z
" transform="scale(0.015625)"/>
       <path id="DejaVuSans-28" d="M 1984 4856 
Q 1566 4138 1362 3434 
Q 1159 2731 1159 2009 
Q 1159 1288 1364 580 
Q 1569 -128 1984 -844 
L 1484 -844 
Q 1016 -109 783 600 
Q 550 1309 550 2009 
Q 550 2706 781 3412 
Q 1013 4119 1484 4856 
L 1984 4856 
z
" transform="scale(0.015625)"/>
       <path id="DejaVuSans-78" d="M 3513 3500 
L 2247 1797 
L 3578 0 
L 2900 0 
L 1881 1375 
L 863 0 
L 184 0 
L 1544 1831 
L 300 3500 
L 978 3500 
L 1906 2253 
L 2834 3500 
L 3513 3500 
z
" transform="scale(0.015625)"/>
       <path id="DejaVuSans-29" d="M 513 4856 
L 1013 4856 
Q 1481 4119 1714 3412 
Q 1947 2706 1947 2009 
Q 1947 1309 1714 600 
Q 1481 -109 1013 -844 
L 513 -844 
Q 928 -128 1133 580 
Q 1338 1288 1338 2009 
Q 1338 2731 1133 3434 
Q 928 4138 513 4856 
z
" transform="scale(0.015625)"/>
      </defs>
      <use xlink:href="#DejaVuSans-66"/>
      <use xlink:href="#DejaVuSans-28" x="35.205078"/>
      <use xlink:href="#DejaVuSans-78" x="74.21875"/>
      <use xlink:href="#DejaVuSans-29" x="133.398438"/>
     </g>
    </g>
    <g id="line2d_19">
     <path d="M 51.082813 38.576563 
L 61.082813 38.576563 
L 71.082813 38.576563 
" style="fill: none; stroke: #ff7f0e; stroke-width: 1.5; stroke-linecap: square"/>
    </g>
    <g id="text_13">
     <!-- A [MSE=8.58e-05] -->
     <g transform="translate(79.082813 42.076563)scale(0.1 -0.1)">
      <defs>
       <path id="DejaVuSans-41" d="M 2188 4044 
L 1331 1722 
L 3047 1722 
L 2188 4044 
z
M 1831 4666 
L 2547 4666 
L 4325 0 
L 3669 0 
L 3244 1197 
L 1141 1197 
L 716 0 
L 50 0 
L 1831 4666 
z
" transform="scale(0.015625)"/>
       <path id="DejaVuSans-20" transform="scale(0.015625)"/>
       <path id="DejaVuSans-5b" d="M 550 4863 
L 1875 4863 
L 1875 4416 
L 1125 4416 
L 1125 -397 
L 1875 -397 
L 1875 -844 
L 550 -844 
L 550 4863 
z
" transform="scale(0.015625)"/>
       <path id="DejaVuSans-4d" d="M 628 4666 
L 1569 4666 
L 2759 1491 
L 3956 4666 
L 4897 4666 
L 4897 0 
L 4281 0 
L 4281 4097 
L 3078 897 
L 2444 897 
L 1241 4097 
L 1241 0 
L 628 0 
L 628 4666 
z
" transform="scale(0.015625)"/>
       <path id="DejaVuSans-53" d="M 3425 4513 
L 3425 3897 
Q 3066 4069 2747 4153 
Q 2428 4238 2131 4238 
Q 1616 4238 1336 4038 
Q 1056 3838 1056 3469 
Q 1056 3159 1242 3001 
Q 1428 2844 1947 2747 
L 2328 2669 
Q 3034 2534 3370 2195 
Q 3706 1856 3706 1288 
Q 3706 609 3251 259 
Q 2797 -91 1919 -91 
Q 1588 -91 1214 -16 
Q 841 59 441 206 
L 441 856 
Q 825 641 1194 531 
Q 1563 422 1919 422 
Q 2459 422 2753 634 
Q 3047 847 3047 1241 
Q 3047 1584 2836 1778 
Q 2625 1972 2144 2069 
L 1759 2144 
Q 1053 2284 737 2584 
Q 422 2884 422 3419 
Q 422 4038 858 4394 
Q 1294 4750 2059 4750 
Q 2388 4750 2728 4690 
Q 3069 4631 3425 4513 
z
" transform="scale(0.015625)"/>
       <path id="DejaVuSans-45" d="M 628 4666 
L 3578 4666 
L 3578 4134 
L 1259 4134 
L 1259 2753 
L 3481 2753 
L 3481 2222 
L 1259 2222 
L 1259 531 
L 3634 531 
L 3634 0 
L 628 0 
L 628 4666 
z
" transform="scale(0.015625)"/>
       <path id="DejaVuSans-3d" d="M 678 2906 
L 4684 2906 
L 4684 2381 
L 678 2381 
L 678 2906 
z
M 678 1631 
L 4684 1631 
L 4684 1100 
L 678 1100 
L 678 1631 
z
" transform="scale(0.015625)"/>
       <path id="DejaVuSans-35" d="M 691 4666 
L 3169 4666 
L 3169 4134 
L 1269 4134 
L 1269 2991 
Q 1406 3038 1543 3061 
Q 1681 3084 1819 3084 
Q 2600 3084 3056 2656 
Q 3513 2228 3513 1497 
Q 3513 744 3044 326 
Q 2575 -91 1722 -91 
Q 1428 -91 1123 -41 
Q 819 9 494 109 
L 494 744 
Q 775 591 1075 516 
Q 1375 441 1709 441 
Q 2250 441 2565 725 
Q 2881 1009 2881 1497 
Q 2881 1984 2565 2268 
Q 2250 2553 1709 2553 
Q 1456 2553 1204 2497 
Q 953 2441 691 2322 
L 691 4666 
z
" transform="scale(0.015625)"/>
       <path id="DejaVuSans-65" d="M 3597 1894 
L 3597 1613 
L 953 1613 
Q 991 1019 1311 708 
Q 1631 397 2203 397 
Q 2534 397 2845 478 
Q 3156 559 3463 722 
L 3463 178 
Q 3153 47 2828 -22 
Q 2503 -91 2169 -91 
Q 1331 -91 842 396 
Q 353 884 353 1716 
Q 353 2575 817 3079 
Q 1281 3584 2069 3584 
Q 2775 3584 3186 3129 
Q 3597 2675 3597 1894 
z
M 3022 2063 
Q 3016 2534 2758 2815 
Q 2500 3097 2075 3097 
Q 1594 3097 1305 2825 
Q 1016 2553 972 2059 
L 3022 2063 
z
" transform="scale(0.015625)"/>
       <path id="DejaVuSans-2d" d="M 313 2009 
L 1997 2009 
L 1997 1497 
L 313 1497 
L 313 2009 
z
" transform="scale(0.015625)"/>
       <path id="DejaVuSans-5d" d="M 1947 4863 
L 1947 -844 
L 622 -844 
L 622 -397 
L 1369 -397 
L 1369 4416 
L 622 4416 
L 622 4863 
L 1947 4863 
z
" transform="scale(0.015625)"/>
      </defs>
      <use xlink:href="#DejaVuSans-41"/>
      <use xlink:href="#DejaVuSans-20" x="68.408203"/>
      <use xlink:href="#DejaVuSans-5b" x="100.195312"/>
      <use xlink:href="#DejaVuSans-4d" x="139.208984"/>
      <use xlink:href="#DejaVuSans-53" x="225.488281"/>
      <use xlink:href="#DejaVuSans-45" x="288.964844"/>
      <use xlink:href="#DejaVuSans-3d" x="352.148438"/>
      <use xlink:href="#DejaVuSans-38" x="435.9375"/>
      <use xlink:href="#DejaVuSans-2e" x="499.560547"/>
      <use xlink:href="#DejaVuSans-35" x="531.347656"/>
      <use xlink:href="#DejaVuSans-38" x="594.970703"/>
      <use xlink:href="#DejaVuSans-65" x="658.59375"/>
      <use xlink:href="#DejaVuSans-2d" x="720.117188"/>
      <use xlink:href="#DejaVuSans-30" x="756.201172"/>
      <use xlink:href="#DejaVuSans-35" x="819.824219"/>
      <use xlink:href="#DejaVuSans-5d" x="883.447266"/>
     </g>
    </g>
    <g id="line2d_20">
     <path d="M 51.082813 53.25625 
L 61.082813 53.25625 
L 71.082813 53.25625 
" style="fill: none; stroke: #2ca02c; stroke-width: 1.5; stroke-linecap: square"/>
    </g>
    <g id="text_14">
     <!-- P [MSE=0.0303] [$\eta$=0.376] -->
     <g transform="translate(79.082813 56.75625)scale(0.1 -0.1)">
      <defs>
       <path id="DejaVuSans-50" d="M 1259 4147 
L 1259 2394 
L 2053 2394 
Q 2494 2394 2734 2622 
Q 2975 2850 2975 3272 
Q 2975 3691 2734 3919 
Q 2494 4147 2053 4147 
L 1259 4147 
z
M 628 4666 
L 2053 4666 
Q 2838 4666 3239 4311 
Q 3641 3956 3641 3272 
Q 3641 2581 3239 2228 
Q 2838 1875 2053 1875 
L 1259 1875 
L 1259 0 
L 628 0 
L 628 4666 
z
" transform="scale(0.015625)"/>
       <path id="DejaVuSans-33" d="M 2597 2516 
Q 3050 2419 3304 2112 
Q 3559 1806 3559 1356 
Q 3559 666 3084 287 
Q 2609 -91 1734 -91 
Q 1441 -91 1130 -33 
Q 819 25 488 141 
L 488 750 
Q 750 597 1062 519 
Q 1375 441 1716 441 
Q 2309 441 2620 675 
Q 2931 909 2931 1356 
Q 2931 1769 2642 2001 
Q 2353 2234 1838 2234 
L 1294 2234 
L 1294 2753 
L 1863 2753 
Q 2328 2753 2575 2939 
Q 2822 3125 2822 3475 
Q 2822 3834 2567 4026 
Q 2313 4219 1838 4219 
Q 1578 4219 1281 4162 
Q 984 4106 628 3988 
L 628 4550 
Q 988 4650 1302 4700 
Q 1616 4750 1894 4750 
Q 2613 4750 3031 4423 
Q 3450 4097 3450 3541 
Q 3450 3153 3228 2886 
Q 3006 2619 2597 2516 
z
" transform="scale(0.015625)"/>
       <path id="DejaVuSans-Oblique-3b7" d="M 3703 2113 
L 3034 -1331 
L 2459 -1331 
L 3125 2094 
Q 3222 2591 3075 2838 
Q 2931 3084 2544 3084 
Q 2078 3084 1750 2788 
Q 1425 2491 1325 1978 
L 941 0 
L 363 0 
L 1044 3500 
L 1622 3500 
L 1516 2956 
Q 1781 3272 2094 3428 
Q 2403 3584 2769 3584 
Q 3372 3584 3609 3213 
Q 3844 2838 3703 2113 
z
" transform="scale(0.015625)"/>
       <path id="DejaVuSans-37" d="M 525 4666 
L 3525 4666 
L 3525 4397 
L 1831 0 
L 1172 0 
L 2766 4134 
L 525 4134 
L 525 4666 
z
" transform="scale(0.015625)"/>
      </defs>
      <use xlink:href="#DejaVuSans-50" transform="translate(0 0.015625)"/>
      <use xlink:href="#DejaVuSans-20" transform="translate(60.302734 0.015625)"/>
      <use xlink:href="#DejaVuSans-5b" transform="translate(92.089844 0.015625)"/>
      <use xlink:href="#DejaVuSans-4d" transform="translate(131.103516 0.015625)"/>
      <use xlink:href="#DejaVuSans-53" transform="translate(217.382812 0.015625)"/>
      <use xlink:href="#DejaVuSans-45" transform="translate(280.859375 0.015625)"/>
      <use xlink:href="#DejaVuSans-3d" transform="translate(344.042969 0.015625)"/>
      <use xlink:href="#DejaVuSans-30" transform="translate(427.832031 0.015625)"/>
      <use xlink:href="#DejaVuSans-2e" transform="translate(491.455078 0.015625)"/>
      <use xlink:href="#DejaVuSans-30" transform="translate(523.242188 0.015625)"/>
      <use xlink:href="#DejaVuSans-33" transform="translate(586.865234 0.015625)"/>
      <use xlink:href="#DejaVuSans-30" transform="translate(650.488281 0.015625)"/>
      <use xlink:href="#DejaVuSans-33" transform="translate(714.111328 0.015625)"/>
      <use xlink:href="#DejaVuSans-5d" transform="translate(777.734375 0.015625)"/>
      <use xlink:href="#DejaVuSans-20" transform="translate(816.748047 0.015625)"/>
      <use xlink:href="#DejaVuSans-5b" transform="translate(848.535156 0.015625)"/>
      <use xlink:href="#DejaVuSans-Oblique-3b7" transform="translate(887.548828 0.015625)"/>
      <use xlink:href="#DejaVuSans-3d" transform="translate(950.927734 0.015625)"/>
      <use xlink:href="#DejaVuSans-30" transform="translate(1034.716797 0.015625)"/>
      <use xlink:href="#DejaVuSans-2e" transform="translate(1098.339844 0.015625)"/>
      <use xlink:href="#DejaVuSans-33" transform="translate(1130.126953 0.015625)"/>
      <use xlink:href="#DejaVuSans-37" transform="translate(1193.75 0.015625)"/>
      <use xlink:href="#DejaVuSans-36" transform="translate(1257.373047 0.015625)"/>
      <use xlink:href="#DejaVuSans-5d" transform="translate(1320.996094 0.015625)"/>
     </g>
    </g>
    <g id="line2d_21">
     <path d="M 51.082813 67.95625 
L 61.082813 67.95625 
L 71.082813 67.95625 
" style="fill: none; stroke: #d62728; stroke-width: 1.5; stroke-linecap: square"/>
    </g>
    <g id="text_15">
     <!-- M [MSE=0.0301] [$\eta$=0.351] -->
     <g transform="translate(79.082813 71.45625)scale(0.1 -0.1)">
      <use xlink:href="#DejaVuSans-4d" transform="translate(0 0.015625)"/>
      <use xlink:href="#DejaVuSans-20" transform="translate(86.279297 0.015625)"/>
      <use xlink:href="#DejaVuSans-5b" transform="translate(118.066406 0.015625)"/>
      <use xlink:href="#DejaVuSans-4d" transform="translate(157.080078 0.015625)"/>
      <use xlink:href="#DejaVuSans-53" transform="translate(243.359375 0.015625)"/>
      <use xlink:href="#DejaVuSans-45" transform="translate(306.835938 0.015625)"/>
      <use xlink:href="#DejaVuSans-3d" transform="translate(370.019531 0.015625)"/>
      <use xlink:href="#DejaVuSans-30" transform="translate(453.808594 0.015625)"/>
      <use xlink:href="#DejaVuSans-2e" transform="translate(517.431641 0.015625)"/>
      <use xlink:href="#DejaVuSans-30" transform="translate(549.21875 0.015625)"/>
      <use xlink:href="#DejaVuSans-33" transform="translate(612.841797 0.015625)"/>
      <use xlink:href="#DejaVuSans-30" transform="translate(676.464844 0.015625)"/>
      <use xlink:href="#DejaVuSans-31" transform="translate(740.087891 0.015625)"/>
      <use xlink:href="#DejaVuSans-5d" transform="translate(803.710938 0.015625)"/>
      <use xlink:href="#DejaVuSans-20" transform="translate(842.724609 0.015625)"/>
      <use xlink:href="#DejaVuSans-5b" transform="translate(874.511719 0.015625)"/>
      <use xlink:href="#DejaVuSans-Oblique-3b7" transform="translate(913.525391 0.015625)"/>
      <use xlink:href="#DejaVuSans-3d" transform="translate(976.904297 0.015625)"/>
      <use xlink:href="#DejaVuSans-30" transform="translate(1060.693359 0.015625)"/>
      <use xlink:href="#DejaVuSans-2e" transform="translate(1124.316406 0.015625)"/>
      <use xlink:href="#DejaVuSans-33" transform="translate(1156.103516 0.015625)"/>
      <use xlink:href="#DejaVuSans-35" transform="translate(1219.726562 0.015625)"/>
      <use xlink:href="#DejaVuSans-31" transform="translate(1283.349609 0.015625)"/>
      <use xlink:href="#DejaVuSans-5d" transform="translate(1346.972656 0.015625)"/>
     </g>
    </g>
    <g id="line2d_22">
     <path d="M 51.082813 82.65625 
L 61.082813 82.65625 
L 71.082813 82.65625 
" style="fill: none; stroke: #9467bd; stroke-width: 1.5; stroke-linecap: square"/>
    </g>
    <g id="text_16">
     <!-- S [MSE=0.0141] [$\eta$=0.0152] -->
     <g transform="translate(79.082813 86.15625)scale(0.1 -0.1)">
      <use xlink:href="#DejaVuSans-53" transform="translate(0 0.015625)"/>
      <use xlink:href="#DejaVuSans-20" transform="translate(63.476562 0.015625)"/>
      <use xlink:href="#DejaVuSans-5b" transform="translate(95.263672 0.015625)"/>
      <use xlink:href="#DejaVuSans-4d" transform="translate(134.277344 0.015625)"/>
      <use xlink:href="#DejaVuSans-53" transform="translate(220.556641 0.015625)"/>
      <use xlink:href="#DejaVuSans-45" transform="translate(284.033203 0.015625)"/>
      <use xlink:href="#DejaVuSans-3d" transform="translate(347.216797 0.015625)"/>
      <use xlink:href="#DejaVuSans-30" transform="translate(431.005859 0.015625)"/>
      <use xlink:href="#DejaVuSans-2e" transform="translate(494.628906 0.015625)"/>
      <use xlink:href="#DejaVuSans-30" transform="translate(526.416016 0.015625)"/>
      <use xlink:href="#DejaVuSans-31" transform="translate(590.039062 0.015625)"/>
      <use xlink:href="#DejaVuSans-34" transform="translate(653.662109 0.015625)"/>
      <use xlink:href="#DejaVuSans-31" transform="translate(717.285156 0.015625)"/>
      <use xlink:href="#DejaVuSans-5d" transform="translate(780.908203 0.015625)"/>
      <use xlink:href="#DejaVuSans-20" transform="translate(819.921875 0.015625)"/>
      <use xlink:href="#DejaVuSans-5b" transform="translate(851.708984 0.015625)"/>
      <use xlink:href="#DejaVuSans-Oblique-3b7" transform="translate(890.722656 0.015625)"/>
      <use xlink:href="#DejaVuSans-3d" transform="translate(954.101562 0.015625)"/>
      <use xlink:href="#DejaVuSans-30" transform="translate(1037.890625 0.015625)"/>
      <use xlink:href="#DejaVuSans-2e" transform="translate(1101.513672 0.015625)"/>
      <use xlink:href="#DejaVuSans-30" transform="translate(1133.300781 0.015625)"/>
      <use xlink:href="#DejaVuSans-31" transform="translate(1196.923828 0.015625)"/>
      <use xlink:href="#DejaVuSans-35" transform="translate(1260.546875 0.015625)"/>
      <use xlink:href="#DejaVuSans-32" transform="translate(1324.169922 0.015625)"/>
      <use xlink:href="#DejaVuSans-5d" transform="translate(1387.792969 0.015625)"/>
     </g>
    </g>
    <g id="line2d_23">
     <path d="M 51.082813 97.35625 
L 61.082813 97.35625 
L 71.082813 97.35625 
" style="fill: none; stroke: #8c564b; stroke-width: 1.5; stroke-linecap: square"/>
    </g>
    <g id="text_17">
     <!-- M + S [MSE=0.00705] [$\eta$=0.115] -->
     <g transform="translate(79.082813 100.85625)scale(0.1 -0.1)">
      <defs>
       <path id="DejaVuSans-2b" d="M 2944 4013 
L 2944 2272 
L 4684 2272 
L 4684 1741 
L 2944 1741 
L 2944 0 
L 2419 0 
L 2419 1741 
L 678 1741 
L 678 2272 
L 2419 2272 
L 2419 4013 
L 2944 4013 
z
" transform="scale(0.015625)"/>
      </defs>
      <use xlink:href="#DejaVuSans-4d" transform="translate(0 0.015625)"/>
      <use xlink:href="#DejaVuSans-20" transform="translate(86.279297 0.015625)"/>
      <use xlink:href="#DejaVuSans-2b" transform="translate(118.066406 0.015625)"/>
      <use xlink:href="#DejaVuSans-20" transform="translate(201.855469 0.015625)"/>
      <use xlink:href="#DejaVuSans-53" transform="translate(233.642578 0.015625)"/>
      <use xlink:href="#DejaVuSans-20" transform="translate(297.119141 0.015625)"/>
      <use xlink:href="#DejaVuSans-5b" transform="translate(328.90625 0.015625)"/>
      <use xlink:href="#DejaVuSans-4d" transform="translate(367.919922 0.015625)"/>
      <use xlink:href="#DejaVuSans-53" transform="translate(454.199219 0.015625)"/>
      <use xlink:href="#DejaVuSans-45" transform="translate(517.675781 0.015625)"/>
      <use xlink:href="#DejaVuSans-3d" transform="translate(580.859375 0.015625)"/>
      <use xlink:href="#DejaVuSans-30" transform="translate(664.648438 0.015625)"/>
      <use xlink:href="#DejaVuSans-2e" transform="translate(728.271484 0.015625)"/>
      <use xlink:href="#DejaVuSans-30" transform="translate(760.058594 0.015625)"/>
      <use xlink:href="#DejaVuSans-30" transform="translate(823.681641 0.015625)"/>
      <use xlink:href="#DejaVuSans-37" transform="translate(887.304688 0.015625)"/>
      <use xlink:href="#DejaVuSans-30" transform="translate(950.927734 0.015625)"/>
      <use xlink:href="#DejaVuSans-35" transform="translate(1014.550781 0.015625)"/>
      <use xlink:href="#DejaVuSans-5d" transform="translate(1078.173828 0.015625)"/>
      <use xlink:href="#DejaVuSans-20" transform="translate(1117.1875 0.015625)"/>
      <use xlink:href="#DejaVuSans-5b" transform="translate(1148.974609 0.015625)"/>
      <use xlink:href="#DejaVuSans-Oblique-3b7" transform="translate(1187.988281 0.015625)"/>
      <use xlink:href="#DejaVuSans-3d" transform="translate(1251.367188 0.015625)"/>
      <use xlink:href="#DejaVuSans-30" transform="translate(1335.15625 0.015625)"/>
      <use xlink:href="#DejaVuSans-2e" transform="translate(1398.779297 0.015625)"/>
      <use xlink:href="#DejaVuSans-31" transform="translate(1430.566406 0.015625)"/>
      <use xlink:href="#DejaVuSans-31" transform="translate(1494.189453 0.015625)"/>
      <use xlink:href="#DejaVuSans-35" transform="translate(1557.8125 0.015625)"/>
      <use xlink:href="#DejaVuSans-5d" transform="translate(1621.435547 0.015625)"/>
     </g>
    </g>
   </g>
  </g>
 </g>
 <defs>
  <clipPath id="p1abd7a7974">
   <rect x="42.082813" y="10.8" width="407.917187" height="307.321875"/>
  </clipPath>
 </defs>
</svg>
