<?xml version="1.0" encoding="utf-8" standalone="no"?>
<!DOCTYPE svg PUBLIC "-//W3C//DTD SVG 1.1//EN"
  "http://www.w3.org/Graphics/SVG/1.1/DTD/svg11.dtd">
<svg xmlns:xlink="http://www.w3.org/1999/xlink" width="460.8pt" height="345.6pt" viewBox="0 0 460.8 345.6" xmlns="http://www.w3.org/2000/svg" version="1.1">
 <metadata>
  <rdf:RDF xmlns:dc="http://purl.org/dc/elements/1.1/" xmlns:cc="http://creativecommons.org/ns#" xmlns:rdf="http://www.w3.org/1999/02/22-rdf-syntax-ns#">
   <cc:Work>
    <dc:type rdf:resource="http://purl.org/dc/dcmitype/StillImage"/>
    <dc:date>2022-10-26T15:14:52.525519</dc:date>
    <dc:format>image/svg+xml</dc:format>
    <dc:creator>
     <cc:Agent>
      <dc:title>Matplotlib v3.5.3, https://matplotlib.org/</dc:title>
     </cc:Agent>
    </dc:creator>
   </cc:Work>
  </rdf:RDF>
 </metadata>
 <defs>
  <style type="text/css">*{stroke-linejoin: round; stroke-linecap: butt}</style>
 </defs>
 <g id="figure_1">
  <g id="patch_1">
   <path d="M 0 345.6 
L 460.8 345.6 
L 460.8 0 
L 0 0 
z
" style="fill: #ffffff"/>
  </g>
  <g id="axes_1">
   <g id="patch_2">
    <path d="M 42.082813 318.121875 
L 450 318.121875 
L 450 10.8 
L 42.082813 10.8 
z
" style="fill: #ffffff"/>
   </g>
   <g id="matplotlib.axis_1">
    <g id="xtick_1">
     <g id="line2d_1">
      <defs>
       <path id="m10426bc770" d="M 0 0 
L 0 3.5 
" style="stroke: #000000; stroke-width: 0.8"/>
      </defs>
      <g>
       <use xlink:href="#m10426bc770" x="60.624503" y="318.121875" style="stroke: #000000; stroke-width: 0.8"/>
      </g>
     </g>
     <g id="text_1">
      <!-- 0.0 -->
      <g transform="translate(52.67294 332.720312)scale(0.1 -0.1)">
       <defs>
        <path id="DejaVuSans-30" d="M 2034 4250 
Q 1547 4250 1301 3770 
Q 1056 3291 1056 2328 
Q 1056 1369 1301 889 
Q 1547 409 2034 409 
Q 2525 409 2770 889 
Q 3016 1369 3016 2328 
Q 3016 3291 2770 3770 
Q 2525 4250 2034 4250 
z
M 2034 4750 
Q 2819 4750 3233 4129 
Q 3647 3509 3647 2328 
Q 3647 1150 3233 529 
Q 2819 -91 2034 -91 
Q 1250 -91 836 529 
Q 422 1150 422 2328 
Q 422 3509 836 4129 
Q 1250 4750 2034 4750 
z
" transform="scale(0.015625)"/>
        <path id="DejaVuSans-2e" d="M 684 794 
L 1344 794 
L 1344 0 
L 684 0 
L 684 794 
z
" transform="scale(0.015625)"/>
       </defs>
       <use xlink:href="#DejaVuSans-30"/>
       <use xlink:href="#DejaVuSans-2e" x="63.623047"/>
       <use xlink:href="#DejaVuSans-30" x="95.410156"/>
      </g>
     </g>
    </g>
    <g id="xtick_2">
     <g id="line2d_2">
      <g>
       <use xlink:href="#m10426bc770" x="134.791264" y="318.121875" style="stroke: #000000; stroke-width: 0.8"/>
      </g>
     </g>
     <g id="text_2">
      <!-- 0.2 -->
      <g transform="translate(126.839702 332.720312)scale(0.1 -0.1)">
       <defs>
        <path id="DejaVuSans-32" d="M 1228 531 
L 3431 531 
L 3431 0 
L 469 0 
L 469 531 
Q 828 903 1448 1529 
Q 2069 2156 2228 2338 
Q 2531 2678 2651 2914 
Q 2772 3150 2772 3378 
Q 2772 3750 2511 3984 
Q 2250 4219 1831 4219 
Q 1534 4219 1204 4116 
Q 875 4013 500 3803 
L 500 4441 
Q 881 4594 1212 4672 
Q 1544 4750 1819 4750 
Q 2544 4750 2975 4387 
Q 3406 4025 3406 3419 
Q 3406 3131 3298 2873 
Q 3191 2616 2906 2266 
Q 2828 2175 2409 1742 
Q 1991 1309 1228 531 
z
" transform="scale(0.015625)"/>
       </defs>
       <use xlink:href="#DejaVuSans-30"/>
       <use xlink:href="#DejaVuSans-2e" x="63.623047"/>
       <use xlink:href="#DejaVuSans-32" x="95.410156"/>
      </g>
     </g>
    </g>
    <g id="xtick_3">
     <g id="line2d_3">
      <g>
       <use xlink:href="#m10426bc770" x="208.958026" y="318.121875" style="stroke: #000000; stroke-width: 0.8"/>
      </g>
     </g>
     <g id="text_3">
      <!-- 0.4 -->
      <g transform="translate(201.006463 332.720312)scale(0.1 -0.1)">
       <defs>
        <path id="DejaVuSans-34" d="M 2419 4116 
L 825 1625 
L 2419 1625 
L 2419 4116 
z
M 2253 4666 
L 3047 4666 
L 3047 1625 
L 3713 1625 
L 3713 1100 
L 3047 1100 
L 3047 0 
L 2419 0 
L 2419 1100 
L 313 1100 
L 313 1709 
L 2253 4666 
z
" transform="scale(0.015625)"/>
       </defs>
       <use xlink:href="#DejaVuSans-30"/>
       <use xlink:href="#DejaVuSans-2e" x="63.623047"/>
       <use xlink:href="#DejaVuSans-34" x="95.410156"/>
      </g>
     </g>
    </g>
    <g id="xtick_4">
     <g id="line2d_4">
      <g>
       <use xlink:href="#m10426bc770" x="283.124787" y="318.121875" style="stroke: #000000; stroke-width: 0.8"/>
      </g>
     </g>
     <g id="text_4">
      <!-- 0.6 -->
      <g transform="translate(275.173224 332.720312)scale(0.1 -0.1)">
       <defs>
        <path id="DejaVuSans-36" d="M 2113 2584 
Q 1688 2584 1439 2293 
Q 1191 2003 1191 1497 
Q 1191 994 1439 701 
Q 1688 409 2113 409 
Q 2538 409 2786 701 
Q 3034 994 3034 1497 
Q 3034 2003 2786 2293 
Q 2538 2584 2113 2584 
z
M 3366 4563 
L 3366 3988 
Q 3128 4100 2886 4159 
Q 2644 4219 2406 4219 
Q 1781 4219 1451 3797 
Q 1122 3375 1075 2522 
Q 1259 2794 1537 2939 
Q 1816 3084 2150 3084 
Q 2853 3084 3261 2657 
Q 3669 2231 3669 1497 
Q 3669 778 3244 343 
Q 2819 -91 2113 -91 
Q 1303 -91 875 529 
Q 447 1150 447 2328 
Q 447 3434 972 4092 
Q 1497 4750 2381 4750 
Q 2619 4750 2861 4703 
Q 3103 4656 3366 4563 
z
" transform="scale(0.015625)"/>
       </defs>
       <use xlink:href="#DejaVuSans-30"/>
       <use xlink:href="#DejaVuSans-2e" x="63.623047"/>
       <use xlink:href="#DejaVuSans-36" x="95.410156"/>
      </g>
     </g>
    </g>
    <g id="xtick_5">
     <g id="line2d_5">
      <g>
       <use xlink:href="#m10426bc770" x="357.291548" y="318.121875" style="stroke: #000000; stroke-width: 0.8"/>
      </g>
     </g>
     <g id="text_5">
      <!-- 0.8 -->
      <g transform="translate(349.339986 332.720312)scale(0.1 -0.1)">
       <defs>
        <path id="DejaVuSans-38" d="M 2034 2216 
Q 1584 2216 1326 1975 
Q 1069 1734 1069 1313 
Q 1069 891 1326 650 
Q 1584 409 2034 409 
Q 2484 409 2743 651 
Q 3003 894 3003 1313 
Q 3003 1734 2745 1975 
Q 2488 2216 2034 2216 
z
M 1403 2484 
Q 997 2584 770 2862 
Q 544 3141 544 3541 
Q 544 4100 942 4425 
Q 1341 4750 2034 4750 
Q 2731 4750 3128 4425 
Q 3525 4100 3525 3541 
Q 3525 3141 3298 2862 
Q 3072 2584 2669 2484 
Q 3125 2378 3379 2068 
Q 3634 1759 3634 1313 
Q 3634 634 3220 271 
Q 2806 -91 2034 -91 
Q 1263 -91 848 271 
Q 434 634 434 1313 
Q 434 1759 690 2068 
Q 947 2378 1403 2484 
z
M 1172 3481 
Q 1172 3119 1398 2916 
Q 1625 2713 2034 2713 
Q 2441 2713 2670 2916 
Q 2900 3119 2900 3481 
Q 2900 3844 2670 4047 
Q 2441 4250 2034 4250 
Q 1625 4250 1398 4047 
Q 1172 3844 1172 3481 
z
" transform="scale(0.015625)"/>
       </defs>
       <use xlink:href="#DejaVuSans-30"/>
       <use xlink:href="#DejaVuSans-2e" x="63.623047"/>
       <use xlink:href="#DejaVuSans-38" x="95.410156"/>
      </g>
     </g>
    </g>
    <g id="xtick_6">
     <g id="line2d_6">
      <g>
       <use xlink:href="#m10426bc770" x="431.45831" y="318.121875" style="stroke: #000000; stroke-width: 0.8"/>
      </g>
     </g>
     <g id="text_6">
      <!-- 1.0 -->
      <g transform="translate(423.506747 332.720312)scale(0.1 -0.1)">
       <defs>
        <path id="DejaVuSans-31" d="M 794 531 
L 1825 531 
L 1825 4091 
L 703 3866 
L 703 4441 
L 1819 4666 
L 2450 4666 
L 2450 531 
L 3481 531 
L 3481 0 
L 794 0 
L 794 531 
z
" transform="scale(0.015625)"/>
       </defs>
       <use xlink:href="#DejaVuSans-31"/>
       <use xlink:href="#DejaVuSans-2e" x="63.623047"/>
       <use xlink:href="#DejaVuSans-30" x="95.410156"/>
      </g>
     </g>
    </g>
   </g>
   <g id="matplotlib.axis_2">
    <g id="ytick_1">
     <g id="line2d_7">
      <defs>
       <path id="m47c0990d27" d="M 0 0 
L -3.5 0 
" style="stroke: #000000; stroke-width: 0.8"/>
      </defs>
      <g>
       <use xlink:href="#m47c0990d27" x="42.082813" y="302.755781" style="stroke: #000000; stroke-width: 0.8"/>
      </g>
     </g>
     <g id="text_7">
      <!-- −0.2 -->
      <g transform="translate(10.8 306.555)scale(0.1 -0.1)">
       <defs>
        <path id="DejaVuSans-2212" d="M 678 2272 
L 4684 2272 
L 4684 1741 
L 678 1741 
L 678 2272 
z
" transform="scale(0.015625)"/>
       </defs>
       <use xlink:href="#DejaVuSans-2212"/>
       <use xlink:href="#DejaVuSans-30" x="83.789062"/>
       <use xlink:href="#DejaVuSans-2e" x="147.412109"/>
       <use xlink:href="#DejaVuSans-32" x="179.199219"/>
      </g>
     </g>
    </g>
    <g id="ytick_2">
     <g id="line2d_8">
      <g>
       <use xlink:href="#m47c0990d27" x="42.082813" y="241.291406" style="stroke: #000000; stroke-width: 0.8"/>
      </g>
     </g>
     <g id="text_8">
      <!-- 0.0 -->
      <g transform="translate(19.179688 245.090625)scale(0.1 -0.1)">
       <use xlink:href="#DejaVuSans-30"/>
       <use xlink:href="#DejaVuSans-2e" x="63.623047"/>
       <use xlink:href="#DejaVuSans-30" x="95.410156"/>
      </g>
     </g>
    </g>
    <g id="ytick_3">
     <g id="line2d_9">
      <g>
       <use xlink:href="#m47c0990d27" x="42.082813" y="179.827031" style="stroke: #000000; stroke-width: 0.8"/>
      </g>
     </g>
     <g id="text_9">
      <!-- 0.2 -->
      <g transform="translate(19.179688 183.62625)scale(0.1 -0.1)">
       <use xlink:href="#DejaVuSans-30"/>
       <use xlink:href="#DejaVuSans-2e" x="63.623047"/>
       <use xlink:href="#DejaVuSans-32" x="95.410156"/>
      </g>
     </g>
    </g>
    <g id="ytick_4">
     <g id="line2d_10">
      <g>
       <use xlink:href="#m47c0990d27" x="42.082813" y="118.362656" style="stroke: #000000; stroke-width: 0.8"/>
      </g>
     </g>
     <g id="text_10">
      <!-- 0.4 -->
      <g transform="translate(19.179688 122.161875)scale(0.1 -0.1)">
       <use xlink:href="#DejaVuSans-30"/>
       <use xlink:href="#DejaVuSans-2e" x="63.623047"/>
       <use xlink:href="#DejaVuSans-34" x="95.410156"/>
      </g>
     </g>
    </g>
    <g id="ytick_5">
     <g id="line2d_11">
      <g>
       <use xlink:href="#m47c0990d27" x="42.082813" y="56.898281" style="stroke: #000000; stroke-width: 0.8"/>
      </g>
     </g>
     <g id="text_11">
      <!-- 0.6 -->
      <g transform="translate(19.179688 60.6975)scale(0.1 -0.1)">
       <use xlink:href="#DejaVuSans-30"/>
       <use xlink:href="#DejaVuSans-2e" x="63.623047"/>
       <use xlink:href="#DejaVuSans-36" x="95.410156"/>
      </g>
     </g>
    </g>
   </g>
   <g id="line2d_12">
    <path d="M 60.624503 241.290678 
L 127.441405 241.395031 
L 135.97912 241.650725 
L 142.289605 242.054998 
L 147.115271 242.569349 
L 151.569731 243.269092 
L 155.281781 244.065976 
L 158.622626 244.986134 
L 161.963471 246.130939 
L 165.304316 247.530422 
L 168.273956 249.009828 
L 171.243596 250.726283 
L 174.213236 252.68908 
L 177.182877 254.900376 
L 180.523722 257.676463 
L 184.235772 261.088488 
L 188.319027 265.167092 
L 194.629512 271.843543 
L 200.197587 277.640143 
L 203.538432 280.828698 
L 206.508072 283.346491 
L 208.735303 284.978648 
L 210.962533 286.347083 
L 212.818558 287.258757 
L 214.674583 287.940827 
L 216.530608 288.374769 
L 218.386633 288.544141 
L 219.871453 288.479607 
L 221.356273 288.230689 
L 222.841093 287.792525 
L 224.325913 287.16145 
L 226.181938 286.097745 
L 228.037963 284.726943 
L 229.893988 283.050158 
L 231.750013 281.071551 
L 233.606038 278.798224 
L 235.833268 275.695306 
L 238.060498 272.204291 
L 240.658934 267.676662 
L 243.257369 262.70609 
L 246.227009 256.553017 
L 249.567854 249.132417 
L 253.651109 239.52461 
L 259.590389 224.926611 
L 271.840155 194.711277 
L 277.40823 181.651501 
L 282.6051 170.051342 
L 287.430765 159.833412 
L 292.25643 150.161999 
L 296.71089 141.723485 
L 301.165351 133.760992 
L 305.248606 126.892939 
L 309.331861 120.457293 
L 313.043911 115.005177 
L 316.755961 109.959162 
L 320.096806 105.789214 
L 323.437651 101.994937 
L 326.407291 98.956541 
L 329.376931 96.249606 
L 331.975366 94.165032 
L 334.573802 92.355508 
L 337.172237 90.829588 
L 339.399467 89.753033 
L 341.626697 88.894214 
L 343.853927 88.256269 
L 346.081157 87.841511 
L 348.308387 87.651388 
L 350.535617 87.686449 
L 352.762847 87.946322 
L 354.990077 88.429702 
L 357.217307 89.134351 
L 359.444537 90.057103 
L 361.671767 91.19388 
L 364.270203 92.783948 
L 366.868638 94.649176 
L 369.467073 96.778702 
L 372.436713 99.520283 
L 375.406353 102.570649 
L 378.747198 106.343552 
L 382.088043 110.444669 
L 385.800093 115.341966 
L 390.254553 121.620155 
L 395.451424 129.3799 
L 402.133114 139.814953 
L 421.435774 170.254475 
L 427.00385 178.492683 
L 431.45831 184.762706 
L 431.45831 184.762706 
" clip-path="url(#p2e16128952)" style="fill: none; stroke: #1f77b4; stroke-width: 1.5; stroke-linecap: square"/>
   </g>
   <g id="line2d_13">
    <path d="M 60.624503 223.187172 
L 69.162218 228.561952 
L 77.328728 233.436912 
L 85.124034 237.82647 
L 92.548134 241.748182 
L 99.601029 245.222524 
L 106.282719 248.272621 
L 112.96441 251.072655 
L 119.274895 253.473555 
L 125.214175 255.504737 
L 131.153455 257.302492 
L 136.72153 258.765267 
L 142.289605 260.002295 
L 147.857681 261.003271 
L 153.054551 261.715288 
L 158.251421 262.203879 
L 163.448291 262.460285 
L 168.273956 262.482765 
L 173.099621 262.290347 
L 177.925287 261.875949 
L 182.750952 261.232524 
L 187.576617 260.353104 
L 192.402282 259.230838 
L 196.856742 257.973575 
L 201.311202 256.498606 
L 205.765662 254.801047 
L 210.220123 252.876263 
L 214.674583 250.719921 
L 219.129043 248.328048 
L 223.583503 245.697092 
L 228.037963 242.823992 
L 232.863628 239.435343 
L 237.689293 235.757306 
L 242.514959 231.788628 
L 247.340624 227.529252 
L 252.166289 222.980488 
L 257.363159 217.761505 
L 262.560029 212.21612 
L 267.756899 206.352901 
L 273.324975 199.731465 
L 279.264255 192.302416 
L 285.57474 184.027193 
L 292.25643 174.885349 
L 300.051735 163.814672 
L 310.074271 149.151938 
L 327.149701 124.127204 
L 333.460187 115.295138 
L 338.657057 108.379762 
L 343.111517 102.801968 
L 347.194772 98.044722 
L 350.906822 94.07414 
L 354.247667 90.836534 
L 357.217307 88.26252 
L 359.815742 86.271783 
L 362.414177 84.549614 
L 364.641408 83.305916 
L 366.868638 82.294011 
L 369.095868 81.531004 
L 371.323098 81.034793 
L 373.179123 80.838558 
L 375.035148 80.851853 
L 376.891173 81.086373 
L 378.747198 81.554248 
L 380.603223 82.268054 
L 382.459248 83.240827 
L 384.315273 84.486076 
L 386.171298 86.017795 
L 388.027323 87.850484 
L 389.883348 89.999156 
L 391.739373 92.479356 
L 393.595398 95.307176 
L 395.451424 98.49927 
L 397.307449 102.072872 
L 399.534679 106.889931 
L 401.761909 112.31404 
L 403.989139 118.378487 
L 406.216369 125.117918 
L 408.443599 132.568379 
L 410.670829 140.767369 
L 412.898059 149.753883 
L 415.125289 159.568466 
L 417.723724 172.121714 
L 420.322159 185.929256 
L 422.920594 201.06404 
L 425.519029 217.602309 
L 428.117465 235.623729 
L 430.7159 255.211516 
L 431.45831 261.107793 
L 431.45831 261.107793 
" clip-path="url(#p2e16128952)" style="fill: none; stroke: #ff7f0e; stroke-width: 1.5; stroke-linecap: square"/>
   </g>
   <g id="line2d_14">
    <path d="M 60.624503 209.285025 
L 69.533423 216.361834 
L 77.699933 222.574428 
L 85.495239 228.239248 
L 92.919339 233.374186 
L 100.343439 238.235657 
L 107.396334 242.581666 
L 114.078025 246.436277 
L 120.38851 249.825926 
L 126.698995 252.955849 
L 132.638275 255.649466 
L 138.20635 257.939352 
L 143.774425 259.988564 
L 148.971296 261.672438 
L 154.168166 263.12415 
L 158.993831 264.254311 
L 163.819496 265.165048 
L 168.645161 265.846748 
L 173.099621 266.264245 
L 177.554082 266.470406 
L 182.008542 266.457313 
L 186.463002 266.216996 
L 190.917462 265.741459 
L 195.000717 265.092104 
L 199.083972 264.232296 
L 203.167227 263.156011 
L 207.250483 261.857335 
L 211.333738 260.330502 
L 215.416993 258.569942 
L 219.500248 256.570325 
L 223.583503 254.326613 
L 227.666758 251.834121 
L 231.750013 249.088576 
L 235.833268 246.086189 
L 239.916524 242.823729 
L 244.370984 238.965042 
L 248.825444 234.791405 
L 253.279904 230.301631 
L 257.734364 225.495879 
L 262.188824 220.375833 
L 267.014489 214.47844 
L 271.840155 208.223115 
L 277.037025 201.097758 
L 282.233895 193.585608 
L 287.80197 185.132688 
L 293.74125 175.693587 
L 300.051735 165.24462 
L 307.475836 152.50435 
L 317.498371 134.820383 
L 331.604161 109.963495 
L 337.914647 99.317516 
L 342.740312 91.574358 
L 347.194772 84.846554 
L 350.906822 79.625629 
L 354.247667 75.285293 
L 357.217307 71.756511 
L 360.186947 68.579013 
L 362.785382 66.120163 
L 365.383818 63.9929 
L 367.611048 62.457574 
L 369.838278 61.210391 
L 371.694303 60.407112 
L 373.550328 59.832631 
L 375.406353 59.500816 
L 377.262378 59.426068 
L 378.747198 59.561383 
L 380.232018 59.878688 
L 381.716838 60.386134 
L 383.201658 61.092112 
L 384.686478 62.00526 
L 386.171298 63.134474 
L 388.027323 64.863804 
L 389.883348 66.963523 
L 391.739373 69.452766 
L 393.595398 72.351357 
L 395.451424 75.679828 
L 397.307449 79.459439 
L 399.163474 83.712203 
L 401.019499 88.460903 
L 403.246729 94.847233 
L 405.473959 102.024006 
L 407.701189 110.03527 
L 409.928419 118.926886 
L 412.155649 128.746585 
L 414.382879 139.544034 
L 416.610109 151.370897 
L 418.837339 164.280901 
L 421.435774 180.78619 
L 424.034209 198.934384 
L 426.632645 218.822224 
L 429.23108 240.550848 
L 431.45831 260.720491 
L 431.45831 260.720491 
" clip-path="url(#p2e16128952)" style="fill: none; stroke: #2ca02c; stroke-width: 1.5; stroke-linecap: square"/>
   </g>
   <g id="line2d_15">
    <path d="M 60.624503 220.363177 
L 68.419808 227.100424 
L 75.843908 233.214146 
L 82.896804 238.724241 
L 89.578494 243.654346 
L 95.888979 248.031544 
L 101.828259 251.886016 
L 107.396334 255.250614 
L 112.96441 258.359365 
L 118.16128 261.016652 
L 123.35815 263.425067 
L 128.183815 265.427111 
L 133.00948 267.192417 
L 137.835145 268.709979 
L 142.289605 269.88126 
L 146.744066 270.823084 
L 151.198526 271.526585 
L 155.281781 271.954562 
L 159.365036 272.168145 
L 163.448291 272.160738 
L 167.531546 271.925916 
L 171.614801 271.45749 
L 175.698057 270.749563 
L 179.781312 269.796601 
L 183.864567 268.593501 
L 187.947822 267.135673 
L 192.031077 265.41912 
L 196.114332 263.440521 
L 200.197587 261.197326 
L 204.280842 258.687852 
L 208.364098 255.911374 
L 212.447353 252.868233 
L 216.530608 249.559936 
L 220.985068 245.651779 
L 225.439528 241.436885 
L 229.893988 236.922856 
L 234.719653 231.706609 
L 239.545319 226.166727 
L 244.742189 219.861074 
L 250.310264 212.746714 
L 256.249544 204.796832 
L 262.931234 195.482633 
L 271.46895 183.169318 
L 294.854865 149.175611 
L 300.794145 141.054387 
L 305.991016 134.316092 
L 310.445476 128.885236 
L 314.528731 124.238741 
L 318.240781 120.328903 
L 321.952831 116.752905 
L 325.293676 113.847135 
L 328.263316 111.532488 
L 331.232956 109.486807 
L 334.202597 107.725197 
L 336.801032 106.428019 
L 339.399467 105.368104 
L 341.997902 104.553589 
L 344.596337 103.991774 
L 347.194772 103.688999 
L 349.422002 103.639671 
L 351.649232 103.787145 
L 353.876462 104.133303 
L 356.103692 104.679232 
L 358.330922 105.425152 
L 360.929357 106.547138 
L 363.527792 107.937383 
L 366.126228 109.590876 
L 368.724663 111.500324 
L 371.694303 113.983295 
L 374.663943 116.768745 
L 378.004788 120.23379 
L 381.716838 124.444725 
L 385.800093 129.430433 
L 391.368168 136.609228 
L 399.534679 147.143784 
L 403.246729 151.550415 
L 406.216369 154.723602 
L 408.814804 157.146737 
L 411.042034 158.89433 
L 412.898059 160.074466 
L 414.754084 160.965356 
L 416.238904 161.444242 
L 417.723724 161.692999 
L 419.208544 161.68999 
L 420.693364 161.412542 
L 422.178184 160.836906 
L 423.663004 159.938227 
L 425.147824 158.690503 
L 426.632645 157.066554 
L 428.117465 155.037979 
L 429.602285 152.57512 
L 431.087105 149.647022 
L 431.45831 148.838549 
L 431.45831 148.838549 
" clip-path="url(#p2e16128952)" style="fill: none; stroke: #d62728; stroke-width: 1.5; stroke-linecap: square"/>
   </g>
   <g id="line2d_16">
    <path d="M 60.624503 249.720035 
L 76.586318 246.986933 
L 91.805724 244.159448 
L 106.282719 241.250084 
L 120.38851 238.190364 
L 133.75189 235.069114 
L 146.744066 231.809859 
L 159.365036 228.415181 
L 171.614801 224.889374 
L 183.493362 221.238689 
L 195.000717 217.471574 
L 206.136867 213.598889 
L 217.273018 209.493393 
L 228.409168 205.147746 
L 239.545319 200.557644 
L 250.681469 195.723179 
L 262.188824 190.477559 
L 274.067385 184.813553 
L 287.05956 178.367384 
L 303.763786 169.808442 
L 329.376931 156.673175 
L 339.028262 151.989402 
L 346.823567 148.441659 
L 353.505257 145.636562 
L 359.444537 143.379034 
L 364.641408 141.626998 
L 369.467073 140.22151 
L 373.921533 139.143372 
L 378.004788 138.365663 
L 382.088043 137.814736 
L 385.800093 137.533151 
L 389.512143 137.482763 
L 392.852988 137.654326 
L 396.193834 138.050218 
L 399.534679 138.689825 
L 402.504319 139.479623 
L 405.473959 140.493655 
L 408.443599 141.748164 
L 411.413239 143.260301 
L 414.382879 145.048168 
L 417.352519 147.130861 
L 419.950954 149.210869 
L 422.549389 151.546174 
L 425.147824 154.151608 
L 427.74626 157.042692 
L 430.344695 160.235662 
L 431.45831 161.700673 
L 431.45831 161.700673 
" clip-path="url(#p2e16128952)" style="fill: none; stroke: #9467bd; stroke-width: 1.5; stroke-linecap: square"/>
   </g>
   <g id="patch_3">
    <path d="M 42.082813 318.121875 
L 42.082813 10.8 
" style="fill: none; stroke: #000000; stroke-width: 0.8; stroke-linejoin: miter; stroke-linecap: square"/>
   </g>
   <g id="patch_4">
    <path d="M 450 318.121875 
L 450 10.8 
" style="fill: none; stroke: #000000; stroke-width: 0.8; stroke-linejoin: miter; stroke-linecap: square"/>
   </g>
   <g id="patch_5">
    <path d="M 42.082813 318.121875 
L 450 318.121875 
" style="fill: none; stroke: #000000; stroke-width: 0.8; stroke-linejoin: miter; stroke-linecap: square"/>
   </g>
   <g id="patch_6">
    <path d="M 42.082813 10.8 
L 450 10.8 
" style="fill: none; stroke: #000000; stroke-width: 0.8; stroke-linejoin: miter; stroke-linecap: square"/>
   </g>
   <g id="legend_1">
    <g id="patch_7">
     <path d="M 49.082813 92.46875 
L 368.667188 92.46875 
Q 370.667188 92.46875 370.667188 90.46875 
L 370.667188 17.8 
Q 370.667188 15.8 368.667188 15.8 
L 49.082813 15.8 
Q 47.082813 15.8 47.082813 17.8 
L 47.082813 90.46875 
Q 47.082813 92.46875 49.082813 92.46875 
z
" style="fill: #ffffff; opacity: 0.8; stroke: #cccccc; stroke-linejoin: miter"/>
    </g>
    <g id="line2d_17">
     <path d="M 51.082813 23.898438 
L 61.082813 23.898438 
L 71.082813 23.898438 
" style="fill: none; stroke: #1f77b4; stroke-width: 1.5; stroke-linecap: square"/>
    </g>
    <g id="text_12">
     <!-- f(x) -->
     <g transform="translate(79.082813 27.398438)scale(0.1 -0.1)">
      <defs>
       <path id="DejaVuSans-66" d="M 2375 4863 
L 2375 4384 
L 1825 4384 
Q 1516 4384 1395 4259 
Q 1275 4134 1275 3809 
L 1275 3500 
L 2222 3500 
L 2222 3053 
L 1275 3053 
L 1275 0 
L 697 0 
L 697 3053 
L 147 3053 
L 147 3500 
L 697 3500 
L 697 3744 
Q 697 4328 969 4595 
Q 1241 4863 1831 4863 
L 2375 4863 
z
" transform="scale(0.015625)"/>
       <path id="DejaVuSans-28" d="M 1984 4856 
Q 1566 4138 1362 3434 
Q 1159 2731 1159 2009 
Q 1159 1288 1364 580 
Q 1569 -128 1984 -844 
L 1484 -844 
Q 1016 -109 783 600 
Q 550 1309 550 2009 
Q 550 2706 781 3412 
Q 1013 4119 1484 4856 
L 1984 4856 
z
" transform="scale(0.015625)"/>
       <path id="DejaVuSans-78" d="M 3513 3500 
L 2247 1797 
L 3578 0 
L 2900 0 
L 1881 1375 
L 863 0 
L 184 0 
L 1544 1831 
L 300 3500 
L 978 3500 
L 1906 2253 
L 2834 3500 
L 3513 3500 
z
" transform="scale(0.015625)"/>
       <path id="DejaVuSans-29" d="M 513 4856 
L 1013 4856 
Q 1481 4119 1714 3412 
Q 1947 2706 1947 2009 
Q 1947 1309 1714 600 
Q 1481 -109 1013 -844 
L 513 -844 
Q 928 -128 1133 580 
Q 1338 1288 1338 2009 
Q 1338 2731 1133 3434 
Q 928 4138 513 4856 
z
" transform="scale(0.015625)"/>
      </defs>
      <use xlink:href="#DejaVuSans-66"/>
      <use xlink:href="#DejaVuSans-28" x="35.205078"/>
      <use xlink:href="#DejaVuSans-78" x="74.21875"/>
      <use xlink:href="#DejaVuSans-29" x="133.398438"/>
     </g>
    </g>
    <g id="line2d_18">
     <path d="M 51.082813 38.576563 
L 61.082813 38.576563 
L 71.082813 38.576563 
" style="fill: none; stroke: #ff7f0e; stroke-width: 1.5; stroke-linecap: square"/>
    </g>
    <g id="text_13">
     <!-- OLS, Plain, Momentum [MSE=0.00528] -->
     <g transform="translate(79.082813 42.076563)scale(0.1 -0.1)">
      <defs>
       <path id="DejaVuSans-4f" d="M 2522 4238 
Q 1834 4238 1429 3725 
Q 1025 3213 1025 2328 
Q 1025 1447 1429 934 
Q 1834 422 2522 422 
Q 3209 422 3611 934 
Q 4013 1447 4013 2328 
Q 4013 3213 3611 3725 
Q 3209 4238 2522 4238 
z
M 2522 4750 
Q 3503 4750 4090 4092 
Q 4678 3434 4678 2328 
Q 4678 1225 4090 567 
Q 3503 -91 2522 -91 
Q 1538 -91 948 565 
Q 359 1222 359 2328 
Q 359 3434 948 4092 
Q 1538 4750 2522 4750 
z
" transform="scale(0.015625)"/>
       <path id="DejaVuSans-4c" d="M 628 4666 
L 1259 4666 
L 1259 531 
L 3531 531 
L 3531 0 
L 628 0 
L 628 4666 
z
" transform="scale(0.015625)"/>
       <path id="DejaVuSans-53" d="M 3425 4513 
L 3425 3897 
Q 3066 4069 2747 4153 
Q 2428 4238 2131 4238 
Q 1616 4238 1336 4038 
Q 1056 3838 1056 3469 
Q 1056 3159 1242 3001 
Q 1428 2844 1947 2747 
L 2328 2669 
Q 3034 2534 3370 2195 
Q 3706 1856 3706 1288 
Q 3706 609 3251 259 
Q 2797 -91 1919 -91 
Q 1588 -91 1214 -16 
Q 841 59 441 206 
L 441 856 
Q 825 641 1194 531 
Q 1563 422 1919 422 
Q 2459 422 2753 634 
Q 3047 847 3047 1241 
Q 3047 1584 2836 1778 
Q 2625 1972 2144 2069 
L 1759 2144 
Q 1053 2284 737 2584 
Q 422 2884 422 3419 
Q 422 4038 858 4394 
Q 1294 4750 2059 4750 
Q 2388 4750 2728 4690 
Q 3069 4631 3425 4513 
z
" transform="scale(0.015625)"/>
       <path id="DejaVuSans-2c" d="M 750 794 
L 1409 794 
L 1409 256 
L 897 -744 
L 494 -744 
L 750 256 
L 750 794 
z
" transform="scale(0.015625)"/>
       <path id="DejaVuSans-20" transform="scale(0.015625)"/>
       <path id="DejaVuSans-50" d="M 1259 4147 
L 1259 2394 
L 2053 2394 
Q 2494 2394 2734 2622 
Q 2975 2850 2975 3272 
Q 2975 3691 2734 3919 
Q 2494 4147 2053 4147 
L 1259 4147 
z
M 628 4666 
L 2053 4666 
Q 2838 4666 3239 4311 
Q 3641 3956 3641 3272 
Q 3641 2581 3239 2228 
Q 2838 1875 2053 1875 
L 1259 1875 
L 1259 0 
L 628 0 
L 628 4666 
z
" transform="scale(0.015625)"/>
       <path id="DejaVuSans-6c" d="M 603 4863 
L 1178 4863 
L 1178 0 
L 603 0 
L 603 4863 
z
" transform="scale(0.015625)"/>
       <path id="DejaVuSans-61" d="M 2194 1759 
Q 1497 1759 1228 1600 
Q 959 1441 959 1056 
Q 959 750 1161 570 
Q 1363 391 1709 391 
Q 2188 391 2477 730 
Q 2766 1069 2766 1631 
L 2766 1759 
L 2194 1759 
z
M 3341 1997 
L 3341 0 
L 2766 0 
L 2766 531 
Q 2569 213 2275 61 
Q 1981 -91 1556 -91 
Q 1019 -91 701 211 
Q 384 513 384 1019 
Q 384 1609 779 1909 
Q 1175 2209 1959 2209 
L 2766 2209 
L 2766 2266 
Q 2766 2663 2505 2880 
Q 2244 3097 1772 3097 
Q 1472 3097 1187 3025 
Q 903 2953 641 2809 
L 641 3341 
Q 956 3463 1253 3523 
Q 1550 3584 1831 3584 
Q 2591 3584 2966 3190 
Q 3341 2797 3341 1997 
z
" transform="scale(0.015625)"/>
       <path id="DejaVuSans-69" d="M 603 3500 
L 1178 3500 
L 1178 0 
L 603 0 
L 603 3500 
z
M 603 4863 
L 1178 4863 
L 1178 4134 
L 603 4134 
L 603 4863 
z
" transform="scale(0.015625)"/>
       <path id="DejaVuSans-6e" d="M 3513 2113 
L 3513 0 
L 2938 0 
L 2938 2094 
Q 2938 2591 2744 2837 
Q 2550 3084 2163 3084 
Q 1697 3084 1428 2787 
Q 1159 2491 1159 1978 
L 1159 0 
L 581 0 
L 581 3500 
L 1159 3500 
L 1159 2956 
Q 1366 3272 1645 3428 
Q 1925 3584 2291 3584 
Q 2894 3584 3203 3211 
Q 3513 2838 3513 2113 
z
" transform="scale(0.015625)"/>
       <path id="DejaVuSans-4d" d="M 628 4666 
L 1569 4666 
L 2759 1491 
L 3956 4666 
L 4897 4666 
L 4897 0 
L 4281 0 
L 4281 4097 
L 3078 897 
L 2444 897 
L 1241 4097 
L 1241 0 
L 628 0 
L 628 4666 
z
" transform="scale(0.015625)"/>
       <path id="DejaVuSans-6f" d="M 1959 3097 
Q 1497 3097 1228 2736 
Q 959 2375 959 1747 
Q 959 1119 1226 758 
Q 1494 397 1959 397 
Q 2419 397 2687 759 
Q 2956 1122 2956 1747 
Q 2956 2369 2687 2733 
Q 2419 3097 1959 3097 
z
M 1959 3584 
Q 2709 3584 3137 3096 
Q 3566 2609 3566 1747 
Q 3566 888 3137 398 
Q 2709 -91 1959 -91 
Q 1206 -91 779 398 
Q 353 888 353 1747 
Q 353 2609 779 3096 
Q 1206 3584 1959 3584 
z
" transform="scale(0.015625)"/>
       <path id="DejaVuSans-6d" d="M 3328 2828 
Q 3544 3216 3844 3400 
Q 4144 3584 4550 3584 
Q 5097 3584 5394 3201 
Q 5691 2819 5691 2113 
L 5691 0 
L 5113 0 
L 5113 2094 
Q 5113 2597 4934 2840 
Q 4756 3084 4391 3084 
Q 3944 3084 3684 2787 
Q 3425 2491 3425 1978 
L 3425 0 
L 2847 0 
L 2847 2094 
Q 2847 2600 2669 2842 
Q 2491 3084 2119 3084 
Q 1678 3084 1418 2786 
Q 1159 2488 1159 1978 
L 1159 0 
L 581 0 
L 581 3500 
L 1159 3500 
L 1159 2956 
Q 1356 3278 1631 3431 
Q 1906 3584 2284 3584 
Q 2666 3584 2933 3390 
Q 3200 3197 3328 2828 
z
" transform="scale(0.015625)"/>
       <path id="DejaVuSans-65" d="M 3597 1894 
L 3597 1613 
L 953 1613 
Q 991 1019 1311 708 
Q 1631 397 2203 397 
Q 2534 397 2845 478 
Q 3156 559 3463 722 
L 3463 178 
Q 3153 47 2828 -22 
Q 2503 -91 2169 -91 
Q 1331 -91 842 396 
Q 353 884 353 1716 
Q 353 2575 817 3079 
Q 1281 3584 2069 3584 
Q 2775 3584 3186 3129 
Q 3597 2675 3597 1894 
z
M 3022 2063 
Q 3016 2534 2758 2815 
Q 2500 3097 2075 3097 
Q 1594 3097 1305 2825 
Q 1016 2553 972 2059 
L 3022 2063 
z
" transform="scale(0.015625)"/>
       <path id="DejaVuSans-74" d="M 1172 4494 
L 1172 3500 
L 2356 3500 
L 2356 3053 
L 1172 3053 
L 1172 1153 
Q 1172 725 1289 603 
Q 1406 481 1766 481 
L 2356 481 
L 2356 0 
L 1766 0 
Q 1100 0 847 248 
Q 594 497 594 1153 
L 594 3053 
L 172 3053 
L 172 3500 
L 594 3500 
L 594 4494 
L 1172 4494 
z
" transform="scale(0.015625)"/>
       <path id="DejaVuSans-75" d="M 544 1381 
L 544 3500 
L 1119 3500 
L 1119 1403 
Q 1119 906 1312 657 
Q 1506 409 1894 409 
Q 2359 409 2629 706 
Q 2900 1003 2900 1516 
L 2900 3500 
L 3475 3500 
L 3475 0 
L 2900 0 
L 2900 538 
Q 2691 219 2414 64 
Q 2138 -91 1772 -91 
Q 1169 -91 856 284 
Q 544 659 544 1381 
z
M 1991 3584 
L 1991 3584 
z
" transform="scale(0.015625)"/>
       <path id="DejaVuSans-5b" d="M 550 4863 
L 1875 4863 
L 1875 4416 
L 1125 4416 
L 1125 -397 
L 1875 -397 
L 1875 -844 
L 550 -844 
L 550 4863 
z
" transform="scale(0.015625)"/>
       <path id="DejaVuSans-45" d="M 628 4666 
L 3578 4666 
L 3578 4134 
L 1259 4134 
L 1259 2753 
L 3481 2753 
L 3481 2222 
L 1259 2222 
L 1259 531 
L 3634 531 
L 3634 0 
L 628 0 
L 628 4666 
z
" transform="scale(0.015625)"/>
       <path id="DejaVuSans-3d" d="M 678 2906 
L 4684 2906 
L 4684 2381 
L 678 2381 
L 678 2906 
z
M 678 1631 
L 4684 1631 
L 4684 1100 
L 678 1100 
L 678 1631 
z
" transform="scale(0.015625)"/>
       <path id="DejaVuSans-35" d="M 691 4666 
L 3169 4666 
L 3169 4134 
L 1269 4134 
L 1269 2991 
Q 1406 3038 1543 3061 
Q 1681 3084 1819 3084 
Q 2600 3084 3056 2656 
Q 3513 2228 3513 1497 
Q 3513 744 3044 326 
Q 2575 -91 1722 -91 
Q 1428 -91 1123 -41 
Q 819 9 494 109 
L 494 744 
Q 775 591 1075 516 
Q 1375 441 1709 441 
Q 2250 441 2565 725 
Q 2881 1009 2881 1497 
Q 2881 1984 2565 2268 
Q 2250 2553 1709 2553 
Q 1456 2553 1204 2497 
Q 953 2441 691 2322 
L 691 4666 
z
" transform="scale(0.015625)"/>
       <path id="DejaVuSans-5d" d="M 1947 4863 
L 1947 -844 
L 622 -844 
L 622 -397 
L 1369 -397 
L 1369 4416 
L 622 4416 
L 622 4863 
L 1947 4863 
z
" transform="scale(0.015625)"/>
      </defs>
      <use xlink:href="#DejaVuSans-4f"/>
      <use xlink:href="#DejaVuSans-4c" x="78.710938"/>
      <use xlink:href="#DejaVuSans-53" x="134.423828"/>
      <use xlink:href="#DejaVuSans-2c" x="197.900391"/>
      <use xlink:href="#DejaVuSans-20" x="229.6875"/>
      <use xlink:href="#DejaVuSans-50" x="261.474609"/>
      <use xlink:href="#DejaVuSans-6c" x="321.777344"/>
      <use xlink:href="#DejaVuSans-61" x="349.560547"/>
      <use xlink:href="#DejaVuSans-69" x="410.839844"/>
      <use xlink:href="#DejaVuSans-6e" x="438.623047"/>
      <use xlink:href="#DejaVuSans-2c" x="502.001953"/>
      <use xlink:href="#DejaVuSans-20" x="533.789062"/>
      <use xlink:href="#DejaVuSans-4d" x="565.576172"/>
      <use xlink:href="#DejaVuSans-6f" x="651.855469"/>
      <use xlink:href="#DejaVuSans-6d" x="713.037109"/>
      <use xlink:href="#DejaVuSans-65" x="810.449219"/>
      <use xlink:href="#DejaVuSans-6e" x="871.972656"/>
      <use xlink:href="#DejaVuSans-74" x="935.351562"/>
      <use xlink:href="#DejaVuSans-75" x="974.560547"/>
      <use xlink:href="#DejaVuSans-6d" x="1037.939453"/>
      <use xlink:href="#DejaVuSans-20" x="1135.351562"/>
      <use xlink:href="#DejaVuSans-5b" x="1167.138672"/>
      <use xlink:href="#DejaVuSans-4d" x="1206.152344"/>
      <use xlink:href="#DejaVuSans-53" x="1292.431641"/>
      <use xlink:href="#DejaVuSans-45" x="1355.908203"/>
      <use xlink:href="#DejaVuSans-3d" x="1419.091797"/>
      <use xlink:href="#DejaVuSans-30" x="1502.880859"/>
      <use xlink:href="#DejaVuSans-2e" x="1566.503906"/>
      <use xlink:href="#DejaVuSans-30" x="1598.291016"/>
      <use xlink:href="#DejaVuSans-30" x="1661.914062"/>
      <use xlink:href="#DejaVuSans-35" x="1725.537109"/>
      <use xlink:href="#DejaVuSans-32" x="1789.160156"/>
      <use xlink:href="#DejaVuSans-38" x="1852.783203"/>
      <use xlink:href="#DejaVuSans-5d" x="1916.40625"/>
     </g>
    </g>
    <g id="line2d_19">
     <path d="M 51.082813 53.254688 
L 61.082813 53.254688 
L 71.082813 53.254688 
" style="fill: none; stroke: #2ca02c; stroke-width: 1.5; stroke-linecap: square"/>
    </g>
    <g id="text_14">
     <!-- OLS, Adagrad, Momentum + Stochastic [MSE=0.00674] -->
     <g transform="translate(79.082813 56.754688)scale(0.1 -0.1)">
      <defs>
       <path id="DejaVuSans-41" d="M 2188 4044 
L 1331 1722 
L 3047 1722 
L 2188 4044 
z
M 1831 4666 
L 2547 4666 
L 4325 0 
L 3669 0 
L 3244 1197 
L 1141 1197 
L 716 0 
L 50 0 
L 1831 4666 
z
" transform="scale(0.015625)"/>
       <path id="DejaVuSans-64" d="M 2906 2969 
L 2906 4863 
L 3481 4863 
L 3481 0 
L 2906 0 
L 2906 525 
Q 2725 213 2448 61 
Q 2172 -91 1784 -91 
Q 1150 -91 751 415 
Q 353 922 353 1747 
Q 353 2572 751 3078 
Q 1150 3584 1784 3584 
Q 2172 3584 2448 3432 
Q 2725 3281 2906 2969 
z
M 947 1747 
Q 947 1113 1208 752 
Q 1469 391 1925 391 
Q 2381 391 2643 752 
Q 2906 1113 2906 1747 
Q 2906 2381 2643 2742 
Q 2381 3103 1925 3103 
Q 1469 3103 1208 2742 
Q 947 2381 947 1747 
z
" transform="scale(0.015625)"/>
       <path id="DejaVuSans-67" d="M 2906 1791 
Q 2906 2416 2648 2759 
Q 2391 3103 1925 3103 
Q 1463 3103 1205 2759 
Q 947 2416 947 1791 
Q 947 1169 1205 825 
Q 1463 481 1925 481 
Q 2391 481 2648 825 
Q 2906 1169 2906 1791 
z
M 3481 434 
Q 3481 -459 3084 -895 
Q 2688 -1331 1869 -1331 
Q 1566 -1331 1297 -1286 
Q 1028 -1241 775 -1147 
L 775 -588 
Q 1028 -725 1275 -790 
Q 1522 -856 1778 -856 
Q 2344 -856 2625 -561 
Q 2906 -266 2906 331 
L 2906 616 
Q 2728 306 2450 153 
Q 2172 0 1784 0 
Q 1141 0 747 490 
Q 353 981 353 1791 
Q 353 2603 747 3093 
Q 1141 3584 1784 3584 
Q 2172 3584 2450 3431 
Q 2728 3278 2906 2969 
L 2906 3500 
L 3481 3500 
L 3481 434 
z
" transform="scale(0.015625)"/>
       <path id="DejaVuSans-72" d="M 2631 2963 
Q 2534 3019 2420 3045 
Q 2306 3072 2169 3072 
Q 1681 3072 1420 2755 
Q 1159 2438 1159 1844 
L 1159 0 
L 581 0 
L 581 3500 
L 1159 3500 
L 1159 2956 
Q 1341 3275 1631 3429 
Q 1922 3584 2338 3584 
Q 2397 3584 2469 3576 
Q 2541 3569 2628 3553 
L 2631 2963 
z
" transform="scale(0.015625)"/>
       <path id="DejaVuSans-2b" d="M 2944 4013 
L 2944 2272 
L 4684 2272 
L 4684 1741 
L 2944 1741 
L 2944 0 
L 2419 0 
L 2419 1741 
L 678 1741 
L 678 2272 
L 2419 2272 
L 2419 4013 
L 2944 4013 
z
" transform="scale(0.015625)"/>
       <path id="DejaVuSans-63" d="M 3122 3366 
L 3122 2828 
Q 2878 2963 2633 3030 
Q 2388 3097 2138 3097 
Q 1578 3097 1268 2742 
Q 959 2388 959 1747 
Q 959 1106 1268 751 
Q 1578 397 2138 397 
Q 2388 397 2633 464 
Q 2878 531 3122 666 
L 3122 134 
Q 2881 22 2623 -34 
Q 2366 -91 2075 -91 
Q 1284 -91 818 406 
Q 353 903 353 1747 
Q 353 2603 823 3093 
Q 1294 3584 2113 3584 
Q 2378 3584 2631 3529 
Q 2884 3475 3122 3366 
z
" transform="scale(0.015625)"/>
       <path id="DejaVuSans-68" d="M 3513 2113 
L 3513 0 
L 2938 0 
L 2938 2094 
Q 2938 2591 2744 2837 
Q 2550 3084 2163 3084 
Q 1697 3084 1428 2787 
Q 1159 2491 1159 1978 
L 1159 0 
L 581 0 
L 581 4863 
L 1159 4863 
L 1159 2956 
Q 1366 3272 1645 3428 
Q 1925 3584 2291 3584 
Q 2894 3584 3203 3211 
Q 3513 2838 3513 2113 
z
" transform="scale(0.015625)"/>
       <path id="DejaVuSans-73" d="M 2834 3397 
L 2834 2853 
Q 2591 2978 2328 3040 
Q 2066 3103 1784 3103 
Q 1356 3103 1142 2972 
Q 928 2841 928 2578 
Q 928 2378 1081 2264 
Q 1234 2150 1697 2047 
L 1894 2003 
Q 2506 1872 2764 1633 
Q 3022 1394 3022 966 
Q 3022 478 2636 193 
Q 2250 -91 1575 -91 
Q 1294 -91 989 -36 
Q 684 19 347 128 
L 347 722 
Q 666 556 975 473 
Q 1284 391 1588 391 
Q 1994 391 2212 530 
Q 2431 669 2431 922 
Q 2431 1156 2273 1281 
Q 2116 1406 1581 1522 
L 1381 1569 
Q 847 1681 609 1914 
Q 372 2147 372 2553 
Q 372 3047 722 3315 
Q 1072 3584 1716 3584 
Q 2034 3584 2315 3537 
Q 2597 3491 2834 3397 
z
" transform="scale(0.015625)"/>
       <path id="DejaVuSans-37" d="M 525 4666 
L 3525 4666 
L 3525 4397 
L 1831 0 
L 1172 0 
L 2766 4134 
L 525 4134 
L 525 4666 
z
" transform="scale(0.015625)"/>
      </defs>
      <use xlink:href="#DejaVuSans-4f"/>
      <use xlink:href="#DejaVuSans-4c" x="78.710938"/>
      <use xlink:href="#DejaVuSans-53" x="134.423828"/>
      <use xlink:href="#DejaVuSans-2c" x="197.900391"/>
      <use xlink:href="#DejaVuSans-20" x="229.6875"/>
      <use xlink:href="#DejaVuSans-41" x="261.474609"/>
      <use xlink:href="#DejaVuSans-64" x="328.132812"/>
      <use xlink:href="#DejaVuSans-61" x="391.609375"/>
      <use xlink:href="#DejaVuSans-67" x="452.888672"/>
      <use xlink:href="#DejaVuSans-72" x="516.365234"/>
      <use xlink:href="#DejaVuSans-61" x="557.478516"/>
      <use xlink:href="#DejaVuSans-64" x="618.757812"/>
      <use xlink:href="#DejaVuSans-2c" x="682.234375"/>
      <use xlink:href="#DejaVuSans-20" x="714.021484"/>
      <use xlink:href="#DejaVuSans-4d" x="745.808594"/>
      <use xlink:href="#DejaVuSans-6f" x="832.087891"/>
      <use xlink:href="#DejaVuSans-6d" x="893.269531"/>
      <use xlink:href="#DejaVuSans-65" x="990.681641"/>
      <use xlink:href="#DejaVuSans-6e" x="1052.205078"/>
      <use xlink:href="#DejaVuSans-74" x="1115.583984"/>
      <use xlink:href="#DejaVuSans-75" x="1154.792969"/>
      <use xlink:href="#DejaVuSans-6d" x="1218.171875"/>
      <use xlink:href="#DejaVuSans-20" x="1315.583984"/>
      <use xlink:href="#DejaVuSans-2b" x="1347.371094"/>
      <use xlink:href="#DejaVuSans-20" x="1431.160156"/>
      <use xlink:href="#DejaVuSans-53" x="1462.947266"/>
      <use xlink:href="#DejaVuSans-74" x="1526.423828"/>
      <use xlink:href="#DejaVuSans-6f" x="1565.632812"/>
      <use xlink:href="#DejaVuSans-63" x="1626.814453"/>
      <use xlink:href="#DejaVuSans-68" x="1681.794922"/>
      <use xlink:href="#DejaVuSans-61" x="1745.173828"/>
      <use xlink:href="#DejaVuSans-73" x="1806.453125"/>
      <use xlink:href="#DejaVuSans-74" x="1858.552734"/>
      <use xlink:href="#DejaVuSans-69" x="1897.761719"/>
      <use xlink:href="#DejaVuSans-63" x="1925.544922"/>
      <use xlink:href="#DejaVuSans-20" x="1980.525391"/>
      <use xlink:href="#DejaVuSans-5b" x="2012.3125"/>
      <use xlink:href="#DejaVuSans-4d" x="2051.326172"/>
      <use xlink:href="#DejaVuSans-53" x="2137.605469"/>
      <use xlink:href="#DejaVuSans-45" x="2201.082031"/>
      <use xlink:href="#DejaVuSans-3d" x="2264.265625"/>
      <use xlink:href="#DejaVuSans-30" x="2348.054688"/>
      <use xlink:href="#DejaVuSans-2e" x="2411.677734"/>
      <use xlink:href="#DejaVuSans-30" x="2443.464844"/>
      <use xlink:href="#DejaVuSans-30" x="2507.087891"/>
      <use xlink:href="#DejaVuSans-36" x="2570.710938"/>
      <use xlink:href="#DejaVuSans-37" x="2634.333984"/>
      <use xlink:href="#DejaVuSans-34" x="2697.957031"/>
      <use xlink:href="#DejaVuSans-5d" x="2761.580078"/>
     </g>
    </g>
    <g id="line2d_20">
     <path d="M 51.082813 67.932813 
L 61.082813 67.932813 
L 71.082813 67.932813 
" style="fill: none; stroke: #d62728; stroke-width: 1.5; stroke-linecap: square"/>
    </g>
    <g id="text_15">
     <!-- OLS, Rms_prop, Momentum + Stochastic [MSE=0.00463] -->
     <g transform="translate(79.082813 71.432813)scale(0.1 -0.1)">
      <defs>
       <path id="DejaVuSans-52" d="M 2841 2188 
Q 3044 2119 3236 1894 
Q 3428 1669 3622 1275 
L 4263 0 
L 3584 0 
L 2988 1197 
Q 2756 1666 2539 1819 
Q 2322 1972 1947 1972 
L 1259 1972 
L 1259 0 
L 628 0 
L 628 4666 
L 2053 4666 
Q 2853 4666 3247 4331 
Q 3641 3997 3641 3322 
Q 3641 2881 3436 2590 
Q 3231 2300 2841 2188 
z
M 1259 4147 
L 1259 2491 
L 2053 2491 
Q 2509 2491 2742 2702 
Q 2975 2913 2975 3322 
Q 2975 3731 2742 3939 
Q 2509 4147 2053 4147 
L 1259 4147 
z
" transform="scale(0.015625)"/>
       <path id="DejaVuSans-5f" d="M 3263 -1063 
L 3263 -1509 
L -63 -1509 
L -63 -1063 
L 3263 -1063 
z
" transform="scale(0.015625)"/>
       <path id="DejaVuSans-70" d="M 1159 525 
L 1159 -1331 
L 581 -1331 
L 581 3500 
L 1159 3500 
L 1159 2969 
Q 1341 3281 1617 3432 
Q 1894 3584 2278 3584 
Q 2916 3584 3314 3078 
Q 3713 2572 3713 1747 
Q 3713 922 3314 415 
Q 2916 -91 2278 -91 
Q 1894 -91 1617 61 
Q 1341 213 1159 525 
z
M 3116 1747 
Q 3116 2381 2855 2742 
Q 2594 3103 2138 3103 
Q 1681 3103 1420 2742 
Q 1159 2381 1159 1747 
Q 1159 1113 1420 752 
Q 1681 391 2138 391 
Q 2594 391 2855 752 
Q 3116 1113 3116 1747 
z
" transform="scale(0.015625)"/>
       <path id="DejaVuSans-33" d="M 2597 2516 
Q 3050 2419 3304 2112 
Q 3559 1806 3559 1356 
Q 3559 666 3084 287 
Q 2609 -91 1734 -91 
Q 1441 -91 1130 -33 
Q 819 25 488 141 
L 488 750 
Q 750 597 1062 519 
Q 1375 441 1716 441 
Q 2309 441 2620 675 
Q 2931 909 2931 1356 
Q 2931 1769 2642 2001 
Q 2353 2234 1838 2234 
L 1294 2234 
L 1294 2753 
L 1863 2753 
Q 2328 2753 2575 2939 
Q 2822 3125 2822 3475 
Q 2822 3834 2567 4026 
Q 2313 4219 1838 4219 
Q 1578 4219 1281 4162 
Q 984 4106 628 3988 
L 628 4550 
Q 988 4650 1302 4700 
Q 1616 4750 1894 4750 
Q 2613 4750 3031 4423 
Q 3450 4097 3450 3541 
Q 3450 3153 3228 2886 
Q 3006 2619 2597 2516 
z
" transform="scale(0.015625)"/>
      </defs>
      <use xlink:href="#DejaVuSans-4f"/>
      <use xlink:href="#DejaVuSans-4c" x="78.710938"/>
      <use xlink:href="#DejaVuSans-53" x="134.423828"/>
      <use xlink:href="#DejaVuSans-2c" x="197.900391"/>
      <use xlink:href="#DejaVuSans-20" x="229.6875"/>
      <use xlink:href="#DejaVuSans-52" x="261.474609"/>
      <use xlink:href="#DejaVuSans-6d" x="330.957031"/>
      <use xlink:href="#DejaVuSans-73" x="428.369141"/>
      <use xlink:href="#DejaVuSans-5f" x="480.46875"/>
      <use xlink:href="#DejaVuSans-70" x="530.46875"/>
      <use xlink:href="#DejaVuSans-72" x="593.945312"/>
      <use xlink:href="#DejaVuSans-6f" x="632.808594"/>
      <use xlink:href="#DejaVuSans-70" x="693.990234"/>
      <use xlink:href="#DejaVuSans-2c" x="757.466797"/>
      <use xlink:href="#DejaVuSans-20" x="789.253906"/>
      <use xlink:href="#DejaVuSans-4d" x="821.041016"/>
      <use xlink:href="#DejaVuSans-6f" x="907.320312"/>
      <use xlink:href="#DejaVuSans-6d" x="968.501953"/>
      <use xlink:href="#DejaVuSans-65" x="1065.914062"/>
      <use xlink:href="#DejaVuSans-6e" x="1127.4375"/>
      <use xlink:href="#DejaVuSans-74" x="1190.816406"/>
      <use xlink:href="#DejaVuSans-75" x="1230.025391"/>
      <use xlink:href="#DejaVuSans-6d" x="1293.404297"/>
      <use xlink:href="#DejaVuSans-20" x="1390.816406"/>
      <use xlink:href="#DejaVuSans-2b" x="1422.603516"/>
      <use xlink:href="#DejaVuSans-20" x="1506.392578"/>
      <use xlink:href="#DejaVuSans-53" x="1538.179688"/>
      <use xlink:href="#DejaVuSans-74" x="1601.65625"/>
      <use xlink:href="#DejaVuSans-6f" x="1640.865234"/>
      <use xlink:href="#DejaVuSans-63" x="1702.046875"/>
      <use xlink:href="#DejaVuSans-68" x="1757.027344"/>
      <use xlink:href="#DejaVuSans-61" x="1820.40625"/>
      <use xlink:href="#DejaVuSans-73" x="1881.685547"/>
      <use xlink:href="#DejaVuSans-74" x="1933.785156"/>
      <use xlink:href="#DejaVuSans-69" x="1972.994141"/>
      <use xlink:href="#DejaVuSans-63" x="2000.777344"/>
      <use xlink:href="#DejaVuSans-20" x="2055.757812"/>
      <use xlink:href="#DejaVuSans-5b" x="2087.544922"/>
      <use xlink:href="#DejaVuSans-4d" x="2126.558594"/>
      <use xlink:href="#DejaVuSans-53" x="2212.837891"/>
      <use xlink:href="#DejaVuSans-45" x="2276.314453"/>
      <use xlink:href="#DejaVuSans-3d" x="2339.498047"/>
      <use xlink:href="#DejaVuSans-30" x="2423.287109"/>
      <use xlink:href="#DejaVuSans-2e" x="2486.910156"/>
      <use xlink:href="#DejaVuSans-30" x="2518.697266"/>
      <use xlink:href="#DejaVuSans-30" x="2582.320312"/>
      <use xlink:href="#DejaVuSans-34" x="2645.943359"/>
      <use xlink:href="#DejaVuSans-36" x="2709.566406"/>
      <use xlink:href="#DejaVuSans-33" x="2773.189453"/>
      <use xlink:href="#DejaVuSans-5d" x="2836.8125"/>
     </g>
    </g>
    <g id="line2d_21">
     <path d="M 51.082813 82.889063 
L 61.082813 82.889063 
L 71.082813 82.889063 
" style="fill: none; stroke: #9467bd; stroke-width: 1.5; stroke-linecap: square"/>
    </g>
    <g id="text_16">
     <!-- OLS, Adam, Momentum + Stochastic [MSE=0.0171] -->
     <g transform="translate(79.082813 86.389063)scale(0.1 -0.1)">
      <use xlink:href="#DejaVuSans-4f"/>
      <use xlink:href="#DejaVuSans-4c" x="78.710938"/>
      <use xlink:href="#DejaVuSans-53" x="134.423828"/>
      <use xlink:href="#DejaVuSans-2c" x="197.900391"/>
      <use xlink:href="#DejaVuSans-20" x="229.6875"/>
      <use xlink:href="#DejaVuSans-41" x="261.474609"/>
      <use xlink:href="#DejaVuSans-64" x="328.132812"/>
      <use xlink:href="#DejaVuSans-61" x="391.609375"/>
      <use xlink:href="#DejaVuSans-6d" x="452.888672"/>
      <use xlink:href="#DejaVuSans-2c" x="550.300781"/>
      <use xlink:href="#DejaVuSans-20" x="582.087891"/>
      <use xlink:href="#DejaVuSans-4d" x="613.875"/>
      <use xlink:href="#DejaVuSans-6f" x="700.154297"/>
      <use xlink:href="#DejaVuSans-6d" x="761.335938"/>
      <use xlink:href="#DejaVuSans-65" x="858.748047"/>
      <use xlink:href="#DejaVuSans-6e" x="920.271484"/>
      <use xlink:href="#DejaVuSans-74" x="983.650391"/>
      <use xlink:href="#DejaVuSans-75" x="1022.859375"/>
      <use xlink:href="#DejaVuSans-6d" x="1086.238281"/>
      <use xlink:href="#DejaVuSans-20" x="1183.650391"/>
      <use xlink:href="#DejaVuSans-2b" x="1215.4375"/>
      <use xlink:href="#DejaVuSans-20" x="1299.226562"/>
      <use xlink:href="#DejaVuSans-53" x="1331.013672"/>
      <use xlink:href="#DejaVuSans-74" x="1394.490234"/>
      <use xlink:href="#DejaVuSans-6f" x="1433.699219"/>
      <use xlink:href="#DejaVuSans-63" x="1494.880859"/>
      <use xlink:href="#DejaVuSans-68" x="1549.861328"/>
      <use xlink:href="#DejaVuSans-61" x="1613.240234"/>
      <use xlink:href="#DejaVuSans-73" x="1674.519531"/>
      <use xlink:href="#DejaVuSans-74" x="1726.619141"/>
      <use xlink:href="#DejaVuSans-69" x="1765.828125"/>
      <use xlink:href="#DejaVuSans-63" x="1793.611328"/>
      <use xlink:href="#DejaVuSans-20" x="1848.591797"/>
      <use xlink:href="#DejaVuSans-5b" x="1880.378906"/>
      <use xlink:href="#DejaVuSans-4d" x="1919.392578"/>
      <use xlink:href="#DejaVuSans-53" x="2005.671875"/>
      <use xlink:href="#DejaVuSans-45" x="2069.148438"/>
      <use xlink:href="#DejaVuSans-3d" x="2132.332031"/>
      <use xlink:href="#DejaVuSans-30" x="2216.121094"/>
      <use xlink:href="#DejaVuSans-2e" x="2279.744141"/>
      <use xlink:href="#DejaVuSans-30" x="2311.53125"/>
      <use xlink:href="#DejaVuSans-31" x="2375.154297"/>
      <use xlink:href="#DejaVuSans-37" x="2438.777344"/>
      <use xlink:href="#DejaVuSans-31" x="2502.400391"/>
      <use xlink:href="#DejaVuSans-5d" x="2566.023438"/>
     </g>
    </g>
   </g>
  </g>
 </g>
 <defs>
  <clipPath id="p2e16128952">
   <rect x="42.082813" y="10.8" width="407.917187" height="307.321875"/>
  </clipPath>
 </defs>
</svg>
