<?xml version="1.0" encoding="utf-8" standalone="no"?>
<!DOCTYPE svg PUBLIC "-//W3C//DTD SVG 1.1//EN"
  "http://www.w3.org/Graphics/SVG/1.1/DTD/svg11.dtd">
<svg xmlns:xlink="http://www.w3.org/1999/xlink" width="460.8pt" height="345.6pt" viewBox="0 0 460.8 345.6" xmlns="http://www.w3.org/2000/svg" version="1.1">
 <metadata>
  <rdf:RDF xmlns:dc="http://purl.org/dc/elements/1.1/" xmlns:cc="http://creativecommons.org/ns#" xmlns:rdf="http://www.w3.org/1999/02/22-rdf-syntax-ns#">
   <cc:Work>
    <dc:type rdf:resource="http://purl.org/dc/dcmitype/StillImage"/>
    <dc:date>2022-11-11T17:04:13.514404</dc:date>
    <dc:format>image/svg+xml</dc:format>
    <dc:creator>
     <cc:Agent>
      <dc:title>Matplotlib v3.5.3, https://matplotlib.org/</dc:title>
     </cc:Agent>
    </dc:creator>
   </cc:Work>
  </rdf:RDF>
 </metadata>
 <defs>
  <style type="text/css">*{stroke-linejoin: round; stroke-linecap: butt}</style>
 </defs>
 <g id="figure_1">
  <g id="patch_1">
   <path d="M 0 345.6 
L 460.8 345.6 
L 460.8 0 
L 0 0 
z
" style="fill: #ffffff"/>
  </g>
  <g id="axes_1">
   <g id="patch_2">
    <path d="M 42.082813 318.121875 
L 450 318.121875 
L 450 10.8 
L 42.082813 10.8 
z
" style="fill: #ffffff"/>
   </g>
   <g id="matplotlib.axis_1">
    <g id="xtick_1">
     <g id="line2d_1">
      <defs>
       <path id="m913f3b0b80" d="M 0 0 
L 0 3.5 
" style="stroke: #000000; stroke-width: 0.8"/>
      </defs>
      <g>
       <use xlink:href="#m913f3b0b80" x="60.624503" y="318.121875" style="stroke: #000000; stroke-width: 0.8"/>
      </g>
     </g>
     <g id="text_1">
      <!-- 0.0 -->
      <g transform="translate(52.67294 332.720312)scale(0.1 -0.1)">
       <defs>
        <path id="DejaVuSans-30" d="M 2034 4250 
Q 1547 4250 1301 3770 
Q 1056 3291 1056 2328 
Q 1056 1369 1301 889 
Q 1547 409 2034 409 
Q 2525 409 2770 889 
Q 3016 1369 3016 2328 
Q 3016 3291 2770 3770 
Q 2525 4250 2034 4250 
z
M 2034 4750 
Q 2819 4750 3233 4129 
Q 3647 3509 3647 2328 
Q 3647 1150 3233 529 
Q 2819 -91 2034 -91 
Q 1250 -91 836 529 
Q 422 1150 422 2328 
Q 422 3509 836 4129 
Q 1250 4750 2034 4750 
z
" transform="scale(0.015625)"/>
        <path id="DejaVuSans-2e" d="M 684 794 
L 1344 794 
L 1344 0 
L 684 0 
L 684 794 
z
" transform="scale(0.015625)"/>
       </defs>
       <use xlink:href="#DejaVuSans-30"/>
       <use xlink:href="#DejaVuSans-2e" x="63.623047"/>
       <use xlink:href="#DejaVuSans-30" x="95.410156"/>
      </g>
     </g>
    </g>
    <g id="xtick_2">
     <g id="line2d_2">
      <g>
       <use xlink:href="#m913f3b0b80" x="134.791264" y="318.121875" style="stroke: #000000; stroke-width: 0.8"/>
      </g>
     </g>
     <g id="text_2">
      <!-- 0.2 -->
      <g transform="translate(126.839702 332.720312)scale(0.1 -0.1)">
       <defs>
        <path id="DejaVuSans-32" d="M 1228 531 
L 3431 531 
L 3431 0 
L 469 0 
L 469 531 
Q 828 903 1448 1529 
Q 2069 2156 2228 2338 
Q 2531 2678 2651 2914 
Q 2772 3150 2772 3378 
Q 2772 3750 2511 3984 
Q 2250 4219 1831 4219 
Q 1534 4219 1204 4116 
Q 875 4013 500 3803 
L 500 4441 
Q 881 4594 1212 4672 
Q 1544 4750 1819 4750 
Q 2544 4750 2975 4387 
Q 3406 4025 3406 3419 
Q 3406 3131 3298 2873 
Q 3191 2616 2906 2266 
Q 2828 2175 2409 1742 
Q 1991 1309 1228 531 
z
" transform="scale(0.015625)"/>
       </defs>
       <use xlink:href="#DejaVuSans-30"/>
       <use xlink:href="#DejaVuSans-2e" x="63.623047"/>
       <use xlink:href="#DejaVuSans-32" x="95.410156"/>
      </g>
     </g>
    </g>
    <g id="xtick_3">
     <g id="line2d_3">
      <g>
       <use xlink:href="#m913f3b0b80" x="208.958026" y="318.121875" style="stroke: #000000; stroke-width: 0.8"/>
      </g>
     </g>
     <g id="text_3">
      <!-- 0.4 -->
      <g transform="translate(201.006463 332.720312)scale(0.1 -0.1)">
       <defs>
        <path id="DejaVuSans-34" d="M 2419 4116 
L 825 1625 
L 2419 1625 
L 2419 4116 
z
M 2253 4666 
L 3047 4666 
L 3047 1625 
L 3713 1625 
L 3713 1100 
L 3047 1100 
L 3047 0 
L 2419 0 
L 2419 1100 
L 313 1100 
L 313 1709 
L 2253 4666 
z
" transform="scale(0.015625)"/>
       </defs>
       <use xlink:href="#DejaVuSans-30"/>
       <use xlink:href="#DejaVuSans-2e" x="63.623047"/>
       <use xlink:href="#DejaVuSans-34" x="95.410156"/>
      </g>
     </g>
    </g>
    <g id="xtick_4">
     <g id="line2d_4">
      <g>
       <use xlink:href="#m913f3b0b80" x="283.124787" y="318.121875" style="stroke: #000000; stroke-width: 0.8"/>
      </g>
     </g>
     <g id="text_4">
      <!-- 0.6 -->
      <g transform="translate(275.173224 332.720312)scale(0.1 -0.1)">
       <defs>
        <path id="DejaVuSans-36" d="M 2113 2584 
Q 1688 2584 1439 2293 
Q 1191 2003 1191 1497 
Q 1191 994 1439 701 
Q 1688 409 2113 409 
Q 2538 409 2786 701 
Q 3034 994 3034 1497 
Q 3034 2003 2786 2293 
Q 2538 2584 2113 2584 
z
M 3366 4563 
L 3366 3988 
Q 3128 4100 2886 4159 
Q 2644 4219 2406 4219 
Q 1781 4219 1451 3797 
Q 1122 3375 1075 2522 
Q 1259 2794 1537 2939 
Q 1816 3084 2150 3084 
Q 2853 3084 3261 2657 
Q 3669 2231 3669 1497 
Q 3669 778 3244 343 
Q 2819 -91 2113 -91 
Q 1303 -91 875 529 
Q 447 1150 447 2328 
Q 447 3434 972 4092 
Q 1497 4750 2381 4750 
Q 2619 4750 2861 4703 
Q 3103 4656 3366 4563 
z
" transform="scale(0.015625)"/>
       </defs>
       <use xlink:href="#DejaVuSans-30"/>
       <use xlink:href="#DejaVuSans-2e" x="63.623047"/>
       <use xlink:href="#DejaVuSans-36" x="95.410156"/>
      </g>
     </g>
    </g>
    <g id="xtick_5">
     <g id="line2d_5">
      <g>
       <use xlink:href="#m913f3b0b80" x="357.291548" y="318.121875" style="stroke: #000000; stroke-width: 0.8"/>
      </g>
     </g>
     <g id="text_5">
      <!-- 0.8 -->
      <g transform="translate(349.339986 332.720312)scale(0.1 -0.1)">
       <defs>
        <path id="DejaVuSans-38" d="M 2034 2216 
Q 1584 2216 1326 1975 
Q 1069 1734 1069 1313 
Q 1069 891 1326 650 
Q 1584 409 2034 409 
Q 2484 409 2743 651 
Q 3003 894 3003 1313 
Q 3003 1734 2745 1975 
Q 2488 2216 2034 2216 
z
M 1403 2484 
Q 997 2584 770 2862 
Q 544 3141 544 3541 
Q 544 4100 942 4425 
Q 1341 4750 2034 4750 
Q 2731 4750 3128 4425 
Q 3525 4100 3525 3541 
Q 3525 3141 3298 2862 
Q 3072 2584 2669 2484 
Q 3125 2378 3379 2068 
Q 3634 1759 3634 1313 
Q 3634 634 3220 271 
Q 2806 -91 2034 -91 
Q 1263 -91 848 271 
Q 434 634 434 1313 
Q 434 1759 690 2068 
Q 947 2378 1403 2484 
z
M 1172 3481 
Q 1172 3119 1398 2916 
Q 1625 2713 2034 2713 
Q 2441 2713 2670 2916 
Q 2900 3119 2900 3481 
Q 2900 3844 2670 4047 
Q 2441 4250 2034 4250 
Q 1625 4250 1398 4047 
Q 1172 3844 1172 3481 
z
" transform="scale(0.015625)"/>
       </defs>
       <use xlink:href="#DejaVuSans-30"/>
       <use xlink:href="#DejaVuSans-2e" x="63.623047"/>
       <use xlink:href="#DejaVuSans-38" x="95.410156"/>
      </g>
     </g>
    </g>
    <g id="xtick_6">
     <g id="line2d_6">
      <g>
       <use xlink:href="#m913f3b0b80" x="431.45831" y="318.121875" style="stroke: #000000; stroke-width: 0.8"/>
      </g>
     </g>
     <g id="text_6">
      <!-- 1.0 -->
      <g transform="translate(423.506747 332.720312)scale(0.1 -0.1)">
       <defs>
        <path id="DejaVuSans-31" d="M 794 531 
L 1825 531 
L 1825 4091 
L 703 3866 
L 703 4441 
L 1819 4666 
L 2450 4666 
L 2450 531 
L 3481 531 
L 3481 0 
L 794 0 
L 794 531 
z
" transform="scale(0.015625)"/>
       </defs>
       <use xlink:href="#DejaVuSans-31"/>
       <use xlink:href="#DejaVuSans-2e" x="63.623047"/>
       <use xlink:href="#DejaVuSans-30" x="95.410156"/>
      </g>
     </g>
    </g>
   </g>
   <g id="matplotlib.axis_2">
    <g id="ytick_1">
     <g id="line2d_7">
      <defs>
       <path id="m5dd611485b" d="M 0 0 
L -3.5 0 
" style="stroke: #000000; stroke-width: 0.8"/>
      </defs>
      <g>
       <use xlink:href="#m5dd611485b" x="42.082813" y="302.755781" style="stroke: #000000; stroke-width: 0.8"/>
      </g>
     </g>
     <g id="text_7">
      <!-- −0.2 -->
      <g transform="translate(10.8 306.555)scale(0.1 -0.1)">
       <defs>
        <path id="DejaVuSans-2212" d="M 678 2272 
L 4684 2272 
L 4684 1741 
L 678 1741 
L 678 2272 
z
" transform="scale(0.015625)"/>
       </defs>
       <use xlink:href="#DejaVuSans-2212"/>
       <use xlink:href="#DejaVuSans-30" x="83.789062"/>
       <use xlink:href="#DejaVuSans-2e" x="147.412109"/>
       <use xlink:href="#DejaVuSans-32" x="179.199219"/>
      </g>
     </g>
    </g>
    <g id="ytick_2">
     <g id="line2d_8">
      <g>
       <use xlink:href="#m5dd611485b" x="42.082813" y="241.291406" style="stroke: #000000; stroke-width: 0.8"/>
      </g>
     </g>
     <g id="text_8">
      <!-- 0.0 -->
      <g transform="translate(19.179688 245.090625)scale(0.1 -0.1)">
       <use xlink:href="#DejaVuSans-30"/>
       <use xlink:href="#DejaVuSans-2e" x="63.623047"/>
       <use xlink:href="#DejaVuSans-30" x="95.410156"/>
      </g>
     </g>
    </g>
    <g id="ytick_3">
     <g id="line2d_9">
      <g>
       <use xlink:href="#m5dd611485b" x="42.082813" y="179.827031" style="stroke: #000000; stroke-width: 0.8"/>
      </g>
     </g>
     <g id="text_9">
      <!-- 0.2 -->
      <g transform="translate(19.179688 183.62625)scale(0.1 -0.1)">
       <use xlink:href="#DejaVuSans-30"/>
       <use xlink:href="#DejaVuSans-2e" x="63.623047"/>
       <use xlink:href="#DejaVuSans-32" x="95.410156"/>
      </g>
     </g>
    </g>
    <g id="ytick_4">
     <g id="line2d_10">
      <g>
       <use xlink:href="#m5dd611485b" x="42.082813" y="118.362656" style="stroke: #000000; stroke-width: 0.8"/>
      </g>
     </g>
     <g id="text_10">
      <!-- 0.4 -->
      <g transform="translate(19.179688 122.161875)scale(0.1 -0.1)">
       <use xlink:href="#DejaVuSans-30"/>
       <use xlink:href="#DejaVuSans-2e" x="63.623047"/>
       <use xlink:href="#DejaVuSans-34" x="95.410156"/>
      </g>
     </g>
    </g>
    <g id="ytick_5">
     <g id="line2d_11">
      <g>
       <use xlink:href="#m5dd611485b" x="42.082813" y="56.898281" style="stroke: #000000; stroke-width: 0.8"/>
      </g>
     </g>
     <g id="text_11">
      <!-- 0.6 -->
      <g transform="translate(19.179688 60.6975)scale(0.1 -0.1)">
       <use xlink:href="#DejaVuSans-30"/>
       <use xlink:href="#DejaVuSans-2e" x="63.623047"/>
       <use xlink:href="#DejaVuSans-36" x="95.410156"/>
      </g>
     </g>
    </g>
   </g>
   <g id="line2d_12">
    <path d="M 60.624503 241.290678 
L 127.441405 241.395031 
L 135.97912 241.650725 
L 142.289605 242.054998 
L 147.115271 242.569349 
L 151.569731 243.269092 
L 155.281781 244.065976 
L 158.622626 244.986134 
L 161.963471 246.130939 
L 165.304316 247.530422 
L 168.273956 249.009828 
L 171.243596 250.726283 
L 174.213236 252.68908 
L 177.182877 254.900376 
L 180.523722 257.676463 
L 184.235772 261.088488 
L 188.319027 265.167092 
L 194.629512 271.843543 
L 200.197587 277.640143 
L 203.538432 280.828698 
L 206.508072 283.346491 
L 208.735303 284.978648 
L 210.962533 286.347083 
L 212.818558 287.258757 
L 214.674583 287.940827 
L 216.530608 288.374769 
L 218.386633 288.544141 
L 219.871453 288.479607 
L 221.356273 288.230689 
L 222.841093 287.792525 
L 224.325913 287.16145 
L 226.181938 286.097745 
L 228.037963 284.726943 
L 229.893988 283.050158 
L 231.750013 281.071551 
L 233.606038 278.798224 
L 235.833268 275.695306 
L 238.060498 272.204291 
L 240.658934 267.676662 
L 243.257369 262.70609 
L 246.227009 256.553017 
L 249.567854 249.132417 
L 253.651109 239.52461 
L 259.590389 224.926611 
L 271.840155 194.711277 
L 277.40823 181.651501 
L 282.6051 170.051342 
L 287.430765 159.833412 
L 292.25643 150.161999 
L 296.71089 141.723485 
L 301.165351 133.760992 
L 305.248606 126.892939 
L 309.331861 120.457293 
L 313.043911 115.005177 
L 316.755961 109.959162 
L 320.096806 105.789214 
L 323.437651 101.994937 
L 326.407291 98.956541 
L 329.376931 96.249606 
L 331.975366 94.165032 
L 334.573802 92.355508 
L 337.172237 90.829588 
L 339.399467 89.753033 
L 341.626697 88.894214 
L 343.853927 88.256269 
L 346.081157 87.841511 
L 348.308387 87.651388 
L 350.535617 87.686449 
L 352.762847 87.946322 
L 354.990077 88.429702 
L 357.217307 89.134351 
L 359.444537 90.057103 
L 361.671767 91.19388 
L 364.270203 92.783948 
L 366.868638 94.649176 
L 369.467073 96.778702 
L 372.436713 99.520283 
L 375.406353 102.570649 
L 378.747198 106.343552 
L 382.088043 110.444669 
L 385.800093 115.341966 
L 390.254553 121.620155 
L 395.451424 129.3799 
L 402.133114 139.814953 
L 421.435774 170.254475 
L 427.00385 178.492683 
L 431.45831 184.762706 
L 431.45831 184.762706 
" clip-path="url(#p2198a209d0)" style="fill: none; stroke: #1f77b4; stroke-width: 1.5; stroke-linecap: square"/>
   </g>
   <g id="line2d_13">
    <path d="M 60.624503 231.727997 
L 69.533423 236.483119 
L 78.071138 240.792682 
L 86.237649 244.666841 
L 94.032954 248.118788 
L 101.457054 251.164621 
L 108.509949 253.823165 
L 115.19164 256.115738 
L 121.87333 258.173805 
L 128.183815 259.888773 
L 134.4943 261.368211 
L 140.43358 262.53337 
L 146.372861 263.466294 
L 151.940936 264.119362 
L 157.509011 264.547712 
L 162.705881 264.735668 
L 167.902751 264.710372 
L 173.099621 264.463194 
L 178.296492 263.985429 
L 183.122157 263.327679 
L 187.947822 262.456574 
L 192.773487 261.365163 
L 197.599152 260.046583 
L 202.424817 258.494104 
L 207.250483 256.701185 
L 212.076148 254.661543 
L 216.901813 252.369218 
L 221.727478 249.818659 
L 226.553143 247.004814 
L 231.378808 243.923232 
L 236.204473 240.570182 
L 241.030139 236.942774 
L 245.855804 233.039113 
L 250.681469 228.858447 
L 255.878339 224.047097 
L 261.075209 218.917879 
L 266.272079 213.475852 
L 271.840155 207.306874 
L 277.40823 200.801279 
L 283.34751 193.511554 
L 289.657995 185.401722 
L 296.339685 176.454346 
L 304.134991 165.636351 
L 314.899936 150.275926 
L 329.005726 130.179328 
L 335.687417 121.059847 
L 340.884287 114.324474 
L 345.338747 108.895067 
L 349.422002 104.269822 
L 353.134052 100.41675 
L 356.474897 97.283711 
L 359.444537 94.802447 
L 362.042972 92.893329 
L 364.641408 91.253821 
L 366.868638 90.082312 
L 369.095868 89.144321 
L 371.323098 88.457474 
L 373.179123 88.090245 
L 375.035148 87.921376 
L 376.891173 87.962447 
L 378.747198 88.225485 
L 380.603223 88.722976 
L 382.459248 89.467884 
L 384.315273 90.47366 
L 386.171298 91.75426 
L 388.027323 93.324161 
L 389.883348 95.198375 
L 391.739373 97.392466 
L 393.595398 99.922566 
L 395.451424 102.805394 
L 397.307449 106.05827 
L 399.163474 109.699137 
L 401.390704 114.606533 
L 403.617934 120.132787 
L 405.845164 126.312674 
L 408.072394 133.182427 
L 410.299624 140.779794 
L 412.526854 149.144082 
L 414.754084 158.31622 
L 416.981314 168.338806 
L 419.579749 181.165934 
L 422.178184 195.2845 
L 424.776619 210.771422 
L 427.375055 227.707188 
L 429.97349 246.176004 
L 431.45831 257.451646 
L 431.45831 257.451646 
" clip-path="url(#p2198a209d0)" style="fill: none; stroke: #ff7f0e; stroke-width: 1.5; stroke-linecap: square"/>
   </g>
   <g id="line2d_14">
    <path d="M 60.624503 209.626659 
L 68.048603 216.152768 
L 75.101498 222.055737 
L 81.783189 227.36638 
L 88.464879 232.3886 
L 94.775364 236.853893 
L 100.714644 240.798476 
L 106.653924 244.481993 
L 112.593204 247.893665 
L 118.16128 250.835528 
L 123.729355 253.51984 
L 128.926225 255.784816 
L 134.123095 257.810136 
L 139.319965 259.588433 
L 144.145631 261.012126 
L 148.971296 262.210719 
L 153.796961 263.178494 
L 158.622626 263.90984 
L 163.077086 264.370338 
L 167.531546 264.620519 
L 171.986006 264.656329 
L 176.440467 264.47387 
L 180.894927 264.069427 
L 185.349387 263.439492 
L 189.803847 262.580793 
L 194.258307 261.490323 
L 198.712767 260.16537 
L 203.167227 258.603558 
L 207.621688 256.802878 
L 212.076148 254.761734 
L 216.530608 252.478985 
L 220.985068 249.953993 
L 225.439528 247.186674 
L 230.265193 243.915914 
L 235.090858 240.362953 
L 239.916524 236.530379 
L 244.742189 232.42191 
L 249.939059 227.694586 
L 255.135929 222.661062 
L 260.704004 216.939665 
L 266.272079 210.893571 
L 272.21136 204.107518 
L 278.521845 196.546292 
L 285.203535 188.189133 
L 292.627635 178.547303 
L 301.907761 166.107414 
L 327.520906 131.523072 
L 333.831392 123.521781 
L 339.028262 117.283854 
L 343.482722 112.264776 
L 347.565977 107.987649 
L 351.278027 104.414792 
L 354.618872 101.493423 
L 357.588512 99.159249 
L 360.558152 97.098752 
L 363.156587 95.541495 
L 365.755023 94.233454 
L 368.353458 93.194621 
L 370.580688 92.53433 
L 372.807918 92.101022 
L 375.035148 91.909075 
L 377.262378 91.97346 
L 379.118403 92.23415 
L 380.974428 92.693016 
L 382.830453 93.359729 
L 384.686478 94.244284 
L 386.542503 95.357011 
L 388.398528 96.708581 
L 390.254553 98.31002 
L 392.110578 100.172717 
L 393.966603 102.308435 
L 396.193834 105.248812 
L 398.421064 108.621592 
L 400.648294 112.449362 
L 402.875524 116.755587 
L 405.102754 121.564634 
L 407.329984 126.901805 
L 409.557214 132.793368 
L 411.784444 139.266589 
L 414.011674 146.349763 
L 416.610109 155.423608 
L 419.208544 165.41619 
L 421.806979 176.37814 
L 424.405414 188.36228 
L 427.00385 201.423708 
L 429.602285 215.619882 
L 431.45831 226.487834 
L 431.45831 226.487834 
" clip-path="url(#p2198a209d0)" style="fill: none; stroke: #2ca02c; stroke-width: 1.5; stroke-linecap: square"/>
   </g>
   <g id="line2d_15">
    <path d="M 60.624503 226.557909 
L 71.760653 232.310967 
L 81.411984 237.047646 
L 89.949699 240.993255 
L 97.745004 244.355532 
L 105.169104 247.310889 
L 111.850794 249.738248 
L 118.16128 251.806592 
L 124.471765 253.63683 
L 130.411045 255.123984 
L 135.97912 256.295784 
L 141.547195 257.238519 
L 146.744066 257.900002 
L 151.940936 258.339788 
L 157.137806 258.547616 
L 161.963471 258.524252 
L 166.789136 258.284774 
L 171.614801 257.821988 
L 176.440467 257.129131 
L 181.266132 256.199933 
L 186.091797 255.028672 
L 190.917462 253.610236 
L 195.371922 252.077672 
L 200.197587 250.172056 
L 205.023252 248.008422 
L 209.848918 245.584684 
L 214.674583 242.899707 
L 219.500248 239.953384 
L 224.325913 236.746715 
L 229.151578 233.281899 
L 234.348448 229.265888 
L 239.545319 224.960696 
L 244.742189 220.374473 
L 250.310264 215.160554 
L 256.249544 209.27419 
L 262.188824 203.075185 
L 268.499309 196.177263 
L 275.552205 188.135974 
L 283.718715 178.471341 
L 294.48366 165.352356 
L 312.672706 143.14496 
L 319.725601 134.902079 
L 325.664881 128.293483 
L 330.861751 122.849025 
L 335.316212 118.495375 
L 339.399467 114.806261 
L 343.111517 111.740985 
L 346.452362 109.24705 
L 349.793207 107.031975 
L 352.762847 105.32009 
L 355.732487 103.871955 
L 358.330922 102.838401 
L 360.929357 102.038853 
L 363.527792 101.489217 
L 365.755023 101.22952 
L 367.982253 101.176344 
L 370.209483 101.340824 
L 372.436713 101.734458 
L 374.663943 102.36912 
L 376.891173 103.257068 
L 379.118403 104.410952 
L 381.345633 105.84383 
L 383.572863 107.569173 
L 385.800093 109.600883 
L 388.027323 111.953298 
L 390.254553 114.641207 
L 392.481783 117.679862 
L 394.709013 121.08499 
L 396.936244 124.872805 
L 399.163474 129.060023 
L 401.390704 133.663872 
L 403.989139 139.585327 
L 406.587574 146.127187 
L 409.186009 153.319621 
L 411.784444 161.193862 
L 414.382879 169.782246 
L 416.981314 179.118242 
L 419.579749 189.23649 
L 422.178184 200.172833 
L 425.147824 213.720895 
L 428.117465 228.443387 
L 431.087105 244.399986 
L 431.45831 246.484396 
L 431.45831 246.484396 
" clip-path="url(#p2198a209d0)" style="fill: none; stroke: #d62728; stroke-width: 1.5; stroke-linecap: square"/>
   </g>
   <g id="line2d_16">
    <path d="M 60.624503 257.884155 
L 79.555958 259.508893 
L 92.919339 260.434468 
L 104.055489 260.983906 
L 113.70682 261.244798 
L 122.61574 261.267873 
L 130.78225 261.072737 
L 138.577555 260.664777 
L 146.001656 260.049152 
L 153.054551 259.235905 
L 159.736241 258.239596 
L 166.046726 257.078857 
L 172.357211 255.687328 
L 178.296492 254.151322 
L 184.235772 252.380889 
L 189.803847 250.495065 
L 195.371922 248.378036 
L 200.939997 246.0177 
L 206.508072 243.402147 
L 211.704943 240.72047 
L 216.901813 237.797309 
L 222.098683 234.624079 
L 227.295553 231.192812 
L 232.492423 227.496314 
L 237.689293 223.528342 
L 242.886164 219.283807 
L 248.083034 214.758999 
L 253.279904 209.951843 
L 258.847979 204.487866 
L 264.416054 198.702284 
L 269.98413 192.601206 
L 275.92341 185.757119 
L 282.233895 178.124976 
L 288.915585 169.672618 
L 295.96848 160.38956 
L 304.506196 148.764243 
L 320.096806 127.040921 
L 329.005726 114.848556 
L 335.316212 106.585043 
L 340.513082 100.155726 
L 344.967542 95.009607 
L 348.679592 91.041196 
L 352.020437 87.764807 
L 355.361282 84.811371 
L 358.330922 82.493648 
L 360.929357 80.730901 
L 363.527792 79.241086 
L 365.755023 78.20075 
L 367.982253 77.396797 
L 370.209483 76.847083 
L 372.065508 76.596676 
L 373.921533 76.547113 
L 375.777558 76.710144 
L 377.633583 77.097977 
L 379.489608 77.723296 
L 381.345633 78.59927 
L 383.201658 79.73957 
L 385.057683 81.158388 
L 386.913708 82.870447 
L 388.769733 84.89102 
L 390.625758 87.235949 
L 392.481783 89.921657 
L 394.337808 92.965167 
L 396.193834 96.384122 
L 398.421064 101.008239 
L 400.648294 106.232189 
L 402.875524 112.090216 
L 405.102754 118.618017 
L 407.329984 125.852796 
L 409.557214 133.833315 
L 411.784444 142.599949 
L 414.011674 152.194735 
L 416.238904 162.661437 
L 418.837339 176.035453 
L 421.435774 190.733801 
L 424.034209 206.835516 
L 426.632645 224.423312 
L 429.23108 243.583723 
L 431.45831 261.327095 
L 431.45831 261.327095 
" clip-path="url(#p2198a209d0)" style="fill: none; stroke: #9467bd; stroke-width: 1.5; stroke-linecap: square"/>
   </g>
   <g id="patch_3">
    <path d="M 42.082813 318.121875 
L 42.082813 10.8 
" style="fill: none; stroke: #000000; stroke-width: 0.8; stroke-linejoin: miter; stroke-linecap: square"/>
   </g>
   <g id="patch_4">
    <path d="M 450 318.121875 
L 450 10.8 
" style="fill: none; stroke: #000000; stroke-width: 0.8; stroke-linejoin: miter; stroke-linecap: square"/>
   </g>
   <g id="patch_5">
    <path d="M 42.082813 318.121875 
L 450 318.121875 
" style="fill: none; stroke: #000000; stroke-width: 0.8; stroke-linejoin: miter; stroke-linecap: square"/>
   </g>
   <g id="patch_6">
    <path d="M 42.082813 10.8 
L 450 10.8 
" style="fill: none; stroke: #000000; stroke-width: 0.8; stroke-linejoin: miter; stroke-linecap: square"/>
   </g>
   <g id="legend_1">
    <g id="patch_7">
     <path d="M 49.082813 92.46875 
L 209.679688 92.46875 
Q 211.679688 92.46875 211.679688 90.46875 
L 211.679688 17.8 
Q 211.679688 15.8 209.679688 15.8 
L 49.082813 15.8 
Q 47.082813 15.8 47.082813 17.8 
L 47.082813 90.46875 
Q 47.082813 92.46875 49.082813 92.46875 
z
" style="fill: #ffffff; opacity: 0.8; stroke: #cccccc; stroke-linejoin: miter"/>
    </g>
    <g id="line2d_17">
     <path d="M 51.082813 23.898438 
L 61.082813 23.898438 
L 71.082813 23.898438 
" style="fill: none; stroke: #1f77b4; stroke-width: 1.5; stroke-linecap: square"/>
    </g>
    <g id="text_12">
     <!-- f(x) -->
     <g transform="translate(79.082813 27.398438)scale(0.1 -0.1)">
      <defs>
       <path id="DejaVuSans-66" d="M 2375 4863 
L 2375 4384 
L 1825 4384 
Q 1516 4384 1395 4259 
Q 1275 4134 1275 3809 
L 1275 3500 
L 2222 3500 
L 2222 3053 
L 1275 3053 
L 1275 0 
L 697 0 
L 697 3053 
L 147 3053 
L 147 3500 
L 697 3500 
L 697 3744 
Q 697 4328 969 4595 
Q 1241 4863 1831 4863 
L 2375 4863 
z
" transform="scale(0.015625)"/>
       <path id="DejaVuSans-28" d="M 1984 4856 
Q 1566 4138 1362 3434 
Q 1159 2731 1159 2009 
Q 1159 1288 1364 580 
Q 1569 -128 1984 -844 
L 1484 -844 
Q 1016 -109 783 600 
Q 550 1309 550 2009 
Q 550 2706 781 3412 
Q 1013 4119 1484 4856 
L 1984 4856 
z
" transform="scale(0.015625)"/>
       <path id="DejaVuSans-78" d="M 3513 3500 
L 2247 1797 
L 3578 0 
L 2900 0 
L 1881 1375 
L 863 0 
L 184 0 
L 1544 1831 
L 300 3500 
L 978 3500 
L 1906 2253 
L 2834 3500 
L 3513 3500 
z
" transform="scale(0.015625)"/>
       <path id="DejaVuSans-29" d="M 513 4856 
L 1013 4856 
Q 1481 4119 1714 3412 
Q 1947 2706 1947 2009 
Q 1947 1309 1714 600 
Q 1481 -109 1013 -844 
L 513 -844 
Q 928 -128 1133 580 
Q 1338 1288 1338 2009 
Q 1338 2731 1133 3434 
Q 928 4138 513 4856 
z
" transform="scale(0.015625)"/>
      </defs>
      <use xlink:href="#DejaVuSans-66"/>
      <use xlink:href="#DejaVuSans-28" x="35.205078"/>
      <use xlink:href="#DejaVuSans-78" x="74.21875"/>
      <use xlink:href="#DejaVuSans-29" x="133.398438"/>
     </g>
    </g>
    <g id="line2d_18">
     <path d="M 51.082813 38.576563 
L 61.082813 38.576563 
L 71.082813 38.576563 
" style="fill: none; stroke: #ff7f0e; stroke-width: 1.5; stroke-linecap: square"/>
    </g>
    <g id="text_13">
     <!-- plain [MSE=0.00566] -->
     <g transform="translate(79.082813 42.076563)scale(0.1 -0.1)">
      <defs>
       <path id="DejaVuSans-70" d="M 1159 525 
L 1159 -1331 
L 581 -1331 
L 581 3500 
L 1159 3500 
L 1159 2969 
Q 1341 3281 1617 3432 
Q 1894 3584 2278 3584 
Q 2916 3584 3314 3078 
Q 3713 2572 3713 1747 
Q 3713 922 3314 415 
Q 2916 -91 2278 -91 
Q 1894 -91 1617 61 
Q 1341 213 1159 525 
z
M 3116 1747 
Q 3116 2381 2855 2742 
Q 2594 3103 2138 3103 
Q 1681 3103 1420 2742 
Q 1159 2381 1159 1747 
Q 1159 1113 1420 752 
Q 1681 391 2138 391 
Q 2594 391 2855 752 
Q 3116 1113 3116 1747 
z
" transform="scale(0.015625)"/>
       <path id="DejaVuSans-6c" d="M 603 4863 
L 1178 4863 
L 1178 0 
L 603 0 
L 603 4863 
z
" transform="scale(0.015625)"/>
       <path id="DejaVuSans-61" d="M 2194 1759 
Q 1497 1759 1228 1600 
Q 959 1441 959 1056 
Q 959 750 1161 570 
Q 1363 391 1709 391 
Q 2188 391 2477 730 
Q 2766 1069 2766 1631 
L 2766 1759 
L 2194 1759 
z
M 3341 1997 
L 3341 0 
L 2766 0 
L 2766 531 
Q 2569 213 2275 61 
Q 1981 -91 1556 -91 
Q 1019 -91 701 211 
Q 384 513 384 1019 
Q 384 1609 779 1909 
Q 1175 2209 1959 2209 
L 2766 2209 
L 2766 2266 
Q 2766 2663 2505 2880 
Q 2244 3097 1772 3097 
Q 1472 3097 1187 3025 
Q 903 2953 641 2809 
L 641 3341 
Q 956 3463 1253 3523 
Q 1550 3584 1831 3584 
Q 2591 3584 2966 3190 
Q 3341 2797 3341 1997 
z
" transform="scale(0.015625)"/>
       <path id="DejaVuSans-69" d="M 603 3500 
L 1178 3500 
L 1178 0 
L 603 0 
L 603 3500 
z
M 603 4863 
L 1178 4863 
L 1178 4134 
L 603 4134 
L 603 4863 
z
" transform="scale(0.015625)"/>
       <path id="DejaVuSans-6e" d="M 3513 2113 
L 3513 0 
L 2938 0 
L 2938 2094 
Q 2938 2591 2744 2837 
Q 2550 3084 2163 3084 
Q 1697 3084 1428 2787 
Q 1159 2491 1159 1978 
L 1159 0 
L 581 0 
L 581 3500 
L 1159 3500 
L 1159 2956 
Q 1366 3272 1645 3428 
Q 1925 3584 2291 3584 
Q 2894 3584 3203 3211 
Q 3513 2838 3513 2113 
z
" transform="scale(0.015625)"/>
       <path id="DejaVuSans-20" transform="scale(0.015625)"/>
       <path id="DejaVuSans-5b" d="M 550 4863 
L 1875 4863 
L 1875 4416 
L 1125 4416 
L 1125 -397 
L 1875 -397 
L 1875 -844 
L 550 -844 
L 550 4863 
z
" transform="scale(0.015625)"/>
       <path id="DejaVuSans-4d" d="M 628 4666 
L 1569 4666 
L 2759 1491 
L 3956 4666 
L 4897 4666 
L 4897 0 
L 4281 0 
L 4281 4097 
L 3078 897 
L 2444 897 
L 1241 4097 
L 1241 0 
L 628 0 
L 628 4666 
z
" transform="scale(0.015625)"/>
       <path id="DejaVuSans-53" d="M 3425 4513 
L 3425 3897 
Q 3066 4069 2747 4153 
Q 2428 4238 2131 4238 
Q 1616 4238 1336 4038 
Q 1056 3838 1056 3469 
Q 1056 3159 1242 3001 
Q 1428 2844 1947 2747 
L 2328 2669 
Q 3034 2534 3370 2195 
Q 3706 1856 3706 1288 
Q 3706 609 3251 259 
Q 2797 -91 1919 -91 
Q 1588 -91 1214 -16 
Q 841 59 441 206 
L 441 856 
Q 825 641 1194 531 
Q 1563 422 1919 422 
Q 2459 422 2753 634 
Q 3047 847 3047 1241 
Q 3047 1584 2836 1778 
Q 2625 1972 2144 2069 
L 1759 2144 
Q 1053 2284 737 2584 
Q 422 2884 422 3419 
Q 422 4038 858 4394 
Q 1294 4750 2059 4750 
Q 2388 4750 2728 4690 
Q 3069 4631 3425 4513 
z
" transform="scale(0.015625)"/>
       <path id="DejaVuSans-45" d="M 628 4666 
L 3578 4666 
L 3578 4134 
L 1259 4134 
L 1259 2753 
L 3481 2753 
L 3481 2222 
L 1259 2222 
L 1259 531 
L 3634 531 
L 3634 0 
L 628 0 
L 628 4666 
z
" transform="scale(0.015625)"/>
       <path id="DejaVuSans-3d" d="M 678 2906 
L 4684 2906 
L 4684 2381 
L 678 2381 
L 678 2906 
z
M 678 1631 
L 4684 1631 
L 4684 1100 
L 678 1100 
L 678 1631 
z
" transform="scale(0.015625)"/>
       <path id="DejaVuSans-35" d="M 691 4666 
L 3169 4666 
L 3169 4134 
L 1269 4134 
L 1269 2991 
Q 1406 3038 1543 3061 
Q 1681 3084 1819 3084 
Q 2600 3084 3056 2656 
Q 3513 2228 3513 1497 
Q 3513 744 3044 326 
Q 2575 -91 1722 -91 
Q 1428 -91 1123 -41 
Q 819 9 494 109 
L 494 744 
Q 775 591 1075 516 
Q 1375 441 1709 441 
Q 2250 441 2565 725 
Q 2881 1009 2881 1497 
Q 2881 1984 2565 2268 
Q 2250 2553 1709 2553 
Q 1456 2553 1204 2497 
Q 953 2441 691 2322 
L 691 4666 
z
" transform="scale(0.015625)"/>
       <path id="DejaVuSans-5d" d="M 1947 4863 
L 1947 -844 
L 622 -844 
L 622 -397 
L 1369 -397 
L 1369 4416 
L 622 4416 
L 622 4863 
L 1947 4863 
z
" transform="scale(0.015625)"/>
      </defs>
      <use xlink:href="#DejaVuSans-70"/>
      <use xlink:href="#DejaVuSans-6c" x="63.476562"/>
      <use xlink:href="#DejaVuSans-61" x="91.259766"/>
      <use xlink:href="#DejaVuSans-69" x="152.539062"/>
      <use xlink:href="#DejaVuSans-6e" x="180.322266"/>
      <use xlink:href="#DejaVuSans-20" x="243.701172"/>
      <use xlink:href="#DejaVuSans-5b" x="275.488281"/>
      <use xlink:href="#DejaVuSans-4d" x="314.501953"/>
      <use xlink:href="#DejaVuSans-53" x="400.78125"/>
      <use xlink:href="#DejaVuSans-45" x="464.257812"/>
      <use xlink:href="#DejaVuSans-3d" x="527.441406"/>
      <use xlink:href="#DejaVuSans-30" x="611.230469"/>
      <use xlink:href="#DejaVuSans-2e" x="674.853516"/>
      <use xlink:href="#DejaVuSans-30" x="706.640625"/>
      <use xlink:href="#DejaVuSans-30" x="770.263672"/>
      <use xlink:href="#DejaVuSans-35" x="833.886719"/>
      <use xlink:href="#DejaVuSans-36" x="897.509766"/>
      <use xlink:href="#DejaVuSans-36" x="961.132812"/>
      <use xlink:href="#DejaVuSans-5d" x="1024.755859"/>
     </g>
    </g>
    <g id="line2d_19">
     <path d="M 51.082813 53.254688 
L 61.082813 53.254688 
L 71.082813 53.254688 
" style="fill: none; stroke: #2ca02c; stroke-width: 1.5; stroke-linecap: square"/>
    </g>
    <g id="text_14">
     <!-- adagrad [MSE=0.00512] -->
     <g transform="translate(79.082813 56.754688)scale(0.1 -0.1)">
      <defs>
       <path id="DejaVuSans-64" d="M 2906 2969 
L 2906 4863 
L 3481 4863 
L 3481 0 
L 2906 0 
L 2906 525 
Q 2725 213 2448 61 
Q 2172 -91 1784 -91 
Q 1150 -91 751 415 
Q 353 922 353 1747 
Q 353 2572 751 3078 
Q 1150 3584 1784 3584 
Q 2172 3584 2448 3432 
Q 2725 3281 2906 2969 
z
M 947 1747 
Q 947 1113 1208 752 
Q 1469 391 1925 391 
Q 2381 391 2643 752 
Q 2906 1113 2906 1747 
Q 2906 2381 2643 2742 
Q 2381 3103 1925 3103 
Q 1469 3103 1208 2742 
Q 947 2381 947 1747 
z
" transform="scale(0.015625)"/>
       <path id="DejaVuSans-67" d="M 2906 1791 
Q 2906 2416 2648 2759 
Q 2391 3103 1925 3103 
Q 1463 3103 1205 2759 
Q 947 2416 947 1791 
Q 947 1169 1205 825 
Q 1463 481 1925 481 
Q 2391 481 2648 825 
Q 2906 1169 2906 1791 
z
M 3481 434 
Q 3481 -459 3084 -895 
Q 2688 -1331 1869 -1331 
Q 1566 -1331 1297 -1286 
Q 1028 -1241 775 -1147 
L 775 -588 
Q 1028 -725 1275 -790 
Q 1522 -856 1778 -856 
Q 2344 -856 2625 -561 
Q 2906 -266 2906 331 
L 2906 616 
Q 2728 306 2450 153 
Q 2172 0 1784 0 
Q 1141 0 747 490 
Q 353 981 353 1791 
Q 353 2603 747 3093 
Q 1141 3584 1784 3584 
Q 2172 3584 2450 3431 
Q 2728 3278 2906 2969 
L 2906 3500 
L 3481 3500 
L 3481 434 
z
" transform="scale(0.015625)"/>
       <path id="DejaVuSans-72" d="M 2631 2963 
Q 2534 3019 2420 3045 
Q 2306 3072 2169 3072 
Q 1681 3072 1420 2755 
Q 1159 2438 1159 1844 
L 1159 0 
L 581 0 
L 581 3500 
L 1159 3500 
L 1159 2956 
Q 1341 3275 1631 3429 
Q 1922 3584 2338 3584 
Q 2397 3584 2469 3576 
Q 2541 3569 2628 3553 
L 2631 2963 
z
" transform="scale(0.015625)"/>
      </defs>
      <use xlink:href="#DejaVuSans-61"/>
      <use xlink:href="#DejaVuSans-64" x="61.279297"/>
      <use xlink:href="#DejaVuSans-61" x="124.755859"/>
      <use xlink:href="#DejaVuSans-67" x="186.035156"/>
      <use xlink:href="#DejaVuSans-72" x="249.511719"/>
      <use xlink:href="#DejaVuSans-61" x="290.625"/>
      <use xlink:href="#DejaVuSans-64" x="351.904297"/>
      <use xlink:href="#DejaVuSans-20" x="415.380859"/>
      <use xlink:href="#DejaVuSans-5b" x="447.167969"/>
      <use xlink:href="#DejaVuSans-4d" x="486.181641"/>
      <use xlink:href="#DejaVuSans-53" x="572.460938"/>
      <use xlink:href="#DejaVuSans-45" x="635.9375"/>
      <use xlink:href="#DejaVuSans-3d" x="699.121094"/>
      <use xlink:href="#DejaVuSans-30" x="782.910156"/>
      <use xlink:href="#DejaVuSans-2e" x="846.533203"/>
      <use xlink:href="#DejaVuSans-30" x="878.320312"/>
      <use xlink:href="#DejaVuSans-30" x="941.943359"/>
      <use xlink:href="#DejaVuSans-35" x="1005.566406"/>
      <use xlink:href="#DejaVuSans-31" x="1069.189453"/>
      <use xlink:href="#DejaVuSans-32" x="1132.8125"/>
      <use xlink:href="#DejaVuSans-5d" x="1196.435547"/>
     </g>
    </g>
    <g id="line2d_20">
     <path d="M 51.082813 67.932813 
L 61.082813 67.932813 
L 71.082813 67.932813 
" style="fill: none; stroke: #d62728; stroke-width: 1.5; stroke-linecap: square"/>
    </g>
    <g id="text_15">
     <!-- rms_prop [MSE=0.00537] -->
     <g transform="translate(79.082813 71.432813)scale(0.1 -0.1)">
      <defs>
       <path id="DejaVuSans-6d" d="M 3328 2828 
Q 3544 3216 3844 3400 
Q 4144 3584 4550 3584 
Q 5097 3584 5394 3201 
Q 5691 2819 5691 2113 
L 5691 0 
L 5113 0 
L 5113 2094 
Q 5113 2597 4934 2840 
Q 4756 3084 4391 3084 
Q 3944 3084 3684 2787 
Q 3425 2491 3425 1978 
L 3425 0 
L 2847 0 
L 2847 2094 
Q 2847 2600 2669 2842 
Q 2491 3084 2119 3084 
Q 1678 3084 1418 2786 
Q 1159 2488 1159 1978 
L 1159 0 
L 581 0 
L 581 3500 
L 1159 3500 
L 1159 2956 
Q 1356 3278 1631 3431 
Q 1906 3584 2284 3584 
Q 2666 3584 2933 3390 
Q 3200 3197 3328 2828 
z
" transform="scale(0.015625)"/>
       <path id="DejaVuSans-73" d="M 2834 3397 
L 2834 2853 
Q 2591 2978 2328 3040 
Q 2066 3103 1784 3103 
Q 1356 3103 1142 2972 
Q 928 2841 928 2578 
Q 928 2378 1081 2264 
Q 1234 2150 1697 2047 
L 1894 2003 
Q 2506 1872 2764 1633 
Q 3022 1394 3022 966 
Q 3022 478 2636 193 
Q 2250 -91 1575 -91 
Q 1294 -91 989 -36 
Q 684 19 347 128 
L 347 722 
Q 666 556 975 473 
Q 1284 391 1588 391 
Q 1994 391 2212 530 
Q 2431 669 2431 922 
Q 2431 1156 2273 1281 
Q 2116 1406 1581 1522 
L 1381 1569 
Q 847 1681 609 1914 
Q 372 2147 372 2553 
Q 372 3047 722 3315 
Q 1072 3584 1716 3584 
Q 2034 3584 2315 3537 
Q 2597 3491 2834 3397 
z
" transform="scale(0.015625)"/>
       <path id="DejaVuSans-5f" d="M 3263 -1063 
L 3263 -1509 
L -63 -1509 
L -63 -1063 
L 3263 -1063 
z
" transform="scale(0.015625)"/>
       <path id="DejaVuSans-6f" d="M 1959 3097 
Q 1497 3097 1228 2736 
Q 959 2375 959 1747 
Q 959 1119 1226 758 
Q 1494 397 1959 397 
Q 2419 397 2687 759 
Q 2956 1122 2956 1747 
Q 2956 2369 2687 2733 
Q 2419 3097 1959 3097 
z
M 1959 3584 
Q 2709 3584 3137 3096 
Q 3566 2609 3566 1747 
Q 3566 888 3137 398 
Q 2709 -91 1959 -91 
Q 1206 -91 779 398 
Q 353 888 353 1747 
Q 353 2609 779 3096 
Q 1206 3584 1959 3584 
z
" transform="scale(0.015625)"/>
       <path id="DejaVuSans-33" d="M 2597 2516 
Q 3050 2419 3304 2112 
Q 3559 1806 3559 1356 
Q 3559 666 3084 287 
Q 2609 -91 1734 -91 
Q 1441 -91 1130 -33 
Q 819 25 488 141 
L 488 750 
Q 750 597 1062 519 
Q 1375 441 1716 441 
Q 2309 441 2620 675 
Q 2931 909 2931 1356 
Q 2931 1769 2642 2001 
Q 2353 2234 1838 2234 
L 1294 2234 
L 1294 2753 
L 1863 2753 
Q 2328 2753 2575 2939 
Q 2822 3125 2822 3475 
Q 2822 3834 2567 4026 
Q 2313 4219 1838 4219 
Q 1578 4219 1281 4162 
Q 984 4106 628 3988 
L 628 4550 
Q 988 4650 1302 4700 
Q 1616 4750 1894 4750 
Q 2613 4750 3031 4423 
Q 3450 4097 3450 3541 
Q 3450 3153 3228 2886 
Q 3006 2619 2597 2516 
z
" transform="scale(0.015625)"/>
       <path id="DejaVuSans-37" d="M 525 4666 
L 3525 4666 
L 3525 4397 
L 1831 0 
L 1172 0 
L 2766 4134 
L 525 4134 
L 525 4666 
z
" transform="scale(0.015625)"/>
      </defs>
      <use xlink:href="#DejaVuSans-72"/>
      <use xlink:href="#DejaVuSans-6d" x="39.363281"/>
      <use xlink:href="#DejaVuSans-73" x="136.775391"/>
      <use xlink:href="#DejaVuSans-5f" x="188.875"/>
      <use xlink:href="#DejaVuSans-70" x="238.875"/>
      <use xlink:href="#DejaVuSans-72" x="302.351562"/>
      <use xlink:href="#DejaVuSans-6f" x="341.214844"/>
      <use xlink:href="#DejaVuSans-70" x="402.396484"/>
      <use xlink:href="#DejaVuSans-20" x="465.873047"/>
      <use xlink:href="#DejaVuSans-5b" x="497.660156"/>
      <use xlink:href="#DejaVuSans-4d" x="536.673828"/>
      <use xlink:href="#DejaVuSans-53" x="622.953125"/>
      <use xlink:href="#DejaVuSans-45" x="686.429688"/>
      <use xlink:href="#DejaVuSans-3d" x="749.613281"/>
      <use xlink:href="#DejaVuSans-30" x="833.402344"/>
      <use xlink:href="#DejaVuSans-2e" x="897.025391"/>
      <use xlink:href="#DejaVuSans-30" x="928.8125"/>
      <use xlink:href="#DejaVuSans-30" x="992.435547"/>
      <use xlink:href="#DejaVuSans-35" x="1056.058594"/>
      <use xlink:href="#DejaVuSans-33" x="1119.681641"/>
      <use xlink:href="#DejaVuSans-37" x="1183.304688"/>
      <use xlink:href="#DejaVuSans-5d" x="1246.927734"/>
     </g>
    </g>
    <g id="line2d_21">
     <path d="M 51.082813 82.889063 
L 61.082813 82.889063 
L 71.082813 82.889063 
" style="fill: none; stroke: #9467bd; stroke-width: 1.5; stroke-linecap: square"/>
    </g>
    <g id="text_16">
     <!-- adam [MSE=0.00705] -->
     <g transform="translate(79.082813 86.389063)scale(0.1 -0.1)">
      <use xlink:href="#DejaVuSans-61"/>
      <use xlink:href="#DejaVuSans-64" x="61.279297"/>
      <use xlink:href="#DejaVuSans-61" x="124.755859"/>
      <use xlink:href="#DejaVuSans-6d" x="186.035156"/>
      <use xlink:href="#DejaVuSans-20" x="283.447266"/>
      <use xlink:href="#DejaVuSans-5b" x="315.234375"/>
      <use xlink:href="#DejaVuSans-4d" x="354.248047"/>
      <use xlink:href="#DejaVuSans-53" x="440.527344"/>
      <use xlink:href="#DejaVuSans-45" x="504.003906"/>
      <use xlink:href="#DejaVuSans-3d" x="567.1875"/>
      <use xlink:href="#DejaVuSans-30" x="650.976562"/>
      <use xlink:href="#DejaVuSans-2e" x="714.599609"/>
      <use xlink:href="#DejaVuSans-30" x="746.386719"/>
      <use xlink:href="#DejaVuSans-30" x="810.009766"/>
      <use xlink:href="#DejaVuSans-37" x="873.632812"/>
      <use xlink:href="#DejaVuSans-30" x="937.255859"/>
      <use xlink:href="#DejaVuSans-35" x="1000.878906"/>
      <use xlink:href="#DejaVuSans-5d" x="1064.501953"/>
     </g>
    </g>
   </g>
  </g>
 </g>
 <defs>
  <clipPath id="p2198a209d0">
   <rect x="42.082813" y="10.8" width="407.917187" height="307.321875"/>
  </clipPath>
 </defs>
</svg>
