<?xml version="1.0" encoding="utf-8" standalone="no"?>
<!DOCTYPE svg PUBLIC "-//W3C//DTD SVG 1.1//EN"
  "http://www.w3.org/Graphics/SVG/1.1/DTD/svg11.dtd">
<svg xmlns:xlink="http://www.w3.org/1999/xlink" width="460.8pt" height="345.6pt" viewBox="0 0 460.8 345.6" xmlns="http://www.w3.org/2000/svg" version="1.1">
 <metadata>
  <rdf:RDF xmlns:dc="http://purl.org/dc/elements/1.1/" xmlns:cc="http://creativecommons.org/ns#" xmlns:rdf="http://www.w3.org/1999/02/22-rdf-syntax-ns#">
   <cc:Work>
    <dc:type rdf:resource="http://purl.org/dc/dcmitype/StillImage"/>
    <dc:date>2022-10-26T15:14:52.689784</dc:date>
    <dc:format>image/svg+xml</dc:format>
    <dc:creator>
     <cc:Agent>
      <dc:title>Matplotlib v3.5.3, https://matplotlib.org/</dc:title>
     </cc:Agent>
    </dc:creator>
   </cc:Work>
  </rdf:RDF>
 </metadata>
 <defs>
  <style type="text/css">*{stroke-linejoin: round; stroke-linecap: butt}</style>
 </defs>
 <g id="figure_1">
  <g id="patch_1">
   <path d="M 0 345.6 
L 460.8 345.6 
L 460.8 0 
L 0 0 
z
" style="fill: #ffffff"/>
  </g>
  <g id="axes_1">
   <g id="patch_2">
    <path d="M 114.88 318.121875 
L 450 318.121875 
L 450 10.8 
L 114.88 10.8 
z
" style="fill: #ffffff"/>
   </g>
   <g id="matplotlib.axis_1">
    <g id="xtick_1">
     <g id="line2d_1">
      <defs>
       <path id="m1d235433a9" d="M 0 0 
L 0 3.5 
" style="stroke: #000000; stroke-width: 0.8"/>
      </defs>
      <g>
       <use xlink:href="#m1d235433a9" x="130.112727" y="318.121875" style="stroke: #000000; stroke-width: 0.8"/>
      </g>
     </g>
     <g id="text_1">
      <!-- 0.0 -->
      <g transform="translate(122.161165 332.720312)scale(0.1 -0.1)">
       <defs>
        <path id="DejaVuSans-30" d="M 2034 4250 
Q 1547 4250 1301 3770 
Q 1056 3291 1056 2328 
Q 1056 1369 1301 889 
Q 1547 409 2034 409 
Q 2525 409 2770 889 
Q 3016 1369 3016 2328 
Q 3016 3291 2770 3770 
Q 2525 4250 2034 4250 
z
M 2034 4750 
Q 2819 4750 3233 4129 
Q 3647 3509 3647 2328 
Q 3647 1150 3233 529 
Q 2819 -91 2034 -91 
Q 1250 -91 836 529 
Q 422 1150 422 2328 
Q 422 3509 836 4129 
Q 1250 4750 2034 4750 
z
" transform="scale(0.015625)"/>
        <path id="DejaVuSans-2e" d="M 684 794 
L 1344 794 
L 1344 0 
L 684 0 
L 684 794 
z
" transform="scale(0.015625)"/>
       </defs>
       <use xlink:href="#DejaVuSans-30"/>
       <use xlink:href="#DejaVuSans-2e" x="63.623047"/>
       <use xlink:href="#DejaVuSans-30" x="95.410156"/>
      </g>
     </g>
    </g>
    <g id="xtick_2">
     <g id="line2d_2">
      <g>
       <use xlink:href="#m1d235433a9" x="191.043636" y="318.121875" style="stroke: #000000; stroke-width: 0.8"/>
      </g>
     </g>
     <g id="text_2">
      <!-- 0.2 -->
      <g transform="translate(183.092074 332.720312)scale(0.1 -0.1)">
       <defs>
        <path id="DejaVuSans-32" d="M 1228 531 
L 3431 531 
L 3431 0 
L 469 0 
L 469 531 
Q 828 903 1448 1529 
Q 2069 2156 2228 2338 
Q 2531 2678 2651 2914 
Q 2772 3150 2772 3378 
Q 2772 3750 2511 3984 
Q 2250 4219 1831 4219 
Q 1534 4219 1204 4116 
Q 875 4013 500 3803 
L 500 4441 
Q 881 4594 1212 4672 
Q 1544 4750 1819 4750 
Q 2544 4750 2975 4387 
Q 3406 4025 3406 3419 
Q 3406 3131 3298 2873 
Q 3191 2616 2906 2266 
Q 2828 2175 2409 1742 
Q 1991 1309 1228 531 
z
" transform="scale(0.015625)"/>
       </defs>
       <use xlink:href="#DejaVuSans-30"/>
       <use xlink:href="#DejaVuSans-2e" x="63.623047"/>
       <use xlink:href="#DejaVuSans-32" x="95.410156"/>
      </g>
     </g>
    </g>
    <g id="xtick_3">
     <g id="line2d_3">
      <g>
       <use xlink:href="#m1d235433a9" x="251.974545" y="318.121875" style="stroke: #000000; stroke-width: 0.8"/>
      </g>
     </g>
     <g id="text_3">
      <!-- 0.4 -->
      <g transform="translate(244.022983 332.720312)scale(0.1 -0.1)">
       <defs>
        <path id="DejaVuSans-34" d="M 2419 4116 
L 825 1625 
L 2419 1625 
L 2419 4116 
z
M 2253 4666 
L 3047 4666 
L 3047 1625 
L 3713 1625 
L 3713 1100 
L 3047 1100 
L 3047 0 
L 2419 0 
L 2419 1100 
L 313 1100 
L 313 1709 
L 2253 4666 
z
" transform="scale(0.015625)"/>
       </defs>
       <use xlink:href="#DejaVuSans-30"/>
       <use xlink:href="#DejaVuSans-2e" x="63.623047"/>
       <use xlink:href="#DejaVuSans-34" x="95.410156"/>
      </g>
     </g>
    </g>
    <g id="xtick_4">
     <g id="line2d_4">
      <g>
       <use xlink:href="#m1d235433a9" x="312.905455" y="318.121875" style="stroke: #000000; stroke-width: 0.8"/>
      </g>
     </g>
     <g id="text_4">
      <!-- 0.6 -->
      <g transform="translate(304.953892 332.720312)scale(0.1 -0.1)">
       <defs>
        <path id="DejaVuSans-36" d="M 2113 2584 
Q 1688 2584 1439 2293 
Q 1191 2003 1191 1497 
Q 1191 994 1439 701 
Q 1688 409 2113 409 
Q 2538 409 2786 701 
Q 3034 994 3034 1497 
Q 3034 2003 2786 2293 
Q 2538 2584 2113 2584 
z
M 3366 4563 
L 3366 3988 
Q 3128 4100 2886 4159 
Q 2644 4219 2406 4219 
Q 1781 4219 1451 3797 
Q 1122 3375 1075 2522 
Q 1259 2794 1537 2939 
Q 1816 3084 2150 3084 
Q 2853 3084 3261 2657 
Q 3669 2231 3669 1497 
Q 3669 778 3244 343 
Q 2819 -91 2113 -91 
Q 1303 -91 875 529 
Q 447 1150 447 2328 
Q 447 3434 972 4092 
Q 1497 4750 2381 4750 
Q 2619 4750 2861 4703 
Q 3103 4656 3366 4563 
z
" transform="scale(0.015625)"/>
       </defs>
       <use xlink:href="#DejaVuSans-30"/>
       <use xlink:href="#DejaVuSans-2e" x="63.623047"/>
       <use xlink:href="#DejaVuSans-36" x="95.410156"/>
      </g>
     </g>
    </g>
    <g id="xtick_5">
     <g id="line2d_5">
      <g>
       <use xlink:href="#m1d235433a9" x="373.836364" y="318.121875" style="stroke: #000000; stroke-width: 0.8"/>
      </g>
     </g>
     <g id="text_5">
      <!-- 0.8 -->
      <g transform="translate(365.884801 332.720312)scale(0.1 -0.1)">
       <defs>
        <path id="DejaVuSans-38" d="M 2034 2216 
Q 1584 2216 1326 1975 
Q 1069 1734 1069 1313 
Q 1069 891 1326 650 
Q 1584 409 2034 409 
Q 2484 409 2743 651 
Q 3003 894 3003 1313 
Q 3003 1734 2745 1975 
Q 2488 2216 2034 2216 
z
M 1403 2484 
Q 997 2584 770 2862 
Q 544 3141 544 3541 
Q 544 4100 942 4425 
Q 1341 4750 2034 4750 
Q 2731 4750 3128 4425 
Q 3525 4100 3525 3541 
Q 3525 3141 3298 2862 
Q 3072 2584 2669 2484 
Q 3125 2378 3379 2068 
Q 3634 1759 3634 1313 
Q 3634 634 3220 271 
Q 2806 -91 2034 -91 
Q 1263 -91 848 271 
Q 434 634 434 1313 
Q 434 1759 690 2068 
Q 947 2378 1403 2484 
z
M 1172 3481 
Q 1172 3119 1398 2916 
Q 1625 2713 2034 2713 
Q 2441 2713 2670 2916 
Q 2900 3119 2900 3481 
Q 2900 3844 2670 4047 
Q 2441 4250 2034 4250 
Q 1625 4250 1398 4047 
Q 1172 3844 1172 3481 
z
" transform="scale(0.015625)"/>
       </defs>
       <use xlink:href="#DejaVuSans-30"/>
       <use xlink:href="#DejaVuSans-2e" x="63.623047"/>
       <use xlink:href="#DejaVuSans-38" x="95.410156"/>
      </g>
     </g>
    </g>
    <g id="xtick_6">
     <g id="line2d_6">
      <g>
       <use xlink:href="#m1d235433a9" x="434.767273" y="318.121875" style="stroke: #000000; stroke-width: 0.8"/>
      </g>
     </g>
     <g id="text_6">
      <!-- 1.0 -->
      <g transform="translate(426.81571 332.720312)scale(0.1 -0.1)">
       <defs>
        <path id="DejaVuSans-31" d="M 794 531 
L 1825 531 
L 1825 4091 
L 703 3866 
L 703 4441 
L 1819 4666 
L 2450 4666 
L 2450 531 
L 3481 531 
L 3481 0 
L 794 0 
L 794 531 
z
" transform="scale(0.015625)"/>
       </defs>
       <use xlink:href="#DejaVuSans-31"/>
       <use xlink:href="#DejaVuSans-2e" x="63.623047"/>
       <use xlink:href="#DejaVuSans-30" x="95.410156"/>
      </g>
     </g>
    </g>
   </g>
   <g id="matplotlib.axis_2">
    <g id="ytick_1">
     <g id="line2d_7">
      <defs>
       <path id="mb889c68301" d="M 0 0 
L -3.5 0 
" style="stroke: #000000; stroke-width: 0.8"/>
      </defs>
      <g>
       <use xlink:href="#mb889c68301" x="114.88" y="302.755781" style="stroke: #000000; stroke-width: 0.8"/>
      </g>
     </g>
     <g id="text_7">
      <!-- −0.2 -->
      <g transform="translate(83.597188 306.555)scale(0.1 -0.1)">
       <defs>
        <path id="DejaVuSans-2212" d="M 678 2272 
L 4684 2272 
L 4684 1741 
L 678 1741 
L 678 2272 
z
" transform="scale(0.015625)"/>
       </defs>
       <use xlink:href="#DejaVuSans-2212"/>
       <use xlink:href="#DejaVuSans-30" x="83.789062"/>
       <use xlink:href="#DejaVuSans-2e" x="147.412109"/>
       <use xlink:href="#DejaVuSans-32" x="179.199219"/>
      </g>
     </g>
    </g>
    <g id="ytick_2">
     <g id="line2d_8">
      <g>
       <use xlink:href="#mb889c68301" x="114.88" y="241.291406" style="stroke: #000000; stroke-width: 0.8"/>
      </g>
     </g>
     <g id="text_8">
      <!-- 0.0 -->
      <g transform="translate(91.976875 245.090625)scale(0.1 -0.1)">
       <use xlink:href="#DejaVuSans-30"/>
       <use xlink:href="#DejaVuSans-2e" x="63.623047"/>
       <use xlink:href="#DejaVuSans-30" x="95.410156"/>
      </g>
     </g>
    </g>
    <g id="ytick_3">
     <g id="line2d_9">
      <g>
       <use xlink:href="#mb889c68301" x="114.88" y="179.827031" style="stroke: #000000; stroke-width: 0.8"/>
      </g>
     </g>
     <g id="text_9">
      <!-- 0.2 -->
      <g transform="translate(91.976875 183.62625)scale(0.1 -0.1)">
       <use xlink:href="#DejaVuSans-30"/>
       <use xlink:href="#DejaVuSans-2e" x="63.623047"/>
       <use xlink:href="#DejaVuSans-32" x="95.410156"/>
      </g>
     </g>
    </g>
    <g id="ytick_4">
     <g id="line2d_10">
      <g>
       <use xlink:href="#mb889c68301" x="114.88" y="118.362656" style="stroke: #000000; stroke-width: 0.8"/>
      </g>
     </g>
     <g id="text_10">
      <!-- 0.4 -->
      <g transform="translate(91.976875 122.161875)scale(0.1 -0.1)">
       <use xlink:href="#DejaVuSans-30"/>
       <use xlink:href="#DejaVuSans-2e" x="63.623047"/>
       <use xlink:href="#DejaVuSans-34" x="95.410156"/>
      </g>
     </g>
    </g>
    <g id="ytick_5">
     <g id="line2d_11">
      <g>
       <use xlink:href="#mb889c68301" x="114.88" y="56.898281" style="stroke: #000000; stroke-width: 0.8"/>
      </g>
     </g>
     <g id="text_11">
      <!-- 0.6 -->
      <g transform="translate(91.976875 60.6975)scale(0.1 -0.1)">
       <use xlink:href="#DejaVuSans-30"/>
       <use xlink:href="#DejaVuSans-2e" x="63.623047"/>
       <use xlink:href="#DejaVuSans-36" x="95.410156"/>
      </g>
     </g>
    </g>
   </g>
   <g id="line2d_12">
    <path d="M 130.112727 241.290678 
L 185.005438 241.395031 
L 192.019507 241.650725 
L 197.203818 242.054998 
L 201.168292 242.569349 
L 204.827806 243.269092 
L 207.877401 244.065976 
L 210.926996 245.101674 
L 213.671632 246.273335 
L 216.416267 247.702845 
L 218.855943 249.211172 
L 221.295619 250.958042 
L 224.040255 253.218704 
L 226.78489 255.792637 
L 229.529526 258.66596 
L 232.579121 262.171165 
L 236.543595 267.102648 
L 246.302299 279.450547 
L 249.046934 282.443846 
L 251.181651 284.461974 
L 253.011408 285.922615 
L 254.841165 287.094165 
L 256.365962 287.823699 
L 257.89076 288.308653 
L 259.415557 288.532144 
L 260.635395 288.512811 
L 261.855233 288.310491 
L 263.075071 287.920029 
L 264.294909 287.337458 
L 265.819707 286.335035 
L 267.344505 285.025662 
L 268.869302 283.409837 
L 270.3941 281.491118 
L 272.223857 278.798224 
L 274.053614 275.695306 
L 276.18833 271.58653 
L 278.323047 266.992481 
L 280.762723 261.212076 
L 283.507358 254.13239 
L 286.861913 244.826519 
L 291.131346 232.285743 
L 306.684281 185.936755 
L 311.258673 173.303804 
L 315.528106 162.143113 
L 319.797539 151.614154 
L 323.762013 142.40865 
L 327.726486 133.760992 
L 331.386001 126.28965 
L 335.045515 119.335685 
L 338.400069 113.447451 
L 341.449664 108.528874 
L 344.1943 104.481559 
L 346.938935 100.817708 
L 349.378611 97.90175 
L 351.818287 95.323128 
L 353.953004 93.355319 
L 356.08772 91.666355 
L 358.222437 90.26432 
L 360.357154 89.156084 
L 362.186911 88.444215 
L 364.016668 87.954858 
L 365.846425 87.68975 
L 367.676182 87.649746 
L 369.505939 87.83478 
L 371.335696 88.24386 
L 373.165453 88.875059 
L 374.99521 89.725519 
L 377.129926 90.989754 
L 379.264643 92.539714 
L 381.399359 94.366264 
L 383.839035 96.778702 
L 386.278711 99.520283 
L 389.023347 102.972564 
L 391.767983 106.783674 
L 394.817578 111.396967 
L 398.172132 116.873592 
L 402.136606 123.795234 
L 407.015958 132.813975 
L 414.030026 146.32364 
L 424.39865 166.283098 
L 429.887921 176.336178 
L 434.462313 184.252295 
L 434.767273 184.762706 
L 434.767273 184.762706 
" clip-path="url(#p0a9365e400)" style="fill: none; stroke: #1f77b4; stroke-width: 1.5; stroke-linecap: square"/>
   </g>
   <g id="line2d_13">
    <path d="M 130.112727 228.057599 
L 137.126796 233.357212 
L 143.530945 237.926119 
L 149.630136 242.019364 
L 155.729326 245.842704 
L 161.523556 249.207964 
L 167.012827 252.140948 
L 172.197139 254.66966 
L 177.381451 256.951035 
L 182.260803 258.860616 
L 187.140155 260.528454 
L 191.714547 261.862403 
L 196.28894 262.964375 
L 200.558373 263.775063 
L 204.827806 264.367312 
L 209.097239 264.733122 
L 213.366672 264.864462 
L 217.331146 264.769461 
L 221.295619 264.458977 
L 225.260093 263.926681 
L 229.224566 263.166338 
L 233.18904 262.17185 
L 237.153514 260.937298 
L 241.117987 259.45699 
L 245.082461 257.725519 
L 249.046934 255.737818 
L 253.011408 253.489236 
L 256.975881 250.975606 
L 260.940355 248.193335 
L 264.904828 245.139491 
L 268.869302 241.811909 
L 272.833776 238.209305 
L 277.103209 234.021708 
L 281.372642 229.51597 
L 285.642075 224.694974 
L 290.216467 219.185361 
L 294.79086 213.328344 
L 299.670212 206.711823 
L 304.854524 199.286145 
L 310.343795 191.013046 
L 316.138025 181.872944 
L 322.847134 170.857545 
L 331.386001 156.378687 
L 347.243895 129.405759 
L 352.733166 120.539948 
L 357.307558 113.5534 
L 361.272032 107.899216 
L 364.626587 103.478389 
L 367.676182 99.804182 
L 370.420817 96.821515 
L 372.860493 94.461447 
L 375.300169 92.406542 
L 377.434886 90.883738 
L 379.569602 89.641322 
L 381.399359 88.817452 
L 383.229116 88.232538 
L 385.058873 87.90287 
L 386.583671 87.835368 
L 388.108468 87.967135 
L 389.633266 88.308759 
L 391.158064 88.871203 
L 392.682861 89.665815 
L 394.207659 90.704338 
L 395.732456 91.998925 
L 397.257254 93.562146 
L 398.782051 95.407001 
L 400.611808 98.011548 
L 402.441565 101.065132 
L 404.271322 104.59283 
L 406.101079 108.620726 
L 407.930836 113.175946 
L 409.760593 118.286692 
L 411.59035 123.982277 
L 413.725067 131.407002 
L 415.859783 139.719684 
L 417.9945 148.973015 
L 420.129216 159.222053 
L 422.263933 170.524306 
L 424.39865 182.939824 
L 426.838326 198.572709 
L 429.278002 215.839579 
L 431.717678 234.843243 
L 434.157354 255.691571 
L 434.767273 261.205021 
L 434.767273 261.205021 
" clip-path="url(#p0a9365e400)" style="fill: none; stroke: #ff7f0e; stroke-width: 1.5; stroke-linecap: square"/>
   </g>
   <g id="line2d_14">
    <path d="M 130.112727 217.418025 
L 137.126796 223.484472 
L 143.530945 228.738209 
L 149.630136 233.46862 
L 155.424366 237.697516 
L 161.218597 241.650112 
L 166.707868 245.122888 
L 171.892179 248.144729 
L 176.771532 250.74669 
L 181.650884 253.101234 
L 186.225276 255.072658 
L 190.799669 256.804877 
L 195.069102 258.19631 
L 199.338535 259.361176 
L 203.607968 260.290623 
L 207.572442 260.935152 
L 211.536915 261.362028 
L 215.501389 261.56429 
L 219.465862 261.535095 
L 223.430336 261.267761 
L 227.08985 260.804022 
L 230.749364 260.126954 
L 234.408878 259.231889 
L 238.068392 258.114424 
L 241.727906 256.770469 
L 245.38742 255.196294 
L 249.046934 253.388584 
L 252.706448 251.34449 
L 256.365962 249.061692 
L 260.330436 246.317302 
L 264.294909 243.289434 
L 268.259383 239.977792 
L 272.223857 236.383224 
L 276.49329 232.198192 
L 280.762723 227.691965 
L 285.032156 222.871103 
L 289.606548 217.366884 
L 294.4859 211.124948 
L 299.365253 204.521834 
L 304.549564 197.140929 
L 310.343795 188.495398 
L 316.747944 178.533754 
L 324.981851 165.280434 
L 343.88934 134.655987 
L 349.378611 126.277856 
L 353.953004 119.687535 
L 357.917477 114.35593 
L 361.272032 110.182449 
L 364.321627 106.703862 
L 367.371222 103.569208 
L 370.115858 101.079054 
L 372.555534 99.157808 
L 374.99521 97.538163 
L 377.129926 96.389383 
L 379.264643 95.510693 
L 381.0944 94.987234 
L 382.924157 94.689209 
L 384.753914 94.629755 
L 386.583671 94.822448 
L 388.108468 95.185739 
L 389.633266 95.742216 
L 391.158064 96.500459 
L 392.682861 97.469274 
L 394.512618 98.922547 
L 396.342375 100.708136 
L 398.172132 102.842602 
L 400.001889 105.343014 
L 401.831646 108.22696 
L 403.661403 111.512553 
L 405.49116 115.218442 
L 407.625877 120.098829 
L 409.760593 125.608881 
L 411.89531 131.781091 
L 414.030026 138.64903 
L 416.164743 146.247361 
L 418.299459 154.611866 
L 420.739135 165.156887 
L 423.178812 176.807853 
L 425.618488 189.623754 
L 428.058164 203.665638 
L 430.49784 218.996658 
L 432.937516 235.682109 
L 434.767273 249.12555 
L 434.767273 249.12555 
" clip-path="url(#p0a9365e400)" style="fill: none; stroke: #2ca02c; stroke-width: 1.5; stroke-linecap: square"/>
   </g>
   <g id="line2d_15">
    <path d="M 130.112727 207.91893 
L 138.041674 214.745876 
L 150.545014 225.858297 
L 162.743394 236.605405 
L 170.062422 242.763517 
L 176.161613 247.613944 
L 181.650884 251.694551 
L 186.530236 255.049976 
L 191.104628 257.928898 
L 195.374061 260.355994 
L 199.338535 262.363937 
L 203.303008 264.116537 
L 206.962523 265.492598 
L 210.622037 266.623159 
L 213.976591 267.43326 
L 217.331146 268.017693 
L 220.6857 268.368072 
L 224.040255 268.476645 
L 227.08985 268.359548 
L 230.139445 268.031961 
L 233.18904 267.489613 
L 236.238635 266.728787 
L 239.28823 265.74635 
L 242.337825 264.539777 
L 245.38742 263.107184 
L 248.437015 261.447351 
L 251.79157 259.358464 
L 255.146124 256.9943 
L 258.500679 254.356257 
L 261.855233 251.446867 
L 265.514747 247.967902 
L 269.174262 244.176896 
L 273.138735 239.727416 
L 277.103209 234.93425 
L 281.372642 229.405775 
L 285.642075 223.519324 
L 290.216467 216.845135 
L 295.400779 208.867855 
L 300.89005 200.009049 
L 307.2942 189.247689 
L 316.138025 173.903279 
L 331.081041 147.92301 
L 337.180231 137.799805 
L 342.059583 130.104114 
L 346.329016 123.758048 
L 350.29349 118.259714 
L 353.953004 113.577912 
L 357.307558 109.663299 
L 360.357154 106.452571 
L 363.101789 103.872672 
L 365.846425 101.60985 
L 368.286101 99.883234 
L 370.725777 98.441596 
L 372.860493 97.426788 
L 374.99521 96.653675 
L 377.129926 96.133261 
L 378.959683 95.896658 
L 380.78944 95.86071 
L 382.619197 96.032316 
L 384.448954 96.418346 
L 386.278711 97.025634 
L 388.108468 97.860969 
L 389.938225 98.931086 
L 391.767983 100.242652 
L 393.59774 101.802261 
L 395.732456 103.94398 
L 397.867173 106.442331 
L 400.001889 109.307278 
L 402.136606 112.54855 
L 404.271322 116.175626 
L 406.710998 120.805046 
L 409.150674 125.963589 
L 411.59035 131.663887 
L 414.030026 137.917924 
L 416.469702 144.736972 
L 419.214338 153.096802 
L 421.958974 162.198649 
L 424.703609 172.054702 
L 427.753204 183.903248 
L 430.802799 196.707914 
L 433.852394 210.477785 
L 434.767273 214.797935 
L 434.767273 214.797935 
" clip-path="url(#p0a9365e400)" style="fill: none; stroke: #d62728; stroke-width: 1.5; stroke-linecap: square"/>
   </g>
   <g id="line2d_16">
    <path d="M 130.112727 263.404399 
L 141.396229 262.390538 
L 151.764852 261.241426 
L 161.828516 259.903386 
L 171.28226 258.424396 
L 180.431046 256.7666 
L 188.969912 254.998275 
L 197.203818 253.071905 
L 205.132765 250.993366 
L 212.756753 248.770501 
L 220.075781 246.413199 
L 227.394809 243.820487 
L 234.408878 241.09903 
L 241.117987 238.264424 
L 247.827096 235.189268 
L 254.231246 232.016508 
L 260.635395 228.599488 
L 267.039545 224.926348 
L 273.443695 220.985882 
L 279.542885 216.975213 
L 285.642075 212.705343 
L 291.741265 208.170483 
L 297.840455 203.367099 
L 304.244605 198.033914 
L 310.648754 192.407703 
L 317.357863 186.209517 
L 324.371932 179.417461 
L 331.99592 171.712537 
L 340.839745 162.439284 
L 369.200979 132.387142 
L 374.69025 127.078859 
L 379.264643 122.964181 
L 383.229116 119.691908 
L 386.88863 116.96766 
L 389.938225 114.95341 
L 392.987821 113.207139 
L 395.732456 111.894356 
L 398.172132 110.957038 
L 400.611808 110.257978 
L 402.746525 109.859554 
L 404.881241 109.677019 
L 407.015958 109.727376 
L 409.150674 110.028562 
L 410.980431 110.500662 
L 412.810188 111.183411 
L 414.639945 112.089872 
L 416.469702 113.233693 
L 418.299459 114.629133 
L 420.129216 116.291081 
L 421.958974 118.235082 
L 423.788731 120.477356 
L 425.618488 123.034828 
L 427.753204 126.440507 
L 429.887921 130.328582 
L 432.022637 134.72983 
L 434.157354 139.676536 
L 434.767273 141.194765 
L 434.767273 141.194765 
" clip-path="url(#p0a9365e400)" style="fill: none; stroke: #9467bd; stroke-width: 1.5; stroke-linecap: square"/>
   </g>
   <g id="patch_3">
    <path d="M 114.88 318.121875 
L 114.88 10.8 
" style="fill: none; stroke: #000000; stroke-width: 0.8; stroke-linejoin: miter; stroke-linecap: square"/>
   </g>
   <g id="patch_4">
    <path d="M 450 318.121875 
L 450 10.8 
" style="fill: none; stroke: #000000; stroke-width: 0.8; stroke-linejoin: miter; stroke-linecap: square"/>
   </g>
   <g id="patch_5">
    <path d="M 114.88 318.121875 
L 450 318.121875 
" style="fill: none; stroke: #000000; stroke-width: 0.8; stroke-linejoin: miter; stroke-linecap: square"/>
   </g>
   <g id="patch_6">
    <path d="M 114.88 10.8 
L 450 10.8 
" style="fill: none; stroke: #000000; stroke-width: 0.8; stroke-linejoin: miter; stroke-linecap: square"/>
   </g>
   <g id="legend_1">
    <g id="patch_7">
     <path d="M -9.2 92.578125 
L 443 92.578125 
Q 445 92.578125 445 90.578125 
L 445 17.8 
Q 445 15.8 443 15.8 
L -9.2 15.8 
Q -11.2 15.8 -11.2 17.8 
L -11.2 90.578125 
Q -11.2 92.578125 -9.2 92.578125 
z
" style="fill: #ffffff; opacity: 0.8; stroke: #cccccc; stroke-linejoin: miter"/>
    </g>
    <g id="line2d_17">
     <path d="M -1 23.898438 
L 2.8 23.898438 
L 12.8 23.898438 
" style="fill: none; stroke: #1f77b4; stroke-width: 1.5; stroke-linecap: square"/>
    </g>
    <g id="text_12">
     <!-- f(x) -->
     <g transform="translate(20.8 27.398438)scale(0.1 -0.1)">
      <defs>
       <path id="DejaVuSans-66" d="M 2375 4863 
L 2375 4384 
L 1825 4384 
Q 1516 4384 1395 4259 
Q 1275 4134 1275 3809 
L 1275 3500 
L 2222 3500 
L 2222 3053 
L 1275 3053 
L 1275 0 
L 697 0 
L 697 3053 
L 147 3053 
L 147 3500 
L 697 3500 
L 697 3744 
Q 697 4328 969 4595 
Q 1241 4863 1831 4863 
L 2375 4863 
z
" transform="scale(0.015625)"/>
       <path id="DejaVuSans-28" d="M 1984 4856 
Q 1566 4138 1362 3434 
Q 1159 2731 1159 2009 
Q 1159 1288 1364 580 
Q 1569 -128 1984 -844 
L 1484 -844 
Q 1016 -109 783 600 
Q 550 1309 550 2009 
Q 550 2706 781 3412 
Q 1013 4119 1484 4856 
L 1984 4856 
z
" transform="scale(0.015625)"/>
       <path id="DejaVuSans-78" d="M 3513 3500 
L 2247 1797 
L 3578 0 
L 2900 0 
L 1881 1375 
L 863 0 
L 184 0 
L 1544 1831 
L 300 3500 
L 978 3500 
L 1906 2253 
L 2834 3500 
L 3513 3500 
z
" transform="scale(0.015625)"/>
       <path id="DejaVuSans-29" d="M 513 4856 
L 1013 4856 
Q 1481 4119 1714 3412 
Q 1947 2706 1947 2009 
Q 1947 1309 1714 600 
Q 1481 -109 1013 -844 
L 513 -844 
Q 928 -128 1133 580 
Q 1338 1288 1338 2009 
Q 1338 2731 1133 3434 
Q 928 4138 513 4856 
z
" transform="scale(0.015625)"/>
      </defs>
      <use xlink:href="#DejaVuSans-66"/>
      <use xlink:href="#DejaVuSans-28" x="35.205078"/>
      <use xlink:href="#DejaVuSans-78" x="74.21875"/>
      <use xlink:href="#DejaVuSans-29" x="133.398438"/>
     </g>
    </g>
    <g id="line2d_18">
     <path d="M -1 38.578125 
L 2.8 38.578125 
L 12.8 38.578125 
" style="fill: none; stroke: #ff7f0e; stroke-width: 1.5; stroke-linecap: square"/>
    </g>
    <g id="text_13">
     <!-- Ridge, Plain, Momentum [MSE=0.00523] [$\nu$=0.933] [$\lambda$=1.46e-08] -->
     <g transform="translate(20.8 42.078125)scale(0.1 -0.1)">
      <defs>
       <path id="DejaVuSans-52" d="M 2841 2188 
Q 3044 2119 3236 1894 
Q 3428 1669 3622 1275 
L 4263 0 
L 3584 0 
L 2988 1197 
Q 2756 1666 2539 1819 
Q 2322 1972 1947 1972 
L 1259 1972 
L 1259 0 
L 628 0 
L 628 4666 
L 2053 4666 
Q 2853 4666 3247 4331 
Q 3641 3997 3641 3322 
Q 3641 2881 3436 2590 
Q 3231 2300 2841 2188 
z
M 1259 4147 
L 1259 2491 
L 2053 2491 
Q 2509 2491 2742 2702 
Q 2975 2913 2975 3322 
Q 2975 3731 2742 3939 
Q 2509 4147 2053 4147 
L 1259 4147 
z
" transform="scale(0.015625)"/>
       <path id="DejaVuSans-69" d="M 603 3500 
L 1178 3500 
L 1178 0 
L 603 0 
L 603 3500 
z
M 603 4863 
L 1178 4863 
L 1178 4134 
L 603 4134 
L 603 4863 
z
" transform="scale(0.015625)"/>
       <path id="DejaVuSans-64" d="M 2906 2969 
L 2906 4863 
L 3481 4863 
L 3481 0 
L 2906 0 
L 2906 525 
Q 2725 213 2448 61 
Q 2172 -91 1784 -91 
Q 1150 -91 751 415 
Q 353 922 353 1747 
Q 353 2572 751 3078 
Q 1150 3584 1784 3584 
Q 2172 3584 2448 3432 
Q 2725 3281 2906 2969 
z
M 947 1747 
Q 947 1113 1208 752 
Q 1469 391 1925 391 
Q 2381 391 2643 752 
Q 2906 1113 2906 1747 
Q 2906 2381 2643 2742 
Q 2381 3103 1925 3103 
Q 1469 3103 1208 2742 
Q 947 2381 947 1747 
z
" transform="scale(0.015625)"/>
       <path id="DejaVuSans-67" d="M 2906 1791 
Q 2906 2416 2648 2759 
Q 2391 3103 1925 3103 
Q 1463 3103 1205 2759 
Q 947 2416 947 1791 
Q 947 1169 1205 825 
Q 1463 481 1925 481 
Q 2391 481 2648 825 
Q 2906 1169 2906 1791 
z
M 3481 434 
Q 3481 -459 3084 -895 
Q 2688 -1331 1869 -1331 
Q 1566 -1331 1297 -1286 
Q 1028 -1241 775 -1147 
L 775 -588 
Q 1028 -725 1275 -790 
Q 1522 -856 1778 -856 
Q 2344 -856 2625 -561 
Q 2906 -266 2906 331 
L 2906 616 
Q 2728 306 2450 153 
Q 2172 0 1784 0 
Q 1141 0 747 490 
Q 353 981 353 1791 
Q 353 2603 747 3093 
Q 1141 3584 1784 3584 
Q 2172 3584 2450 3431 
Q 2728 3278 2906 2969 
L 2906 3500 
L 3481 3500 
L 3481 434 
z
" transform="scale(0.015625)"/>
       <path id="DejaVuSans-65" d="M 3597 1894 
L 3597 1613 
L 953 1613 
Q 991 1019 1311 708 
Q 1631 397 2203 397 
Q 2534 397 2845 478 
Q 3156 559 3463 722 
L 3463 178 
Q 3153 47 2828 -22 
Q 2503 -91 2169 -91 
Q 1331 -91 842 396 
Q 353 884 353 1716 
Q 353 2575 817 3079 
Q 1281 3584 2069 3584 
Q 2775 3584 3186 3129 
Q 3597 2675 3597 1894 
z
M 3022 2063 
Q 3016 2534 2758 2815 
Q 2500 3097 2075 3097 
Q 1594 3097 1305 2825 
Q 1016 2553 972 2059 
L 3022 2063 
z
" transform="scale(0.015625)"/>
       <path id="DejaVuSans-2c" d="M 750 794 
L 1409 794 
L 1409 256 
L 897 -744 
L 494 -744 
L 750 256 
L 750 794 
z
" transform="scale(0.015625)"/>
       <path id="DejaVuSans-20" transform="scale(0.015625)"/>
       <path id="DejaVuSans-50" d="M 1259 4147 
L 1259 2394 
L 2053 2394 
Q 2494 2394 2734 2622 
Q 2975 2850 2975 3272 
Q 2975 3691 2734 3919 
Q 2494 4147 2053 4147 
L 1259 4147 
z
M 628 4666 
L 2053 4666 
Q 2838 4666 3239 4311 
Q 3641 3956 3641 3272 
Q 3641 2581 3239 2228 
Q 2838 1875 2053 1875 
L 1259 1875 
L 1259 0 
L 628 0 
L 628 4666 
z
" transform="scale(0.015625)"/>
       <path id="DejaVuSans-6c" d="M 603 4863 
L 1178 4863 
L 1178 0 
L 603 0 
L 603 4863 
z
" transform="scale(0.015625)"/>
       <path id="DejaVuSans-61" d="M 2194 1759 
Q 1497 1759 1228 1600 
Q 959 1441 959 1056 
Q 959 750 1161 570 
Q 1363 391 1709 391 
Q 2188 391 2477 730 
Q 2766 1069 2766 1631 
L 2766 1759 
L 2194 1759 
z
M 3341 1997 
L 3341 0 
L 2766 0 
L 2766 531 
Q 2569 213 2275 61 
Q 1981 -91 1556 -91 
Q 1019 -91 701 211 
Q 384 513 384 1019 
Q 384 1609 779 1909 
Q 1175 2209 1959 2209 
L 2766 2209 
L 2766 2266 
Q 2766 2663 2505 2880 
Q 2244 3097 1772 3097 
Q 1472 3097 1187 3025 
Q 903 2953 641 2809 
L 641 3341 
Q 956 3463 1253 3523 
Q 1550 3584 1831 3584 
Q 2591 3584 2966 3190 
Q 3341 2797 3341 1997 
z
" transform="scale(0.015625)"/>
       <path id="DejaVuSans-6e" d="M 3513 2113 
L 3513 0 
L 2938 0 
L 2938 2094 
Q 2938 2591 2744 2837 
Q 2550 3084 2163 3084 
Q 1697 3084 1428 2787 
Q 1159 2491 1159 1978 
L 1159 0 
L 581 0 
L 581 3500 
L 1159 3500 
L 1159 2956 
Q 1366 3272 1645 3428 
Q 1925 3584 2291 3584 
Q 2894 3584 3203 3211 
Q 3513 2838 3513 2113 
z
" transform="scale(0.015625)"/>
       <path id="DejaVuSans-4d" d="M 628 4666 
L 1569 4666 
L 2759 1491 
L 3956 4666 
L 4897 4666 
L 4897 0 
L 4281 0 
L 4281 4097 
L 3078 897 
L 2444 897 
L 1241 4097 
L 1241 0 
L 628 0 
L 628 4666 
z
" transform="scale(0.015625)"/>
       <path id="DejaVuSans-6f" d="M 1959 3097 
Q 1497 3097 1228 2736 
Q 959 2375 959 1747 
Q 959 1119 1226 758 
Q 1494 397 1959 397 
Q 2419 397 2687 759 
Q 2956 1122 2956 1747 
Q 2956 2369 2687 2733 
Q 2419 3097 1959 3097 
z
M 1959 3584 
Q 2709 3584 3137 3096 
Q 3566 2609 3566 1747 
Q 3566 888 3137 398 
Q 2709 -91 1959 -91 
Q 1206 -91 779 398 
Q 353 888 353 1747 
Q 353 2609 779 3096 
Q 1206 3584 1959 3584 
z
" transform="scale(0.015625)"/>
       <path id="DejaVuSans-6d" d="M 3328 2828 
Q 3544 3216 3844 3400 
Q 4144 3584 4550 3584 
Q 5097 3584 5394 3201 
Q 5691 2819 5691 2113 
L 5691 0 
L 5113 0 
L 5113 2094 
Q 5113 2597 4934 2840 
Q 4756 3084 4391 3084 
Q 3944 3084 3684 2787 
Q 3425 2491 3425 1978 
L 3425 0 
L 2847 0 
L 2847 2094 
Q 2847 2600 2669 2842 
Q 2491 3084 2119 3084 
Q 1678 3084 1418 2786 
Q 1159 2488 1159 1978 
L 1159 0 
L 581 0 
L 581 3500 
L 1159 3500 
L 1159 2956 
Q 1356 3278 1631 3431 
Q 1906 3584 2284 3584 
Q 2666 3584 2933 3390 
Q 3200 3197 3328 2828 
z
" transform="scale(0.015625)"/>
       <path id="DejaVuSans-74" d="M 1172 4494 
L 1172 3500 
L 2356 3500 
L 2356 3053 
L 1172 3053 
L 1172 1153 
Q 1172 725 1289 603 
Q 1406 481 1766 481 
L 2356 481 
L 2356 0 
L 1766 0 
Q 1100 0 847 248 
Q 594 497 594 1153 
L 594 3053 
L 172 3053 
L 172 3500 
L 594 3500 
L 594 4494 
L 1172 4494 
z
" transform="scale(0.015625)"/>
       <path id="DejaVuSans-75" d="M 544 1381 
L 544 3500 
L 1119 3500 
L 1119 1403 
Q 1119 906 1312 657 
Q 1506 409 1894 409 
Q 2359 409 2629 706 
Q 2900 1003 2900 1516 
L 2900 3500 
L 3475 3500 
L 3475 0 
L 2900 0 
L 2900 538 
Q 2691 219 2414 64 
Q 2138 -91 1772 -91 
Q 1169 -91 856 284 
Q 544 659 544 1381 
z
M 1991 3584 
L 1991 3584 
z
" transform="scale(0.015625)"/>
       <path id="DejaVuSans-5b" d="M 550 4863 
L 1875 4863 
L 1875 4416 
L 1125 4416 
L 1125 -397 
L 1875 -397 
L 1875 -844 
L 550 -844 
L 550 4863 
z
" transform="scale(0.015625)"/>
       <path id="DejaVuSans-53" d="M 3425 4513 
L 3425 3897 
Q 3066 4069 2747 4153 
Q 2428 4238 2131 4238 
Q 1616 4238 1336 4038 
Q 1056 3838 1056 3469 
Q 1056 3159 1242 3001 
Q 1428 2844 1947 2747 
L 2328 2669 
Q 3034 2534 3370 2195 
Q 3706 1856 3706 1288 
Q 3706 609 3251 259 
Q 2797 -91 1919 -91 
Q 1588 -91 1214 -16 
Q 841 59 441 206 
L 441 856 
Q 825 641 1194 531 
Q 1563 422 1919 422 
Q 2459 422 2753 634 
Q 3047 847 3047 1241 
Q 3047 1584 2836 1778 
Q 2625 1972 2144 2069 
L 1759 2144 
Q 1053 2284 737 2584 
Q 422 2884 422 3419 
Q 422 4038 858 4394 
Q 1294 4750 2059 4750 
Q 2388 4750 2728 4690 
Q 3069 4631 3425 4513 
z
" transform="scale(0.015625)"/>
       <path id="DejaVuSans-45" d="M 628 4666 
L 3578 4666 
L 3578 4134 
L 1259 4134 
L 1259 2753 
L 3481 2753 
L 3481 2222 
L 1259 2222 
L 1259 531 
L 3634 531 
L 3634 0 
L 628 0 
L 628 4666 
z
" transform="scale(0.015625)"/>
       <path id="DejaVuSans-3d" d="M 678 2906 
L 4684 2906 
L 4684 2381 
L 678 2381 
L 678 2906 
z
M 678 1631 
L 4684 1631 
L 4684 1100 
L 678 1100 
L 678 1631 
z
" transform="scale(0.015625)"/>
       <path id="DejaVuSans-35" d="M 691 4666 
L 3169 4666 
L 3169 4134 
L 1269 4134 
L 1269 2991 
Q 1406 3038 1543 3061 
Q 1681 3084 1819 3084 
Q 2600 3084 3056 2656 
Q 3513 2228 3513 1497 
Q 3513 744 3044 326 
Q 2575 -91 1722 -91 
Q 1428 -91 1123 -41 
Q 819 9 494 109 
L 494 744 
Q 775 591 1075 516 
Q 1375 441 1709 441 
Q 2250 441 2565 725 
Q 2881 1009 2881 1497 
Q 2881 1984 2565 2268 
Q 2250 2553 1709 2553 
Q 1456 2553 1204 2497 
Q 953 2441 691 2322 
L 691 4666 
z
" transform="scale(0.015625)"/>
       <path id="DejaVuSans-33" d="M 2597 2516 
Q 3050 2419 3304 2112 
Q 3559 1806 3559 1356 
Q 3559 666 3084 287 
Q 2609 -91 1734 -91 
Q 1441 -91 1130 -33 
Q 819 25 488 141 
L 488 750 
Q 750 597 1062 519 
Q 1375 441 1716 441 
Q 2309 441 2620 675 
Q 2931 909 2931 1356 
Q 2931 1769 2642 2001 
Q 2353 2234 1838 2234 
L 1294 2234 
L 1294 2753 
L 1863 2753 
Q 2328 2753 2575 2939 
Q 2822 3125 2822 3475 
Q 2822 3834 2567 4026 
Q 2313 4219 1838 4219 
Q 1578 4219 1281 4162 
Q 984 4106 628 3988 
L 628 4550 
Q 988 4650 1302 4700 
Q 1616 4750 1894 4750 
Q 2613 4750 3031 4423 
Q 3450 4097 3450 3541 
Q 3450 3153 3228 2886 
Q 3006 2619 2597 2516 
z
" transform="scale(0.015625)"/>
       <path id="DejaVuSans-5d" d="M 1947 4863 
L 1947 -844 
L 622 -844 
L 622 -397 
L 1369 -397 
L 1369 4416 
L 622 4416 
L 622 4863 
L 1947 4863 
z
" transform="scale(0.015625)"/>
       <path id="DejaVuSans-Oblique-3bd" d="M 959 0 
L 572 3500 
L 1191 3500 
L 1522 563 
Q 1972 950 2391 1488 
Q 2706 1891 2788 2241 
Q 2825 2406 2809 2719 
Q 2794 3091 2544 3500 
L 3125 3500 
L 3125 3500 
Q 3288 3222 3353 2834 
Q 3416 2478 3369 2234 
Q 3250 1622 2719 1075 
Q 2025 363 1572 0 
L 959 0 
z
" transform="scale(0.015625)"/>
       <path id="DejaVuSans-39" d="M 703 97 
L 703 672 
Q 941 559 1184 500 
Q 1428 441 1663 441 
Q 2288 441 2617 861 
Q 2947 1281 2994 2138 
Q 2813 1869 2534 1725 
Q 2256 1581 1919 1581 
Q 1219 1581 811 2004 
Q 403 2428 403 3163 
Q 403 3881 828 4315 
Q 1253 4750 1959 4750 
Q 2769 4750 3195 4129 
Q 3622 3509 3622 2328 
Q 3622 1225 3098 567 
Q 2575 -91 1691 -91 
Q 1453 -91 1209 -44 
Q 966 3 703 97 
z
M 1959 2075 
Q 2384 2075 2632 2365 
Q 2881 2656 2881 3163 
Q 2881 3666 2632 3958 
Q 2384 4250 1959 4250 
Q 1534 4250 1286 3958 
Q 1038 3666 1038 3163 
Q 1038 2656 1286 2365 
Q 1534 2075 1959 2075 
z
" transform="scale(0.015625)"/>
       <path id="DejaVuSans-Oblique-3bb" d="M 2350 4316 
L 3125 0 
L 2516 0 
L 2038 2588 
L 328 0 
L -281 0 
L 1903 3356 
L 1794 3975 
Q 1725 4369 1391 4369 
L 1091 4369 
L 1184 4863 
L 1550 4856 
Q 2253 4847 2350 4316 
z
" transform="scale(0.015625)"/>
       <path id="DejaVuSans-2d" d="M 313 2009 
L 1997 2009 
L 1997 1497 
L 313 1497 
L 313 2009 
z
" transform="scale(0.015625)"/>
      </defs>
      <use xlink:href="#DejaVuSans-52" transform="translate(0 0.015625)"/>
      <use xlink:href="#DejaVuSans-69" transform="translate(69.482422 0.015625)"/>
      <use xlink:href="#DejaVuSans-64" transform="translate(97.265625 0.015625)"/>
      <use xlink:href="#DejaVuSans-67" transform="translate(160.742188 0.015625)"/>
      <use xlink:href="#DejaVuSans-65" transform="translate(224.21875 0.015625)"/>
      <use xlink:href="#DejaVuSans-2c" transform="translate(285.742188 0.015625)"/>
      <use xlink:href="#DejaVuSans-20" transform="translate(317.529297 0.015625)"/>
      <use xlink:href="#DejaVuSans-50" transform="translate(349.316406 0.015625)"/>
      <use xlink:href="#DejaVuSans-6c" transform="translate(409.619141 0.015625)"/>
      <use xlink:href="#DejaVuSans-61" transform="translate(437.402344 0.015625)"/>
      <use xlink:href="#DejaVuSans-69" transform="translate(498.681641 0.015625)"/>
      <use xlink:href="#DejaVuSans-6e" transform="translate(526.464844 0.015625)"/>
      <use xlink:href="#DejaVuSans-2c" transform="translate(589.84375 0.015625)"/>
      <use xlink:href="#DejaVuSans-20" transform="translate(621.630859 0.015625)"/>
      <use xlink:href="#DejaVuSans-4d" transform="translate(653.417969 0.015625)"/>
      <use xlink:href="#DejaVuSans-6f" transform="translate(739.697266 0.015625)"/>
      <use xlink:href="#DejaVuSans-6d" transform="translate(800.878906 0.015625)"/>
      <use xlink:href="#DejaVuSans-65" transform="translate(898.291016 0.015625)"/>
      <use xlink:href="#DejaVuSans-6e" transform="translate(959.814453 0.015625)"/>
      <use xlink:href="#DejaVuSans-74" transform="translate(1023.193359 0.015625)"/>
      <use xlink:href="#DejaVuSans-75" transform="translate(1062.402344 0.015625)"/>
      <use xlink:href="#DejaVuSans-6d" transform="translate(1125.78125 0.015625)"/>
      <use xlink:href="#DejaVuSans-20" transform="translate(1223.193359 0.015625)"/>
      <use xlink:href="#DejaVuSans-5b" transform="translate(1254.980469 0.015625)"/>
      <use xlink:href="#DejaVuSans-4d" transform="translate(1293.994141 0.015625)"/>
      <use xlink:href="#DejaVuSans-53" transform="translate(1380.273438 0.015625)"/>
      <use xlink:href="#DejaVuSans-45" transform="translate(1443.75 0.015625)"/>
      <use xlink:href="#DejaVuSans-3d" transform="translate(1506.933594 0.015625)"/>
      <use xlink:href="#DejaVuSans-30" transform="translate(1590.722656 0.015625)"/>
      <use xlink:href="#DejaVuSans-2e" transform="translate(1654.345703 0.015625)"/>
      <use xlink:href="#DejaVuSans-30" transform="translate(1686.132812 0.015625)"/>
      <use xlink:href="#DejaVuSans-30" transform="translate(1749.755859 0.015625)"/>
      <use xlink:href="#DejaVuSans-35" transform="translate(1813.378906 0.015625)"/>
      <use xlink:href="#DejaVuSans-32" transform="translate(1877.001953 0.015625)"/>
      <use xlink:href="#DejaVuSans-33" transform="translate(1940.625 0.015625)"/>
      <use xlink:href="#DejaVuSans-5d" transform="translate(2004.248047 0.015625)"/>
      <use xlink:href="#DejaVuSans-20" transform="translate(2043.261719 0.015625)"/>
      <use xlink:href="#DejaVuSans-5b" transform="translate(2075.048828 0.015625)"/>
      <use xlink:href="#DejaVuSans-Oblique-3bd" transform="translate(2114.0625 0.015625)"/>
      <use xlink:href="#DejaVuSans-3d" transform="translate(2169.921875 0.015625)"/>
      <use xlink:href="#DejaVuSans-30" transform="translate(2253.710938 0.015625)"/>
      <use xlink:href="#DejaVuSans-2e" transform="translate(2317.333984 0.015625)"/>
      <use xlink:href="#DejaVuSans-39" transform="translate(2349.121094 0.015625)"/>
      <use xlink:href="#DejaVuSans-33" transform="translate(2412.744141 0.015625)"/>
      <use xlink:href="#DejaVuSans-33" transform="translate(2476.367188 0.015625)"/>
      <use xlink:href="#DejaVuSans-5d" transform="translate(2539.990234 0.015625)"/>
      <use xlink:href="#DejaVuSans-20" transform="translate(2579.003906 0.015625)"/>
      <use xlink:href="#DejaVuSans-5b" transform="translate(2610.791016 0.015625)"/>
      <use xlink:href="#DejaVuSans-Oblique-3bb" transform="translate(2649.804688 0.015625)"/>
      <use xlink:href="#DejaVuSans-3d" transform="translate(2708.984375 0.015625)"/>
      <use xlink:href="#DejaVuSans-31" transform="translate(2792.773438 0.015625)"/>
      <use xlink:href="#DejaVuSans-2e" transform="translate(2856.396484 0.015625)"/>
      <use xlink:href="#DejaVuSans-34" transform="translate(2888.183594 0.015625)"/>
      <use xlink:href="#DejaVuSans-36" transform="translate(2951.806641 0.015625)"/>
      <use xlink:href="#DejaVuSans-65" transform="translate(3015.429688 0.015625)"/>
      <use xlink:href="#DejaVuSans-2d" transform="translate(3076.953125 0.015625)"/>
      <use xlink:href="#DejaVuSans-30" transform="translate(3113.037109 0.015625)"/>
      <use xlink:href="#DejaVuSans-38" transform="translate(3176.660156 0.015625)"/>
      <use xlink:href="#DejaVuSans-5d" transform="translate(3240.283203 0.015625)"/>
     </g>
    </g>
    <g id="line2d_19">
     <path d="M -1 53.278125 
L 2.8 53.278125 
L 12.8 53.278125 
" style="fill: none; stroke: #2ca02c; stroke-width: 1.5; stroke-linecap: square"/>
    </g>
    <g id="text_14">
     <!-- Ridge, Adagrad, Momentum + Stochastic [MSE=0.00488] [$\nu$=0.705] [$\lambda$=8.69e-06] -->
     <g transform="translate(20.8 56.778125)scale(0.1 -0.1)">
      <defs>
       <path id="DejaVuSans-41" d="M 2188 4044 
L 1331 1722 
L 3047 1722 
L 2188 4044 
z
M 1831 4666 
L 2547 4666 
L 4325 0 
L 3669 0 
L 3244 1197 
L 1141 1197 
L 716 0 
L 50 0 
L 1831 4666 
z
" transform="scale(0.015625)"/>
       <path id="DejaVuSans-72" d="M 2631 2963 
Q 2534 3019 2420 3045 
Q 2306 3072 2169 3072 
Q 1681 3072 1420 2755 
Q 1159 2438 1159 1844 
L 1159 0 
L 581 0 
L 581 3500 
L 1159 3500 
L 1159 2956 
Q 1341 3275 1631 3429 
Q 1922 3584 2338 3584 
Q 2397 3584 2469 3576 
Q 2541 3569 2628 3553 
L 2631 2963 
z
" transform="scale(0.015625)"/>
       <path id="DejaVuSans-2b" d="M 2944 4013 
L 2944 2272 
L 4684 2272 
L 4684 1741 
L 2944 1741 
L 2944 0 
L 2419 0 
L 2419 1741 
L 678 1741 
L 678 2272 
L 2419 2272 
L 2419 4013 
L 2944 4013 
z
" transform="scale(0.015625)"/>
       <path id="DejaVuSans-63" d="M 3122 3366 
L 3122 2828 
Q 2878 2963 2633 3030 
Q 2388 3097 2138 3097 
Q 1578 3097 1268 2742 
Q 959 2388 959 1747 
Q 959 1106 1268 751 
Q 1578 397 2138 397 
Q 2388 397 2633 464 
Q 2878 531 3122 666 
L 3122 134 
Q 2881 22 2623 -34 
Q 2366 -91 2075 -91 
Q 1284 -91 818 406 
Q 353 903 353 1747 
Q 353 2603 823 3093 
Q 1294 3584 2113 3584 
Q 2378 3584 2631 3529 
Q 2884 3475 3122 3366 
z
" transform="scale(0.015625)"/>
       <path id="DejaVuSans-68" d="M 3513 2113 
L 3513 0 
L 2938 0 
L 2938 2094 
Q 2938 2591 2744 2837 
Q 2550 3084 2163 3084 
Q 1697 3084 1428 2787 
Q 1159 2491 1159 1978 
L 1159 0 
L 581 0 
L 581 4863 
L 1159 4863 
L 1159 2956 
Q 1366 3272 1645 3428 
Q 1925 3584 2291 3584 
Q 2894 3584 3203 3211 
Q 3513 2838 3513 2113 
z
" transform="scale(0.015625)"/>
       <path id="DejaVuSans-73" d="M 2834 3397 
L 2834 2853 
Q 2591 2978 2328 3040 
Q 2066 3103 1784 3103 
Q 1356 3103 1142 2972 
Q 928 2841 928 2578 
Q 928 2378 1081 2264 
Q 1234 2150 1697 2047 
L 1894 2003 
Q 2506 1872 2764 1633 
Q 3022 1394 3022 966 
Q 3022 478 2636 193 
Q 2250 -91 1575 -91 
Q 1294 -91 989 -36 
Q 684 19 347 128 
L 347 722 
Q 666 556 975 473 
Q 1284 391 1588 391 
Q 1994 391 2212 530 
Q 2431 669 2431 922 
Q 2431 1156 2273 1281 
Q 2116 1406 1581 1522 
L 1381 1569 
Q 847 1681 609 1914 
Q 372 2147 372 2553 
Q 372 3047 722 3315 
Q 1072 3584 1716 3584 
Q 2034 3584 2315 3537 
Q 2597 3491 2834 3397 
z
" transform="scale(0.015625)"/>
       <path id="DejaVuSans-37" d="M 525 4666 
L 3525 4666 
L 3525 4397 
L 1831 0 
L 1172 0 
L 2766 4134 
L 525 4134 
L 525 4666 
z
" transform="scale(0.015625)"/>
      </defs>
      <use xlink:href="#DejaVuSans-52" transform="translate(0 0.015625)"/>
      <use xlink:href="#DejaVuSans-69" transform="translate(69.482422 0.015625)"/>
      <use xlink:href="#DejaVuSans-64" transform="translate(97.265625 0.015625)"/>
      <use xlink:href="#DejaVuSans-67" transform="translate(160.742188 0.015625)"/>
      <use xlink:href="#DejaVuSans-65" transform="translate(224.21875 0.015625)"/>
      <use xlink:href="#DejaVuSans-2c" transform="translate(285.742188 0.015625)"/>
      <use xlink:href="#DejaVuSans-20" transform="translate(317.529297 0.015625)"/>
      <use xlink:href="#DejaVuSans-41" transform="translate(349.316406 0.015625)"/>
      <use xlink:href="#DejaVuSans-64" transform="translate(417.724609 0.015625)"/>
      <use xlink:href="#DejaVuSans-61" transform="translate(481.201172 0.015625)"/>
      <use xlink:href="#DejaVuSans-67" transform="translate(542.480469 0.015625)"/>
      <use xlink:href="#DejaVuSans-72" transform="translate(605.957031 0.015625)"/>
      <use xlink:href="#DejaVuSans-61" transform="translate(647.070312 0.015625)"/>
      <use xlink:href="#DejaVuSans-64" transform="translate(708.349609 0.015625)"/>
      <use xlink:href="#DejaVuSans-2c" transform="translate(771.826172 0.015625)"/>
      <use xlink:href="#DejaVuSans-20" transform="translate(803.613281 0.015625)"/>
      <use xlink:href="#DejaVuSans-4d" transform="translate(835.400391 0.015625)"/>
      <use xlink:href="#DejaVuSans-6f" transform="translate(921.679688 0.015625)"/>
      <use xlink:href="#DejaVuSans-6d" transform="translate(982.861328 0.015625)"/>
      <use xlink:href="#DejaVuSans-65" transform="translate(1080.273438 0.015625)"/>
      <use xlink:href="#DejaVuSans-6e" transform="translate(1141.796875 0.015625)"/>
      <use xlink:href="#DejaVuSans-74" transform="translate(1205.175781 0.015625)"/>
      <use xlink:href="#DejaVuSans-75" transform="translate(1244.384766 0.015625)"/>
      <use xlink:href="#DejaVuSans-6d" transform="translate(1307.763672 0.015625)"/>
      <use xlink:href="#DejaVuSans-20" transform="translate(1405.175781 0.015625)"/>
      <use xlink:href="#DejaVuSans-2b" transform="translate(1436.962891 0.015625)"/>
      <use xlink:href="#DejaVuSans-20" transform="translate(1520.751953 0.015625)"/>
      <use xlink:href="#DejaVuSans-53" transform="translate(1552.539062 0.015625)"/>
      <use xlink:href="#DejaVuSans-74" transform="translate(1616.015625 0.015625)"/>
      <use xlink:href="#DejaVuSans-6f" transform="translate(1655.224609 0.015625)"/>
      <use xlink:href="#DejaVuSans-63" transform="translate(1716.40625 0.015625)"/>
      <use xlink:href="#DejaVuSans-68" transform="translate(1771.386719 0.015625)"/>
      <use xlink:href="#DejaVuSans-61" transform="translate(1834.765625 0.015625)"/>
      <use xlink:href="#DejaVuSans-73" transform="translate(1896.044922 0.015625)"/>
      <use xlink:href="#DejaVuSans-74" transform="translate(1948.144531 0.015625)"/>
      <use xlink:href="#DejaVuSans-69" transform="translate(1987.353516 0.015625)"/>
      <use xlink:href="#DejaVuSans-63" transform="translate(2015.136719 0.015625)"/>
      <use xlink:href="#DejaVuSans-20" transform="translate(2070.117188 0.015625)"/>
      <use xlink:href="#DejaVuSans-5b" transform="translate(2101.904297 0.015625)"/>
      <use xlink:href="#DejaVuSans-4d" transform="translate(2140.917969 0.015625)"/>
      <use xlink:href="#DejaVuSans-53" transform="translate(2227.197266 0.015625)"/>
      <use xlink:href="#DejaVuSans-45" transform="translate(2290.673828 0.015625)"/>
      <use xlink:href="#DejaVuSans-3d" transform="translate(2353.857422 0.015625)"/>
      <use xlink:href="#DejaVuSans-30" transform="translate(2437.646484 0.015625)"/>
      <use xlink:href="#DejaVuSans-2e" transform="translate(2501.269531 0.015625)"/>
      <use xlink:href="#DejaVuSans-30" transform="translate(2533.056641 0.015625)"/>
      <use xlink:href="#DejaVuSans-30" transform="translate(2596.679688 0.015625)"/>
      <use xlink:href="#DejaVuSans-34" transform="translate(2660.302734 0.015625)"/>
      <use xlink:href="#DejaVuSans-38" transform="translate(2723.925781 0.015625)"/>
      <use xlink:href="#DejaVuSans-38" transform="translate(2787.548828 0.015625)"/>
      <use xlink:href="#DejaVuSans-5d" transform="translate(2851.171875 0.015625)"/>
      <use xlink:href="#DejaVuSans-20" transform="translate(2890.185547 0.015625)"/>
      <use xlink:href="#DejaVuSans-5b" transform="translate(2921.972656 0.015625)"/>
      <use xlink:href="#DejaVuSans-Oblique-3bd" transform="translate(2960.986328 0.015625)"/>
      <use xlink:href="#DejaVuSans-3d" transform="translate(3016.845703 0.015625)"/>
      <use xlink:href="#DejaVuSans-30" transform="translate(3100.634766 0.015625)"/>
      <use xlink:href="#DejaVuSans-2e" transform="translate(3164.257812 0.015625)"/>
      <use xlink:href="#DejaVuSans-37" transform="translate(3188.294922 0.015625)"/>
      <use xlink:href="#DejaVuSans-30" transform="translate(3251.917969 0.015625)"/>
      <use xlink:href="#DejaVuSans-35" transform="translate(3315.541016 0.015625)"/>
      <use xlink:href="#DejaVuSans-5d" transform="translate(3379.164062 0.015625)"/>
      <use xlink:href="#DejaVuSans-20" transform="translate(3418.177734 0.015625)"/>
      <use xlink:href="#DejaVuSans-5b" transform="translate(3449.964844 0.015625)"/>
      <use xlink:href="#DejaVuSans-Oblique-3bb" transform="translate(3488.978516 0.015625)"/>
      <use xlink:href="#DejaVuSans-3d" transform="translate(3548.158203 0.015625)"/>
      <use xlink:href="#DejaVuSans-38" transform="translate(3631.947266 0.015625)"/>
      <use xlink:href="#DejaVuSans-2e" transform="translate(3695.570312 0.015625)"/>
      <use xlink:href="#DejaVuSans-36" transform="translate(3727.357422 0.015625)"/>
      <use xlink:href="#DejaVuSans-39" transform="translate(3790.980469 0.015625)"/>
      <use xlink:href="#DejaVuSans-65" transform="translate(3854.603516 0.015625)"/>
      <use xlink:href="#DejaVuSans-2d" transform="translate(3916.126953 0.015625)"/>
      <use xlink:href="#DejaVuSans-30" transform="translate(3952.210938 0.015625)"/>
      <use xlink:href="#DejaVuSans-36" transform="translate(4015.833984 0.015625)"/>
      <use xlink:href="#DejaVuSans-5d" transform="translate(4079.457031 0.015625)"/>
     </g>
    </g>
    <g id="line2d_20">
     <path d="M -1 67.978125 
L 2.8 67.978125 
L 12.8 67.978125 
" style="fill: none; stroke: #d62728; stroke-width: 1.5; stroke-linecap: square"/>
    </g>
    <g id="text_15">
     <!-- Ridge, Rms_prop, Momentum + Stochastic [MSE=0.00365] [$\nu$=0.933] [$\lambda$=6.55e-08] -->
     <g transform="translate(20.8 71.478125)scale(0.1 -0.1)">
      <defs>
       <path id="DejaVuSans-5f" d="M 3263 -1063 
L 3263 -1509 
L -63 -1509 
L -63 -1063 
L 3263 -1063 
z
" transform="scale(0.015625)"/>
       <path id="DejaVuSans-70" d="M 1159 525 
L 1159 -1331 
L 581 -1331 
L 581 3500 
L 1159 3500 
L 1159 2969 
Q 1341 3281 1617 3432 
Q 1894 3584 2278 3584 
Q 2916 3584 3314 3078 
Q 3713 2572 3713 1747 
Q 3713 922 3314 415 
Q 2916 -91 2278 -91 
Q 1894 -91 1617 61 
Q 1341 213 1159 525 
z
M 3116 1747 
Q 3116 2381 2855 2742 
Q 2594 3103 2138 3103 
Q 1681 3103 1420 2742 
Q 1159 2381 1159 1747 
Q 1159 1113 1420 752 
Q 1681 391 2138 391 
Q 2594 391 2855 752 
Q 3116 1113 3116 1747 
z
" transform="scale(0.015625)"/>
      </defs>
      <use xlink:href="#DejaVuSans-52" transform="translate(0 0.015625)"/>
      <use xlink:href="#DejaVuSans-69" transform="translate(69.482422 0.015625)"/>
      <use xlink:href="#DejaVuSans-64" transform="translate(97.265625 0.015625)"/>
      <use xlink:href="#DejaVuSans-67" transform="translate(160.742188 0.015625)"/>
      <use xlink:href="#DejaVuSans-65" transform="translate(224.21875 0.015625)"/>
      <use xlink:href="#DejaVuSans-2c" transform="translate(285.742188 0.015625)"/>
      <use xlink:href="#DejaVuSans-20" transform="translate(317.529297 0.015625)"/>
      <use xlink:href="#DejaVuSans-52" transform="translate(349.316406 0.015625)"/>
      <use xlink:href="#DejaVuSans-6d" transform="translate(418.798828 0.015625)"/>
      <use xlink:href="#DejaVuSans-73" transform="translate(516.210938 0.015625)"/>
      <use xlink:href="#DejaVuSans-5f" transform="translate(568.310547 0.015625)"/>
      <use xlink:href="#DejaVuSans-70" transform="translate(618.310547 0.015625)"/>
      <use xlink:href="#DejaVuSans-72" transform="translate(681.787109 0.015625)"/>
      <use xlink:href="#DejaVuSans-6f" transform="translate(722.900391 0.015625)"/>
      <use xlink:href="#DejaVuSans-70" transform="translate(784.082031 0.015625)"/>
      <use xlink:href="#DejaVuSans-2c" transform="translate(847.558594 0.015625)"/>
      <use xlink:href="#DejaVuSans-20" transform="translate(879.345703 0.015625)"/>
      <use xlink:href="#DejaVuSans-4d" transform="translate(911.132812 0.015625)"/>
      <use xlink:href="#DejaVuSans-6f" transform="translate(997.412109 0.015625)"/>
      <use xlink:href="#DejaVuSans-6d" transform="translate(1058.59375 0.015625)"/>
      <use xlink:href="#DejaVuSans-65" transform="translate(1156.005859 0.015625)"/>
      <use xlink:href="#DejaVuSans-6e" transform="translate(1217.529297 0.015625)"/>
      <use xlink:href="#DejaVuSans-74" transform="translate(1280.908203 0.015625)"/>
      <use xlink:href="#DejaVuSans-75" transform="translate(1320.117188 0.015625)"/>
      <use xlink:href="#DejaVuSans-6d" transform="translate(1383.496094 0.015625)"/>
      <use xlink:href="#DejaVuSans-20" transform="translate(1480.908203 0.015625)"/>
      <use xlink:href="#DejaVuSans-2b" transform="translate(1512.695312 0.015625)"/>
      <use xlink:href="#DejaVuSans-20" transform="translate(1596.484375 0.015625)"/>
      <use xlink:href="#DejaVuSans-53" transform="translate(1628.271484 0.015625)"/>
      <use xlink:href="#DejaVuSans-74" transform="translate(1691.748047 0.015625)"/>
      <use xlink:href="#DejaVuSans-6f" transform="translate(1730.957031 0.015625)"/>
      <use xlink:href="#DejaVuSans-63" transform="translate(1792.138672 0.015625)"/>
      <use xlink:href="#DejaVuSans-68" transform="translate(1847.119141 0.015625)"/>
      <use xlink:href="#DejaVuSans-61" transform="translate(1910.498047 0.015625)"/>
      <use xlink:href="#DejaVuSans-73" transform="translate(1971.777344 0.015625)"/>
      <use xlink:href="#DejaVuSans-74" transform="translate(2023.876953 0.015625)"/>
      <use xlink:href="#DejaVuSans-69" transform="translate(2063.085938 0.015625)"/>
      <use xlink:href="#DejaVuSans-63" transform="translate(2090.869141 0.015625)"/>
      <use xlink:href="#DejaVuSans-20" transform="translate(2145.849609 0.015625)"/>
      <use xlink:href="#DejaVuSans-5b" transform="translate(2177.636719 0.015625)"/>
      <use xlink:href="#DejaVuSans-4d" transform="translate(2216.650391 0.015625)"/>
      <use xlink:href="#DejaVuSans-53" transform="translate(2302.929688 0.015625)"/>
      <use xlink:href="#DejaVuSans-45" transform="translate(2366.40625 0.015625)"/>
      <use xlink:href="#DejaVuSans-3d" transform="translate(2429.589844 0.015625)"/>
      <use xlink:href="#DejaVuSans-30" transform="translate(2513.378906 0.015625)"/>
      <use xlink:href="#DejaVuSans-2e" transform="translate(2577.001953 0.015625)"/>
      <use xlink:href="#DejaVuSans-30" transform="translate(2608.789062 0.015625)"/>
      <use xlink:href="#DejaVuSans-30" transform="translate(2672.412109 0.015625)"/>
      <use xlink:href="#DejaVuSans-33" transform="translate(2736.035156 0.015625)"/>
      <use xlink:href="#DejaVuSans-36" transform="translate(2799.658203 0.015625)"/>
      <use xlink:href="#DejaVuSans-35" transform="translate(2863.28125 0.015625)"/>
      <use xlink:href="#DejaVuSans-5d" transform="translate(2926.904297 0.015625)"/>
      <use xlink:href="#DejaVuSans-20" transform="translate(2965.917969 0.015625)"/>
      <use xlink:href="#DejaVuSans-5b" transform="translate(2997.705078 0.015625)"/>
      <use xlink:href="#DejaVuSans-Oblique-3bd" transform="translate(3036.71875 0.015625)"/>
      <use xlink:href="#DejaVuSans-3d" transform="translate(3092.578125 0.015625)"/>
      <use xlink:href="#DejaVuSans-30" transform="translate(3176.367188 0.015625)"/>
      <use xlink:href="#DejaVuSans-2e" transform="translate(3239.990234 0.015625)"/>
      <use xlink:href="#DejaVuSans-39" transform="translate(3271.777344 0.015625)"/>
      <use xlink:href="#DejaVuSans-33" transform="translate(3335.400391 0.015625)"/>
      <use xlink:href="#DejaVuSans-33" transform="translate(3399.023438 0.015625)"/>
      <use xlink:href="#DejaVuSans-5d" transform="translate(3462.646484 0.015625)"/>
      <use xlink:href="#DejaVuSans-20" transform="translate(3501.660156 0.015625)"/>
      <use xlink:href="#DejaVuSans-5b" transform="translate(3533.447266 0.015625)"/>
      <use xlink:href="#DejaVuSans-Oblique-3bb" transform="translate(3572.460938 0.015625)"/>
      <use xlink:href="#DejaVuSans-3d" transform="translate(3631.640625 0.015625)"/>
      <use xlink:href="#DejaVuSans-36" transform="translate(3715.429688 0.015625)"/>
      <use xlink:href="#DejaVuSans-2e" transform="translate(3779.052734 0.015625)"/>
      <use xlink:href="#DejaVuSans-35" transform="translate(3810.839844 0.015625)"/>
      <use xlink:href="#DejaVuSans-35" transform="translate(3874.462891 0.015625)"/>
      <use xlink:href="#DejaVuSans-65" transform="translate(3938.085938 0.015625)"/>
      <use xlink:href="#DejaVuSans-2d" transform="translate(3999.609375 0.015625)"/>
      <use xlink:href="#DejaVuSans-30" transform="translate(4035.693359 0.015625)"/>
      <use xlink:href="#DejaVuSans-38" transform="translate(4099.316406 0.015625)"/>
      <use xlink:href="#DejaVuSans-5d" transform="translate(4162.939453 0.015625)"/>
     </g>
    </g>
    <g id="line2d_21">
     <path d="M -1 82.978125 
L 2.8 82.978125 
L 12.8 82.978125 
" style="fill: none; stroke: #9467bd; stroke-width: 1.5; stroke-linecap: square"/>
    </g>
    <g id="text_16">
     <!-- Ridge, Adam, Momentum + Stochastic [MSE=0.0123] [$\nu$=0.933] [$\lambda$=1.46e-08] -->
     <g transform="translate(20.8 86.478125)scale(0.1 -0.1)">
      <use xlink:href="#DejaVuSans-52" transform="translate(0 0.015625)"/>
      <use xlink:href="#DejaVuSans-69" transform="translate(69.482422 0.015625)"/>
      <use xlink:href="#DejaVuSans-64" transform="translate(97.265625 0.015625)"/>
      <use xlink:href="#DejaVuSans-67" transform="translate(160.742188 0.015625)"/>
      <use xlink:href="#DejaVuSans-65" transform="translate(224.21875 0.015625)"/>
      <use xlink:href="#DejaVuSans-2c" transform="translate(285.742188 0.015625)"/>
      <use xlink:href="#DejaVuSans-20" transform="translate(317.529297 0.015625)"/>
      <use xlink:href="#DejaVuSans-41" transform="translate(349.316406 0.015625)"/>
      <use xlink:href="#DejaVuSans-64" transform="translate(417.724609 0.015625)"/>
      <use xlink:href="#DejaVuSans-61" transform="translate(481.201172 0.015625)"/>
      <use xlink:href="#DejaVuSans-6d" transform="translate(542.480469 0.015625)"/>
      <use xlink:href="#DejaVuSans-2c" transform="translate(639.892578 0.015625)"/>
      <use xlink:href="#DejaVuSans-20" transform="translate(671.679688 0.015625)"/>
      <use xlink:href="#DejaVuSans-4d" transform="translate(703.466797 0.015625)"/>
      <use xlink:href="#DejaVuSans-6f" transform="translate(789.746094 0.015625)"/>
      <use xlink:href="#DejaVuSans-6d" transform="translate(850.927734 0.015625)"/>
      <use xlink:href="#DejaVuSans-65" transform="translate(948.339844 0.015625)"/>
      <use xlink:href="#DejaVuSans-6e" transform="translate(1009.863281 0.015625)"/>
      <use xlink:href="#DejaVuSans-74" transform="translate(1073.242188 0.015625)"/>
      <use xlink:href="#DejaVuSans-75" transform="translate(1112.451172 0.015625)"/>
      <use xlink:href="#DejaVuSans-6d" transform="translate(1175.830078 0.015625)"/>
      <use xlink:href="#DejaVuSans-20" transform="translate(1273.242188 0.015625)"/>
      <use xlink:href="#DejaVuSans-2b" transform="translate(1305.029297 0.015625)"/>
      <use xlink:href="#DejaVuSans-20" transform="translate(1388.818359 0.015625)"/>
      <use xlink:href="#DejaVuSans-53" transform="translate(1420.605469 0.015625)"/>
      <use xlink:href="#DejaVuSans-74" transform="translate(1484.082031 0.015625)"/>
      <use xlink:href="#DejaVuSans-6f" transform="translate(1523.291016 0.015625)"/>
      <use xlink:href="#DejaVuSans-63" transform="translate(1584.472656 0.015625)"/>
      <use xlink:href="#DejaVuSans-68" transform="translate(1639.453125 0.015625)"/>
      <use xlink:href="#DejaVuSans-61" transform="translate(1702.832031 0.015625)"/>
      <use xlink:href="#DejaVuSans-73" transform="translate(1764.111328 0.015625)"/>
      <use xlink:href="#DejaVuSans-74" transform="translate(1816.210938 0.015625)"/>
      <use xlink:href="#DejaVuSans-69" transform="translate(1855.419922 0.015625)"/>
      <use xlink:href="#DejaVuSans-63" transform="translate(1883.203125 0.015625)"/>
      <use xlink:href="#DejaVuSans-20" transform="translate(1938.183594 0.015625)"/>
      <use xlink:href="#DejaVuSans-5b" transform="translate(1969.970703 0.015625)"/>
      <use xlink:href="#DejaVuSans-4d" transform="translate(2008.984375 0.015625)"/>
      <use xlink:href="#DejaVuSans-53" transform="translate(2095.263672 0.015625)"/>
      <use xlink:href="#DejaVuSans-45" transform="translate(2158.740234 0.015625)"/>
      <use xlink:href="#DejaVuSans-3d" transform="translate(2221.923828 0.015625)"/>
      <use xlink:href="#DejaVuSans-30" transform="translate(2305.712891 0.015625)"/>
      <use xlink:href="#DejaVuSans-2e" transform="translate(2369.335938 0.015625)"/>
      <use xlink:href="#DejaVuSans-30" transform="translate(2401.123047 0.015625)"/>
      <use xlink:href="#DejaVuSans-31" transform="translate(2464.746094 0.015625)"/>
      <use xlink:href="#DejaVuSans-32" transform="translate(2528.369141 0.015625)"/>
      <use xlink:href="#DejaVuSans-33" transform="translate(2591.992188 0.015625)"/>
      <use xlink:href="#DejaVuSans-5d" transform="translate(2655.615234 0.015625)"/>
      <use xlink:href="#DejaVuSans-20" transform="translate(2694.628906 0.015625)"/>
      <use xlink:href="#DejaVuSans-5b" transform="translate(2726.416016 0.015625)"/>
      <use xlink:href="#DejaVuSans-Oblique-3bd" transform="translate(2765.429688 0.015625)"/>
      <use xlink:href="#DejaVuSans-3d" transform="translate(2821.289062 0.015625)"/>
      <use xlink:href="#DejaVuSans-30" transform="translate(2905.078125 0.015625)"/>
      <use xlink:href="#DejaVuSans-2e" transform="translate(2968.701172 0.015625)"/>
      <use xlink:href="#DejaVuSans-39" transform="translate(3000.488281 0.015625)"/>
      <use xlink:href="#DejaVuSans-33" transform="translate(3064.111328 0.015625)"/>
      <use xlink:href="#DejaVuSans-33" transform="translate(3127.734375 0.015625)"/>
      <use xlink:href="#DejaVuSans-5d" transform="translate(3191.357422 0.015625)"/>
      <use xlink:href="#DejaVuSans-20" transform="translate(3230.371094 0.015625)"/>
      <use xlink:href="#DejaVuSans-5b" transform="translate(3262.158203 0.015625)"/>
      <use xlink:href="#DejaVuSans-Oblique-3bb" transform="translate(3301.171875 0.015625)"/>
      <use xlink:href="#DejaVuSans-3d" transform="translate(3360.351562 0.015625)"/>
      <use xlink:href="#DejaVuSans-31" transform="translate(3444.140625 0.015625)"/>
      <use xlink:href="#DejaVuSans-2e" transform="translate(3507.763672 0.015625)"/>
      <use xlink:href="#DejaVuSans-34" transform="translate(3539.550781 0.015625)"/>
      <use xlink:href="#DejaVuSans-36" transform="translate(3603.173828 0.015625)"/>
      <use xlink:href="#DejaVuSans-65" transform="translate(3666.796875 0.015625)"/>
      <use xlink:href="#DejaVuSans-2d" transform="translate(3728.320312 0.015625)"/>
      <use xlink:href="#DejaVuSans-30" transform="translate(3764.404297 0.015625)"/>
      <use xlink:href="#DejaVuSans-38" transform="translate(3828.027344 0.015625)"/>
      <use xlink:href="#DejaVuSans-5d" transform="translate(3891.650391 0.015625)"/>
     </g>
    </g>
   </g>
  </g>
 </g>
 <defs>
  <clipPath id="p0a9365e400">
   <rect x="114.88" y="10.8" width="335.12" height="307.321875"/>
  </clipPath>
 </defs>
</svg>
