<?xml version="1.0" encoding="utf-8" standalone="no"?>
<!DOCTYPE svg PUBLIC "-//W3C//DTD SVG 1.1//EN"
  "http://www.w3.org/Graphics/SVG/1.1/DTD/svg11.dtd">
<svg xmlns:xlink="http://www.w3.org/1999/xlink" width="460.8pt" height="345.6pt" viewBox="0 0 460.8 345.6" xmlns="http://www.w3.org/2000/svg" version="1.1">
 <metadata>
  <rdf:RDF xmlns:dc="http://purl.org/dc/elements/1.1/" xmlns:cc="http://creativecommons.org/ns#" xmlns:rdf="http://www.w3.org/1999/02/22-rdf-syntax-ns#">
   <cc:Work>
    <dc:type rdf:resource="http://purl.org/dc/dcmitype/StillImage"/>
    <dc:date>2022-11-11T17:04:13.651956</dc:date>
    <dc:format>image/svg+xml</dc:format>
    <dc:creator>
     <cc:Agent>
      <dc:title>Matplotlib v3.5.3, https://matplotlib.org/</dc:title>
     </cc:Agent>
    </dc:creator>
   </cc:Work>
  </rdf:RDF>
 </metadata>
 <defs>
  <style type="text/css">*{stroke-linejoin: round; stroke-linecap: butt}</style>
 </defs>
 <g id="figure_1">
  <g id="patch_1">
   <path d="M 0 345.6 
L 460.8 345.6 
L 460.8 0 
L 0 0 
z
" style="fill: #ffffff"/>
  </g>
  <g id="axes_1">
   <g id="patch_2">
    <path d="M 42.082813 318.121875 
L 450 318.121875 
L 450 10.8 
L 42.082813 10.8 
z
" style="fill: #ffffff"/>
   </g>
   <g id="matplotlib.axis_1">
    <g id="xtick_1">
     <g id="line2d_1">
      <defs>
       <path id="m5a2c56c37a" d="M 0 0 
L 0 3.5 
" style="stroke: #000000; stroke-width: 0.8"/>
      </defs>
      <g>
       <use xlink:href="#m5a2c56c37a" x="60.624503" y="318.121875" style="stroke: #000000; stroke-width: 0.8"/>
      </g>
     </g>
     <g id="text_1">
      <!-- 0.0 -->
      <g transform="translate(52.67294 332.720312)scale(0.1 -0.1)">
       <defs>
        <path id="DejaVuSans-30" d="M 2034 4250 
Q 1547 4250 1301 3770 
Q 1056 3291 1056 2328 
Q 1056 1369 1301 889 
Q 1547 409 2034 409 
Q 2525 409 2770 889 
Q 3016 1369 3016 2328 
Q 3016 3291 2770 3770 
Q 2525 4250 2034 4250 
z
M 2034 4750 
Q 2819 4750 3233 4129 
Q 3647 3509 3647 2328 
Q 3647 1150 3233 529 
Q 2819 -91 2034 -91 
Q 1250 -91 836 529 
Q 422 1150 422 2328 
Q 422 3509 836 4129 
Q 1250 4750 2034 4750 
z
" transform="scale(0.015625)"/>
        <path id="DejaVuSans-2e" d="M 684 794 
L 1344 794 
L 1344 0 
L 684 0 
L 684 794 
z
" transform="scale(0.015625)"/>
       </defs>
       <use xlink:href="#DejaVuSans-30"/>
       <use xlink:href="#DejaVuSans-2e" x="63.623047"/>
       <use xlink:href="#DejaVuSans-30" x="95.410156"/>
      </g>
     </g>
    </g>
    <g id="xtick_2">
     <g id="line2d_2">
      <g>
       <use xlink:href="#m5a2c56c37a" x="134.791264" y="318.121875" style="stroke: #000000; stroke-width: 0.8"/>
      </g>
     </g>
     <g id="text_2">
      <!-- 0.2 -->
      <g transform="translate(126.839702 332.720312)scale(0.1 -0.1)">
       <defs>
        <path id="DejaVuSans-32" d="M 1228 531 
L 3431 531 
L 3431 0 
L 469 0 
L 469 531 
Q 828 903 1448 1529 
Q 2069 2156 2228 2338 
Q 2531 2678 2651 2914 
Q 2772 3150 2772 3378 
Q 2772 3750 2511 3984 
Q 2250 4219 1831 4219 
Q 1534 4219 1204 4116 
Q 875 4013 500 3803 
L 500 4441 
Q 881 4594 1212 4672 
Q 1544 4750 1819 4750 
Q 2544 4750 2975 4387 
Q 3406 4025 3406 3419 
Q 3406 3131 3298 2873 
Q 3191 2616 2906 2266 
Q 2828 2175 2409 1742 
Q 1991 1309 1228 531 
z
" transform="scale(0.015625)"/>
       </defs>
       <use xlink:href="#DejaVuSans-30"/>
       <use xlink:href="#DejaVuSans-2e" x="63.623047"/>
       <use xlink:href="#DejaVuSans-32" x="95.410156"/>
      </g>
     </g>
    </g>
    <g id="xtick_3">
     <g id="line2d_3">
      <g>
       <use xlink:href="#m5a2c56c37a" x="208.958026" y="318.121875" style="stroke: #000000; stroke-width: 0.8"/>
      </g>
     </g>
     <g id="text_3">
      <!-- 0.4 -->
      <g transform="translate(201.006463 332.720312)scale(0.1 -0.1)">
       <defs>
        <path id="DejaVuSans-34" d="M 2419 4116 
L 825 1625 
L 2419 1625 
L 2419 4116 
z
M 2253 4666 
L 3047 4666 
L 3047 1625 
L 3713 1625 
L 3713 1100 
L 3047 1100 
L 3047 0 
L 2419 0 
L 2419 1100 
L 313 1100 
L 313 1709 
L 2253 4666 
z
" transform="scale(0.015625)"/>
       </defs>
       <use xlink:href="#DejaVuSans-30"/>
       <use xlink:href="#DejaVuSans-2e" x="63.623047"/>
       <use xlink:href="#DejaVuSans-34" x="95.410156"/>
      </g>
     </g>
    </g>
    <g id="xtick_4">
     <g id="line2d_4">
      <g>
       <use xlink:href="#m5a2c56c37a" x="283.124787" y="318.121875" style="stroke: #000000; stroke-width: 0.8"/>
      </g>
     </g>
     <g id="text_4">
      <!-- 0.6 -->
      <g transform="translate(275.173224 332.720312)scale(0.1 -0.1)">
       <defs>
        <path id="DejaVuSans-36" d="M 2113 2584 
Q 1688 2584 1439 2293 
Q 1191 2003 1191 1497 
Q 1191 994 1439 701 
Q 1688 409 2113 409 
Q 2538 409 2786 701 
Q 3034 994 3034 1497 
Q 3034 2003 2786 2293 
Q 2538 2584 2113 2584 
z
M 3366 4563 
L 3366 3988 
Q 3128 4100 2886 4159 
Q 2644 4219 2406 4219 
Q 1781 4219 1451 3797 
Q 1122 3375 1075 2522 
Q 1259 2794 1537 2939 
Q 1816 3084 2150 3084 
Q 2853 3084 3261 2657 
Q 3669 2231 3669 1497 
Q 3669 778 3244 343 
Q 2819 -91 2113 -91 
Q 1303 -91 875 529 
Q 447 1150 447 2328 
Q 447 3434 972 4092 
Q 1497 4750 2381 4750 
Q 2619 4750 2861 4703 
Q 3103 4656 3366 4563 
z
" transform="scale(0.015625)"/>
       </defs>
       <use xlink:href="#DejaVuSans-30"/>
       <use xlink:href="#DejaVuSans-2e" x="63.623047"/>
       <use xlink:href="#DejaVuSans-36" x="95.410156"/>
      </g>
     </g>
    </g>
    <g id="xtick_5">
     <g id="line2d_5">
      <g>
       <use xlink:href="#m5a2c56c37a" x="357.291548" y="318.121875" style="stroke: #000000; stroke-width: 0.8"/>
      </g>
     </g>
     <g id="text_5">
      <!-- 0.8 -->
      <g transform="translate(349.339986 332.720312)scale(0.1 -0.1)">
       <defs>
        <path id="DejaVuSans-38" d="M 2034 2216 
Q 1584 2216 1326 1975 
Q 1069 1734 1069 1313 
Q 1069 891 1326 650 
Q 1584 409 2034 409 
Q 2484 409 2743 651 
Q 3003 894 3003 1313 
Q 3003 1734 2745 1975 
Q 2488 2216 2034 2216 
z
M 1403 2484 
Q 997 2584 770 2862 
Q 544 3141 544 3541 
Q 544 4100 942 4425 
Q 1341 4750 2034 4750 
Q 2731 4750 3128 4425 
Q 3525 4100 3525 3541 
Q 3525 3141 3298 2862 
Q 3072 2584 2669 2484 
Q 3125 2378 3379 2068 
Q 3634 1759 3634 1313 
Q 3634 634 3220 271 
Q 2806 -91 2034 -91 
Q 1263 -91 848 271 
Q 434 634 434 1313 
Q 434 1759 690 2068 
Q 947 2378 1403 2484 
z
M 1172 3481 
Q 1172 3119 1398 2916 
Q 1625 2713 2034 2713 
Q 2441 2713 2670 2916 
Q 2900 3119 2900 3481 
Q 2900 3844 2670 4047 
Q 2441 4250 2034 4250 
Q 1625 4250 1398 4047 
Q 1172 3844 1172 3481 
z
" transform="scale(0.015625)"/>
       </defs>
       <use xlink:href="#DejaVuSans-30"/>
       <use xlink:href="#DejaVuSans-2e" x="63.623047"/>
       <use xlink:href="#DejaVuSans-38" x="95.410156"/>
      </g>
     </g>
    </g>
    <g id="xtick_6">
     <g id="line2d_6">
      <g>
       <use xlink:href="#m5a2c56c37a" x="431.45831" y="318.121875" style="stroke: #000000; stroke-width: 0.8"/>
      </g>
     </g>
     <g id="text_6">
      <!-- 1.0 -->
      <g transform="translate(423.506747 332.720312)scale(0.1 -0.1)">
       <defs>
        <path id="DejaVuSans-31" d="M 794 531 
L 1825 531 
L 1825 4091 
L 703 3866 
L 703 4441 
L 1819 4666 
L 2450 4666 
L 2450 531 
L 3481 531 
L 3481 0 
L 794 0 
L 794 531 
z
" transform="scale(0.015625)"/>
       </defs>
       <use xlink:href="#DejaVuSans-31"/>
       <use xlink:href="#DejaVuSans-2e" x="63.623047"/>
       <use xlink:href="#DejaVuSans-30" x="95.410156"/>
      </g>
     </g>
    </g>
   </g>
   <g id="matplotlib.axis_2">
    <g id="ytick_1">
     <g id="line2d_7">
      <defs>
       <path id="m7de36bfb08" d="M 0 0 
L -3.5 0 
" style="stroke: #000000; stroke-width: 0.8"/>
      </defs>
      <g>
       <use xlink:href="#m7de36bfb08" x="42.082813" y="302.755781" style="stroke: #000000; stroke-width: 0.8"/>
      </g>
     </g>
     <g id="text_7">
      <!-- −0.2 -->
      <g transform="translate(10.8 306.555)scale(0.1 -0.1)">
       <defs>
        <path id="DejaVuSans-2212" d="M 678 2272 
L 4684 2272 
L 4684 1741 
L 678 1741 
L 678 2272 
z
" transform="scale(0.015625)"/>
       </defs>
       <use xlink:href="#DejaVuSans-2212"/>
       <use xlink:href="#DejaVuSans-30" x="83.789062"/>
       <use xlink:href="#DejaVuSans-2e" x="147.412109"/>
       <use xlink:href="#DejaVuSans-32" x="179.199219"/>
      </g>
     </g>
    </g>
    <g id="ytick_2">
     <g id="line2d_8">
      <g>
       <use xlink:href="#m7de36bfb08" x="42.082813" y="241.291406" style="stroke: #000000; stroke-width: 0.8"/>
      </g>
     </g>
     <g id="text_8">
      <!-- 0.0 -->
      <g transform="translate(19.179688 245.090625)scale(0.1 -0.1)">
       <use xlink:href="#DejaVuSans-30"/>
       <use xlink:href="#DejaVuSans-2e" x="63.623047"/>
       <use xlink:href="#DejaVuSans-30" x="95.410156"/>
      </g>
     </g>
    </g>
    <g id="ytick_3">
     <g id="line2d_9">
      <g>
       <use xlink:href="#m7de36bfb08" x="42.082813" y="179.827031" style="stroke: #000000; stroke-width: 0.8"/>
      </g>
     </g>
     <g id="text_9">
      <!-- 0.2 -->
      <g transform="translate(19.179688 183.62625)scale(0.1 -0.1)">
       <use xlink:href="#DejaVuSans-30"/>
       <use xlink:href="#DejaVuSans-2e" x="63.623047"/>
       <use xlink:href="#DejaVuSans-32" x="95.410156"/>
      </g>
     </g>
    </g>
    <g id="ytick_4">
     <g id="line2d_10">
      <g>
       <use xlink:href="#m7de36bfb08" x="42.082813" y="118.362656" style="stroke: #000000; stroke-width: 0.8"/>
      </g>
     </g>
     <g id="text_10">
      <!-- 0.4 -->
      <g transform="translate(19.179688 122.161875)scale(0.1 -0.1)">
       <use xlink:href="#DejaVuSans-30"/>
       <use xlink:href="#DejaVuSans-2e" x="63.623047"/>
       <use xlink:href="#DejaVuSans-34" x="95.410156"/>
      </g>
     </g>
    </g>
    <g id="ytick_5">
     <g id="line2d_11">
      <g>
       <use xlink:href="#m7de36bfb08" x="42.082813" y="56.898281" style="stroke: #000000; stroke-width: 0.8"/>
      </g>
     </g>
     <g id="text_11">
      <!-- 0.6 -->
      <g transform="translate(19.179688 60.6975)scale(0.1 -0.1)">
       <use xlink:href="#DejaVuSans-30"/>
       <use xlink:href="#DejaVuSans-2e" x="63.623047"/>
       <use xlink:href="#DejaVuSans-36" x="95.410156"/>
      </g>
     </g>
    </g>
   </g>
   <g id="line2d_12">
    <path d="M 60.624503 241.290678 
L 127.441405 241.395031 
L 135.97912 241.650725 
L 142.289605 242.054998 
L 147.115271 242.569349 
L 151.569731 243.269092 
L 155.281781 244.065976 
L 158.622626 244.986134 
L 161.963471 246.130939 
L 165.304316 247.530422 
L 168.273956 249.009828 
L 171.243596 250.726283 
L 174.213236 252.68908 
L 177.182877 254.900376 
L 180.523722 257.676463 
L 184.235772 261.088488 
L 188.319027 265.167092 
L 194.629512 271.843543 
L 200.197587 277.640143 
L 203.538432 280.828698 
L 206.508072 283.346491 
L 208.735303 284.978648 
L 210.962533 286.347083 
L 212.818558 287.258757 
L 214.674583 287.940827 
L 216.530608 288.374769 
L 218.386633 288.544141 
L 219.871453 288.479607 
L 221.356273 288.230689 
L 222.841093 287.792525 
L 224.325913 287.16145 
L 226.181938 286.097745 
L 228.037963 284.726943 
L 229.893988 283.050158 
L 231.750013 281.071551 
L 233.606038 278.798224 
L 235.833268 275.695306 
L 238.060498 272.204291 
L 240.658934 267.676662 
L 243.257369 262.70609 
L 246.227009 256.553017 
L 249.567854 249.132417 
L 253.651109 239.52461 
L 259.590389 224.926611 
L 271.840155 194.711277 
L 277.40823 181.651501 
L 282.6051 170.051342 
L 287.430765 159.833412 
L 292.25643 150.161999 
L 296.71089 141.723485 
L 301.165351 133.760992 
L 305.248606 126.892939 
L 309.331861 120.457293 
L 313.043911 115.005177 
L 316.755961 109.959162 
L 320.096806 105.789214 
L 323.437651 101.994937 
L 326.407291 98.956541 
L 329.376931 96.249606 
L 331.975366 94.165032 
L 334.573802 92.355508 
L 337.172237 90.829588 
L 339.399467 89.753033 
L 341.626697 88.894214 
L 343.853927 88.256269 
L 346.081157 87.841511 
L 348.308387 87.651388 
L 350.535617 87.686449 
L 352.762847 87.946322 
L 354.990077 88.429702 
L 357.217307 89.134351 
L 359.444537 90.057103 
L 361.671767 91.19388 
L 364.270203 92.783948 
L 366.868638 94.649176 
L 369.467073 96.778702 
L 372.436713 99.520283 
L 375.406353 102.570649 
L 378.747198 106.343552 
L 382.088043 110.444669 
L 385.800093 115.341966 
L 390.254553 121.620155 
L 395.451424 129.3799 
L 402.133114 139.814953 
L 421.435774 170.254475 
L 427.00385 178.492683 
L 431.45831 184.762706 
L 431.45831 184.762706 
" clip-path="url(#pd1ebc41c60)" style="fill: none; stroke: #1f77b4; stroke-width: 1.5; stroke-linecap: square"/>
   </g>
   <g id="line2d_13">
    <path d="M 60.624503 226.520939 
L 69.162218 231.464475 
L 77.328728 235.946392 
L 85.124034 239.979776 
L 92.548134 243.580631 
L 99.601029 246.767694 
L 106.653924 249.710732 
L 113.335615 252.258623 
L 119.6461 254.436722 
L 125.956585 256.379874 
L 131.895865 257.982073 
L 137.835145 259.352695 
L 143.40322 260.416763 
L 148.971296 261.256798 
L 154.539371 261.862537 
L 159.736241 262.207282 
L 164.933111 262.330191 
L 170.129981 262.222541 
L 174.955646 261.908459 
L 179.781312 261.380959 
L 184.606977 260.633008 
L 189.432642 259.657625 
L 194.258307 258.447929 
L 199.083972 256.997177 
L 203.909637 255.298827 
L 208.735303 253.346597 
L 213.560968 251.134535 
L 218.386633 248.657098 
L 223.212298 245.909241 
L 228.037963 242.88652 
L 232.863628 239.585197 
L 237.689293 236.002368 
L 242.514959 232.1361 
L 247.340624 227.985584 
L 252.166289 223.551305 
L 257.363159 218.460872 
L 262.560029 213.048297 
L 267.756899 207.320833 
L 273.324975 200.846508 
L 278.89305 194.03936 
L 284.83233 186.436393 
L 291.51402 177.502902 
L 298.93812 167.177595 
L 307.847041 154.381576 
L 330.490546 121.642126 
L 336.429827 113.557852 
L 341.255492 107.340844 
L 345.709952 101.971209 
L 349.422002 97.829714 
L 352.762847 94.408554 
L 355.732487 91.646478 
L 358.702127 89.180111 
L 361.300562 87.291303 
L 363.898998 85.679096 
L 366.126228 84.536685 
L 368.353458 83.633161 
L 370.580688 82.986247 
L 372.436713 82.65653 
L 374.292738 82.529072 
L 376.148763 82.615492 
L 378.004788 82.92785 
L 379.860813 83.47866 
L 381.716838 84.280907 
L 383.572863 85.348056 
L 385.428888 86.694072 
L 387.284913 88.333431 
L 389.140938 90.281137 
L 390.996963 92.552738 
L 392.852988 95.164342 
L 394.709013 98.132633 
L 396.565039 101.474888 
L 398.792269 106.004455 
L 401.019499 111.130427 
L 403.246729 116.88626 
L 405.473959 123.306804 
L 407.701189 130.42835 
L 409.928419 138.288683 
L 412.155649 146.927131 
L 414.382879 156.384614 
L 416.610109 166.703704 
L 419.208544 179.890782 
L 421.806979 194.384279 
L 424.405414 210.260925 
L 427.00385 227.60097 
L 429.602285 246.488312 
L 431.45831 260.975017 
L 431.45831 260.975017 
" clip-path="url(#pd1ebc41c60)" style="fill: none; stroke: #ff7f0e; stroke-width: 1.5; stroke-linecap: square"/>
   </g>
   <g id="line2d_14">
    <path d="M 60.624503 214.30807 
L 67.677398 220.253998 
L 74.359088 225.611644 
L 81.040778 230.685752 
L 87.351264 235.203088 
L 93.661749 239.438991 
L 99.601029 243.155573 
L 105.169104 246.390647 
L 110.737179 249.373875 
L 116.305255 252.094721 
L 121.502125 254.388122 
L 126.698995 256.435174 
L 131.52466 258.107996 
L 136.350325 259.554375 
L 141.17599 260.767751 
L 146.001656 261.741749 
L 150.456116 262.423043 
L 154.910576 262.890514 
L 159.365036 263.139783 
L 163.819496 263.166746 
L 168.273956 262.967611 
L 172.728416 262.538939 
L 177.182877 261.877683 
L 181.637337 260.98123 
L 186.091797 259.847448 
L 190.546257 258.474721 
L 195.000717 256.862006 
L 199.455177 255.00887 
L 203.909637 252.915542 
L 208.364098 250.582961 
L 212.818558 248.012825 
L 217.644223 244.96336 
L 222.469888 241.642373 
L 227.295553 238.055442 
L 232.492423 233.90313 
L 237.689293 229.46087 
L 243.257369 224.393738 
L 248.825444 219.026066 
L 254.764724 212.992891 
L 261.075209 206.266789 
L 268.128104 198.412978 
L 275.92341 189.394489 
L 285.945945 177.435077 
L 310.445476 148.021848 
L 317.498371 139.98085 
L 323.437651 133.527756 
L 328.634521 128.189143 
L 333.460187 123.542524 
L 337.914647 119.562025 
L 341.997902 116.20835 
L 345.709952 113.431762 
L 349.422002 110.939411 
L 352.762847 108.959724 
L 356.103692 107.248601 
L 359.073332 105.968095 
L 362.042972 104.927702 
L 365.012613 104.140776 
L 367.611048 103.670718 
L 370.209483 103.414097 
L 372.807918 103.380025 
L 375.406353 103.577634 
L 378.004788 104.016071 
L 380.603223 104.704477 
L 383.201658 105.651973 
L 385.800093 106.867643 
L 388.398528 108.360519 
L 390.996963 110.13956 
L 393.595398 112.213634 
L 396.193834 114.591496 
L 398.792269 117.281771 
L 401.390704 120.292927 
L 403.989139 123.633254 
L 406.587574 127.310841 
L 409.557214 131.936839 
L 412.526854 137.024917 
L 415.496494 142.585909 
L 418.466134 148.630098 
L 421.435774 155.167164 
L 424.405414 162.206116 
L 427.74626 170.735117 
L 431.087105 179.920318 
L 431.45831 180.981814 
L 431.45831 180.981814 
" clip-path="url(#pd1ebc41c60)" style="fill: none; stroke: #2ca02c; stroke-width: 1.5; stroke-linecap: square"/>
   </g>
   <g id="line2d_15">
    <path d="M 60.624503 228.605149 
L 71.018243 235.400096 
L 80.298368 241.205239 
L 88.464879 246.058914 
L 95.888979 250.225266 
L 102.941874 253.933403 
L 109.623564 257.193272 
L 115.93405 260.021216 
L 121.87333 262.439203 
L 127.441405 264.473944 
L 133.00948 266.26771 
L 138.20635 267.71043 
L 143.40322 268.916543 
L 148.228886 269.813607 
L 153.054551 270.485874 
L 157.880216 270.923712 
L 162.334676 271.111742 
L 166.789136 271.085057 
L 171.243596 270.836955 
L 175.698057 270.361108 
L 180.152517 269.651609 
L 184.606977 268.703028 
L 189.061437 267.510459 
L 193.515897 266.069581 
L 197.970357 264.376708 
L 202.424817 262.428855 
L 206.879278 260.223795 
L 211.333738 257.760121 
L 215.788198 255.037313 
L 220.242658 252.055803 
L 224.697118 248.817043 
L 229.522783 245.02106 
L 234.348448 240.93094 
L 239.174114 236.553159 
L 244.370984 231.526482 
L 249.567854 226.188708 
L 255.135929 220.142258 
L 261.075209 213.344845 
L 267.385694 205.765499 
L 274.067385 197.390298 
L 281.86269 187.24965 
L 291.885225 173.815167 
L 312.301501 146.34099 
L 319.354396 137.288103 
L 324.922471 130.477664 
L 329.748136 124.891828 
L 334.202597 120.054048 
L 338.285852 115.934191 
L 341.997902 112.487197 
L 345.338747 109.656518 
L 348.679592 107.109572 
L 351.649232 105.105159 
L 354.618872 103.364985 
L 357.217307 102.074623 
L 359.815742 101.015316 
L 362.414177 100.20103 
L 365.012613 99.646072 
L 367.239843 99.387896 
L 369.467073 99.340436 
L 371.694303 99.513308 
L 373.921533 99.916308 
L 376.148763 100.559419 
L 378.375993 101.452804 
L 380.603223 102.606807 
L 382.830453 104.031951 
L 385.057683 105.738938 
L 387.284913 107.738643 
L 389.512143 110.042116 
L 391.739373 112.660576 
L 393.966603 115.605411 
L 396.193834 118.888176 
L 398.421064 122.520585 
L 401.019499 127.216158 
L 403.617934 132.422926 
L 406.216369 138.160291 
L 408.814804 144.447923 
L 411.413239 151.305753 
L 414.011674 158.75396 
L 416.610109 166.81296 
L 419.579749 176.797647 
L 422.549389 187.638223 
L 425.519029 199.366174 
L 428.48867 212.01329 
L 431.45831 225.611636 
L 431.45831 225.611636 
" clip-path="url(#pd1ebc41c60)" style="fill: none; stroke: #d62728; stroke-width: 1.5; stroke-linecap: square"/>
   </g>
   <g id="line2d_16">
    <path d="M 60.624503 259.838995 
L 72.874268 259.98573 
L 84.381624 259.906884 
L 95.517774 259.606467 
L 105.911514 259.103067 
L 115.562845 258.42008 
L 124.84297 257.545604 
L 133.75189 256.483767 
L 142.289605 255.240945 
L 150.456116 253.826005 
L 158.251421 252.250459 
L 165.675521 250.528506 
L 173.099621 248.573422 
L 180.152517 246.484175 
L 186.834207 244.282111 
L 193.515897 241.849527 
L 200.197587 239.172744 
L 206.508072 236.408117 
L 212.818558 233.402103 
L 219.129043 230.143665 
L 225.439528 226.622314 
L 231.378808 223.059235 
L 237.318088 219.247461 
L 243.257369 215.180897 
L 249.196649 210.854853 
L 255.135929 206.266386 
L 261.446414 201.102736 
L 267.756899 195.64418 
L 274.067385 189.896916 
L 280.749075 183.509154 
L 287.80197 176.450896 
L 295.22607 168.707679 
L 303.763786 159.476014 
L 315.642346 146.263248 
L 330.490546 129.7815 
L 337.543442 122.293596 
L 343.111517 116.696125 
L 347.937182 112.157892 
L 352.020437 108.605949 
L 355.732487 105.653473 
L 359.073332 103.258907 
L 362.414177 101.149235 
L 365.383818 99.543502 
L 367.982253 98.369775 
L 370.580688 97.433084 
L 373.179123 96.754875 
L 375.406353 96.396456 
L 377.633583 96.25966 
L 379.860813 96.360287 
L 382.088043 96.714903 
L 383.944068 97.216936 
L 385.800093 97.917876 
L 387.656118 98.82862 
L 389.512143 99.960489 
L 391.368168 101.325242 
L 393.224193 102.935088 
L 395.080218 104.802706 
L 396.936244 106.941251 
L 399.163474 109.884387 
L 401.390704 113.26191 
L 403.617934 117.099482 
L 405.845164 121.423902 
L 408.072394 126.263148 
L 410.299624 131.646423 
L 412.526854 137.60419 
L 414.754084 144.168228 
L 416.981314 151.37167 
L 419.208544 159.249055 
L 421.806979 169.339229 
L 424.405414 180.455519 
L 427.00385 192.660579 
L 429.602285 206.02008 
L 431.45831 216.307371 
L 431.45831 216.307371 
" clip-path="url(#pd1ebc41c60)" style="fill: none; stroke: #9467bd; stroke-width: 1.5; stroke-linecap: square"/>
   </g>
   <g id="patch_3">
    <path d="M 42.082813 318.121875 
L 42.082813 10.8 
" style="fill: none; stroke: #000000; stroke-width: 0.8; stroke-linejoin: miter; stroke-linecap: square"/>
   </g>
   <g id="patch_4">
    <path d="M 450 318.121875 
L 450 10.8 
" style="fill: none; stroke: #000000; stroke-width: 0.8; stroke-linejoin: miter; stroke-linecap: square"/>
   </g>
   <g id="patch_5">
    <path d="M 42.082813 318.121875 
L 450 318.121875 
" style="fill: none; stroke: #000000; stroke-width: 0.8; stroke-linejoin: miter; stroke-linecap: square"/>
   </g>
   <g id="patch_6">
    <path d="M 42.082813 10.8 
L 450 10.8 
" style="fill: none; stroke: #000000; stroke-width: 0.8; stroke-linejoin: miter; stroke-linecap: square"/>
   </g>
   <g id="legend_1">
    <g id="patch_7">
     <path d="M 49.082813 92.578125 
L 333.382812 92.578125 
Q 335.382812 92.578125 335.382812 90.578125 
L 335.382812 17.8 
Q 335.382812 15.8 333.382812 15.8 
L 49.082813 15.8 
Q 47.082813 15.8 47.082813 17.8 
L 47.082813 90.578125 
Q 47.082813 92.578125 49.082813 92.578125 
z
" style="fill: #ffffff; opacity: 0.8; stroke: #cccccc; stroke-linejoin: miter"/>
    </g>
    <g id="line2d_17">
     <path d="M 51.082813 23.898438 
L 61.082813 23.898438 
L 71.082813 23.898438 
" style="fill: none; stroke: #1f77b4; stroke-width: 1.5; stroke-linecap: square"/>
    </g>
    <g id="text_12">
     <!-- f(x) -->
     <g transform="translate(79.082813 27.398438)scale(0.1 -0.1)">
      <defs>
       <path id="DejaVuSans-66" d="M 2375 4863 
L 2375 4384 
L 1825 4384 
Q 1516 4384 1395 4259 
Q 1275 4134 1275 3809 
L 1275 3500 
L 2222 3500 
L 2222 3053 
L 1275 3053 
L 1275 0 
L 697 0 
L 697 3053 
L 147 3053 
L 147 3500 
L 697 3500 
L 697 3744 
Q 697 4328 969 4595 
Q 1241 4863 1831 4863 
L 2375 4863 
z
" transform="scale(0.015625)"/>
       <path id="DejaVuSans-28" d="M 1984 4856 
Q 1566 4138 1362 3434 
Q 1159 2731 1159 2009 
Q 1159 1288 1364 580 
Q 1569 -128 1984 -844 
L 1484 -844 
Q 1016 -109 783 600 
Q 550 1309 550 2009 
Q 550 2706 781 3412 
Q 1013 4119 1484 4856 
L 1984 4856 
z
" transform="scale(0.015625)"/>
       <path id="DejaVuSans-78" d="M 3513 3500 
L 2247 1797 
L 3578 0 
L 2900 0 
L 1881 1375 
L 863 0 
L 184 0 
L 1544 1831 
L 300 3500 
L 978 3500 
L 1906 2253 
L 2834 3500 
L 3513 3500 
z
" transform="scale(0.015625)"/>
       <path id="DejaVuSans-29" d="M 513 4856 
L 1013 4856 
Q 1481 4119 1714 3412 
Q 1947 2706 1947 2009 
Q 1947 1309 1714 600 
Q 1481 -109 1013 -844 
L 513 -844 
Q 928 -128 1133 580 
Q 1338 1288 1338 2009 
Q 1338 2731 1133 3434 
Q 928 4138 513 4856 
z
" transform="scale(0.015625)"/>
      </defs>
      <use xlink:href="#DejaVuSans-66"/>
      <use xlink:href="#DejaVuSans-28" x="35.205078"/>
      <use xlink:href="#DejaVuSans-78" x="74.21875"/>
      <use xlink:href="#DejaVuSans-29" x="133.398438"/>
     </g>
    </g>
    <g id="line2d_18">
     <path d="M 51.082813 38.578125 
L 61.082813 38.578125 
L 71.082813 38.578125 
" style="fill: none; stroke: #ff7f0e; stroke-width: 1.5; stroke-linecap: square"/>
    </g>
    <g id="text_13">
     <!-- plain [MSE=0.00538] [$\eta$=0.572] [$\lambda$=5.96e-06] -->
     <g transform="translate(79.082813 42.078125)scale(0.1 -0.1)">
      <defs>
       <path id="DejaVuSans-70" d="M 1159 525 
L 1159 -1331 
L 581 -1331 
L 581 3500 
L 1159 3500 
L 1159 2969 
Q 1341 3281 1617 3432 
Q 1894 3584 2278 3584 
Q 2916 3584 3314 3078 
Q 3713 2572 3713 1747 
Q 3713 922 3314 415 
Q 2916 -91 2278 -91 
Q 1894 -91 1617 61 
Q 1341 213 1159 525 
z
M 3116 1747 
Q 3116 2381 2855 2742 
Q 2594 3103 2138 3103 
Q 1681 3103 1420 2742 
Q 1159 2381 1159 1747 
Q 1159 1113 1420 752 
Q 1681 391 2138 391 
Q 2594 391 2855 752 
Q 3116 1113 3116 1747 
z
" transform="scale(0.015625)"/>
       <path id="DejaVuSans-6c" d="M 603 4863 
L 1178 4863 
L 1178 0 
L 603 0 
L 603 4863 
z
" transform="scale(0.015625)"/>
       <path id="DejaVuSans-61" d="M 2194 1759 
Q 1497 1759 1228 1600 
Q 959 1441 959 1056 
Q 959 750 1161 570 
Q 1363 391 1709 391 
Q 2188 391 2477 730 
Q 2766 1069 2766 1631 
L 2766 1759 
L 2194 1759 
z
M 3341 1997 
L 3341 0 
L 2766 0 
L 2766 531 
Q 2569 213 2275 61 
Q 1981 -91 1556 -91 
Q 1019 -91 701 211 
Q 384 513 384 1019 
Q 384 1609 779 1909 
Q 1175 2209 1959 2209 
L 2766 2209 
L 2766 2266 
Q 2766 2663 2505 2880 
Q 2244 3097 1772 3097 
Q 1472 3097 1187 3025 
Q 903 2953 641 2809 
L 641 3341 
Q 956 3463 1253 3523 
Q 1550 3584 1831 3584 
Q 2591 3584 2966 3190 
Q 3341 2797 3341 1997 
z
" transform="scale(0.015625)"/>
       <path id="DejaVuSans-69" d="M 603 3500 
L 1178 3500 
L 1178 0 
L 603 0 
L 603 3500 
z
M 603 4863 
L 1178 4863 
L 1178 4134 
L 603 4134 
L 603 4863 
z
" transform="scale(0.015625)"/>
       <path id="DejaVuSans-6e" d="M 3513 2113 
L 3513 0 
L 2938 0 
L 2938 2094 
Q 2938 2591 2744 2837 
Q 2550 3084 2163 3084 
Q 1697 3084 1428 2787 
Q 1159 2491 1159 1978 
L 1159 0 
L 581 0 
L 581 3500 
L 1159 3500 
L 1159 2956 
Q 1366 3272 1645 3428 
Q 1925 3584 2291 3584 
Q 2894 3584 3203 3211 
Q 3513 2838 3513 2113 
z
" transform="scale(0.015625)"/>
       <path id="DejaVuSans-20" transform="scale(0.015625)"/>
       <path id="DejaVuSans-5b" d="M 550 4863 
L 1875 4863 
L 1875 4416 
L 1125 4416 
L 1125 -397 
L 1875 -397 
L 1875 -844 
L 550 -844 
L 550 4863 
z
" transform="scale(0.015625)"/>
       <path id="DejaVuSans-4d" d="M 628 4666 
L 1569 4666 
L 2759 1491 
L 3956 4666 
L 4897 4666 
L 4897 0 
L 4281 0 
L 4281 4097 
L 3078 897 
L 2444 897 
L 1241 4097 
L 1241 0 
L 628 0 
L 628 4666 
z
" transform="scale(0.015625)"/>
       <path id="DejaVuSans-53" d="M 3425 4513 
L 3425 3897 
Q 3066 4069 2747 4153 
Q 2428 4238 2131 4238 
Q 1616 4238 1336 4038 
Q 1056 3838 1056 3469 
Q 1056 3159 1242 3001 
Q 1428 2844 1947 2747 
L 2328 2669 
Q 3034 2534 3370 2195 
Q 3706 1856 3706 1288 
Q 3706 609 3251 259 
Q 2797 -91 1919 -91 
Q 1588 -91 1214 -16 
Q 841 59 441 206 
L 441 856 
Q 825 641 1194 531 
Q 1563 422 1919 422 
Q 2459 422 2753 634 
Q 3047 847 3047 1241 
Q 3047 1584 2836 1778 
Q 2625 1972 2144 2069 
L 1759 2144 
Q 1053 2284 737 2584 
Q 422 2884 422 3419 
Q 422 4038 858 4394 
Q 1294 4750 2059 4750 
Q 2388 4750 2728 4690 
Q 3069 4631 3425 4513 
z
" transform="scale(0.015625)"/>
       <path id="DejaVuSans-45" d="M 628 4666 
L 3578 4666 
L 3578 4134 
L 1259 4134 
L 1259 2753 
L 3481 2753 
L 3481 2222 
L 1259 2222 
L 1259 531 
L 3634 531 
L 3634 0 
L 628 0 
L 628 4666 
z
" transform="scale(0.015625)"/>
       <path id="DejaVuSans-3d" d="M 678 2906 
L 4684 2906 
L 4684 2381 
L 678 2381 
L 678 2906 
z
M 678 1631 
L 4684 1631 
L 4684 1100 
L 678 1100 
L 678 1631 
z
" transform="scale(0.015625)"/>
       <path id="DejaVuSans-35" d="M 691 4666 
L 3169 4666 
L 3169 4134 
L 1269 4134 
L 1269 2991 
Q 1406 3038 1543 3061 
Q 1681 3084 1819 3084 
Q 2600 3084 3056 2656 
Q 3513 2228 3513 1497 
Q 3513 744 3044 326 
Q 2575 -91 1722 -91 
Q 1428 -91 1123 -41 
Q 819 9 494 109 
L 494 744 
Q 775 591 1075 516 
Q 1375 441 1709 441 
Q 2250 441 2565 725 
Q 2881 1009 2881 1497 
Q 2881 1984 2565 2268 
Q 2250 2553 1709 2553 
Q 1456 2553 1204 2497 
Q 953 2441 691 2322 
L 691 4666 
z
" transform="scale(0.015625)"/>
       <path id="DejaVuSans-33" d="M 2597 2516 
Q 3050 2419 3304 2112 
Q 3559 1806 3559 1356 
Q 3559 666 3084 287 
Q 2609 -91 1734 -91 
Q 1441 -91 1130 -33 
Q 819 25 488 141 
L 488 750 
Q 750 597 1062 519 
Q 1375 441 1716 441 
Q 2309 441 2620 675 
Q 2931 909 2931 1356 
Q 2931 1769 2642 2001 
Q 2353 2234 1838 2234 
L 1294 2234 
L 1294 2753 
L 1863 2753 
Q 2328 2753 2575 2939 
Q 2822 3125 2822 3475 
Q 2822 3834 2567 4026 
Q 2313 4219 1838 4219 
Q 1578 4219 1281 4162 
Q 984 4106 628 3988 
L 628 4550 
Q 988 4650 1302 4700 
Q 1616 4750 1894 4750 
Q 2613 4750 3031 4423 
Q 3450 4097 3450 3541 
Q 3450 3153 3228 2886 
Q 3006 2619 2597 2516 
z
" transform="scale(0.015625)"/>
       <path id="DejaVuSans-5d" d="M 1947 4863 
L 1947 -844 
L 622 -844 
L 622 -397 
L 1369 -397 
L 1369 4416 
L 622 4416 
L 622 4863 
L 1947 4863 
z
" transform="scale(0.015625)"/>
       <path id="DejaVuSans-Oblique-3b7" d="M 3703 2113 
L 3034 -1331 
L 2459 -1331 
L 3125 2094 
Q 3222 2591 3075 2838 
Q 2931 3084 2544 3084 
Q 2078 3084 1750 2788 
Q 1425 2491 1325 1978 
L 941 0 
L 363 0 
L 1044 3500 
L 1622 3500 
L 1516 2956 
Q 1781 3272 2094 3428 
Q 2403 3584 2769 3584 
Q 3372 3584 3609 3213 
Q 3844 2838 3703 2113 
z
" transform="scale(0.015625)"/>
       <path id="DejaVuSans-37" d="M 525 4666 
L 3525 4666 
L 3525 4397 
L 1831 0 
L 1172 0 
L 2766 4134 
L 525 4134 
L 525 4666 
z
" transform="scale(0.015625)"/>
       <path id="DejaVuSans-Oblique-3bb" d="M 2350 4316 
L 3125 0 
L 2516 0 
L 2038 2588 
L 328 0 
L -281 0 
L 1903 3356 
L 1794 3975 
Q 1725 4369 1391 4369 
L 1091 4369 
L 1184 4863 
L 1550 4856 
Q 2253 4847 2350 4316 
z
" transform="scale(0.015625)"/>
       <path id="DejaVuSans-39" d="M 703 97 
L 703 672 
Q 941 559 1184 500 
Q 1428 441 1663 441 
Q 2288 441 2617 861 
Q 2947 1281 2994 2138 
Q 2813 1869 2534 1725 
Q 2256 1581 1919 1581 
Q 1219 1581 811 2004 
Q 403 2428 403 3163 
Q 403 3881 828 4315 
Q 1253 4750 1959 4750 
Q 2769 4750 3195 4129 
Q 3622 3509 3622 2328 
Q 3622 1225 3098 567 
Q 2575 -91 1691 -91 
Q 1453 -91 1209 -44 
Q 966 3 703 97 
z
M 1959 2075 
Q 2384 2075 2632 2365 
Q 2881 2656 2881 3163 
Q 2881 3666 2632 3958 
Q 2384 4250 1959 4250 
Q 1534 4250 1286 3958 
Q 1038 3666 1038 3163 
Q 1038 2656 1286 2365 
Q 1534 2075 1959 2075 
z
" transform="scale(0.015625)"/>
       <path id="DejaVuSans-65" d="M 3597 1894 
L 3597 1613 
L 953 1613 
Q 991 1019 1311 708 
Q 1631 397 2203 397 
Q 2534 397 2845 478 
Q 3156 559 3463 722 
L 3463 178 
Q 3153 47 2828 -22 
Q 2503 -91 2169 -91 
Q 1331 -91 842 396 
Q 353 884 353 1716 
Q 353 2575 817 3079 
Q 1281 3584 2069 3584 
Q 2775 3584 3186 3129 
Q 3597 2675 3597 1894 
z
M 3022 2063 
Q 3016 2534 2758 2815 
Q 2500 3097 2075 3097 
Q 1594 3097 1305 2825 
Q 1016 2553 972 2059 
L 3022 2063 
z
" transform="scale(0.015625)"/>
       <path id="DejaVuSans-2d" d="M 313 2009 
L 1997 2009 
L 1997 1497 
L 313 1497 
L 313 2009 
z
" transform="scale(0.015625)"/>
      </defs>
      <use xlink:href="#DejaVuSans-70" transform="translate(0 0.015625)"/>
      <use xlink:href="#DejaVuSans-6c" transform="translate(63.476562 0.015625)"/>
      <use xlink:href="#DejaVuSans-61" transform="translate(91.259766 0.015625)"/>
      <use xlink:href="#DejaVuSans-69" transform="translate(152.539062 0.015625)"/>
      <use xlink:href="#DejaVuSans-6e" transform="translate(180.322266 0.015625)"/>
      <use xlink:href="#DejaVuSans-20" transform="translate(243.701172 0.015625)"/>
      <use xlink:href="#DejaVuSans-5b" transform="translate(275.488281 0.015625)"/>
      <use xlink:href="#DejaVuSans-4d" transform="translate(314.501953 0.015625)"/>
      <use xlink:href="#DejaVuSans-53" transform="translate(400.78125 0.015625)"/>
      <use xlink:href="#DejaVuSans-45" transform="translate(464.257812 0.015625)"/>
      <use xlink:href="#DejaVuSans-3d" transform="translate(527.441406 0.015625)"/>
      <use xlink:href="#DejaVuSans-30" transform="translate(611.230469 0.015625)"/>
      <use xlink:href="#DejaVuSans-2e" transform="translate(674.853516 0.015625)"/>
      <use xlink:href="#DejaVuSans-30" transform="translate(706.640625 0.015625)"/>
      <use xlink:href="#DejaVuSans-30" transform="translate(770.263672 0.015625)"/>
      <use xlink:href="#DejaVuSans-35" transform="translate(833.886719 0.015625)"/>
      <use xlink:href="#DejaVuSans-33" transform="translate(897.509766 0.015625)"/>
      <use xlink:href="#DejaVuSans-38" transform="translate(961.132812 0.015625)"/>
      <use xlink:href="#DejaVuSans-5d" transform="translate(1024.755859 0.015625)"/>
      <use xlink:href="#DejaVuSans-20" transform="translate(1063.769531 0.015625)"/>
      <use xlink:href="#DejaVuSans-5b" transform="translate(1095.556641 0.015625)"/>
      <use xlink:href="#DejaVuSans-Oblique-3b7" transform="translate(1134.570312 0.015625)"/>
      <use xlink:href="#DejaVuSans-3d" transform="translate(1197.949219 0.015625)"/>
      <use xlink:href="#DejaVuSans-30" transform="translate(1281.738281 0.015625)"/>
      <use xlink:href="#DejaVuSans-2e" transform="translate(1345.361328 0.015625)"/>
      <use xlink:href="#DejaVuSans-35" transform="translate(1377.148438 0.015625)"/>
      <use xlink:href="#DejaVuSans-37" transform="translate(1433.521484 0.015625)"/>
      <use xlink:href="#DejaVuSans-32" transform="translate(1497.144531 0.015625)"/>
      <use xlink:href="#DejaVuSans-5d" transform="translate(1560.767578 0.015625)"/>
      <use xlink:href="#DejaVuSans-20" transform="translate(1599.78125 0.015625)"/>
      <use xlink:href="#DejaVuSans-5b" transform="translate(1631.568359 0.015625)"/>
      <use xlink:href="#DejaVuSans-Oblique-3bb" transform="translate(1670.582031 0.015625)"/>
      <use xlink:href="#DejaVuSans-3d" transform="translate(1729.761719 0.015625)"/>
      <use xlink:href="#DejaVuSans-35" transform="translate(1813.550781 0.015625)"/>
      <use xlink:href="#DejaVuSans-2e" transform="translate(1877.173828 0.015625)"/>
      <use xlink:href="#DejaVuSans-39" transform="translate(1908.960938 0.015625)"/>
      <use xlink:href="#DejaVuSans-36" transform="translate(1972.583984 0.015625)"/>
      <use xlink:href="#DejaVuSans-65" transform="translate(2036.207031 0.015625)"/>
      <use xlink:href="#DejaVuSans-2d" transform="translate(2097.730469 0.015625)"/>
      <use xlink:href="#DejaVuSans-30" transform="translate(2133.814453 0.015625)"/>
      <use xlink:href="#DejaVuSans-36" transform="translate(2197.4375 0.015625)"/>
      <use xlink:href="#DejaVuSans-5d" transform="translate(2261.060547 0.015625)"/>
     </g>
    </g>
    <g id="line2d_19">
     <path d="M 51.082813 53.278125 
L 61.082813 53.278125 
L 71.082813 53.278125 
" style="fill: none; stroke: #2ca02c; stroke-width: 1.5; stroke-linecap: square"/>
    </g>
    <g id="text_14">
     <!-- adagrad [MSE=0.00517] [$\eta$=1] [$\lambda$=1.46e-08] -->
     <g transform="translate(79.082813 56.778125)scale(0.1 -0.1)">
      <defs>
       <path id="DejaVuSans-64" d="M 2906 2969 
L 2906 4863 
L 3481 4863 
L 3481 0 
L 2906 0 
L 2906 525 
Q 2725 213 2448 61 
Q 2172 -91 1784 -91 
Q 1150 -91 751 415 
Q 353 922 353 1747 
Q 353 2572 751 3078 
Q 1150 3584 1784 3584 
Q 2172 3584 2448 3432 
Q 2725 3281 2906 2969 
z
M 947 1747 
Q 947 1113 1208 752 
Q 1469 391 1925 391 
Q 2381 391 2643 752 
Q 2906 1113 2906 1747 
Q 2906 2381 2643 2742 
Q 2381 3103 1925 3103 
Q 1469 3103 1208 2742 
Q 947 2381 947 1747 
z
" transform="scale(0.015625)"/>
       <path id="DejaVuSans-67" d="M 2906 1791 
Q 2906 2416 2648 2759 
Q 2391 3103 1925 3103 
Q 1463 3103 1205 2759 
Q 947 2416 947 1791 
Q 947 1169 1205 825 
Q 1463 481 1925 481 
Q 2391 481 2648 825 
Q 2906 1169 2906 1791 
z
M 3481 434 
Q 3481 -459 3084 -895 
Q 2688 -1331 1869 -1331 
Q 1566 -1331 1297 -1286 
Q 1028 -1241 775 -1147 
L 775 -588 
Q 1028 -725 1275 -790 
Q 1522 -856 1778 -856 
Q 2344 -856 2625 -561 
Q 2906 -266 2906 331 
L 2906 616 
Q 2728 306 2450 153 
Q 2172 0 1784 0 
Q 1141 0 747 490 
Q 353 981 353 1791 
Q 353 2603 747 3093 
Q 1141 3584 1784 3584 
Q 2172 3584 2450 3431 
Q 2728 3278 2906 2969 
L 2906 3500 
L 3481 3500 
L 3481 434 
z
" transform="scale(0.015625)"/>
       <path id="DejaVuSans-72" d="M 2631 2963 
Q 2534 3019 2420 3045 
Q 2306 3072 2169 3072 
Q 1681 3072 1420 2755 
Q 1159 2438 1159 1844 
L 1159 0 
L 581 0 
L 581 3500 
L 1159 3500 
L 1159 2956 
Q 1341 3275 1631 3429 
Q 1922 3584 2338 3584 
Q 2397 3584 2469 3576 
Q 2541 3569 2628 3553 
L 2631 2963 
z
" transform="scale(0.015625)"/>
      </defs>
      <use xlink:href="#DejaVuSans-61" transform="translate(0 0.015625)"/>
      <use xlink:href="#DejaVuSans-64" transform="translate(61.279297 0.015625)"/>
      <use xlink:href="#DejaVuSans-61" transform="translate(124.755859 0.015625)"/>
      <use xlink:href="#DejaVuSans-67" transform="translate(186.035156 0.015625)"/>
      <use xlink:href="#DejaVuSans-72" transform="translate(249.511719 0.015625)"/>
      <use xlink:href="#DejaVuSans-61" transform="translate(290.625 0.015625)"/>
      <use xlink:href="#DejaVuSans-64" transform="translate(351.904297 0.015625)"/>
      <use xlink:href="#DejaVuSans-20" transform="translate(415.380859 0.015625)"/>
      <use xlink:href="#DejaVuSans-5b" transform="translate(447.167969 0.015625)"/>
      <use xlink:href="#DejaVuSans-4d" transform="translate(486.181641 0.015625)"/>
      <use xlink:href="#DejaVuSans-53" transform="translate(572.460938 0.015625)"/>
      <use xlink:href="#DejaVuSans-45" transform="translate(635.9375 0.015625)"/>
      <use xlink:href="#DejaVuSans-3d" transform="translate(699.121094 0.015625)"/>
      <use xlink:href="#DejaVuSans-30" transform="translate(782.910156 0.015625)"/>
      <use xlink:href="#DejaVuSans-2e" transform="translate(846.533203 0.015625)"/>
      <use xlink:href="#DejaVuSans-30" transform="translate(878.320312 0.015625)"/>
      <use xlink:href="#DejaVuSans-30" transform="translate(941.943359 0.015625)"/>
      <use xlink:href="#DejaVuSans-35" transform="translate(1005.566406 0.015625)"/>
      <use xlink:href="#DejaVuSans-31" transform="translate(1069.189453 0.015625)"/>
      <use xlink:href="#DejaVuSans-37" transform="translate(1132.8125 0.015625)"/>
      <use xlink:href="#DejaVuSans-5d" transform="translate(1196.435547 0.015625)"/>
      <use xlink:href="#DejaVuSans-20" transform="translate(1235.449219 0.015625)"/>
      <use xlink:href="#DejaVuSans-5b" transform="translate(1267.236328 0.015625)"/>
      <use xlink:href="#DejaVuSans-Oblique-3b7" transform="translate(1306.25 0.015625)"/>
      <use xlink:href="#DejaVuSans-3d" transform="translate(1369.628906 0.015625)"/>
      <use xlink:href="#DejaVuSans-31" transform="translate(1453.417969 0.015625)"/>
      <use xlink:href="#DejaVuSans-5d" transform="translate(1517.041016 0.015625)"/>
      <use xlink:href="#DejaVuSans-20" transform="translate(1556.054688 0.015625)"/>
      <use xlink:href="#DejaVuSans-5b" transform="translate(1587.841797 0.015625)"/>
      <use xlink:href="#DejaVuSans-Oblique-3bb" transform="translate(1626.855469 0.015625)"/>
      <use xlink:href="#DejaVuSans-3d" transform="translate(1686.035156 0.015625)"/>
      <use xlink:href="#DejaVuSans-31" transform="translate(1769.824219 0.015625)"/>
      <use xlink:href="#DejaVuSans-2e" transform="translate(1833.447266 0.015625)"/>
      <use xlink:href="#DejaVuSans-34" transform="translate(1865.234375 0.015625)"/>
      <use xlink:href="#DejaVuSans-36" transform="translate(1928.857422 0.015625)"/>
      <use xlink:href="#DejaVuSans-65" transform="translate(1992.480469 0.015625)"/>
      <use xlink:href="#DejaVuSans-2d" transform="translate(2054.003906 0.015625)"/>
      <use xlink:href="#DejaVuSans-30" transform="translate(2090.087891 0.015625)"/>
      <use xlink:href="#DejaVuSans-38" transform="translate(2153.710938 0.015625)"/>
      <use xlink:href="#DejaVuSans-5d" transform="translate(2217.333984 0.015625)"/>
     </g>
    </g>
    <g id="line2d_20">
     <path d="M 51.082813 67.978125 
L 61.082813 67.978125 
L 71.082813 67.978125 
" style="fill: none; stroke: #d62728; stroke-width: 1.5; stroke-linecap: square"/>
    </g>
    <g id="text_15">
     <!-- rms_prop [MSE=0.00452] [$\eta$=0.231] [$\lambda$=1.26e-05] -->
     <g transform="translate(79.082813 71.478125)scale(0.1 -0.1)">
      <defs>
       <path id="DejaVuSans-6d" d="M 3328 2828 
Q 3544 3216 3844 3400 
Q 4144 3584 4550 3584 
Q 5097 3584 5394 3201 
Q 5691 2819 5691 2113 
L 5691 0 
L 5113 0 
L 5113 2094 
Q 5113 2597 4934 2840 
Q 4756 3084 4391 3084 
Q 3944 3084 3684 2787 
Q 3425 2491 3425 1978 
L 3425 0 
L 2847 0 
L 2847 2094 
Q 2847 2600 2669 2842 
Q 2491 3084 2119 3084 
Q 1678 3084 1418 2786 
Q 1159 2488 1159 1978 
L 1159 0 
L 581 0 
L 581 3500 
L 1159 3500 
L 1159 2956 
Q 1356 3278 1631 3431 
Q 1906 3584 2284 3584 
Q 2666 3584 2933 3390 
Q 3200 3197 3328 2828 
z
" transform="scale(0.015625)"/>
       <path id="DejaVuSans-73" d="M 2834 3397 
L 2834 2853 
Q 2591 2978 2328 3040 
Q 2066 3103 1784 3103 
Q 1356 3103 1142 2972 
Q 928 2841 928 2578 
Q 928 2378 1081 2264 
Q 1234 2150 1697 2047 
L 1894 2003 
Q 2506 1872 2764 1633 
Q 3022 1394 3022 966 
Q 3022 478 2636 193 
Q 2250 -91 1575 -91 
Q 1294 -91 989 -36 
Q 684 19 347 128 
L 347 722 
Q 666 556 975 473 
Q 1284 391 1588 391 
Q 1994 391 2212 530 
Q 2431 669 2431 922 
Q 2431 1156 2273 1281 
Q 2116 1406 1581 1522 
L 1381 1569 
Q 847 1681 609 1914 
Q 372 2147 372 2553 
Q 372 3047 722 3315 
Q 1072 3584 1716 3584 
Q 2034 3584 2315 3537 
Q 2597 3491 2834 3397 
z
" transform="scale(0.015625)"/>
       <path id="DejaVuSans-5f" d="M 3263 -1063 
L 3263 -1509 
L -63 -1509 
L -63 -1063 
L 3263 -1063 
z
" transform="scale(0.015625)"/>
       <path id="DejaVuSans-6f" d="M 1959 3097 
Q 1497 3097 1228 2736 
Q 959 2375 959 1747 
Q 959 1119 1226 758 
Q 1494 397 1959 397 
Q 2419 397 2687 759 
Q 2956 1122 2956 1747 
Q 2956 2369 2687 2733 
Q 2419 3097 1959 3097 
z
M 1959 3584 
Q 2709 3584 3137 3096 
Q 3566 2609 3566 1747 
Q 3566 888 3137 398 
Q 2709 -91 1959 -91 
Q 1206 -91 779 398 
Q 353 888 353 1747 
Q 353 2609 779 3096 
Q 1206 3584 1959 3584 
z
" transform="scale(0.015625)"/>
      </defs>
      <use xlink:href="#DejaVuSans-72" transform="translate(0 0.015625)"/>
      <use xlink:href="#DejaVuSans-6d" transform="translate(41.113281 0.015625)"/>
      <use xlink:href="#DejaVuSans-73" transform="translate(138.525391 0.015625)"/>
      <use xlink:href="#DejaVuSans-5f" transform="translate(190.625 0.015625)"/>
      <use xlink:href="#DejaVuSans-70" transform="translate(240.625 0.015625)"/>
      <use xlink:href="#DejaVuSans-72" transform="translate(304.101562 0.015625)"/>
      <use xlink:href="#DejaVuSans-6f" transform="translate(345.214844 0.015625)"/>
      <use xlink:href="#DejaVuSans-70" transform="translate(406.396484 0.015625)"/>
      <use xlink:href="#DejaVuSans-20" transform="translate(469.873047 0.015625)"/>
      <use xlink:href="#DejaVuSans-5b" transform="translate(501.660156 0.015625)"/>
      <use xlink:href="#DejaVuSans-4d" transform="translate(540.673828 0.015625)"/>
      <use xlink:href="#DejaVuSans-53" transform="translate(626.953125 0.015625)"/>
      <use xlink:href="#DejaVuSans-45" transform="translate(690.429688 0.015625)"/>
      <use xlink:href="#DejaVuSans-3d" transform="translate(753.613281 0.015625)"/>
      <use xlink:href="#DejaVuSans-30" transform="translate(837.402344 0.015625)"/>
      <use xlink:href="#DejaVuSans-2e" transform="translate(901.025391 0.015625)"/>
      <use xlink:href="#DejaVuSans-30" transform="translate(932.8125 0.015625)"/>
      <use xlink:href="#DejaVuSans-30" transform="translate(996.435547 0.015625)"/>
      <use xlink:href="#DejaVuSans-34" transform="translate(1060.058594 0.015625)"/>
      <use xlink:href="#DejaVuSans-35" transform="translate(1123.681641 0.015625)"/>
      <use xlink:href="#DejaVuSans-32" transform="translate(1187.304688 0.015625)"/>
      <use xlink:href="#DejaVuSans-5d" transform="translate(1250.927734 0.015625)"/>
      <use xlink:href="#DejaVuSans-20" transform="translate(1289.941406 0.015625)"/>
      <use xlink:href="#DejaVuSans-5b" transform="translate(1321.728516 0.015625)"/>
      <use xlink:href="#DejaVuSans-Oblique-3b7" transform="translate(1360.742188 0.015625)"/>
      <use xlink:href="#DejaVuSans-3d" transform="translate(1424.121094 0.015625)"/>
      <use xlink:href="#DejaVuSans-30" transform="translate(1507.910156 0.015625)"/>
      <use xlink:href="#DejaVuSans-2e" transform="translate(1571.533203 0.015625)"/>
      <use xlink:href="#DejaVuSans-32" transform="translate(1597.820312 0.015625)"/>
      <use xlink:href="#DejaVuSans-33" transform="translate(1661.443359 0.015625)"/>
      <use xlink:href="#DejaVuSans-31" transform="translate(1725.066406 0.015625)"/>
      <use xlink:href="#DejaVuSans-5d" transform="translate(1788.689453 0.015625)"/>
      <use xlink:href="#DejaVuSans-20" transform="translate(1827.703125 0.015625)"/>
      <use xlink:href="#DejaVuSans-5b" transform="translate(1859.490234 0.015625)"/>
      <use xlink:href="#DejaVuSans-Oblique-3bb" transform="translate(1898.503906 0.015625)"/>
      <use xlink:href="#DejaVuSans-3d" transform="translate(1957.683594 0.015625)"/>
      <use xlink:href="#DejaVuSans-31" transform="translate(2041.472656 0.015625)"/>
      <use xlink:href="#DejaVuSans-2e" transform="translate(2105.095703 0.015625)"/>
      <use xlink:href="#DejaVuSans-32" transform="translate(2131.382812 0.015625)"/>
      <use xlink:href="#DejaVuSans-36" transform="translate(2195.005859 0.015625)"/>
      <use xlink:href="#DejaVuSans-65" transform="translate(2258.628906 0.015625)"/>
      <use xlink:href="#DejaVuSans-2d" transform="translate(2320.152344 0.015625)"/>
      <use xlink:href="#DejaVuSans-30" transform="translate(2356.236328 0.015625)"/>
      <use xlink:href="#DejaVuSans-35" transform="translate(2419.859375 0.015625)"/>
      <use xlink:href="#DejaVuSans-5d" transform="translate(2483.482422 0.015625)"/>
     </g>
    </g>
    <g id="line2d_21">
     <path d="M 51.082813 82.978125 
L 61.082813 82.978125 
L 71.082813 82.978125 
" style="fill: none; stroke: #9467bd; stroke-width: 1.5; stroke-linecap: square"/>
    </g>
    <g id="text_16">
     <!-- adam [MSE=0.0078] [$\eta$=0.0464] [$\lambda$=3.09e-08] -->
     <g transform="translate(79.082813 86.478125)scale(0.1 -0.1)">
      <use xlink:href="#DejaVuSans-61" transform="translate(0 0.015625)"/>
      <use xlink:href="#DejaVuSans-64" transform="translate(61.279297 0.015625)"/>
      <use xlink:href="#DejaVuSans-61" transform="translate(124.755859 0.015625)"/>
      <use xlink:href="#DejaVuSans-6d" transform="translate(186.035156 0.015625)"/>
      <use xlink:href="#DejaVuSans-20" transform="translate(283.447266 0.015625)"/>
      <use xlink:href="#DejaVuSans-5b" transform="translate(315.234375 0.015625)"/>
      <use xlink:href="#DejaVuSans-4d" transform="translate(354.248047 0.015625)"/>
      <use xlink:href="#DejaVuSans-53" transform="translate(440.527344 0.015625)"/>
      <use xlink:href="#DejaVuSans-45" transform="translate(504.003906 0.015625)"/>
      <use xlink:href="#DejaVuSans-3d" transform="translate(567.1875 0.015625)"/>
      <use xlink:href="#DejaVuSans-30" transform="translate(650.976562 0.015625)"/>
      <use xlink:href="#DejaVuSans-2e" transform="translate(714.599609 0.015625)"/>
      <use xlink:href="#DejaVuSans-30" transform="translate(746.386719 0.015625)"/>
      <use xlink:href="#DejaVuSans-30" transform="translate(810.009766 0.015625)"/>
      <use xlink:href="#DejaVuSans-37" transform="translate(873.632812 0.015625)"/>
      <use xlink:href="#DejaVuSans-38" transform="translate(937.255859 0.015625)"/>
      <use xlink:href="#DejaVuSans-5d" transform="translate(1000.878906 0.015625)"/>
      <use xlink:href="#DejaVuSans-20" transform="translate(1039.892578 0.015625)"/>
      <use xlink:href="#DejaVuSans-5b" transform="translate(1071.679688 0.015625)"/>
      <use xlink:href="#DejaVuSans-Oblique-3b7" transform="translate(1110.693359 0.015625)"/>
      <use xlink:href="#DejaVuSans-3d" transform="translate(1174.072266 0.015625)"/>
      <use xlink:href="#DejaVuSans-30" transform="translate(1257.861328 0.015625)"/>
      <use xlink:href="#DejaVuSans-2e" transform="translate(1321.484375 0.015625)"/>
      <use xlink:href="#DejaVuSans-30" transform="translate(1353.271484 0.015625)"/>
      <use xlink:href="#DejaVuSans-34" transform="translate(1416.894531 0.015625)"/>
      <use xlink:href="#DejaVuSans-36" transform="translate(1480.517578 0.015625)"/>
      <use xlink:href="#DejaVuSans-34" transform="translate(1544.140625 0.015625)"/>
      <use xlink:href="#DejaVuSans-5d" transform="translate(1607.763672 0.015625)"/>
      <use xlink:href="#DejaVuSans-20" transform="translate(1646.777344 0.015625)"/>
      <use xlink:href="#DejaVuSans-5b" transform="translate(1678.564453 0.015625)"/>
      <use xlink:href="#DejaVuSans-Oblique-3bb" transform="translate(1717.578125 0.015625)"/>
      <use xlink:href="#DejaVuSans-3d" transform="translate(1776.757812 0.015625)"/>
      <use xlink:href="#DejaVuSans-33" transform="translate(1860.546875 0.015625)"/>
      <use xlink:href="#DejaVuSans-2e" transform="translate(1924.169922 0.015625)"/>
      <use xlink:href="#DejaVuSans-30" transform="translate(1955.957031 0.015625)"/>
      <use xlink:href="#DejaVuSans-39" transform="translate(2019.580078 0.015625)"/>
      <use xlink:href="#DejaVuSans-65" transform="translate(2083.203125 0.015625)"/>
      <use xlink:href="#DejaVuSans-2d" transform="translate(2144.726562 0.015625)"/>
      <use xlink:href="#DejaVuSans-30" transform="translate(2180.810547 0.015625)"/>
      <use xlink:href="#DejaVuSans-38" transform="translate(2244.433594 0.015625)"/>
      <use xlink:href="#DejaVuSans-5d" transform="translate(2308.056641 0.015625)"/>
     </g>
    </g>
   </g>
  </g>
 </g>
 <defs>
  <clipPath id="pd1ebc41c60">
   <rect x="42.082813" y="10.8" width="407.917187" height="307.321875"/>
  </clipPath>
 </defs>
</svg>
