<?xml version="1.0" encoding="utf-8" standalone="no"?>
<!DOCTYPE svg PUBLIC "-//W3C//DTD SVG 1.1//EN"
  "http://www.w3.org/Graphics/SVG/1.1/DTD/svg11.dtd">
<svg xmlns:xlink="http://www.w3.org/1999/xlink" width="460.8pt" height="345.6pt" viewBox="0 0 460.8 345.6" xmlns="http://www.w3.org/2000/svg" version="1.1">
 <metadata>
  <rdf:RDF xmlns:dc="http://purl.org/dc/elements/1.1/" xmlns:cc="http://creativecommons.org/ns#" xmlns:rdf="http://www.w3.org/1999/02/22-rdf-syntax-ns#">
   <cc:Work>
    <dc:type rdf:resource="http://purl.org/dc/dcmitype/StillImage"/>
    <dc:date>2022-10-26T15:14:49.199906</dc:date>
    <dc:format>image/svg+xml</dc:format>
    <dc:creator>
     <cc:Agent>
      <dc:title>Matplotlib v3.5.3, https://matplotlib.org/</dc:title>
     </cc:Agent>
    </dc:creator>
   </cc:Work>
  </rdf:RDF>
 </metadata>
 <defs>
  <style type="text/css">*{stroke-linejoin: round; stroke-linecap: butt}</style>
 </defs>
 <g id="figure_1">
  <g id="patch_1">
   <path d="M 0 345.6 
L 460.8 345.6 
L 460.8 0 
L 0 0 
z
" style="fill: #ffffff"/>
  </g>
  <g id="axes_1">
   <g id="patch_2">
    <path d="M 42.082813 318.121875 
L 450 318.121875 
L 450 10.8 
L 42.082813 10.8 
z
" style="fill: #ffffff"/>
   </g>
   <g id="matplotlib.axis_1">
    <g id="xtick_1">
     <g id="line2d_1">
      <defs>
       <path id="m10f2054138" d="M 0 0 
L 0 3.5 
" style="stroke: #000000; stroke-width: 0.8"/>
      </defs>
      <g>
       <use xlink:href="#m10f2054138" x="60.624503" y="318.121875" style="stroke: #000000; stroke-width: 0.8"/>
      </g>
     </g>
     <g id="text_1">
      <!-- 0.0 -->
      <g transform="translate(52.67294 332.720312)scale(0.1 -0.1)">
       <defs>
        <path id="DejaVuSans-30" d="M 2034 4250 
Q 1547 4250 1301 3770 
Q 1056 3291 1056 2328 
Q 1056 1369 1301 889 
Q 1547 409 2034 409 
Q 2525 409 2770 889 
Q 3016 1369 3016 2328 
Q 3016 3291 2770 3770 
Q 2525 4250 2034 4250 
z
M 2034 4750 
Q 2819 4750 3233 4129 
Q 3647 3509 3647 2328 
Q 3647 1150 3233 529 
Q 2819 -91 2034 -91 
Q 1250 -91 836 529 
Q 422 1150 422 2328 
Q 422 3509 836 4129 
Q 1250 4750 2034 4750 
z
" transform="scale(0.015625)"/>
        <path id="DejaVuSans-2e" d="M 684 794 
L 1344 794 
L 1344 0 
L 684 0 
L 684 794 
z
" transform="scale(0.015625)"/>
       </defs>
       <use xlink:href="#DejaVuSans-30"/>
       <use xlink:href="#DejaVuSans-2e" x="63.623047"/>
       <use xlink:href="#DejaVuSans-30" x="95.410156"/>
      </g>
     </g>
    </g>
    <g id="xtick_2">
     <g id="line2d_2">
      <g>
       <use xlink:href="#m10f2054138" x="134.791264" y="318.121875" style="stroke: #000000; stroke-width: 0.8"/>
      </g>
     </g>
     <g id="text_2">
      <!-- 0.2 -->
      <g transform="translate(126.839702 332.720312)scale(0.1 -0.1)">
       <defs>
        <path id="DejaVuSans-32" d="M 1228 531 
L 3431 531 
L 3431 0 
L 469 0 
L 469 531 
Q 828 903 1448 1529 
Q 2069 2156 2228 2338 
Q 2531 2678 2651 2914 
Q 2772 3150 2772 3378 
Q 2772 3750 2511 3984 
Q 2250 4219 1831 4219 
Q 1534 4219 1204 4116 
Q 875 4013 500 3803 
L 500 4441 
Q 881 4594 1212 4672 
Q 1544 4750 1819 4750 
Q 2544 4750 2975 4387 
Q 3406 4025 3406 3419 
Q 3406 3131 3298 2873 
Q 3191 2616 2906 2266 
Q 2828 2175 2409 1742 
Q 1991 1309 1228 531 
z
" transform="scale(0.015625)"/>
       </defs>
       <use xlink:href="#DejaVuSans-30"/>
       <use xlink:href="#DejaVuSans-2e" x="63.623047"/>
       <use xlink:href="#DejaVuSans-32" x="95.410156"/>
      </g>
     </g>
    </g>
    <g id="xtick_3">
     <g id="line2d_3">
      <g>
       <use xlink:href="#m10f2054138" x="208.958026" y="318.121875" style="stroke: #000000; stroke-width: 0.8"/>
      </g>
     </g>
     <g id="text_3">
      <!-- 0.4 -->
      <g transform="translate(201.006463 332.720312)scale(0.1 -0.1)">
       <defs>
        <path id="DejaVuSans-34" d="M 2419 4116 
L 825 1625 
L 2419 1625 
L 2419 4116 
z
M 2253 4666 
L 3047 4666 
L 3047 1625 
L 3713 1625 
L 3713 1100 
L 3047 1100 
L 3047 0 
L 2419 0 
L 2419 1100 
L 313 1100 
L 313 1709 
L 2253 4666 
z
" transform="scale(0.015625)"/>
       </defs>
       <use xlink:href="#DejaVuSans-30"/>
       <use xlink:href="#DejaVuSans-2e" x="63.623047"/>
       <use xlink:href="#DejaVuSans-34" x="95.410156"/>
      </g>
     </g>
    </g>
    <g id="xtick_4">
     <g id="line2d_4">
      <g>
       <use xlink:href="#m10f2054138" x="283.124787" y="318.121875" style="stroke: #000000; stroke-width: 0.8"/>
      </g>
     </g>
     <g id="text_4">
      <!-- 0.6 -->
      <g transform="translate(275.173224 332.720312)scale(0.1 -0.1)">
       <defs>
        <path id="DejaVuSans-36" d="M 2113 2584 
Q 1688 2584 1439 2293 
Q 1191 2003 1191 1497 
Q 1191 994 1439 701 
Q 1688 409 2113 409 
Q 2538 409 2786 701 
Q 3034 994 3034 1497 
Q 3034 2003 2786 2293 
Q 2538 2584 2113 2584 
z
M 3366 4563 
L 3366 3988 
Q 3128 4100 2886 4159 
Q 2644 4219 2406 4219 
Q 1781 4219 1451 3797 
Q 1122 3375 1075 2522 
Q 1259 2794 1537 2939 
Q 1816 3084 2150 3084 
Q 2853 3084 3261 2657 
Q 3669 2231 3669 1497 
Q 3669 778 3244 343 
Q 2819 -91 2113 -91 
Q 1303 -91 875 529 
Q 447 1150 447 2328 
Q 447 3434 972 4092 
Q 1497 4750 2381 4750 
Q 2619 4750 2861 4703 
Q 3103 4656 3366 4563 
z
" transform="scale(0.015625)"/>
       </defs>
       <use xlink:href="#DejaVuSans-30"/>
       <use xlink:href="#DejaVuSans-2e" x="63.623047"/>
       <use xlink:href="#DejaVuSans-36" x="95.410156"/>
      </g>
     </g>
    </g>
    <g id="xtick_5">
     <g id="line2d_5">
      <g>
       <use xlink:href="#m10f2054138" x="357.291548" y="318.121875" style="stroke: #000000; stroke-width: 0.8"/>
      </g>
     </g>
     <g id="text_5">
      <!-- 0.8 -->
      <g transform="translate(349.339986 332.720312)scale(0.1 -0.1)">
       <defs>
        <path id="DejaVuSans-38" d="M 2034 2216 
Q 1584 2216 1326 1975 
Q 1069 1734 1069 1313 
Q 1069 891 1326 650 
Q 1584 409 2034 409 
Q 2484 409 2743 651 
Q 3003 894 3003 1313 
Q 3003 1734 2745 1975 
Q 2488 2216 2034 2216 
z
M 1403 2484 
Q 997 2584 770 2862 
Q 544 3141 544 3541 
Q 544 4100 942 4425 
Q 1341 4750 2034 4750 
Q 2731 4750 3128 4425 
Q 3525 4100 3525 3541 
Q 3525 3141 3298 2862 
Q 3072 2584 2669 2484 
Q 3125 2378 3379 2068 
Q 3634 1759 3634 1313 
Q 3634 634 3220 271 
Q 2806 -91 2034 -91 
Q 1263 -91 848 271 
Q 434 634 434 1313 
Q 434 1759 690 2068 
Q 947 2378 1403 2484 
z
M 1172 3481 
Q 1172 3119 1398 2916 
Q 1625 2713 2034 2713 
Q 2441 2713 2670 2916 
Q 2900 3119 2900 3481 
Q 2900 3844 2670 4047 
Q 2441 4250 2034 4250 
Q 1625 4250 1398 4047 
Q 1172 3844 1172 3481 
z
" transform="scale(0.015625)"/>
       </defs>
       <use xlink:href="#DejaVuSans-30"/>
       <use xlink:href="#DejaVuSans-2e" x="63.623047"/>
       <use xlink:href="#DejaVuSans-38" x="95.410156"/>
      </g>
     </g>
    </g>
    <g id="xtick_6">
     <g id="line2d_6">
      <g>
       <use xlink:href="#m10f2054138" x="431.45831" y="318.121875" style="stroke: #000000; stroke-width: 0.8"/>
      </g>
     </g>
     <g id="text_6">
      <!-- 1.0 -->
      <g transform="translate(423.506747 332.720312)scale(0.1 -0.1)">
       <defs>
        <path id="DejaVuSans-31" d="M 794 531 
L 1825 531 
L 1825 4091 
L 703 3866 
L 703 4441 
L 1819 4666 
L 2450 4666 
L 2450 531 
L 3481 531 
L 3481 0 
L 794 0 
L 794 531 
z
" transform="scale(0.015625)"/>
       </defs>
       <use xlink:href="#DejaVuSans-31"/>
       <use xlink:href="#DejaVuSans-2e" x="63.623047"/>
       <use xlink:href="#DejaVuSans-30" x="95.410156"/>
      </g>
     </g>
    </g>
   </g>
   <g id="matplotlib.axis_2">
    <g id="ytick_1">
     <g id="line2d_7">
      <defs>
       <path id="m88d21d5e56" d="M 0 0 
L -3.5 0 
" style="stroke: #000000; stroke-width: 0.8"/>
      </defs>
      <g>
       <use xlink:href="#m88d21d5e56" x="42.082813" y="302.755781" style="stroke: #000000; stroke-width: 0.8"/>
      </g>
     </g>
     <g id="text_7">
      <!-- −0.2 -->
      <g transform="translate(10.8 306.555)scale(0.1 -0.1)">
       <defs>
        <path id="DejaVuSans-2212" d="M 678 2272 
L 4684 2272 
L 4684 1741 
L 678 1741 
L 678 2272 
z
" transform="scale(0.015625)"/>
       </defs>
       <use xlink:href="#DejaVuSans-2212"/>
       <use xlink:href="#DejaVuSans-30" x="83.789062"/>
       <use xlink:href="#DejaVuSans-2e" x="147.412109"/>
       <use xlink:href="#DejaVuSans-32" x="179.199219"/>
      </g>
     </g>
    </g>
    <g id="ytick_2">
     <g id="line2d_8">
      <g>
       <use xlink:href="#m88d21d5e56" x="42.082813" y="241.291406" style="stroke: #000000; stroke-width: 0.8"/>
      </g>
     </g>
     <g id="text_8">
      <!-- 0.0 -->
      <g transform="translate(19.179688 245.090625)scale(0.1 -0.1)">
       <use xlink:href="#DejaVuSans-30"/>
       <use xlink:href="#DejaVuSans-2e" x="63.623047"/>
       <use xlink:href="#DejaVuSans-30" x="95.410156"/>
      </g>
     </g>
    </g>
    <g id="ytick_3">
     <g id="line2d_9">
      <g>
       <use xlink:href="#m88d21d5e56" x="42.082813" y="179.827031" style="stroke: #000000; stroke-width: 0.8"/>
      </g>
     </g>
     <g id="text_9">
      <!-- 0.2 -->
      <g transform="translate(19.179688 183.62625)scale(0.1 -0.1)">
       <use xlink:href="#DejaVuSans-30"/>
       <use xlink:href="#DejaVuSans-2e" x="63.623047"/>
       <use xlink:href="#DejaVuSans-32" x="95.410156"/>
      </g>
     </g>
    </g>
    <g id="ytick_4">
     <g id="line2d_10">
      <g>
       <use xlink:href="#m88d21d5e56" x="42.082813" y="118.362656" style="stroke: #000000; stroke-width: 0.8"/>
      </g>
     </g>
     <g id="text_10">
      <!-- 0.4 -->
      <g transform="translate(19.179688 122.161875)scale(0.1 -0.1)">
       <use xlink:href="#DejaVuSans-30"/>
       <use xlink:href="#DejaVuSans-2e" x="63.623047"/>
       <use xlink:href="#DejaVuSans-34" x="95.410156"/>
      </g>
     </g>
    </g>
    <g id="ytick_5">
     <g id="line2d_11">
      <g>
       <use xlink:href="#m88d21d5e56" x="42.082813" y="56.898281" style="stroke: #000000; stroke-width: 0.8"/>
      </g>
     </g>
     <g id="text_11">
      <!-- 0.6 -->
      <g transform="translate(19.179688 60.6975)scale(0.1 -0.1)">
       <use xlink:href="#DejaVuSans-30"/>
       <use xlink:href="#DejaVuSans-2e" x="63.623047"/>
       <use xlink:href="#DejaVuSans-36" x="95.410156"/>
      </g>
     </g>
    </g>
   </g>
   <g id="line2d_12">
    <path d="M 60.624503 241.290678 
L 127.441405 241.395031 
L 135.97912 241.650725 
L 142.289605 242.054998 
L 147.115271 242.569349 
L 151.569731 243.269092 
L 155.281781 244.065976 
L 158.622626 244.986134 
L 161.963471 246.130939 
L 165.304316 247.530422 
L 168.273956 249.009828 
L 171.243596 250.726283 
L 174.213236 252.68908 
L 177.182877 254.900376 
L 180.523722 257.676463 
L 184.235772 261.088488 
L 188.319027 265.167092 
L 194.629512 271.843543 
L 200.197587 277.640143 
L 203.538432 280.828698 
L 206.508072 283.346491 
L 208.735303 284.978648 
L 210.962533 286.347083 
L 212.818558 287.258757 
L 214.674583 287.940827 
L 216.530608 288.374769 
L 218.386633 288.544141 
L 219.871453 288.479607 
L 221.356273 288.230689 
L 222.841093 287.792525 
L 224.325913 287.16145 
L 226.181938 286.097745 
L 228.037963 284.726943 
L 229.893988 283.050158 
L 231.750013 281.071551 
L 233.606038 278.798224 
L 235.833268 275.695306 
L 238.060498 272.204291 
L 240.658934 267.676662 
L 243.257369 262.70609 
L 246.227009 256.553017 
L 249.567854 249.132417 
L 253.651109 239.52461 
L 259.590389 224.926611 
L 271.840155 194.711277 
L 277.40823 181.651501 
L 282.6051 170.051342 
L 287.430765 159.833412 
L 292.25643 150.161999 
L 296.71089 141.723485 
L 301.165351 133.760992 
L 305.248606 126.892939 
L 309.331861 120.457293 
L 313.043911 115.005177 
L 316.755961 109.959162 
L 320.096806 105.789214 
L 323.437651 101.994937 
L 326.407291 98.956541 
L 329.376931 96.249606 
L 331.975366 94.165032 
L 334.573802 92.355508 
L 337.172237 90.829588 
L 339.399467 89.753033 
L 341.626697 88.894214 
L 343.853927 88.256269 
L 346.081157 87.841511 
L 348.308387 87.651388 
L 350.535617 87.686449 
L 352.762847 87.946322 
L 354.990077 88.429702 
L 357.217307 89.134351 
L 359.444537 90.057103 
L 361.671767 91.19388 
L 364.270203 92.783948 
L 366.868638 94.649176 
L 369.467073 96.778702 
L 372.436713 99.520283 
L 375.406353 102.570649 
L 378.747198 106.343552 
L 382.088043 110.444669 
L 385.800093 115.341966 
L 390.254553 121.620155 
L 395.451424 129.3799 
L 402.133114 139.814953 
L 421.435774 170.254475 
L 427.00385 178.492683 
L 431.45831 184.762706 
L 431.45831 184.762706 
" clip-path="url(#p80b253a772)" style="fill: none; stroke: #1f77b4; stroke-width: 1.5; stroke-linecap: square"/>
   </g>
   <g id="line2d_13">
    <path d="M 60.624503 245.756976 
L 62.109323 244.121605 
L 63.594143 242.770554 
L 65.078963 241.677464 
L 66.563783 240.816905 
L 68.419808 240.031077 
L 70.275833 239.525086 
L 72.131858 239.256261 
L 74.359088 239.190839 
L 76.586318 239.346401 
L 79.555958 239.799595 
L 83.639214 240.684758 
L 91.805724 242.512657 
L 95.517774 243.100621 
L 98.858619 243.42241 
L 102.199464 243.529526 
L 105.540309 243.42357 
L 109.252359 243.077459 
L 113.335615 242.468722 
L 118.90369 241.391254 
L 128.183815 239.562046 
L 132.26707 238.99221 
L 135.607915 238.726259 
L 138.94876 238.687297 
L 141.9184 238.87297 
L 144.888041 239.287673 
L 147.857681 239.946862 
L 150.827321 240.86047 
L 153.796961 242.03271 
L 156.766601 243.461997 
L 159.736241 245.140968 
L 163.077086 247.311848 
L 166.417931 249.755399 
L 170.129981 252.74761 
L 174.584441 256.642508 
L 180.894927 262.501982 
L 189.432642 270.416737 
L 193.515897 273.916145 
L 196.856742 276.525043 
L 199.826382 278.59562 
L 202.796022 280.386753 
L 205.394457 281.692004 
L 207.992893 282.725253 
L 210.220123 283.375926 
L 212.447353 283.7948 
L 214.674583 283.969057 
L 216.901813 283.88723 
L 218.757838 283.616143 
L 220.613863 283.155229 
L 222.469888 282.500247 
L 224.697118 281.453279 
L 226.924348 280.117457 
L 229.151578 278.49002 
L 231.378808 276.569934 
L 233.606038 274.357897 
L 235.833268 271.856342 
L 238.431704 268.577582 
L 241.030139 264.920003 
L 243.628574 260.896191 
L 246.598214 255.869176 
L 249.567854 250.411927 
L 252.908699 243.798518 
L 256.620749 235.923103 
L 260.704004 226.711795 
L 265.529669 215.240517 
L 271.840155 199.612745 
L 285.945945 164.448739 
L 291.142815 152.216487 
L 295.22607 143.129073 
L 298.93812 135.357288 
L 302.650171 128.116092 
L 305.991016 122.095337 
L 308.960656 117.163446 
L 311.930296 112.643183 
L 314.899936 108.545306 
L 317.498371 105.310932 
L 320.096806 102.405583 
L 322.695241 99.82764 
L 325.293676 97.573 
L 327.892111 95.635268 
L 330.490546 94.005989 
L 333.088982 92.674914 
L 335.687417 91.630311 
L 338.285852 90.859295 
L 340.884287 90.348191 
L 343.482722 90.082925 
L 346.081157 90.049422 
L 348.679592 90.234021 
L 351.278027 90.623896 
L 354.247667 91.306036 
L 357.217307 92.226585 
L 360.186947 93.374427 
L 363.156587 94.742577 
L 366.497433 96.542355 
L 369.838278 98.622334 
L 373.179123 100.994875 
L 376.148763 103.365579 
L 379.118403 106.002113 
L 382.088043 108.926642 
L 385.057683 112.163303 
L 388.027323 115.736288 
L 390.996963 119.667338 
L 393.966603 123.97256 
L 396.936244 128.658475 
L 400.277089 134.37464 
L 403.989139 141.225776 
L 408.443599 149.963731 
L 415.867699 164.606238 
L 418.466134 169.220213 
L 420.322159 172.149855 
L 422.178184 174.65421 
L 423.663004 176.268197 
L 424.776619 177.204479 
L 425.890234 177.868498 
L 427.00385 178.223685 
L 427.74626 178.269491 
L 428.48867 178.148014 
L 429.23108 177.846101 
L 429.97349 177.349921 
L 430.7159 176.64494 
L 431.45831 175.715898 
L 431.45831 175.715898 
" clip-path="url(#p80b253a772)" style="fill: none; stroke: #ff7f0e; stroke-width: 1.5; stroke-linecap: square"/>
   </g>
   <g id="line2d_14">
    <path d="M 60.624503 272.071633 
L 71.760653 270.864504 
L 82.525599 269.478544 
L 92.919339 267.919285 
L 102.941874 266.193912 
L 112.593204 264.311303 
L 121.87333 262.282049 
L 131.153455 260.023511 
L 140.062375 257.625684 
L 148.600091 255.103742 
L 157.137806 252.349834 
L 165.304316 249.486785 
L 173.470826 246.388414 
L 181.266132 243.200906 
L 189.061437 239.778855 
L 196.856742 236.112795 
L 204.652047 232.193769 
L 212.076148 228.21868 
L 219.500248 224.000554 
L 226.924348 219.534436 
L 234.348448 214.816937 
L 241.772549 209.846671 
L 249.567854 204.357125 
L 257.363159 198.595201 
L 265.529669 192.277426 
L 274.067385 185.383964 
L 283.34751 177.592184 
L 293.74125 168.564553 
L 308.960656 155.009084 
L 323.808856 141.86096 
L 331.975366 134.91848 
L 338.657057 129.530416 
L 344.225132 125.322644 
L 349.050797 121.941456 
L 353.505257 119.086138 
L 357.588512 116.732445 
L 361.300562 114.844603 
L 364.641408 113.377205 
L 367.982253 112.154619 
L 370.951893 111.294574 
L 373.921533 110.668344 
L 376.519968 110.328585 
L 379.118403 110.198617 
L 381.716838 110.29403 
L 384.315273 110.631232 
L 386.542503 111.125771 
L 388.769733 111.822018 
L 390.996963 112.731866 
L 393.224193 113.867728 
L 395.451424 115.242555 
L 397.678654 116.86985 
L 399.905884 118.763697 
L 402.133114 120.938772 
L 404.360344 123.410371 
L 406.587574 126.194429 
L 408.814804 129.30754 
L 411.042034 132.766984 
L 413.269264 136.590749 
L 415.867699 141.537283 
L 418.466134 147.036238 
L 421.064569 153.120103 
L 423.663004 159.822882 
L 426.261439 167.180153 
L 428.859875 175.229129 
L 431.45831 184.008722 
L 431.45831 184.008722 
" clip-path="url(#p80b253a772)" style="fill: none; stroke: #2ca02c; stroke-width: 1.5; stroke-linecap: square"/>
   </g>
   <g id="line2d_15">
    <path d="M 60.624503 223.187172 
L 69.162218 228.561952 
L 77.328728 233.436912 
L 85.124034 237.82647 
L 92.548134 241.748182 
L 99.601029 245.222524 
L 106.282719 248.272621 
L 112.96441 251.072655 
L 119.274895 253.473555 
L 125.214175 255.504737 
L 131.153455 257.302492 
L 136.72153 258.765267 
L 142.289605 260.002295 
L 147.857681 261.003271 
L 153.054551 261.715288 
L 158.251421 262.203879 
L 163.448291 262.460285 
L 168.273956 262.482765 
L 173.099621 262.290347 
L 177.925287 261.875949 
L 182.750952 261.232524 
L 187.576617 260.353104 
L 192.402282 259.230838 
L 196.856742 257.973575 
L 201.311202 256.498606 
L 205.765662 254.801047 
L 210.220123 252.876263 
L 214.674583 250.719921 
L 219.129043 248.328048 
L 223.583503 245.697092 
L 228.037963 242.823992 
L 232.863628 239.435343 
L 237.689293 235.757306 
L 242.514959 231.788628 
L 247.340624 227.529252 
L 252.166289 222.980488 
L 257.363159 217.761505 
L 262.560029 212.21612 
L 267.756899 206.352901 
L 273.324975 199.731465 
L 279.264255 192.302416 
L 285.57474 184.027193 
L 292.25643 174.885349 
L 300.051735 163.814672 
L 310.074271 149.151938 
L 327.149701 124.127204 
L 333.460187 115.295138 
L 338.657057 108.379762 
L 343.111517 102.801968 
L 347.194772 98.044722 
L 350.906822 94.07414 
L 354.247667 90.836534 
L 357.217307 88.26252 
L 359.815742 86.271783 
L 362.414177 84.549614 
L 364.641408 83.305916 
L 366.868638 82.294011 
L 369.095868 81.531004 
L 371.323098 81.034793 
L 373.179123 80.838558 
L 375.035148 80.851853 
L 376.891173 81.086373 
L 378.747198 81.554248 
L 380.603223 82.268054 
L 382.459248 83.240827 
L 384.315273 84.486076 
L 386.171298 86.017795 
L 388.027323 87.850484 
L 389.883348 89.999156 
L 391.739373 92.479356 
L 393.595398 95.307176 
L 395.451424 98.49927 
L 397.307449 102.072872 
L 399.534679 106.889931 
L 401.761909 112.31404 
L 403.989139 118.378487 
L 406.216369 125.117918 
L 408.443599 132.568379 
L 410.670829 140.767369 
L 412.898059 149.753883 
L 415.125289 159.568466 
L 417.723724 172.121714 
L 420.322159 185.929256 
L 422.920594 201.06404 
L 425.519029 217.602309 
L 428.117465 235.623729 
L 430.7159 255.211516 
L 431.45831 261.107793 
L 431.45831 261.107793 
" clip-path="url(#p80b253a772)" style="fill: none; stroke: #d62728; stroke-width: 1.5; stroke-linecap: square"/>
   </g>
   <g id="line2d_16">
    <path d="M 60.624503 274.483175 
L 71.760653 273.06369 
L 82.525599 271.467576 
L 92.919339 269.700218 
L 102.941874 267.768692 
L 112.593204 265.681812 
L 121.87333 263.450158 
L 130.78225 261.08608 
L 139.69117 258.490714 
L 148.228886 255.773031 
L 156.766601 252.816405 
L 164.933111 249.752256 
L 173.099621 246.445071 
L 180.894927 243.050403 
L 188.690232 239.412902 
L 196.485537 235.522472 
L 203.909637 231.573382 
L 211.333738 227.378584 
L 218.757838 222.931404 
L 226.181938 218.226421 
L 233.606038 213.259867 
L 241.030139 208.030087 
L 248.454239 202.538102 
L 256.249544 196.494132 
L 264.416054 189.868372 
L 272.95377 182.639968 
L 281.86269 174.803155 
L 292.25643 165.350305 
L 307.104631 151.501104 
L 322.324036 137.382832 
L 330.490546 130.115409 
L 336.801032 124.783373 
L 342.369107 120.366425 
L 347.194772 116.8169 
L 351.649232 113.819773 
L 355.732487 111.350052 
L 359.444537 109.370453 
L 362.785382 107.833397 
L 366.126228 106.555085 
L 369.095868 105.658637 
L 372.065508 105.009758 
L 374.663943 104.662601 
L 377.262378 104.537906 
L 379.860813 104.652362 
L 382.088043 104.954108 
L 384.315273 105.456064 
L 386.542503 106.170359 
L 388.769733 107.109661 
L 390.996963 108.287194 
L 393.224193 109.716766 
L 395.451424 111.41278 
L 397.678654 113.390264 
L 399.905884 115.664887 
L 402.133114 118.252985 
L 404.360344 121.171587 
L 406.587574 124.438433 
L 408.814804 128.072005 
L 411.042034 132.09155 
L 413.269264 136.517105 
L 415.867699 142.221277 
L 418.466134 148.54108 
L 421.064569 155.512727 
L 423.663004 163.174129 
L 426.261439 171.564956 
L 428.859875 180.726714 
L 431.45831 190.70281 
L 431.45831 190.70281 
" clip-path="url(#p80b253a772)" style="fill: none; stroke: #9467bd; stroke-width: 1.5; stroke-linecap: square"/>
   </g>
   <g id="line2d_17">
    <path d="M 60.624503 221.497795 
L 69.162218 226.386652 
L 77.328728 230.799096 
L 85.124034 234.751165 
L 92.548134 238.261629 
L 99.601029 241.351784 
L 106.282719 244.045196 
L 112.96441 246.497047 
L 119.274895 248.578216 
L 125.58538 250.419118 
L 131.52466 251.920919 
L 137.46394 253.187823 
L 143.032015 254.152311 
L 148.600091 254.891184 
L 154.168166 255.394885 
L 159.365036 255.644271 
L 164.561906 255.672364 
L 169.758776 255.471122 
L 174.584441 255.071851 
L 179.410107 254.461423 
L 184.235772 253.63342 
L 189.061437 252.581497 
L 193.887102 251.299422 
L 198.712767 249.781122 
L 203.538432 248.020731 
L 208.364098 246.012653 
L 213.189763 243.751626 
L 218.015428 241.232793 
L 222.841093 238.451787 
L 227.666758 235.404823 
L 232.492423 232.088801 
L 237.318088 228.501417 
L 242.143754 224.641294 
L 246.969419 220.508119 
L 252.166289 215.752711 
L 257.363159 210.684646 
L 262.560029 205.309013 
L 268.128104 199.216719 
L 273.69618 192.792872 
L 279.63546 185.594585 
L 285.945945 177.584292 
L 292.627635 168.740879 
L 300.42294 158.034131 
L 310.445476 143.84663 
L 328.634521 118.020195 
L 334.945007 109.471868 
L 340.141877 102.776858 
L 344.596337 97.37365 
L 348.679592 92.761149 
L 352.391642 88.906455 
L 355.732487 85.757952 
L 358.702127 83.249194 
L 361.671767 81.04583 
L 364.270203 79.394542 
L 366.868638 78.026191 
L 369.095868 77.097387 
L 371.323098 76.411261 
L 373.550328 75.985073 
L 375.406353 75.841475 
L 377.262378 75.901784 
L 379.118403 76.177281 
L 380.974428 76.679666 
L 382.830453 77.421069 
L 384.686478 78.414063 
L 386.542503 79.671681 
L 388.398528 81.207422 
L 390.254553 83.035272 
L 392.110578 85.169715 
L 393.966603 87.625748 
L 395.822629 90.418896 
L 397.678654 93.565227 
L 399.905884 97.830476 
L 402.133114 102.65811 
L 404.360344 108.079189 
L 406.587574 114.126051 
L 408.814804 120.83235 
L 411.042034 128.233105 
L 413.269264 136.364744 
L 415.496494 145.265151 
L 417.723724 154.973715 
L 420.322159 167.376503 
L 422.920594 181.002859 
L 425.519029 195.923658 
L 428.117465 212.212975 
L 430.7159 229.948216 
L 431.45831 235.292232 
L 431.45831 235.292232 
" clip-path="url(#p80b253a772)" style="fill: none; stroke: #8c564b; stroke-width: 1.5; stroke-linecap: square"/>
   </g>
   <g id="patch_3">
    <path d="M 42.082813 318.121875 
L 42.082813 10.8 
" style="fill: none; stroke: #000000; stroke-width: 0.8; stroke-linejoin: miter; stroke-linecap: square"/>
   </g>
   <g id="patch_4">
    <path d="M 450 318.121875 
L 450 10.8 
" style="fill: none; stroke: #000000; stroke-width: 0.8; stroke-linejoin: miter; stroke-linecap: square"/>
   </g>
   <g id="patch_5">
    <path d="M 42.082813 318.121875 
L 450 318.121875 
" style="fill: none; stroke: #000000; stroke-width: 0.8; stroke-linejoin: miter; stroke-linecap: square"/>
   </g>
   <g id="patch_6">
    <path d="M 42.082813 10.8 
L 450 10.8 
" style="fill: none; stroke: #000000; stroke-width: 0.8; stroke-linejoin: miter; stroke-linecap: square"/>
   </g>
   <g id="legend_1">
    <g id="patch_7">
     <path d="M 49.082813 106.86875 
L 339.482813 106.86875 
Q 341.482813 106.86875 341.482813 104.86875 
L 341.482813 17.8 
Q 341.482813 15.8 339.482813 15.8 
L 49.082813 15.8 
Q 47.082813 15.8 47.082813 17.8 
L 47.082813 104.86875 
Q 47.082813 106.86875 49.082813 106.86875 
z
" style="fill: #ffffff; opacity: 0.8; stroke: #cccccc; stroke-linejoin: miter"/>
    </g>
    <g id="line2d_18">
     <path d="M 51.082813 23.898438 
L 61.082813 23.898438 
L 71.082813 23.898438 
" style="fill: none; stroke: #1f77b4; stroke-width: 1.5; stroke-linecap: square"/>
    </g>
    <g id="text_12">
     <!-- f(x) -->
     <g transform="translate(79.082813 27.398438)scale(0.1 -0.1)">
      <defs>
       <path id="DejaVuSans-66" d="M 2375 4863 
L 2375 4384 
L 1825 4384 
Q 1516 4384 1395 4259 
Q 1275 4134 1275 3809 
L 1275 3500 
L 2222 3500 
L 2222 3053 
L 1275 3053 
L 1275 0 
L 697 0 
L 697 3053 
L 147 3053 
L 147 3500 
L 697 3500 
L 697 3744 
Q 697 4328 969 4595 
Q 1241 4863 1831 4863 
L 2375 4863 
z
" transform="scale(0.015625)"/>
       <path id="DejaVuSans-28" d="M 1984 4856 
Q 1566 4138 1362 3434 
Q 1159 2731 1159 2009 
Q 1159 1288 1364 580 
Q 1569 -128 1984 -844 
L 1484 -844 
Q 1016 -109 783 600 
Q 550 1309 550 2009 
Q 550 2706 781 3412 
Q 1013 4119 1484 4856 
L 1984 4856 
z
" transform="scale(0.015625)"/>
       <path id="DejaVuSans-78" d="M 3513 3500 
L 2247 1797 
L 3578 0 
L 2900 0 
L 1881 1375 
L 863 0 
L 184 0 
L 1544 1831 
L 300 3500 
L 978 3500 
L 1906 2253 
L 2834 3500 
L 3513 3500 
z
" transform="scale(0.015625)"/>
       <path id="DejaVuSans-29" d="M 513 4856 
L 1013 4856 
Q 1481 4119 1714 3412 
Q 1947 2706 1947 2009 
Q 1947 1309 1714 600 
Q 1481 -109 1013 -844 
L 513 -844 
Q 928 -128 1133 580 
Q 1338 1288 1338 2009 
Q 1338 2731 1133 3434 
Q 928 4138 513 4856 
z
" transform="scale(0.015625)"/>
      </defs>
      <use xlink:href="#DejaVuSans-66"/>
      <use xlink:href="#DejaVuSans-28" x="35.205078"/>
      <use xlink:href="#DejaVuSans-78" x="74.21875"/>
      <use xlink:href="#DejaVuSans-29" x="133.398438"/>
     </g>
    </g>
    <g id="line2d_19">
     <path d="M 51.082813 38.576563 
L 61.082813 38.576563 
L 71.082813 38.576563 
" style="fill: none; stroke: #ff7f0e; stroke-width: 1.5; stroke-linecap: square"/>
    </g>
    <g id="text_13">
     <!-- Analytic [MSE=8.54e-05] -->
     <g transform="translate(79.082813 42.076563)scale(0.1 -0.1)">
      <defs>
       <path id="DejaVuSans-41" d="M 2188 4044 
L 1331 1722 
L 3047 1722 
L 2188 4044 
z
M 1831 4666 
L 2547 4666 
L 4325 0 
L 3669 0 
L 3244 1197 
L 1141 1197 
L 716 0 
L 50 0 
L 1831 4666 
z
" transform="scale(0.015625)"/>
       <path id="DejaVuSans-6e" d="M 3513 2113 
L 3513 0 
L 2938 0 
L 2938 2094 
Q 2938 2591 2744 2837 
Q 2550 3084 2163 3084 
Q 1697 3084 1428 2787 
Q 1159 2491 1159 1978 
L 1159 0 
L 581 0 
L 581 3500 
L 1159 3500 
L 1159 2956 
Q 1366 3272 1645 3428 
Q 1925 3584 2291 3584 
Q 2894 3584 3203 3211 
Q 3513 2838 3513 2113 
z
" transform="scale(0.015625)"/>
       <path id="DejaVuSans-61" d="M 2194 1759 
Q 1497 1759 1228 1600 
Q 959 1441 959 1056 
Q 959 750 1161 570 
Q 1363 391 1709 391 
Q 2188 391 2477 730 
Q 2766 1069 2766 1631 
L 2766 1759 
L 2194 1759 
z
M 3341 1997 
L 3341 0 
L 2766 0 
L 2766 531 
Q 2569 213 2275 61 
Q 1981 -91 1556 -91 
Q 1019 -91 701 211 
Q 384 513 384 1019 
Q 384 1609 779 1909 
Q 1175 2209 1959 2209 
L 2766 2209 
L 2766 2266 
Q 2766 2663 2505 2880 
Q 2244 3097 1772 3097 
Q 1472 3097 1187 3025 
Q 903 2953 641 2809 
L 641 3341 
Q 956 3463 1253 3523 
Q 1550 3584 1831 3584 
Q 2591 3584 2966 3190 
Q 3341 2797 3341 1997 
z
" transform="scale(0.015625)"/>
       <path id="DejaVuSans-6c" d="M 603 4863 
L 1178 4863 
L 1178 0 
L 603 0 
L 603 4863 
z
" transform="scale(0.015625)"/>
       <path id="DejaVuSans-79" d="M 2059 -325 
Q 1816 -950 1584 -1140 
Q 1353 -1331 966 -1331 
L 506 -1331 
L 506 -850 
L 844 -850 
Q 1081 -850 1212 -737 
Q 1344 -625 1503 -206 
L 1606 56 
L 191 3500 
L 800 3500 
L 1894 763 
L 2988 3500 
L 3597 3500 
L 2059 -325 
z
" transform="scale(0.015625)"/>
       <path id="DejaVuSans-74" d="M 1172 4494 
L 1172 3500 
L 2356 3500 
L 2356 3053 
L 1172 3053 
L 1172 1153 
Q 1172 725 1289 603 
Q 1406 481 1766 481 
L 2356 481 
L 2356 0 
L 1766 0 
Q 1100 0 847 248 
Q 594 497 594 1153 
L 594 3053 
L 172 3053 
L 172 3500 
L 594 3500 
L 594 4494 
L 1172 4494 
z
" transform="scale(0.015625)"/>
       <path id="DejaVuSans-69" d="M 603 3500 
L 1178 3500 
L 1178 0 
L 603 0 
L 603 3500 
z
M 603 4863 
L 1178 4863 
L 1178 4134 
L 603 4134 
L 603 4863 
z
" transform="scale(0.015625)"/>
       <path id="DejaVuSans-63" d="M 3122 3366 
L 3122 2828 
Q 2878 2963 2633 3030 
Q 2388 3097 2138 3097 
Q 1578 3097 1268 2742 
Q 959 2388 959 1747 
Q 959 1106 1268 751 
Q 1578 397 2138 397 
Q 2388 397 2633 464 
Q 2878 531 3122 666 
L 3122 134 
Q 2881 22 2623 -34 
Q 2366 -91 2075 -91 
Q 1284 -91 818 406 
Q 353 903 353 1747 
Q 353 2603 823 3093 
Q 1294 3584 2113 3584 
Q 2378 3584 2631 3529 
Q 2884 3475 3122 3366 
z
" transform="scale(0.015625)"/>
       <path id="DejaVuSans-20" transform="scale(0.015625)"/>
       <path id="DejaVuSans-5b" d="M 550 4863 
L 1875 4863 
L 1875 4416 
L 1125 4416 
L 1125 -397 
L 1875 -397 
L 1875 -844 
L 550 -844 
L 550 4863 
z
" transform="scale(0.015625)"/>
       <path id="DejaVuSans-4d" d="M 628 4666 
L 1569 4666 
L 2759 1491 
L 3956 4666 
L 4897 4666 
L 4897 0 
L 4281 0 
L 4281 4097 
L 3078 897 
L 2444 897 
L 1241 4097 
L 1241 0 
L 628 0 
L 628 4666 
z
" transform="scale(0.015625)"/>
       <path id="DejaVuSans-53" d="M 3425 4513 
L 3425 3897 
Q 3066 4069 2747 4153 
Q 2428 4238 2131 4238 
Q 1616 4238 1336 4038 
Q 1056 3838 1056 3469 
Q 1056 3159 1242 3001 
Q 1428 2844 1947 2747 
L 2328 2669 
Q 3034 2534 3370 2195 
Q 3706 1856 3706 1288 
Q 3706 609 3251 259 
Q 2797 -91 1919 -91 
Q 1588 -91 1214 -16 
Q 841 59 441 206 
L 441 856 
Q 825 641 1194 531 
Q 1563 422 1919 422 
Q 2459 422 2753 634 
Q 3047 847 3047 1241 
Q 3047 1584 2836 1778 
Q 2625 1972 2144 2069 
L 1759 2144 
Q 1053 2284 737 2584 
Q 422 2884 422 3419 
Q 422 4038 858 4394 
Q 1294 4750 2059 4750 
Q 2388 4750 2728 4690 
Q 3069 4631 3425 4513 
z
" transform="scale(0.015625)"/>
       <path id="DejaVuSans-45" d="M 628 4666 
L 3578 4666 
L 3578 4134 
L 1259 4134 
L 1259 2753 
L 3481 2753 
L 3481 2222 
L 1259 2222 
L 1259 531 
L 3634 531 
L 3634 0 
L 628 0 
L 628 4666 
z
" transform="scale(0.015625)"/>
       <path id="DejaVuSans-3d" d="M 678 2906 
L 4684 2906 
L 4684 2381 
L 678 2381 
L 678 2906 
z
M 678 1631 
L 4684 1631 
L 4684 1100 
L 678 1100 
L 678 1631 
z
" transform="scale(0.015625)"/>
       <path id="DejaVuSans-35" d="M 691 4666 
L 3169 4666 
L 3169 4134 
L 1269 4134 
L 1269 2991 
Q 1406 3038 1543 3061 
Q 1681 3084 1819 3084 
Q 2600 3084 3056 2656 
Q 3513 2228 3513 1497 
Q 3513 744 3044 326 
Q 2575 -91 1722 -91 
Q 1428 -91 1123 -41 
Q 819 9 494 109 
L 494 744 
Q 775 591 1075 516 
Q 1375 441 1709 441 
Q 2250 441 2565 725 
Q 2881 1009 2881 1497 
Q 2881 1984 2565 2268 
Q 2250 2553 1709 2553 
Q 1456 2553 1204 2497 
Q 953 2441 691 2322 
L 691 4666 
z
" transform="scale(0.015625)"/>
       <path id="DejaVuSans-65" d="M 3597 1894 
L 3597 1613 
L 953 1613 
Q 991 1019 1311 708 
Q 1631 397 2203 397 
Q 2534 397 2845 478 
Q 3156 559 3463 722 
L 3463 178 
Q 3153 47 2828 -22 
Q 2503 -91 2169 -91 
Q 1331 -91 842 396 
Q 353 884 353 1716 
Q 353 2575 817 3079 
Q 1281 3584 2069 3584 
Q 2775 3584 3186 3129 
Q 3597 2675 3597 1894 
z
M 3022 2063 
Q 3016 2534 2758 2815 
Q 2500 3097 2075 3097 
Q 1594 3097 1305 2825 
Q 1016 2553 972 2059 
L 3022 2063 
z
" transform="scale(0.015625)"/>
       <path id="DejaVuSans-2d" d="M 313 2009 
L 1997 2009 
L 1997 1497 
L 313 1497 
L 313 2009 
z
" transform="scale(0.015625)"/>
       <path id="DejaVuSans-5d" d="M 1947 4863 
L 1947 -844 
L 622 -844 
L 622 -397 
L 1369 -397 
L 1369 4416 
L 622 4416 
L 622 4863 
L 1947 4863 
z
" transform="scale(0.015625)"/>
      </defs>
      <use xlink:href="#DejaVuSans-41"/>
      <use xlink:href="#DejaVuSans-6e" x="68.408203"/>
      <use xlink:href="#DejaVuSans-61" x="131.787109"/>
      <use xlink:href="#DejaVuSans-6c" x="193.066406"/>
      <use xlink:href="#DejaVuSans-79" x="220.849609"/>
      <use xlink:href="#DejaVuSans-74" x="280.029297"/>
      <use xlink:href="#DejaVuSans-69" x="319.238281"/>
      <use xlink:href="#DejaVuSans-63" x="347.021484"/>
      <use xlink:href="#DejaVuSans-20" x="402.001953"/>
      <use xlink:href="#DejaVuSans-5b" x="433.789062"/>
      <use xlink:href="#DejaVuSans-4d" x="472.802734"/>
      <use xlink:href="#DejaVuSans-53" x="559.082031"/>
      <use xlink:href="#DejaVuSans-45" x="622.558594"/>
      <use xlink:href="#DejaVuSans-3d" x="685.742188"/>
      <use xlink:href="#DejaVuSans-38" x="769.53125"/>
      <use xlink:href="#DejaVuSans-2e" x="833.154297"/>
      <use xlink:href="#DejaVuSans-35" x="864.941406"/>
      <use xlink:href="#DejaVuSans-34" x="928.564453"/>
      <use xlink:href="#DejaVuSans-65" x="992.1875"/>
      <use xlink:href="#DejaVuSans-2d" x="1053.710938"/>
      <use xlink:href="#DejaVuSans-30" x="1089.794922"/>
      <use xlink:href="#DejaVuSans-35" x="1153.417969"/>
      <use xlink:href="#DejaVuSans-5d" x="1217.041016"/>
     </g>
    </g>
    <g id="line2d_20">
     <path d="M 51.082813 53.254688 
L 61.082813 53.254688 
L 71.082813 53.254688 
" style="fill: none; stroke: #2ca02c; stroke-width: 1.5; stroke-linecap: square"/>
    </g>
    <g id="text_14">
     <!-- Plain [MSE=0.0103] [$\nu$=0.534] -->
     <g transform="translate(79.082813 56.754688)scale(0.1 -0.1)">
      <defs>
       <path id="DejaVuSans-50" d="M 1259 4147 
L 1259 2394 
L 2053 2394 
Q 2494 2394 2734 2622 
Q 2975 2850 2975 3272 
Q 2975 3691 2734 3919 
Q 2494 4147 2053 4147 
L 1259 4147 
z
M 628 4666 
L 2053 4666 
Q 2838 4666 3239 4311 
Q 3641 3956 3641 3272 
Q 3641 2581 3239 2228 
Q 2838 1875 2053 1875 
L 1259 1875 
L 1259 0 
L 628 0 
L 628 4666 
z
" transform="scale(0.015625)"/>
       <path id="DejaVuSans-33" d="M 2597 2516 
Q 3050 2419 3304 2112 
Q 3559 1806 3559 1356 
Q 3559 666 3084 287 
Q 2609 -91 1734 -91 
Q 1441 -91 1130 -33 
Q 819 25 488 141 
L 488 750 
Q 750 597 1062 519 
Q 1375 441 1716 441 
Q 2309 441 2620 675 
Q 2931 909 2931 1356 
Q 2931 1769 2642 2001 
Q 2353 2234 1838 2234 
L 1294 2234 
L 1294 2753 
L 1863 2753 
Q 2328 2753 2575 2939 
Q 2822 3125 2822 3475 
Q 2822 3834 2567 4026 
Q 2313 4219 1838 4219 
Q 1578 4219 1281 4162 
Q 984 4106 628 3988 
L 628 4550 
Q 988 4650 1302 4700 
Q 1616 4750 1894 4750 
Q 2613 4750 3031 4423 
Q 3450 4097 3450 3541 
Q 3450 3153 3228 2886 
Q 3006 2619 2597 2516 
z
" transform="scale(0.015625)"/>
       <path id="DejaVuSans-Oblique-3bd" d="M 959 0 
L 572 3500 
L 1191 3500 
L 1522 563 
Q 1972 950 2391 1488 
Q 2706 1891 2788 2241 
Q 2825 2406 2809 2719 
Q 2794 3091 2544 3500 
L 3125 3500 
L 3125 3500 
Q 3288 3222 3353 2834 
Q 3416 2478 3369 2234 
Q 3250 1622 2719 1075 
Q 2025 363 1572 0 
L 959 0 
z
" transform="scale(0.015625)"/>
      </defs>
      <use xlink:href="#DejaVuSans-50" transform="translate(0 0.015625)"/>
      <use xlink:href="#DejaVuSans-6c" transform="translate(60.302734 0.015625)"/>
      <use xlink:href="#DejaVuSans-61" transform="translate(88.085938 0.015625)"/>
      <use xlink:href="#DejaVuSans-69" transform="translate(149.365234 0.015625)"/>
      <use xlink:href="#DejaVuSans-6e" transform="translate(177.148438 0.015625)"/>
      <use xlink:href="#DejaVuSans-20" transform="translate(240.527344 0.015625)"/>
      <use xlink:href="#DejaVuSans-5b" transform="translate(272.314453 0.015625)"/>
      <use xlink:href="#DejaVuSans-4d" transform="translate(311.328125 0.015625)"/>
      <use xlink:href="#DejaVuSans-53" transform="translate(397.607422 0.015625)"/>
      <use xlink:href="#DejaVuSans-45" transform="translate(461.083984 0.015625)"/>
      <use xlink:href="#DejaVuSans-3d" transform="translate(524.267578 0.015625)"/>
      <use xlink:href="#DejaVuSans-30" transform="translate(608.056641 0.015625)"/>
      <use xlink:href="#DejaVuSans-2e" transform="translate(671.679688 0.015625)"/>
      <use xlink:href="#DejaVuSans-30" transform="translate(703.466797 0.015625)"/>
      <use xlink:href="#DejaVuSans-31" transform="translate(767.089844 0.015625)"/>
      <use xlink:href="#DejaVuSans-30" transform="translate(830.712891 0.015625)"/>
      <use xlink:href="#DejaVuSans-33" transform="translate(894.335938 0.015625)"/>
      <use xlink:href="#DejaVuSans-5d" transform="translate(957.958984 0.015625)"/>
      <use xlink:href="#DejaVuSans-20" transform="translate(996.972656 0.015625)"/>
      <use xlink:href="#DejaVuSans-5b" transform="translate(1028.759766 0.015625)"/>
      <use xlink:href="#DejaVuSans-Oblique-3bd" transform="translate(1067.773438 0.015625)"/>
      <use xlink:href="#DejaVuSans-3d" transform="translate(1123.632812 0.015625)"/>
      <use xlink:href="#DejaVuSans-30" transform="translate(1207.421875 0.015625)"/>
      <use xlink:href="#DejaVuSans-2e" transform="translate(1271.044922 0.015625)"/>
      <use xlink:href="#DejaVuSans-35" transform="translate(1302.832031 0.015625)"/>
      <use xlink:href="#DejaVuSans-33" transform="translate(1366.455078 0.015625)"/>
      <use xlink:href="#DejaVuSans-34" transform="translate(1430.078125 0.015625)"/>
      <use xlink:href="#DejaVuSans-5d" transform="translate(1493.701172 0.015625)"/>
     </g>
    </g>
    <g id="line2d_21">
     <path d="M 51.082813 67.932813 
L 61.082813 67.932813 
L 71.082813 67.932813 
" style="fill: none; stroke: #d62728; stroke-width: 1.5; stroke-linecap: square"/>
    </g>
    <g id="text_15">
     <!-- Momentum [MSE=0.00528] [$\nu$=0.705] -->
     <g transform="translate(79.082813 71.432813)scale(0.1 -0.1)">
      <defs>
       <path id="DejaVuSans-6f" d="M 1959 3097 
Q 1497 3097 1228 2736 
Q 959 2375 959 1747 
Q 959 1119 1226 758 
Q 1494 397 1959 397 
Q 2419 397 2687 759 
Q 2956 1122 2956 1747 
Q 2956 2369 2687 2733 
Q 2419 3097 1959 3097 
z
M 1959 3584 
Q 2709 3584 3137 3096 
Q 3566 2609 3566 1747 
Q 3566 888 3137 398 
Q 2709 -91 1959 -91 
Q 1206 -91 779 398 
Q 353 888 353 1747 
Q 353 2609 779 3096 
Q 1206 3584 1959 3584 
z
" transform="scale(0.015625)"/>
       <path id="DejaVuSans-6d" d="M 3328 2828 
Q 3544 3216 3844 3400 
Q 4144 3584 4550 3584 
Q 5097 3584 5394 3201 
Q 5691 2819 5691 2113 
L 5691 0 
L 5113 0 
L 5113 2094 
Q 5113 2597 4934 2840 
Q 4756 3084 4391 3084 
Q 3944 3084 3684 2787 
Q 3425 2491 3425 1978 
L 3425 0 
L 2847 0 
L 2847 2094 
Q 2847 2600 2669 2842 
Q 2491 3084 2119 3084 
Q 1678 3084 1418 2786 
Q 1159 2488 1159 1978 
L 1159 0 
L 581 0 
L 581 3500 
L 1159 3500 
L 1159 2956 
Q 1356 3278 1631 3431 
Q 1906 3584 2284 3584 
Q 2666 3584 2933 3390 
Q 3200 3197 3328 2828 
z
" transform="scale(0.015625)"/>
       <path id="DejaVuSans-75" d="M 544 1381 
L 544 3500 
L 1119 3500 
L 1119 1403 
Q 1119 906 1312 657 
Q 1506 409 1894 409 
Q 2359 409 2629 706 
Q 2900 1003 2900 1516 
L 2900 3500 
L 3475 3500 
L 3475 0 
L 2900 0 
L 2900 538 
Q 2691 219 2414 64 
Q 2138 -91 1772 -91 
Q 1169 -91 856 284 
Q 544 659 544 1381 
z
M 1991 3584 
L 1991 3584 
z
" transform="scale(0.015625)"/>
       <path id="DejaVuSans-37" d="M 525 4666 
L 3525 4666 
L 3525 4397 
L 1831 0 
L 1172 0 
L 2766 4134 
L 525 4134 
L 525 4666 
z
" transform="scale(0.015625)"/>
      </defs>
      <use xlink:href="#DejaVuSans-4d" transform="translate(0 0.015625)"/>
      <use xlink:href="#DejaVuSans-6f" transform="translate(86.279297 0.015625)"/>
      <use xlink:href="#DejaVuSans-6d" transform="translate(147.460938 0.015625)"/>
      <use xlink:href="#DejaVuSans-65" transform="translate(244.873047 0.015625)"/>
      <use xlink:href="#DejaVuSans-6e" transform="translate(306.396484 0.015625)"/>
      <use xlink:href="#DejaVuSans-74" transform="translate(369.775391 0.015625)"/>
      <use xlink:href="#DejaVuSans-75" transform="translate(408.984375 0.015625)"/>
      <use xlink:href="#DejaVuSans-6d" transform="translate(472.363281 0.015625)"/>
      <use xlink:href="#DejaVuSans-20" transform="translate(569.775391 0.015625)"/>
      <use xlink:href="#DejaVuSans-5b" transform="translate(601.5625 0.015625)"/>
      <use xlink:href="#DejaVuSans-4d" transform="translate(640.576172 0.015625)"/>
      <use xlink:href="#DejaVuSans-53" transform="translate(726.855469 0.015625)"/>
      <use xlink:href="#DejaVuSans-45" transform="translate(790.332031 0.015625)"/>
      <use xlink:href="#DejaVuSans-3d" transform="translate(853.515625 0.015625)"/>
      <use xlink:href="#DejaVuSans-30" transform="translate(937.304688 0.015625)"/>
      <use xlink:href="#DejaVuSans-2e" transform="translate(1000.927734 0.015625)"/>
      <use xlink:href="#DejaVuSans-30" transform="translate(1032.714844 0.015625)"/>
      <use xlink:href="#DejaVuSans-30" transform="translate(1096.337891 0.015625)"/>
      <use xlink:href="#DejaVuSans-35" transform="translate(1159.960938 0.015625)"/>
      <use xlink:href="#DejaVuSans-32" transform="translate(1223.583984 0.015625)"/>
      <use xlink:href="#DejaVuSans-38" transform="translate(1287.207031 0.015625)"/>
      <use xlink:href="#DejaVuSans-5d" transform="translate(1350.830078 0.015625)"/>
      <use xlink:href="#DejaVuSans-20" transform="translate(1389.84375 0.015625)"/>
      <use xlink:href="#DejaVuSans-5b" transform="translate(1421.630859 0.015625)"/>
      <use xlink:href="#DejaVuSans-Oblique-3bd" transform="translate(1460.644531 0.015625)"/>
      <use xlink:href="#DejaVuSans-3d" transform="translate(1516.503906 0.015625)"/>
      <use xlink:href="#DejaVuSans-30" transform="translate(1600.292969 0.015625)"/>
      <use xlink:href="#DejaVuSans-2e" transform="translate(1663.916016 0.015625)"/>
      <use xlink:href="#DejaVuSans-37" transform="translate(1687.953125 0.015625)"/>
      <use xlink:href="#DejaVuSans-30" transform="translate(1751.576172 0.015625)"/>
      <use xlink:href="#DejaVuSans-35" transform="translate(1815.199219 0.015625)"/>
      <use xlink:href="#DejaVuSans-5d" transform="translate(1878.822266 0.015625)"/>
     </g>
    </g>
    <g id="line2d_22">
     <path d="M 51.082813 82.610938 
L 61.082813 82.610938 
L 71.082813 82.610938 
" style="fill: none; stroke: #9467bd; stroke-width: 1.5; stroke-linecap: square"/>
    </g>
    <g id="text_16">
     <!-- Stochastic [MSE=0.0101] [$\nu$=0.498] -->
     <g transform="translate(79.082813 86.110938)scale(0.1 -0.1)">
      <defs>
       <path id="DejaVuSans-68" d="M 3513 2113 
L 3513 0 
L 2938 0 
L 2938 2094 
Q 2938 2591 2744 2837 
Q 2550 3084 2163 3084 
Q 1697 3084 1428 2787 
Q 1159 2491 1159 1978 
L 1159 0 
L 581 0 
L 581 4863 
L 1159 4863 
L 1159 2956 
Q 1366 3272 1645 3428 
Q 1925 3584 2291 3584 
Q 2894 3584 3203 3211 
Q 3513 2838 3513 2113 
z
" transform="scale(0.015625)"/>
       <path id="DejaVuSans-73" d="M 2834 3397 
L 2834 2853 
Q 2591 2978 2328 3040 
Q 2066 3103 1784 3103 
Q 1356 3103 1142 2972 
Q 928 2841 928 2578 
Q 928 2378 1081 2264 
Q 1234 2150 1697 2047 
L 1894 2003 
Q 2506 1872 2764 1633 
Q 3022 1394 3022 966 
Q 3022 478 2636 193 
Q 2250 -91 1575 -91 
Q 1294 -91 989 -36 
Q 684 19 347 128 
L 347 722 
Q 666 556 975 473 
Q 1284 391 1588 391 
Q 1994 391 2212 530 
Q 2431 669 2431 922 
Q 2431 1156 2273 1281 
Q 2116 1406 1581 1522 
L 1381 1569 
Q 847 1681 609 1914 
Q 372 2147 372 2553 
Q 372 3047 722 3315 
Q 1072 3584 1716 3584 
Q 2034 3584 2315 3537 
Q 2597 3491 2834 3397 
z
" transform="scale(0.015625)"/>
       <path id="DejaVuSans-39" d="M 703 97 
L 703 672 
Q 941 559 1184 500 
Q 1428 441 1663 441 
Q 2288 441 2617 861 
Q 2947 1281 2994 2138 
Q 2813 1869 2534 1725 
Q 2256 1581 1919 1581 
Q 1219 1581 811 2004 
Q 403 2428 403 3163 
Q 403 3881 828 4315 
Q 1253 4750 1959 4750 
Q 2769 4750 3195 4129 
Q 3622 3509 3622 2328 
Q 3622 1225 3098 567 
Q 2575 -91 1691 -91 
Q 1453 -91 1209 -44 
Q 966 3 703 97 
z
M 1959 2075 
Q 2384 2075 2632 2365 
Q 2881 2656 2881 3163 
Q 2881 3666 2632 3958 
Q 2384 4250 1959 4250 
Q 1534 4250 1286 3958 
Q 1038 3666 1038 3163 
Q 1038 2656 1286 2365 
Q 1534 2075 1959 2075 
z
" transform="scale(0.015625)"/>
      </defs>
      <use xlink:href="#DejaVuSans-53" transform="translate(0 0.015625)"/>
      <use xlink:href="#DejaVuSans-74" transform="translate(63.476562 0.015625)"/>
      <use xlink:href="#DejaVuSans-6f" transform="translate(102.685547 0.015625)"/>
      <use xlink:href="#DejaVuSans-63" transform="translate(163.867188 0.015625)"/>
      <use xlink:href="#DejaVuSans-68" transform="translate(218.847656 0.015625)"/>
      <use xlink:href="#DejaVuSans-61" transform="translate(282.226562 0.015625)"/>
      <use xlink:href="#DejaVuSans-73" transform="translate(343.505859 0.015625)"/>
      <use xlink:href="#DejaVuSans-74" transform="translate(395.605469 0.015625)"/>
      <use xlink:href="#DejaVuSans-69" transform="translate(434.814453 0.015625)"/>
      <use xlink:href="#DejaVuSans-63" transform="translate(462.597656 0.015625)"/>
      <use xlink:href="#DejaVuSans-20" transform="translate(517.578125 0.015625)"/>
      <use xlink:href="#DejaVuSans-5b" transform="translate(549.365234 0.015625)"/>
      <use xlink:href="#DejaVuSans-4d" transform="translate(588.378906 0.015625)"/>
      <use xlink:href="#DejaVuSans-53" transform="translate(674.658203 0.015625)"/>
      <use xlink:href="#DejaVuSans-45" transform="translate(738.134766 0.015625)"/>
      <use xlink:href="#DejaVuSans-3d" transform="translate(801.318359 0.015625)"/>
      <use xlink:href="#DejaVuSans-30" transform="translate(885.107422 0.015625)"/>
      <use xlink:href="#DejaVuSans-2e" transform="translate(948.730469 0.015625)"/>
      <use xlink:href="#DejaVuSans-30" transform="translate(980.517578 0.015625)"/>
      <use xlink:href="#DejaVuSans-31" transform="translate(1044.140625 0.015625)"/>
      <use xlink:href="#DejaVuSans-30" transform="translate(1107.763672 0.015625)"/>
      <use xlink:href="#DejaVuSans-31" transform="translate(1171.386719 0.015625)"/>
      <use xlink:href="#DejaVuSans-5d" transform="translate(1235.009766 0.015625)"/>
      <use xlink:href="#DejaVuSans-20" transform="translate(1274.023438 0.015625)"/>
      <use xlink:href="#DejaVuSans-5b" transform="translate(1305.810547 0.015625)"/>
      <use xlink:href="#DejaVuSans-Oblique-3bd" transform="translate(1344.824219 0.015625)"/>
      <use xlink:href="#DejaVuSans-3d" transform="translate(1400.683594 0.015625)"/>
      <use xlink:href="#DejaVuSans-30" transform="translate(1484.472656 0.015625)"/>
      <use xlink:href="#DejaVuSans-2e" transform="translate(1548.095703 0.015625)"/>
      <use xlink:href="#DejaVuSans-34" transform="translate(1579.882812 0.015625)"/>
      <use xlink:href="#DejaVuSans-39" transform="translate(1643.505859 0.015625)"/>
      <use xlink:href="#DejaVuSans-38" transform="translate(1707.128906 0.015625)"/>
      <use xlink:href="#DejaVuSans-5d" transform="translate(1770.751953 0.015625)"/>
     </g>
    </g>
    <g id="line2d_23">
     <path d="M 51.082813 97.289063 
L 61.082813 97.289063 
L 71.082813 97.289063 
" style="fill: none; stroke: #8c564b; stroke-width: 1.5; stroke-linecap: square"/>
    </g>
    <g id="text_17">
     <!-- Momentum + Stochastic [MSE=0.00578] [$\nu$=0.498] -->
     <g transform="translate(79.082813 100.789063)scale(0.1 -0.1)">
      <defs>
       <path id="DejaVuSans-2b" d="M 2944 4013 
L 2944 2272 
L 4684 2272 
L 4684 1741 
L 2944 1741 
L 2944 0 
L 2419 0 
L 2419 1741 
L 678 1741 
L 678 2272 
L 2419 2272 
L 2419 4013 
L 2944 4013 
z
" transform="scale(0.015625)"/>
      </defs>
      <use xlink:href="#DejaVuSans-4d" transform="translate(0 0.015625)"/>
      <use xlink:href="#DejaVuSans-6f" transform="translate(86.279297 0.015625)"/>
      <use xlink:href="#DejaVuSans-6d" transform="translate(147.460938 0.015625)"/>
      <use xlink:href="#DejaVuSans-65" transform="translate(244.873047 0.015625)"/>
      <use xlink:href="#DejaVuSans-6e" transform="translate(306.396484 0.015625)"/>
      <use xlink:href="#DejaVuSans-74" transform="translate(369.775391 0.015625)"/>
      <use xlink:href="#DejaVuSans-75" transform="translate(408.984375 0.015625)"/>
      <use xlink:href="#DejaVuSans-6d" transform="translate(472.363281 0.015625)"/>
      <use xlink:href="#DejaVuSans-20" transform="translate(569.775391 0.015625)"/>
      <use xlink:href="#DejaVuSans-2b" transform="translate(601.5625 0.015625)"/>
      <use xlink:href="#DejaVuSans-20" transform="translate(685.351562 0.015625)"/>
      <use xlink:href="#DejaVuSans-53" transform="translate(717.138672 0.015625)"/>
      <use xlink:href="#DejaVuSans-74" transform="translate(780.615234 0.015625)"/>
      <use xlink:href="#DejaVuSans-6f" transform="translate(819.824219 0.015625)"/>
      <use xlink:href="#DejaVuSans-63" transform="translate(881.005859 0.015625)"/>
      <use xlink:href="#DejaVuSans-68" transform="translate(935.986328 0.015625)"/>
      <use xlink:href="#DejaVuSans-61" transform="translate(999.365234 0.015625)"/>
      <use xlink:href="#DejaVuSans-73" transform="translate(1060.644531 0.015625)"/>
      <use xlink:href="#DejaVuSans-74" transform="translate(1112.744141 0.015625)"/>
      <use xlink:href="#DejaVuSans-69" transform="translate(1151.953125 0.015625)"/>
      <use xlink:href="#DejaVuSans-63" transform="translate(1179.736328 0.015625)"/>
      <use xlink:href="#DejaVuSans-20" transform="translate(1234.716797 0.015625)"/>
      <use xlink:href="#DejaVuSans-5b" transform="translate(1266.503906 0.015625)"/>
      <use xlink:href="#DejaVuSans-4d" transform="translate(1305.517578 0.015625)"/>
      <use xlink:href="#DejaVuSans-53" transform="translate(1391.796875 0.015625)"/>
      <use xlink:href="#DejaVuSans-45" transform="translate(1455.273438 0.015625)"/>
      <use xlink:href="#DejaVuSans-3d" transform="translate(1518.457031 0.015625)"/>
      <use xlink:href="#DejaVuSans-30" transform="translate(1602.246094 0.015625)"/>
      <use xlink:href="#DejaVuSans-2e" transform="translate(1665.869141 0.015625)"/>
      <use xlink:href="#DejaVuSans-30" transform="translate(1697.65625 0.015625)"/>
      <use xlink:href="#DejaVuSans-30" transform="translate(1761.279297 0.015625)"/>
      <use xlink:href="#DejaVuSans-35" transform="translate(1824.902344 0.015625)"/>
      <use xlink:href="#DejaVuSans-37" transform="translate(1881.275391 0.015625)"/>
      <use xlink:href="#DejaVuSans-38" transform="translate(1944.898438 0.015625)"/>
      <use xlink:href="#DejaVuSans-5d" transform="translate(2008.521484 0.015625)"/>
      <use xlink:href="#DejaVuSans-20" transform="translate(2047.535156 0.015625)"/>
      <use xlink:href="#DejaVuSans-5b" transform="translate(2079.322266 0.015625)"/>
      <use xlink:href="#DejaVuSans-Oblique-3bd" transform="translate(2118.335938 0.015625)"/>
      <use xlink:href="#DejaVuSans-3d" transform="translate(2174.195312 0.015625)"/>
      <use xlink:href="#DejaVuSans-30" transform="translate(2257.984375 0.015625)"/>
      <use xlink:href="#DejaVuSans-2e" transform="translate(2321.607422 0.015625)"/>
      <use xlink:href="#DejaVuSans-34" transform="translate(2353.394531 0.015625)"/>
      <use xlink:href="#DejaVuSans-39" transform="translate(2417.017578 0.015625)"/>
      <use xlink:href="#DejaVuSans-38" transform="translate(2480.640625 0.015625)"/>
      <use xlink:href="#DejaVuSans-5d" transform="translate(2544.263672 0.015625)"/>
     </g>
    </g>
   </g>
  </g>
 </g>
 <defs>
  <clipPath id="p80b253a772">
   <rect x="42.082813" y="10.8" width="407.917187" height="307.321875"/>
  </clipPath>
 </defs>
</svg>
