<?xml version="1.0" encoding="utf-8" standalone="no"?>
<!DOCTYPE svg PUBLIC "-//W3C//DTD SVG 1.1//EN"
  "http://www.w3.org/Graphics/SVG/1.1/DTD/svg11.dtd">
<svg xmlns:xlink="http://www.w3.org/1999/xlink" width="460.8pt" height="345.6pt" viewBox="0 0 460.8 345.6" xmlns="http://www.w3.org/2000/svg" version="1.1">
 <metadata>
  <rdf:RDF xmlns:dc="http://purl.org/dc/elements/1.1/" xmlns:cc="http://creativecommons.org/ns#" xmlns:rdf="http://www.w3.org/1999/02/22-rdf-syntax-ns#">
   <cc:Work>
    <dc:type rdf:resource="http://purl.org/dc/dcmitype/StillImage"/>
    <dc:date>2022-11-11T17:04:10.188004</dc:date>
    <dc:format>image/svg+xml</dc:format>
    <dc:creator>
     <cc:Agent>
      <dc:title>Matplotlib v3.5.3, https://matplotlib.org/</dc:title>
     </cc:Agent>
    </dc:creator>
   </cc:Work>
  </rdf:RDF>
 </metadata>
 <defs>
  <style type="text/css">*{stroke-linejoin: round; stroke-linecap: butt}</style>
 </defs>
 <g id="figure_1">
  <g id="patch_1">
   <path d="M 0 345.6 
L 460.8 345.6 
L 460.8 0 
L 0 0 
z
" style="fill: #ffffff"/>
  </g>
  <g id="axes_1">
   <g id="patch_2">
    <path d="M 42.082813 318.121875 
L 450 318.121875 
L 450 10.8 
L 42.082813 10.8 
z
" style="fill: #ffffff"/>
   </g>
   <g id="matplotlib.axis_1">
    <g id="xtick_1">
     <g id="line2d_1">
      <defs>
       <path id="m329ae4d369" d="M 0 0 
L 0 3.5 
" style="stroke: #000000; stroke-width: 0.8"/>
      </defs>
      <g>
       <use xlink:href="#m329ae4d369" x="60.624503" y="318.121875" style="stroke: #000000; stroke-width: 0.8"/>
      </g>
     </g>
     <g id="text_1">
      <!-- 0.0 -->
      <g transform="translate(52.67294 332.720312)scale(0.1 -0.1)">
       <defs>
        <path id="DejaVuSans-30" d="M 2034 4250 
Q 1547 4250 1301 3770 
Q 1056 3291 1056 2328 
Q 1056 1369 1301 889 
Q 1547 409 2034 409 
Q 2525 409 2770 889 
Q 3016 1369 3016 2328 
Q 3016 3291 2770 3770 
Q 2525 4250 2034 4250 
z
M 2034 4750 
Q 2819 4750 3233 4129 
Q 3647 3509 3647 2328 
Q 3647 1150 3233 529 
Q 2819 -91 2034 -91 
Q 1250 -91 836 529 
Q 422 1150 422 2328 
Q 422 3509 836 4129 
Q 1250 4750 2034 4750 
z
" transform="scale(0.015625)"/>
        <path id="DejaVuSans-2e" d="M 684 794 
L 1344 794 
L 1344 0 
L 684 0 
L 684 794 
z
" transform="scale(0.015625)"/>
       </defs>
       <use xlink:href="#DejaVuSans-30"/>
       <use xlink:href="#DejaVuSans-2e" x="63.623047"/>
       <use xlink:href="#DejaVuSans-30" x="95.410156"/>
      </g>
     </g>
    </g>
    <g id="xtick_2">
     <g id="line2d_2">
      <g>
       <use xlink:href="#m329ae4d369" x="134.791264" y="318.121875" style="stroke: #000000; stroke-width: 0.8"/>
      </g>
     </g>
     <g id="text_2">
      <!-- 0.2 -->
      <g transform="translate(126.839702 332.720312)scale(0.1 -0.1)">
       <defs>
        <path id="DejaVuSans-32" d="M 1228 531 
L 3431 531 
L 3431 0 
L 469 0 
L 469 531 
Q 828 903 1448 1529 
Q 2069 2156 2228 2338 
Q 2531 2678 2651 2914 
Q 2772 3150 2772 3378 
Q 2772 3750 2511 3984 
Q 2250 4219 1831 4219 
Q 1534 4219 1204 4116 
Q 875 4013 500 3803 
L 500 4441 
Q 881 4594 1212 4672 
Q 1544 4750 1819 4750 
Q 2544 4750 2975 4387 
Q 3406 4025 3406 3419 
Q 3406 3131 3298 2873 
Q 3191 2616 2906 2266 
Q 2828 2175 2409 1742 
Q 1991 1309 1228 531 
z
" transform="scale(0.015625)"/>
       </defs>
       <use xlink:href="#DejaVuSans-30"/>
       <use xlink:href="#DejaVuSans-2e" x="63.623047"/>
       <use xlink:href="#DejaVuSans-32" x="95.410156"/>
      </g>
     </g>
    </g>
    <g id="xtick_3">
     <g id="line2d_3">
      <g>
       <use xlink:href="#m329ae4d369" x="208.958026" y="318.121875" style="stroke: #000000; stroke-width: 0.8"/>
      </g>
     </g>
     <g id="text_3">
      <!-- 0.4 -->
      <g transform="translate(201.006463 332.720312)scale(0.1 -0.1)">
       <defs>
        <path id="DejaVuSans-34" d="M 2419 4116 
L 825 1625 
L 2419 1625 
L 2419 4116 
z
M 2253 4666 
L 3047 4666 
L 3047 1625 
L 3713 1625 
L 3713 1100 
L 3047 1100 
L 3047 0 
L 2419 0 
L 2419 1100 
L 313 1100 
L 313 1709 
L 2253 4666 
z
" transform="scale(0.015625)"/>
       </defs>
       <use xlink:href="#DejaVuSans-30"/>
       <use xlink:href="#DejaVuSans-2e" x="63.623047"/>
       <use xlink:href="#DejaVuSans-34" x="95.410156"/>
      </g>
     </g>
    </g>
    <g id="xtick_4">
     <g id="line2d_4">
      <g>
       <use xlink:href="#m329ae4d369" x="283.124787" y="318.121875" style="stroke: #000000; stroke-width: 0.8"/>
      </g>
     </g>
     <g id="text_4">
      <!-- 0.6 -->
      <g transform="translate(275.173224 332.720312)scale(0.1 -0.1)">
       <defs>
        <path id="DejaVuSans-36" d="M 2113 2584 
Q 1688 2584 1439 2293 
Q 1191 2003 1191 1497 
Q 1191 994 1439 701 
Q 1688 409 2113 409 
Q 2538 409 2786 701 
Q 3034 994 3034 1497 
Q 3034 2003 2786 2293 
Q 2538 2584 2113 2584 
z
M 3366 4563 
L 3366 3988 
Q 3128 4100 2886 4159 
Q 2644 4219 2406 4219 
Q 1781 4219 1451 3797 
Q 1122 3375 1075 2522 
Q 1259 2794 1537 2939 
Q 1816 3084 2150 3084 
Q 2853 3084 3261 2657 
Q 3669 2231 3669 1497 
Q 3669 778 3244 343 
Q 2819 -91 2113 -91 
Q 1303 -91 875 529 
Q 447 1150 447 2328 
Q 447 3434 972 4092 
Q 1497 4750 2381 4750 
Q 2619 4750 2861 4703 
Q 3103 4656 3366 4563 
z
" transform="scale(0.015625)"/>
       </defs>
       <use xlink:href="#DejaVuSans-30"/>
       <use xlink:href="#DejaVuSans-2e" x="63.623047"/>
       <use xlink:href="#DejaVuSans-36" x="95.410156"/>
      </g>
     </g>
    </g>
    <g id="xtick_5">
     <g id="line2d_5">
      <g>
       <use xlink:href="#m329ae4d369" x="357.291548" y="318.121875" style="stroke: #000000; stroke-width: 0.8"/>
      </g>
     </g>
     <g id="text_5">
      <!-- 0.8 -->
      <g transform="translate(349.339986 332.720312)scale(0.1 -0.1)">
       <defs>
        <path id="DejaVuSans-38" d="M 2034 2216 
Q 1584 2216 1326 1975 
Q 1069 1734 1069 1313 
Q 1069 891 1326 650 
Q 1584 409 2034 409 
Q 2484 409 2743 651 
Q 3003 894 3003 1313 
Q 3003 1734 2745 1975 
Q 2488 2216 2034 2216 
z
M 1403 2484 
Q 997 2584 770 2862 
Q 544 3141 544 3541 
Q 544 4100 942 4425 
Q 1341 4750 2034 4750 
Q 2731 4750 3128 4425 
Q 3525 4100 3525 3541 
Q 3525 3141 3298 2862 
Q 3072 2584 2669 2484 
Q 3125 2378 3379 2068 
Q 3634 1759 3634 1313 
Q 3634 634 3220 271 
Q 2806 -91 2034 -91 
Q 1263 -91 848 271 
Q 434 634 434 1313 
Q 434 1759 690 2068 
Q 947 2378 1403 2484 
z
M 1172 3481 
Q 1172 3119 1398 2916 
Q 1625 2713 2034 2713 
Q 2441 2713 2670 2916 
Q 2900 3119 2900 3481 
Q 2900 3844 2670 4047 
Q 2441 4250 2034 4250 
Q 1625 4250 1398 4047 
Q 1172 3844 1172 3481 
z
" transform="scale(0.015625)"/>
       </defs>
       <use xlink:href="#DejaVuSans-30"/>
       <use xlink:href="#DejaVuSans-2e" x="63.623047"/>
       <use xlink:href="#DejaVuSans-38" x="95.410156"/>
      </g>
     </g>
    </g>
    <g id="xtick_6">
     <g id="line2d_6">
      <g>
       <use xlink:href="#m329ae4d369" x="431.45831" y="318.121875" style="stroke: #000000; stroke-width: 0.8"/>
      </g>
     </g>
     <g id="text_6">
      <!-- 1.0 -->
      <g transform="translate(423.506747 332.720312)scale(0.1 -0.1)">
       <defs>
        <path id="DejaVuSans-31" d="M 794 531 
L 1825 531 
L 1825 4091 
L 703 3866 
L 703 4441 
L 1819 4666 
L 2450 4666 
L 2450 531 
L 3481 531 
L 3481 0 
L 794 0 
L 794 531 
z
" transform="scale(0.015625)"/>
       </defs>
       <use xlink:href="#DejaVuSans-31"/>
       <use xlink:href="#DejaVuSans-2e" x="63.623047"/>
       <use xlink:href="#DejaVuSans-30" x="95.410156"/>
      </g>
     </g>
    </g>
   </g>
   <g id="matplotlib.axis_2">
    <g id="ytick_1">
     <g id="line2d_7">
      <defs>
       <path id="m7bdbc1cdf9" d="M 0 0 
L -3.5 0 
" style="stroke: #000000; stroke-width: 0.8"/>
      </defs>
      <g>
       <use xlink:href="#m7bdbc1cdf9" x="42.082813" y="302.755781" style="stroke: #000000; stroke-width: 0.8"/>
      </g>
     </g>
     <g id="text_7">
      <!-- −0.2 -->
      <g transform="translate(10.8 306.555)scale(0.1 -0.1)">
       <defs>
        <path id="DejaVuSans-2212" d="M 678 2272 
L 4684 2272 
L 4684 1741 
L 678 1741 
L 678 2272 
z
" transform="scale(0.015625)"/>
       </defs>
       <use xlink:href="#DejaVuSans-2212"/>
       <use xlink:href="#DejaVuSans-30" x="83.789062"/>
       <use xlink:href="#DejaVuSans-2e" x="147.412109"/>
       <use xlink:href="#DejaVuSans-32" x="179.199219"/>
      </g>
     </g>
    </g>
    <g id="ytick_2">
     <g id="line2d_8">
      <g>
       <use xlink:href="#m7bdbc1cdf9" x="42.082813" y="241.291406" style="stroke: #000000; stroke-width: 0.8"/>
      </g>
     </g>
     <g id="text_8">
      <!-- 0.0 -->
      <g transform="translate(19.179688 245.090625)scale(0.1 -0.1)">
       <use xlink:href="#DejaVuSans-30"/>
       <use xlink:href="#DejaVuSans-2e" x="63.623047"/>
       <use xlink:href="#DejaVuSans-30" x="95.410156"/>
      </g>
     </g>
    </g>
    <g id="ytick_3">
     <g id="line2d_9">
      <g>
       <use xlink:href="#m7bdbc1cdf9" x="42.082813" y="179.827031" style="stroke: #000000; stroke-width: 0.8"/>
      </g>
     </g>
     <g id="text_9">
      <!-- 0.2 -->
      <g transform="translate(19.179688 183.62625)scale(0.1 -0.1)">
       <use xlink:href="#DejaVuSans-30"/>
       <use xlink:href="#DejaVuSans-2e" x="63.623047"/>
       <use xlink:href="#DejaVuSans-32" x="95.410156"/>
      </g>
     </g>
    </g>
    <g id="ytick_4">
     <g id="line2d_10">
      <g>
       <use xlink:href="#m7bdbc1cdf9" x="42.082813" y="118.362656" style="stroke: #000000; stroke-width: 0.8"/>
      </g>
     </g>
     <g id="text_10">
      <!-- 0.4 -->
      <g transform="translate(19.179688 122.161875)scale(0.1 -0.1)">
       <use xlink:href="#DejaVuSans-30"/>
       <use xlink:href="#DejaVuSans-2e" x="63.623047"/>
       <use xlink:href="#DejaVuSans-34" x="95.410156"/>
      </g>
     </g>
    </g>
    <g id="ytick_5">
     <g id="line2d_11">
      <g>
       <use xlink:href="#m7bdbc1cdf9" x="42.082813" y="56.898281" style="stroke: #000000; stroke-width: 0.8"/>
      </g>
     </g>
     <g id="text_11">
      <!-- 0.6 -->
      <g transform="translate(19.179688 60.6975)scale(0.1 -0.1)">
       <use xlink:href="#DejaVuSans-30"/>
       <use xlink:href="#DejaVuSans-2e" x="63.623047"/>
       <use xlink:href="#DejaVuSans-36" x="95.410156"/>
      </g>
     </g>
    </g>
   </g>
   <g id="line2d_12">
    <path d="M 60.624503 241.290678 
L 127.441405 241.395031 
L 135.97912 241.650725 
L 142.289605 242.054998 
L 147.115271 242.569349 
L 151.569731 243.269092 
L 155.281781 244.065976 
L 158.622626 244.986134 
L 161.963471 246.130939 
L 165.304316 247.530422 
L 168.273956 249.009828 
L 171.243596 250.726283 
L 174.213236 252.68908 
L 177.182877 254.900376 
L 180.523722 257.676463 
L 184.235772 261.088488 
L 188.319027 265.167092 
L 194.629512 271.843543 
L 200.197587 277.640143 
L 203.538432 280.828698 
L 206.508072 283.346491 
L 208.735303 284.978648 
L 210.962533 286.347083 
L 212.818558 287.258757 
L 214.674583 287.940827 
L 216.530608 288.374769 
L 218.386633 288.544141 
L 219.871453 288.479607 
L 221.356273 288.230689 
L 222.841093 287.792525 
L 224.325913 287.16145 
L 226.181938 286.097745 
L 228.037963 284.726943 
L 229.893988 283.050158 
L 231.750013 281.071551 
L 233.606038 278.798224 
L 235.833268 275.695306 
L 238.060498 272.204291 
L 240.658934 267.676662 
L 243.257369 262.70609 
L 246.227009 256.553017 
L 249.567854 249.132417 
L 253.651109 239.52461 
L 259.590389 224.926611 
L 271.840155 194.711277 
L 277.40823 181.651501 
L 282.6051 170.051342 
L 287.430765 159.833412 
L 292.25643 150.161999 
L 296.71089 141.723485 
L 301.165351 133.760992 
L 305.248606 126.892939 
L 309.331861 120.457293 
L 313.043911 115.005177 
L 316.755961 109.959162 
L 320.096806 105.789214 
L 323.437651 101.994937 
L 326.407291 98.956541 
L 329.376931 96.249606 
L 331.975366 94.165032 
L 334.573802 92.355508 
L 337.172237 90.829588 
L 339.399467 89.753033 
L 341.626697 88.894214 
L 343.853927 88.256269 
L 346.081157 87.841511 
L 348.308387 87.651388 
L 350.535617 87.686449 
L 352.762847 87.946322 
L 354.990077 88.429702 
L 357.217307 89.134351 
L 359.444537 90.057103 
L 361.671767 91.19388 
L 364.270203 92.783948 
L 366.868638 94.649176 
L 369.467073 96.778702 
L 372.436713 99.520283 
L 375.406353 102.570649 
L 378.747198 106.343552 
L 382.088043 110.444669 
L 385.800093 115.341966 
L 390.254553 121.620155 
L 395.451424 129.3799 
L 402.133114 139.814953 
L 421.435774 170.254475 
L 427.00385 178.492683 
L 431.45831 184.762706 
L 431.45831 184.762706 
" clip-path="url(#p1f5ffe0055)" style="fill: none; stroke: #1f77b4; stroke-width: 1.5; stroke-linecap: square"/>
   </g>
   <g id="line2d_13">
    <path d="M 60.624503 245.283159 
L 62.109323 243.755434 
L 63.594143 242.495994 
L 65.078963 241.480188 
L 66.563783 240.68416 
L 68.419808 239.963259 
L 70.275833 239.507103 
L 72.131858 239.275328 
L 74.359088 239.240374 
L 76.957523 239.459404 
L 79.927163 239.948219 
L 84.752829 241.017325 
L 91.434519 242.47769 
L 95.146569 243.068188 
L 98.487414 243.39781 
L 101.828259 243.516728 
L 105.169104 243.425034 
L 108.881154 243.095687 
L 112.96441 242.503954 
L 118.532485 241.442543 
L 128.55502 239.486218 
L 132.638275 238.940533 
L 135.97912 238.698255 
L 139.319965 238.685321 
L 142.289605 238.895228 
L 145.259246 239.334423 
L 148.228886 240.017651 
L 151.198526 240.954177 
L 154.168166 242.147606 
L 157.137806 243.595801 
L 160.107446 245.290917 
L 163.448291 247.476145 
L 166.789136 249.929548 
L 170.501186 252.926993 
L 174.955646 256.81979 
L 181.637337 263.008614 
L 189.432642 270.191823 
L 193.515897 273.680416 
L 197.227947 276.556044 
L 200.197587 278.592209 
L 203.167227 280.34624 
L 205.765662 281.617075 
L 207.992893 282.489542 
L 210.220123 283.14572 
L 212.447353 283.571483 
L 214.674583 283.753944 
L 216.901813 283.681551 
L 218.757838 283.419191 
L 220.613863 282.967722 
L 222.469888 282.322827 
L 224.697118 281.288706 
L 226.924348 279.966399 
L 229.151578 278.352992 
L 231.378808 276.447286 
L 233.606038 274.249811 
L 235.833268 271.762826 
L 238.431704 268.50084 
L 241.030139 264.859526 
L 243.628574 260.851193 
L 246.598214 255.840561 
L 249.567854 250.397932 
L 252.908699 243.798424 
L 256.620749 235.934765 
L 260.704004 226.731315 
L 265.529669 215.261819 
L 271.840155 199.623494 
L 286.31715 163.489947 
L 291.142815 152.115217 
L 295.22607 142.994492 
L 298.93812 135.192006 
L 302.650171 127.920971 
L 305.991016 121.875158 
L 308.960656 116.923224 
L 311.930296 112.385708 
L 314.899936 108.274012 
L 317.498371 105.03084 
L 320.096806 102.120156 
L 322.695241 99.540676 
L 325.293676 97.288578 
L 327.892111 95.357692 
L 330.490546 93.739721 
L 332.717777 92.594283 
L 334.945007 91.663968 
L 337.172237 90.94075 
L 339.770672 90.347298 
L 342.369107 90.009866 
L 344.967542 89.91399 
L 347.565977 90.045333 
L 350.164412 90.390109 
L 353.134052 91.029097 
L 356.103692 91.913251 
L 359.073332 93.028762 
L 362.042972 94.365597 
L 365.383818 96.127204 
L 368.724663 98.161078 
L 372.065508 100.474538 
L 375.406353 103.083 
L 378.375993 105.667657 
L 381.345633 108.523675 
L 384.315273 111.674026 
L 387.284913 115.142745 
L 390.254553 118.952727 
L 393.224193 123.122885 
L 396.193834 127.664591 
L 399.534679 133.216835 
L 402.875524 139.210835 
L 406.958779 147.035851 
L 418.094929 168.759031 
L 420.322159 172.450421 
L 422.178184 175.110483 
L 423.663004 176.882541 
L 425.147824 178.264248 
L 426.261439 178.998473 
L 427.375055 179.434477 
L 428.117465 179.540551 
L 428.859875 179.484819 
L 429.602285 179.254455 
L 430.344695 178.835968 
L 431.087105 178.215179 
L 431.45831 177.824296 
L 431.45831 177.824296 
" clip-path="url(#p1f5ffe0055)" style="fill: none; stroke: #ff7f0e; stroke-width: 1.5; stroke-linecap: square"/>
   </g>
   <g id="line2d_14">
    <path d="M 60.624503 271.673693 
L 72.131858 270.195409 
L 83.268009 268.535573 
L 93.661749 266.766379 
L 103.684284 264.843713 
L 113.70682 262.692751 
L 123.35815 260.390503 
L 132.638275 257.948721 
L 141.547195 255.380907 
L 150.456116 252.580783 
L 158.993831 249.666976 
L 167.531546 246.515572 
L 175.698057 243.26774 
L 183.864567 239.781011 
L 192.031077 236.045152 
L 199.826382 232.237728 
L 207.621688 228.186547 
L 215.416993 223.884646 
L 223.212298 219.326287 
L 231.007603 214.507365 
L 238.802909 209.425894 
L 246.598214 204.082584 
L 254.764724 198.208507 
L 262.931234 192.061271 
L 271.46895 185.359948 
L 280.749075 177.789209 
L 291.142815 169.017003 
L 305.619811 156.473823 
L 323.066446 141.402751 
L 331.232956 134.640802 
L 337.914647 129.388325 
L 343.482722 125.280578 
L 348.308387 121.973201 
L 352.762847 119.172668 
L 356.846102 116.855614 
L 360.558152 114.987853 
L 364.270203 113.377627 
L 367.611048 112.174768 
L 370.580688 111.322271 
L 373.550328 110.6931 
L 376.519968 110.307026 
L 379.118403 110.185093 
L 381.716838 110.280182 
L 384.315273 110.607925 
L 386.913708 111.184766 
L 389.140938 111.890542 
L 391.368168 112.803418 
L 393.595398 113.935288 
L 395.822629 115.298558 
L 398.049859 116.906163 
L 400.277089 118.771586 
L 402.504319 120.908877 
L 404.731549 123.332674 
L 406.958779 126.058221 
L 409.186009 129.101392 
L 411.413239 132.478712 
L 414.011674 136.864226 
L 416.610109 141.756496 
L 419.208544 147.185371 
L 421.806979 153.182092 
L 424.405414 159.779344 
L 427.00385 167.011321 
L 429.602285 174.913774 
L 431.45831 180.989516 
L 431.45831 180.989516 
" clip-path="url(#p1f5ffe0055)" style="fill: none; stroke: #2ca02c; stroke-width: 1.5; stroke-linecap: square"/>
   </g>
   <g id="line2d_15">
    <path d="M 60.624503 231.727997 
L 69.533423 236.483119 
L 78.071138 240.792682 
L 86.237649 244.666841 
L 94.032954 248.118788 
L 101.457054 251.164621 
L 108.509949 253.823165 
L 115.19164 256.115738 
L 121.87333 258.173805 
L 128.183815 259.888773 
L 134.4943 261.368211 
L 140.43358 262.53337 
L 146.372861 263.466294 
L 151.940936 264.119362 
L 157.509011 264.547712 
L 162.705881 264.735668 
L 167.902751 264.710372 
L 173.099621 264.463194 
L 178.296492 263.985429 
L 183.122157 263.327679 
L 187.947822 262.456574 
L 192.773487 261.365163 
L 197.599152 260.046583 
L 202.424817 258.494104 
L 207.250483 256.701185 
L 212.076148 254.661543 
L 216.901813 252.369218 
L 221.727478 249.818659 
L 226.553143 247.004814 
L 231.378808 243.923232 
L 236.204473 240.570182 
L 241.030139 236.942774 
L 245.855804 233.039113 
L 250.681469 228.858447 
L 255.878339 224.047097 
L 261.075209 218.917879 
L 266.272079 213.475852 
L 271.840155 207.306874 
L 277.40823 200.801279 
L 283.34751 193.511554 
L 289.657995 185.401722 
L 296.339685 176.454346 
L 304.134991 165.636351 
L 314.899936 150.275926 
L 329.005726 130.179328 
L 335.687417 121.059847 
L 340.884287 114.324474 
L 345.338747 108.895067 
L 349.422002 104.269822 
L 353.134052 100.41675 
L 356.474897 97.283711 
L 359.444537 94.802447 
L 362.042972 92.893329 
L 364.641408 91.253821 
L 366.868638 90.082312 
L 369.095868 89.144321 
L 371.323098 88.457474 
L 373.179123 88.090245 
L 375.035148 87.921376 
L 376.891173 87.962447 
L 378.747198 88.225485 
L 380.603223 88.722976 
L 382.459248 89.467884 
L 384.315273 90.47366 
L 386.171298 91.75426 
L 388.027323 93.324161 
L 389.883348 95.198375 
L 391.739373 97.392466 
L 393.595398 99.922566 
L 395.451424 102.805394 
L 397.307449 106.05827 
L 399.163474 109.699137 
L 401.390704 114.606533 
L 403.617934 120.132787 
L 405.845164 126.312674 
L 408.072394 133.182427 
L 410.299624 140.779794 
L 412.526854 149.144082 
L 414.754084 158.31622 
L 416.981314 168.338806 
L 419.579749 181.165934 
L 422.178184 195.2845 
L 424.776619 210.771422 
L 427.375055 227.707188 
L 429.97349 246.176004 
L 431.45831 257.451646 
L 431.45831 257.451646 
" clip-path="url(#p1f5ffe0055)" style="fill: none; stroke: #d62728; stroke-width: 1.5; stroke-linecap: square"/>
   </g>
   <g id="line2d_16">
    <path d="M 60.624503 269.839775 
L 71.760653 269.043846 
L 82.525599 268.052421 
L 92.919339 266.869462 
L 102.941874 265.500725 
L 112.593204 263.953829 
L 121.87333 262.238298 
L 130.78225 260.365581 
L 139.319965 258.349027 
L 147.857681 256.101093 
L 156.024191 253.720939 
L 164.190701 251.102582 
L 171.986006 248.368668 
L 179.781312 245.393599 
L 187.205412 242.325153 
L 194.629512 239.017127 
L 202.053612 235.459741 
L 209.106508 231.840826 
L 216.159403 227.981249 
L 223.212298 223.874643 
L 230.265193 219.515842 
L 237.318088 214.90123 
L 244.370984 210.029169 
L 251.795084 204.623504 
L 259.219184 198.938157 
L 267.014489 192.677729 
L 275.181 185.81855 
L 283.718715 178.350962 
L 293.370045 169.605479 
L 306.362221 157.497777 
L 324.551266 140.558538 
L 332.346572 133.620211 
L 338.657057 128.299662 
L 343.853927 124.195208 
L 348.679592 120.669837 
L 352.762847 117.947003 
L 356.474897 115.714185 
L 360.186947 113.746091 
L 363.527792 112.230456 
L 366.497433 111.109919 
L 369.467073 110.224568 
L 372.065508 109.660344 
L 374.663943 109.309132 
L 377.262378 109.187667 
L 379.860813 109.313594 
L 382.088043 109.632506 
L 384.315273 110.159114 
L 386.542503 110.906266 
L 388.769733 111.887385 
L 390.996963 113.116496 
L 393.224193 114.608242 
L 395.451424 116.377911 
L 397.678654 118.441457 
L 399.905884 120.815524 
L 402.133114 123.517471 
L 404.360344 126.565401 
L 406.587574 129.978181 
L 408.814804 133.775473 
L 411.042034 137.977762 
L 413.269264 142.606382 
L 415.867699 148.574962 
L 418.466134 155.190949 
L 421.064569 162.492943 
L 423.663004 170.52137 
L 426.261439 179.318552 
L 428.859875 188.92878 
L 431.45831 199.398393 
L 431.45831 199.398393 
" clip-path="url(#p1f5ffe0055)" style="fill: none; stroke: #9467bd; stroke-width: 1.5; stroke-linecap: square"/>
   </g>
   <g id="line2d_17">
    <path d="M 60.624503 229.512086 
L 69.533423 233.538279 
L 78.071138 237.155889 
L 86.237649 240.376028 
L 94.032954 243.212546 
L 101.457054 245.681897 
L 108.509949 247.802966 
L 115.562845 249.690091 
L 122.244535 251.248233 
L 128.55502 252.502207 
L 134.865505 253.532731 
L 140.804785 254.287563 
L 146.744066 254.823123 
L 152.683346 255.128631 
L 158.251421 255.196309 
L 163.819496 255.042845 
L 169.387571 254.65885 
L 174.584441 254.084097 
L 179.781312 253.292509 
L 184.978182 252.276338 
L 190.175052 251.027879 
L 195.371922 249.53953 
L 200.568792 247.803852 
L 205.394457 245.964387 
L 210.220123 243.89992 
L 215.045788 241.605223 
L 219.871453 239.075439 
L 224.697118 236.306165 
L 229.522783 233.293545 
L 234.348448 230.03437 
L 239.545319 226.245969 
L 244.742189 222.166907 
L 249.939059 217.796699 
L 255.135929 213.136492 
L 260.332799 208.189331 
L 265.900874 202.576351 
L 271.46895 196.649606 
L 277.40823 189.997095 
L 283.718715 182.578851 
L 290.400405 174.368736 
L 297.824505 164.880581 
L 306.733426 153.114446 
L 331.604161 120.017871 
L 337.543442 112.629738 
L 342.369107 106.965916 
L 346.452362 102.481926 
L 350.164412 98.704478 
L 353.505257 95.590298 
L 356.846102 92.787014 
L 359.815742 90.590109 
L 362.414177 88.921325 
L 365.012613 87.512656 
L 367.239843 86.530226 
L 369.467073 85.772072 
L 371.694303 85.254678 
L 373.921533 84.995306 
L 375.777558 84.989274 
L 377.633583 85.185853 
L 379.489608 85.596359 
L 381.345633 86.232532 
L 383.201658 87.106555 
L 385.057683 88.231068 
L 386.913708 89.619177 
L 388.769733 91.284474 
L 390.625758 93.241046 
L 392.481783 95.503495 
L 394.337808 98.08695 
L 396.193834 101.007083 
L 398.421064 104.978553 
L 400.648294 109.487392 
L 402.875524 114.563984 
L 405.102754 120.239993 
L 407.329984 126.548407 
L 409.557214 133.523585 
L 411.784444 141.201303 
L 414.011674 149.618803 
L 416.238904 158.814841 
L 418.837339 170.581423 
L 421.435774 183.52946 
L 424.034209 197.728895 
L 426.632645 213.25291 
L 429.23108 230.178048 
L 431.45831 245.861062 
L 431.45831 245.861062 
" clip-path="url(#p1f5ffe0055)" style="fill: none; stroke: #8c564b; stroke-width: 1.5; stroke-linecap: square"/>
   </g>
   <g id="patch_3">
    <path d="M 42.082813 318.121875 
L 42.082813 10.8 
" style="fill: none; stroke: #000000; stroke-width: 0.8; stroke-linejoin: miter; stroke-linecap: square"/>
   </g>
   <g id="patch_4">
    <path d="M 450 318.121875 
L 450 10.8 
" style="fill: none; stroke: #000000; stroke-width: 0.8; stroke-linejoin: miter; stroke-linecap: square"/>
   </g>
   <g id="patch_5">
    <path d="M 42.082813 318.121875 
L 450 318.121875 
" style="fill: none; stroke: #000000; stroke-width: 0.8; stroke-linejoin: miter; stroke-linecap: square"/>
   </g>
   <g id="patch_6">
    <path d="M 42.082813 10.8 
L 450 10.8 
" style="fill: none; stroke: #000000; stroke-width: 0.8; stroke-linejoin: miter; stroke-linecap: square"/>
   </g>
   <g id="legend_1">
    <g id="patch_7">
     <path d="M 49.082813 106.95625 
L 247.182813 106.95625 
Q 249.182813 106.95625 249.182813 104.95625 
L 249.182813 17.8 
Q 249.182813 15.8 247.182813 15.8 
L 49.082813 15.8 
Q 47.082813 15.8 47.082813 17.8 
L 47.082813 104.95625 
Q 47.082813 106.95625 49.082813 106.95625 
z
" style="fill: #ffffff; opacity: 0.8; stroke: #cccccc; stroke-linejoin: miter"/>
    </g>
    <g id="line2d_18">
     <path d="M 51.082813 23.898438 
L 61.082813 23.898438 
L 71.082813 23.898438 
" style="fill: none; stroke: #1f77b4; stroke-width: 1.5; stroke-linecap: square"/>
    </g>
    <g id="text_12">
     <!-- f(x) -->
     <g transform="translate(79.082813 27.398438)scale(0.1 -0.1)">
      <defs>
       <path id="DejaVuSans-66" d="M 2375 4863 
L 2375 4384 
L 1825 4384 
Q 1516 4384 1395 4259 
Q 1275 4134 1275 3809 
L 1275 3500 
L 2222 3500 
L 2222 3053 
L 1275 3053 
L 1275 0 
L 697 0 
L 697 3053 
L 147 3053 
L 147 3500 
L 697 3500 
L 697 3744 
Q 697 4328 969 4595 
Q 1241 4863 1831 4863 
L 2375 4863 
z
" transform="scale(0.015625)"/>
       <path id="DejaVuSans-28" d="M 1984 4856 
Q 1566 4138 1362 3434 
Q 1159 2731 1159 2009 
Q 1159 1288 1364 580 
Q 1569 -128 1984 -844 
L 1484 -844 
Q 1016 -109 783 600 
Q 550 1309 550 2009 
Q 550 2706 781 3412 
Q 1013 4119 1484 4856 
L 1984 4856 
z
" transform="scale(0.015625)"/>
       <path id="DejaVuSans-78" d="M 3513 3500 
L 2247 1797 
L 3578 0 
L 2900 0 
L 1881 1375 
L 863 0 
L 184 0 
L 1544 1831 
L 300 3500 
L 978 3500 
L 1906 2253 
L 2834 3500 
L 3513 3500 
z
" transform="scale(0.015625)"/>
       <path id="DejaVuSans-29" d="M 513 4856 
L 1013 4856 
Q 1481 4119 1714 3412 
Q 1947 2706 1947 2009 
Q 1947 1309 1714 600 
Q 1481 -109 1013 -844 
L 513 -844 
Q 928 -128 1133 580 
Q 1338 1288 1338 2009 
Q 1338 2731 1133 3434 
Q 928 4138 513 4856 
z
" transform="scale(0.015625)"/>
      </defs>
      <use xlink:href="#DejaVuSans-66"/>
      <use xlink:href="#DejaVuSans-28" x="35.205078"/>
      <use xlink:href="#DejaVuSans-78" x="74.21875"/>
      <use xlink:href="#DejaVuSans-29" x="133.398438"/>
     </g>
    </g>
    <g id="line2d_19">
     <path d="M 51.082813 38.576563 
L 61.082813 38.576563 
L 71.082813 38.576563 
" style="fill: none; stroke: #ff7f0e; stroke-width: 1.5; stroke-linecap: square"/>
    </g>
    <g id="text_13">
     <!-- A [MSE=8.55e-05] -->
     <g transform="translate(79.082813 42.076563)scale(0.1 -0.1)">
      <defs>
       <path id="DejaVuSans-41" d="M 2188 4044 
L 1331 1722 
L 3047 1722 
L 2188 4044 
z
M 1831 4666 
L 2547 4666 
L 4325 0 
L 3669 0 
L 3244 1197 
L 1141 1197 
L 716 0 
L 50 0 
L 1831 4666 
z
" transform="scale(0.015625)"/>
       <path id="DejaVuSans-20" transform="scale(0.015625)"/>
       <path id="DejaVuSans-5b" d="M 550 4863 
L 1875 4863 
L 1875 4416 
L 1125 4416 
L 1125 -397 
L 1875 -397 
L 1875 -844 
L 550 -844 
L 550 4863 
z
" transform="scale(0.015625)"/>
       <path id="DejaVuSans-4d" d="M 628 4666 
L 1569 4666 
L 2759 1491 
L 3956 4666 
L 4897 4666 
L 4897 0 
L 4281 0 
L 4281 4097 
L 3078 897 
L 2444 897 
L 1241 4097 
L 1241 0 
L 628 0 
L 628 4666 
z
" transform="scale(0.015625)"/>
       <path id="DejaVuSans-53" d="M 3425 4513 
L 3425 3897 
Q 3066 4069 2747 4153 
Q 2428 4238 2131 4238 
Q 1616 4238 1336 4038 
Q 1056 3838 1056 3469 
Q 1056 3159 1242 3001 
Q 1428 2844 1947 2747 
L 2328 2669 
Q 3034 2534 3370 2195 
Q 3706 1856 3706 1288 
Q 3706 609 3251 259 
Q 2797 -91 1919 -91 
Q 1588 -91 1214 -16 
Q 841 59 441 206 
L 441 856 
Q 825 641 1194 531 
Q 1563 422 1919 422 
Q 2459 422 2753 634 
Q 3047 847 3047 1241 
Q 3047 1584 2836 1778 
Q 2625 1972 2144 2069 
L 1759 2144 
Q 1053 2284 737 2584 
Q 422 2884 422 3419 
Q 422 4038 858 4394 
Q 1294 4750 2059 4750 
Q 2388 4750 2728 4690 
Q 3069 4631 3425 4513 
z
" transform="scale(0.015625)"/>
       <path id="DejaVuSans-45" d="M 628 4666 
L 3578 4666 
L 3578 4134 
L 1259 4134 
L 1259 2753 
L 3481 2753 
L 3481 2222 
L 1259 2222 
L 1259 531 
L 3634 531 
L 3634 0 
L 628 0 
L 628 4666 
z
" transform="scale(0.015625)"/>
       <path id="DejaVuSans-3d" d="M 678 2906 
L 4684 2906 
L 4684 2381 
L 678 2381 
L 678 2906 
z
M 678 1631 
L 4684 1631 
L 4684 1100 
L 678 1100 
L 678 1631 
z
" transform="scale(0.015625)"/>
       <path id="DejaVuSans-35" d="M 691 4666 
L 3169 4666 
L 3169 4134 
L 1269 4134 
L 1269 2991 
Q 1406 3038 1543 3061 
Q 1681 3084 1819 3084 
Q 2600 3084 3056 2656 
Q 3513 2228 3513 1497 
Q 3513 744 3044 326 
Q 2575 -91 1722 -91 
Q 1428 -91 1123 -41 
Q 819 9 494 109 
L 494 744 
Q 775 591 1075 516 
Q 1375 441 1709 441 
Q 2250 441 2565 725 
Q 2881 1009 2881 1497 
Q 2881 1984 2565 2268 
Q 2250 2553 1709 2553 
Q 1456 2553 1204 2497 
Q 953 2441 691 2322 
L 691 4666 
z
" transform="scale(0.015625)"/>
       <path id="DejaVuSans-65" d="M 3597 1894 
L 3597 1613 
L 953 1613 
Q 991 1019 1311 708 
Q 1631 397 2203 397 
Q 2534 397 2845 478 
Q 3156 559 3463 722 
L 3463 178 
Q 3153 47 2828 -22 
Q 2503 -91 2169 -91 
Q 1331 -91 842 396 
Q 353 884 353 1716 
Q 353 2575 817 3079 
Q 1281 3584 2069 3584 
Q 2775 3584 3186 3129 
Q 3597 2675 3597 1894 
z
M 3022 2063 
Q 3016 2534 2758 2815 
Q 2500 3097 2075 3097 
Q 1594 3097 1305 2825 
Q 1016 2553 972 2059 
L 3022 2063 
z
" transform="scale(0.015625)"/>
       <path id="DejaVuSans-2d" d="M 313 2009 
L 1997 2009 
L 1997 1497 
L 313 1497 
L 313 2009 
z
" transform="scale(0.015625)"/>
       <path id="DejaVuSans-5d" d="M 1947 4863 
L 1947 -844 
L 622 -844 
L 622 -397 
L 1369 -397 
L 1369 4416 
L 622 4416 
L 622 4863 
L 1947 4863 
z
" transform="scale(0.015625)"/>
      </defs>
      <use xlink:href="#DejaVuSans-41"/>
      <use xlink:href="#DejaVuSans-20" x="68.408203"/>
      <use xlink:href="#DejaVuSans-5b" x="100.195312"/>
      <use xlink:href="#DejaVuSans-4d" x="139.208984"/>
      <use xlink:href="#DejaVuSans-53" x="225.488281"/>
      <use xlink:href="#DejaVuSans-45" x="288.964844"/>
      <use xlink:href="#DejaVuSans-3d" x="352.148438"/>
      <use xlink:href="#DejaVuSans-38" x="435.9375"/>
      <use xlink:href="#DejaVuSans-2e" x="499.560547"/>
      <use xlink:href="#DejaVuSans-35" x="531.347656"/>
      <use xlink:href="#DejaVuSans-35" x="594.970703"/>
      <use xlink:href="#DejaVuSans-65" x="658.59375"/>
      <use xlink:href="#DejaVuSans-2d" x="720.117188"/>
      <use xlink:href="#DejaVuSans-30" x="756.201172"/>
      <use xlink:href="#DejaVuSans-35" x="819.824219"/>
      <use xlink:href="#DejaVuSans-5d" x="883.447266"/>
     </g>
    </g>
    <g id="line2d_20">
     <path d="M 51.082813 53.25625 
L 61.082813 53.25625 
L 71.082813 53.25625 
" style="fill: none; stroke: #2ca02c; stroke-width: 1.5; stroke-linecap: square"/>
    </g>
    <g id="text_14">
     <!-- P [MSE=0.0106] [$\eta$=0.534] -->
     <g transform="translate(79.082813 56.75625)scale(0.1 -0.1)">
      <defs>
       <path id="DejaVuSans-50" d="M 1259 4147 
L 1259 2394 
L 2053 2394 
Q 2494 2394 2734 2622 
Q 2975 2850 2975 3272 
Q 2975 3691 2734 3919 
Q 2494 4147 2053 4147 
L 1259 4147 
z
M 628 4666 
L 2053 4666 
Q 2838 4666 3239 4311 
Q 3641 3956 3641 3272 
Q 3641 2581 3239 2228 
Q 2838 1875 2053 1875 
L 1259 1875 
L 1259 0 
L 628 0 
L 628 4666 
z
" transform="scale(0.015625)"/>
       <path id="DejaVuSans-Oblique-3b7" d="M 3703 2113 
L 3034 -1331 
L 2459 -1331 
L 3125 2094 
Q 3222 2591 3075 2838 
Q 2931 3084 2544 3084 
Q 2078 3084 1750 2788 
Q 1425 2491 1325 1978 
L 941 0 
L 363 0 
L 1044 3500 
L 1622 3500 
L 1516 2956 
Q 1781 3272 2094 3428 
Q 2403 3584 2769 3584 
Q 3372 3584 3609 3213 
Q 3844 2838 3703 2113 
z
" transform="scale(0.015625)"/>
       <path id="DejaVuSans-33" d="M 2597 2516 
Q 3050 2419 3304 2112 
Q 3559 1806 3559 1356 
Q 3559 666 3084 287 
Q 2609 -91 1734 -91 
Q 1441 -91 1130 -33 
Q 819 25 488 141 
L 488 750 
Q 750 597 1062 519 
Q 1375 441 1716 441 
Q 2309 441 2620 675 
Q 2931 909 2931 1356 
Q 2931 1769 2642 2001 
Q 2353 2234 1838 2234 
L 1294 2234 
L 1294 2753 
L 1863 2753 
Q 2328 2753 2575 2939 
Q 2822 3125 2822 3475 
Q 2822 3834 2567 4026 
Q 2313 4219 1838 4219 
Q 1578 4219 1281 4162 
Q 984 4106 628 3988 
L 628 4550 
Q 988 4650 1302 4700 
Q 1616 4750 1894 4750 
Q 2613 4750 3031 4423 
Q 3450 4097 3450 3541 
Q 3450 3153 3228 2886 
Q 3006 2619 2597 2516 
z
" transform="scale(0.015625)"/>
      </defs>
      <use xlink:href="#DejaVuSans-50" transform="translate(0 0.015625)"/>
      <use xlink:href="#DejaVuSans-20" transform="translate(60.302734 0.015625)"/>
      <use xlink:href="#DejaVuSans-5b" transform="translate(92.089844 0.015625)"/>
      <use xlink:href="#DejaVuSans-4d" transform="translate(131.103516 0.015625)"/>
      <use xlink:href="#DejaVuSans-53" transform="translate(217.382812 0.015625)"/>
      <use xlink:href="#DejaVuSans-45" transform="translate(280.859375 0.015625)"/>
      <use xlink:href="#DejaVuSans-3d" transform="translate(344.042969 0.015625)"/>
      <use xlink:href="#DejaVuSans-30" transform="translate(427.832031 0.015625)"/>
      <use xlink:href="#DejaVuSans-2e" transform="translate(491.455078 0.015625)"/>
      <use xlink:href="#DejaVuSans-30" transform="translate(523.242188 0.015625)"/>
      <use xlink:href="#DejaVuSans-31" transform="translate(586.865234 0.015625)"/>
      <use xlink:href="#DejaVuSans-30" transform="translate(650.488281 0.015625)"/>
      <use xlink:href="#DejaVuSans-36" transform="translate(714.111328 0.015625)"/>
      <use xlink:href="#DejaVuSans-5d" transform="translate(777.734375 0.015625)"/>
      <use xlink:href="#DejaVuSans-20" transform="translate(816.748047 0.015625)"/>
      <use xlink:href="#DejaVuSans-5b" transform="translate(848.535156 0.015625)"/>
      <use xlink:href="#DejaVuSans-Oblique-3b7" transform="translate(887.548828 0.015625)"/>
      <use xlink:href="#DejaVuSans-3d" transform="translate(950.927734 0.015625)"/>
      <use xlink:href="#DejaVuSans-30" transform="translate(1034.716797 0.015625)"/>
      <use xlink:href="#DejaVuSans-2e" transform="translate(1098.339844 0.015625)"/>
      <use xlink:href="#DejaVuSans-35" transform="translate(1130.126953 0.015625)"/>
      <use xlink:href="#DejaVuSans-33" transform="translate(1193.75 0.015625)"/>
      <use xlink:href="#DejaVuSans-34" transform="translate(1257.373047 0.015625)"/>
      <use xlink:href="#DejaVuSans-5d" transform="translate(1320.996094 0.015625)"/>
     </g>
    </g>
    <g id="line2d_21">
     <path d="M 51.082813 67.95625 
L 61.082813 67.95625 
L 71.082813 67.95625 
" style="fill: none; stroke: #d62728; stroke-width: 1.5; stroke-linecap: square"/>
    </g>
    <g id="text_15">
     <!-- M [MSE=0.00566] [$\eta$=0.433] -->
     <g transform="translate(79.082813 71.45625)scale(0.1 -0.1)">
      <use xlink:href="#DejaVuSans-4d" transform="translate(0 0.015625)"/>
      <use xlink:href="#DejaVuSans-20" transform="translate(86.279297 0.015625)"/>
      <use xlink:href="#DejaVuSans-5b" transform="translate(118.066406 0.015625)"/>
      <use xlink:href="#DejaVuSans-4d" transform="translate(157.080078 0.015625)"/>
      <use xlink:href="#DejaVuSans-53" transform="translate(243.359375 0.015625)"/>
      <use xlink:href="#DejaVuSans-45" transform="translate(306.835938 0.015625)"/>
      <use xlink:href="#DejaVuSans-3d" transform="translate(370.019531 0.015625)"/>
      <use xlink:href="#DejaVuSans-30" transform="translate(453.808594 0.015625)"/>
      <use xlink:href="#DejaVuSans-2e" transform="translate(517.431641 0.015625)"/>
      <use xlink:href="#DejaVuSans-30" transform="translate(549.21875 0.015625)"/>
      <use xlink:href="#DejaVuSans-30" transform="translate(612.841797 0.015625)"/>
      <use xlink:href="#DejaVuSans-35" transform="translate(676.464844 0.015625)"/>
      <use xlink:href="#DejaVuSans-36" transform="translate(740.087891 0.015625)"/>
      <use xlink:href="#DejaVuSans-36" transform="translate(803.710938 0.015625)"/>
      <use xlink:href="#DejaVuSans-5d" transform="translate(867.333984 0.015625)"/>
      <use xlink:href="#DejaVuSans-20" transform="translate(906.347656 0.015625)"/>
      <use xlink:href="#DejaVuSans-5b" transform="translate(938.134766 0.015625)"/>
      <use xlink:href="#DejaVuSans-Oblique-3b7" transform="translate(977.148438 0.015625)"/>
      <use xlink:href="#DejaVuSans-3d" transform="translate(1040.527344 0.015625)"/>
      <use xlink:href="#DejaVuSans-30" transform="translate(1124.316406 0.015625)"/>
      <use xlink:href="#DejaVuSans-2e" transform="translate(1187.939453 0.015625)"/>
      <use xlink:href="#DejaVuSans-34" transform="translate(1219.726562 0.015625)"/>
      <use xlink:href="#DejaVuSans-33" transform="translate(1283.349609 0.015625)"/>
      <use xlink:href="#DejaVuSans-33" transform="translate(1346.972656 0.015625)"/>
      <use xlink:href="#DejaVuSans-5d" transform="translate(1410.595703 0.015625)"/>
     </g>
    </g>
    <g id="line2d_22">
     <path d="M 51.082813 82.65625 
L 61.082813 82.65625 
L 71.082813 82.65625 
" style="fill: none; stroke: #9467bd; stroke-width: 1.5; stroke-linecap: square"/>
    </g>
    <g id="text_16">
     <!-- S [MSE=0.0095] [$\eta$=0.534] -->
     <g transform="translate(79.082813 86.15625)scale(0.1 -0.1)">
      <defs>
       <path id="DejaVuSans-39" d="M 703 97 
L 703 672 
Q 941 559 1184 500 
Q 1428 441 1663 441 
Q 2288 441 2617 861 
Q 2947 1281 2994 2138 
Q 2813 1869 2534 1725 
Q 2256 1581 1919 1581 
Q 1219 1581 811 2004 
Q 403 2428 403 3163 
Q 403 3881 828 4315 
Q 1253 4750 1959 4750 
Q 2769 4750 3195 4129 
Q 3622 3509 3622 2328 
Q 3622 1225 3098 567 
Q 2575 -91 1691 -91 
Q 1453 -91 1209 -44 
Q 966 3 703 97 
z
M 1959 2075 
Q 2384 2075 2632 2365 
Q 2881 2656 2881 3163 
Q 2881 3666 2632 3958 
Q 2384 4250 1959 4250 
Q 1534 4250 1286 3958 
Q 1038 3666 1038 3163 
Q 1038 2656 1286 2365 
Q 1534 2075 1959 2075 
z
" transform="scale(0.015625)"/>
      </defs>
      <use xlink:href="#DejaVuSans-53" transform="translate(0 0.015625)"/>
      <use xlink:href="#DejaVuSans-20" transform="translate(63.476562 0.015625)"/>
      <use xlink:href="#DejaVuSans-5b" transform="translate(95.263672 0.015625)"/>
      <use xlink:href="#DejaVuSans-4d" transform="translate(134.277344 0.015625)"/>
      <use xlink:href="#DejaVuSans-53" transform="translate(220.556641 0.015625)"/>
      <use xlink:href="#DejaVuSans-45" transform="translate(284.033203 0.015625)"/>
      <use xlink:href="#DejaVuSans-3d" transform="translate(347.216797 0.015625)"/>
      <use xlink:href="#DejaVuSans-30" transform="translate(431.005859 0.015625)"/>
      <use xlink:href="#DejaVuSans-2e" transform="translate(494.628906 0.015625)"/>
      <use xlink:href="#DejaVuSans-30" transform="translate(526.416016 0.015625)"/>
      <use xlink:href="#DejaVuSans-30" transform="translate(590.039062 0.015625)"/>
      <use xlink:href="#DejaVuSans-39" transform="translate(653.662109 0.015625)"/>
      <use xlink:href="#DejaVuSans-35" transform="translate(717.285156 0.015625)"/>
      <use xlink:href="#DejaVuSans-5d" transform="translate(780.908203 0.015625)"/>
      <use xlink:href="#DejaVuSans-20" transform="translate(819.921875 0.015625)"/>
      <use xlink:href="#DejaVuSans-5b" transform="translate(851.708984 0.015625)"/>
      <use xlink:href="#DejaVuSans-Oblique-3b7" transform="translate(890.722656 0.015625)"/>
      <use xlink:href="#DejaVuSans-3d" transform="translate(954.101562 0.015625)"/>
      <use xlink:href="#DejaVuSans-30" transform="translate(1037.890625 0.015625)"/>
      <use xlink:href="#DejaVuSans-2e" transform="translate(1101.513672 0.015625)"/>
      <use xlink:href="#DejaVuSans-35" transform="translate(1133.300781 0.015625)"/>
      <use xlink:href="#DejaVuSans-33" transform="translate(1196.923828 0.015625)"/>
      <use xlink:href="#DejaVuSans-34" transform="translate(1260.546875 0.015625)"/>
      <use xlink:href="#DejaVuSans-5d" transform="translate(1324.169922 0.015625)"/>
     </g>
    </g>
    <g id="line2d_23">
     <path d="M 51.082813 97.35625 
L 61.082813 97.35625 
L 71.082813 97.35625 
" style="fill: none; stroke: #8c564b; stroke-width: 1.5; stroke-linecap: square"/>
    </g>
    <g id="text_17">
     <!-- M + S [MSE=0.00567] [$\eta$=0.433] -->
     <g transform="translate(79.082813 100.85625)scale(0.1 -0.1)">
      <defs>
       <path id="DejaVuSans-2b" d="M 2944 4013 
L 2944 2272 
L 4684 2272 
L 4684 1741 
L 2944 1741 
L 2944 0 
L 2419 0 
L 2419 1741 
L 678 1741 
L 678 2272 
L 2419 2272 
L 2419 4013 
L 2944 4013 
z
" transform="scale(0.015625)"/>
       <path id="DejaVuSans-37" d="M 525 4666 
L 3525 4666 
L 3525 4397 
L 1831 0 
L 1172 0 
L 2766 4134 
L 525 4134 
L 525 4666 
z
" transform="scale(0.015625)"/>
      </defs>
      <use xlink:href="#DejaVuSans-4d" transform="translate(0 0.015625)"/>
      <use xlink:href="#DejaVuSans-20" transform="translate(86.279297 0.015625)"/>
      <use xlink:href="#DejaVuSans-2b" transform="translate(118.066406 0.015625)"/>
      <use xlink:href="#DejaVuSans-20" transform="translate(201.855469 0.015625)"/>
      <use xlink:href="#DejaVuSans-53" transform="translate(233.642578 0.015625)"/>
      <use xlink:href="#DejaVuSans-20" transform="translate(297.119141 0.015625)"/>
      <use xlink:href="#DejaVuSans-5b" transform="translate(328.90625 0.015625)"/>
      <use xlink:href="#DejaVuSans-4d" transform="translate(367.919922 0.015625)"/>
      <use xlink:href="#DejaVuSans-53" transform="translate(454.199219 0.015625)"/>
      <use xlink:href="#DejaVuSans-45" transform="translate(517.675781 0.015625)"/>
      <use xlink:href="#DejaVuSans-3d" transform="translate(580.859375 0.015625)"/>
      <use xlink:href="#DejaVuSans-30" transform="translate(664.648438 0.015625)"/>
      <use xlink:href="#DejaVuSans-2e" transform="translate(728.271484 0.015625)"/>
      <use xlink:href="#DejaVuSans-30" transform="translate(760.058594 0.015625)"/>
      <use xlink:href="#DejaVuSans-30" transform="translate(823.681641 0.015625)"/>
      <use xlink:href="#DejaVuSans-35" transform="translate(887.304688 0.015625)"/>
      <use xlink:href="#DejaVuSans-36" transform="translate(950.927734 0.015625)"/>
      <use xlink:href="#DejaVuSans-37" transform="translate(1014.550781 0.015625)"/>
      <use xlink:href="#DejaVuSans-5d" transform="translate(1078.173828 0.015625)"/>
      <use xlink:href="#DejaVuSans-20" transform="translate(1117.1875 0.015625)"/>
      <use xlink:href="#DejaVuSans-5b" transform="translate(1148.974609 0.015625)"/>
      <use xlink:href="#DejaVuSans-Oblique-3b7" transform="translate(1187.988281 0.015625)"/>
      <use xlink:href="#DejaVuSans-3d" transform="translate(1251.367188 0.015625)"/>
      <use xlink:href="#DejaVuSans-30" transform="translate(1335.15625 0.015625)"/>
      <use xlink:href="#DejaVuSans-2e" transform="translate(1398.779297 0.015625)"/>
      <use xlink:href="#DejaVuSans-34" transform="translate(1430.566406 0.015625)"/>
      <use xlink:href="#DejaVuSans-33" transform="translate(1494.189453 0.015625)"/>
      <use xlink:href="#DejaVuSans-33" transform="translate(1557.8125 0.015625)"/>
      <use xlink:href="#DejaVuSans-5d" transform="translate(1621.435547 0.015625)"/>
     </g>
    </g>
   </g>
  </g>
 </g>
 <defs>
  <clipPath id="p1f5ffe0055">
   <rect x="42.082813" y="10.8" width="407.917187" height="307.321875"/>
  </clipPath>
 </defs>
</svg>
