<?xml version="1.0" encoding="utf-8" standalone="no"?>
<!DOCTYPE svg PUBLIC "-//W3C//DTD SVG 1.1//EN"
  "http://www.w3.org/Graphics/SVG/1.1/DTD/svg11.dtd">
<svg xmlns:xlink="http://www.w3.org/1999/xlink" width="460.8pt" height="345.6pt" viewBox="0 0 460.8 345.6" xmlns="http://www.w3.org/2000/svg" version="1.1">
 <metadata>
  <rdf:RDF xmlns:dc="http://purl.org/dc/elements/1.1/" xmlns:cc="http://creativecommons.org/ns#" xmlns:rdf="http://www.w3.org/1999/02/22-rdf-syntax-ns#">
   <cc:Work>
    <dc:type rdf:resource="http://purl.org/dc/dcmitype/StillImage"/>
    <dc:date>2022-10-26T15:14:50.917140</dc:date>
    <dc:format>image/svg+xml</dc:format>
    <dc:creator>
     <cc:Agent>
      <dc:title>Matplotlib v3.5.3, https://matplotlib.org/</dc:title>
     </cc:Agent>
    </dc:creator>
   </cc:Work>
  </rdf:RDF>
 </metadata>
 <defs>
  <style type="text/css">*{stroke-linejoin: round; stroke-linecap: butt}</style>
 </defs>
 <g id="figure_1">
  <g id="patch_1">
   <path d="M 0 345.6 
L 460.8 345.6 
L 460.8 0 
L 0 0 
z
" style="fill: #ffffff"/>
  </g>
  <g id="axes_1">
   <g id="patch_2">
    <path d="M 42.082813 318.121875 
L 450 318.121875 
L 450 10.8 
L 42.082813 10.8 
z
" style="fill: #ffffff"/>
   </g>
   <g id="matplotlib.axis_1">
    <g id="xtick_1">
     <g id="line2d_1">
      <defs>
       <path id="m8e6ef3da19" d="M 0 0 
L 0 3.5 
" style="stroke: #000000; stroke-width: 0.8"/>
      </defs>
      <g>
       <use xlink:href="#m8e6ef3da19" x="60.624503" y="318.121875" style="stroke: #000000; stroke-width: 0.8"/>
      </g>
     </g>
     <g id="text_1">
      <!-- 0.0 -->
      <g transform="translate(52.67294 332.720312)scale(0.1 -0.1)">
       <defs>
        <path id="DejaVuSans-30" d="M 2034 4250 
Q 1547 4250 1301 3770 
Q 1056 3291 1056 2328 
Q 1056 1369 1301 889 
Q 1547 409 2034 409 
Q 2525 409 2770 889 
Q 3016 1369 3016 2328 
Q 3016 3291 2770 3770 
Q 2525 4250 2034 4250 
z
M 2034 4750 
Q 2819 4750 3233 4129 
Q 3647 3509 3647 2328 
Q 3647 1150 3233 529 
Q 2819 -91 2034 -91 
Q 1250 -91 836 529 
Q 422 1150 422 2328 
Q 422 3509 836 4129 
Q 1250 4750 2034 4750 
z
" transform="scale(0.015625)"/>
        <path id="DejaVuSans-2e" d="M 684 794 
L 1344 794 
L 1344 0 
L 684 0 
L 684 794 
z
" transform="scale(0.015625)"/>
       </defs>
       <use xlink:href="#DejaVuSans-30"/>
       <use xlink:href="#DejaVuSans-2e" x="63.623047"/>
       <use xlink:href="#DejaVuSans-30" x="95.410156"/>
      </g>
     </g>
    </g>
    <g id="xtick_2">
     <g id="line2d_2">
      <g>
       <use xlink:href="#m8e6ef3da19" x="134.791264" y="318.121875" style="stroke: #000000; stroke-width: 0.8"/>
      </g>
     </g>
     <g id="text_2">
      <!-- 0.2 -->
      <g transform="translate(126.839702 332.720312)scale(0.1 -0.1)">
       <defs>
        <path id="DejaVuSans-32" d="M 1228 531 
L 3431 531 
L 3431 0 
L 469 0 
L 469 531 
Q 828 903 1448 1529 
Q 2069 2156 2228 2338 
Q 2531 2678 2651 2914 
Q 2772 3150 2772 3378 
Q 2772 3750 2511 3984 
Q 2250 4219 1831 4219 
Q 1534 4219 1204 4116 
Q 875 4013 500 3803 
L 500 4441 
Q 881 4594 1212 4672 
Q 1544 4750 1819 4750 
Q 2544 4750 2975 4387 
Q 3406 4025 3406 3419 
Q 3406 3131 3298 2873 
Q 3191 2616 2906 2266 
Q 2828 2175 2409 1742 
Q 1991 1309 1228 531 
z
" transform="scale(0.015625)"/>
       </defs>
       <use xlink:href="#DejaVuSans-30"/>
       <use xlink:href="#DejaVuSans-2e" x="63.623047"/>
       <use xlink:href="#DejaVuSans-32" x="95.410156"/>
      </g>
     </g>
    </g>
    <g id="xtick_3">
     <g id="line2d_3">
      <g>
       <use xlink:href="#m8e6ef3da19" x="208.958026" y="318.121875" style="stroke: #000000; stroke-width: 0.8"/>
      </g>
     </g>
     <g id="text_3">
      <!-- 0.4 -->
      <g transform="translate(201.006463 332.720312)scale(0.1 -0.1)">
       <defs>
        <path id="DejaVuSans-34" d="M 2419 4116 
L 825 1625 
L 2419 1625 
L 2419 4116 
z
M 2253 4666 
L 3047 4666 
L 3047 1625 
L 3713 1625 
L 3713 1100 
L 3047 1100 
L 3047 0 
L 2419 0 
L 2419 1100 
L 313 1100 
L 313 1709 
L 2253 4666 
z
" transform="scale(0.015625)"/>
       </defs>
       <use xlink:href="#DejaVuSans-30"/>
       <use xlink:href="#DejaVuSans-2e" x="63.623047"/>
       <use xlink:href="#DejaVuSans-34" x="95.410156"/>
      </g>
     </g>
    </g>
    <g id="xtick_4">
     <g id="line2d_4">
      <g>
       <use xlink:href="#m8e6ef3da19" x="283.124787" y="318.121875" style="stroke: #000000; stroke-width: 0.8"/>
      </g>
     </g>
     <g id="text_4">
      <!-- 0.6 -->
      <g transform="translate(275.173224 332.720312)scale(0.1 -0.1)">
       <defs>
        <path id="DejaVuSans-36" d="M 2113 2584 
Q 1688 2584 1439 2293 
Q 1191 2003 1191 1497 
Q 1191 994 1439 701 
Q 1688 409 2113 409 
Q 2538 409 2786 701 
Q 3034 994 3034 1497 
Q 3034 2003 2786 2293 
Q 2538 2584 2113 2584 
z
M 3366 4563 
L 3366 3988 
Q 3128 4100 2886 4159 
Q 2644 4219 2406 4219 
Q 1781 4219 1451 3797 
Q 1122 3375 1075 2522 
Q 1259 2794 1537 2939 
Q 1816 3084 2150 3084 
Q 2853 3084 3261 2657 
Q 3669 2231 3669 1497 
Q 3669 778 3244 343 
Q 2819 -91 2113 -91 
Q 1303 -91 875 529 
Q 447 1150 447 2328 
Q 447 3434 972 4092 
Q 1497 4750 2381 4750 
Q 2619 4750 2861 4703 
Q 3103 4656 3366 4563 
z
" transform="scale(0.015625)"/>
       </defs>
       <use xlink:href="#DejaVuSans-30"/>
       <use xlink:href="#DejaVuSans-2e" x="63.623047"/>
       <use xlink:href="#DejaVuSans-36" x="95.410156"/>
      </g>
     </g>
    </g>
    <g id="xtick_5">
     <g id="line2d_5">
      <g>
       <use xlink:href="#m8e6ef3da19" x="357.291548" y="318.121875" style="stroke: #000000; stroke-width: 0.8"/>
      </g>
     </g>
     <g id="text_5">
      <!-- 0.8 -->
      <g transform="translate(349.339986 332.720312)scale(0.1 -0.1)">
       <defs>
        <path id="DejaVuSans-38" d="M 2034 2216 
Q 1584 2216 1326 1975 
Q 1069 1734 1069 1313 
Q 1069 891 1326 650 
Q 1584 409 2034 409 
Q 2484 409 2743 651 
Q 3003 894 3003 1313 
Q 3003 1734 2745 1975 
Q 2488 2216 2034 2216 
z
M 1403 2484 
Q 997 2584 770 2862 
Q 544 3141 544 3541 
Q 544 4100 942 4425 
Q 1341 4750 2034 4750 
Q 2731 4750 3128 4425 
Q 3525 4100 3525 3541 
Q 3525 3141 3298 2862 
Q 3072 2584 2669 2484 
Q 3125 2378 3379 2068 
Q 3634 1759 3634 1313 
Q 3634 634 3220 271 
Q 2806 -91 2034 -91 
Q 1263 -91 848 271 
Q 434 634 434 1313 
Q 434 1759 690 2068 
Q 947 2378 1403 2484 
z
M 1172 3481 
Q 1172 3119 1398 2916 
Q 1625 2713 2034 2713 
Q 2441 2713 2670 2916 
Q 2900 3119 2900 3481 
Q 2900 3844 2670 4047 
Q 2441 4250 2034 4250 
Q 1625 4250 1398 4047 
Q 1172 3844 1172 3481 
z
" transform="scale(0.015625)"/>
       </defs>
       <use xlink:href="#DejaVuSans-30"/>
       <use xlink:href="#DejaVuSans-2e" x="63.623047"/>
       <use xlink:href="#DejaVuSans-38" x="95.410156"/>
      </g>
     </g>
    </g>
    <g id="xtick_6">
     <g id="line2d_6">
      <g>
       <use xlink:href="#m8e6ef3da19" x="431.45831" y="318.121875" style="stroke: #000000; stroke-width: 0.8"/>
      </g>
     </g>
     <g id="text_6">
      <!-- 1.0 -->
      <g transform="translate(423.506747 332.720312)scale(0.1 -0.1)">
       <defs>
        <path id="DejaVuSans-31" d="M 794 531 
L 1825 531 
L 1825 4091 
L 703 3866 
L 703 4441 
L 1819 4666 
L 2450 4666 
L 2450 531 
L 3481 531 
L 3481 0 
L 794 0 
L 794 531 
z
" transform="scale(0.015625)"/>
       </defs>
       <use xlink:href="#DejaVuSans-31"/>
       <use xlink:href="#DejaVuSans-2e" x="63.623047"/>
       <use xlink:href="#DejaVuSans-30" x="95.410156"/>
      </g>
     </g>
    </g>
   </g>
   <g id="matplotlib.axis_2">
    <g id="ytick_1">
     <g id="line2d_7">
      <defs>
       <path id="m2b3c3517dd" d="M 0 0 
L -3.5 0 
" style="stroke: #000000; stroke-width: 0.8"/>
      </defs>
      <g>
       <use xlink:href="#m2b3c3517dd" x="42.082813" y="302.755781" style="stroke: #000000; stroke-width: 0.8"/>
      </g>
     </g>
     <g id="text_7">
      <!-- −0.2 -->
      <g transform="translate(10.8 306.555)scale(0.1 -0.1)">
       <defs>
        <path id="DejaVuSans-2212" d="M 678 2272 
L 4684 2272 
L 4684 1741 
L 678 1741 
L 678 2272 
z
" transform="scale(0.015625)"/>
       </defs>
       <use xlink:href="#DejaVuSans-2212"/>
       <use xlink:href="#DejaVuSans-30" x="83.789062"/>
       <use xlink:href="#DejaVuSans-2e" x="147.412109"/>
       <use xlink:href="#DejaVuSans-32" x="179.199219"/>
      </g>
     </g>
    </g>
    <g id="ytick_2">
     <g id="line2d_8">
      <g>
       <use xlink:href="#m2b3c3517dd" x="42.082813" y="241.291406" style="stroke: #000000; stroke-width: 0.8"/>
      </g>
     </g>
     <g id="text_8">
      <!-- 0.0 -->
      <g transform="translate(19.179688 245.090625)scale(0.1 -0.1)">
       <use xlink:href="#DejaVuSans-30"/>
       <use xlink:href="#DejaVuSans-2e" x="63.623047"/>
       <use xlink:href="#DejaVuSans-30" x="95.410156"/>
      </g>
     </g>
    </g>
    <g id="ytick_3">
     <g id="line2d_9">
      <g>
       <use xlink:href="#m2b3c3517dd" x="42.082813" y="179.827031" style="stroke: #000000; stroke-width: 0.8"/>
      </g>
     </g>
     <g id="text_9">
      <!-- 0.2 -->
      <g transform="translate(19.179688 183.62625)scale(0.1 -0.1)">
       <use xlink:href="#DejaVuSans-30"/>
       <use xlink:href="#DejaVuSans-2e" x="63.623047"/>
       <use xlink:href="#DejaVuSans-32" x="95.410156"/>
      </g>
     </g>
    </g>
    <g id="ytick_4">
     <g id="line2d_10">
      <g>
       <use xlink:href="#m2b3c3517dd" x="42.082813" y="118.362656" style="stroke: #000000; stroke-width: 0.8"/>
      </g>
     </g>
     <g id="text_10">
      <!-- 0.4 -->
      <g transform="translate(19.179688 122.161875)scale(0.1 -0.1)">
       <use xlink:href="#DejaVuSans-30"/>
       <use xlink:href="#DejaVuSans-2e" x="63.623047"/>
       <use xlink:href="#DejaVuSans-34" x="95.410156"/>
      </g>
     </g>
    </g>
    <g id="ytick_5">
     <g id="line2d_11">
      <g>
       <use xlink:href="#m2b3c3517dd" x="42.082813" y="56.898281" style="stroke: #000000; stroke-width: 0.8"/>
      </g>
     </g>
     <g id="text_11">
      <!-- 0.6 -->
      <g transform="translate(19.179688 60.6975)scale(0.1 -0.1)">
       <use xlink:href="#DejaVuSans-30"/>
       <use xlink:href="#DejaVuSans-2e" x="63.623047"/>
       <use xlink:href="#DejaVuSans-36" x="95.410156"/>
      </g>
     </g>
    </g>
   </g>
   <g id="line2d_12">
    <path d="M 60.624503 241.290678 
L 127.441405 241.395031 
L 135.97912 241.650725 
L 142.289605 242.054998 
L 147.115271 242.569349 
L 151.569731 243.269092 
L 155.281781 244.065976 
L 158.622626 244.986134 
L 161.963471 246.130939 
L 165.304316 247.530422 
L 168.273956 249.009828 
L 171.243596 250.726283 
L 174.213236 252.68908 
L 177.182877 254.900376 
L 180.523722 257.676463 
L 184.235772 261.088488 
L 188.319027 265.167092 
L 194.629512 271.843543 
L 200.197587 277.640143 
L 203.538432 280.828698 
L 206.508072 283.346491 
L 208.735303 284.978648 
L 210.962533 286.347083 
L 212.818558 287.258757 
L 214.674583 287.940827 
L 216.530608 288.374769 
L 218.386633 288.544141 
L 219.871453 288.479607 
L 221.356273 288.230689 
L 222.841093 287.792525 
L 224.325913 287.16145 
L 226.181938 286.097745 
L 228.037963 284.726943 
L 229.893988 283.050158 
L 231.750013 281.071551 
L 233.606038 278.798224 
L 235.833268 275.695306 
L 238.060498 272.204291 
L 240.658934 267.676662 
L 243.257369 262.70609 
L 246.227009 256.553017 
L 249.567854 249.132417 
L 253.651109 239.52461 
L 259.590389 224.926611 
L 271.840155 194.711277 
L 277.40823 181.651501 
L 282.6051 170.051342 
L 287.430765 159.833412 
L 292.25643 150.161999 
L 296.71089 141.723485 
L 301.165351 133.760992 
L 305.248606 126.892939 
L 309.331861 120.457293 
L 313.043911 115.005177 
L 316.755961 109.959162 
L 320.096806 105.789214 
L 323.437651 101.994937 
L 326.407291 98.956541 
L 329.376931 96.249606 
L 331.975366 94.165032 
L 334.573802 92.355508 
L 337.172237 90.829588 
L 339.399467 89.753033 
L 341.626697 88.894214 
L 343.853927 88.256269 
L 346.081157 87.841511 
L 348.308387 87.651388 
L 350.535617 87.686449 
L 352.762847 87.946322 
L 354.990077 88.429702 
L 357.217307 89.134351 
L 359.444537 90.057103 
L 361.671767 91.19388 
L 364.270203 92.783948 
L 366.868638 94.649176 
L 369.467073 96.778702 
L 372.436713 99.520283 
L 375.406353 102.570649 
L 378.747198 106.343552 
L 382.088043 110.444669 
L 385.800093 115.341966 
L 390.254553 121.620155 
L 395.451424 129.3799 
L 402.133114 139.814953 
L 421.435774 170.254475 
L 427.00385 178.492683 
L 431.45831 184.762706 
L 431.45831 184.762706 
" clip-path="url(#p9e95ccdd27)" style="fill: none; stroke: #1f77b4; stroke-width: 1.5; stroke-linecap: square"/>
   </g>
   <g id="line2d_13">
    <path d="M 60.624503 246.044694 
L 62.109323 244.344611 
L 63.594143 242.938659 
L 65.078963 241.799278 
L 66.563783 240.899956 
L 68.048603 240.215291 
L 69.904628 239.624505 
L 71.760653 239.286626 
L 73.616678 239.159966 
L 75.843908 239.232634 
L 78.442343 239.550978 
L 81.783189 240.200179 
L 94.404159 242.906789 
L 98.116209 243.338425 
L 101.457054 243.503969 
L 104.797899 243.455227 
L 108.509949 243.167252 
L 112.593204 242.611783 
L 117.790075 241.657588 
L 128.926225 239.522955 
L 133.00948 239.012125 
L 136.350325 238.805003 
L 139.69117 238.832575 
L 142.66081 239.082293 
L 145.630451 239.564111 
L 148.600091 240.291918 
L 151.569731 241.274038 
L 154.539371 242.513072 
L 157.509011 244.005847 
L 160.478651 245.743468 
L 163.819496 247.972746 
L 167.160341 250.464846 
L 171.243596 253.813774 
L 176.069262 258.095054 
L 185.720592 267.07829 
L 190.917462 271.731146 
L 195.000717 275.087964 
L 198.341562 277.547419 
L 201.311202 279.461539 
L 203.909637 280.891403 
L 206.508072 282.064328 
L 208.735303 282.846009 
L 210.962533 283.405598 
L 213.189763 283.729521 
L 215.416993 283.805485 
L 217.644223 283.622571 
L 219.500248 283.265516 
L 221.356273 282.717418 
L 223.583503 281.802083 
L 225.810733 280.600815 
L 228.037963 279.110032 
L 230.265193 277.32785 
L 232.492423 275.254107 
L 234.719653 272.890363 
L 237.318088 269.770605 
L 239.916524 266.268796 
L 242.514959 262.39616 
L 245.484599 257.534588 
L 248.454239 252.233139 
L 251.795084 245.781247 
L 255.507134 238.065458 
L 259.590389 229.002343 
L 264.044849 218.557072 
L 269.612925 204.91861 
L 288.54438 157.998184 
L 292.99884 147.771025 
L 297.082095 138.932862 
L 300.794145 131.422815 
L 304.134991 125.140512 
L 307.475836 119.345562 
L 310.445476 114.625349 
L 313.415116 110.324944 
L 316.013551 106.913438 
L 318.611986 103.83293 
L 321.210421 101.083537 
L 323.808856 98.662774 
L 326.407291 96.565722 
L 329.005726 94.785225 
L 331.604161 93.312133 
L 333.831392 92.285953 
L 336.058622 91.469975 
L 338.657057 90.772586 
L 341.255492 90.336107 
L 343.853927 90.146209 
L 346.452362 90.188531 
L 349.050797 90.449084 
L 351.649232 90.914667 
L 354.618872 91.682484 
L 357.588512 92.687118 
L 360.558152 93.916635 
L 363.898998 95.558991 
L 367.239843 97.471757 
L 370.580688 99.658447 
L 373.921533 102.130604 
L 377.262378 104.907451 
L 380.232018 107.652369 
L 383.201658 110.679971 
L 386.171298 114.013419 
L 389.140938 117.675507 
L 392.110578 121.686078 
L 395.080218 126.058753 
L 398.049859 130.796895 
L 401.390704 136.548703 
L 405.102754 143.402577 
L 410.299624 153.545015 
L 415.867699 164.347929 
L 418.466134 168.964319 
L 420.693364 172.478074 
L 422.549389 174.959901 
L 424.034209 176.567262 
L 425.147824 177.506607 
L 426.261439 178.181663 
L 427.375055 178.556929 
L 428.117465 178.621706 
L 428.859875 178.524086 
L 429.602285 178.251295 
L 430.344695 177.789898 
L 431.087105 177.125777 
L 431.45831 176.713091 
L 431.45831 176.713091 
" clip-path="url(#p9e95ccdd27)" style="fill: none; stroke: #ff7f0e; stroke-width: 1.5; stroke-linecap: square"/>
   </g>
   <g id="line2d_14">
    <path d="M 60.624503 263.400901 
L 72.503063 263.375889 
L 83.639214 263.130083 
L 94.032954 262.683392 
L 104.055489 262.031998 
L 113.70682 261.178722 
L 122.986945 260.128584 
L 131.52466 258.945343 
L 140.062375 257.536048 
L 148.228886 255.959321 
L 156.024191 254.229556 
L 163.448291 252.363429 
L 170.872391 250.269429 
L 177.925287 248.05562 
L 184.978182 245.609825 
L 191.659872 243.066751 
L 198.341562 240.2922 
L 205.023252 237.274835 
L 211.704943 234.003512 
L 218.015428 230.671037 
L 224.325913 227.093876 
L 230.636398 223.26418 
L 236.946883 219.175066 
L 243.257369 214.820914 
L 249.567854 210.197719 
L 255.878339 205.3035 
L 262.188824 200.138773 
L 268.870514 194.379407 
L 275.552205 188.329536 
L 282.6051 181.644307 
L 290.0292 174.302383 
L 298.19571 165.913939 
L 308.218246 155.282249 
L 333.831392 127.929092 
L 340.141877 121.61612 
L 345.338747 116.712744 
L 349.793207 112.790098 
L 353.876462 109.475107 
L 357.588512 106.738532 
L 360.929357 104.536926 
L 363.898998 102.815507 
L 366.868638 101.341826 
L 369.467073 100.276579 
L 372.065508 99.440554 
L 374.663943 98.853946 
L 376.891173 98.565822 
L 379.118403 98.490798 
L 381.345633 98.643733 
L 383.572863 99.040206 
L 385.800093 99.696534 
L 388.027323 100.629809 
L 389.883348 101.63198 
L 391.739373 102.84968 
L 393.595398 104.294118 
L 395.451424 105.976928 
L 397.678654 108.327984 
L 399.905884 111.061437 
L 402.133114 114.199993 
L 404.360344 117.767366 
L 406.587574 121.788321 
L 408.814804 126.288709 
L 411.042034 131.295503 
L 413.269264 136.836845 
L 415.496494 142.942083 
L 417.723724 149.641814 
L 419.950954 156.96793 
L 422.549389 166.351155 
L 425.147824 176.687404 
L 427.74626 188.034509 
L 430.344695 200.453076 
L 431.45831 206.118948 
L 431.45831 206.118948 
" clip-path="url(#p9e95ccdd27)" style="fill: none; stroke: #2ca02c; stroke-width: 1.5; stroke-linecap: square"/>
   </g>
   <g id="line2d_15">
    <path d="M 60.624503 253.607664 
L 71.760653 254.734798 
L 82.154394 255.56589 
L 91.805724 256.122782 
L 101.085849 256.440796 
L 109.994769 256.524171 
L 118.532485 256.379673 
L 126.698995 256.016642 
L 134.4943 255.447001 
L 141.9184 254.685206 
L 148.971296 253.748137 
L 156.024191 252.588079 
L 162.705881 251.269292 
L 169.387571 249.722618 
L 175.698057 248.039741 
L 182.008542 246.128427 
L 188.319027 243.975965 
L 194.258307 241.718253 
L 200.197587 239.224602 
L 206.136867 236.484135 
L 212.076148 233.486091 
L 217.644223 230.43214 
L 223.212298 227.134225 
L 228.780373 223.584466 
L 234.348448 219.775604 
L 239.916524 215.701186 
L 245.484599 211.355782 
L 251.052674 206.735236 
L 256.620749 201.836947 
L 262.560029 196.3052 
L 268.499309 190.458612 
L 274.43859 184.302627 
L 280.749075 177.433688 
L 287.430765 169.811476 
L 294.48366 161.408835 
L 302.278966 151.753223 
L 311.559091 139.875795 
L 337.172237 106.841385 
L 343.111517 99.68354 
L 347.937182 94.194334 
L 352.391642 89.467788 
L 356.103692 85.835331 
L 359.444537 82.847299 
L 362.785382 80.165893 
L 365.755023 78.073746 
L 368.353458 76.493961 
L 370.951893 75.171968 
L 373.179123 74.26216 
L 375.406353 73.575288 
L 377.633583 73.128083 
L 379.860813 72.938101 
L 381.716838 72.989533 
L 383.572863 73.243496 
L 385.428888 73.711564 
L 387.284913 74.40577 
L 389.140938 75.338621 
L 390.996963 76.523114 
L 392.852988 77.972747 
L 394.709013 79.70154 
L 396.565039 81.72405 
L 398.421064 84.055384 
L 400.277089 86.71122 
L 402.133114 89.707826 
L 404.360344 93.777366 
L 406.587574 98.392284 
L 408.814804 103.584264 
L 411.042034 109.386378 
L 413.269264 115.833139 
L 415.496494 122.960551 
L 417.723724 130.806159 
L 419.950954 139.409107 
L 422.178184 148.810195 
L 424.776619 160.843702 
L 427.375055 174.092059 
L 429.97349 188.62924 
L 431.45831 197.54454 
L 431.45831 197.54454 
" clip-path="url(#p9e95ccdd27)" style="fill: none; stroke: #d62728; stroke-width: 1.5; stroke-linecap: square"/>
   </g>
   <g id="line2d_16">
    <path d="M 60.624503 236.906347 
L 66.934988 242.16667 
L 72.874268 246.843638 
L 78.813548 251.241741 
L 84.381624 255.100468 
L 89.949699 258.692899 
L 95.517774 262.00924 
L 100.714644 264.847035 
L 105.911514 267.428645 
L 110.737179 269.590212 
L 115.562845 271.51923 
L 120.38851 273.210441 
L 125.214175 274.65884 
L 130.03984 275.859686 
L 134.4943 276.744574 
L 138.94876 277.411441 
L 143.40322 277.857234 
L 147.857681 278.079138 
L 152.312141 278.074598 
L 156.766601 277.841329 
L 161.221061 277.377332 
L 165.675521 276.680911 
L 170.129981 275.750695 
L 174.584441 274.585652 
L 179.038902 273.185111 
L 183.493362 271.548787 
L 187.947822 269.676797 
L 192.402282 267.569693 
L 196.856742 265.228483 
L 201.682407 262.429733 
L 206.508072 259.360575 
L 211.333738 256.024347 
L 216.159403 252.425192 
L 221.356273 248.260897 
L 226.553143 243.804931 
L 231.750013 239.066059 
L 237.318088 233.68636 
L 243.257369 227.619307 
L 249.196649 221.232838 
L 255.507134 214.123353 
L 262.188824 206.266997 
L 269.612925 197.193567 
L 278.15064 186.398589 
L 289.28679 171.935903 
L 309.703066 145.362997 
L 317.498371 135.635358 
L 323.808856 128.117066 
L 329.005726 122.247012 
L 333.831392 117.1178 
L 338.285852 112.70842 
L 342.369107 108.982894 
L 346.081157 105.89279 
L 349.422002 103.380059 
L 352.762847 101.146477 
L 355.732487 99.415795 
L 358.702127 97.944146 
L 361.300562 96.884127 
L 363.898998 96.050706 
L 366.497433 95.457863 
L 369.095868 95.120095 
L 371.323098 95.044975 
L 373.550328 95.178076 
L 375.777558 95.52949 
L 378.004788 96.109619 
L 380.232018 96.92919 
L 382.459248 97.999258 
L 384.686478 99.331217 
L 386.913708 100.936809 
L 389.140938 102.828132 
L 391.368168 105.017652 
L 393.595398 107.518209 
L 395.822629 110.343029 
L 398.049859 113.505736 
L 400.277089 117.020356 
L 402.504319 120.901334 
L 405.102754 125.912042 
L 407.701189 131.466035 
L 410.299624 137.58852 
L 412.898059 144.305566 
L 415.496494 151.644127 
L 418.094929 159.632073 
L 420.693364 168.298211 
L 423.291799 177.672317 
L 426.261439 189.292002 
L 429.23108 201.924185 
L 431.45831 212.092411 
L 431.45831 212.092411 
" clip-path="url(#p9e95ccdd27)" style="fill: none; stroke: #9467bd; stroke-width: 1.5; stroke-linecap: square"/>
   </g>
   <g id="line2d_17">
    <path d="M 60.624503 220.363177 
L 68.419808 227.100424 
L 75.843908 233.214146 
L 82.896804 238.724241 
L 89.578494 243.654346 
L 95.888979 248.031544 
L 101.828259 251.886016 
L 107.396334 255.250614 
L 112.96441 258.359365 
L 118.16128 261.016652 
L 123.35815 263.425067 
L 128.183815 265.427111 
L 133.00948 267.192417 
L 137.835145 268.709979 
L 142.289605 269.88126 
L 146.744066 270.823084 
L 151.198526 271.526585 
L 155.281781 271.954562 
L 159.365036 272.168145 
L 163.448291 272.160738 
L 167.531546 271.925916 
L 171.614801 271.45749 
L 175.698057 270.749563 
L 179.781312 269.796601 
L 183.864567 268.593501 
L 187.947822 267.135673 
L 192.031077 265.41912 
L 196.114332 263.440521 
L 200.197587 261.197326 
L 204.280842 258.687852 
L 208.364098 255.911374 
L 212.447353 252.868233 
L 216.530608 249.559936 
L 220.985068 245.651779 
L 225.439528 241.436885 
L 229.893988 236.922856 
L 234.719653 231.706609 
L 239.545319 226.166727 
L 244.742189 219.861074 
L 250.310264 212.746714 
L 256.249544 204.796832 
L 262.931234 195.482633 
L 271.46895 183.169318 
L 294.854865 149.175611 
L 300.794145 141.054387 
L 305.991016 134.316092 
L 310.445476 128.885236 
L 314.528731 124.238741 
L 318.240781 120.328903 
L 321.952831 116.752905 
L 325.293676 113.847135 
L 328.263316 111.532488 
L 331.232956 109.486807 
L 334.202597 107.725197 
L 336.801032 106.428019 
L 339.399467 105.368104 
L 341.997902 104.553589 
L 344.596337 103.991774 
L 347.194772 103.688999 
L 349.422002 103.639671 
L 351.649232 103.787145 
L 353.876462 104.133303 
L 356.103692 104.679232 
L 358.330922 105.425152 
L 360.929357 106.547138 
L 363.527792 107.937383 
L 366.126228 109.590876 
L 368.724663 111.500324 
L 371.694303 113.983295 
L 374.663943 116.768745 
L 378.004788 120.23379 
L 381.716838 124.444725 
L 385.800093 129.430433 
L 391.368168 136.609228 
L 399.534679 147.143784 
L 403.246729 151.550415 
L 406.216369 154.723602 
L 408.814804 157.146737 
L 411.042034 158.89433 
L 412.898059 160.074466 
L 414.754084 160.965356 
L 416.238904 161.444242 
L 417.723724 161.692999 
L 419.208544 161.68999 
L 420.693364 161.412542 
L 422.178184 160.836906 
L 423.663004 159.938227 
L 425.147824 158.690503 
L 426.632645 157.066554 
L 428.117465 155.037979 
L 429.602285 152.57512 
L 431.087105 149.647022 
L 431.45831 148.838549 
L 431.45831 148.838549 
" clip-path="url(#p9e95ccdd27)" style="fill: none; stroke: #8c564b; stroke-width: 1.5; stroke-linecap: square"/>
   </g>
   <g id="patch_3">
    <path d="M 42.082813 318.121875 
L 42.082813 10.8 
" style="fill: none; stroke: #000000; stroke-width: 0.8; stroke-linejoin: miter; stroke-linecap: square"/>
   </g>
   <g id="patch_4">
    <path d="M 450 318.121875 
L 450 10.8 
" style="fill: none; stroke: #000000; stroke-width: 0.8; stroke-linejoin: miter; stroke-linecap: square"/>
   </g>
   <g id="patch_5">
    <path d="M 42.082813 318.121875 
L 450 318.121875 
" style="fill: none; stroke: #000000; stroke-width: 0.8; stroke-linejoin: miter; stroke-linecap: square"/>
   </g>
   <g id="patch_6">
    <path d="M 42.082813 10.8 
L 450 10.8 
" style="fill: none; stroke: #000000; stroke-width: 0.8; stroke-linejoin: miter; stroke-linecap: square"/>
   </g>
   <g id="legend_1">
    <g id="patch_7">
     <path d="M 49.082813 106.86875 
L 333.582812 106.86875 
Q 335.582812 106.86875 335.582812 104.86875 
L 335.582812 17.8 
Q 335.582812 15.8 333.582812 15.8 
L 49.082813 15.8 
Q 47.082813 15.8 47.082813 17.8 
L 47.082813 104.86875 
Q 47.082813 106.86875 49.082813 106.86875 
z
" style="fill: #ffffff; opacity: 0.8; stroke: #cccccc; stroke-linejoin: miter"/>
    </g>
    <g id="line2d_18">
     <path d="M 51.082813 23.898438 
L 61.082813 23.898438 
L 71.082813 23.898438 
" style="fill: none; stroke: #1f77b4; stroke-width: 1.5; stroke-linecap: square"/>
    </g>
    <g id="text_12">
     <!-- f(x) -->
     <g transform="translate(79.082813 27.398438)scale(0.1 -0.1)">
      <defs>
       <path id="DejaVuSans-66" d="M 2375 4863 
L 2375 4384 
L 1825 4384 
Q 1516 4384 1395 4259 
Q 1275 4134 1275 3809 
L 1275 3500 
L 2222 3500 
L 2222 3053 
L 1275 3053 
L 1275 0 
L 697 0 
L 697 3053 
L 147 3053 
L 147 3500 
L 697 3500 
L 697 3744 
Q 697 4328 969 4595 
Q 1241 4863 1831 4863 
L 2375 4863 
z
" transform="scale(0.015625)"/>
       <path id="DejaVuSans-28" d="M 1984 4856 
Q 1566 4138 1362 3434 
Q 1159 2731 1159 2009 
Q 1159 1288 1364 580 
Q 1569 -128 1984 -844 
L 1484 -844 
Q 1016 -109 783 600 
Q 550 1309 550 2009 
Q 550 2706 781 3412 
Q 1013 4119 1484 4856 
L 1984 4856 
z
" transform="scale(0.015625)"/>
       <path id="DejaVuSans-78" d="M 3513 3500 
L 2247 1797 
L 3578 0 
L 2900 0 
L 1881 1375 
L 863 0 
L 184 0 
L 1544 1831 
L 300 3500 
L 978 3500 
L 1906 2253 
L 2834 3500 
L 3513 3500 
z
" transform="scale(0.015625)"/>
       <path id="DejaVuSans-29" d="M 513 4856 
L 1013 4856 
Q 1481 4119 1714 3412 
Q 1947 2706 1947 2009 
Q 1947 1309 1714 600 
Q 1481 -109 1013 -844 
L 513 -844 
Q 928 -128 1133 580 
Q 1338 1288 1338 2009 
Q 1338 2731 1133 3434 
Q 928 4138 513 4856 
z
" transform="scale(0.015625)"/>
      </defs>
      <use xlink:href="#DejaVuSans-66"/>
      <use xlink:href="#DejaVuSans-28" x="35.205078"/>
      <use xlink:href="#DejaVuSans-78" x="74.21875"/>
      <use xlink:href="#DejaVuSans-29" x="133.398438"/>
     </g>
    </g>
    <g id="line2d_19">
     <path d="M 51.082813 38.576563 
L 61.082813 38.576563 
L 71.082813 38.576563 
" style="fill: none; stroke: #ff7f0e; stroke-width: 1.5; stroke-linecap: square"/>
    </g>
    <g id="text_13">
     <!-- Analytic [MSE=8.56e-05] -->
     <g transform="translate(79.082813 42.076563)scale(0.1 -0.1)">
      <defs>
       <path id="DejaVuSans-41" d="M 2188 4044 
L 1331 1722 
L 3047 1722 
L 2188 4044 
z
M 1831 4666 
L 2547 4666 
L 4325 0 
L 3669 0 
L 3244 1197 
L 1141 1197 
L 716 0 
L 50 0 
L 1831 4666 
z
" transform="scale(0.015625)"/>
       <path id="DejaVuSans-6e" d="M 3513 2113 
L 3513 0 
L 2938 0 
L 2938 2094 
Q 2938 2591 2744 2837 
Q 2550 3084 2163 3084 
Q 1697 3084 1428 2787 
Q 1159 2491 1159 1978 
L 1159 0 
L 581 0 
L 581 3500 
L 1159 3500 
L 1159 2956 
Q 1366 3272 1645 3428 
Q 1925 3584 2291 3584 
Q 2894 3584 3203 3211 
Q 3513 2838 3513 2113 
z
" transform="scale(0.015625)"/>
       <path id="DejaVuSans-61" d="M 2194 1759 
Q 1497 1759 1228 1600 
Q 959 1441 959 1056 
Q 959 750 1161 570 
Q 1363 391 1709 391 
Q 2188 391 2477 730 
Q 2766 1069 2766 1631 
L 2766 1759 
L 2194 1759 
z
M 3341 1997 
L 3341 0 
L 2766 0 
L 2766 531 
Q 2569 213 2275 61 
Q 1981 -91 1556 -91 
Q 1019 -91 701 211 
Q 384 513 384 1019 
Q 384 1609 779 1909 
Q 1175 2209 1959 2209 
L 2766 2209 
L 2766 2266 
Q 2766 2663 2505 2880 
Q 2244 3097 1772 3097 
Q 1472 3097 1187 3025 
Q 903 2953 641 2809 
L 641 3341 
Q 956 3463 1253 3523 
Q 1550 3584 1831 3584 
Q 2591 3584 2966 3190 
Q 3341 2797 3341 1997 
z
" transform="scale(0.015625)"/>
       <path id="DejaVuSans-6c" d="M 603 4863 
L 1178 4863 
L 1178 0 
L 603 0 
L 603 4863 
z
" transform="scale(0.015625)"/>
       <path id="DejaVuSans-79" d="M 2059 -325 
Q 1816 -950 1584 -1140 
Q 1353 -1331 966 -1331 
L 506 -1331 
L 506 -850 
L 844 -850 
Q 1081 -850 1212 -737 
Q 1344 -625 1503 -206 
L 1606 56 
L 191 3500 
L 800 3500 
L 1894 763 
L 2988 3500 
L 3597 3500 
L 2059 -325 
z
" transform="scale(0.015625)"/>
       <path id="DejaVuSans-74" d="M 1172 4494 
L 1172 3500 
L 2356 3500 
L 2356 3053 
L 1172 3053 
L 1172 1153 
Q 1172 725 1289 603 
Q 1406 481 1766 481 
L 2356 481 
L 2356 0 
L 1766 0 
Q 1100 0 847 248 
Q 594 497 594 1153 
L 594 3053 
L 172 3053 
L 172 3500 
L 594 3500 
L 594 4494 
L 1172 4494 
z
" transform="scale(0.015625)"/>
       <path id="DejaVuSans-69" d="M 603 3500 
L 1178 3500 
L 1178 0 
L 603 0 
L 603 3500 
z
M 603 4863 
L 1178 4863 
L 1178 4134 
L 603 4134 
L 603 4863 
z
" transform="scale(0.015625)"/>
       <path id="DejaVuSans-63" d="M 3122 3366 
L 3122 2828 
Q 2878 2963 2633 3030 
Q 2388 3097 2138 3097 
Q 1578 3097 1268 2742 
Q 959 2388 959 1747 
Q 959 1106 1268 751 
Q 1578 397 2138 397 
Q 2388 397 2633 464 
Q 2878 531 3122 666 
L 3122 134 
Q 2881 22 2623 -34 
Q 2366 -91 2075 -91 
Q 1284 -91 818 406 
Q 353 903 353 1747 
Q 353 2603 823 3093 
Q 1294 3584 2113 3584 
Q 2378 3584 2631 3529 
Q 2884 3475 3122 3366 
z
" transform="scale(0.015625)"/>
       <path id="DejaVuSans-20" transform="scale(0.015625)"/>
       <path id="DejaVuSans-5b" d="M 550 4863 
L 1875 4863 
L 1875 4416 
L 1125 4416 
L 1125 -397 
L 1875 -397 
L 1875 -844 
L 550 -844 
L 550 4863 
z
" transform="scale(0.015625)"/>
       <path id="DejaVuSans-4d" d="M 628 4666 
L 1569 4666 
L 2759 1491 
L 3956 4666 
L 4897 4666 
L 4897 0 
L 4281 0 
L 4281 4097 
L 3078 897 
L 2444 897 
L 1241 4097 
L 1241 0 
L 628 0 
L 628 4666 
z
" transform="scale(0.015625)"/>
       <path id="DejaVuSans-53" d="M 3425 4513 
L 3425 3897 
Q 3066 4069 2747 4153 
Q 2428 4238 2131 4238 
Q 1616 4238 1336 4038 
Q 1056 3838 1056 3469 
Q 1056 3159 1242 3001 
Q 1428 2844 1947 2747 
L 2328 2669 
Q 3034 2534 3370 2195 
Q 3706 1856 3706 1288 
Q 3706 609 3251 259 
Q 2797 -91 1919 -91 
Q 1588 -91 1214 -16 
Q 841 59 441 206 
L 441 856 
Q 825 641 1194 531 
Q 1563 422 1919 422 
Q 2459 422 2753 634 
Q 3047 847 3047 1241 
Q 3047 1584 2836 1778 
Q 2625 1972 2144 2069 
L 1759 2144 
Q 1053 2284 737 2584 
Q 422 2884 422 3419 
Q 422 4038 858 4394 
Q 1294 4750 2059 4750 
Q 2388 4750 2728 4690 
Q 3069 4631 3425 4513 
z
" transform="scale(0.015625)"/>
       <path id="DejaVuSans-45" d="M 628 4666 
L 3578 4666 
L 3578 4134 
L 1259 4134 
L 1259 2753 
L 3481 2753 
L 3481 2222 
L 1259 2222 
L 1259 531 
L 3634 531 
L 3634 0 
L 628 0 
L 628 4666 
z
" transform="scale(0.015625)"/>
       <path id="DejaVuSans-3d" d="M 678 2906 
L 4684 2906 
L 4684 2381 
L 678 2381 
L 678 2906 
z
M 678 1631 
L 4684 1631 
L 4684 1100 
L 678 1100 
L 678 1631 
z
" transform="scale(0.015625)"/>
       <path id="DejaVuSans-35" d="M 691 4666 
L 3169 4666 
L 3169 4134 
L 1269 4134 
L 1269 2991 
Q 1406 3038 1543 3061 
Q 1681 3084 1819 3084 
Q 2600 3084 3056 2656 
Q 3513 2228 3513 1497 
Q 3513 744 3044 326 
Q 2575 -91 1722 -91 
Q 1428 -91 1123 -41 
Q 819 9 494 109 
L 494 744 
Q 775 591 1075 516 
Q 1375 441 1709 441 
Q 2250 441 2565 725 
Q 2881 1009 2881 1497 
Q 2881 1984 2565 2268 
Q 2250 2553 1709 2553 
Q 1456 2553 1204 2497 
Q 953 2441 691 2322 
L 691 4666 
z
" transform="scale(0.015625)"/>
       <path id="DejaVuSans-65" d="M 3597 1894 
L 3597 1613 
L 953 1613 
Q 991 1019 1311 708 
Q 1631 397 2203 397 
Q 2534 397 2845 478 
Q 3156 559 3463 722 
L 3463 178 
Q 3153 47 2828 -22 
Q 2503 -91 2169 -91 
Q 1331 -91 842 396 
Q 353 884 353 1716 
Q 353 2575 817 3079 
Q 1281 3584 2069 3584 
Q 2775 3584 3186 3129 
Q 3597 2675 3597 1894 
z
M 3022 2063 
Q 3016 2534 2758 2815 
Q 2500 3097 2075 3097 
Q 1594 3097 1305 2825 
Q 1016 2553 972 2059 
L 3022 2063 
z
" transform="scale(0.015625)"/>
       <path id="DejaVuSans-2d" d="M 313 2009 
L 1997 2009 
L 1997 1497 
L 313 1497 
L 313 2009 
z
" transform="scale(0.015625)"/>
       <path id="DejaVuSans-5d" d="M 1947 4863 
L 1947 -844 
L 622 -844 
L 622 -397 
L 1369 -397 
L 1369 4416 
L 622 4416 
L 622 4863 
L 1947 4863 
z
" transform="scale(0.015625)"/>
      </defs>
      <use xlink:href="#DejaVuSans-41"/>
      <use xlink:href="#DejaVuSans-6e" x="68.408203"/>
      <use xlink:href="#DejaVuSans-61" x="131.787109"/>
      <use xlink:href="#DejaVuSans-6c" x="193.066406"/>
      <use xlink:href="#DejaVuSans-79" x="220.849609"/>
      <use xlink:href="#DejaVuSans-74" x="280.029297"/>
      <use xlink:href="#DejaVuSans-69" x="319.238281"/>
      <use xlink:href="#DejaVuSans-63" x="347.021484"/>
      <use xlink:href="#DejaVuSans-20" x="402.001953"/>
      <use xlink:href="#DejaVuSans-5b" x="433.789062"/>
      <use xlink:href="#DejaVuSans-4d" x="472.802734"/>
      <use xlink:href="#DejaVuSans-53" x="559.082031"/>
      <use xlink:href="#DejaVuSans-45" x="622.558594"/>
      <use xlink:href="#DejaVuSans-3d" x="685.742188"/>
      <use xlink:href="#DejaVuSans-38" x="769.53125"/>
      <use xlink:href="#DejaVuSans-2e" x="833.154297"/>
      <use xlink:href="#DejaVuSans-35" x="864.941406"/>
      <use xlink:href="#DejaVuSans-36" x="928.564453"/>
      <use xlink:href="#DejaVuSans-65" x="992.1875"/>
      <use xlink:href="#DejaVuSans-2d" x="1053.710938"/>
      <use xlink:href="#DejaVuSans-30" x="1089.794922"/>
      <use xlink:href="#DejaVuSans-35" x="1153.417969"/>
      <use xlink:href="#DejaVuSans-5d" x="1217.041016"/>
     </g>
    </g>
    <g id="line2d_20">
     <path d="M 51.082813 53.254688 
L 61.082813 53.254688 
L 71.082813 53.254688 
" style="fill: none; stroke: #2ca02c; stroke-width: 1.5; stroke-linecap: square"/>
    </g>
    <g id="text_14">
     <!-- Plain [MSE=0.00821] [$\nu$=0.0658] -->
     <g transform="translate(79.082813 56.754688)scale(0.1 -0.1)">
      <defs>
       <path id="DejaVuSans-50" d="M 1259 4147 
L 1259 2394 
L 2053 2394 
Q 2494 2394 2734 2622 
Q 2975 2850 2975 3272 
Q 2975 3691 2734 3919 
Q 2494 4147 2053 4147 
L 1259 4147 
z
M 628 4666 
L 2053 4666 
Q 2838 4666 3239 4311 
Q 3641 3956 3641 3272 
Q 3641 2581 3239 2228 
Q 2838 1875 2053 1875 
L 1259 1875 
L 1259 0 
L 628 0 
L 628 4666 
z
" transform="scale(0.015625)"/>
       <path id="DejaVuSans-Oblique-3bd" d="M 959 0 
L 572 3500 
L 1191 3500 
L 1522 563 
Q 1972 950 2391 1488 
Q 2706 1891 2788 2241 
Q 2825 2406 2809 2719 
Q 2794 3091 2544 3500 
L 3125 3500 
L 3125 3500 
Q 3288 3222 3353 2834 
Q 3416 2478 3369 2234 
Q 3250 1622 2719 1075 
Q 2025 363 1572 0 
L 959 0 
z
" transform="scale(0.015625)"/>
      </defs>
      <use xlink:href="#DejaVuSans-50" transform="translate(0 0.015625)"/>
      <use xlink:href="#DejaVuSans-6c" transform="translate(60.302734 0.015625)"/>
      <use xlink:href="#DejaVuSans-61" transform="translate(88.085938 0.015625)"/>
      <use xlink:href="#DejaVuSans-69" transform="translate(149.365234 0.015625)"/>
      <use xlink:href="#DejaVuSans-6e" transform="translate(177.148438 0.015625)"/>
      <use xlink:href="#DejaVuSans-20" transform="translate(240.527344 0.015625)"/>
      <use xlink:href="#DejaVuSans-5b" transform="translate(272.314453 0.015625)"/>
      <use xlink:href="#DejaVuSans-4d" transform="translate(311.328125 0.015625)"/>
      <use xlink:href="#DejaVuSans-53" transform="translate(397.607422 0.015625)"/>
      <use xlink:href="#DejaVuSans-45" transform="translate(461.083984 0.015625)"/>
      <use xlink:href="#DejaVuSans-3d" transform="translate(524.267578 0.015625)"/>
      <use xlink:href="#DejaVuSans-30" transform="translate(608.056641 0.015625)"/>
      <use xlink:href="#DejaVuSans-2e" transform="translate(671.679688 0.015625)"/>
      <use xlink:href="#DejaVuSans-30" transform="translate(703.466797 0.015625)"/>
      <use xlink:href="#DejaVuSans-30" transform="translate(767.089844 0.015625)"/>
      <use xlink:href="#DejaVuSans-38" transform="translate(830.712891 0.015625)"/>
      <use xlink:href="#DejaVuSans-32" transform="translate(894.335938 0.015625)"/>
      <use xlink:href="#DejaVuSans-31" transform="translate(957.958984 0.015625)"/>
      <use xlink:href="#DejaVuSans-5d" transform="translate(1021.582031 0.015625)"/>
      <use xlink:href="#DejaVuSans-20" transform="translate(1060.595703 0.015625)"/>
      <use xlink:href="#DejaVuSans-5b" transform="translate(1092.382812 0.015625)"/>
      <use xlink:href="#DejaVuSans-Oblique-3bd" transform="translate(1131.396484 0.015625)"/>
      <use xlink:href="#DejaVuSans-3d" transform="translate(1187.255859 0.015625)"/>
      <use xlink:href="#DejaVuSans-30" transform="translate(1271.044922 0.015625)"/>
      <use xlink:href="#DejaVuSans-2e" transform="translate(1334.667969 0.015625)"/>
      <use xlink:href="#DejaVuSans-30" transform="translate(1366.455078 0.015625)"/>
      <use xlink:href="#DejaVuSans-36" transform="translate(1430.078125 0.015625)"/>
      <use xlink:href="#DejaVuSans-35" transform="translate(1493.701172 0.015625)"/>
      <use xlink:href="#DejaVuSans-38" transform="translate(1557.324219 0.015625)"/>
      <use xlink:href="#DejaVuSans-5d" transform="translate(1620.947266 0.015625)"/>
     </g>
    </g>
    <g id="line2d_21">
     <path d="M 51.082813 67.932813 
L 61.082813 67.932813 
L 71.082813 67.932813 
" style="fill: none; stroke: #d62728; stroke-width: 1.5; stroke-linecap: square"/>
    </g>
    <g id="text_15">
     <!-- Momentum [MSE=0.00866] [$\nu$=0.107] -->
     <g transform="translate(79.082813 71.432813)scale(0.1 -0.1)">
      <defs>
       <path id="DejaVuSans-6f" d="M 1959 3097 
Q 1497 3097 1228 2736 
Q 959 2375 959 1747 
Q 959 1119 1226 758 
Q 1494 397 1959 397 
Q 2419 397 2687 759 
Q 2956 1122 2956 1747 
Q 2956 2369 2687 2733 
Q 2419 3097 1959 3097 
z
M 1959 3584 
Q 2709 3584 3137 3096 
Q 3566 2609 3566 1747 
Q 3566 888 3137 398 
Q 2709 -91 1959 -91 
Q 1206 -91 779 398 
Q 353 888 353 1747 
Q 353 2609 779 3096 
Q 1206 3584 1959 3584 
z
" transform="scale(0.015625)"/>
       <path id="DejaVuSans-6d" d="M 3328 2828 
Q 3544 3216 3844 3400 
Q 4144 3584 4550 3584 
Q 5097 3584 5394 3201 
Q 5691 2819 5691 2113 
L 5691 0 
L 5113 0 
L 5113 2094 
Q 5113 2597 4934 2840 
Q 4756 3084 4391 3084 
Q 3944 3084 3684 2787 
Q 3425 2491 3425 1978 
L 3425 0 
L 2847 0 
L 2847 2094 
Q 2847 2600 2669 2842 
Q 2491 3084 2119 3084 
Q 1678 3084 1418 2786 
Q 1159 2488 1159 1978 
L 1159 0 
L 581 0 
L 581 3500 
L 1159 3500 
L 1159 2956 
Q 1356 3278 1631 3431 
Q 1906 3584 2284 3584 
Q 2666 3584 2933 3390 
Q 3200 3197 3328 2828 
z
" transform="scale(0.015625)"/>
       <path id="DejaVuSans-75" d="M 544 1381 
L 544 3500 
L 1119 3500 
L 1119 1403 
Q 1119 906 1312 657 
Q 1506 409 1894 409 
Q 2359 409 2629 706 
Q 2900 1003 2900 1516 
L 2900 3500 
L 3475 3500 
L 3475 0 
L 2900 0 
L 2900 538 
Q 2691 219 2414 64 
Q 2138 -91 1772 -91 
Q 1169 -91 856 284 
Q 544 659 544 1381 
z
M 1991 3584 
L 1991 3584 
z
" transform="scale(0.015625)"/>
       <path id="DejaVuSans-37" d="M 525 4666 
L 3525 4666 
L 3525 4397 
L 1831 0 
L 1172 0 
L 2766 4134 
L 525 4134 
L 525 4666 
z
" transform="scale(0.015625)"/>
      </defs>
      <use xlink:href="#DejaVuSans-4d" transform="translate(0 0.015625)"/>
      <use xlink:href="#DejaVuSans-6f" transform="translate(86.279297 0.015625)"/>
      <use xlink:href="#DejaVuSans-6d" transform="translate(147.460938 0.015625)"/>
      <use xlink:href="#DejaVuSans-65" transform="translate(244.873047 0.015625)"/>
      <use xlink:href="#DejaVuSans-6e" transform="translate(306.396484 0.015625)"/>
      <use xlink:href="#DejaVuSans-74" transform="translate(369.775391 0.015625)"/>
      <use xlink:href="#DejaVuSans-75" transform="translate(408.984375 0.015625)"/>
      <use xlink:href="#DejaVuSans-6d" transform="translate(472.363281 0.015625)"/>
      <use xlink:href="#DejaVuSans-20" transform="translate(569.775391 0.015625)"/>
      <use xlink:href="#DejaVuSans-5b" transform="translate(601.5625 0.015625)"/>
      <use xlink:href="#DejaVuSans-4d" transform="translate(640.576172 0.015625)"/>
      <use xlink:href="#DejaVuSans-53" transform="translate(726.855469 0.015625)"/>
      <use xlink:href="#DejaVuSans-45" transform="translate(790.332031 0.015625)"/>
      <use xlink:href="#DejaVuSans-3d" transform="translate(853.515625 0.015625)"/>
      <use xlink:href="#DejaVuSans-30" transform="translate(937.304688 0.015625)"/>
      <use xlink:href="#DejaVuSans-2e" transform="translate(1000.927734 0.015625)"/>
      <use xlink:href="#DejaVuSans-30" transform="translate(1032.714844 0.015625)"/>
      <use xlink:href="#DejaVuSans-30" transform="translate(1096.337891 0.015625)"/>
      <use xlink:href="#DejaVuSans-38" transform="translate(1159.960938 0.015625)"/>
      <use xlink:href="#DejaVuSans-36" transform="translate(1223.583984 0.015625)"/>
      <use xlink:href="#DejaVuSans-36" transform="translate(1287.207031 0.015625)"/>
      <use xlink:href="#DejaVuSans-5d" transform="translate(1350.830078 0.015625)"/>
      <use xlink:href="#DejaVuSans-20" transform="translate(1389.84375 0.015625)"/>
      <use xlink:href="#DejaVuSans-5b" transform="translate(1421.630859 0.015625)"/>
      <use xlink:href="#DejaVuSans-Oblique-3bd" transform="translate(1460.644531 0.015625)"/>
      <use xlink:href="#DejaVuSans-3d" transform="translate(1516.503906 0.015625)"/>
      <use xlink:href="#DejaVuSans-30" transform="translate(1600.292969 0.015625)"/>
      <use xlink:href="#DejaVuSans-2e" transform="translate(1663.916016 0.015625)"/>
      <use xlink:href="#DejaVuSans-31" transform="translate(1695.703125 0.015625)"/>
      <use xlink:href="#DejaVuSans-30" transform="translate(1759.326172 0.015625)"/>
      <use xlink:href="#DejaVuSans-37" transform="translate(1822.949219 0.015625)"/>
      <use xlink:href="#DejaVuSans-5d" transform="translate(1886.572266 0.015625)"/>
     </g>
    </g>
    <g id="line2d_22">
     <path d="M 51.082813 82.610938 
L 61.082813 82.610938 
L 71.082813 82.610938 
" style="fill: none; stroke: #9467bd; stroke-width: 1.5; stroke-linecap: square"/>
    </g>
    <g id="text_16">
     <!-- Stochastic [MSE=0.00573] [$\nu$=0.404] -->
     <g transform="translate(79.082813 86.110938)scale(0.1 -0.1)">
      <defs>
       <path id="DejaVuSans-68" d="M 3513 2113 
L 3513 0 
L 2938 0 
L 2938 2094 
Q 2938 2591 2744 2837 
Q 2550 3084 2163 3084 
Q 1697 3084 1428 2787 
Q 1159 2491 1159 1978 
L 1159 0 
L 581 0 
L 581 4863 
L 1159 4863 
L 1159 2956 
Q 1366 3272 1645 3428 
Q 1925 3584 2291 3584 
Q 2894 3584 3203 3211 
Q 3513 2838 3513 2113 
z
" transform="scale(0.015625)"/>
       <path id="DejaVuSans-73" d="M 2834 3397 
L 2834 2853 
Q 2591 2978 2328 3040 
Q 2066 3103 1784 3103 
Q 1356 3103 1142 2972 
Q 928 2841 928 2578 
Q 928 2378 1081 2264 
Q 1234 2150 1697 2047 
L 1894 2003 
Q 2506 1872 2764 1633 
Q 3022 1394 3022 966 
Q 3022 478 2636 193 
Q 2250 -91 1575 -91 
Q 1294 -91 989 -36 
Q 684 19 347 128 
L 347 722 
Q 666 556 975 473 
Q 1284 391 1588 391 
Q 1994 391 2212 530 
Q 2431 669 2431 922 
Q 2431 1156 2273 1281 
Q 2116 1406 1581 1522 
L 1381 1569 
Q 847 1681 609 1914 
Q 372 2147 372 2553 
Q 372 3047 722 3315 
Q 1072 3584 1716 3584 
Q 2034 3584 2315 3537 
Q 2597 3491 2834 3397 
z
" transform="scale(0.015625)"/>
       <path id="DejaVuSans-33" d="M 2597 2516 
Q 3050 2419 3304 2112 
Q 3559 1806 3559 1356 
Q 3559 666 3084 287 
Q 2609 -91 1734 -91 
Q 1441 -91 1130 -33 
Q 819 25 488 141 
L 488 750 
Q 750 597 1062 519 
Q 1375 441 1716 441 
Q 2309 441 2620 675 
Q 2931 909 2931 1356 
Q 2931 1769 2642 2001 
Q 2353 2234 1838 2234 
L 1294 2234 
L 1294 2753 
L 1863 2753 
Q 2328 2753 2575 2939 
Q 2822 3125 2822 3475 
Q 2822 3834 2567 4026 
Q 2313 4219 1838 4219 
Q 1578 4219 1281 4162 
Q 984 4106 628 3988 
L 628 4550 
Q 988 4650 1302 4700 
Q 1616 4750 1894 4750 
Q 2613 4750 3031 4423 
Q 3450 4097 3450 3541 
Q 3450 3153 3228 2886 
Q 3006 2619 2597 2516 
z
" transform="scale(0.015625)"/>
      </defs>
      <use xlink:href="#DejaVuSans-53" transform="translate(0 0.015625)"/>
      <use xlink:href="#DejaVuSans-74" transform="translate(63.476562 0.015625)"/>
      <use xlink:href="#DejaVuSans-6f" transform="translate(102.685547 0.015625)"/>
      <use xlink:href="#DejaVuSans-63" transform="translate(163.867188 0.015625)"/>
      <use xlink:href="#DejaVuSans-68" transform="translate(218.847656 0.015625)"/>
      <use xlink:href="#DejaVuSans-61" transform="translate(282.226562 0.015625)"/>
      <use xlink:href="#DejaVuSans-73" transform="translate(343.505859 0.015625)"/>
      <use xlink:href="#DejaVuSans-74" transform="translate(395.605469 0.015625)"/>
      <use xlink:href="#DejaVuSans-69" transform="translate(434.814453 0.015625)"/>
      <use xlink:href="#DejaVuSans-63" transform="translate(462.597656 0.015625)"/>
      <use xlink:href="#DejaVuSans-20" transform="translate(517.578125 0.015625)"/>
      <use xlink:href="#DejaVuSans-5b" transform="translate(549.365234 0.015625)"/>
      <use xlink:href="#DejaVuSans-4d" transform="translate(588.378906 0.015625)"/>
      <use xlink:href="#DejaVuSans-53" transform="translate(674.658203 0.015625)"/>
      <use xlink:href="#DejaVuSans-45" transform="translate(738.134766 0.015625)"/>
      <use xlink:href="#DejaVuSans-3d" transform="translate(801.318359 0.015625)"/>
      <use xlink:href="#DejaVuSans-30" transform="translate(885.107422 0.015625)"/>
      <use xlink:href="#DejaVuSans-2e" transform="translate(948.730469 0.015625)"/>
      <use xlink:href="#DejaVuSans-30" transform="translate(980.517578 0.015625)"/>
      <use xlink:href="#DejaVuSans-30" transform="translate(1044.140625 0.015625)"/>
      <use xlink:href="#DejaVuSans-35" transform="translate(1107.763672 0.015625)"/>
      <use xlink:href="#DejaVuSans-37" transform="translate(1164.136719 0.015625)"/>
      <use xlink:href="#DejaVuSans-33" transform="translate(1227.759766 0.015625)"/>
      <use xlink:href="#DejaVuSans-5d" transform="translate(1291.382812 0.015625)"/>
      <use xlink:href="#DejaVuSans-20" transform="translate(1330.396484 0.015625)"/>
      <use xlink:href="#DejaVuSans-5b" transform="translate(1362.183594 0.015625)"/>
      <use xlink:href="#DejaVuSans-Oblique-3bd" transform="translate(1401.197266 0.015625)"/>
      <use xlink:href="#DejaVuSans-3d" transform="translate(1457.056641 0.015625)"/>
      <use xlink:href="#DejaVuSans-30" transform="translate(1540.845703 0.015625)"/>
      <use xlink:href="#DejaVuSans-2e" transform="translate(1604.46875 0.015625)"/>
      <use xlink:href="#DejaVuSans-34" transform="translate(1636.255859 0.015625)"/>
      <use xlink:href="#DejaVuSans-30" transform="translate(1699.878906 0.015625)"/>
      <use xlink:href="#DejaVuSans-34" transform="translate(1763.501953 0.015625)"/>
      <use xlink:href="#DejaVuSans-5d" transform="translate(1827.125 0.015625)"/>
     </g>
    </g>
    <g id="line2d_23">
     <path d="M 51.082813 97.289063 
L 61.082813 97.289063 
L 71.082813 97.289063 
" style="fill: none; stroke: #8c564b; stroke-width: 1.5; stroke-linecap: square"/>
    </g>
    <g id="text_17">
     <!-- Momentum + Stochastic [MSE=0.00463] [$\nu$=0.87] -->
     <g transform="translate(79.082813 100.789063)scale(0.1 -0.1)">
      <defs>
       <path id="DejaVuSans-2b" d="M 2944 4013 
L 2944 2272 
L 4684 2272 
L 4684 1741 
L 2944 1741 
L 2944 0 
L 2419 0 
L 2419 1741 
L 678 1741 
L 678 2272 
L 2419 2272 
L 2419 4013 
L 2944 4013 
z
" transform="scale(0.015625)"/>
      </defs>
      <use xlink:href="#DejaVuSans-4d" transform="translate(0 0.015625)"/>
      <use xlink:href="#DejaVuSans-6f" transform="translate(86.279297 0.015625)"/>
      <use xlink:href="#DejaVuSans-6d" transform="translate(147.460938 0.015625)"/>
      <use xlink:href="#DejaVuSans-65" transform="translate(244.873047 0.015625)"/>
      <use xlink:href="#DejaVuSans-6e" transform="translate(306.396484 0.015625)"/>
      <use xlink:href="#DejaVuSans-74" transform="translate(369.775391 0.015625)"/>
      <use xlink:href="#DejaVuSans-75" transform="translate(408.984375 0.015625)"/>
      <use xlink:href="#DejaVuSans-6d" transform="translate(472.363281 0.015625)"/>
      <use xlink:href="#DejaVuSans-20" transform="translate(569.775391 0.015625)"/>
      <use xlink:href="#DejaVuSans-2b" transform="translate(601.5625 0.015625)"/>
      <use xlink:href="#DejaVuSans-20" transform="translate(685.351562 0.015625)"/>
      <use xlink:href="#DejaVuSans-53" transform="translate(717.138672 0.015625)"/>
      <use xlink:href="#DejaVuSans-74" transform="translate(780.615234 0.015625)"/>
      <use xlink:href="#DejaVuSans-6f" transform="translate(819.824219 0.015625)"/>
      <use xlink:href="#DejaVuSans-63" transform="translate(881.005859 0.015625)"/>
      <use xlink:href="#DejaVuSans-68" transform="translate(935.986328 0.015625)"/>
      <use xlink:href="#DejaVuSans-61" transform="translate(999.365234 0.015625)"/>
      <use xlink:href="#DejaVuSans-73" transform="translate(1060.644531 0.015625)"/>
      <use xlink:href="#DejaVuSans-74" transform="translate(1112.744141 0.015625)"/>
      <use xlink:href="#DejaVuSans-69" transform="translate(1151.953125 0.015625)"/>
      <use xlink:href="#DejaVuSans-63" transform="translate(1179.736328 0.015625)"/>
      <use xlink:href="#DejaVuSans-20" transform="translate(1234.716797 0.015625)"/>
      <use xlink:href="#DejaVuSans-5b" transform="translate(1266.503906 0.015625)"/>
      <use xlink:href="#DejaVuSans-4d" transform="translate(1305.517578 0.015625)"/>
      <use xlink:href="#DejaVuSans-53" transform="translate(1391.796875 0.015625)"/>
      <use xlink:href="#DejaVuSans-45" transform="translate(1455.273438 0.015625)"/>
      <use xlink:href="#DejaVuSans-3d" transform="translate(1518.457031 0.015625)"/>
      <use xlink:href="#DejaVuSans-30" transform="translate(1602.246094 0.015625)"/>
      <use xlink:href="#DejaVuSans-2e" transform="translate(1665.869141 0.015625)"/>
      <use xlink:href="#DejaVuSans-30" transform="translate(1697.65625 0.015625)"/>
      <use xlink:href="#DejaVuSans-30" transform="translate(1761.279297 0.015625)"/>
      <use xlink:href="#DejaVuSans-34" transform="translate(1824.902344 0.015625)"/>
      <use xlink:href="#DejaVuSans-36" transform="translate(1888.525391 0.015625)"/>
      <use xlink:href="#DejaVuSans-33" transform="translate(1952.148438 0.015625)"/>
      <use xlink:href="#DejaVuSans-5d" transform="translate(2015.771484 0.015625)"/>
      <use xlink:href="#DejaVuSans-20" transform="translate(2054.785156 0.015625)"/>
      <use xlink:href="#DejaVuSans-5b" transform="translate(2086.572266 0.015625)"/>
      <use xlink:href="#DejaVuSans-Oblique-3bd" transform="translate(2125.585938 0.015625)"/>
      <use xlink:href="#DejaVuSans-3d" transform="translate(2181.445312 0.015625)"/>
      <use xlink:href="#DejaVuSans-30" transform="translate(2265.234375 0.015625)"/>
      <use xlink:href="#DejaVuSans-2e" transform="translate(2328.857422 0.015625)"/>
      <use xlink:href="#DejaVuSans-38" transform="translate(2358.019531 0.015625)"/>
      <use xlink:href="#DejaVuSans-37" transform="translate(2421.642578 0.015625)"/>
      <use xlink:href="#DejaVuSans-5d" transform="translate(2485.265625 0.015625)"/>
     </g>
    </g>
   </g>
  </g>
 </g>
 <defs>
  <clipPath id="p9e95ccdd27">
   <rect x="42.082813" y="10.8" width="407.917187" height="307.321875"/>
  </clipPath>
 </defs>
</svg>
