<?xml version="1.0" encoding="utf-8" standalone="no"?>
<!DOCTYPE svg PUBLIC "-//W3C//DTD SVG 1.1//EN"
  "http://www.w3.org/Graphics/SVG/1.1/DTD/svg11.dtd">
<svg xmlns:xlink="http://www.w3.org/1999/xlink" width="460.8pt" height="345.6pt" viewBox="0 0 460.8 345.6" xmlns="http://www.w3.org/2000/svg" version="1.1">
 <metadata>
  <rdf:RDF xmlns:dc="http://purl.org/dc/elements/1.1/" xmlns:cc="http://creativecommons.org/ns#" xmlns:rdf="http://www.w3.org/1999/02/22-rdf-syntax-ns#">
   <cc:Work>
    <dc:type rdf:resource="http://purl.org/dc/dcmitype/StillImage"/>
    <dc:date>2022-11-11T17:04:11.858523</dc:date>
    <dc:format>image/svg+xml</dc:format>
    <dc:creator>
     <cc:Agent>
      <dc:title>Matplotlib v3.5.3, https://matplotlib.org/</dc:title>
     </cc:Agent>
    </dc:creator>
   </cc:Work>
  </rdf:RDF>
 </metadata>
 <defs>
  <style type="text/css">*{stroke-linejoin: round; stroke-linecap: butt}</style>
 </defs>
 <g id="figure_1">
  <g id="patch_1">
   <path d="M 0 345.6 
L 460.8 345.6 
L 460.8 0 
L 0 0 
z
" style="fill: #ffffff"/>
  </g>
  <g id="axes_1">
   <g id="patch_2">
    <path d="M 42.082813 318.121875 
L 450 318.121875 
L 450 10.8 
L 42.082813 10.8 
z
" style="fill: #ffffff"/>
   </g>
   <g id="matplotlib.axis_1">
    <g id="xtick_1">
     <g id="line2d_1">
      <defs>
       <path id="m98636e8f52" d="M 0 0 
L 0 3.5 
" style="stroke: #000000; stroke-width: 0.8"/>
      </defs>
      <g>
       <use xlink:href="#m98636e8f52" x="60.624503" y="318.121875" style="stroke: #000000; stroke-width: 0.8"/>
      </g>
     </g>
     <g id="text_1">
      <!-- 0.0 -->
      <g transform="translate(52.67294 332.720312)scale(0.1 -0.1)">
       <defs>
        <path id="DejaVuSans-30" d="M 2034 4250 
Q 1547 4250 1301 3770 
Q 1056 3291 1056 2328 
Q 1056 1369 1301 889 
Q 1547 409 2034 409 
Q 2525 409 2770 889 
Q 3016 1369 3016 2328 
Q 3016 3291 2770 3770 
Q 2525 4250 2034 4250 
z
M 2034 4750 
Q 2819 4750 3233 4129 
Q 3647 3509 3647 2328 
Q 3647 1150 3233 529 
Q 2819 -91 2034 -91 
Q 1250 -91 836 529 
Q 422 1150 422 2328 
Q 422 3509 836 4129 
Q 1250 4750 2034 4750 
z
" transform="scale(0.015625)"/>
        <path id="DejaVuSans-2e" d="M 684 794 
L 1344 794 
L 1344 0 
L 684 0 
L 684 794 
z
" transform="scale(0.015625)"/>
       </defs>
       <use xlink:href="#DejaVuSans-30"/>
       <use xlink:href="#DejaVuSans-2e" x="63.623047"/>
       <use xlink:href="#DejaVuSans-30" x="95.410156"/>
      </g>
     </g>
    </g>
    <g id="xtick_2">
     <g id="line2d_2">
      <g>
       <use xlink:href="#m98636e8f52" x="134.791264" y="318.121875" style="stroke: #000000; stroke-width: 0.8"/>
      </g>
     </g>
     <g id="text_2">
      <!-- 0.2 -->
      <g transform="translate(126.839702 332.720312)scale(0.1 -0.1)">
       <defs>
        <path id="DejaVuSans-32" d="M 1228 531 
L 3431 531 
L 3431 0 
L 469 0 
L 469 531 
Q 828 903 1448 1529 
Q 2069 2156 2228 2338 
Q 2531 2678 2651 2914 
Q 2772 3150 2772 3378 
Q 2772 3750 2511 3984 
Q 2250 4219 1831 4219 
Q 1534 4219 1204 4116 
Q 875 4013 500 3803 
L 500 4441 
Q 881 4594 1212 4672 
Q 1544 4750 1819 4750 
Q 2544 4750 2975 4387 
Q 3406 4025 3406 3419 
Q 3406 3131 3298 2873 
Q 3191 2616 2906 2266 
Q 2828 2175 2409 1742 
Q 1991 1309 1228 531 
z
" transform="scale(0.015625)"/>
       </defs>
       <use xlink:href="#DejaVuSans-30"/>
       <use xlink:href="#DejaVuSans-2e" x="63.623047"/>
       <use xlink:href="#DejaVuSans-32" x="95.410156"/>
      </g>
     </g>
    </g>
    <g id="xtick_3">
     <g id="line2d_3">
      <g>
       <use xlink:href="#m98636e8f52" x="208.958026" y="318.121875" style="stroke: #000000; stroke-width: 0.8"/>
      </g>
     </g>
     <g id="text_3">
      <!-- 0.4 -->
      <g transform="translate(201.006463 332.720312)scale(0.1 -0.1)">
       <defs>
        <path id="DejaVuSans-34" d="M 2419 4116 
L 825 1625 
L 2419 1625 
L 2419 4116 
z
M 2253 4666 
L 3047 4666 
L 3047 1625 
L 3713 1625 
L 3713 1100 
L 3047 1100 
L 3047 0 
L 2419 0 
L 2419 1100 
L 313 1100 
L 313 1709 
L 2253 4666 
z
" transform="scale(0.015625)"/>
       </defs>
       <use xlink:href="#DejaVuSans-30"/>
       <use xlink:href="#DejaVuSans-2e" x="63.623047"/>
       <use xlink:href="#DejaVuSans-34" x="95.410156"/>
      </g>
     </g>
    </g>
    <g id="xtick_4">
     <g id="line2d_4">
      <g>
       <use xlink:href="#m98636e8f52" x="283.124787" y="318.121875" style="stroke: #000000; stroke-width: 0.8"/>
      </g>
     </g>
     <g id="text_4">
      <!-- 0.6 -->
      <g transform="translate(275.173224 332.720312)scale(0.1 -0.1)">
       <defs>
        <path id="DejaVuSans-36" d="M 2113 2584 
Q 1688 2584 1439 2293 
Q 1191 2003 1191 1497 
Q 1191 994 1439 701 
Q 1688 409 2113 409 
Q 2538 409 2786 701 
Q 3034 994 3034 1497 
Q 3034 2003 2786 2293 
Q 2538 2584 2113 2584 
z
M 3366 4563 
L 3366 3988 
Q 3128 4100 2886 4159 
Q 2644 4219 2406 4219 
Q 1781 4219 1451 3797 
Q 1122 3375 1075 2522 
Q 1259 2794 1537 2939 
Q 1816 3084 2150 3084 
Q 2853 3084 3261 2657 
Q 3669 2231 3669 1497 
Q 3669 778 3244 343 
Q 2819 -91 2113 -91 
Q 1303 -91 875 529 
Q 447 1150 447 2328 
Q 447 3434 972 4092 
Q 1497 4750 2381 4750 
Q 2619 4750 2861 4703 
Q 3103 4656 3366 4563 
z
" transform="scale(0.015625)"/>
       </defs>
       <use xlink:href="#DejaVuSans-30"/>
       <use xlink:href="#DejaVuSans-2e" x="63.623047"/>
       <use xlink:href="#DejaVuSans-36" x="95.410156"/>
      </g>
     </g>
    </g>
    <g id="xtick_5">
     <g id="line2d_5">
      <g>
       <use xlink:href="#m98636e8f52" x="357.291548" y="318.121875" style="stroke: #000000; stroke-width: 0.8"/>
      </g>
     </g>
     <g id="text_5">
      <!-- 0.8 -->
      <g transform="translate(349.339986 332.720312)scale(0.1 -0.1)">
       <defs>
        <path id="DejaVuSans-38" d="M 2034 2216 
Q 1584 2216 1326 1975 
Q 1069 1734 1069 1313 
Q 1069 891 1326 650 
Q 1584 409 2034 409 
Q 2484 409 2743 651 
Q 3003 894 3003 1313 
Q 3003 1734 2745 1975 
Q 2488 2216 2034 2216 
z
M 1403 2484 
Q 997 2584 770 2862 
Q 544 3141 544 3541 
Q 544 4100 942 4425 
Q 1341 4750 2034 4750 
Q 2731 4750 3128 4425 
Q 3525 4100 3525 3541 
Q 3525 3141 3298 2862 
Q 3072 2584 2669 2484 
Q 3125 2378 3379 2068 
Q 3634 1759 3634 1313 
Q 3634 634 3220 271 
Q 2806 -91 2034 -91 
Q 1263 -91 848 271 
Q 434 634 434 1313 
Q 434 1759 690 2068 
Q 947 2378 1403 2484 
z
M 1172 3481 
Q 1172 3119 1398 2916 
Q 1625 2713 2034 2713 
Q 2441 2713 2670 2916 
Q 2900 3119 2900 3481 
Q 2900 3844 2670 4047 
Q 2441 4250 2034 4250 
Q 1625 4250 1398 4047 
Q 1172 3844 1172 3481 
z
" transform="scale(0.015625)"/>
       </defs>
       <use xlink:href="#DejaVuSans-30"/>
       <use xlink:href="#DejaVuSans-2e" x="63.623047"/>
       <use xlink:href="#DejaVuSans-38" x="95.410156"/>
      </g>
     </g>
    </g>
    <g id="xtick_6">
     <g id="line2d_6">
      <g>
       <use xlink:href="#m98636e8f52" x="431.45831" y="318.121875" style="stroke: #000000; stroke-width: 0.8"/>
      </g>
     </g>
     <g id="text_6">
      <!-- 1.0 -->
      <g transform="translate(423.506747 332.720312)scale(0.1 -0.1)">
       <defs>
        <path id="DejaVuSans-31" d="M 794 531 
L 1825 531 
L 1825 4091 
L 703 3866 
L 703 4441 
L 1819 4666 
L 2450 4666 
L 2450 531 
L 3481 531 
L 3481 0 
L 794 0 
L 794 531 
z
" transform="scale(0.015625)"/>
       </defs>
       <use xlink:href="#DejaVuSans-31"/>
       <use xlink:href="#DejaVuSans-2e" x="63.623047"/>
       <use xlink:href="#DejaVuSans-30" x="95.410156"/>
      </g>
     </g>
    </g>
   </g>
   <g id="matplotlib.axis_2">
    <g id="ytick_1">
     <g id="line2d_7">
      <defs>
       <path id="m0602f503c5" d="M 0 0 
L -3.5 0 
" style="stroke: #000000; stroke-width: 0.8"/>
      </defs>
      <g>
       <use xlink:href="#m0602f503c5" x="42.082813" y="302.755781" style="stroke: #000000; stroke-width: 0.8"/>
      </g>
     </g>
     <g id="text_7">
      <!-- −0.2 -->
      <g transform="translate(10.8 306.555)scale(0.1 -0.1)">
       <defs>
        <path id="DejaVuSans-2212" d="M 678 2272 
L 4684 2272 
L 4684 1741 
L 678 1741 
L 678 2272 
z
" transform="scale(0.015625)"/>
       </defs>
       <use xlink:href="#DejaVuSans-2212"/>
       <use xlink:href="#DejaVuSans-30" x="83.789062"/>
       <use xlink:href="#DejaVuSans-2e" x="147.412109"/>
       <use xlink:href="#DejaVuSans-32" x="179.199219"/>
      </g>
     </g>
    </g>
    <g id="ytick_2">
     <g id="line2d_8">
      <g>
       <use xlink:href="#m0602f503c5" x="42.082813" y="241.291406" style="stroke: #000000; stroke-width: 0.8"/>
      </g>
     </g>
     <g id="text_8">
      <!-- 0.0 -->
      <g transform="translate(19.179688 245.090625)scale(0.1 -0.1)">
       <use xlink:href="#DejaVuSans-30"/>
       <use xlink:href="#DejaVuSans-2e" x="63.623047"/>
       <use xlink:href="#DejaVuSans-30" x="95.410156"/>
      </g>
     </g>
    </g>
    <g id="ytick_3">
     <g id="line2d_9">
      <g>
       <use xlink:href="#m0602f503c5" x="42.082813" y="179.827031" style="stroke: #000000; stroke-width: 0.8"/>
      </g>
     </g>
     <g id="text_9">
      <!-- 0.2 -->
      <g transform="translate(19.179688 183.62625)scale(0.1 -0.1)">
       <use xlink:href="#DejaVuSans-30"/>
       <use xlink:href="#DejaVuSans-2e" x="63.623047"/>
       <use xlink:href="#DejaVuSans-32" x="95.410156"/>
      </g>
     </g>
    </g>
    <g id="ytick_4">
     <g id="line2d_10">
      <g>
       <use xlink:href="#m0602f503c5" x="42.082813" y="118.362656" style="stroke: #000000; stroke-width: 0.8"/>
      </g>
     </g>
     <g id="text_10">
      <!-- 0.4 -->
      <g transform="translate(19.179688 122.161875)scale(0.1 -0.1)">
       <use xlink:href="#DejaVuSans-30"/>
       <use xlink:href="#DejaVuSans-2e" x="63.623047"/>
       <use xlink:href="#DejaVuSans-34" x="95.410156"/>
      </g>
     </g>
    </g>
    <g id="ytick_5">
     <g id="line2d_11">
      <g>
       <use xlink:href="#m0602f503c5" x="42.082813" y="56.898281" style="stroke: #000000; stroke-width: 0.8"/>
      </g>
     </g>
     <g id="text_11">
      <!-- 0.6 -->
      <g transform="translate(19.179688 60.6975)scale(0.1 -0.1)">
       <use xlink:href="#DejaVuSans-30"/>
       <use xlink:href="#DejaVuSans-2e" x="63.623047"/>
       <use xlink:href="#DejaVuSans-36" x="95.410156"/>
      </g>
     </g>
    </g>
   </g>
   <g id="line2d_12">
    <path d="M 60.624503 241.290678 
L 127.441405 241.395031 
L 135.97912 241.650725 
L 142.289605 242.054998 
L 147.115271 242.569349 
L 151.569731 243.269092 
L 155.281781 244.065976 
L 158.622626 244.986134 
L 161.963471 246.130939 
L 165.304316 247.530422 
L 168.273956 249.009828 
L 171.243596 250.726283 
L 174.213236 252.68908 
L 177.182877 254.900376 
L 180.523722 257.676463 
L 184.235772 261.088488 
L 188.319027 265.167092 
L 194.629512 271.843543 
L 200.197587 277.640143 
L 203.538432 280.828698 
L 206.508072 283.346491 
L 208.735303 284.978648 
L 210.962533 286.347083 
L 212.818558 287.258757 
L 214.674583 287.940827 
L 216.530608 288.374769 
L 218.386633 288.544141 
L 219.871453 288.479607 
L 221.356273 288.230689 
L 222.841093 287.792525 
L 224.325913 287.16145 
L 226.181938 286.097745 
L 228.037963 284.726943 
L 229.893988 283.050158 
L 231.750013 281.071551 
L 233.606038 278.798224 
L 235.833268 275.695306 
L 238.060498 272.204291 
L 240.658934 267.676662 
L 243.257369 262.70609 
L 246.227009 256.553017 
L 249.567854 249.132417 
L 253.651109 239.52461 
L 259.590389 224.926611 
L 271.840155 194.711277 
L 277.40823 181.651501 
L 282.6051 170.051342 
L 287.430765 159.833412 
L 292.25643 150.161999 
L 296.71089 141.723485 
L 301.165351 133.760992 
L 305.248606 126.892939 
L 309.331861 120.457293 
L 313.043911 115.005177 
L 316.755961 109.959162 
L 320.096806 105.789214 
L 323.437651 101.994937 
L 326.407291 98.956541 
L 329.376931 96.249606 
L 331.975366 94.165032 
L 334.573802 92.355508 
L 337.172237 90.829588 
L 339.399467 89.753033 
L 341.626697 88.894214 
L 343.853927 88.256269 
L 346.081157 87.841511 
L 348.308387 87.651388 
L 350.535617 87.686449 
L 352.762847 87.946322 
L 354.990077 88.429702 
L 357.217307 89.134351 
L 359.444537 90.057103 
L 361.671767 91.19388 
L 364.270203 92.783948 
L 366.868638 94.649176 
L 369.467073 96.778702 
L 372.436713 99.520283 
L 375.406353 102.570649 
L 378.747198 106.343552 
L 382.088043 110.444669 
L 385.800093 115.341966 
L 390.254553 121.620155 
L 395.451424 129.3799 
L 402.133114 139.814953 
L 421.435774 170.254475 
L 427.00385 178.492683 
L 431.45831 184.762706 
L 431.45831 184.762706 
" clip-path="url(#pc45dc1534c)" style="fill: none; stroke: #1f77b4; stroke-width: 1.5; stroke-linecap: square"/>
   </g>
   <g id="line2d_13">
    <path d="M 60.624503 246.220626 
L 62.109323 244.419754 
L 63.594143 242.931839 
L 65.078963 241.726979 
L 66.563783 240.776528 
L 68.048603 240.053155 
L 69.904628 239.428799 
L 71.760653 239.070994 
L 73.616678 238.935391 
L 75.843908 239.008585 
L 78.442343 239.338818 
L 81.783189 240.014469 
L 94.404159 242.837349 
L 97.745004 243.25794 
L 101.085849 243.461545 
L 104.426694 243.443748 
L 108.138744 243.180382 
L 112.221999 242.639279 
L 117.047665 241.758936 
L 130.03984 239.25843 
L 133.75189 238.831324 
L 137.092735 238.66107 
L 140.062375 238.71437 
L 143.032015 238.985102 
L 146.001656 239.491934 
L 148.971296 240.248139 
L 151.940936 241.261334 
L 154.910576 242.533347 
L 157.880216 244.060184 
L 160.849856 245.832111 
L 164.190701 248.099223 
L 167.902751 250.922652 
L 171.986006 254.337589 
L 176.811672 258.677766 
L 192.402282 272.954476 
L 196.114332 275.919767 
L 199.455177 278.290493 
L 202.424817 280.108261 
L 205.023252 281.440987 
L 207.621688 282.505525 
L 209.848918 283.185971 
L 212.076148 283.637247 
L 214.303378 283.846419 
L 216.530608 283.801885 
L 218.757838 283.493463 
L 220.613863 283.028547 
L 222.469888 282.370113 
L 224.697118 281.319781 
L 226.924348 279.981487 
L 229.151578 278.352514 
L 231.378808 276.431851 
L 233.606038 274.220207 
L 235.833268 271.720014 
L 238.431704 268.444046 
L 241.030139 264.790507 
L 243.628574 260.771911 
L 246.598214 255.752172 
L 249.567854 250.303431 
L 252.908699 243.700805 
L 256.620749 235.838481 
L 260.704004 226.642342 
L 265.529669 215.189104 
L 271.840155 199.583335 
L 286.31715 163.558776 
L 291.142815 152.225432 
L 295.22607 143.139541 
L 298.93812 135.367681 
L 302.650171 128.125565 
L 305.991016 122.103809 
L 308.960656 117.171368 
L 311.930296 112.651332 
L 314.899936 108.554927 
L 317.498371 105.323238 
L 320.096806 102.422208 
L 322.695241 99.850523 
L 325.293676 97.604361 
L 327.892111 95.677572 
L 330.490546 94.0619 
L 332.717777 92.917047 
L 334.945007 91.986083 
L 337.543442 91.159614 
L 340.141877 90.599826 
L 342.740312 90.292539 
L 345.338747 90.223348 
L 347.937182 90.378021 
L 350.535617 90.742913 
L 353.505257 91.401177 
L 356.474897 92.300929 
L 359.444537 93.428679 
L 362.414177 94.77472 
L 365.755023 96.54345 
L 369.095868 98.58141 
L 372.436713 100.896248 
L 375.777558 103.503608 
L 378.747198 106.085292 
L 381.716838 108.936445 
L 384.686478 112.07994 
L 387.656118 115.539635 
L 390.625758 119.338183 
L 393.595398 123.494221 
L 396.565039 128.018851 
L 399.905884 133.548091 
L 403.246729 139.514986 
L 407.329984 147.301773 
L 418.466134 168.914322 
L 420.693364 172.590608 
L 422.549389 175.243033 
L 424.034209 177.013359 
L 425.519029 178.398261 
L 426.632645 179.138775 
L 427.74626 179.584977 
L 428.48867 179.700302 
L 429.23108 179.655996 
L 429.97349 179.439425 
L 430.7159 179.037307 
L 431.45831 178.435681 
L 431.45831 178.435681 
" clip-path="url(#pc45dc1534c)" style="fill: none; stroke: #ff7f0e; stroke-width: 1.5; stroke-linecap: square"/>
   </g>
   <g id="line2d_14">
    <path d="M 60.624503 265.345635 
L 72.131858 265.447621 
L 83.268009 265.324386 
L 93.661749 264.988792 
L 103.684284 264.440804 
L 112.96441 263.71658 
L 121.87333 262.806175 
L 130.411045 261.718109 
L 138.577555 260.463173 
L 146.744066 258.981916 
L 154.539371 257.340695 
L 161.963471 255.556271 
L 169.387571 253.541145 
L 176.440467 251.399404 
L 183.493362 249.022648 
L 190.175052 246.541971 
L 196.856742 243.826683 
L 203.538432 240.865239 
L 209.848918 237.83206 
L 216.159403 234.559927 
L 222.469888 231.040065 
L 228.780373 227.26439 
L 235.090858 223.225763 
L 241.401344 218.918283 
L 247.711829 214.337635 
L 254.022314 209.481492 
L 260.332799 204.34998 
L 267.014489 198.619994 
L 273.69618 192.592967 
L 280.749075 185.924003 
L 288.173175 178.58949 
L 296.339685 170.196203 
L 305.991016 159.937052 
L 334.573802 129.298443 
L 340.513082 123.391873 
L 345.709952 118.533407 
L 350.164412 114.66809 
L 354.247667 111.422961 
L 357.959717 108.765897 
L 361.300562 106.650177 
L 364.270203 105.017483 
L 367.239843 103.64509 
L 369.838278 102.6795 
L 372.436713 101.954105 
L 374.663943 101.539303 
L 376.891173 101.330133 
L 379.118403 101.341117 
L 381.345633 101.587478 
L 383.572863 102.085167 
L 385.800093 102.850893 
L 387.656118 103.706344 
L 389.512143 104.770621 
L 391.368168 106.054686 
L 393.224193 107.569916 
L 395.080218 109.328124 
L 397.307449 111.775993 
L 399.534679 114.613474 
L 401.761909 117.863607 
L 403.989139 121.550453 
L 406.216369 125.699132 
L 408.443599 130.335862 
L 410.670829 135.487999 
L 412.898059 141.184074 
L 415.125289 147.453841 
L 417.352519 154.328316 
L 419.579749 161.83982 
L 422.178184 171.453379 
L 424.776619 182.035787 
L 427.375055 193.645631 
L 429.97349 206.344302 
L 431.45831 214.114172 
L 431.45831 214.114172 
" clip-path="url(#pc45dc1534c)" style="fill: none; stroke: #2ca02c; stroke-width: 1.5; stroke-linecap: square"/>
   </g>
   <g id="line2d_15">
    <path d="M 60.624503 256.611631 
L 72.131858 257.878657 
L 82.896804 258.837904 
L 92.919339 259.508623 
L 102.199464 259.915619 
L 111.108384 260.091552 
L 119.6461 260.042758 
L 127.81261 259.778127 
L 135.607915 259.309098 
L 143.032015 258.649612 
L 150.456116 257.766267 
L 157.509011 256.704403 
L 164.561906 255.410177 
L 171.243596 253.955458 
L 177.925287 252.264193 
L 184.235772 250.436845 
L 190.546257 248.373534 
L 196.485537 246.204928 
L 202.424817 243.805922 
L 208.364098 241.166188 
L 214.303378 238.275584 
L 220.242658 235.124286 
L 225.810733 231.924877 
L 231.378808 228.481 
L 236.946883 224.786219 
L 242.514959 220.834998 
L 248.083034 216.622923 
L 253.651109 212.146958 
L 259.590389 207.080228 
L 265.529669 201.712592 
L 271.46895 196.04803 
L 277.779435 189.712757 
L 284.08992 183.065659 
L 290.77161 175.711417 
L 298.19571 167.200721 
L 306.733426 157.054476 
L 318.611986 142.549419 
L 332.346572 125.845229 
L 339.028262 118.058741 
L 344.596337 111.903424 
L 349.422002 106.910356 
L 353.505257 103.000795 
L 357.217307 99.749889 
L 360.558152 97.112398 
L 363.527792 95.029457 
L 366.497433 93.222853 
L 369.095868 91.893156 
L 371.694303 90.820985 
L 373.921533 90.124718 
L 376.148763 89.650479 
L 378.375993 89.414629 
L 380.603223 89.434334 
L 382.459248 89.658928 
L 384.315273 90.084344 
L 386.171298 90.721885 
L 388.027323 91.5833 
L 389.883348 92.680793 
L 391.739373 94.027043 
L 393.595398 95.635216 
L 395.451424 97.518983 
L 397.307449 99.692531 
L 399.163474 102.170582 
L 401.019499 104.968412 
L 403.246729 108.77026 
L 405.473959 113.083922 
L 407.701189 117.939146 
L 409.928419 123.366982 
L 412.155649 129.399831 
L 414.382879 136.071494 
L 416.610109 143.417215 
L 418.837339 151.473742 
L 421.064569 160.27937 
L 423.663004 171.552709 
L 426.261439 183.966266 
L 428.859875 197.589469 
L 431.45831 212.495077 
L 431.45831 212.495077 
" clip-path="url(#pc45dc1534c)" style="fill: none; stroke: #d62728; stroke-width: 1.5; stroke-linecap: square"/>
   </g>
   <g id="line2d_16">
    <path d="M 60.624503 243.601481 
L 72.131858 246.017054 
L 82.525599 247.979668 
L 92.548134 249.644452 
L 101.828259 250.958995 
L 110.365974 251.951768 
L 118.532485 252.685563 
L 126.32779 253.169331 
L 133.75189 253.415088 
L 140.804785 253.437797 
L 147.857681 253.238899 
L 154.539371 252.831012 
L 161.221061 252.194757 
L 167.531546 251.370673 
L 173.842031 250.316679 
L 179.781312 249.102992 
L 185.720592 247.66317 
L 191.659872 245.986294 
L 197.227947 244.189317 
L 202.796022 242.165756 
L 208.364098 239.907138 
L 213.932173 237.405355 
L 219.500248 234.652782 
L 225.068323 231.642422 
L 230.636398 228.368051 
L 236.204473 224.824406 
L 241.772549 221.007374 
L 247.340624 216.91422 
L 252.908699 212.543839 
L 258.476774 207.897038 
L 264.416054 202.639233 
L 270.355335 197.077327 
L 276.66582 190.84675 
L 282.976305 184.303631 
L 289.657995 177.063025 
L 297.082095 168.688192 
L 305.991016 158.277788 
L 320.468011 140.937624 
L 330.861751 128.638646 
L 337.543442 121.055104 
L 343.111517 115.067366 
L 347.937182 110.212765 
L 352.020437 106.410904 
L 355.732487 103.246469 
L 359.073332 100.674152 
L 362.042972 98.636323 
L 365.012613 96.860037 
L 367.611048 95.542434 
L 370.209483 94.466614 
L 372.807918 93.653688 
L 375.035148 93.182978 
L 377.262378 92.936472 
L 379.489608 92.929568 
L 381.716838 93.178362 
L 383.572863 93.593128 
L 385.428888 94.207263 
L 387.284913 95.03127 
L 389.140938 96.07604 
L 390.996963 97.352858 
L 392.852988 98.873416 
L 394.709013 100.649826 
L 396.565039 102.694632 
L 398.792269 105.521002 
L 401.019499 108.775904 
L 403.246729 112.483635 
L 405.473959 116.669505 
L 407.701189 121.359875 
L 409.928419 126.582191 
L 412.155649 132.365022 
L 414.382879 138.738097 
L 416.610109 145.732345 
L 418.837339 153.379933 
L 421.435774 163.172566 
L 424.034209 173.955445 
L 426.632645 185.786511 
L 429.23108 198.726349 
L 431.45831 210.748057 
L 431.45831 210.748057 
" clip-path="url(#pc45dc1534c)" style="fill: none; stroke: #9467bd; stroke-width: 1.5; stroke-linecap: square"/>
   </g>
   <g id="line2d_17">
    <path d="M 60.624503 226.557909 
L 71.760653 232.310967 
L 81.411984 237.047646 
L 89.949699 240.993255 
L 97.745004 244.355532 
L 105.169104 247.310889 
L 111.850794 249.738248 
L 118.16128 251.806592 
L 124.471765 253.63683 
L 130.411045 255.123984 
L 135.97912 256.295784 
L 141.547195 257.238519 
L 146.744066 257.900002 
L 151.940936 258.339788 
L 157.137806 258.547616 
L 161.963471 258.524252 
L 166.789136 258.284774 
L 171.614801 257.821988 
L 176.440467 257.129131 
L 181.266132 256.199933 
L 186.091797 255.028672 
L 190.917462 253.610236 
L 195.371922 252.077672 
L 200.197587 250.172056 
L 205.023252 248.008422 
L 209.848918 245.584684 
L 214.674583 242.899707 
L 219.500248 239.953384 
L 224.325913 236.746715 
L 229.151578 233.281899 
L 234.348448 229.265888 
L 239.545319 224.960696 
L 244.742189 220.374473 
L 250.310264 215.160554 
L 256.249544 209.27419 
L 262.188824 203.075185 
L 268.499309 196.177263 
L 275.552205 188.135974 
L 283.718715 178.471341 
L 294.48366 165.352356 
L 312.672706 143.14496 
L 319.725601 134.902079 
L 325.664881 128.293483 
L 330.861751 122.849025 
L 335.316212 118.495375 
L 339.399467 114.806261 
L 343.111517 111.740985 
L 346.452362 109.24705 
L 349.793207 107.031975 
L 352.762847 105.32009 
L 355.732487 103.871955 
L 358.330922 102.838401 
L 360.929357 102.038853 
L 363.527792 101.489217 
L 365.755023 101.22952 
L 367.982253 101.176344 
L 370.209483 101.340824 
L 372.436713 101.734458 
L 374.663943 102.36912 
L 376.891173 103.257068 
L 379.118403 104.410952 
L 381.345633 105.84383 
L 383.572863 107.569173 
L 385.800093 109.600883 
L 388.027323 111.953298 
L 390.254553 114.641207 
L 392.481783 117.679862 
L 394.709013 121.08499 
L 396.936244 124.872805 
L 399.163474 129.060023 
L 401.390704 133.663872 
L 403.989139 139.585327 
L 406.587574 146.127187 
L 409.186009 153.319621 
L 411.784444 161.193862 
L 414.382879 169.782246 
L 416.981314 179.118242 
L 419.579749 189.23649 
L 422.178184 200.172833 
L 425.147824 213.720895 
L 428.117465 228.443387 
L 431.087105 244.399986 
L 431.45831 246.484396 
L 431.45831 246.484396 
" clip-path="url(#pc45dc1534c)" style="fill: none; stroke: #8c564b; stroke-width: 1.5; stroke-linecap: square"/>
   </g>
   <g id="patch_3">
    <path d="M 42.082813 318.121875 
L 42.082813 10.8 
" style="fill: none; stroke: #000000; stroke-width: 0.8; stroke-linejoin: miter; stroke-linecap: square"/>
   </g>
   <g id="patch_4">
    <path d="M 450 318.121875 
L 450 10.8 
" style="fill: none; stroke: #000000; stroke-width: 0.8; stroke-linejoin: miter; stroke-linecap: square"/>
   </g>
   <g id="patch_5">
    <path d="M 42.082813 318.121875 
L 450 318.121875 
" style="fill: none; stroke: #000000; stroke-width: 0.8; stroke-linejoin: miter; stroke-linecap: square"/>
   </g>
   <g id="patch_6">
    <path d="M 42.082813 10.8 
L 450 10.8 
" style="fill: none; stroke: #000000; stroke-width: 0.8; stroke-linejoin: miter; stroke-linecap: square"/>
   </g>
   <g id="legend_1">
    <g id="patch_7">
     <path d="M 49.082813 106.95625 
L 246.582812 106.95625 
Q 248.582812 106.95625 248.582812 104.95625 
L 248.582812 17.8 
Q 248.582812 15.8 246.582812 15.8 
L 49.082813 15.8 
Q 47.082813 15.8 47.082813 17.8 
L 47.082813 104.95625 
Q 47.082813 106.95625 49.082813 106.95625 
z
" style="fill: #ffffff; opacity: 0.8; stroke: #cccccc; stroke-linejoin: miter"/>
    </g>
    <g id="line2d_18">
     <path d="M 51.082813 23.898438 
L 61.082813 23.898438 
L 71.082813 23.898438 
" style="fill: none; stroke: #1f77b4; stroke-width: 1.5; stroke-linecap: square"/>
    </g>
    <g id="text_12">
     <!-- f(x) -->
     <g transform="translate(79.082813 27.398438)scale(0.1 -0.1)">
      <defs>
       <path id="DejaVuSans-66" d="M 2375 4863 
L 2375 4384 
L 1825 4384 
Q 1516 4384 1395 4259 
Q 1275 4134 1275 3809 
L 1275 3500 
L 2222 3500 
L 2222 3053 
L 1275 3053 
L 1275 0 
L 697 0 
L 697 3053 
L 147 3053 
L 147 3500 
L 697 3500 
L 697 3744 
Q 697 4328 969 4595 
Q 1241 4863 1831 4863 
L 2375 4863 
z
" transform="scale(0.015625)"/>
       <path id="DejaVuSans-28" d="M 1984 4856 
Q 1566 4138 1362 3434 
Q 1159 2731 1159 2009 
Q 1159 1288 1364 580 
Q 1569 -128 1984 -844 
L 1484 -844 
Q 1016 -109 783 600 
Q 550 1309 550 2009 
Q 550 2706 781 3412 
Q 1013 4119 1484 4856 
L 1984 4856 
z
" transform="scale(0.015625)"/>
       <path id="DejaVuSans-78" d="M 3513 3500 
L 2247 1797 
L 3578 0 
L 2900 0 
L 1881 1375 
L 863 0 
L 184 0 
L 1544 1831 
L 300 3500 
L 978 3500 
L 1906 2253 
L 2834 3500 
L 3513 3500 
z
" transform="scale(0.015625)"/>
       <path id="DejaVuSans-29" d="M 513 4856 
L 1013 4856 
Q 1481 4119 1714 3412 
Q 1947 2706 1947 2009 
Q 1947 1309 1714 600 
Q 1481 -109 1013 -844 
L 513 -844 
Q 928 -128 1133 580 
Q 1338 1288 1338 2009 
Q 1338 2731 1133 3434 
Q 928 4138 513 4856 
z
" transform="scale(0.015625)"/>
      </defs>
      <use xlink:href="#DejaVuSans-66"/>
      <use xlink:href="#DejaVuSans-28" x="35.205078"/>
      <use xlink:href="#DejaVuSans-78" x="74.21875"/>
      <use xlink:href="#DejaVuSans-29" x="133.398438"/>
     </g>
    </g>
    <g id="line2d_19">
     <path d="M 51.082813 38.576563 
L 61.082813 38.576563 
L 71.082813 38.576563 
" style="fill: none; stroke: #ff7f0e; stroke-width: 1.5; stroke-linecap: square"/>
    </g>
    <g id="text_13">
     <!-- A [MSE=8.55e-05] -->
     <g transform="translate(79.082813 42.076563)scale(0.1 -0.1)">
      <defs>
       <path id="DejaVuSans-41" d="M 2188 4044 
L 1331 1722 
L 3047 1722 
L 2188 4044 
z
M 1831 4666 
L 2547 4666 
L 4325 0 
L 3669 0 
L 3244 1197 
L 1141 1197 
L 716 0 
L 50 0 
L 1831 4666 
z
" transform="scale(0.015625)"/>
       <path id="DejaVuSans-20" transform="scale(0.015625)"/>
       <path id="DejaVuSans-5b" d="M 550 4863 
L 1875 4863 
L 1875 4416 
L 1125 4416 
L 1125 -397 
L 1875 -397 
L 1875 -844 
L 550 -844 
L 550 4863 
z
" transform="scale(0.015625)"/>
       <path id="DejaVuSans-4d" d="M 628 4666 
L 1569 4666 
L 2759 1491 
L 3956 4666 
L 4897 4666 
L 4897 0 
L 4281 0 
L 4281 4097 
L 3078 897 
L 2444 897 
L 1241 4097 
L 1241 0 
L 628 0 
L 628 4666 
z
" transform="scale(0.015625)"/>
       <path id="DejaVuSans-53" d="M 3425 4513 
L 3425 3897 
Q 3066 4069 2747 4153 
Q 2428 4238 2131 4238 
Q 1616 4238 1336 4038 
Q 1056 3838 1056 3469 
Q 1056 3159 1242 3001 
Q 1428 2844 1947 2747 
L 2328 2669 
Q 3034 2534 3370 2195 
Q 3706 1856 3706 1288 
Q 3706 609 3251 259 
Q 2797 -91 1919 -91 
Q 1588 -91 1214 -16 
Q 841 59 441 206 
L 441 856 
Q 825 641 1194 531 
Q 1563 422 1919 422 
Q 2459 422 2753 634 
Q 3047 847 3047 1241 
Q 3047 1584 2836 1778 
Q 2625 1972 2144 2069 
L 1759 2144 
Q 1053 2284 737 2584 
Q 422 2884 422 3419 
Q 422 4038 858 4394 
Q 1294 4750 2059 4750 
Q 2388 4750 2728 4690 
Q 3069 4631 3425 4513 
z
" transform="scale(0.015625)"/>
       <path id="DejaVuSans-45" d="M 628 4666 
L 3578 4666 
L 3578 4134 
L 1259 4134 
L 1259 2753 
L 3481 2753 
L 3481 2222 
L 1259 2222 
L 1259 531 
L 3634 531 
L 3634 0 
L 628 0 
L 628 4666 
z
" transform="scale(0.015625)"/>
       <path id="DejaVuSans-3d" d="M 678 2906 
L 4684 2906 
L 4684 2381 
L 678 2381 
L 678 2906 
z
M 678 1631 
L 4684 1631 
L 4684 1100 
L 678 1100 
L 678 1631 
z
" transform="scale(0.015625)"/>
       <path id="DejaVuSans-35" d="M 691 4666 
L 3169 4666 
L 3169 4134 
L 1269 4134 
L 1269 2991 
Q 1406 3038 1543 3061 
Q 1681 3084 1819 3084 
Q 2600 3084 3056 2656 
Q 3513 2228 3513 1497 
Q 3513 744 3044 326 
Q 2575 -91 1722 -91 
Q 1428 -91 1123 -41 
Q 819 9 494 109 
L 494 744 
Q 775 591 1075 516 
Q 1375 441 1709 441 
Q 2250 441 2565 725 
Q 2881 1009 2881 1497 
Q 2881 1984 2565 2268 
Q 2250 2553 1709 2553 
Q 1456 2553 1204 2497 
Q 953 2441 691 2322 
L 691 4666 
z
" transform="scale(0.015625)"/>
       <path id="DejaVuSans-65" d="M 3597 1894 
L 3597 1613 
L 953 1613 
Q 991 1019 1311 708 
Q 1631 397 2203 397 
Q 2534 397 2845 478 
Q 3156 559 3463 722 
L 3463 178 
Q 3153 47 2828 -22 
Q 2503 -91 2169 -91 
Q 1331 -91 842 396 
Q 353 884 353 1716 
Q 353 2575 817 3079 
Q 1281 3584 2069 3584 
Q 2775 3584 3186 3129 
Q 3597 2675 3597 1894 
z
M 3022 2063 
Q 3016 2534 2758 2815 
Q 2500 3097 2075 3097 
Q 1594 3097 1305 2825 
Q 1016 2553 972 2059 
L 3022 2063 
z
" transform="scale(0.015625)"/>
       <path id="DejaVuSans-2d" d="M 313 2009 
L 1997 2009 
L 1997 1497 
L 313 1497 
L 313 2009 
z
" transform="scale(0.015625)"/>
       <path id="DejaVuSans-5d" d="M 1947 4863 
L 1947 -844 
L 622 -844 
L 622 -397 
L 1369 -397 
L 1369 4416 
L 622 4416 
L 622 4863 
L 1947 4863 
z
" transform="scale(0.015625)"/>
      </defs>
      <use xlink:href="#DejaVuSans-41"/>
      <use xlink:href="#DejaVuSans-20" x="68.408203"/>
      <use xlink:href="#DejaVuSans-5b" x="100.195312"/>
      <use xlink:href="#DejaVuSans-4d" x="139.208984"/>
      <use xlink:href="#DejaVuSans-53" x="225.488281"/>
      <use xlink:href="#DejaVuSans-45" x="288.964844"/>
      <use xlink:href="#DejaVuSans-3d" x="352.148438"/>
      <use xlink:href="#DejaVuSans-38" x="435.9375"/>
      <use xlink:href="#DejaVuSans-2e" x="499.560547"/>
      <use xlink:href="#DejaVuSans-35" x="531.347656"/>
      <use xlink:href="#DejaVuSans-35" x="594.970703"/>
      <use xlink:href="#DejaVuSans-65" x="658.59375"/>
      <use xlink:href="#DejaVuSans-2d" x="720.117188"/>
      <use xlink:href="#DejaVuSans-30" x="756.201172"/>
      <use xlink:href="#DejaVuSans-35" x="819.824219"/>
      <use xlink:href="#DejaVuSans-5d" x="883.447266"/>
     </g>
    </g>
    <g id="line2d_20">
     <path d="M 51.082813 53.25625 
L 61.082813 53.25625 
L 71.082813 53.25625 
" style="fill: none; stroke: #2ca02c; stroke-width: 1.5; stroke-linecap: square"/>
    </g>
    <g id="text_14">
     <!-- P [MSE=0.00811] [$\eta$=0.0534] -->
     <g transform="translate(79.082813 56.75625)scale(0.1 -0.1)">
      <defs>
       <path id="DejaVuSans-50" d="M 1259 4147 
L 1259 2394 
L 2053 2394 
Q 2494 2394 2734 2622 
Q 2975 2850 2975 3272 
Q 2975 3691 2734 3919 
Q 2494 4147 2053 4147 
L 1259 4147 
z
M 628 4666 
L 2053 4666 
Q 2838 4666 3239 4311 
Q 3641 3956 3641 3272 
Q 3641 2581 3239 2228 
Q 2838 1875 2053 1875 
L 1259 1875 
L 1259 0 
L 628 0 
L 628 4666 
z
" transform="scale(0.015625)"/>
       <path id="DejaVuSans-Oblique-3b7" d="M 3703 2113 
L 3034 -1331 
L 2459 -1331 
L 3125 2094 
Q 3222 2591 3075 2838 
Q 2931 3084 2544 3084 
Q 2078 3084 1750 2788 
Q 1425 2491 1325 1978 
L 941 0 
L 363 0 
L 1044 3500 
L 1622 3500 
L 1516 2956 
Q 1781 3272 2094 3428 
Q 2403 3584 2769 3584 
Q 3372 3584 3609 3213 
Q 3844 2838 3703 2113 
z
" transform="scale(0.015625)"/>
       <path id="DejaVuSans-33" d="M 2597 2516 
Q 3050 2419 3304 2112 
Q 3559 1806 3559 1356 
Q 3559 666 3084 287 
Q 2609 -91 1734 -91 
Q 1441 -91 1130 -33 
Q 819 25 488 141 
L 488 750 
Q 750 597 1062 519 
Q 1375 441 1716 441 
Q 2309 441 2620 675 
Q 2931 909 2931 1356 
Q 2931 1769 2642 2001 
Q 2353 2234 1838 2234 
L 1294 2234 
L 1294 2753 
L 1863 2753 
Q 2328 2753 2575 2939 
Q 2822 3125 2822 3475 
Q 2822 3834 2567 4026 
Q 2313 4219 1838 4219 
Q 1578 4219 1281 4162 
Q 984 4106 628 3988 
L 628 4550 
Q 988 4650 1302 4700 
Q 1616 4750 1894 4750 
Q 2613 4750 3031 4423 
Q 3450 4097 3450 3541 
Q 3450 3153 3228 2886 
Q 3006 2619 2597 2516 
z
" transform="scale(0.015625)"/>
      </defs>
      <use xlink:href="#DejaVuSans-50" transform="translate(0 0.015625)"/>
      <use xlink:href="#DejaVuSans-20" transform="translate(60.302734 0.015625)"/>
      <use xlink:href="#DejaVuSans-5b" transform="translate(92.089844 0.015625)"/>
      <use xlink:href="#DejaVuSans-4d" transform="translate(131.103516 0.015625)"/>
      <use xlink:href="#DejaVuSans-53" transform="translate(217.382812 0.015625)"/>
      <use xlink:href="#DejaVuSans-45" transform="translate(280.859375 0.015625)"/>
      <use xlink:href="#DejaVuSans-3d" transform="translate(344.042969 0.015625)"/>
      <use xlink:href="#DejaVuSans-30" transform="translate(427.832031 0.015625)"/>
      <use xlink:href="#DejaVuSans-2e" transform="translate(491.455078 0.015625)"/>
      <use xlink:href="#DejaVuSans-30" transform="translate(523.242188 0.015625)"/>
      <use xlink:href="#DejaVuSans-30" transform="translate(586.865234 0.015625)"/>
      <use xlink:href="#DejaVuSans-38" transform="translate(650.488281 0.015625)"/>
      <use xlink:href="#DejaVuSans-31" transform="translate(714.111328 0.015625)"/>
      <use xlink:href="#DejaVuSans-31" transform="translate(777.734375 0.015625)"/>
      <use xlink:href="#DejaVuSans-5d" transform="translate(841.357422 0.015625)"/>
      <use xlink:href="#DejaVuSans-20" transform="translate(880.371094 0.015625)"/>
      <use xlink:href="#DejaVuSans-5b" transform="translate(912.158203 0.015625)"/>
      <use xlink:href="#DejaVuSans-Oblique-3b7" transform="translate(951.171875 0.015625)"/>
      <use xlink:href="#DejaVuSans-3d" transform="translate(1014.550781 0.015625)"/>
      <use xlink:href="#DejaVuSans-30" transform="translate(1098.339844 0.015625)"/>
      <use xlink:href="#DejaVuSans-2e" transform="translate(1161.962891 0.015625)"/>
      <use xlink:href="#DejaVuSans-30" transform="translate(1193.75 0.015625)"/>
      <use xlink:href="#DejaVuSans-35" transform="translate(1257.373047 0.015625)"/>
      <use xlink:href="#DejaVuSans-33" transform="translate(1320.996094 0.015625)"/>
      <use xlink:href="#DejaVuSans-34" transform="translate(1384.619141 0.015625)"/>
      <use xlink:href="#DejaVuSans-5d" transform="translate(1448.242188 0.015625)"/>
     </g>
    </g>
    <g id="line2d_21">
     <path d="M 51.082813 67.95625 
L 61.082813 67.95625 
L 71.082813 67.95625 
" style="fill: none; stroke: #d62728; stroke-width: 1.5; stroke-linecap: square"/>
    </g>
    <g id="text_15">
     <!-- M [MSE=0.0072] [$\eta$=0.0705] -->
     <g transform="translate(79.082813 71.45625)scale(0.1 -0.1)">
      <defs>
       <path id="DejaVuSans-37" d="M 525 4666 
L 3525 4666 
L 3525 4397 
L 1831 0 
L 1172 0 
L 2766 4134 
L 525 4134 
L 525 4666 
z
" transform="scale(0.015625)"/>
      </defs>
      <use xlink:href="#DejaVuSans-4d" transform="translate(0 0.015625)"/>
      <use xlink:href="#DejaVuSans-20" transform="translate(86.279297 0.015625)"/>
      <use xlink:href="#DejaVuSans-5b" transform="translate(118.066406 0.015625)"/>
      <use xlink:href="#DejaVuSans-4d" transform="translate(157.080078 0.015625)"/>
      <use xlink:href="#DejaVuSans-53" transform="translate(243.359375 0.015625)"/>
      <use xlink:href="#DejaVuSans-45" transform="translate(306.835938 0.015625)"/>
      <use xlink:href="#DejaVuSans-3d" transform="translate(370.019531 0.015625)"/>
      <use xlink:href="#DejaVuSans-30" transform="translate(453.808594 0.015625)"/>
      <use xlink:href="#DejaVuSans-2e" transform="translate(517.431641 0.015625)"/>
      <use xlink:href="#DejaVuSans-30" transform="translate(549.21875 0.015625)"/>
      <use xlink:href="#DejaVuSans-30" transform="translate(612.841797 0.015625)"/>
      <use xlink:href="#DejaVuSans-37" transform="translate(676.464844 0.015625)"/>
      <use xlink:href="#DejaVuSans-32" transform="translate(740.087891 0.015625)"/>
      <use xlink:href="#DejaVuSans-5d" transform="translate(803.710938 0.015625)"/>
      <use xlink:href="#DejaVuSans-20" transform="translate(842.724609 0.015625)"/>
      <use xlink:href="#DejaVuSans-5b" transform="translate(874.511719 0.015625)"/>
      <use xlink:href="#DejaVuSans-Oblique-3b7" transform="translate(913.525391 0.015625)"/>
      <use xlink:href="#DejaVuSans-3d" transform="translate(976.904297 0.015625)"/>
      <use xlink:href="#DejaVuSans-30" transform="translate(1060.693359 0.015625)"/>
      <use xlink:href="#DejaVuSans-2e" transform="translate(1124.316406 0.015625)"/>
      <use xlink:href="#DejaVuSans-30" transform="translate(1156.103516 0.015625)"/>
      <use xlink:href="#DejaVuSans-37" transform="translate(1219.726562 0.015625)"/>
      <use xlink:href="#DejaVuSans-30" transform="translate(1283.349609 0.015625)"/>
      <use xlink:href="#DejaVuSans-35" transform="translate(1346.972656 0.015625)"/>
      <use xlink:href="#DejaVuSans-5d" transform="translate(1410.595703 0.015625)"/>
     </g>
    </g>
    <g id="line2d_22">
     <path d="M 51.082813 82.65625 
L 61.082813 82.65625 
L 71.082813 82.65625 
" style="fill: none; stroke: #9467bd; stroke-width: 1.5; stroke-linecap: square"/>
    </g>
    <g id="text_16">
     <!-- S [MSE=0.00662] [$\eta$=0.0404] -->
     <g transform="translate(79.082813 86.15625)scale(0.1 -0.1)">
      <use xlink:href="#DejaVuSans-53" transform="translate(0 0.015625)"/>
      <use xlink:href="#DejaVuSans-20" transform="translate(63.476562 0.015625)"/>
      <use xlink:href="#DejaVuSans-5b" transform="translate(95.263672 0.015625)"/>
      <use xlink:href="#DejaVuSans-4d" transform="translate(134.277344 0.015625)"/>
      <use xlink:href="#DejaVuSans-53" transform="translate(220.556641 0.015625)"/>
      <use xlink:href="#DejaVuSans-45" transform="translate(284.033203 0.015625)"/>
      <use xlink:href="#DejaVuSans-3d" transform="translate(347.216797 0.015625)"/>
      <use xlink:href="#DejaVuSans-30" transform="translate(431.005859 0.015625)"/>
      <use xlink:href="#DejaVuSans-2e" transform="translate(494.628906 0.015625)"/>
      <use xlink:href="#DejaVuSans-30" transform="translate(526.416016 0.015625)"/>
      <use xlink:href="#DejaVuSans-30" transform="translate(590.039062 0.015625)"/>
      <use xlink:href="#DejaVuSans-36" transform="translate(653.662109 0.015625)"/>
      <use xlink:href="#DejaVuSans-36" transform="translate(717.285156 0.015625)"/>
      <use xlink:href="#DejaVuSans-32" transform="translate(780.908203 0.015625)"/>
      <use xlink:href="#DejaVuSans-5d" transform="translate(844.53125 0.015625)"/>
      <use xlink:href="#DejaVuSans-20" transform="translate(883.544922 0.015625)"/>
      <use xlink:href="#DejaVuSans-5b" transform="translate(915.332031 0.015625)"/>
      <use xlink:href="#DejaVuSans-Oblique-3b7" transform="translate(954.345703 0.015625)"/>
      <use xlink:href="#DejaVuSans-3d" transform="translate(1017.724609 0.015625)"/>
      <use xlink:href="#DejaVuSans-30" transform="translate(1101.513672 0.015625)"/>
      <use xlink:href="#DejaVuSans-2e" transform="translate(1165.136719 0.015625)"/>
      <use xlink:href="#DejaVuSans-30" transform="translate(1196.923828 0.015625)"/>
      <use xlink:href="#DejaVuSans-34" transform="translate(1260.546875 0.015625)"/>
      <use xlink:href="#DejaVuSans-30" transform="translate(1324.169922 0.015625)"/>
      <use xlink:href="#DejaVuSans-34" transform="translate(1387.792969 0.015625)"/>
      <use xlink:href="#DejaVuSans-5d" transform="translate(1451.416016 0.015625)"/>
     </g>
    </g>
    <g id="line2d_23">
     <path d="M 51.082813 97.35625 
L 61.082813 97.35625 
L 71.082813 97.35625 
" style="fill: none; stroke: #8c564b; stroke-width: 1.5; stroke-linecap: square"/>
    </g>
    <g id="text_17">
     <!-- M + S [MSE=0.00537] [$\eta$=0.215] -->
     <g transform="translate(79.082813 100.85625)scale(0.1 -0.1)">
      <defs>
       <path id="DejaVuSans-2b" d="M 2944 4013 
L 2944 2272 
L 4684 2272 
L 4684 1741 
L 2944 1741 
L 2944 0 
L 2419 0 
L 2419 1741 
L 678 1741 
L 678 2272 
L 2419 2272 
L 2419 4013 
L 2944 4013 
z
" transform="scale(0.015625)"/>
      </defs>
      <use xlink:href="#DejaVuSans-4d" transform="translate(0 0.015625)"/>
      <use xlink:href="#DejaVuSans-20" transform="translate(86.279297 0.015625)"/>
      <use xlink:href="#DejaVuSans-2b" transform="translate(118.066406 0.015625)"/>
      <use xlink:href="#DejaVuSans-20" transform="translate(201.855469 0.015625)"/>
      <use xlink:href="#DejaVuSans-53" transform="translate(233.642578 0.015625)"/>
      <use xlink:href="#DejaVuSans-20" transform="translate(297.119141 0.015625)"/>
      <use xlink:href="#DejaVuSans-5b" transform="translate(328.90625 0.015625)"/>
      <use xlink:href="#DejaVuSans-4d" transform="translate(367.919922 0.015625)"/>
      <use xlink:href="#DejaVuSans-53" transform="translate(454.199219 0.015625)"/>
      <use xlink:href="#DejaVuSans-45" transform="translate(517.675781 0.015625)"/>
      <use xlink:href="#DejaVuSans-3d" transform="translate(580.859375 0.015625)"/>
      <use xlink:href="#DejaVuSans-30" transform="translate(664.648438 0.015625)"/>
      <use xlink:href="#DejaVuSans-2e" transform="translate(728.271484 0.015625)"/>
      <use xlink:href="#DejaVuSans-30" transform="translate(760.058594 0.015625)"/>
      <use xlink:href="#DejaVuSans-30" transform="translate(823.681641 0.015625)"/>
      <use xlink:href="#DejaVuSans-35" transform="translate(887.304688 0.015625)"/>
      <use xlink:href="#DejaVuSans-33" transform="translate(950.927734 0.015625)"/>
      <use xlink:href="#DejaVuSans-37" transform="translate(1014.550781 0.015625)"/>
      <use xlink:href="#DejaVuSans-5d" transform="translate(1078.173828 0.015625)"/>
      <use xlink:href="#DejaVuSans-20" transform="translate(1117.1875 0.015625)"/>
      <use xlink:href="#DejaVuSans-5b" transform="translate(1148.974609 0.015625)"/>
      <use xlink:href="#DejaVuSans-Oblique-3b7" transform="translate(1187.988281 0.015625)"/>
      <use xlink:href="#DejaVuSans-3d" transform="translate(1251.367188 0.015625)"/>
      <use xlink:href="#DejaVuSans-30" transform="translate(1335.15625 0.015625)"/>
      <use xlink:href="#DejaVuSans-2e" transform="translate(1398.779297 0.015625)"/>
      <use xlink:href="#DejaVuSans-32" transform="translate(1425.066406 0.015625)"/>
      <use xlink:href="#DejaVuSans-31" transform="translate(1488.689453 0.015625)"/>
      <use xlink:href="#DejaVuSans-35" transform="translate(1552.3125 0.015625)"/>
      <use xlink:href="#DejaVuSans-5d" transform="translate(1615.935547 0.015625)"/>
     </g>
    </g>
   </g>
  </g>
 </g>
 <defs>
  <clipPath id="pc45dc1534c">
   <rect x="42.082813" y="10.8" width="407.917187" height="307.321875"/>
  </clipPath>
 </defs>
</svg>
